<svg width="90" height="90" viewBox="0 0 90 90" fill="none" xmlns="http://www.w3.org/2000/svg">
<path d="M57.6562 37.9687H51.2297L56.1656 24.3843C56.3203 23.9483 56.264 23.4702 55.9969 23.0905C55.7297 22.7108 55.3078 22.4858 54.8437 22.4858H40.7812C40.2047 22.4858 39.6844 22.8374 39.4734 23.3718L31.0359 44.4655C30.8672 44.9015 30.9094 45.3937 31.1765 45.7733C31.4437 46.153 31.8797 46.3921 32.3437 46.3921H39.1781L36.5765 65.8968C36.4922 66.5296 36.8437 67.1483 37.4484 67.3874C37.6172 67.4577 37.8 67.4858 37.9687 67.4858C38.4047 67.4858 38.8265 67.289 39.1078 66.9093L58.7953 40.1905C59.1047 39.7687 59.1609 39.1921 58.9219 38.728C58.6828 38.2499 58.1906 37.9546 57.6703 37.9546L57.6562 37.9687Z" fill="white"/>
<path d="M45 15.4688C45.7734 15.4688 46.4062 14.8359 46.4062 14.0625V5.625C46.4062 4.85156 45.7734 4.21875 45 4.21875C44.2266 4.21875 43.5938 4.85156 43.5938 5.625V14.0625C43.5938 14.8359 44.2266 15.4688 45 15.4688Z" fill="white"/>
<path d="M45 74.5312C44.2266 74.5312 43.5938 75.1641 43.5938 75.9375V84.375C43.5938 85.1484 44.2266 85.7812 45 85.7812C45.7734 85.7812 46.4062 85.1484 46.4062 84.375V75.9375C46.4062 75.1641 45.7734 74.5312 45 74.5312Z" fill="white"/>
<path d="M84.375 42.8906H75.9375C75.1641 42.8906 74.5312 43.5234 74.5312 44.2969C74.5312 45.0703 75.1641 45.7031 75.9375 45.7031H84.375C85.1484 45.7031 85.7812 45.0703 85.7812 44.2969C85.7812 43.5234 85.1484 42.8906 84.375 42.8906Z" fill="white"/>
<path d="M15.4688 44.2969C15.4688 43.5234 14.8359 42.8906 14.0625 42.8906H5.625C4.85156 42.8906 4.21875 43.5234 4.21875 44.2969C4.21875 45.0703 4.85156 45.7031 5.625 45.7031H14.0625C14.8359 45.7031 15.4688 45.0703 15.4688 44.2969Z" fill="white"/>
<path d="M26.5361 10.1954C26.1423 9.52043 25.2845 9.29543 24.6095 9.67512C23.9345 10.0689 23.7095 10.9267 24.0892 11.6017L28.3079 18.9142C28.5751 19.3642 29.0392 19.6173 29.5314 19.6173C29.7704 19.6173 30.0095 19.5611 30.2345 19.4345C30.9095 19.0407 31.1345 18.1829 30.7548 17.5079L26.5361 10.1954Z" fill="white"/>
<path d="M61.6923 71.0861C61.2986 70.4111 60.4407 70.1861 59.7657 70.5657C59.0907 70.9595 58.8657 71.8173 59.2454 72.4923L63.4642 79.8048C63.7314 80.2548 64.1954 80.5079 64.6876 80.5079C64.9267 80.5079 65.1657 80.4517 65.3907 80.3251C66.0657 79.9314 66.2907 79.0736 65.9111 78.3986L61.6923 71.0861Z" fill="white"/>
<path d="M71.4376 30.3326C71.6767 30.3326 71.9157 30.2764 72.1407 30.1498L79.4532 25.9311C80.1282 25.5373 80.3532 24.6795 79.9736 24.0045C79.5798 23.3295 78.722 23.1045 78.047 23.4842L70.7345 27.703C70.0595 28.0967 69.8345 28.9545 70.2142 29.6295C70.4814 30.0795 70.9454 30.3326 71.4376 30.3326Z" fill="white"/>
<path d="M17.1564 58.6405L9.84387 62.8592C9.16887 63.253 8.94387 64.1108 9.32356 64.7858C9.59074 65.2358 10.0548 65.4889 10.547 65.4889C10.7861 65.4889 11.0251 65.4326 11.2501 65.3061L18.5626 61.0873C19.2376 60.6936 19.4626 59.8358 19.0829 59.1608C18.6892 58.4858 17.8314 58.2608 17.1564 58.6405Z" fill="white"/>
<path d="M18.9141 28.3078L11.6016 24.0891C10.9266 23.6953 10.0688 23.9344 9.67502 24.6094C9.28127 25.2844 9.52033 26.1422 10.1953 26.536L17.5078 30.7547C17.7328 30.8813 17.9719 30.9375 18.211 30.9375C18.7031 30.9375 19.1672 30.6844 19.4344 30.2344C19.8281 29.5594 19.5891 28.7016 18.9141 28.3078Z" fill="white"/>
<path d="M79.8047 63.4641L72.4922 59.2453C71.8172 58.8516 70.9594 59.0906 70.5656 59.7656C70.1719 60.4406 70.411 61.2985 71.086 61.6922L78.3985 65.911C78.6235 66.0375 78.8625 66.0938 79.1016 66.0938C79.5938 66.0938 80.0578 65.8406 80.325 65.3906C80.7188 64.7156 80.4797 63.8578 79.8047 63.4641Z" fill="white"/>
<path d="M59.1612 19.0687C59.3862 19.1952 59.6252 19.2515 59.8643 19.2515C60.3565 19.2515 60.8205 18.9984 61.0877 18.5484L65.3065 11.2359C65.7002 10.5609 65.4612 9.70305 64.7862 9.3093C64.1112 8.91555 63.2533 9.15461 62.8596 9.82961L58.6408 17.1421C58.2471 17.8171 58.4862 18.6749 59.1612 19.0687Z" fill="white"/>
<path d="M29.6299 70.2282C28.9549 69.8345 28.0971 70.0736 27.7033 70.7486L23.4846 78.0611C23.0908 78.7361 23.3299 79.5939 24.0049 79.9876C24.2299 80.1142 24.469 80.1704 24.708 80.1704C25.2002 80.1704 25.6643 79.9173 25.9315 79.4673L30.1502 72.1548C30.544 71.4798 30.3049 70.622 29.6299 70.2282Z" fill="white"/>
</svg>
