<svg width="90" height="90" viewBox="0 0 90 90" fill="none" xmlns="http://www.w3.org/2000/svg">
<path fill-rule="evenodd" clip-rule="evenodd" d="M61.0108 5.57181C61.4977 14.5068 54.1167 21.8881 45.1815 21.4014C45.0954 21.3967 45.0276 21.3288 45.0229 21.2428C44.5362 12.3076 51.9171 4.92651 60.8522 5.41341C60.9383 5.41791 61.0062 5.48595 61.0108 5.57181ZM46.8684 53.8975H53.5943C53.6456 53.8975 53.6897 53.8769 53.7226 53.8377C53.7558 53.7985 53.7682 53.7513 53.7592 53.7007C53.1254 50.1113 55.8789 46.5868 59.7377 46.5868C63.5965 46.5868 66.3502 50.1112 65.7164 53.7007C65.7074 53.7513 65.72 53.7985 65.7529 53.8377C65.7859 53.8769 65.83 53.8975 65.8813 53.8975H75.7762C75.859 53.8975 75.9285 53.8388 75.9418 53.7571C77.7632 42.6064 75.2312 26.6835 61.4043 25.7372C55.8076 25.3542 50.3518 28.232 46.3095 32.1043C46.2753 32.1371 46.2579 32.178 46.2579 32.2255V36.3118C46.2579 37.2459 45.2293 37.947 44.2836 37.3449C44.2827 37.3443 44.2818 37.3438 44.2809 37.3432C42.1411 36.0375 38.9472 37.5034 38.9472 40.418C38.9472 43.2463 42.0378 44.8629 44.3472 43.4531C45.1883 42.9398 46.2555 43.5561 46.2548 44.5238H46.2579V53.7299C46.2579 53.8222 46.3331 53.8975 46.4254 53.8975H46.8684ZM46.258 56.5798C46.258 56.4875 46.3333 56.4122 46.4256 56.4122H55.6319C56.3263 56.4122 56.8894 55.8492 56.8894 55.1548C56.8894 54.4067 56.1845 54.1255 56.1845 52.6731C56.1845 50.7424 57.7044 49.1015 59.7379 49.1015C62.5662 49.1015 64.183 52.192 62.773 54.5015C62.2597 55.3427 62.876 56.4099 63.8438 56.4092V56.4122H75.1871C75.2407 56.4122 75.2868 56.4349 75.3197 56.4774C75.3525 56.5199 75.3629 56.5701 75.3494 56.6221C73.9357 62.0405 70.222 70.3457 65.3638 76.5634C61.7198 81.2272 57.4778 84.6634 53.2161 84.6087C50.6391 84.5756 48.0823 82.7253 46.3079 80.9649C46.275 80.9322 46.2584 80.8924 46.2584 80.846V76.0356C46.2584 75.9843 46.2789 75.9402 46.3182 75.9073C46.3574 75.8744 46.4046 75.8618 46.4551 75.8708C50.0452 76.5044 53.5691 73.7507 53.5691 69.8921C53.5691 66.0331 50.0445 63.2796 46.4551 63.9134C46.4046 63.9224 46.3576 63.9098 46.3182 63.8768C46.2789 63.8439 46.2584 63.7998 46.2584 63.7485V56.5798H46.258ZM43.1295 56.4122H36.407C36.3557 56.4122 36.3116 56.4328 36.2787 56.472C36.2457 56.5112 36.2331 56.5584 36.2421 56.609C36.8759 60.1984 34.1225 63.7229 30.2634 63.7229C26.4044 63.7229 23.651 60.1985 24.2847 56.609C24.2937 56.5584 24.2811 56.5112 24.2482 56.472C24.2153 56.4328 24.1712 56.4122 24.1199 56.4122H14.8142C14.7606 56.4122 14.7145 56.4349 14.6816 56.4774C14.6488 56.5197 14.6384 56.5701 14.6519 56.6221C16.0656 62.0405 19.7795 70.3457 24.6377 76.5634C28.2816 81.227 32.5237 84.6636 36.7855 84.6087C39.3567 84.5756 41.9119 82.7331 43.6938 80.9649C43.7267 80.9322 43.7433 80.8924 43.7433 80.846V73.998H43.7463C43.7456 73.0304 44.8128 72.4139 45.654 72.9274C47.9634 74.3372 51.054 72.7208 51.054 69.8922C51.054 67.8586 49.4131 66.3387 47.4824 66.3387C46.0296 66.3387 45.7492 67.0436 45.0007 67.0436C44.3063 67.0436 43.7434 66.4805 43.7434 65.7861V56.5798C43.7434 56.4875 43.6682 56.4122 43.5759 56.4122H43.1295ZM36.4328 40.4178C36.4328 44.2765 39.9568 47.0301 43.5467 46.3965C43.5973 46.3875 43.6443 46.4001 43.6837 46.433C43.7229 46.466 43.7434 46.5101 43.7434 46.5614V53.7299C43.7434 53.8222 43.6682 53.8975 43.5759 53.8975H34.3696C33.6818 53.8975 33.1123 54.4537 33.1123 55.1548C33.1123 55.9028 33.8172 56.184 33.8172 57.6364C33.8172 59.5671 32.2973 61.208 30.2638 61.208C27.4355 61.208 25.8187 58.1174 27.2286 55.808C27.742 54.9668 27.1257 53.8996 26.158 53.9003V53.8973H14.2251C14.1423 53.8973 14.073 53.8386 14.0595 53.7569C12.2246 42.5303 14.814 26.6804 28.597 25.737C34.1916 25.3542 39.647 28.2297 43.6918 32.1042C43.726 32.1369 43.7434 32.1778 43.7434 32.2253V34.2741C43.7434 34.3254 43.7229 34.3695 43.6837 34.4024C43.6444 34.4353 43.5973 34.4479 43.5467 34.4389C39.9571 33.8053 36.4328 36.5588 36.4328 40.4178Z" fill="white"/>
</svg>
