<svg width="60" height="60" viewBox="0 0 60 60" fill="none" xmlns="http://www.w3.org/2000/svg">
<g clip-path="url(#clip0_256_53)">
<path d="M48 24C54.6172 24 60 18.6172 60 12C60 5.38281 54.6172 0 48 0C43.1948 0 39.0518 2.84521 37.1372 6.93408L33.9238 5.74805C33.9619 5.50195 34 5.25586 34 5C34 2.24316 31.7568 0 29 0C26.2432 0 24 2.24316 24 5C24 7.75684 26.2432 10 29 10C30.791 10 32.353 9.04492 33.2358 7.62598L36.4439 8.81006C36.1621 9.82812 36 10.894 36 12C36 13.3101 36.2178 14.5679 36.6079 15.749L25.6099 20.4102C23.5962 16.603 19.5991 14 15 14C13.5098 14 12.0879 14.2861 10.77 14.7842L8.00391 8.97119C9.20898 8.05713 10 6.625 10 5C10 2.24316 7.75684 0 5 0C2.24316 0 0 2.24316 0 5C0 7.75684 2.24316 10 5 10C5.41602 10 5.81494 9.93408 6.20215 9.83692L8.96484 15.644C5.40381 17.728 3 21.584 3 26C3 30.148 5.11621 33.8091 8.32422 35.9648L6.49512 39.2529C6.01904 39.103 5.52393 39 5 39C2.24316 39 0 41.2432 0 44C0 46.7568 2.24316 49 5 49C7.75684 49 10 46.7568 10 44C10 42.4858 9.30908 41.1431 8.24316 40.2261L10.0762 36.9312C11.5801 37.6118 13.2441 38 15 38C17.7441 38 20.2681 37.064 22.292 35.5078L26.228 39.8379C24.2319 41.9819 23 44.8462 23 48C23 48.6118 23.061 49.208 23.1489 49.7949L18.5181 50.894C17.7212 49.1899 16.002 48 14 48C11.2432 48 9 50.2432 9 53C9 55.7568 11.2432 58 14 58C16.7568 58 19 55.7568 19 53C19 52.9448 18.9849 52.8931 18.9839 52.8379L23.606 51.7422C25.1821 56.5308 29.6899 60 35 60C41.6172 60 47 54.6172 47 48C47 45.9482 46.481 44.0161 45.5689 42.3262L51.4429 38.5068C52.3511 39.4268 53.6089 40 55 40C57.7568 40 60 37.7568 60 35C60 32.2432 57.7568 30 55 30C52.2432 30 50 32.2432 50 35C50 35.646 50.1328 36.2598 50.3569 36.8272L44.4692 40.6548C43.291 39.1401 41.7612 37.917 40 37.105L44.8809 23.5742C45.877 23.8428 46.9199 24 48 24ZM29 8C27.3462 8 26 6.65381 26 5C26 3.34619 27.3462 2 29 2C30.6538 2 32 3.34619 32 5C32 6.65381 30.6538 8 29 8ZM2 5C2 3.34619 3.34619 2 5 2C6.65381 2 8 3.34619 8 5C8 6.65381 6.65381 8 5 8C3.34619 8 2 6.65381 2 5ZM5 47C3.34619 47 2 45.6538 2 44C2 42.3462 3.34619 41 5 41C6.65381 41 8 42.3462 8 44C8 45.6538 6.65381 47 5 47ZM14 56C12.3462 56 11 54.6538 11 53C11 51.3462 12.3462 50 14 50C15.6538 50 17 51.3462 17 53C17 54.6538 15.6538 56 14 56ZM55 32C56.6538 32 58 33.3462 58 35C58 36.6538 56.6538 38 55 38C53.3462 38 52 36.6538 52 35C52 33.3462 53.3462 32 55 32ZM42.1108 20.064C42.5571 17.751 44.5962 16 47 16H49C51.4038 16 53.4429 17.751 53.8892 20.064C52.2349 21.2749 50.2031 22 48 22C45.7969 22 43.7651 21.2749 42.1108 20.064ZM48 14C46.3462 14 45 12.6538 45 11C45 9.34619 46.3462 8 48 8C49.6538 8 51 9.34619 51 11C51 12.6538 49.6538 14 48 14ZM48 2C53.5142 2 58 6.48584 58 12C58 14.5 57.0708 16.7842 55.5479 18.5391C54.8472 16.6938 53.3862 15.2212 51.5659 14.4941C52.4512 13.5918 53 12.3599 53 11C53 8.24316 50.7568 6 48 6C45.2432 6 43 8.24316 43 11C43 12.3599 43.5488 13.5918 44.4341 14.4941C42.6138 15.2212 41.1528 16.6938 40.4521 18.5391C38.9292 16.7842 38 14.5 38 12C38 6.48584 42.4858 2 48 2ZM5 26C5 20.4858 9.48584 16 15 16C20.5142 16 25 20.4858 25 26C25 28.5078 24.0649 30.7979 22.5342 32.5552C21.8359 30.7031 20.3721 29.2231 18.5469 28.4941C19.4312 27.5918 19.98 26.3599 19.98 25C19.98 22.2432 17.7368 20 14.98 20C12.2231 20 9.97998 22.2432 9.97998 25C9.97998 26.3599 10.5288 27.5918 11.4141 28.4941C9.59912 29.2178 8.14014 30.6851 7.43701 32.5229C5.92285 30.77 5 28.4932 5 26ZM11.98 25C11.98 23.3462 13.3262 22 14.98 22C16.6338 22 17.98 23.3462 17.98 25C17.98 26.6538 16.6338 28 14.98 28C13.3262 28 11.98 26.6538 11.98 25ZM9.09424 34.0508C9.54492 31.7441 11.5811 30 13.98 30H15.98C18.3882 30 20.4312 31.7568 20.8711 34.0772C19.2202 35.2808 17.1948 36 15 36C12.7891 36 10.751 35.27 9.09424 34.0508ZM29.0942 56.0508C29.5449 53.7441 31.5811 52 33.98 52H35.98C38.3882 52 40.4312 53.7568 40.8711 56.0772C39.2202 57.2808 37.1948 58 35 58C32.7891 58 30.751 57.27 29.0942 56.0508ZM34.98 50C33.3262 50 31.98 48.6538 31.98 47C31.98 45.3462 33.3262 44 34.98 44C36.6338 44 37.98 45.3462 37.98 47C37.98 48.6538 36.6338 50 34.98 50ZM45 48C45 50.5078 44.0649 52.7979 42.5342 54.5552C41.8359 52.7031 40.3721 51.2231 38.5469 50.4941C39.4312 49.5918 39.98 48.3599 39.98 47C39.98 44.2432 37.7368 42 34.98 42C32.2231 42 29.98 44.2432 29.98 47C29.98 48.3599 30.5288 49.5918 31.4141 50.4941C29.5991 51.2178 28.1401 52.6851 27.437 54.5229C25.9229 52.77 25 50.4932 25 48C25 42.4858 29.4858 38 35 38C40.5142 38 45 42.4858 45 48ZM38.1191 36.4258C37.1231 36.1572 36.0801 36 35 36C32.2559 36 29.7319 36.936 27.708 38.4922L23.772 34.1621C25.7681 32.0181 27 29.1538 27 26C27 24.6899 26.7822 23.4321 26.3921 22.251L37.3901 17.5898C38.6221 19.9189 40.5991 21.7881 43.001 22.895L38.1191 36.4258Z" fill="white"/>
</g>
<defs>
<clipPath id="clip0_256_53">
<rect width="60" height="60" fill="white"/>
</clipPath>
</defs>
</svg>
