<svg width="60" height="60" viewBox="0 0 60 60" fill="none" xmlns="http://www.w3.org/2000/svg">
<g clip-path="url(#clip0_256_56)">
<path d="M14.8539 49.9636C16.8823 49.9636 18.5324 48.3134 18.5324 46.285C18.5324 44.2566 16.8821 42.6065 14.8539 42.6065C12.8256 42.6065 11.1754 44.2566 11.1754 46.285C11.1754 48.3134 12.8256 49.9636 14.8539 49.9636ZM14.8539 48.3229C14.5936 48.3229 14.3454 48.2721 14.1163 48.1827L16.7515 45.5475C16.8409 45.7766 16.8918 46.0248 16.8918 46.285C16.8918 47.4087 15.9776 48.3229 14.8539 48.3229ZM14.8539 44.2473C15.1141 44.2473 15.3623 44.2981 15.5914 44.3875L12.9562 47.0227C12.8668 46.7936 12.816 46.5454 12.816 46.2852C12.816 45.1614 13.7302 44.2473 14.8539 44.2473ZM19.7394 21.3802C19.7394 22.0113 19.2279 22.5228 18.5968 22.5228C17.9658 22.5228 17.4543 22.0113 17.4543 21.3802C17.4543 20.7492 17.9658 20.2377 18.5968 20.2377C19.2279 20.2377 19.7394 20.7492 19.7394 21.3802ZM57.5807 53.2262H23.7607V48.8809H30.1795C31.8595 48.8809 33.2264 47.514 33.2264 45.834V40.2194H36.5195C37.3352 40.2194 37.999 39.5557 37.999 38.7399V36.1032C37.999 35.2875 37.3352 34.6237 36.5195 34.6237H24.7421C23.9264 34.6237 23.2627 35.2875 23.2627 36.1032V38.7399C23.2627 39.5557 23.9264 40.2194 24.7421 40.2194H28.0352V43.6897H23.7608V42.6298C23.7608 39.9136 21.5509 37.7038 18.8346 37.7038H12.9154C11.7796 35.789 11.41 33.5532 11.8759 31.3599C12.402 28.8835 13.9376 26.7826 16.1194 25.5287C16.8444 25.9634 17.6919 26.214 18.5971 26.214C19.6341 26.214 20.595 25.8846 21.3832 25.3265L26.08 30.0232C26.2402 30.1834 26.45 30.2635 26.66 30.2635C26.87 30.2635 27.0799 30.1834 27.2401 30.0232L27.8878 29.3755L29.3842 30.8721C29.6654 31.1532 30.0348 31.2939 30.4043 31.2939C30.7738 31.2939 31.1432 31.1533 31.4244 30.872L35.1107 27.1857C35.6732 26.6232 35.6732 25.7081 35.1107 25.1456L33.6143 23.6491L34.2621 23.0013C34.5824 22.6809 34.5824 22.1615 34.2621 21.8412L18.1361 5.71531C17.8158 5.39504 17.2963 5.39504 16.976 5.71531L15.7467 6.94461L13.4354 4.63332C13.6125 4.38816 13.7095 4.09508 13.7095 3.78605C13.7095 3.39793 13.5588 3.03359 13.2853 2.76008L11.5492 1.02395C10.9834 0.458164 10.0629 0.458281 9.49734 1.02395L5.26289 5.2584C4.69711 5.82418 4.69711 6.74469 5.26289 7.31035L6.99902 9.04648C7.28191 9.32938 7.65328 9.4707 8.02488 9.4707C8.32266 9.4707 8.61973 9.37824 8.87191 9.19648L11.1834 11.508L9.95414 12.7373C9.80039 12.8912 9.71391 13.0998 9.71391 13.3174C9.71391 13.535 9.80039 13.7436 9.95414 13.8975L14.6509 18.5942C14.4479 18.8809 14.2746 19.1899 14.1371 19.5179C9.86168 21.5207 6.74121 25.4367 5.75883 30.0605C5.2125 32.6322 5.34211 35.2662 6.12773 37.7457C3.70875 38.0568 1.83305 40.1278 1.83305 42.63V53.315C1.02832 53.5653 0.442383 54.3171 0.442383 55.2031V57.4235C0.442383 58.5136 1.32926 59.4004 2.41934 59.4004H57.5811C58.6712 59.4004 59.5581 58.5136 59.5581 57.4235V55.2031C59.5581 54.113 58.6712 53.2263 57.5811 53.2263L57.5807 53.2262ZM24.9032 36.2643H36.3582V38.5788H24.9032V36.2643ZM28.8554 45.3303C29.3085 45.3303 29.6757 44.963 29.6757 44.51V40.2194H31.5858V45.834C31.5858 46.6094 30.955 47.2402 30.1795 47.2402H23.7607V45.3303H28.8554ZM18.5968 24.5734C16.8362 24.5734 15.4037 23.141 15.4037 21.3802C15.4037 19.6195 16.8361 18.1871 18.5968 18.1871C20.3576 18.1871 21.7898 19.6195 21.7898 21.3802C21.7898 23.141 20.3575 24.5734 18.5968 24.5734ZM33.8103 26.1656L30.4041 29.5719L29.0476 28.2153L32.4539 24.809L33.8103 26.1656ZM6.55699 6.28437L10.5232 2.31805L11.9911 3.78582L8.02488 7.75215L6.55699 6.28437ZM10.0464 8.05086L12.2896 5.80766L14.5866 8.10477L12.3434 10.348L10.0464 8.05098V8.05086ZM17.5561 7.45543L32.5218 22.4211L26.6599 28.2829L22.5432 24.1662C23.1013 23.3782 23.4307 22.4171 23.4307 21.3801C23.4307 18.7148 21.2624 16.5464 18.5971 16.5464C17.56 16.5464 16.599 16.8758 15.8108 17.4338L11.6941 13.3171L17.5561 7.45543ZM7.36348 30.4012C8.15531 26.6739 10.5064 23.4627 13.7679 21.5616C13.8076 22.632 14.1968 23.6141 14.8247 24.3976C12.492 25.9065 10.8555 28.267 10.2709 31.019C9.78504 33.3062 10.0676 35.6318 11.0588 37.7036H7.84441C7.01063 35.3639 6.84293 32.851 7.36348 30.4012ZM6.75902 39.3443H18.8346C20.6463 39.3443 22.1202 40.8181 22.1202 42.6297V53.2261H3.47344V42.6297C3.47344 40.8181 4.9473 39.3443 6.75902 39.3443ZM57.9171 57.4232C57.9171 57.6056 57.7631 57.7596 57.5808 57.7596H2.41898C2.23664 57.7596 2.08266 57.6056 2.08266 57.4232V55.2029C2.08266 55.0205 2.23664 54.8667 2.41898 54.8667H57.5808C57.7631 54.8667 57.9171 55.0205 57.9171 55.2029V57.4232ZM35.6262 21.0005C36.2585 22.0959 37.6042 22.6653 39.4958 22.6652C40.0868 22.6652 40.7313 22.6095 41.4238 22.497C41.8624 22.4258 42.3156 22.3312 42.7784 22.2185C43.7177 25.4635 45.2784 27.8009 47.4047 27.8009C49.5309 27.8009 51.0916 25.4635 52.031 22.2185C52.4938 22.3313 52.947 22.4258 53.3856 22.497C54.0782 22.6095 54.7225 22.6652 55.3136 22.6652C57.205 22.6652 58.5509 22.0959 59.1832 21.0005C60.0132 19.563 59.4441 17.5142 57.5804 15.2314C57.3001 14.888 56.9925 14.5438 56.6644 14.2003C56.9925 13.8568 57.3001 13.5125 57.5804 13.1691C59.4441 10.8864 60.0132 8.83754 59.1832 7.4C58.3532 5.9627 56.2939 5.43102 53.3856 5.90352C52.947 5.97477 52.4939 6.06934 52.031 6.18207C51.0916 2.93703 49.5309 0.599609 47.4047 0.599609C45.2784 0.599609 43.7176 2.93703 42.7784 6.18207C42.3156 6.06922 41.8624 5.97477 41.4238 5.90352C38.5151 5.43078 36.4561 5.96234 35.6262 7.4C34.7961 8.83754 35.3653 10.8863 37.2289 13.1691C37.5093 13.5125 37.8169 13.8568 38.145 14.2003C37.8169 14.5438 37.5093 14.888 37.2289 15.2314C35.3653 17.5141 34.7961 19.563 35.6262 21.0005ZM41.1607 20.8777C39.0362 21.2229 37.4984 20.9621 37.047 20.1802C36.5955 19.3984 37.1387 17.9362 38.4998 16.269C38.7516 15.9607 39.028 15.6512 39.3229 15.3418C40.099 16.042 40.9601 16.7305 41.8908 17.3915C41.9987 18.505 42.1629 19.5956 42.382 20.627C41.9644 20.7283 41.5556 20.8135 41.1607 20.8777ZM45.3909 10.7124C46.0612 10.3255 46.7346 9.9684 47.4047 9.64121C48.0746 9.96828 48.7481 10.3254 49.4184 10.7124C50.0882 11.0991 50.7336 11.5034 51.3514 11.9198C51.4038 12.6539 51.4321 13.4155 51.4321 14.2003C51.4321 14.9851 51.4038 15.7466 51.3514 16.4807C50.7336 16.8971 50.0882 17.3014 49.4184 17.6881C48.7481 18.0751 48.0748 18.4321 47.4047 18.7592C46.7347 18.4321 46.0612 18.0751 45.3909 17.6881C44.7211 17.3014 44.0756 16.897 43.4578 16.4807C43.4054 15.7466 43.3772 14.985 43.3772 14.2003C43.3772 13.4156 43.4054 12.654 43.4578 11.9199C44.0756 11.5036 44.7211 11.0991 45.3909 10.7124ZM43.6819 9.82414C43.762 9.26867 43.8563 8.73547 43.9629 8.22758C44.4611 8.39176 44.9686 8.57797 45.4826 8.7848C45.1781 8.94863 44.8739 9.11656 44.5707 9.29164C44.2697 9.46543 43.9741 9.64367 43.682 9.82414H43.6819ZM49.3268 8.7848C49.8408 8.57797 50.3483 8.39164 50.8464 8.22758C50.9529 8.73547 51.0472 9.26867 51.1274 9.82414C50.8352 9.64379 50.5398 9.46555 50.2387 9.29176C49.9356 9.11668 49.6313 8.94875 49.3269 8.78492L49.3268 8.7848ZM53.0558 13.1573C53.4942 13.5008 53.9114 13.8491 54.3043 14.2003C53.9113 14.5515 53.4942 14.8998 53.0557 15.2432C53.0667 14.8952 53.0725 14.5471 53.0725 14.2003C53.0725 13.8534 53.0667 13.5054 53.0558 13.1573ZM51.1274 18.5765C51.0472 19.132 50.953 19.6651 50.8464 20.1731C50.3482 20.0089 49.8407 19.8227 49.3268 19.6159C49.6312 19.452 49.9355 19.2841 50.2386 19.109C50.5397 18.9352 50.8352 18.757 51.1273 18.5766L51.1274 18.5765ZM45.4825 19.6159C44.9685 19.8227 44.4609 20.009 43.9629 20.1731C43.8564 19.6651 43.762 19.132 43.6819 18.5765C43.974 18.7569 44.2696 18.9351 44.5706 19.109C44.8738 19.2841 45.178 19.452 45.4825 19.6159ZM41.7534 15.2434C41.315 14.8999 40.898 14.5516 40.5049 14.2004C40.898 13.8492 41.315 13.5009 41.7534 13.1574C41.7425 13.5055 41.7367 13.8535 41.7367 14.2004C41.7367 14.5473 41.7425 14.8953 41.7534 15.2434ZM47.4047 26.1604C46.3166 26.1604 45.1548 24.4843 44.3602 21.7677C45.35 21.4468 46.3719 21.0472 47.4047 20.5743C48.4376 21.0472 49.4593 21.4467 50.4492 21.7677C49.6545 24.4843 48.4928 26.1604 47.4047 26.1604ZM57.7623 20.1804C57.3108 20.9622 55.7732 21.2229 53.6486 20.8779C53.2535 20.8136 52.845 20.7284 52.4273 20.6271C52.6465 19.5958 52.8107 18.5052 52.9186 17.3918C53.8493 16.7307 54.7104 16.0421 55.4865 15.3419C55.7814 15.6512 56.0578 15.9608 56.3095 16.2691C57.6707 17.9364 58.2138 19.3986 57.7624 20.1804H57.7623ZM53.6486 7.52293C54.2663 7.42262 54.8343 7.37352 55.3405 7.37352C56.5753 7.37352 57.4422 7.6659 57.7623 8.22043C58.2137 9.00231 57.6705 10.4645 56.3094 12.1317C56.0577 12.44 55.7812 12.7495 55.4864 13.0589C54.7103 12.3587 53.8492 11.6702 52.9185 11.0091C52.8105 9.89563 52.6464 8.80508 52.4272 7.77383C52.8449 7.67246 53.2535 7.58727 53.6484 7.52305L53.6486 7.52293ZM47.4047 2.24035C48.4928 2.24035 49.6545 3.91648 50.4492 6.63312C49.4593 6.95398 48.4375 7.35359 47.4047 7.82645C46.3718 7.35359 45.3499 6.9541 44.3602 6.63312C45.1549 3.91648 46.3166 2.24035 47.4047 2.24035ZM37.047 8.22043C37.3671 7.6659 38.2337 7.37352 39.4688 7.37352C39.9749 7.37352 40.5431 7.42262 41.1607 7.52293C41.5557 7.58715 41.9643 7.67234 42.3819 7.77371C42.1628 8.80496 41.9986 9.89563 41.8907 11.0091C40.9601 11.6702 40.0989 12.3587 39.3227 13.0589C39.0279 12.7496 38.7514 12.44 38.4997 12.1317C37.1386 10.4643 36.5954 9.00219 37.0468 8.22043H37.047ZM47.4047 17.2714C49.098 17.2714 50.4757 15.8938 50.4757 14.2004C50.4757 12.507 49.098 11.1295 47.4047 11.1295C45.7113 11.1295 44.3337 12.507 44.3337 14.2004C44.3337 15.8938 45.7113 17.2714 47.4047 17.2714ZM47.4047 12.7701C48.1934 12.7701 48.8351 13.4117 48.8351 14.2004C48.8351 14.9891 48.1935 15.6308 47.4047 15.6308C46.6159 15.6308 45.9743 14.9891 45.9743 14.2004C45.9743 13.4117 46.616 12.7701 47.4047 12.7701Z" fill="white"/>
</g>
<defs>
<clipPath id="clip0_256_56">
<rect width="60" height="60" fill="white"/>
</clipPath>
</defs>
</svg>
