<svg width="2541" height="1807" viewBox="0 0 2541 1807" fill="none" xmlns="http://www.w3.org/2000/svg">
<path d="M376.522 1320.95C325.202 1321.29 270.642 1322.56 227.778 1350.76C209.074 1363.07 192.631 1382.42 192.796 1404.8C193.07 1441.7 234.913 1462.61 270.851 1471.07C376.457 1495.94 487.288 1488.11 593.879 1508.34C606.96 1510.82 622.859 1516.89 623.662 1530.17C624.089 1537.24 619.752 1543.58 617.017 1550.11C603.467 1582.5 631.782 1619.46 665.078 1630.63C698.373 1641.81 734.59 1635.81 769.693 1634.74C804.801 1633.68 844.028 1639.81 865.761 1667.38C877.495 1682.27 882.4 1701.45 892.884 1717.24C916.059 1752.16 961.028 1764.12 1002.16 1772.24C1131.63 1797.78 1263.99 1811.68 1395.73 1803.87C1434.52 1801.57 1474.09 1797.15 1509.19 1780.48C1544.29 1763.8 1574.61 1732.76 1581.07 1694.46C1585.78 1666.56 1577.72 1637.44 1584.09 1609.88C1599.78 1541.96 1686.03 1523.1 1755.56 1517.75C1849.89 1510.48 1944.22 1503.21 2038.56 1495.94C2070.06 1493.51 2106.42 1488.22 2122.59 1461.09C2130.84 1447.26 2132.16 1429.78 2142.1 1417.1C2164.39 1388.65 2225.07 1385.72 2218.48 1350.19C2214.67 1329.67 2188.87 1323.23 2168.08 1321.22C1923.14 1297.5 1677.04 1285.85 1430.95 1286.31C1211.25 1286.72 998.541 1316.88 780.541 1318.31C645.868 1319.19 511.195 1320.07 376.522 1320.95Z" fill="#C6E279"/>
<path d="M1891.04 1330.7C1898.35 1332.91 1905.4 1335.96 1912.02 1339.75C1911.69 1328.25 1912 1316.74 1912.98 1305.28C1918.29 1314.96 1923.6 1324.65 1928.92 1334.33C1935.94 1325.49 1945.26 1318.48 1955.7 1314.19C1952.26 1325.41 1950.42 1337.13 1950.27 1348.87C1950.28 1347.73 1914.1 1349.63 1910.88 1349.27C1899.27 1348 1899.52 1338.46 1891.04 1330.7Z" fill="#9CAD5E"/>
<path d="M1664.34 1460.89C1675.19 1464.16 1685.66 1468.68 1695.49 1474.32C1694.99 1457.25 1695.47 1440.15 1696.91 1423.13C1704.8 1437.52 1712.69 1451.89 1720.57 1466.27C1731 1453.15 1744.84 1442.75 1760.34 1436.37C1755.23 1453.04 1752.5 1470.43 1752.27 1487.86C1752.3 1486.16 1698.58 1488.98 1693.8 1488.46C1676.57 1486.56 1676.94 1472.4 1664.34 1460.89Z" fill="#9CAD5E"/>
<path d="M650.92 1551.23C661.771 1554.5 672.241 1559.02 682.07 1564.66C681.572 1547.59 682.045 1530.49 683.489 1513.47C691.377 1527.85 699.264 1542.23 707.152 1556.61C717.581 1543.49 731.412 1533.09 746.922 1526.71C741.809 1543.37 739.083 1560.77 738.85 1578.2C738.874 1576.5 685.162 1579.32 680.373 1578.79C663.149 1576.9 663.518 1562.74 650.92 1551.23Z" fill="#9CAD5E"/>
<path d="M615.824 1330C623.406 1332.29 630.728 1335.45 637.596 1339.39C637.249 1327.46 637.582 1315.51 638.589 1303.61C644.103 1313.66 649.617 1323.72 655.128 1333.77C662.419 1324.59 672.088 1317.32 682.929 1312.87C679.354 1324.52 677.447 1336.68 677.286 1348.86C677.303 1347.67 639.756 1349.64 636.409 1349.28C624.372 1347.95 624.629 1338.05 615.824 1330Z" fill="#9CAD5E"/>
<path d="M375.031 859.203C357.933 833.527 352.225 800.557 359.698 770.631C367.17 740.705 387.71 714.284 414.877 699.646C407.567 720.297 409.625 744.06 420.374 763.151C418.983 752.226 424.623 740.73 434.115 735.141C430.538 748.023 433.074 762.462 440.83 773.353C446.286 781.01 453.953 786.744 461.219 792.711C475.669 804.571 489.745 819.255 492.293 837.767C494.405 853.115 487.733 869.046 476.283 879.49C444.602 908.39 396.607 891.598 375.031 859.203Z" fill="#F7E8CB"/>
<path d="M397.449 818.063C380.352 792.387 374.643 759.417 382.116 729.491C382.468 728.082 382.859 726.685 383.269 725.295C372.1 738.364 363.873 753.95 359.708 770.63C352.236 800.556 357.941 833.526 375.041 859.202C396.614 891.595 444.609 908.386 476.293 879.491C486.404 870.27 492.774 856.772 492.677 843.172C461.21 865.12 417.695 848.464 397.449 818.063Z" fill="#EADBC3"/>
<path d="M1109.71 372.992C1126.45 378.432 1141.83 386.363 1158.04 392.83C1170.4 397.763 1183.26 401.85 1196.41 405.02C1189.23 405.353 1160.33 443.681 1100.73 466.422C1082.89 473.228 1058.72 475.103 1038.65 475.236C1018.59 475.372 997.238 468.52 986.013 454.751C977.784 444.656 975.82 432.128 976.488 420.262C977.66 399.442 988.04 388.748 1006.47 375.956C1022.42 364.893 1045.16 363.879 1065.97 364.978C1080.87 365.771 1095.71 368.444 1109.71 372.992Z" fill="#DDCFB8"/>
<path d="M1094.24 392.251C1115.06 393.864 1135.29 399.1 1155.38 404.31C1124.45 416.142 1098.28 437.067 1066.39 446.628C1057.88 449.182 1048.86 450.894 1039.95 449.987C1031.03 449.078 1022.18 445.255 1017.14 438.57C1012.59 432.545 1011.58 424.478 1014.53 417.694C1024.97 393.606 1070.8 390.436 1094.24 392.251Z" fill="#EDBA94"/>
<path d="M501.35 1118.43C505.372 1140.87 513.791 1162.23 521.086 1183.82C542.29 1246.58 554.204 1312.11 563.087 1377.75C570.557 1377.78 578.027 1377.8 585.497 1377.83C584.939 1300.09 605.031 1223.82 613.645 1146.55C617.627 1110.83 618.239 1071.58 596.875 1042.66C583.776 1024.94 534.575 993.836 512.903 1014.79C505.35 1022.09 503.697 1045.65 501.828 1055.34C497.819 1076.1 497.615 1097.62 501.35 1118.43Z" fill="#DDCFB8"/>
<path d="M833.992 1174.17C844.187 1205.42 855.171 1236.45 868.617 1266.44C883.909 1300.55 902.319 1333.17 921.274 1365.4C927.125 1375.35 933.726 1385.89 944.378 1390.34C955.03 1394.79 970.397 1389.13 971.094 1377.61C950.016 1364.31 942.473 1337.7 936.838 1313.43C925.261 1263.61 914.687 1212.07 923.303 1161.65C929.348 1126.26 944.648 1092.96 950.87 1057.6C961.037 999.818 935.411 938.4 868.483 942.838C812.62 946.54 805.028 1003.22 806.972 1049.74C808.754 1092.37 820.833 1133.86 833.992 1174.17Z" fill="#DDCFB8"/>
<path d="M869.753 397.926C861.106 409.891 857.162 424.323 854.58 438.609C848.056 474.669 849.258 511.527 846.933 548.046C841.899 627.153 820.05 705.272 783.075 776.37C766.468 808.307 746.637 839.087 720.647 864.807C718.276 867.155 715.75 869.636 715.031 872.813C713.973 877.49 717.121 882.013 720.264 885.756C765.626 939.842 846.205 964.917 916.608 946.857C928.934 943.694 941.112 939.236 951.194 931.811C970.852 917.326 977.082 1011.3 982.492 988.282C991.124 951.538 995.466 795.913 995.811 758.271C996.711 659.582 990.505 559.484 957.972 465.722C947.141 434.493 910.484 341.56 869.753 397.926Z" fill="#F7E8CB"/>
<path d="M693.086 796.596C660.614 797.622 628.139 798.651 595.667 799.679C560.819 800.78 525.366 802.005 492.309 815.299C459.251 828.593 428.342 856.004 416.134 895.239C403.099 937.144 413.341 984.476 429.526 1024.77C437.78 1045.32 447.748 1065.28 461.681 1080.79C478.927 1099.99 501.177 1111.24 523.291 1120.84C577.708 1144.47 634.304 1160.44 691.48 1171.11C727.789 1177.88 764.642 1182.54 801.262 1178.87C837.88 1175.19 874.471 1162.81 904.786 1137.86C966.937 1086.7 993.755 988.485 986.469 898.392C983.348 859.8 973.868 819.949 950.803 792.832C922.383 759.425 868.976 745.071 830.072 752.527C810.446 756.292 795.173 773.399 777.119 782.082C750.544 794.86 721.307 795.704 693.086 796.596Z" fill="#F7E8CB"/>
<path d="M819.341 1126.65C782.723 1130.32 745.87 1125.66 709.559 1118.89C652.382 1108.22 595.786 1092.25 541.372 1068.62C519.26 1059.02 497.008 1047.77 479.76 1028.57C465.829 1013.06 455.862 993.096 447.605 972.547C434.441 939.778 425.212 902.355 429.238 866.977C423.799 875.565 419.329 884.993 416.142 895.236C403.107 937.142 413.349 984.473 429.534 1024.76C437.788 1045.31 447.756 1065.28 461.689 1080.78C478.934 1099.99 501.184 1111.23 523.299 1120.84C577.715 1144.47 634.312 1160.44 691.488 1171.11C727.797 1177.88 764.65 1182.53 801.27 1178.86C837.883 1175.19 855.959 1122.97 819.341 1126.65Z" fill="#EADBC3"/>
<path d="M884.234 648.523C899.056 677.559 918.864 703.71 938.561 729.69C954.584 750.821 970.968 772.304 992.672 787.548C995.08 758.11 997.49 728.637 997.628 699.102C997.732 676.809 996.478 654.165 989.243 633.08C975.715 593.663 939.707 563.846 899.432 554.678C878.492 549.912 860.266 546.203 861.659 571.952C863.101 598.664 872.151 624.85 884.234 648.523Z" fill="#EADBC3"/>
<path d="M898.126 228.296C868.318 186.306 830.193 150.653 788.559 120.339C782.278 115.764 775.247 110.079 775.281 102.313C797.847 101.11 819.054 112.439 838.12 124.559C926.106 180.499 1000.01 265.197 1023 366.853C1028.27 390.176 1029.38 418.259 1011.48 434.124C993.851 449.744 963.109 444.042 949.567 424.776C928.644 395.01 956.418 367.359 949.562 336.708C940.893 297.956 920.956 260.451 898.126 228.296Z" fill="#9B7A4E"/>
<path d="M891.013 357.646C878.24 369.426 868.702 384.377 861.496 400.189C831.776 465.411 843.015 545.855 884.695 604.174C926.375 662.493 995.623 698.594 1066.97 705.735C1089.53 707.993 1113.05 707.415 1133.84 698.378C1154.63 689.343 1172.23 670.461 1174.63 647.928C1176.69 628.633 1167.66 609.743 1155.97 594.246C1144.28 578.75 1129.81 565.494 1118.37 549.821C1094.85 517.617 1085.62 477.567 1072.55 439.899C1059.48 402.231 1039.86 363.598 1004.59 344.965C966.665 324.928 922.927 328.212 891.013 357.646Z" fill="#F7E8CB"/>
<path d="M833.309 370.675C800.487 325.212 760.316 284.269 711.834 256.065C663.351 227.861 606.082 213.017 550.481 220.447C548.96 215.234 554.881 211.053 559.983 209.19C583.958 200.439 610.327 201.251 635.679 204.22C710.557 212.993 783.246 239.887 845.788 281.96C866.808 296.098 886.789 312.01 903.685 330.875C915.177 343.706 925.634 359.161 925.513 376.382C925.406 391.304 916.926 405.503 904.843 414.269C893.099 422.787 870.077 432.729 858.459 420.206C853.253 414.596 852.176 403.276 849.074 396.446C844.912 387.278 839.187 378.82 833.309 370.675Z" fill="#C49D5F"/>
<path d="M601.855 1092.18C601.518 1068.55 599.855 1044.59 592.053 1022.28C584.248 999.973 569.635 979.247 548.666 968.317C541.975 964.83 531.904 963.379 528.472 970.095C527.355 972.276 527.309 974.835 527.394 977.285C527.819 989.854 531.01 1002.22 531.144 1014.8C531.399 1038.76 520.662 1061.27 514.811 1084.5C512.151 1095.06 510.792 1107.23 517.296 1115.96C521.366 1121.43 527.809 1124.51 534.005 1127.35C544.186 1132.02 554.542 1136.67 565.587 1138.56C600.496 1144.54 602.265 1120.64 601.855 1092.18Z" fill="#EADBC3"/>
<path d="M419.287 880.27C393.969 927.376 400.374 1031.57 406.783 1085.93C412.314 1132.83 415.158 1180.97 405.385 1227.01C395.61 1273.04 371.661 1317.17 334.303 1340.05C346.617 1342.94 358.004 1350.47 366.144 1361.11C413.481 1321.29 456.079 1274.7 493.551 1223.59C521.075 1186.06 546.215 1145.28 559.306 1099.14C572.397 1053 572.281 1000.6 551.106 958.308C525.975 908.113 453.405 816.792 419.287 880.27Z" fill="#F7E8CB"/>
<path d="M770.628 1131.33C774.356 1109.35 776.123 1086.72 784.489 1066.05C786.207 1061.8 790.204 1056.86 794.323 1058.86C795.937 1059.65 796.895 1061.32 797.757 1062.89C812.284 1089.41 827.2 1117.37 827.259 1147.6C827.28 1158.06 824.64 1169.83 815.697 1175.26C812.054 1177.47 807.758 1178.35 803.521 1178.81C790.794 1180.17 777.701 1177.95 766.136 1172.48C746.905 1163.37 767.859 1147.68 770.628 1131.33Z" fill="#EADBC3"/>
<path d="M793.377 1379.36C791.804 1382.32 790.113 1385.41 787.326 1387.29C784.249 1389.36 780.344 1389.64 776.643 1389.85C764.991 1390.52 753.337 1391.19 741.686 1391.86C797.806 1321.52 819.699 1225.12 799.456 1137.45C795.382 1119.8 789.678 1102.32 788.95 1084.22C787.703 1053.24 802.781 1021.4 829.177 1005.12C851.254 991.491 886.506 988.77 908.583 1004.52C931.358 1020.78 917.646 1051.65 912.005 1073.52C894.529 1141.27 871.951 1207.7 844.546 1272.07C829.024 1308.54 811.953 1344.34 793.377 1379.36Z" fill="#F7E8CB"/>
<path d="M1085.62 584.537C1072.4 590.591 1059.94 599.553 1052.99 612.321C1046.04 625.086 1045.73 642.113 1054.94 653.36C1059.66 659.128 1066.39 662.946 1073.37 665.565C1087.73 670.955 1103.35 671.704 1118.69 672.041C1136.59 672.432 1155.64 671.988 1170.79 662.606C1172.76 657.945 1174.09 653.028 1174.63 647.917C1176.69 628.62 1167.66 609.733 1155.97 594.236C1150.53 587.028 1144.5 580.307 1138.44 573.6C1119.83 573.059 1100.16 577.876 1085.62 584.537Z" fill="#EDBA94"/>
<path d="M937.17 476.232C933.355 470.634 931.054 463.445 931.68 456.346C932.307 449.244 936.136 442.409 941.83 439.709C945.536 437.951 949.732 437.997 953.642 439.006C964.801 441.885 974.047 452.969 976.166 466.001C976.739 469.523 976.824 473.213 975.948 476.649C970.172 499.345 946.065 489.274 937.17 476.232Z" fill="#EADBC3"/>
<path d="M977.52 481.164C974.933 489.986 966.669 494.701 959.068 491.698C951.467 488.695 947.402 479.11 949.991 470.288C952.579 461.467 960.842 456.754 968.443 459.757C976.045 462.759 980.11 472.343 977.52 481.164Z" fill="#231F20"/>
<path d="M963.338 476.966C961.258 479.261 957.967 479.164 955.989 476.75C954.011 474.334 954.094 470.517 956.176 468.22C958.254 465.925 961.547 466.022 963.525 468.438C965.501 470.854 965.418 474.672 963.338 476.966Z" fill="white"/>
<path d="M1043.46 457.042C1041.59 450.591 1040.99 442.982 1042.41 436.229C1043.83 429.477 1047.45 423.82 1051.79 422.685C1054.61 421.945 1057.52 423.09 1060.1 425.099C1067.46 430.828 1072.36 444.049 1072.02 457.302C1071.93 460.884 1071.47 464.498 1070.38 467.618C1063.21 488.213 1047.84 472.078 1043.46 457.042Z" fill="#EADBC3"/>
<path d="M1070.85 472.428C1067.82 480.344 1061.42 482.77 1056.55 477.849C1051.68 472.93 1050.18 462.524 1053.21 454.612C1056.24 446.7 1062.64 444.272 1067.51 449.191C1072.39 454.115 1073.88 464.518 1070.85 472.428Z" fill="#231F20"/>
<path d="M1061.57 464.62C1059.8 466.311 1057.52 465.355 1056.48 462.483C1055.44 459.609 1056.03 455.912 1057.8 454.224C1059.57 452.534 1061.84 453.489 1062.88 456.361C1063.92 459.233 1063.33 462.929 1061.57 464.62Z" fill="white"/>
<path d="M1135.39 650.362C1133.98 656.807 1132.79 663.358 1131 669.711C1129.51 675.032 1127.15 679.813 1123.18 683.718C1116.37 690.427 1106.26 693.849 1096.81 691.972C1092.95 691.208 1091.3 697.119 1095.18 697.888C1106.45 700.124 1118.19 696.619 1126.65 688.892C1136.98 679.447 1138.47 664.937 1141.31 651.992C1142.16 648.146 1136.24 646.501 1135.39 650.362Z" fill="#EDBA94"/>
<path d="M1128.22 668.556C1127.61 678.402 1134.75 688.007 1144.29 690.408C1145.84 690.798 1147.69 689.903 1148.07 688.264C1148.43 686.672 1147.59 684.907 1145.92 684.49C1145.4 684.356 1144.88 684.208 1144.37 684.029C1144.16 683.956 1143.95 683.871 1143.74 683.793C1143.4 683.672 1144.13 683.985 1143.61 683.733C1142.72 683.296 1141.86 682.831 1141.04 682.268C1140.82 682.115 1140.6 681.957 1140.38 681.797C1140.91 682.185 1140.21 681.644 1140.17 681.606C1139.82 681.317 1139.49 681.014 1139.17 680.701C1138.78 680.323 1138.41 679.93 1138.06 679.522C1137.91 679.352 1137.77 679.173 1137.62 679.005C1137.49 678.836 1137.51 678.867 1137.69 679.093C1137.61 678.986 1137.53 678.877 1137.45 678.765C1136.87 677.963 1136.35 677.116 1135.9 676.236C1135.8 676.034 1135.7 675.833 1135.6 675.629C1135.57 675.559 1135.26 674.751 1135.48 675.374C1135.31 674.911 1135.13 674.453 1134.99 673.98C1134.84 673.512 1134.72 673.034 1134.61 672.554C1134.55 672.292 1134.51 672.025 1134.45 671.763C1134.33 671.176 1134.47 672.02 1134.43 671.649C1134.32 670.616 1134.29 669.595 1134.35 668.559C1134.45 666.953 1132.87 665.42 1131.28 665.491C1129.54 665.566 1128.32 666.837 1128.22 668.556Z" fill="#EDBA94"/>
<path d="M732.265 479.786C717.094 497.239 706.003 518.385 688.271 533.231C705.534 545.478 727.115 550.062 748.226 551.624C785.094 554.345 822.568 548.597 856.924 534.949C875.434 527.597 894.364 516.566 901.81 498.1C906.856 485.59 905.62 470.724 898.582 459.212C886.892 440.102 860.521 429.248 839.149 429.76C813.446 430.376 788.011 438.057 766.069 451.397C753.444 459.072 741.958 468.633 732.265 479.786Z" fill="#F7E8CB"/>
<path d="M851.308 454.418C833.807 450.115 816.2 459.676 800.711 468.881C781.002 480.596 761.293 492.309 741.584 504.024C769.013 506.377 796.539 507.604 824.068 507.699C838.669 507.75 853.512 507.444 867.442 503.076C872.352 501.538 878.053 497.892 877.055 492.847C876.141 488.241 870.347 486.604 867.505 482.864C862.805 476.674 870.012 472.272 868.568 466.594C866.986 460.375 856.744 455.752 851.308 454.418Z" fill="#EDBA94"/>
<path d="M641.631 227.339C641.839 226.488 642.041 225.637 642.262 224.79C643.829 218.794 645.608 212.359 646.074 206.157C642.844 205.709 639.609 205.284 636.367 204.904C635.806 204.838 635.236 204.777 634.675 204.717C632.882 211.195 631.95 218.188 630.377 224.666C634.144 225.472 637.896 226.367 641.631 227.339Z" fill="#DBAD6B"/>
<path d="M906.863 343.818C907.87 341.911 908.858 339.852 909.623 337.746C907.921 335.627 906.164 333.558 904.376 331.561C903.946 331.081 903.507 330.608 903.07 330.133C891.457 341.057 881.529 353.748 870.501 365.317C862.715 373.486 854.082 381.233 844.467 387.05C846.403 390.324 848.195 393.676 849.765 397.132C851.357 400.63 852.417 405.309 853.772 409.796C859.754 406.788 865.353 403.075 870.403 398.491C878.859 390.814 885.23 381.151 891.18 371.4C896.69 362.37 901.92 353.17 906.863 343.818Z" fill="#DBAD6B"/>
<path d="M885.13 312.389C880.611 308.333 875.953 304.426 871.189 300.645C867.187 305.069 863.557 309.922 859.889 314.625C848.524 329.188 835.688 343.147 820.639 353.654C824.495 358.549 828.259 363.511 831.931 368.532C832.936 367.768 833.936 366.999 834.931 366.228C854.383 351.095 871.388 332.838 885.13 312.389Z" fill="#DBAD6B"/>
<path d="M670.186 236.486C674.003 237.944 677.789 239.494 681.539 241.114C682.398 238.526 683.296 235.95 684.296 233.411C686.728 227.238 689.604 221.067 691.722 214.773C688.019 213.883 684.298 213.048 680.573 212.248C676.75 220.141 673.561 228.375 670.186 236.486Z" fill="#DBAD6B"/>
<path d="M816.541 277.519C804.62 288.104 792.677 298.694 780.266 308.692C787.187 315.403 793.876 322.367 800.339 329.541C814.376 313.477 826.047 295.094 836.134 275.899C832.668 273.699 829.171 271.545 825.649 269.438C822.613 272.13 819.577 274.825 816.541 277.519Z" fill="#DBAD6B"/>
<path d="M712.775 256.902C717.862 259.868 722.85 262.98 727.757 266.216C734.783 254.966 742.09 243.802 747.524 231.849C743.403 230.309 739.258 228.827 735.096 227.4C727.696 237.275 720.459 247.299 712.775 256.902Z" fill="#DBAD6B"/>
<path d="M750.605 282.709C754.178 285.515 757.692 288.394 761.158 291.336C772.936 278.624 785.917 266.744 796.149 253.161C792.594 251.364 789.019 249.601 785.422 247.891C773.018 258.398 761.896 270.625 750.605 282.709Z" fill="#DBAD6B"/>
<path d="M989.337 329.393C996.63 328.745 1004.49 327.675 1010.29 323.545C1009.22 320.802 1008.11 318.073 1006.96 315.364C986.505 312.021 965.342 316.193 944.432 316.028C946.201 321.325 947.788 326.659 949.162 332.024C952.472 331.923 955.775 331.745 959.034 331.551C969.145 330.95 979.251 330.29 989.337 329.393Z" fill="#AF895A"/>
<path d="M844.43 167.442C851.266 159.545 856.902 150.614 861.103 141.048C858.574 139.25 856.028 137.477 853.47 135.729C847.371 143.497 840.197 150.422 832.225 156.253C836.355 159.92 840.425 163.649 844.43 167.442Z" fill="#AF895A"/>
<path d="M815.889 142.348C816.826 141.424 817.777 140.516 818.765 139.641C823.359 135.554 828.472 131.972 832.346 127.196C833.256 126.07 834.091 124.853 834.817 123.574C831.975 121.825 829.089 120.116 826.162 118.479C822.148 122.481 818.537 126.956 814.731 131.111C812.923 133.082 810.957 134.94 808.955 136.769C811.278 138.608 813.591 140.468 815.889 142.348Z" fill="#AF895A"/>
<path d="M895.723 168.027C889.92 173.635 883.836 178.915 877.05 183.252C873.514 185.51 869.753 187.492 865.848 189.09C869.316 192.835 872.728 196.629 876.06 200.493C886.137 192.959 894.454 183.078 900.174 171.874C898.699 170.586 897.213 169.303 895.723 168.027Z" fill="#AF895A"/>
<path d="M994.46 294.57C995.176 294.039 995.827 293.399 996.387 292.685C994.286 288.577 992.097 284.507 989.835 280.478C987.488 280.371 984.991 280.686 982.782 281.147C970.011 283.815 957.243 286.483 944.475 289.151C941.262 289.821 937.889 290.454 934.518 290.811C936.838 295.967 938.998 301.177 940.993 306.436C955.341 303.702 969.691 300.966 984.039 298.233C987.689 297.536 991.475 296.782 994.46 294.57Z" fill="#AF895A"/>
<path d="M952.207 259.199C958.202 255.915 963.75 250.853 967.123 244.964C964.577 241.427 961.973 237.927 959.306 234.471C944.88 242.567 929.656 249.754 913.859 252.097C917.48 257.972 920.963 263.972 924.264 270.089C933.568 266.427 943.432 264.006 952.207 259.199Z" fill="#AF895A"/>
<path d="M899.306 230.109C899.905 230.956 900.495 231.819 901.092 232.676C913.613 225.072 926.226 217.504 935.887 206.696C932.759 203.288 929.572 199.924 926.332 196.613C926.184 196.722 926.039 196.829 925.888 196.938C914.698 205.161 902.405 211.87 889.455 216.89C892.824 221.23 896.122 225.625 899.306 230.109Z" fill="#AF895A"/>
<path d="M867.293 531.234C872.51 526.608 877.464 521.551 880.959 515.514C884.451 509.479 886.395 502.344 885.259 495.465C890.016 496.188 893.035 501.119 893.899 505.846C895.79 516.196 890.594 526.482 884.623 535.146C874.797 549.41 861.776 562.27 845.355 567.801C846.05 561.708 844.547 547.092 848.384 542.267C851.835 537.928 862.456 535.524 867.293 531.234Z" fill="#EADBC3"/>
<path d="M557.25 1349C559.388 1351.73 568.242 1402.99 568.242 1402.99L576.583 1387.57L595.877 1402.99V1391.86L586.179 1349H557.25Z" fill="#231F20"/>
<path d="M345.778 1332.03C343.989 1333.42 311.98 1354.33 311.98 1354.33L349.717 1361.11L338.024 1387.8L378.381 1350.57C378.381 1350.57 374.695 1341.05 363.004 1338.4C351.309 1335.74 345.778 1332.03 345.778 1332.03Z" fill="#231F20"/>
<path d="M753.466 1376L731.84 1406.38C731.84 1406.38 761.07 1395.76 760.538 1397.35C760.007 1398.95 763.196 1417.01 763.196 1417.01L793.38 1379.36C793.38 1379.36 778.078 1380.62 770.105 1377.83C762.133 1375.05 753.466 1376 753.466 1376Z" fill="#231F20"/>
<path d="M932.777 1381.91L963.029 1410.63C963.029 1410.63 966.747 1396.78 968.873 1396.27C970.999 1395.76 990.133 1396.27 990.133 1396.27L957.323 1364.97C957.323 1364.97 956.649 1373.45 950.802 1375.84C944.956 1378.23 932.777 1381.91 932.777 1381.91Z" fill="#231F20"/>
<path d="M911.798 775.312C915.036 797.673 912.089 820.57 903.678 841.507C902.207 845.172 908.141 846.763 909.595 843.139C918.446 821.113 921.113 797.142 917.718 773.682C917.154 769.79 911.238 771.446 911.798 775.312Z" fill="#EADBC3"/>
<path d="M932.385 801.665C933.365 816.235 932.955 830.907 930.997 845.383C930.773 847.037 931.397 848.657 933.145 849.157C934.572 849.567 936.698 848.655 936.918 847.013C938.955 831.967 939.547 816.818 938.527 801.665C938.263 797.746 932.118 797.717 932.385 801.665Z" fill="#EADBC3"/>
<path d="M944.436 954.506C944.407 975.341 939.781 995.96 930.779 1014.77C929.085 1018.31 934.376 1021.43 936.082 1017.86C945.559 998.066 950.547 976.459 950.576 954.506C950.583 950.555 944.441 950.55 944.436 954.506Z" fill="#EADBC3"/>
<path d="M907.223 931.299C908.167 944.586 907.747 957.965 905.815 971.148C905.57 972.8 906.225 974.427 907.958 974.922C909.4 975.337 911.494 974.417 911.737 972.78C913.751 959.033 914.348 945.164 913.363 931.299C913.084 927.382 906.944 927.351 907.223 931.299Z" fill="#EADBC3"/>
<path d="M899.926 1018.36C899.414 1034.49 896.475 1050.39 891.26 1065.66C889.981 1069.41 895.907 1071.02 897.179 1067.29C902.564 1051.53 905.535 1035.02 906.064 1018.36C906.19 1014.42 900.05 1014.42 899.926 1018.36Z" fill="#EADBC3"/>
<path d="M430.512 985.39C428.119 1005 428.551 1024.75 431.611 1044.26C432.221 1048.15 438.138 1046.5 437.531 1042.63C434.56 1023.69 434.33 1004.41 436.65 985.387C437.128 981.477 430.983 981.514 430.512 985.39Z" fill="#EADBC3"/>
<path d="M436.908 1088.01C436.908 1104.13 436.908 1120.25 436.908 1136.38C436.908 1140.33 443.048 1140.33 443.048 1136.38C443.048 1120.25 443.048 1104.13 443.048 1088.01C443.051 1084.06 436.908 1084.05 436.908 1088.01Z" fill="#EADBC3"/>
<path d="M468.393 1088.04C466.971 1111.37 463.003 1134.43 456.6 1156.91C455.518 1160.72 461.44 1162.34 462.52 1158.54C469.07 1135.55 473.079 1111.9 474.53 1088.04C474.771 1084.1 468.633 1084.11 468.393 1088.04Z" fill="#EADBC3"/>
<path d="M493.593 1152.29C485.113 1171.6 476.634 1190.91 468.154 1210.22C466.581 1213.8 471.87 1216.93 473.457 1213.32C481.934 1194.01 490.414 1174.7 498.894 1155.39C500.466 1151.81 495.178 1148.68 493.593 1152.29Z" fill="#EADBC3"/>
<path d="M443.325 1238.3C438.141 1251.83 432.96 1265.37 427.778 1278.91C426.366 1282.6 432.297 1284.2 433.698 1280.54C438.881 1267 444.063 1253.47 449.245 1239.93C450.657 1236.24 444.726 1234.64 443.325 1238.3Z" fill="#EADBC3"/>
<path d="M771.169 819.202C780.379 810.356 789.592 801.511 798.802 792.665C801.658 789.924 797.312 785.59 794.462 788.328C785.25 797.171 776.04 806.017 766.827 814.863C763.973 817.604 768.319 821.941 771.169 819.202Z" fill="#EADBC3"/>
<path d="M790.581 844.421C800.298 832.481 808.353 819.327 814.409 805.167C815.059 803.646 814.862 801.88 813.307 800.971C812.016 800.216 809.761 800.539 809.108 802.072C803.274 815.715 795.612 828.568 786.242 840.082C785.198 841.368 784.984 843.165 786.242 844.421C787.322 845.501 789.528 845.714 790.581 844.421Z" fill="#EADBC3"/>
<path d="M822.974 758.115C826.51 743.844 830.046 729.57 833.579 715.3C834.528 711.466 828.609 709.831 827.66 713.668C824.124 727.942 820.588 742.214 817.052 756.483C816.103 760.318 822.025 761.953 822.974 758.115Z" fill="#EADBC3"/>
<path opacity="0.2" d="M1073.21 605.736C1069.55 609.493 1066.01 613.495 1063.83 618.266C1061.66 623.037 1061 628.727 1063.15 633.505C1065.31 638.284 1070.71 641.725 1075.84 640.629C1080.07 639.724 1083.23 636.132 1085.26 632.309C1087.28 628.489 1088.5 624.271 1090.68 620.536C1093.23 616.173 1097.08 612.576 1101.61 610.325C1109.49 606.408 1119.5 606.337 1125.65 600.05C1126.51 599.18 1127.3 598.105 1127.29 596.885C1127.29 595.859 1126.73 594.918 1126.09 594.11C1122.87 590.009 1117.59 587.908 1112.39 587.547C1098.04 586.557 1082.78 595.898 1073.21 605.736Z" fill="white"/>
<path opacity="0.41" d="M950.67 370.457C955.266 372.405 960.436 372.306 965.423 372.085C970.41 371.864 975.538 371.573 980.261 373.186C988.583 376.024 994.007 384.149 1001.89 388.049C1005.62 389.9 1010.72 390.48 1013.49 387.366C1014.66 386.044 1015.2 384.263 1015.38 382.505C1016.01 376.412 1012.76 370.576 1008.88 365.829C998.036 352.547 980.463 343.917 963.219 344.014C950.201 344.087 931.555 362.368 950.67 370.457Z" fill="white"/>
<path d="M2052.12 447.699C2043.48 459.664 2039.53 474.096 2036.95 488.382C2030.43 524.442 2031.63 561.3 2029.3 597.818C2024.27 676.926 2002.42 755.044 1965.45 826.143C1948.84 858.079 1929.01 888.859 1903.02 914.579C1900.64 916.927 1898.12 919.408 1897.4 922.586C1896.34 927.262 1899.49 931.786 1902.63 935.528C1948 989.614 2028.57 1014.69 2098.97 996.629C2111.3 993.466 2123.48 989.008 2133.56 981.584C2153.22 967.101 2159.45 1061.08 2164.86 1038.05C2173.49 1001.31 2177.83 845.685 2178.18 808.044C2179.08 709.355 2172.87 609.254 2140.34 515.494C2129.51 484.266 2092.86 391.335 2052.12 447.699Z" fill="#AEB1C1"/>
<path d="M1992.51 767.549C2004.67 764.997 2015.29 757.874 2025.57 750.898C2057.28 729.376 2089.02 707.838 2119.31 684.359C2129.37 676.566 2139.46 668.341 2146.13 657.504C2148.55 653.555 2150.52 649.226 2151.1 644.624C2152.28 635.24 2147.4 625.778 2140.13 619.722C2132.86 613.665 2123.5 610.624 2114.15 609.161C2094.52 606.09 2073.92 609.593 2056.41 618.977C2036.51 629.644 2024.93 654.656 2018.84 675.811C2010.01 706.504 2003.32 737.373 1992.51 767.549Z" fill="#9B9EAA"/>
<path d="M1802.66 1413.1C1806.36 1414.14 1821.52 1414.3 1825.22 1415.34C1820.92 1341.28 1816.61 1267.02 1820.79 1192.95C1822.13 1169.2 1824.21 1144.53 1815.55 1122.37C1806.89 1100.21 1783.57 1081.64 1760.42 1087.18C1703.91 1100.69 1756.62 1187.2 1765.91 1216.48C1786.26 1280.57 1790.93 1346.89 1802.66 1413.1Z" fill="#8F929B"/>
<path d="M2163.46 1203.56C2164.83 1219.09 2159.31 1234.37 2152.87 1248.57C2143.03 1270.29 2130.81 1290.94 2116.5 1310.02C2111.18 1317.13 2105.38 1324.43 2103.88 1333.18C2102.38 1341.93 2121.94 1333.63 2130.72 1335.02C2158.63 1299.66 2171.84 1282.97 2193.8 1243.64C2215.04 1205.59 2230.54 1160.25 2216.98 1118.85C2206.56 1087.06 2180.6 1062.84 2153.12 1043.75C2138.32 1033.47 2121.69 1023.91 2103.67 1024.29C2058.68 1025.23 2041.28 1083.28 2073.75 1111.58C2105.39 1139.17 2159.08 1153.8 2163.46 1203.56Z" fill="#8F929B"/>
<path d="M1557.4 908.979C1540.3 883.3 1534.6 850.333 1542.07 820.407C1549.54 790.478 1570.08 764.06 1597.25 749.422C1589.94 770.073 1592 793.835 1602.75 812.926C1601.35 802.002 1606.99 790.505 1616.49 784.917C1612.91 797.798 1615.45 812.238 1623.2 823.128C1628.66 830.785 1636.32 836.519 1643.59 842.486C1658.04 854.347 1672.12 869.031 1674.66 887.542C1676.77 902.891 1670.1 918.821 1658.65 929.266C1626.97 958.163 1578.97 941.371 1557.4 908.979Z" fill="#AEB1C1"/>
<path d="M1579.82 867.841C1562.72 842.162 1557.01 809.194 1564.48 779.268C1564.84 777.859 1565.23 776.462 1565.63 775.072C1554.47 788.141 1546.24 803.727 1542.07 820.407C1534.6 850.333 1540.31 883.301 1557.41 908.979C1578.98 941.372 1626.98 958.164 1658.66 929.269C1668.77 920.047 1675.14 906.549 1675.04 892.947C1643.58 914.895 1600.06 898.239 1579.82 867.841Z" fill="#9B9EAA"/>
<path d="M1875.46 846.366C1842.99 847.395 1810.51 848.423 1778.04 849.449C1743.19 850.55 1707.74 851.775 1674.68 865.069C1641.62 878.364 1610.72 905.774 1598.51 945.009C1585.47 986.915 1595.71 1034.25 1611.9 1074.54C1620.15 1095.09 1630.12 1115.05 1644.05 1130.56C1661.3 1149.76 1683.55 1161.01 1705.66 1170.61C1760.08 1194.24 1816.67 1210.21 1873.85 1220.88C1910.16 1227.65 1947.02 1232.31 1983.63 1228.63C2020.25 1224.96 2056.84 1212.58 2087.16 1187.62C2149.31 1136.47 2176.13 1038.25 2168.84 948.16C2165.72 909.568 2156.24 869.717 2133.17 842.6C2104.75 809.191 2051.35 794.839 2012.45 802.295C1992.82 806.059 1977.55 823.164 1959.49 831.85C1932.92 844.632 1903.68 845.476 1875.46 846.366Z" fill="#AEB1C1"/>
<path d="M2001.71 1176.42C1965.09 1180.09 1928.24 1175.44 1891.93 1168.66C1834.75 1158 1778.15 1142.03 1723.74 1118.4C1701.63 1108.79 1679.38 1097.55 1662.13 1078.35C1648.2 1062.83 1638.23 1042.87 1629.97 1022.32C1616.81 989.555 1607.58 952.132 1611.61 916.756C1606.16 925.345 1601.69 934.772 1598.51 945.013C1585.47 986.918 1595.71 1034.25 1611.9 1074.54C1620.16 1095.09 1630.13 1115.05 1644.05 1130.56C1661.3 1149.76 1683.55 1161.01 1705.67 1170.61C1760.08 1194.24 1816.68 1210.22 1873.85 1220.88C1910.16 1227.65 1947.02 1232.31 1983.64 1228.64C2020.25 1224.97 2038.33 1172.75 2001.71 1176.42Z" fill="#9B9EAA"/>
<path d="M1784.23 1141.96C1783.89 1118.33 1782.23 1094.37 1774.42 1072.06C1766.62 1049.75 1752.01 1029.02 1731.04 1018.09C1724.35 1014.6 1714.27 1013.15 1710.84 1019.87C1709.73 1022.05 1709.68 1024.61 1709.76 1027.06C1710.19 1039.63 1713.38 1052 1713.52 1064.58C1713.77 1088.53 1703.03 1111.04 1697.18 1134.27C1694.52 1144.84 1693.16 1157 1699.67 1165.74C1703.74 1171.2 1710.18 1174.28 1716.38 1177.13C1726.56 1181.8 1736.91 1186.44 1747.96 1188.33C1782.86 1194.31 1784.64 1170.41 1784.23 1141.96Z" fill="#9B9EAA"/>
<path d="M1920.77 1169.35C1928.85 1148.56 1935.14 1126.75 1947.5 1108.19C1950.04 1104.38 1954.95 1100.35 1958.58 1103.13C1960 1104.23 1960.6 1106.05 1961.13 1107.77C1970.01 1136.66 1978.99 1167.06 1972.96 1196.68C1970.87 1206.93 1965.91 1217.93 1956.06 1221.45C1952.05 1222.88 1947.66 1222.88 1943.42 1222.47C1930.68 1221.24 1918.3 1216.44 1908.08 1208.74C1891.07 1195.95 1914.76 1184.8 1920.77 1169.35Z" fill="#9B9EAA"/>
<path d="M1973.99 360.334C1956.67 357.236 1939.36 356.974 1922.02 355.034C1908.79 353.554 1895.53 351.092 1882.43 347.689C1888.61 351.369 1896 398.79 1937.8 446.943C1950.31 461.356 1970.75 474.41 1988.37 483.991C2006 493.569 2028.06 497.6 2044.46 490.75C2056.48 485.73 2064.13 475.61 2069.14 464.834C2077.94 445.922 2073.83 431.6 2063.62 411.628C2054.78 394.356 2035.21 382.738 2016.34 373.892C2002.84 367.564 1988.49 362.922 1973.99 360.334Z" fill="#8F929B"/>
<path d="M1978.54 384.605C1959.43 376.208 1939.11 382.085 1918.95 377.207C1940.63 402.224 1953.83 422.215 1977.42 445.677C1983.73 451.944 1990.86 457.707 1999.16 461.11C2007.45 464.513 2017.05 465.313 2024.66 461.799C2031.51 458.629 2036.21 451.995 2036.82 444.624C2038.98 418.467 2000.07 394.057 1978.54 384.605Z" fill="#EDBA94"/>
<path d="M2228.86 332.531C2274.97 309.566 2325.41 296.109 2376.44 289.017C2384.13 287.95 2393.02 286.25 2396.65 279.386C2377.33 267.685 2353.28 267.673 2330.75 269.368C2226.76 277.198 2121.61 317.02 2053.35 395.81C2037.69 413.887 2023.45 438.123 2031.75 460.551C2039.91 482.638 2069.71 492.109 2090.75 481.505C2123.25 465.128 2111.82 427.654 2132.33 403.862C2158.27 373.781 2193.56 350.116 2228.86 332.531Z" fill="#9B7A4E"/>
<path d="M2174.07 449.93C2179.77 466.341 2181.12 484.023 2180 501.358C2175.41 572.877 2127.53 638.506 2063.25 670.27C1998.97 702.035 1920.87 701.208 1854.58 673.858C1833.63 665.208 1813.17 653.612 1799.1 635.838C1785.04 618.066 1778.44 593.125 1786.96 572.122C1794.25 554.14 1811.14 541.745 1828.76 533.593C1846.38 525.443 1865.4 520.58 1882.89 512.157C1918.83 494.851 1945.87 463.894 1975.18 436.845C2004.49 409.795 2040.03 384.985 2079.92 385.189C2122.81 385.409 2159.82 408.932 2174.07 449.93Z" fill="#AEB1C1"/>
<path d="M2218.78 488.631C2269.19 464.024 2323.94 446.868 2380 444.865C2436.06 442.861 2493.55 456.781 2539.08 489.55C2542.87 485.669 2539.64 479.191 2536.02 475.145C2519.01 456.124 2495.37 444.404 2471.61 435.071C2401.46 407.495 2324.67 396.927 2249.67 404.529C2224.46 407.083 2199.33 411.689 2175.53 420.353C2159.33 426.247 2142.82 434.942 2134.8 450.182C2127.84 463.388 2128.62 479.904 2135.14 493.331C2141.47 506.38 2157.07 526.005 2173.22 520.441C2180.46 517.948 2186.76 508.476 2192.72 503.919C2200.72 497.797 2209.76 493.035 2218.78 488.631Z" fill="#C49D5F"/>
<path d="M2077.38 532.72C2083.39 529.586 2088.81 524.327 2091.61 517.774C2094.41 511.218 2094.26 503.383 2090.52 498.319C2088.08 495.023 2084.36 493.082 2080.44 492.129C2069.24 489.405 2055.85 494.814 2047.83 505.309C2045.66 508.142 2043.84 511.353 2042.99 514.798C2037.37 537.537 2063.38 540.023 2077.38 532.72Z" fill="#9B9EAA"/>
<path d="M2039.48 518.041C2037.6 527.04 2042.65 535.09 2050.77 536.029C2058.89 536.965 2067 530.428 2068.88 521.432C2070.76 512.434 2065.71 504.381 2057.59 503.445C2049.47 502.508 2041.36 509.043 2039.48 518.041Z" fill="#231F20"/>
<path d="M2053.96 521.031C2054.72 524.036 2057.66 525.503 2060.55 524.307C2063.43 523.112 2065.16 519.706 2064.41 516.701C2063.66 513.696 2060.71 512.228 2057.83 513.424C2054.94 514.62 2053.22 518.025 2053.96 521.031Z" fill="white"/>
<path d="M1992.72 465.675C1997.42 460.873 2001.54 454.445 2003.48 447.821C2005.41 441.197 2004.89 434.505 2001.61 431.459C1999.47 429.477 1996.36 429.111 1993.13 429.666C1983.94 431.245 1973.38 440.598 1967.42 452.442C1965.81 455.641 1964.51 459.044 1963.99 462.304C1960.6 483.847 1981.77 476.869 1992.72 465.675Z" fill="#9B9EAA"/>
<path d="M1961.31 466.326C1960.25 474.733 1964.75 479.892 1971.36 477.852C1977.98 475.81 1984.21 467.343 1985.28 458.936C1986.34 450.531 1981.84 445.372 1975.22 447.412C1968.61 449.455 1962.38 457.922 1961.31 466.326Z" fill="#231F20"/>
<path d="M1973.19 463.819C1973.95 466.142 1976.4 466.373 1978.68 464.331C1980.95 462.288 1982.18 458.752 1981.42 456.428C1980.66 454.105 1978.2 453.874 1975.93 455.917C1973.65 457.959 1972.43 461.498 1973.19 463.819Z" fill="white"/>
<path d="M2455.45 452.645C2455.67 451.796 2455.91 450.952 2456.11 450.098C2457.56 444.076 2459.02 437.561 2461.54 431.873C2464.6 433.003 2467.66 434.155 2470.69 435.346C2471.23 435.555 2471.76 435.771 2472.27 435.979C2470.79 442.538 2468.31 449.145 2466.64 455.597C2462.95 454.53 2459.21 453.547 2455.45 452.645Z" fill="#DBAD6B"/>
<path d="M2166.62 430.265C2166.63 428.111 2166.73 425.829 2167.05 423.612C2169.56 422.547 2172.08 421.55 2174.6 420.633C2175.2 420.41 2175.82 420.204 2176.42 419.988C2181.51 435.097 2184.27 450.967 2188.53 466.369C2191.53 477.242 2195.49 488.143 2201.22 497.806C2197.97 499.778 2194.8 501.89 2191.79 504.197C2188.73 506.533 2185.59 510.156 2182.28 513.472C2178.42 508 2175.24 502.087 2172.95 495.664C2169.12 484.907 2168.06 473.378 2167.42 461.981C2166.83 451.42 2166.56 440.843 2166.62 430.265Z" fill="#DBAD6B"/>
<path d="M2200.62 412.801C2206.52 411.358 2212.47 410.109 2218.46 409.02C2219.9 414.809 2220.81 420.798 2221.82 426.675C2224.97 444.873 2229.69 463.232 2238 479.592C2232.29 482.088 2226.63 484.69 2221.02 487.385C2220.5 486.235 2219.97 485.088 2219.46 483.936C2209.46 461.427 2203.08 437.311 2200.62 412.801Z" fill="#DBAD6B"/>
<path d="M2425.97 447.245C2421.92 446.728 2417.85 446.309 2413.77 445.972C2414.24 443.284 2414.66 440.589 2414.98 437.88C2415.75 431.29 2416.13 424.496 2417.23 417.947C2420.92 418.908 2424.59 419.924 2428.25 420.977C2427.91 429.735 2426.82 438.499 2425.97 447.245Z" fill="#DBAD6B"/>
<path d="M2277.55 414.405C2283.07 429.358 2288.6 444.328 2294.82 458.995C2285.55 461.649 2276.36 464.632 2267.28 467.911C2262.48 447.129 2260.87 425.416 2261.04 403.735C2265.14 403.429 2269.24 403.179 2273.34 402.98C2274.75 406.789 2276.15 410.594 2277.55 414.405Z" fill="#DBAD6B"/>
<path d="M2378.77 445.157C2372.89 445.373 2367.02 445.763 2361.17 446.304C2360.29 433.076 2359.11 419.781 2359.97 406.684C2364.33 407.268 2368.68 407.918 2373.02 408.622C2374.89 420.817 2376.53 433.068 2378.77 445.157Z" fill="#DBAD6B"/>
<path d="M2333.24 450.073C2328.77 450.864 2324.31 451.742 2319.86 452.702C2315.48 435.942 2309.64 419.344 2307.04 402.543C2311.02 402.633 2315 402.766 2318.98 402.955C2324.95 418.071 2328.99 434.096 2333.24 450.073Z" fill="#DBAD6B"/>
<path d="M2100.71 378.653C2094.59 374.646 2088.16 369.996 2085 363.617C2087.24 361.704 2089.5 359.824 2091.79 357.971C2111.41 364.675 2128.1 378.33 2146.62 388.047C2142.55 391.882 2138.64 395.838 2134.89 399.917C2132.02 398.266 2129.19 396.553 2126.41 394.846C2117.78 389.551 2109.18 384.2 2100.71 378.653Z" fill="#AF895A"/>
<path d="M2304.93 304.199C2302.63 294.012 2301.88 283.481 2302.69 273.066C2305.77 272.675 2308.85 272.309 2311.93 271.977C2313.64 281.703 2316.7 291.189 2320.98 300.093C2315.61 301.374 2310.26 302.742 2304.93 304.199Z" fill="#AF895A"/>
<path d="M2341.95 295.532C2341.56 294.276 2341.15 293.027 2340.69 291.79C2338.57 286.02 2335.75 280.451 2334.59 274.414C2334.32 272.992 2334.16 271.525 2334.12 270.055C2337.45 269.854 2340.81 269.706 2344.16 269.643C2345.81 275.066 2346.88 280.71 2348.28 286.17C2348.94 288.76 2349.8 291.324 2350.7 293.883C2347.78 294.409 2344.86 294.958 2341.95 295.532Z" fill="#AF895A"/>
<path d="M2259.44 280.527C2261.9 288.206 2264.77 295.735 2268.71 302.757C2270.76 306.417 2273.14 309.939 2275.83 313.189C2271.01 314.858 2266.21 316.59 2261.44 318.426C2256.12 307.033 2253.45 294.401 2253.7 281.823C2255.61 281.381 2257.52 280.947 2259.44 280.527Z" fill="#AF895A"/>
<path d="M2112.64 345.537C2112.26 344.732 2111.98 343.859 2111.83 342.966C2115.62 340.335 2119.47 337.778 2123.37 335.297C2125.49 336.306 2127.54 337.764 2129.27 339.212C2139.27 347.584 2149.27 355.957 2159.27 364.333C2161.78 366.44 2164.46 368.589 2167.26 370.491C2162.78 373.942 2158.42 377.518 2154.18 381.214C2142.82 372.038 2131.46 362.86 2120.1 353.682C2117.21 351.344 2114.22 348.894 2112.64 345.537Z" fill="#AF895A"/>
<path d="M2166.59 334.275C2162.86 328.556 2160.36 321.473 2160.16 314.689C2164.08 312.773 2168.03 310.915 2172.01 309.125C2180.91 323.064 2190.94 336.579 2203.76 346.095C2197.79 349.568 2191.89 353.218 2186.09 357.053C2179.61 349.437 2172.06 342.653 2166.59 334.275Z" fill="#AF895A"/>
<path d="M2226.97 333.574C2226.04 334.035 2225.11 334.523 2224.18 334.993C2216.73 322.386 2209.18 309.768 2205.77 295.678C2210.14 294.15 2214.53 292.688 2218.95 291.293C2219.03 291.458 2219.11 291.625 2219.19 291.788C2225.18 304.313 2232.85 316.028 2241.89 326.56C2236.88 328.803 2231.89 331.125 2226.97 333.574Z" fill="#AF895A"/>
<path d="M2113.02 614.167C2110.61 607.627 2108.62 600.831 2108.4 593.863C2108.17 586.894 2109.82 579.688 2114.07 574.16C2109.53 572.552 2104.54 575.475 2101.55 579.239C2095 587.474 2094.72 598.993 2095.9 609.447C2097.83 626.655 2103.23 644.134 2115.1 656.754C2117.36 651.054 2125.59 638.875 2124.48 632.811C2123.49 627.356 2115.26 620.233 2113.02 614.167Z" fill="#9B9EAA"/>
<path d="M1604.72 915.711C1594.93 927.598 1589.71 942.823 1586 958.004C1560.86 1060.84 1596.45 1167.73 1608.18 1273.14C1613.19 1318.15 1613.81 1363.57 1613.39 1408.88C1619.41 1408.81 1625.43 1408.75 1631.46 1408.69C1656.85 1298.93 1709.73 1198.21 1741.94 1090.41C1750.76 1060.9 1758.07 1030.39 1757.12 999.504C1756.18 968.616 1746.11 936.987 1724.56 915.742C1696.27 887.844 1631.7 882.969 1604.72 915.711Z" fill="#AEB1C1"/>
<path d="M1994.2 1456.9C2000.26 1457.52 2006.32 1458.14 2012.38 1458.76C2024.71 1385.38 2037.04 1312 2049.36 1238.62C2056.02 1198.97 2062.69 1159.27 2066.41 1119.24C2068.96 1091.76 2069.69 1062.32 2055.62 1038.58C2043.16 1017.57 2006.87 999.501 1983.43 1013.3C1957.09 1028.81 1955.88 1077.48 1954.21 1103.65C1949.35 1179.88 1966.69 1255.21 1979.73 1329.81C1981.54 1340.17 1995.6 1457.04 1994.2 1456.9Z" fill="#AEB1C1"/>
<path d="M2151.6 722.981C2165.07 741.573 2176.83 762.488 2178.57 785.375C2174.52 751.234 2172.73 716.823 2173.21 682.444C2173.36 670.981 2173.57 658.737 2167.39 649.084C2159.85 637.32 2143.37 632.677 2130.39 637.841C2116.79 643.248 2104.12 660.396 2113.79 673.53C2126.04 690.174 2139.44 706.185 2151.6 722.981Z" fill="#9B9EAA"/>
<path d="M2256.37 632.484C2261.5 655.024 2261.3 678.898 2269.92 700.35C2248.92 703.006 2227.73 696.872 2208.38 688.29C2174.58 673.303 2144.26 650.566 2120.41 622.333C2107.57 607.121 2096.08 588.466 2098.23 568.676C2099.69 555.266 2107.8 542.74 2119.44 535.913C2138.77 524.576 2167.14 527.44 2185.75 537.969C2208.12 550.633 2226.92 569.402 2239.97 591.51C2247.47 604.229 2253.09 618.077 2256.37 632.484Z" fill="#AEB1C1"/>
<path d="M2163.38 553.976C2180.84 558.436 2191.85 575.167 2201.16 590.589C2213.01 610.211 2224.86 629.833 2236.7 649.458C2211.41 638.597 2186.56 626.699 2162.24 613.801C2149.35 606.961 2136.41 599.691 2126.18 589.272C2122.58 585.599 2119.28 579.698 2122.54 575.72C2125.52 572.089 2131.4 573.377 2135.67 571.42C2142.73 568.182 2138.46 560.898 2142.41 556.576C2146.75 551.834 2157.96 552.591 2163.38 553.976Z" fill="#EDBA94"/>
<path d="M1810.73 603.249C1805.16 620.645 1812.71 640.75 1828.16 650.401C1831.52 652.499 1834.6 647.194 1831.25 645.104C1818.06 636.859 1811.92 619.638 1816.65 604.879C1817.85 601.11 1811.93 599.495 1810.73 603.249Z" fill="#9B9EAA"/>
<path d="M1808.99 605.775C1809.09 604.998 1808.99 605.731 1808.95 605.91C1808.91 606.146 1808.85 606.376 1808.79 606.609C1808.73 606.839 1808.66 607.067 1808.59 607.293C1808.56 607.371 1808.25 608.229 1808.41 607.814C1808.57 607.402 1808.26 608.12 1808.23 608.2C1808.12 608.414 1808.01 608.622 1807.89 608.828C1807.65 609.243 1807.39 609.631 1807.12 610.024C1807.06 610.121 1806.99 610.216 1806.91 610.31C1807.13 610.036 1807.16 609.983 1807.02 610.157C1806.82 610.337 1806.66 610.587 1806.47 610.786C1806.15 611.137 1805.8 611.47 1805.44 611.79C1805.26 611.947 1805.08 612.1 1804.89 612.253C1805.29 611.918 1804.98 612.19 1804.75 612.353C1804.36 612.631 1803.95 612.893 1803.53 613.134C1803.11 613.374 1802.68 613.587 1802.25 613.798C1801.53 614.15 1802.85 613.587 1802.1 613.864C1801.87 613.946 1801.65 614.031 1801.42 614.109C1800.97 614.261 1800.51 614.392 1800.04 614.499C1799.81 614.552 1799.58 614.601 1799.34 614.645C1799 614.705 1798.69 614.71 1799.22 614.671C1798.26 614.747 1797.34 614.756 1796.38 614.676C1797.2 614.744 1796.33 614.659 1796.14 614.625C1795.9 614.577 1795.68 614.523 1795.44 614.465C1794.94 614.332 1794.45 614.162 1793.97 613.968C1792.47 613.369 1790.53 614.623 1790.19 616.112C1789.79 617.885 1790.73 619.243 1792.33 619.886C1797.03 621.771 1802.58 620.871 1806.84 618.314C1811.43 615.561 1814.48 611.086 1815.13 605.779C1815.33 604.181 1813.58 602.643 1812.06 602.711C1810.23 602.789 1809.21 604.062 1808.99 605.775Z" fill="#9B9EAA"/>
<path d="M1895.37 558.208C1904.16 569.78 1910.92 583.559 1911.02 598.091C1911.12 612.624 1903.35 627.781 1889.92 633.355C1883.03 636.215 1875.3 636.409 1867.91 635.424C1852.71 633.406 1838.58 626.697 1824.9 619.765C1808.93 611.666 1792.35 602.294 1783.42 586.877C1783.88 581.84 1785.03 576.875 1786.96 572.113C1794.25 554.131 1811.14 541.736 1828.76 533.584C1836.96 529.793 1845.45 526.713 1853.96 523.654C1870.62 531.957 1885.68 545.477 1895.37 558.208Z" fill="#8C6D65"/>
<path d="M1613.49 1391.88C1613.49 1391.88 1602.98 1435.6 1606.95 1433.13C1610.92 1430.65 1622.47 1409.93 1622.47 1415.34C1622.47 1420.75 1631.43 1434.98 1631.9 1433.23C1632.38 1431.47 1635.57 1391.88 1635.57 1391.88H1613.49Z" fill="#231F20"/>
<path d="M1800.04 1397.64C1800.44 1400.05 1800.04 1436.42 1800.04 1436.42L1817.25 1424.87L1833.76 1436.42L1823.87 1391.88L1800.04 1397.64Z" fill="#231F20"/>
<path d="M1992.56 1436.42L1987.27 1470.24L1998.21 1464.47C1998.21 1464.47 2009.22 1480.96 2010.63 1478.49C2012.03 1476.01 2016.64 1433.37 2016.64 1433.37L1992.56 1436.42Z" fill="#231F20"/>
<path d="M2111.62 1316.63C2111.62 1316.63 2081.36 1346.51 2083.84 1345.69C2086.31 1344.86 2097.66 1349.81 2097.66 1349.81V1367.96L2130.71 1335.02L2111.62 1316.63Z" fill="#231F20"/>
<path d="M2053.29 795.138C2051.28 813.402 2047.06 831.363 2040.86 848.659C2039.53 852.382 2045.46 853.986 2046.78 850.289C2053.17 832.452 2057.35 813.965 2059.43 795.138C2059.86 791.221 2053.72 791.25 2053.29 795.138Z" fill="#9B9EAA"/>
<path d="M2069.44 795.225C2069.42 808.718 2067.75 822.1 2064.42 835.178C2063.45 839.008 2069.37 840.64 2070.34 836.81C2073.8 823.228 2075.56 809.242 2075.58 795.225C2075.58 791.276 2069.44 791.272 2069.44 795.225Z" fill="#9B9EAA"/>
<path d="M2096.69 741.051C2096.69 750.724 2096.69 760.399 2096.69 770.072C2096.69 774.021 2102.83 774.028 2102.83 770.072C2102.83 760.399 2102.83 750.724 2102.83 741.051C2102.83 737.103 2096.69 737.098 2096.69 741.051Z" fill="#9B9EAA"/>
<path d="M2135.04 773.976C2136.41 790.56 2139.19 806.995 2143.42 823.09C2144.43 826.903 2150.35 825.286 2149.34 821.458C2145.25 805.889 2142.5 790.019 2141.18 773.976C2140.86 770.067 2134.71 770.033 2135.04 773.976Z" fill="#9B9EAA"/>
<path d="M1986.53 825.397C1982.06 837.949 1976.1 849.905 1968.86 861.086C1966.7 864.411 1972.02 867.492 1974.16 864.183C1981.69 852.556 1987.8 840.076 1992.45 827.027C1993.78 823.302 1987.84 821.696 1986.53 825.397Z" fill="#9B9EAA"/>
<path d="M2000.32 873.011C1995.2 883.208 1988.92 892.791 1981.52 901.482C1980.45 902.743 1980.28 904.581 1981.52 905.821C1982.62 906.92 1984.78 907.087 1985.86 905.821C1993.6 896.73 2000.26 886.778 2005.62 876.108C2006.37 874.626 2006.02 872.783 2004.52 871.91C2003.16 871.112 2001.07 871.522 2000.32 873.011Z" fill="#9B9EAA"/>
<path d="M2083.14 979.036C2083.14 1000.32 2083.14 1021.6 2083.14 1042.88C2083.14 1046.83 2089.28 1046.84 2089.28 1042.88C2089.28 1021.6 2089.28 1000.32 2089.28 979.036C2089.28 975.087 2083.14 975.082 2083.14 979.036Z" fill="#9B9EAA"/>
<path d="M2109.55 1021.55C2108.57 1035.75 2108.96 1049.99 2110.72 1064.11C2110.93 1065.77 2111.98 1067.16 2113.79 1067.17C2115.29 1067.19 2117.07 1065.75 2116.86 1064.11C2115.1 1049.99 2114.7 1035.75 2115.69 1021.55C2115.96 1017.61 2109.82 1017.63 2109.55 1021.55Z" fill="#9B9EAA"/>
<path d="M2098.35 1091.28C2099.14 1099.65 2099.92 1108.02 2100.72 1116.39C2100.87 1118.04 2102.01 1119.46 2103.79 1119.46C2105.33 1119.46 2107.01 1118.05 2106.86 1116.39C2106.07 1108.02 2105.28 1099.65 2104.49 1091.28C2104.34 1089.63 2103.19 1088.21 2101.42 1088.21C2099.88 1088.21 2098.2 1089.62 2098.35 1091.28Z" fill="#9B9EAA"/>
<path d="M1640.56 924.485C1627.56 938.33 1617.53 954.634 1610.98 972.452C1609.62 976.163 1615.55 977.764 1616.9 974.084C1623.07 957.288 1632.65 941.864 1644.9 928.824C1647.6 925.95 1643.27 921.601 1640.56 924.485Z" fill="#9B9EAA"/>
<path d="M1633.39 964.431C1629.28 976.648 1626.91 989.385 1626.23 1002.25C1626.03 1006.2 1632.17 1006.19 1632.37 1002.25C1633.02 989.916 1635.37 977.774 1639.31 966.064C1640.57 962.311 1634.64 960.703 1633.39 964.431Z" fill="#9B9EAA"/>
<path d="M1597.39 1008.86C1599.93 1021.76 1602.48 1034.67 1605.02 1047.57C1605.79 1051.45 1611.71 1049.81 1610.94 1045.94C1608.4 1033.04 1605.85 1020.13 1603.31 1007.23C1602.54 1003.36 1596.62 1005 1597.39 1008.86Z" fill="#9B9EAA"/>
<path d="M1836.89 1113.88C1843.61 1104.39 1850.33 1094.91 1857.05 1085.42C1858.01 1084.07 1857.29 1082.01 1855.95 1081.23C1854.41 1080.33 1852.71 1080.97 1851.75 1082.32C1845.03 1091.81 1838.31 1101.29 1831.59 1110.78C1830.63 1112.14 1831.35 1114.2 1832.69 1114.98C1834.23 1115.88 1835.93 1115.23 1836.89 1113.88Z" fill="#9B9EAA"/>
<path d="M1859.7 1074.97C1863.65 1074.97 1863.66 1068.84 1859.7 1068.84C1855.75 1068.84 1855.75 1074.97 1859.7 1074.97Z" fill="#9B9EAA"/>
<path d="M1869.99 1123.69C1874.51 1115.96 1879.04 1108.23 1883.56 1100.49C1885.56 1097.08 1880.26 1093.98 1878.26 1097.4C1873.74 1105.13 1869.21 1112.87 1864.68 1120.6C1862.69 1124.01 1867.99 1127.1 1869.99 1123.69Z" fill="#9B9EAA"/>
<path d="M1664.96 1205.39C1665.74 1192.5 1666.53 1179.61 1667.31 1166.72C1667.55 1162.77 1661.41 1162.79 1661.17 1166.72C1660.39 1179.61 1659.61 1192.5 1658.82 1205.39C1658.58 1209.33 1664.72 1209.32 1664.96 1205.39Z" fill="#9B9EAA"/>
<path d="M1644.01 1240.24C1644.01 1230.56 1644.01 1220.89 1644.01 1211.21C1644.01 1207.27 1637.87 1207.26 1637.87 1211.21C1637.87 1220.89 1637.87 1230.56 1637.87 1240.24C1637.87 1244.18 1644.01 1244.19 1644.01 1240.24Z" fill="#9B9EAA"/>
<path d="M1702.07 1128.86C1705.25 1117.05 1709.56 1105.59 1714.99 1094.63C1716.74 1091.1 1711.45 1087.99 1709.69 1091.53C1704.03 1102.96 1699.47 1114.91 1696.15 1127.23C1695.11 1131.04 1701.04 1132.67 1702.07 1128.86Z" fill="#9B9EAA"/>
<path d="M2011.92 1275.06C2010.99 1257.62 2011.58 1240.15 2013.69 1222.81C2014.17 1218.9 2008.03 1218.94 2007.55 1222.81C2005.44 1240.15 2004.85 1257.62 2005.78 1275.06C2005.99 1278.99 2012.13 1279.01 2011.92 1275.06Z" fill="#9B9EAA"/>
<path d="M2034.54 1204.21C2037.32 1189.42 2040.11 1174.62 2042.9 1159.82C2043.62 1155.97 2037.71 1154.31 2036.98 1158.19C2034.19 1172.99 2031.4 1187.78 2028.62 1202.58C2027.89 1206.44 2033.81 1208.09 2034.54 1204.21Z" fill="#9B9EAA"/>
<path d="M2009.92 1364.06C2009.24 1356.69 2010.33 1349.18 2013.39 1342.41C2014.07 1340.9 2013.82 1339.11 2012.29 1338.21C2010.97 1337.45 2008.77 1337.8 2008.09 1339.32C2004.58 1347.07 2002.99 1355.56 2003.79 1364.06C2003.94 1365.71 2005.09 1367.13 2006.86 1367.13C2008.4 1367.13 2010.08 1365.72 2009.92 1364.06Z" fill="#9B9EAA"/>
<path opacity="0.27" d="M1823.93 556.1C1825.59 557.797 1827.97 558.542 1830.2 559.362C1838.28 562.323 1845.72 567.026 1851.87 573.061C1855.87 577 1859.34 581.499 1863.62 585.143C1864.65 586.025 1865.82 586.891 1867.18 586.981C1868.82 587.09 1870.33 586.021 1871.37 584.752C1874.83 580.537 1874.43 574.349 1872.85 569.132C1868.9 556.119 1858.31 545.415 1845.56 540.843C1840.05 538.866 1833.32 537.115 1828.09 540.295C1823.15 543.3 1819.23 551.285 1823.93 556.1Z" fill="white"/>
<path opacity="0.27" d="M2085.4 395.647C2077.76 395.461 2070.12 395.271 2062.47 395.082C2054.82 394.896 2046.75 394.806 2040.07 398.543C2033.4 402.281 2029.05 411.299 2033.02 417.836C2035.44 421.828 2040.26 423.825 2044.91 424.264C2049.57 424.703 2054.24 423.854 2058.9 423.483C2066.37 422.886 2073.93 423.521 2081.2 425.353C2089.93 427.555 2099.35 431.436 2107.51 427.642C2112.75 425.207 2116.36 419.607 2116.41 413.834C2116.53 397.644 2097.37 395.941 2085.4 395.647Z" fill="white"/>
<path d="M1521.47 1292.09C1545.51 1300.34 1566.05 1319.74 1573.19 1344.12C1567.67 1337.3 1558.64 1333.49 1549.9 1334.28C1561.57 1349.83 1567.22 1369.76 1565.46 1389.11C1556.23 1374.92 1541.11 1364.68 1524.5 1361.38C1530.29 1365.39 1526.14 1375.6 1519.32 1377.36C1512.5 1379.12 1505.55 1375.53 1499.5 1371.94C1491.34 1367.09 1483.27 1361.98 1476.37 1355.48C1465.24 1345.02 1444.89 1314.36 1454.13 1297.88C1464.38 1279.6 1505.58 1286.63 1521.47 1292.09Z" fill="#AEB1C1"/>
<path d="M1525.67 1339.56C1531.46 1343.57 1527.31 1353.78 1520.49 1355.54C1513.67 1357.31 1506.72 1353.71 1500.66 1350.12C1492.51 1345.28 1484.44 1340.16 1477.54 1333.67C1470.27 1326.84 1459.08 1311.4 1454.75 1296.91C1454.54 1297.23 1454.32 1297.54 1454.13 1297.88C1444.89 1314.37 1465.24 1345.02 1476.37 1355.49C1483.27 1361.98 1491.34 1367.1 1499.5 1371.94C1505.55 1375.53 1512.5 1379.12 1519.32 1377.36C1526.14 1375.6 1530.29 1365.39 1524.5 1361.38C1541.11 1364.68 1556.23 1374.92 1565.46 1389.12C1566.26 1380.3 1565.51 1371.37 1563.37 1362.78C1554.05 1350.95 1540.46 1342.5 1525.67 1339.56Z" fill="#9B9EAA"/>
<path d="M1553.98 1312.38C1553.01 1312.36 1552.04 1312.38 1551.07 1312.47C1556.51 1319.72 1560.63 1327.94 1563.31 1336.6C1567.12 1338.31 1570.55 1340.87 1573.18 1344.12C1569.66 1332.08 1562.86 1321.25 1553.98 1312.38Z" fill="#9B9EAA"/>
<path d="M1141.01 942.13C1136.19 923.48 1136.98 903.895 1137.82 884.648C1138.25 874.803 1138.67 864.96 1139.1 855.115C1143.64 858.836 1149.35 860.754 1154.78 862.993C1178.86 872.918 1199.63 890.656 1213.2 912.869C1218.03 920.776 1222.06 929.699 1221.43 938.943C1220.87 947.042 1216.69 954.617 1210.94 960.343C1199.46 971.767 1183.38 974.557 1168.01 971.445C1152.23 968.25 1145.03 957.656 1141.01 942.13Z" fill="#8F929B"/>
<path d="M1048.51 947.385C1038.75 949.628 1028.97 952.5 1020.55 957.892C1016.75 960.322 1013.13 963.413 1011.41 967.58C1009.68 971.747 1010.36 977.165 1013.96 979.889C1018.59 983.394 1025.13 981.129 1030.63 979.249C1057.56 970.042 1088.73 974.255 1112.24 990.28C1122.07 996.986 1130.54 1005.55 1140.46 1012.14C1150.38 1018.73 1162.52 1023.33 1174.13 1020.67C1190.56 1016.91 1201.06 998.43 1198.65 981.757C1196.83 969.176 1188.34 956.638 1177.36 950.118C1168.15 944.644 1154.28 944.838 1143.85 943.361C1112.18 938.879 1079.68 940.213 1048.51 947.385Z" fill="#9B7A4E"/>
<path d="M1301.39 1662.14C1303.01 1668.63 1304.81 1675.35 1309.51 1680.59C1314.2 1685.83 1322.68 1689.12 1329.53 1686.4C1323.71 1618.17 1388.6 1559.58 1391.5 1491.31C1392.1 1476.97 1389.43 1461.56 1378.51 1450.72C1367.14 1439.42 1348.86 1435.27 1331.8 1435.63C1308.87 1436.11 1283.1 1445.1 1274.23 1465.06C1267.1 1481.08 1277.04 1492.68 1279.98 1508.49C1289.47 1559.56 1288.55 1610.79 1301.39 1662.14Z" fill="#8F929B"/>
<path d="M1120.59 1497.43C1104.23 1530.24 1075.1 1556.47 1040.76 1569.35C1045.75 1579.11 1053.35 1590.4 1064.27 1589.33C1068.01 1588.96 1071.41 1587.09 1074.69 1585.26C1117.65 1561.34 1161 1537.15 1197.73 1504.46C1208.62 1494.77 1219.09 1484.07 1225.21 1470.84C1236.4 1446.7 1230.25 1415.67 1210.7 1397.61C1193.87 1382.06 1146.52 1368.7 1134.59 1396.52C1129.24 1409 1136.54 1429.81 1135.44 1443.59C1133.95 1462.26 1128.96 1480.66 1120.59 1497.43Z" fill="#8F929B"/>
<path d="M1126.92 1257.98C1116.08 1289.39 1113.46 1322.95 1111.1 1356.09C1108.78 1388.68 1106.83 1422.64 1119.32 1452.83C1138 1497.99 1184.73 1524.8 1230.64 1541.61C1281.05 1560.06 1338.12 1570.25 1387.72 1549.71C1420.5 1536.14 1447.12 1509.97 1465.17 1479.44C1489.94 1437.55 1499.26 1386.26 1488.31 1338.85C1477.35 1291.44 1445.6 1248.71 1402.17 1226.73C1376.92 1213.95 1348.74 1208.25 1320.76 1203.98C1247.41 1192.78 1157.88 1168.25 1126.92 1257.98Z" fill="#AEB1C1"/>
<path d="M1382.24 1516.95C1332.64 1537.49 1275.57 1527.31 1225.16 1508.85C1179.25 1492.04 1132.52 1465.23 1113.84 1420.07C1111.83 1415.22 1110.2 1410.27 1108.88 1405.25C1109.56 1422.22 1112.15 1438.89 1118.62 1454.55C1137.31 1499.7 1184.03 1526.52 1229.94 1543.32C1280.35 1561.78 1337.42 1571.97 1387.02 1551.43C1419.8 1537.85 1415.02 1503.38 1382.24 1516.95Z" fill="#9B9EAA"/>
<path d="M1108.58 1051.74C1109.57 1034.08 1139.32 1028.74 1151.54 1015.94C1173.77 992.644 1256.98 982.074 1288.43 989.018C1289.78 1042.35 1275.64 1082.39 1283.07 1150.81C1285.72 1175.17 1298.7 1199.08 1305.7 1222.56C1317.28 1261.37 1300.42 1304.86 1270.81 1332.51C1233.34 1367.5 1115.01 1419.28 1108.49 1336.61C1101.36 1246.1 1103.22 1147.18 1108.58 1051.74Z" fill="#AEB1C1"/>
<path d="M1144.72 1174.27C1121.05 1123.39 1096.84 1064.88 1114.82 1010.77C1126.67 975.125 1155.68 948.546 1187.81 934.851C1219.94 921.157 1255.56 927.262 1289.36 920.269C1444.07 888.26 1427.97 984.485 1404.14 1013.09C1385.63 1035.32 1358.5 1056.82 1338.06 1076.9C1301.4 1112.93 1257.41 1139.83 1210.37 1155C1189.87 1161.61 1167.77 1165.97 1147.47 1159.09C1147.79 1153.87 1150.25 1148.83 1154.03 1145.64L1144.72 1174.27Z" fill="#AEB1C1"/>
<path d="M1087.82 1039.78C1079.8 1045.76 1072 1052.32 1066.46 1060.64C1063.96 1064.4 1061.89 1068.68 1061.99 1073.19C1062.09 1077.7 1064.9 1082.38 1069.29 1083.43C1074.94 1084.78 1080.01 1080.07 1084.29 1076.14C1105.23 1056.88 1135.46 1048.21 1163.44 1053.42C1175.14 1055.6 1186.34 1060.04 1198.07 1062.08C1209.81 1064.13 1222.78 1063.45 1232.33 1056.35C1245.86 1046.3 1248.03 1025.16 1239.11 1010.87C1232.38 1000.08 1219.55 992.017 1206.89 990.462C1196.25 989.154 1183.63 994.91 1173.48 997.755C1142.68 1006.39 1113.48 1020.68 1087.82 1039.78Z" fill="#C49D5F"/>
<path d="M1186.44 1494.15C1197.23 1469.77 1199.58 1441.75 1193.01 1415.92C1182.5 1441.77 1161.55 1463.2 1135.94 1474.31C1135.13 1474.66 1134.23 1475.09 1134 1475.94C1133.83 1476.54 1134.06 1477.18 1134.31 1477.75C1138.51 1487.43 1148.29 1493.27 1157.48 1498.47C1161.81 1500.92 1170.7 1508.54 1175.75 1508.33C1181.01 1508.11 1184.6 1498.13 1186.44 1494.15Z" fill="#9B9EAA"/>
<path d="M1073.36 1455.44C1048.09 1482 1012.54 1498.54 975.932 1500.78C977.834 1511.58 981.788 1524.6 992.542 1526.77C996.226 1527.52 1000.02 1526.73 1003.7 1525.94C1051.79 1515.68 1100.33 1505.26 1145.04 1484.78C1158.3 1478.7 1171.45 1471.55 1181.19 1460.7C1198.97 1440.89 1202.2 1409.43 1188.81 1386.43C1177.29 1366.64 1128.07 1313.52 1108.5 1336.62C1108.5 1336.62 1108.46 1395.46 1103.36 1408.32C1096.46 1425.73 1086.28 1441.86 1073.36 1455.44Z" fill="#AEB1C1"/>
<path d="M1325.08 1441.62C1324.22 1457.25 1329.07 1472.69 1335.65 1486.9C1342.23 1501.11 1350.55 1514.45 1357.27 1528.59C1359.48 1533.25 1361.57 1538.45 1360.23 1543.43C1358.6 1549.53 1352.35 1553.23 1346.27 1554.96C1333.46 1558.62 1304.75 1556.52 1304.49 1538.79C1304.17 1517.48 1305.45 1496.66 1311.31 1476.05C1314.69 1464.14 1319.3 1452.57 1325.08 1441.62Z" fill="#9B9EAA"/>
<path d="M1397.97 1671.69C1402.8 1677.41 1408.13 1683.16 1415.14 1685.8C1422.16 1688.44 1431.3 1686.92 1435.17 1680.5C1423.22 1670.04 1418.25 1653.36 1418.47 1637.49C1418.69 1621.62 1423.46 1606.21 1428.19 1591.05C1438.7 1557.35 1449.22 1523.65 1459.73 1489.95C1467.9 1463.79 1475.98 1434.98 1465.38 1409.7C1457.23 1390.28 1438.42 1376.2 1417.79 1371.94C1397.15 1367.67 1375.14 1372.68 1357.23 1383.77C1310.5 1412.73 1319.02 1477.18 1327.9 1523.96C1338.17 1578.07 1362.38 1629.59 1397.97 1671.69Z" fill="#AEB1C1"/>
<path d="M1281.15 1121.31C1279.92 1147.9 1289.07 1173.75 1298.18 1198.76C1272.99 1182.95 1248.95 1165.32 1226.31 1146.04C1221.03 1141.54 1210.17 1133.59 1209.17 1126.1C1208.11 1118.2 1219.81 1122.32 1224.23 1123.16C1233.71 1124.96 1243.45 1125.1 1253.07 1124.52C1255.48 1124.37 1281.09 1122.53 1281.15 1121.31Z" fill="#9B9EAA"/>
<path d="M1268.08 981.601C1271.29 988.109 1279.46 990.435 1286.72 990.542C1298.25 990.709 1309.81 986.945 1319.03 980.015C1311.65 981.625 1304.13 983.175 1296.6 982.569C1289.07 981.963 1281.41 978.904 1276.88 972.865C1270.99 965.013 1277.59 960.584 1282.74 955.188C1272.54 957.618 1263.1 971.521 1268.08 981.601Z" fill="#231F20"/>
<path d="M1336.41 914.004C1334.14 917.693 1334.36 922.467 1338.68 928.584C1344.75 937.185 1352.54 944.425 1360.54 951.274C1371.22 960.414 1383.84 969.454 1397.85 968.372C1404.88 967.828 1411.52 964.7 1417.13 960.438C1417.64 960.047 1418.15 959.642 1418.64 959.225C1414.71 934.184 1393.57 911.586 1336.41 914.004Z" fill="#EDBA94"/>
<path d="M1419.34 967.355C1408.92 992.767 1391.51 1016.98 1369.91 1034.06C1349 1050.59 1325.58 1061.87 1302.3 1074.46C1287.86 1082.27 1280.12 1103.3 1295.24 1113.11C1310.82 1102.31 1325.6 1090.09 1339.34 1076.58C1359.78 1056.5 1386.9 1035 1405.42 1012.77C1413.19 1003.44 1418.87 984.273 1419.34 967.355Z" fill="#9B9EAA"/>
<path d="M1280.58 1142.88C1303.94 1160.82 1335.39 1167.8 1364.15 1161.39C1359.47 1144.35 1358.84 1126.32 1353.25 1109.54C1341.47 1074.2 1306.19 1048.03 1268.93 1046.98C1262.5 1046.8 1255.77 1047.38 1250.24 1050.68C1234.72 1059.97 1242.72 1085.3 1247.73 1098.42C1254.38 1115.84 1265.76 1131.51 1280.58 1142.88Z" fill="#C5C9D8"/>
<path opacity="0.27" d="M1262.11 1085C1266.98 1089.13 1273.7 1090.06 1279.91 1091.61C1289.88 1094.09 1299.35 1098.57 1307.6 1104.7C1310.16 1106.61 1312.67 1108.71 1315.67 1109.81C1318.67 1110.9 1322.38 1110.78 1324.68 1108.56C1326.49 1106.82 1327.1 1104.16 1327.13 1101.64C1327.2 1095.54 1324.42 1089.75 1320.93 1084.75C1311.19 1070.82 1295.12 1061.66 1278.3 1059.71C1271.15 1058.89 1262.77 1057.62 1258.65 1064.31C1254.78 1070.61 1256.57 1080.3 1262.11 1085Z" fill="white"/>
<path opacity="0.27" d="M1334.97 1117.72C1334.11 1116.48 1332.05 1116.73 1331.04 1117.84C1330.02 1118.96 1329.81 1120.58 1329.79 1122.08C1329.71 1126.31 1330.72 1130.54 1332.69 1134.28C1333.91 1136.6 1335.81 1138.92 1338.42 1139.16C1340.6 1139.37 1342.72 1137.97 1343.8 1136.07C1344.88 1134.17 1345.05 1131.87 1344.76 1129.71C1344.09 1124.69 1340.94 1120.07 1336.52 1117.61L1334.97 1117.72Z" fill="white"/>
<path d="M985.28 1499.89L945.131 1496.04L967.646 1515.72L950.429 1524.68L996.089 1527.06L985.28 1499.89Z" fill="#231F20"/>
<path d="M1045.69 1567.39L1000.93 1583.03L1028.26 1589.27L1023.45 1602.67L1071.45 1587L1045.69 1567.39Z" fill="#231F20"/>
<path d="M1303.44 1669.47L1307.88 1702.85L1320.39 1693.28C1320.39 1693.28 1333.53 1705.59 1333.6 1704.23C1333.68 1702.87 1329.37 1670.86 1329.37 1670.86L1303.44 1669.47Z" fill="#231F20"/>
<path d="M1402.78 1677.06C1403.47 1677.77 1425.21 1702.98 1425.21 1702.98L1431.88 1693.15L1451.29 1694.19L1426.02 1669.2L1402.78 1677.06Z" fill="#231F20"/>
<path opacity="0.27" d="M1133.8 1019.42C1127.06 1022.53 1120.39 1026.17 1115.33 1031.6C1114.55 1032.43 1113.79 1033.38 1113.66 1034.51C1113.31 1037.78 1118.03 1038.94 1121.22 1038.08C1126.18 1036.75 1130.5 1033.75 1135.09 1031.43C1154.62 1021.54 1178.04 1024.29 1199.37 1029.21C1202.85 1030.01 1206.4 1030.88 1209.95 1030.55C1213.51 1030.22 1217.15 1028.47 1218.74 1025.27C1220.8 1021.15 1218.76 1015.93 1215.27 1012.92C1193.8 994.375 1155.62 1009.35 1133.8 1019.42Z" fill="white"/>
<path opacity="0.27" d="M1086.4 1046.77C1082.59 1048.16 1079.38 1051.1 1077.67 1054.77C1077.36 1055.41 1077.1 1056.11 1077.15 1056.82C1077.25 1058.23 1078.55 1059.29 1079.9 1059.71C1083.44 1060.82 1087.13 1058.77 1090.28 1056.8C1093.43 1054.84 1096.57 1052.87 1099.72 1050.91C1103.05 1048.82 1106.69 1046.3 1107.37 1042.43C1101.66 1039 1093.79 1039.6 1088.67 1043.86C1087.14 1045.13 1085.64 1046.78 1083.65 1046.89L1086.4 1046.77Z" fill="white"/>
<path d="M1405.42 1012.77C1405.42 1012.77 1401.67 1017.82 1383.81 1013.21C1366.8 1008.81 1362.68 1004.78 1362.68 1004.78C1362.68 1004.78 1378.28 1016.01 1383.54 1018.18C1388.81 1020.36 1396.17 1023.13 1396.17 1023.13L1405.42 1012.77Z" fill="#231F20"/>
<path d="M1138.42 1285.06C1137.34 1307.83 1136.66 1330.61 1136.39 1353.41C1136.35 1357.36 1142.49 1357.36 1142.53 1353.41C1142.8 1330.62 1143.47 1307.83 1144.56 1285.06C1144.75 1281.12 1138.61 1281.13 1138.42 1285.06Z" fill="#9B9EAA"/>
<path d="M1157.39 1324.8C1158.17 1342.62 1157.15 1360.48 1154.22 1378.08C1153.58 1381.95 1159.49 1383.6 1160.14 1379.71C1163.16 1361.56 1164.34 1343.18 1163.53 1324.8C1163.36 1320.86 1157.22 1320.84 1157.39 1324.8Z" fill="#9B9EAA"/>
<path d="M1237.19 1377.68C1239.57 1395.3 1237.57 1413.28 1231.68 1430.03C1230.37 1433.76 1236.3 1435.37 1237.6 1431.66C1243.88 1413.8 1245.65 1394.79 1243.11 1376.05C1242.59 1372.16 1236.67 1373.81 1237.19 1377.68Z" fill="#9B9EAA"/>
<path d="M1253.72 1398.47C1254.54 1408.77 1254.49 1419.12 1253.59 1429.43C1253.44 1431.08 1255.1 1432.5 1256.66 1432.5C1258.44 1432.5 1259.58 1431.09 1259.73 1429.43C1260.64 1419.13 1260.68 1408.77 1259.86 1398.47C1259.73 1396.81 1258.54 1395.39 1256.79 1395.39C1255.23 1395.4 1253.59 1396.8 1253.72 1398.47Z" fill="#9B9EAA"/>
<path d="M1338.35 1330.04C1341.06 1346.2 1345.79 1361.89 1352.32 1376.92C1353.89 1380.53 1359.18 1377.41 1357.63 1373.82C1351.32 1359.3 1346.89 1344.01 1344.27 1328.4C1343.62 1324.52 1337.7 1326.17 1338.35 1330.04Z" fill="#9B9EAA"/>
<path d="M1362.33 1337.74C1366.76 1348.81 1371.19 1359.88 1375.62 1370.95C1376.24 1372.49 1377.67 1373.56 1379.4 1373.09C1380.86 1372.69 1382.16 1370.87 1381.54 1369.32C1377.11 1358.25 1372.68 1347.18 1368.25 1336.11C1367.64 1334.57 1366.2 1333.49 1364.48 1333.97C1363.01 1334.37 1361.71 1336.19 1362.33 1337.74Z" fill="#9B9EAA"/>
<path d="M1390.2 1483.25C1392.26 1499.13 1393.09 1515.14 1392.68 1531.16C1392.58 1535.11 1398.72 1535.11 1398.82 1531.16C1399.23 1515.14 1398.4 1499.13 1396.33 1483.25C1396.12 1481.59 1395.08 1480.2 1393.26 1480.18C1391.77 1480.16 1389.98 1481.6 1390.2 1483.25Z" fill="#9B9EAA"/>
<path d="M1409.63 1510.1C1408.44 1520.39 1408.22 1530.76 1408.98 1541.09C1409.1 1542.74 1410.3 1544.16 1412.05 1544.16C1413.62 1544.16 1415.24 1542.75 1415.12 1541.09C1414.36 1530.76 1414.58 1520.39 1415.77 1510.1C1415.96 1508.45 1414.22 1507.03 1412.7 1507.03C1410.88 1507.03 1409.82 1508.45 1409.63 1510.1Z" fill="#9B9EAA"/>
<path d="M1418.4 1289.31C1426.12 1297.7 1430.76 1308.7 1431.33 1320.08C1431.53 1324.01 1437.67 1324.03 1437.47 1320.08C1436.81 1307.03 1431.59 1294.59 1422.74 1284.97C1420.06 1282.06 1415.73 1286.41 1418.4 1289.31Z" fill="#9B9EAA"/>
<path d="M1454.84 1336.85C1455.29 1345.18 1454.94 1353.54 1453.67 1361.78C1453.42 1363.42 1454.09 1365.08 1455.82 1365.55C1457.27 1365.95 1459.34 1365.06 1459.59 1363.41C1460.95 1354.62 1461.46 1345.74 1460.98 1336.85C1460.89 1335.2 1459.64 1333.79 1457.91 1333.79C1456.32 1333.79 1454.75 1335.19 1454.84 1336.85Z" fill="#9B9EAA"/>
<path d="M1448.7 1408.85C1447.89 1418.21 1445.55 1427.39 1441.96 1436.07C1441.32 1437.6 1442.64 1439.44 1444.1 1439.84C1445.87 1440.33 1447.24 1439.23 1447.88 1437.7C1451.69 1428.49 1453.98 1418.77 1454.85 1408.85C1454.99 1407.2 1453.33 1405.78 1451.78 1405.78C1449.99 1405.78 1448.85 1407.19 1448.7 1408.85Z" fill="#9B9EAA"/>
<path d="M1128.93 1120.52C1128.61 1136.4 1129.81 1152.25 1132.43 1167.92C1133.08 1171.8 1138.99 1170.16 1138.35 1166.28C1135.82 1151.17 1134.76 1135.84 1135.07 1120.52C1135.15 1116.57 1129.01 1116.57 1128.93 1120.52Z" fill="#9B9EAA"/>
<path d="M1150.97 1143.66C1150.77 1161.7 1153.93 1179.69 1160.35 1196.56C1161.74 1200.22 1167.68 1198.64 1166.27 1194.93C1160.03 1178.53 1156.91 1161.2 1157.11 1143.65C1157.15 1139.71 1151.01 1139.7 1150.97 1143.66Z" fill="#9B9EAA"/>
<path d="M1101.61 1458.48C1111.36 1451.03 1119.83 1442.17 1126.79 1432.05C1127.73 1430.69 1127.04 1428.65 1125.68 1427.86C1124.16 1426.97 1122.42 1427.59 1121.49 1428.96C1115.17 1438.15 1107.38 1446.41 1098.51 1453.19C1097.19 1454.19 1096.5 1455.83 1097.41 1457.38C1098.17 1458.67 1100.28 1459.5 1101.61 1458.48Z" fill="#9B9EAA"/>
<path d="M1125.32 1461.87C1134.17 1453.75 1141.85 1444.38 1148.09 1434.14C1150.16 1430.75 1144.85 1427.67 1142.79 1431.04C1136.8 1440.86 1129.46 1449.75 1120.98 1457.53C1118.06 1460.2 1122.41 1464.53 1125.32 1461.87Z" fill="#9B9EAA"/>
</svg>
