<?xml version="1.0" encoding="utf-8"?>
<!-- Generator: Adobe Illustrator 24.1.3, SVG Export Plug-In . SVG Version: 6.00 Build 0)  -->
<svg version="1.1" id="Layer_1" xmlns="http://www.w3.org/2000/svg" xmlns:xlink="http://www.w3.org/1999/xlink" x="0px" y="0px"
	 viewBox="0 0 1440 900" style="enable-background:new 0 0 1440 900;" xml:space="preserve">
<style type="text/css">
	.st0{fill:#BCB8CF;}
	.st1{fill:#2A2F3B;}
	.st2{fill:#DFDDEB;}
	.st3{fill:#1E222E;}
	.st4{fill:#FFB5B5;}
	.st5{fill:#363A44;}
	.st6{fill:#FFFFFF;}
	.st7{fill:#D0CCE6;}
</style>
<g>
	<g>
		<path class="st0" d="M826.89,354.76c0.56-1.34,9.94-17.56,29.33-17.76c19.38-0.19,2.95,16.66-1.35,18.6
			c-4.31,1.94-14.04,2.04-20.13,10.18C828.64,373.92,826.89,354.76,826.89,354.76z"/>
		<path class="st1" d="M855.12,287.71c0,0,9.89,32.64-14.27,62.34l-27.75-2.34c0,0,26.25-21.07,30.46-31.08
			C847.77,306.61,855.12,287.71,855.12,287.71z"/>
		<path class="st2" d="M899.14,445.62c-0.5,3.24-1.23,6.04-2.09,7.09c-2.28,2.75-1.78,7.72-6.33,10.49
			c-3.74,2.28-9.26,6.67-18.39,7.46c-1.31,0.1-2.69,0.13-4.19,0.08c-0.55-0.03-1.12-0.05-1.73-0.13c-0.16,0-0.31,0-0.47-0.03
			c-2.75-0.26-5.13-1.02-7.22-2.07c-1.78-0.89-3.35-1.96-4.84-3.09c-5.02-3.82-8.82-8.14-14.62-7.32
			c-4.37,0.6-14.57,3.17-27.57,3.19h-1.18c-0.55-0.03-1.1-0.03-1.67-0.05c-0.47,0-0.94-0.03-1.41-0.05c-0.34,0-0.65-0.03-0.99-0.03
			c-0.58-0.03-1.18-0.08-1.78-0.13c-1.78-0.1-3.56-0.29-5.39-0.55c-0.52-0.05-1.02-0.13-1.54-0.21c-0.16-0.03-0.31-0.05-0.5-0.08
			c-0.94-0.16-1.91-0.31-2.9-0.5c-0.05,0-0.1-0.03-0.16-0.03c-0.6-0.13-1.15-0.24-1.73-0.37c-0.39-0.08-0.78-0.18-1.15-0.26
			c-0.42-0.08-0.81-0.18-1.23-0.29c-0.13-0.03-0.26-0.08-0.39-0.1c-0.34-0.08-0.68-0.16-1.02-0.26c-0.5-0.13-0.99-0.26-1.46-0.42
			c-0.6-0.16-1.2-0.34-1.78-0.52c-1.1-0.34-2.17-0.71-3.27-1.1c-0.42-0.16-0.86-0.31-1.31-0.5c-0.44-0.16-0.86-0.34-1.33-0.52
			c-0.18-0.05-0.39-0.13-0.6-0.24c-0.31-0.13-0.68-0.29-1.02-0.44c-0.5-0.18-0.97-0.39-1.44-0.63c-0.58-0.24-1.15-0.52-1.73-0.78
			c-0.52-0.24-1.02-0.5-1.54-0.76c-0.5-0.26-1.02-0.52-1.52-0.81c-0.52-0.26-1.05-0.55-1.54-0.84c-0.52-0.29-1.05-0.6-1.54-0.89
			c-0.5-0.29-0.97-0.58-1.46-0.89c-0.55-0.34-1.1-0.68-1.65-1.05c-0.5-0.31-0.97-0.65-1.46-0.99c-1.18-0.81-2.33-1.65-3.51-2.54
			c-0.24-0.18-0.47-0.37-0.71-0.58c-0.47-0.34-0.89-0.68-1.36-1.05c-12.22-9.97-15.41-23.73-14.57-37.2
			c0.03-0.26,0.03-0.5,0.05-0.76c0-0.16,0.03-0.34,0.03-0.5c0.05-0.5,0.1-0.99,0.16-1.49c0.03-0.5,0.1-1.02,0.16-1.54
			c0.1-0.76,0.21-1.54,0.34-2.33c0.34-2.28,0.78-4.53,1.31-6.72c0-0.05,0.03-0.1,0.03-0.13c4.24-17.92,13.18-32.54,13.18-32.54
			l39.89-8.82l20.17-4.45l0.99-0.21l9-4.87c0,0,0.03,0.03,0.05,0.03c0.31,0.13,2.12,0.81,4.79,2.25c0,0,0,0,0.03,0
			c4.32,2.41,10.88,6.83,16.71,14.15c0,0.05,0.03,0.08,0.05,0.08c2.04,2.59,4,5.55,5.73,8.89c0.18,0.31,0.31,0.63,0.5,0.94
			c0,0,1.18,2.28,3.32,13.37c2.15,11.06,29.22,42.35,29.22,42.35s8,3.87,10.07,7.38c0.26,0.44,0.42,0.86,0.47,1.26
			C900.35,434.32,899.98,440.52,899.14,445.62z"/>
		<path class="st3" d="M899.14,445.62c-0.5,3.24-1.23,6.04-2.09,7.09c-2.28,2.75-1.78,7.72-6.33,10.49
			c-3.74,2.28-9.26,6.67-18.39,7.46c-1.31,0.1-2.69,0.13-4.19,0.08c-0.55-0.03-1.12-0.05-1.73-0.13l-3.45-11.2l22.02-9.97
			L899.14,445.62z"/>
		<path class="st2" d="M780.98,415.81c-2.72,11.42-6.49,20.36-11.16,23.5c-4.68,3.13-19.87,19.43-19.13,37.39
			c0.74,17.96-0.23,33.7-2.75,40.4c-2.52,6.69-1.43,23.36-1.44,32.05c-0.01,8.69,3.18,13.56,2.79,19.86
			c-0.37,6,1.07,9.73,3.09,16.57c2.15,2.64,4.69,5.21,5.81,9.54c0.46,0.79,4.13,7.74-15.5,11.57c-1.46,0.28-2.97,0.31-4.43,0.07
			c-1.39-0.23-2.86-0.54-3.71-0.76c-3.82-0.97-6.69-2.76-8.58-4.28c-1.29-0.81-2.27-1.69-2.72-2.63c-2.2-4.63,0.06-8.64-0.25-12.61
			c-0.06-0.75,0.01-1.99,0.16-3.53c-1.27-3.87-3.49-5.5-4.76-8.46c-2.3-5.41,1-32.72,2.48-52.38c0.87-11.68-0.83-17.66-2.36-20.6
			c-1.25-2.4-2.11-4.98-2.38-7.66c-0.39-3.71-1.18-9.3-2.78-16.26c-0.83-3.64-1.88-7.65-3.23-11.98c-6.15-19.87-7.9-39.11-7.9-39.11
			C693.61,410.82,783.71,404.38,780.98,415.81z"/>
		<path class="st0" d="M732.64,581.81c2.58,7.35,2.59,17.68,1.91,24.18c-3.82-0.97-6.69-2.76-8.58-4.28
			c-1.29-0.81-2.27-1.69-2.72-2.63c-2.2-4.63,0.06-8.64-0.25-12.61c-0.06-0.75,0.01-1.99,0.16-3.53c-1.27-3.87-3.49-5.5-4.76-8.46
			c-2.3-5.41,1-32.72,2.48-52.38c0.87-11.68-0.83-17.66-2.36-20.6c-1.25-2.4-2.11-4.98-2.38-7.66c-0.39-3.71-1.18-9.3-2.78-16.26
			c7.98-6.97,21.28-13.96,22.59-1.07c1.88,18.59-5.65,69.61-7.94,81.24C725.73,569.39,728.78,570.82,732.64,581.81z"/>
		<path class="st1" d="M483.95,196.19c0,0-24.03-15.44-40.06-5.13c-16.02,10.31-18.56,39.7-17.34,53.72s13.53,67.46,13.53,67.46
			l31.65-40.28c0,0-27.19-32.85-27.4-43.46c-0.21-10.61,2.66-23.15,18.74-15.05c16.08,8.1,23.6-18.58,23.6-18.58L483.95,196.19z"/>
		<path class="st1" d="M420.42,337.75c0,0,3.03,47.78-22.73,71.92c0,0-24.67-0.03-25.86,19.42c-1.18,19.45,4.17,24.59,4.17,24.59
			l0.41-5.78c0,0,5.44,9.34,5.55,15.11c0,0,2.49-6.87,1.31-13.15c0,0,3.66-0.6,1.18,6.28c0,0,4.69-1.67,5.5-13.76
			c0,0,3.58-4.8,1.83,12.56c0,0,11.68-19.76,8.8-32.51c0,0,28.17-38.04,27.88-75.83c-0.07-9,9.49-23.81,9.49-23.81l-10.78-13.96
			L420.42,337.75z"/>
		<path class="st3" d="M483.95,196.19c0,0-24.03-15.44-40.06-5.13c-16.02,10.31-18.56,39.7-17.34,53.72s13.53,67.46,13.53,67.46
			l31.65-40.28c0,0-27.19-32.85-27.4-43.46c-0.21-10.61,2.66-23.15,18.74-15.05c16.08,8.1,23.6-18.58,23.6-18.58L483.95,196.19z"/>
		<path class="st3" d="M437.94,322.77c0,0-9.57,14.81-9.49,23.81c0.29,37.79-27.88,75.83-27.88,75.83s-8.78-8.86-14.37,6.8
			c-4.94,13.81-4.46,29.57-4.28,33.07c-0.5-5.8-5.51-14.4-5.51-14.4l-0.41,5.79c0,0-5.35-5.14-4.17-24.59
			c1.19-19.44,25.86-19.42,25.86-19.42c25.76-24.14,22.73-71.91,22.73-71.91l6.75-28.94L437.94,322.77z"/>
		<path class="st0" d="M535.99,476.88c-0.69,2.23-2.43,4.19-5.74,5.95c-10.56,5.62-19.19,2.53-24.15-1.56
			c-1.28-1.06-2.27-2.44-2.85-4c-0.1-0.27-0.21-0.64-0.29-1.05c-0.52-2.35-0.59-4.78-0.26-7.17c0.12-0.87,0.24-1.91,0.36-3.06
			c0.42-3.97,0.73-9.25,0.13-13.36c-1.23-8.39-1.54-21.23-0.1-27.09c1.45-5.86,6.41-20.7-0.21-37.24c-1.21-3.02-1.77-5.76-1.91-8.34
			c3.94,9.49,10.93,25.09,21.49,41.87c0.59,7.3,1.58,14.92,2.4,22.13c0.93,8.17,3.69,14.71,6.21,19.21
			c1.23,2.21,2.41,3.91,3.29,5.09C536.22,470.72,536.9,473.94,535.99,476.88z"/>
		<path class="st4" d="M470.2,376.87c-0.22,0.97,3.85,35.82,32.64,41.75c28.79,5.93,48.5-8.25,46.8-9.16
			c-1.7-0.91-14.85-43.53-14.85-43.53l-28.77-5.05l-24.32,0.49L470.2,376.87z"/>
		<path class="st4" d="M487.14,404.72c0,0-5.05,24.68,0.49,24.32s10.19-20.44,9.46-20.91C496.36,407.67,487.14,404.72,487.14,404.72
			z"/>
		<path class="st4" d="M509.16,411.81c0,0-0.81,25.17,4.58,23.89c5.4-1.28,6.6-21.87,5.8-22.21
			C518.74,413.16,509.16,411.81,509.16,411.81z"/>
		<path class="st2" d="M840.85,350.04l-6.6,7.61l-11.95,13.8l-50.06,74.09c-1.77,1-3.5,2.15-5.22,3.45
			c-3.3,2.51-6.48,5.54-9.53,8.88c-15.25,16.73-27.21,41.37-34.55,48.41c-0.64,0.61-1.29,1.15-1.98,1.62
			c-9.44,6.6-22.42,0.12-34.22-3.72c-1.62-0.53-3.71-1.03-6.15-1.51c-14.38-2.85-40.48-4.94-47.4-5.45
			c-1.11-0.08-1.72-0.13-1.72-0.13c-52.96-3.92-88-41.91-109-75.27c-10.56-16.78-17.55-32.38-21.49-41.87
			c-2.24-5.44-3.5-8.87-3.82-9.37c-0.01-0.02-0.03-0.03-0.04-0.05c-1.57-1.51-19.67,3.99-23.78,16.12c-0.1,0.3-0.21,0.61-0.34,0.94
			c-5.44,8.95-10.16,20.18-13.11,29.06c-0.01,0.01-0.01,0.02-0.02,0.03c-4.77,10.23-19.4,20.39-20.72,26.06
			c-1.21,5.18-1.41,11.5-1.1,18.33c0.4,9.14,1.75,19.19,2.81,28.57c0.99,8.64,4.01,15.47,6.65,19.97c1.08,1.83,2.08,3.28,2.86,4.33
			c1.85,2.46,2.54,5.68,1.62,8.62c-0.69,2.23-2.29,4.49-5.74,5.95c-6.56,2.78-11.07,3.6-14.5,3.26c-4.3-0.39-6.89-2.55-9.65-4.83
			c-1.28-1.06-2.27-2.43-2.86-4c-0.1-0.27-0.2-0.64-0.29-1.05c-0.52-2.35-0.58-4.78-0.26-7.17c0.21-1.54,0.46-3.62,0.62-5.9
			c0.26-3.45,0.34-7.34-0.12-10.53c-1.23-8.39-1.54-21.23-0.1-27.09c1.45-5.86,6.41-20.7-0.21-37.24
			c-6.62-16.53,6.15-24.97,2.86-40.75c-3.31-15.78-1.76-57.58,0.34-80.24c2.1-22.66,5.32-42.66,12.95-59.23
			c4.06-8.82,5.3-21.51,7.55-32.52c1.98-9.68,23.89-21.39,30.08-24.73c5.14-2.77,12.43-3.89,20.02-4.19
			c11.9-0.47,24.5,1.14,30.53,1.74c15.66,1.56,29.28,4.41,31.83,5.7c4.77,2.39,18.67,14.05,25.78,21.11c3,2.99,9.3,9.53,15.62,16.07
			c8.61,8.9,17.31,17.82,17.87,17.81c0,0,34.61,25.32,49.88,32.45c1.92,0.89,3.99,1.82,6.14,2.78c0,0,0,0,0.01,0
			c10.83,4.75,24.04,10.11,34.05,15.86c3.84,2.2,7.21,4.46,9.8,6.76c10.71,9.53,48.47,25.45,67.75,27.88
			c4.54,0.57,9.21,0.83,13.76,0.92c8.54,0.16,16.72-0.32,23.06-0.49c4.64-0.14,8.29-0.11,10.38,0.43c0.02,0,0.03,0.01,0.05,0.02
			c1.7,0.45,3.32,1.27,4.78,2.24c0.01,0,0.02,0.01,0.03,0.02C838.03,346.26,840.85,350.04,840.85,350.04z"/>
		<path class="st1" d="M870.18,442.15c-2.42,8.7-7.86,17.85-11.44,26.35c-7.81-3.88-11.94-11.47-19.48-10.41
			c-9.56,1.34-47.34,12.06-80.84-15.25c-16.33-13.32-16.57-33.43-12.54-50.54c3.05-12.95,10.96-23.93,21.7-31.01
			c5.2-3.45,11.07-5.97,17.36-7.36c1.64-0.36,3.29-0.56,4.93-0.59c8.45-0.17,16.57,3.95,21.3,11.22c0.68,1.05,1.36,2.12,2.03,3.17
			c1.95,3.08,3.14,5.7,4.03,8.14c3.82,10.45,10.55,19.58,19.65,25.98c8.04,5.64,16.66,12.2,21.59,17.11
			C864.29,424.75,872.59,433.47,870.18,442.15z"/>
		<path class="st1" d="M899.61,430.74c-4.88-1.02-11.13-2.47-14.97-3.94c-7.01-2.69-34.05-42.21-36.85-51.62
			c-1.63-5.47-6.6-11.49-13.53-17.52c-4.37-3.81-9.52-7.62-15.09-11.29c-0.01-0.01-0.02-0.01-0.02-0.02
			c-1.36-0.89-1.83-2.65-1.09-4.1l0.7-1.37c4.64-0.14,8.29-0.11,10.38,0.43c0.02,0,0.03,0.01,0.05,0.02
			c1.7,0.45,3.32,1.27,4.78,2.24c0.01,0,0.02,0.01,0.03,0.02c4.34,2.38,10.89,6.81,16.71,14.15c0.02,0.03,0.04,0.06,0.06,0.08
			c2.15,2.8,4.11,5.77,5.74,8.88c0.17,0.31,0.32,0.63,0.48,0.94c0,0,1.2,2.28,3.34,13.35c2.14,11.07,29.22,42.35,29.22,42.35
			S897.56,427.23,899.61,430.74z"/>
		<path class="st0" d="M492.67,192.3c-37.32,5.99-41.93,50.6-41.79,57.53c0.03,1.47-0.15,4.31-0.48,8.19
			c-1.2,14.46-4.34,43.31-5.57,68.94c-1.27,26.57,2.8,47.53,2.44,62.48c-0.07,3.34-0.37,6.37-1,9.11
			c-3.45,15.01-17.12,32.29-17.6,40.89c-0.48,8.59-3.07,44.51-0.41,62.14c0.69,4.56,1.29,9.24,1.8,13.67
			c0.74,6.38,1.31,12.25,1.69,16.51c-4.3-0.39-6.89-2.55-9.65-4.83c-1.28-1.06-2.27-2.43-2.86-4c-0.1-0.27-0.2-0.64-0.29-1.05
			c-0.52-2.35-0.58-4.78-0.26-7.17c0.16-1.16,0.33-2.62,0.48-4.23c0.04-0.4,0.08-0.83,0.11-1.25c0.01-0.13,0.02-0.28,0.03-0.41
			c0.26-3.45,0.34-7.34-0.12-10.53c-1.23-8.39-1.54-21.23-0.1-27.09c1.45-5.86,6.41-20.7-0.21-37.24
			c-6.62-16.53,6.15-24.97,2.86-40.75c-3.31-15.78-1.76-57.58,0.34-80.24c2.1-22.66,5.32-42.66,12.95-59.23
			c4.06-8.82,5.3-21.51,7.55-32.52c1.98-9.68,23.89-21.39,30.08-24.73C477.78,193.72,485.08,192.59,492.67,192.3z"/>
		<path class="st0" d="M722.94,506.29l-1.98,1.62c-9.44,6.6-22.42,0.12-34.22-3.72c-1.62-0.53-3.71-1.03-6.15-1.51
			c-2.37,5.25-3.94,11.14-3.69,17.22c0.04,0.92,0.08,1.84,0.09,2.76l-36.86,0.74c-0.9-4.3-2.13-9.22-3.8-14.6
			c-1.21-3.93-2.26-7.83-3.14-11.56c-1.11-0.08-1.72-0.13-1.72-0.13c-52.96-3.92-88-41.91-109-75.27
			c-10.56-16.78-17.55-32.38-21.49-41.87c-2.24-5.44-3.5-8.87-3.82-9.37l-4.88-17.3c0,0,9.09-0.97,17.16,13.45
			c25.76,46.03,66.02,46.67,92.32,40.82c10.56-2.34,18.86-5.72,23.08-7.64c1.97-0.9,3.06-1.47,3.06-1.47
			c25.15,7.75,40.69,72.51,46.08,73.78c8.15,1.92,26.05-13.42,35.47-18.76c4.8-2.72,12.01-10.55,12.23-10.69
			c-0.25,0.6-15.63,34.54-14.17,46.7C709,501.82,722.94,506.29,722.94,506.29z"/>
		<path class="st2" d="M708.62,416.23c-0.38,1.44,1.29,31.35-1.43,42.76c-0.2,0.81-0.39,1.6-0.6,2.39
			c-2.67,10.27-6.23,18.19-10.58,21.11c-3.08,2.08-10.78,9.92-15.43,20.18c-2.37,5.25-3.94,11.14-3.69,17.22
			c0.04,0.92,0.08,1.84,0.09,2.76c0.55,16.79-0.45,31.29-2.84,37.64c-2.52,6.69-1.44,23.35-1.45,32.04
			c-0.01,8.69,3.19,13.57,2.79,19.86c-0.37,6.01,1.08,9.74,3.1,16.58c2.15,2.63,4.69,5.2,5.81,9.53c0.48,0.83-2.2,10.17-15.19,11.48
			c-1.25,0.36-2.59,0.38-3.86,0.1c-2.17-0.11-4.12-0.5-5.85-1.06c-3.2-1.01-5.65-2.57-7.33-3.91c-1.29-0.82-2.27-1.7-2.72-2.64
			c-2.2-4.62,0.06-8.63-0.25-12.6c-0.06-0.76,0.01-1.98,0.16-3.51c0-0.01,0-0.02,0-0.02c-1.27-3.88-3.49-5.51-4.76-8.47
			c-2.3-5.41,1-32.71,2.48-52.38c0.87-11.68-0.84-17.66-2.36-20.59c-1.25-2.4-2.11-4.98-2.38-7.67c-0.34-3.23-0.99-7.89-2.21-13.64
			c-0.9-4.3-2.13-9.22-3.8-14.6c-1.21-3.93-2.26-7.83-3.14-11.56c-1.82-7.58-3-14.47-3.74-19.46c-0.64-4.35-1.71-8.62-3.01-12.82
			c-0.15-0.49-0.29-0.98-0.41-1.48c-3.68-14.78,4.58-32.47,6.02-41.28c-3.36-11.13-5.48-20.37-4.15-23.76
			c3.57-9.03,35.6-33.97,47.98-32.23C688.26,367.94,710.03,410.91,708.62,416.23z"/>
		<path class="st0" d="M651.24,445.33c-0.4,55.55,5.23,85.15,5.6,103.77c0.37,18.63-5.96,57.53-2.44,68.03
			c3.52,10.51,7.45,16.61,5.1,31.69c-3.2-1.01-5.65-2.57-7.33-3.91c-1.29-0.82-2.27-1.7-2.72-2.64c-2.2-4.62,0.06-8.63-0.25-12.6
			c-0.06-0.76,0.01-1.99,0.16-3.53c-1.27-3.88-3.49-5.51-4.76-8.47c-2.3-5.41,1-32.71,2.48-52.38c0.87-11.68-0.84-17.66-2.36-20.59
			c-1.25-2.4-2.11-4.98-2.38-7.67c-0.34-3.23-0.99-7.89-2.21-13.64c-0.9-4.3-2.13-9.22-3.8-14.6c-1.21-3.93-2.26-7.83-3.14-11.56
			c-0.65-2.71-1.22-5.33-1.71-7.81c-0.91-4.51-1.57-8.55-2.05-11.78c-0.63-4.31-1.7-8.53-2.99-12.69c-0.15-0.49-0.29-0.98-0.41-1.47
			c-0.59-2.34-0.97-5.48-1.2-9.14c-1.22-19.4,1.95-53.04,3.07-55.9c1.45-3.67,7.62-9.98,15.24-16.05
			c11.13-8.85,25.39-17.21,32.74-16.17c0,0-17.65,17.17-23.07,56.74C651.86,429.73,651.29,437.18,651.24,445.33z"/>
		<path class="st1" d="M621.56,310.68c-2.16,4.78,0.87,10.13,2.24,15.19c3.15,11.68-2.82,23.68-8.61,34.29
			c-5.15,9.46-10.29,18.91-15.44,28.35c-4.36,8-4.47,6.3-11.75,11.75c-7.28,5.46-18.1,7.32-25.37,1.86
			c-11.33-8.5-12.88-19.04-25.16-26.09c-3.59-13.59-7.18-27.17-10.77-40.76c-1.72-6.48-3.45-13.1-3.03-19.79
			c0.46-7.42,3.52-14.47,4.22-21.87c0.71-7.4-8.1-9.43-8.94-18.66c4.55-15.79,18.95-26.86,32.25-32.03
			c13.8-5.36,30.05-8.29,44.73-6.1c0.17,0.03,0.34,0.05,0.51,0.08c8.61,8.9,17.31,17.82,17.87,17.81c0,0,34.61,25.32,49.88,32.45
			c1.92,0.89,3.99,1.82,6.14,2.78c-14.75,2.37-29.07,7.33-42.08,14.68C625.58,306.14,622.82,307.9,621.56,310.68z"/>
		<path class="st5" d="M451.98,522.55c-0.69,2.23-2.29,4.49-5.74,5.95c-6.56,2.78-11.07,3.6-14.5,3.26
			c-0.37-4.26-0.94-10.13-1.69-16.51c6.63,0.9,16.55-1.82,17.44-5.65c1.08,1.83,2.08,3.28,2.86,4.33
			C452.2,516.39,452.89,519.61,451.98,522.55z"/>
		<path class="st1" d="M431.74,531.76c-4.3-0.39-6.89-2.55-9.65-4.83c-1.28-1.06-2.27-2.43-2.86-4c-0.1-0.27-0.2-0.64-0.29-1.05
			c-0.52-2.35-0.58-4.78-0.26-7.17c0.16-1.16,0.33-2.62,0.48-4.23c0.04-0.41,0.08-0.83,0.11-1.25c0.01-0.13,0.02-0.28,0.03-0.41
			c0,0,4.13,5.53,10.75,6.43C430.8,521.63,431.37,527.5,431.74,531.76z"/>
		<path class="st1" d="M448.54,527.23c0,0-2.97-8.93-4.86-7.31c-1.89,1.62-2.21,10.37-2.21,10.37S447,528.59,448.54,527.23z"/>
		<path class="st1" d="M535.99,476.88c-0.69,2.23-2.43,4.19-5.74,5.95c-10.56,5.62-19.19,2.53-24.15-1.56
			c-1.28-1.06-2.27-2.44-2.85-4c-0.1-0.27-0.21-0.64-0.29-1.05c-0.52-2.35-0.59-4.78-0.26-7.17c0.12-0.87,0.24-1.91,0.36-3.06
			c0.71,0.01,2.61,4.76,13.01,3.07c10.4-1.7,15-5.88,15-5.88c1.23,2.21,2.41,3.91,3.29,5.09
			C536.22,470.72,536.9,473.94,535.99,476.88z"/>
		<path class="st5" d="M681.67,645.31c-1.4,1.75-3.43,3.41-6.35,4.43c-2.51,0.87-5.69,1.25-9.67,0.77c-1.47-0.08-3.3-0.46-4.87-0.86
			c-0.75-0.2-1.44-0.38-2-0.55c-7.32-2.13-8.89-5.89-9.33-6.82c-2.2-4.62,0.06-8.63-0.25-12.6c-0.06-0.76,0.01-1.98,0.16-3.51
			c0.01,0.29,0.28,3.63,10.02,6.13c10.19,2.62,18.85-4.72,18.85-4.72c2.15,2.63,5.05,6.42,6.17,10.74
			C684.63,638.71,684.19,642.15,681.67,645.31z"/>
		<path class="st5" d="M756.79,602.88c-1.4,1.75-4.32,3.57-7.24,4.58c-2.51,0.87-5.69,1.25-9.67,0.77c-1.47-0.08-3.3-0.46-4.87-0.86
			c-0.07-0.02-0.14-0.04-0.19-0.05c-0.68-0.18-1.3-0.35-1.81-0.49c-7.32-2.13-9.55-6.32-9.99-7.25c-2.2-4.62,0.29-9.12-0.02-13.08
			c-0.06-0.76-0.02-2.09,0.13-3.62c0.01,0.29,0.75,4.65,10.48,7.14c0.29,0.07,0.58,0.14,0.87,0.19c9.81,2.01,17.99-4.92,17.99-4.92
			c2.15,2.63,5.05,6.42,6.17,10.74C758.86,596.43,759.31,599.72,756.79,602.88z"/>
		<path class="st1" d="M660.78,649.64c-0.75-0.2-1.44-0.38-2-0.55c-7.32-2.13-8.89-5.89-9.33-6.82c-2.2-4.62,0.06-8.63-0.25-12.6
			c-0.06-0.76,0.01-1.98,0.16-3.51c0.01,0.29,0.28,3.63,10.02,6.13C659.37,632.29,661.53,643.92,660.78,649.64z"/>
		<path class="st1" d="M681.67,645.31c-1.4,1.75-3.43,3.41-6.35,4.43c0.1-1.47,0.86-12.03,2.02-12.69
			C678.59,636.33,681.67,645.31,681.67,645.31z"/>
		<path class="st1" d="M734.47,590.2l0.34,17.11c-0.68-0.18-1.3-0.35-1.81-0.49c-7.32-2.13-9.55-6.32-9.99-7.25
			c-2.2-4.62,0.29-9.12-0.02-13.08c-0.06-0.76-0.11-2.35,0.04-3.88c0.01,0.29,0.63,4.24,9.98,7.12
			C733.3,589.81,734.18,590.15,734.47,590.2z"/>
		<path class="st1" d="M757.76,601.4c0,0-3.01-8.47-4.61-7.43c-1.6,1.04-0.73,12.23-0.73,12.23S756.3,604.31,757.76,601.4z"/>
		<path class="st1" d="M456.18,384.86c-3.28,1.65-6.25,3.18-8.92,4.58c0.36-14.96-3.71-35.91-2.44-62.48
			c1.23-25.63,4.37-54.49,5.57-68.94c2.8,0.84,5.69,3.97,7.16,12.42c3.39,19.54-1.26,58.03,1.5,74.52
			C461.8,361.46,471.26,377.3,456.18,384.86z"/>
		<path class="st3" d="M447.26,389.45c-9.56,5.04-15.22,8.4-17.76,9.44c-3.24,1.33,3.75-27.48-2.67-44.31
			c-6.41-16.83,8.64-84.86,16.34-94.8c0,0,3.54-2.86,7.22-1.76c-1.2,14.46-4.34,43.31-5.57,68.94
			C443.55,353.53,447.63,374.49,447.26,389.45z"/>
		<path class="st1" d="M470.29,238.4c0,0,4.56,29.97,17.77,25.67c13.21-4.3,15.45-12.99,26.82-18.41
			c11.37-5.42,29.83-5.21,39.47-12.9c9.65-7.69,10.62-16.93-0.43-21.32c-11.04-4.39-22.64-12.81-39.89-7.85
			c-17.25,4.96-21.31,7.35-26.88,15.53C481.6,227.3,471.21,226.77,470.29,238.4z"/>
		<path class="st1" d="M476.36,282.18c0.12,16.15,1.79,50.7,6.96,54.63c5.17,3.93,18.42,3.42,21.61-9.78
			c3.19-13.2,2.57-15.76,5.12-32.4c2.55-16.64-3.13-25.75-11.54-21.55C490.09,277.29,476.29,272.96,476.36,282.18z"/>
		<path class="st1" d="M634.95,313.01c0,0-8.74,24.16,2.3,28.38s19.98-17.77,33.72-18.96c13.73-1.19,25.61-0.86,28.55-4.08
			c2.94-3.23-16.6-21.28-28.05-21.05C660.01,297.52,637.1,305.33,634.95,313.01z"/>
		<path class="st1" d="M685.45,386.99c-11.35,8.95-15.41,36.59-25.18,38.09c-2.72,0.41-5.24-0.38-7.46-2.15
			c5.42-39.57,23.07-56.74,23.07-56.74c-7.35-1.04-21.61,7.33-32.74,16.17c-1.31-14.12-5.19-24.37-6.73-25.81
			c-14.7-13.78,41.4-5.46,52.32-7.23c10.91-1.78,15.18-10.82,31.25,9.53C736.1,379.25,696.79,378.05,685.45,386.99z"/>
		<path class="st3" d="M675.88,366.2c0,0-17.65,17.17-23.07,56.74c-5.74-4.58-9.44-15.75-9.24-29.79c0.05-3.77-0.12-7.38-0.43-10.77
			C654.27,373.53,668.53,365.16,675.88,366.2z"/>
		<path class="st1" d="M868.15,470.73c-0.71-0.02-1.44-0.08-2.2-0.15c-2.76-0.27-5.13-1.04-7.22-2.09
			c-1.78-0.89-3.37-1.96-4.84-3.09l2.16-9.95l0.74-2.38c0,0,10.51-2.57,10.18-2.22c-0.33,0.34,0.3,11.44,0.3,11.44
			S864.46,468.79,868.15,470.73z"/>
		<path class="st3" d="M872.34,470.64c-1.31,0.11-2.71,0.15-4.19,0.09c-0.71-0.02-1.44-0.08-2.2-0.15
			c-2.76-0.27-5.13-1.04-7.22-2.09c-1.78-0.89-3.37-1.96-4.84-3.09c-5.03-3.8-8.82-8.14-14.64-7.32
			c-4.35,0.61-14.56,3.17-27.56,3.19c-0.38,0.01-0.78,0.01-1.17-0.01c-0.56-0.01-1.12-0.02-1.68-0.03
			c-0.47-0.01-0.95-0.03-1.42-0.05c-0.33-0.01-0.65-0.03-0.98-0.05c-0.59-0.03-1.18-0.06-1.79-0.11c-1.76-0.13-3.55-0.3-5.39-0.56
			c-0.51-0.07-1.02-0.13-1.53-0.21c-0.16-0.03-0.33-0.05-0.49-0.08c-0.95-0.15-1.93-0.33-2.9-0.51c-0.06-0.01-0.12-0.03-0.17-0.03
			c-0.58-0.11-1.15-0.23-1.73-0.36c-0.38-0.08-0.76-0.17-1.14-0.26c-0.41-0.09-0.81-0.2-1.23-0.29c-0.13-0.03-0.26-0.06-0.4-0.11
			c-0.33-0.08-0.67-0.16-1-0.25c-0.5-0.13-1-0.27-1.49-0.42c-0.59-0.16-1.19-0.34-1.78-0.53c-1.08-0.33-2.17-0.7-3.25-1.1
			c-0.44-0.15-0.87-0.31-1.31-0.48c-0.45-0.16-0.88-0.34-1.33-0.52c-0.2-0.07-0.41-0.15-0.6-0.24c-0.34-0.14-0.69-0.28-1.04-0.44
			c-0.48-0.19-0.96-0.4-1.44-0.62c-0.58-0.26-1.15-0.52-1.73-0.8c-0.51-0.24-1.03-0.5-1.53-0.76c-0.51-0.26-1.03-0.53-1.54-0.81
			c-0.51-0.27-1.03-0.56-1.54-0.84c-0.52-0.29-1.03-0.58-1.54-0.89c-0.49-0.29-0.97-0.58-1.46-0.88c-0.55-0.34-1.11-0.69-1.66-1.05
			c-0.49-0.32-0.97-0.64-1.46-0.98c-1.17-0.8-2.34-1.65-3.5-2.54c-0.24-0.19-0.48-0.37-0.72-0.57c-0.45-0.34-0.89-0.69-1.34-1.06
			c-12.22-9.97-15.43-23.73-14.58-37.19c0.01-0.25,0.03-0.5,0.05-0.76c0.01-0.16,0.02-0.33,0.04-0.49c0.04-0.5,0.09-0.99,0.13-1.49
			c0.05-0.51,0.1-1.02,0.17-1.53c0.1-0.78,0.21-1.56,0.33-2.33c0.35-2.29,0.79-4.53,1.32-6.74c0.01-0.04,0.02-0.09,0.03-0.13
			c3.08-12.9,10.97-23.82,21.68-30.88c-0.45,1.02-6.39,25.49,7.99,30.62c10.69,3.8,28.97,1.8,42.09,8.61
			c13.12,6.8,47.63,34.62,47.63,34.62s2.7-0.99,4.88,7.02C868.42,448.47,863.07,463.99,872.34,470.64z"/>
		<path class="st1" d="M737.34,356.25c0,0,12.9,10.79,24.53,12.76c11.62,1.97,21.47-2.09,25.54,8.31
			c4.07,10.4-7.42,15.04-11.84,14.58C771.15,391.44,742.73,377.08,737.34,356.25z"/>
		<path class="st0" d="M769.62,389.64c0,0-13.31-1.92-18.53,0.37c-5.21,2.29-14.31,8.07-16.43,13.75s-2.23,10.8-1.76,12.37
			c1.83,6.03,16.34,5.6,22.56,0.97c6.22-4.63,20.1-25.18,20.1-25.18L769.62,389.64z"/>
		<path class="st4" d="M771.43,392.03c0,0-19.54-6.37-29.03,8.86c-9.49,15.23,0.83,17.48,7.66,14.89
			C756.89,413.19,768.46,397.82,771.43,392.03z"/>
		<path class="st1" d="M807.22,409.36c0,0,1.56-6.84,16.22,3.08c0,0,3.76,3.33-1.53,8.25C816.62,425.62,806.46,414.19,807.22,409.36
			z"/>
		<path class="st1" d="M897.04,452.71c-6.67-2.64-11.51,1.3-16.52,5.93c-5.01,4.64-13.25,3.67-13.25,3.67s-8-2.68-8.78-13.58
			c-0.79-10.91,6.81-13.6,6.81-13.6c17.48-5.46,24.25-11.78,24.25-11.78s8.01,3.89,10.06,7.39c0.26,0.43,0.42,0.85,0.47,1.26
			C900.53,435.78,899.28,449.99,897.04,452.71z"/>
		<path class="st1" d="M795.69,341.37c-0.75,0.5-1.52,0.96-2.27,1.41c-9.77,5.8-20.01,11.76-31.34,12.55
			c-5.55,0.39-11.1-0.5-16.56-1.6c-14.86-3.01-29.36-7.71-43.16-13.98c-0.98-0.44-2.02-0.95-2.57-1.87
			c-1.39-2.35,1.15-4.96,3.06-6.89c4.26-4.32,6.36-10.66,5.52-16.66c-0.45-3.19-2.43-5.9-4-8.52c3.84,2.2,7.21,4.46,9.8,6.76
			c10.71,9.53,48.47,25.45,67.75,27.88C786.47,341.03,791.14,341.29,795.69,341.37z"/>
		<path class="st1" d="M624.84,399.9c-4.22,1.92-12.53,5.31-23.08,7.64c3.37-3.94,7.19-7.66,10.29-11.43
			c2.91-3.54,6.38-7.38,10.97-7.57C623.62,392.33,624.23,396.12,624.84,399.9z"/>
		<path class="st3" d="M628.95,447.01c-1.98,3.42-5.85,5.67-9.8,5.71c-1.18,0-2.35-0.16-3.5-0.41
			c-11.33-2.43-19.94-12.52-21.88-23.73c-1.41-8.21,2.73-14.88,7.97-21.02c10.56-2.34,18.86-5.72,23.08-7.64
			c1.71,10.64,3.42,21.27,5.13,31.89C630.8,436.92,631.54,442.51,628.95,447.01z"/>
		<path class="st3" d="M640.27,492.74c-2.17,1.35-4.91-0.29-6.93-1.86c-0.63-0.49-1.25-0.97-1.88-1.46
			c-0.91-4.51-1.57-8.55-2.05-11.78c-0.63-4.31-1.7-8.53-2.99-12.69c-0.15-0.49-0.29-0.98-0.41-1.47c-0.59-2.34-0.97-5.48-1.2-9.14
			c2.94-0.37,6.32,0.91,8.17,2.9c2.62,2.81,3.59,6.73,4.46,10.48c1.38,5.95,2.76,11.9,4.14,17.84
			C642.18,488.09,642.5,491.36,640.27,492.74z"/>
	</g>
	<path class="st6" d="M819.48,414.33c0.49-0.09,0.82-0.63,0.78-1.13c-0.07-0.83-1.58-2.35-2.15-1.15
		C817.71,412.89,818.44,414.52,819.48,414.33z"/>
</g>
<g>
	<g>
		<path class="st7" d="M578.74,495.8c0,0,21.85,8.96,18.83,19.54c-2.19,7.64-15.41,7.83-15.63,8.17l-7.82-13.76L578.74,495.8z"/>
		<path class="st7" d="M364.52,596.67c-0.01,0.01-0.01,0.01-0.01,0.01c-0.86,1.77-2.89,3.4-6.14,4.46c-3.89,1.26-8.11,1.29-12,0.05
			c-4.95-1.58-7.17-4.47-6.7-7.22c0-0.05,2.24-3.13,2.8-6.63c0.31-1.92,0.11-3.98-1.25-5.72l-2.62-3.16c0,0,0.65-7.85,1.55-17.43
			c4.97,5.16,11.49,11.23,19.56,17.3c0,0.01,0,0.01,0,0.01c0.34,1.02,0.74,2.02,1.19,3c1,2.12,1.71,4.19,2.23,6.1
			C364.58,592.7,364.52,596.67,364.52,596.67z"/>
		<path class="st2" d="M499.13,690.44c-2.93,0.93-6.06,1.12-9.06,0.54c-0.89-0.17-1.77-0.41-2.63-0.71
			c-4.33-1.53-6.25-4.16-5.78-6.68c0.58-3.1,1.03-6.22,0.93-9.36c-0.01-0.43-0.02-0.86-0.02-1.3c0-5.05-4.22-18.27-6.05-23.78
			c-0.54-1.62-0.69-3.34-0.44-5.04c0.85-5.78,4.83-18.81,4.2-29.12c-0.06-0.97-0.15-1.92-0.3-2.84c-0.41-2.51-0.75-5.28-1.05-8.09
			c7.74-1.37,15.27-3.63,22.45-6.68c-0.01,0.07-0.01,0.13-0.02,0.2c-0.41,4.05-1.05,8.88-1.75,13.58
			c-2.42,16.22-8.16,30.18-5.37,46.33c0.46,2.63,0.88,4.65,1.24,5.55c1.3,3.24,6.97,12.09,8.97,17.92c0.22,0.63,0.48,1.23,0.72,1.86
			C506.29,685.64,504.28,688.79,499.13,690.44z"/>
		<path class="st7" d="M489.94,680.5c-5.44-0.31-7.39-3.49-7.37-3.91h-0.01c-0.01,0.23-0.02,0.46-0.04,0.69
			c0.07-1.01,0.1-2.03,0.06-3.04c-0.01-0.43-0.02-0.86-0.02-1.3c0-5.05-4.22-18.27-6.05-23.78c-0.54-1.62-0.69-3.34-0.44-5.04
			c0.85-5.78,4.83-18.81,4.2-29.12h3.8l4.15,6.07c0,0-5.1,18.56-4.89,23.29C483.53,648.79,489.18,667.81,489.94,680.5z"/>
		<path class="st2" d="M444.94,643.17c-2.41,16.22-8.15,30.17-5.37,46.33c0.46,2.63,0.88,4.65,1.25,5.55
			c0.95,2.39,4.31,7.86,6.8,12.89c0.84,1.7,1.58,3.35,2.1,4.83c0.25,0.68,0.51,1.35,0.78,2.03c1.14,2.84-0.86,6.01-6.03,7.66
			c-2.24,0.72-4.58,1-6.9,0.83c-1.63-0.11-3.24-0.44-4.79-0.99c-4.33-1.53-6.25-4.16-5.79-6.68c0.43-2.33,0.8-4.66,0.9-7.01
			c0.05-0.78,0.06-1.56,0.03-2.35c-0.01-0.43-0.02-0.86-0.02-1.3c0-5.05-4.22-18.27-6.05-23.78c-0.54-1.62-0.69-3.35-0.44-5.04
			c0.93-6.33,5.62-21.34,3.9-31.97c-0.67-4.17-1.18-8.99-1.56-13.67c-0.82-10.33-1.02-19.91-1.02-19.91
			c-6.89-26.68-15.07-60.26-15.07-60.26l48.72,5.39c0,0,1.94,20.5-3.65,35.57c-5.6,15.06-4.73,25.39-6.03,38.31
			C446.3,633.65,445.65,638.47,444.94,643.17z"/>
		<path class="st7" d="M437.8,712.46c-7.37,0.7-9.91-3.37-9.88-3.86h-0.01c0.05-0.78,0.06-1.56,0.03-2.35
			c-0.01-0.43-0.02-0.86-0.02-1.3c0-5.05-4.22-18.27-6.05-23.78c-0.54-1.62-0.69-3.35-0.44-5.04c0.93-6.33,5.62-21.34,3.9-31.97
			c-0.67-4.17-1.18-8.99-1.56-13.67l2.93-1.49l10.54,15.57c0.6,0.33-5.38,19.99-6,30.05C430.63,684.46,437.18,704.62,437.8,712.46z"
			/>
		<path class="st1" d="M546.36,563.68c2.38,3.05-0.63,5.94-4.13,5.61c0.21,2.17-1.69,4.57-4.05,4.03c0.53,2.16-1.06,4.59-3.25,4.97
			c0.06,2.25-2.62,4.08-4.71,3.21c-0.15,2.67-2.85,4.9-5.5,4.55c0.55,1.36-0.77,2.9-2.22,3.02c-0.3,0.41-0.7,0.74-1.19,0.92
			c0.17,1.06-0.33,2.2-1.22,2.79c-0.89,0.6-2.13,0.63-3.04,0.08c-0.23,0.54-0.57,1.02-0.98,1.42c-1.52,1.49-4.05,1.99-5.93,0.93
			c-0.39,0.99-1.28,1.66-2.29,1.94c-0.76,1.42-2.17,2.51-3.73,2.93c0.01,0.06,0.02,0.12,0.04,0.18c0.27,1.52-0.15,3.17-1.21,4.31
			c1.09,1.88,0.59,4.52-1.12,5.86c0.88,1.94,0.25,4.46-1.46,5.74c0.08,1.81-1.92,2.9-3.6,3.55c-1.34,0.51-2.68,1.03-4.02,1.54
			c-0.62,0.24-1.27,0.48-1.92,0.37c-0.65-0.11-1.27-0.71-1.15-1.36c-0.45,0.31-0.93,0.58-1.44,0.79c-1.5,0.64-3.2,0.83-4.8,0.51
			c-0.13-0.65-0.27-1.3-0.4-1.95c-0.6,0.91-1.93,1.24-2.88,0.71c-0.95-0.53-1.36-1.84-0.89-2.82c-1.32-0.33-2.39-1.5-2.62-2.84
			c-0.22-1.35,0.43-2.79,1.57-3.53c-0.64-0.69-1.13-1.52-1.45-2.41c-0.05,0.01-0.1,0.04-0.15,0.05c-1.53,0.37-3.26-0.4-4-1.79
			c-0.13,1.31-1.19,2.48-2.48,2.73c-1.29,0.25-2.71-0.45-3.3-1.62c-0.1,1.45-1.69,2.6-3.09,2.23c-1.27-0.34-2.06-1.83-1.73-3.08
			c-1.05,2.47-4.64,3.52-6.81,1.87c-0.54,0.78-1.3,1.37-2.15,1.77c-0.08,0.04-0.15,0.07-0.23,0.11c0.39,1.85-0.16,3.89-1.49,5.25
			c-0.22,4.32-0.43,8.64-0.65,12.96c-0.1,1.96-0.37,4.23-2.04,5.26c0.69,1.55,0.27,3.54-1.02,4.65c0.46,2.04-1.77,4.15-3.78,3.59
			c-0.98,2.17-3.88,3.16-6.02,2.21c-0.2-0.09-0.41-0.2-0.6-0.33c-0.58,1.24-1.87,2.12-3.24,2.2c-1.37,0.08-2.76-0.62-3.49-1.78
			c-0.06,0.32-0.11,0.64-0.17,0.95c-2.6-0.06-4.95-2.32-5.11-4.91c-1.76-1.28-2.3-3.96-1.17-5.81c-1.23-1.99-1.51-4.54-0.72-6.75
			c-2.12-1.56-2.97-4.62-1.97-7.04c-2.16-1.36-2.27-4.36-0.88-6.28c-0.46-0.28-0.88-0.62-1.28-1.01c-1.01-0.36-1.87-1.14-2.27-2.14
			c-0.73,1.19-2.22,1.84-3.59,1.58c-1.36-0.27-2.5-1.44-2.73-2.81c-0.98,1.14-2.75,1.51-4.1,0.83c-1.34-0.67-2.11-2.31-1.78-3.77
			c-0.91,0.71-2.26,0.8-3.27,0.22c-1-0.57-1.61-1.77-1.47-2.92c-0.81,0.47-1.8,0.6-2.71,0.4c-0.43-0.1-0.84-0.27-1.21-0.51
			c-1.16-0.74-1.84-2.17-1.71-3.54c-1.21,1.07-2.99,1.44-4.52,0.95c-1.54-0.48-2.77-1.82-3.15-3.39c-1.16,0.98-2.94,1.15-4.27,0.42
			c-1.34-0.72-2.15-2.31-1.97-3.82c-1.16,0.58-2.64,0.44-3.67-0.35c-1.02-0.8-1.54-2.2-1.26-3.47c-2.54,1.01-5.71-1.52-5.3-4.22
			c-1.66,0.27-3.33,0.53-4.99,0.79c-0.98-1.34-1.06-3.17-0.54-4.76c-2.17,0.05-4.57-0.62-6-1.28c-2.52-1.19-4.81-3.79-4.12-6.49
			c-1.26,1.05-3.27,1.05-4.53,0c-1.26-1.05-1.63-3.02-0.85-4.45c-1.18,0.94-3.03,0.9-4.17-0.08c-1.14-0.99-1.44-2.82-0.67-4.12
			c-1.21,0.29-2.57-0.18-3.32-1.18c-0.74-0.99-0.83-2.43-0.22-3.51c-1.26,0.41-2.72,0.08-3.68-0.83c-0.95-0.91-1.35-2.37-0.99-3.64
			c-1.73,0.78-4.04-0.57-4.21-2.46c-1.4-1.37-1.9-3.58-1.23-5.43c-0.41-0.06-0.83-0.11-1.24-0.17c-0.34,0.58-0.67,1.19-1.02,1.79
			c-1.37,2.45-2.83,4.86-5.26,5.1c1.12,2.7-1.19,6.19-4.11,6.21c1.11,2.43-0.36,5.68-2.92,6.46c0.88,2.1-1.4,4.73-3.61,4.16
			c0.37,2.47-2.05,4.95-4.53,4.63c0.26,1.94-1.48,3.89-3.43,3.85c0.32,1.61-0.42,3.33-1.65,4.45c-0.01,0.05-0.03,0.1-0.04,0.15
			c-1.42,4.85-2.13,10.74-1.99,18.16c0.07,3.45,0.95,5.83,2.41,8.96c3.72,7.96,3.61,16.33,3.61,16.33c0,0.01-0.01,0.01-0.01,0.01
			c-0.86,1.77-2.9,3.4-6.14,4.46c-3.89,1.26-8.1,1.29-12,0.05c-4.94-1.58-7.17-4.46-6.69-7.23c-0.04-0.01,5.39-7.41,1.55-12.35
			l-2.62-3.16c0,0,0.09-0.36,0.25-1.02c-0.63-3.5,0.05-7.98,1.23-13.01c1.15-4.92,2.77-10.36,4.08-15.92
			c-0.09-0.74,0.04-1.51,0.41-2.17c-2.75-1.47-3.91-5.3-2.45-8.05c0.39-0.07,0.79-0.14,1.19-0.2c-1.3-1.05-1.98-2.8-1.75-4.44
			c0.24-1.65,1.39-3.14,2.93-3.77c-1.9-1.43-2.13-4.59-0.46-6.29c-1.61-2.07-0.86-5.53,1.47-6.73c-0.13-2.53-0.25-5.06-0.37-7.59
			c-1.66-1.98-2.38-4.72-1.91-7.27c0.31-0.12,0.62-0.23,0.93-0.35c-0.81-3.32-0.06-6.99,1.96-9.74c-0.06-2.03-0.11-4.07-0.17-6.1
			c-1.02-2.27-1.05-4.96-0.06-7.25c-0.2-2.51-0.06-5.15,1.15-7.36c0.59-1.08,1.5-2.03,2.56-2.66c-0.07-0.2-0.14-0.4-0.2-0.62
			c-0.41-1.52,0.42-3.05,0.13-4.36c-0.2-0.93-1.25-1.79-1.46-2.9c-0.41-2.15,0.36-4.62,2.2-5.9c-0.91-2.17,0.15-4.98,2.27-6
			c-0.84-2.36,0.92-5.26,3.4-5.61c-2.18-2.59-0.62-7.28,2.68-8.05c-1.31-2.33,0.39-5.74,3.04-6.09c-0.85-2.17,0.81-4.93,3.12-5.2
			c0.09-2.09,1.59-3.84,3.5-4.72c0.44-2.64,2.72-5.01,5.44-5.18c0.11-3.7,4.12-6.73,7.71-5.83c-0.06-0.2-0.13-0.41-0.18-0.62
			c1.02-3.21,4.55-5.42,7.88-4.92c0.78-3.27,5.27-4.95,8-3c0.95-1.4,2.65-2.14,4.33-2.12c1.1,0.01,2.19,0.36,3.05,1.06
			c1.69-2.78,5.16-4.36,8.38-3.83c0.01-0.04,0.02-0.08,0.03-0.12c0.74-0.22,1.42-0.31,2.06-0.29c1.36-0.52,2.94-0.5,4.22,0.21
			c2.5-1.86,6.18-1.94,8.76-0.19c0.62-1.3,2.18-2.07,3.59-1.78c1.41,0.29,2.87,0.83,2.95,2.26c1.69-1.2,4.47-0.06,4.83,1.99
			c2.19-0.2,4.38,1.26,5.18,3.29c0.25,0.11,0.51,0.22,0.75,0.33c0.54-0.52,1.34-0.79,2.1-0.81c1.05-0.01,2.05,0.38,3.01,0.78
			c1.62,0.67,3.21,1.41,4.8,2.15c1.35,0.62,2.71,1.25,4.05,1.87c0.48,0.22,0.96,0.45,1.43,0.71c0.57-0.36,1.27-0.51,1.89-0.24
			c-0.04,0.5-0.08,1-0.13,1.49c0.19,0.18,0.36,0.37,0.51,0.58c1.05,0.08,2.1,0.15,3.15,0.23c0.15,0.83,0.29,1.66,0.44,2.49
			c3.39-1.87,8.31,1,8.34,4.87c1.16-0.36,2.05,1.66,1,2.27c5.48-0.45,11.06,2.92,13.22,7.98c3.24,0.48,6.26,2.37,8.09,5.09
			c2.45-0.89,5.46,1.13,5.57,3.72c4.2,0.14,8.25,2.56,10.35,6.19c0.98-0.69,2.45-0.58,3.3,0.25c0.86,0.83,1.02,2.3,0.36,3.3
			c3.68,0.38,7.27,1.49,10.53,3.25c2.55-1.11,5.89,1.12,5.85,3.91c1.8-2.09,5.96-0.71,6.14,2.04c2.43-0.88,5.45,0.55,6.32,2.99
			c1.88-2.36,6.11-2.18,7.78,0.34c4.45-0.63,9.02-0.31,13.33,0.93c4.41-0.62,9.02,0.37,12.79,2.74c2.1-1.81,5.79-1.21,7.22,1.18
			c-0.58-0.95,4.14-1.4,4.58-1.28c1.99,0.53,2.65,1.91,3.2,3.59c18.19,2.2,29.43,3.18,29.43,3.18L546.36,563.68z"/>
		<path class="st2" d="M306.92,630.26c0,0.01-0.01,0.01-0.01,0.01c-0.86,1.77-2.9,3.4-6.14,4.46c-3.89,1.26-8.1,1.29-12,0.05
			c-0.59-0.19-1.14-0.39-1.65-0.62c-3.78-1.65-5.46-4.17-5.04-6.61c0-0.05,2.55-3.56,2.88-7.34c0-0.01,0-0.01,0-0.01
			c0.15-1.7-0.14-3.47-1.33-5l-2.62-3.16c0,0,0.09-0.36,0.25-1.02c-0.63-3.5,0.05-7.98,1.23-13.01c0.08-0.34,0.16-0.67,0.25-1.01
			c0.12-0.51,0.25-1.02,0.38-1.53c0.36-1.44,0.75-2.91,1.15-4.41c0.15-0.58,0.32-1.16,0.47-1.75c0.27-1.02,0.54-2.04,0.81-3.07
			c0.18-0.69,0.36-1.37,0.53-2.07c0.18-0.69,0.34-1.38,0.51-2.08c0,0,2.07,2.83,6.28,4.28c1.09,0.37,2.34,0.65,3.72,0.76
			c0.19,0.01,0.38,0.03,0.56,0.04c4.56,0.33,5.54-0.11,5.75-0.37c-1.42,4.85-2.13,10.74-1.99,18.16c0.07,3.45,0.95,5.83,2.41,8.96
			c0.99,2.12,1.71,4.26,2.24,6.28C306.98,625.75,306.92,630.26,306.92,630.26z"/>
		<path class="st5" d="M306.92,630.26c0,0.01-0.01,0.01-0.01,0.01c-0.86,1.77-2.9,3.4-6.14,4.46c-3.48,1.13-7.22,1.27-10.77,0.39
			c-0.41-0.1-0.82-0.22-1.23-0.34c-4.94-1.58-7.17-4.46-6.69-7.23c0-0.05,2.55-3.56,2.88-7.34c0.14,0.2,2.62,3.55,6.92,4
			c0.15,0.02,0.31,0.04,0.47,0.04c4.72,0.25,10.3-0.76,13.19-4.05l0.01-0.01C306.98,625.75,306.92,630.26,306.92,630.26z"/>
		<path class="st1" d="M364.52,596.67c-0.01,0.01-0.01,0.01-0.01,0.01c-0.86,1.77-2.89,3.4-6.14,4.46c-3.89,1.26-8.11,1.29-12,0.05
			c-4.95-1.58-7.17-4.47-6.7-7.22c0-0.05,2.24-3.13,2.8-6.63c1.08,1.18,3.62,3.43,7.33,3.63c4.64,0.25,10.07-0.65,13.33-3.53
			C364.58,592.7,364.52,596.67,364.52,596.67z"/>
		<path class="st5" d="M444.48,722.46c-2.24,0.72-4.58,1-6.9,0.83c-0.15-0.01-0.32-0.02-0.47-0.04c-0.13-0.01-0.25-0.02-0.36-0.04
			c-0.58-0.06-1.16-0.16-1.73-0.29c-0.21-0.04-0.43-0.09-0.64-0.15c-0.53-0.13-1.07-0.29-1.59-0.48c-4.33-1.53-6.25-4.16-5.79-6.68
			c0.43-2.33,0.8-4.66,0.9-7.01h0.01c-0.03,0.48,2.52,4.56,9.88,3.86c0.41-0.04,0.85-0.09,1.3-0.16c8.37-1.34,8.54-4.36,8.54-4.36
			c0.84,1.7,1.58,3.35,2.1,4.83c0.25,0.68,0.51,1.35,0.78,2.03C451.64,717.64,449.64,720.81,444.48,722.46z"/>
		<path class="st5" d="M499.14,690.44c-2.93,0.94-6.06,1.12-9.07,0.55c-0.89-0.17-1.77-0.41-2.63-0.71
			c-1.95-0.69-3.41-1.6-4.38-2.63c-0.13-0.13-0.24-0.26-0.34-0.39c-0.76-0.93-1.13-1.93-1.12-2.93c0-0.24,0.03-0.48,0.07-0.72
			c0.32-1.75,0.61-3.5,0.78-5.26c0.04-0.35,0.06-0.71,0.08-1.06c0.02-0.23,0.04-0.46,0.04-0.69h0.01c-0.02,0.43,1.92,3.61,7.37,3.91
			c1.12,0.07,2.38,0.01,3.82-0.22c8.37-1.34,8.54-4.36,8.54-4.36c0.84,1.7,1.58,3.35,2.1,4.83c0.25,0.68,0.51,1.35,0.78,2.03
			C506.3,685.62,504.3,688.79,499.14,690.44z"/>
		<path class="st3" d="M324.67,529c-0.11,0.8-0.38,1.56-0.64,2.34c-1.39-1.77-2.27-3.93-1.62-6.01
			C324.04,525.35,324.9,527.38,324.67,529z"/>
		<path class="st3" d="M414.63,584.96c-0.79,2.46-0.51,5.24,0.78,7.48c-1.35,2.34-0.6,5.64,1.61,7.17c-1.49,1.4-1.54,4.05-0.11,5.5
			c-1.36,1.84-1.4,5.11,0.01,6.91c-0.73,1.19-2.22,1.84-3.59,1.58c-1.36-0.27-2.5-1.44-2.73-2.81c-0.98,1.14-2.75,1.51-4.1,0.83
			c-1.34-0.67-2.11-2.31-1.78-3.77c-0.91,0.71-2.26,0.8-3.27,0.22c-1-0.57-1.61-1.77-1.47-2.92c-1.19,0.69-2.77,0.65-3.93-0.11
			c-1.16-0.74-1.84-2.17-1.71-3.54c-1.21,1.07-2.99,1.44-4.52,0.95c-1.54-0.48-2.77-1.82-3.15-3.39c-1.16,0.98-2.94,1.15-4.27,0.42
			c-1.34-0.72-2.15-2.31-1.97-3.82c-1.16,0.58-2.64,0.44-3.67-0.35c-1.02-0.8-1.54-2.2-1.26-3.47c-2.54,1.01-5.71-1.52-5.3-4.22
			c-1.66,0.27-3.33,0.53-4.99,0.79c-0.98-1.34-1.06-3.17-0.54-4.76c-2.17,0.05-4.57-0.62-6-1.28c-2.52-1.19-4.81-3.79-4.12-6.49
			c-1.26,1.05-3.27,1.05-4.53,0c-1.26-1.05-1.63-3.02-0.85-4.45c-1.18,0.94-3.03,0.9-4.17-0.08c-1.14-0.99-1.44-2.82-0.67-4.12
			c-1.21,0.29-2.57-0.18-3.32-1.18c-0.74-0.99-0.83-2.43-0.22-3.51c-1.26,0.41-2.72,0.08-3.68-0.83c-0.95-0.91-1.35-2.37-0.99-3.64
			c-1.73,0.78-4.04-0.57-4.21-2.46c-1.4-1.37-1.9-3.58-1.23-5.43c-0.41-0.06-0.83-0.11-1.24-0.17c-0.34,0.58-0.67,1.19-1.02,1.79
			c0.51-1.48,1.36-2.75,2.75-3.54c-4.44-1.38-6.97-7.04-5.03-11.27c-1.61,0.3-2.8-1.64-2.69-3.27c0.06-0.82,0.31-1.6,0.58-2.38
			c0.46,0.58,0.97,1.13,1.49,1.61c2.14,1.96,4.73,3.55,6.17,6.07c1.08,1.91,1.38,4.2,2.53,6.07c1.15,1.87,3.79,3.21,5.53,1.88
			c-1.05,4.5,2.94,9.45,7.57,9.39c-1,6.08,4.33,12.4,10.49,12.46c0.39,2.25,2.46,4.09,4.73,4.24c-0.07,1.6,1.06,3.18,2.6,3.63
			c1.54,0.46,3.35-0.26,4.15-1.65c1.75,2.03,5.1,2.41,7.25,0.81c0.12,3.58,5.18,5.79,7.88,3.44c-0.58,0.5,2.14,1.77,2.41,1.82
			c1.25,0.23,2.19-0.2,3.2-0.85c0.4-0.26,0.5-1.13,0.95-1.23c0.54-0.12,1.58,0.93,2.09,1.13c1.68,0.66,3.69,0.53,5.18-0.53
			c0.86,1.08,2.36,1.6,3.7,1.29c1.34-0.31,2.47-1.43,2.78-2.77c0.75,1.21,2.23,1.93,3.65,1.76c1.41-0.17,2.69-1.21,3.14-2.56
			c2.74,1.36,6.47,0.14,7.88-2.58c0.26,0.89,1.65,0.83,2.29,0.17c0.84-0.87,0.93-2.2,1.83-3.02c0.03,0.27-2.97,8.04-2.03,7.95
			C418.91,580.13,415.43,582.48,414.63,584.96z"/>
		<path class="st3" d="M516.07,594.27c-1.52,1.49-4.05,1.99-5.93,0.93c-0.39,0.99-1.28,1.66-2.29,1.94
			c-0.76,1.42-2.17,2.51-3.73,2.93c0.01,0.06,0.02,0.12,0.04,0.18c-1.8-0.15-7.98,0.36-8.26,1.33c-0.79,2.76-3.37,4.93-6.23,5.24
			c-0.11,2.46-1.71,4.78-3.96,5.78c1.96,2.31,2.82,5.44,2.53,8.45c-1.5,0.64-3.2,0.83-4.8,0.51c-0.13-0.65-0.27-1.3-0.4-1.95
			c-0.6,0.91-1.93,1.24-2.88,0.71c-0.95-0.53-1.36-1.84-0.89-2.82c-1.32-0.33-2.39-1.5-2.62-2.84c-0.22-1.35,0.43-2.79,1.57-3.53
			c-0.64-0.69-1.13-1.52-1.45-2.41c-0.05,0.01-0.1,0.04-0.15,0.05c-1.53,0.37-3.26-0.4-4-1.79c-0.13,1.31-1.19,2.48-2.48,2.73
			c-1.29,0.25-2.71-0.45-3.3-1.62c-0.1,1.45-1.69,2.6-3.09,2.23c-1.27-0.34-2.06-1.83-1.73-3.08c-1.05,2.47-4.64,3.52-6.81,1.87
			c-0.54,0.78-1.3,1.37-2.15,1.77c-2.43-3.35-3.11-7.94-1.72-11.85c0.45-1.14,0.9-2.27,1.35-3.4c-0.08,1.92,1.4,3.79,3.29,4.15
			c1.89,0.35,3.95-0.86,4.57-2.68c0.25,2.17,3.36,3.32,4.96,1.85c0.27,0.88,1.18,1.52,2.1,1.49c0.92-0.04,1.77-0.74,1.98-1.64
			c3.21,1.45,7.28,0.68,9.73-1.84c3.34,1.49,7.61,0.55,10-2.22c0.78,0.93,2.15,1.29,3.29,0.88c1.14-0.41,1.97-1.56,1.99-2.76
			c2.12,0.93,4.77,0.46,6.45-1.12c0.34,1.37,1.6,2.47,3.01,2.62c1.4,0.15,2.87-0.65,3.5-1.91c2.05,0.92,4.55,0.76,6.45-0.42
			C514.52,592.92,515.23,593.68,516.07,594.27z"/>
		<path class="st3" d="M437.83,644.91c-0.2-0.09-0.41-0.2-0.6-0.33c-0.58,1.24-1.87,2.12-3.24,2.2c-1.37,0.08-2.76-0.62-3.49-1.78
			c-0.06,0.32-0.11,0.64-0.17,0.95c-2.6-0.06-4.95-2.32-5.11-4.91c-1.76-1.28-2.3-3.96-1.17-5.81c-1.23-1.99-1.51-4.54-0.72-6.75
			c-2.12-1.56-2.97-4.62-1.97-7.04c-2.16-1.36-2.27-4.36-0.88-6.28c-0.46-0.28-0.88-0.62-1.28-1.01c-1.01-0.36-1.87-1.14-2.27-2.14
			c-0.73,1.19-2.22,1.84-3.59,1.58c-1.36-0.27-2.5-1.44-2.73-2.81c-0.98,1.14-2.75,1.51-4.1,0.83c-1.34-0.67-2.11-2.31-1.78-3.77
			c-0.91,0.71-2.26,0.8-3.27,0.22c-1-0.57-1.61-1.77-1.47-2.92c-0.81,0.47-1.8,0.6-2.71,0.4c0.01-0.28,0.03-0.57,0.04-0.85
			c0.15-3.08,0.33-6.23,1.44-9.1c0.98-2.56,2.67-4.78,4.32-6.96c2.9-3.82,5.8-7.63,8.7-11.45c1.25-1.64,2.51-3.3,4.13-4.57
			c2.74-2.15,6.45-3.21,8.34-6.14c-0.76,2.46,0.91,5.39,3.42,5.99c-0.82,1.67,0.3,3.97,2.12,4.35c-1.37,1.91-1.86,4.43-1.3,6.73
			c-2.88,3.21-4.13,7.6-4.5,11.9c-0.45,5.14,0.23,10.38,1.98,15.24c-0.74,2.55-0.11,5.45,1.6,7.48c-1.07,2.48-0.53,5.58,1.33,7.55
			c-1.27,0.57-2.16,1.91-2.18,3.3c-0.02,1.39,0.81,2.76,2.06,3.36c-1.33,0.9-1.99,2.71-1.54,4.26c0.47,1.59,1.94,2.57,3.51,2.81
			c-1.16,4.69,3.91,1.97,5.79,3.07C437.38,643.02,437.73,643.92,437.83,644.91z"/>
		<path class="st3" d="M343.84,430.99c-0.48,0.82-0.87,1.69-1.16,2.59c-2.27,0.2-4.38,1.62-5.44,3.63
			c-5.59,0.48-10.79,4.19-13.07,9.32c-3.84,0.32-7.25,3.54-7.77,7.36c-2.34-0.25-4.32,2.67-3.23,4.75
			c-2.32,0.88-2.81,2.85-3.46,4.97c-0.09,0.3-2.1,5.04-0.54,4.56c-2.03,0.62-3.36,2.95-2.88,5.02c-1.07-0.11-2.09,0.57-2.69,1.45
			c-0.59,0.86-1,2.13-1.14,3.18c-0.03,0.23,0.29,3.16,0.62,2.91c-2.18,1.66-2.71,5.11-1.11,7.34c-1.08,0.52-1.83,1.66-1.87,2.86
			c-0.04,1.2,0.64,2.01,1.3,2.88c-0.93,0.66-1.84,1.27-2.47,2.28c-0.5,0.81-0.81,1.8-0.59,2.73c0.22,0.93,1.07,1.75,2.02,1.7
			c-0.79,0.36-1.32,1.22-1.29,2.08c0.03,0.87,0.62,1.69,1.44,1.99c-1.71,1.21-1.94,4.03-0.44,5.49c-1.26-0.37-2.57,1.24-1.95,2.4
			c-1.24,0.36-2.06,1.6-1.99,2.88c0.06,1.05,1.05,2.08,0.15,3.02c-0.8,0.84-1.82,0.22-2.49,1.47c-0.07,0.12-0.55,1.63-0.28,1.63
			c-1.02,0.31-1.76,1.38-1.68,2.45c0.08,1.07,0.99,2.03,2.06,2.17c-0.88,0.47-1.48,1.42-1.54,2.41c-0.06,1,0.42,2.01,1.23,2.6
			c-1.58,1.04-0.94,3.03-1.21,4.59c-0.36,2.06-1.12,3.65-0.43,5.79c0.29,0.89,1.07,1.71,1.18,2.54c0.01,0.06-0.63,3.11-0.03,2.94
			c-0.62,0.18-1.14,0.69-1.3,1.31c-0.17,0.62,0.01,1.33,0.46,1.8c-0.93,0.81-1.38,2.13-1.14,3.34c0.31,1.53,1.83,1.87,1.19,3.36
			c-0.52,1.21-1.44,1.65-1.44,3.22c0,0.72,0.31,1.33,0.19,1.9c-0.01,0.1-0.05,0.19-0.1,0.29c-0.41,0.85-1.44,1-1.63,2.21
			c-0.16,1.05,0.29,2.17,1.13,2.82c-1.42,2.21-0.98,5.42,0.97,7.18c-0.61,0.96-0.69,2.24-0.21,3.27c0.48,1.02,1.52,1.78,2.64,1.92
			c-0.99,0.41-1.61,1.55-1.42,2.6c0.19,1.05,1.17,1.91,2.24,1.94c0.03,1.28,1.26,2.39,2.53,2.29c-0.03,0.25-0.06,0.5-0.08,0.74
			c-0.18-0.01-0.37-0.03-0.56-0.04c-6.73-0.54-10.01-5.04-10.01-5.04c-0.09-0.74,0.04-1.51,0.41-2.17c-2.75-1.47-3.91-5.3-2.45-8.05
			c0.39-0.07,0.79-0.14,1.19-0.2c-1.3-1.05-1.98-2.8-1.75-4.44c0.24-1.65,1.39-3.14,2.93-3.77c-1.9-1.43-2.13-4.59-0.46-6.29
			c-1.61-2.07-0.86-5.53,1.47-6.73c-0.13-2.53-0.25-5.06-0.37-7.59c-1.66-1.98-2.38-4.72-1.91-7.27c0.31-0.12,0.62-0.23,0.93-0.35
			c-0.81-3.32-0.06-6.99,1.96-9.74c-0.06-2.03-0.11-4.07-0.17-6.1c-1.02-2.27-1.05-4.96-0.06-7.25c-0.2-2.51-0.06-5.15,1.15-7.36
			c0.59-1.08,1.5-2.03,2.56-2.66c-0.07-0.2-0.14-0.4-0.2-0.62c-0.41-1.52,0.42-3.05,0.13-4.36c-0.2-0.93-1.25-1.79-1.46-2.9
			c-0.41-2.15,0.36-4.62,2.2-5.9c-0.91-2.17,0.15-4.98,2.27-6c-0.84-2.36,0.92-5.26,3.4-5.61c-2.18-2.59-0.62-7.28,2.68-8.05
			c-1.31-2.33,0.39-5.74,3.04-6.09c-0.85-2.17,0.81-4.93,3.12-5.2c0.09-2.09,1.59-3.84,3.5-4.72c0.44-2.64,2.72-5.01,5.44-5.18
			c0.11-3.7,4.12-6.73,7.71-5.83c-0.06-0.2-0.13-0.41-0.18-0.62c1.02-3.21,4.55-5.42,7.88-4.92c0.78-3.27,5.27-4.95,8-3
			C340.46,431.71,342.16,430.97,343.84,430.99z"/>
		<path class="st2" d="M605.91,570.05c-0.4,0.62-0.83,1.19-1.28,1.72c-0.68,0.79-1.42,1.46-2.2,1.99c0,0-1.3,5.41-8.01,6.71
			c-6.71,1.3-18.29-4.22-18.29-4.22s-16.02-1.44-26.09-7.27c-3.16-1.83-6.54-3.25-10.04-4.3c-3.38-1.01-7.81-2.95-12.03-6.62
			c-4.4-3.84-9.56-12.86-13.5-20.64c-4.5-8.9-3.51-19.66,2.76-27.42c5.11-6.33,12.51-13.29,22.42-17.47
			c5.32-2.25,11.38-3.7,18.2-3.83c0.86-0.01,11.59-1.34,20.89,7.11c9.31,8.44,8.88,12.65,8.88,12.65s0.23,5.95,0.01,7.24
			c-0.22,1.3,14.37,24.95,15.67,27.55c0.18,0.36,0.44,0.74,0.76,1.14c1.85,2.38,4.54,8.09,4.76,13.85
			C608.99,563.04,608.5,566.08,605.91,570.05z"/>
		<path class="st7" d="M292.18,618.01c0.19,1.35,0.03,3.61-0.31,6.21c-4.29-0.45-6.78-3.8-6.92-4c0-0.01,0-0.01,0-0.01
			c0.15-1.7-0.14-3.47-1.33-5l-2.62-3.16c0,0,0.09-0.36,0.25-1.02c-0.63-3.5,0.05-7.98,1.23-13.01c0.08-0.34,0.16-0.67,0.25-1.01
			c0.12-0.51,0.25-1.02,0.38-1.53c0.36-1.44,0.75-2.91,1.15-4.41c0.15-0.58,0.32-1.16,0.47-1.75c0.27-1.02,0.54-2.04,0.81-3.07
			c0.18-0.69,0.36-1.37,0.53-2.07c0.18-0.69,0.34-1.38,0.51-2.08c0,0,2.07,2.83,6.28,4.28c-1,4.99-2.4,12.12-2.93,15.73
			C289.07,608.01,291.47,612.92,292.18,618.01z"/>
		<path class="st1" d="M291.87,624.22c-0.45,3.49-1.21,7.59-1.88,10.91c-0.41-0.1-0.82-0.22-1.23-0.34
			c-4.94-1.58-7.17-4.46-6.69-7.23c0-0.05,2.55-3.56,2.88-7.34C285.1,620.42,287.58,623.77,291.87,624.22z"/>
		<path class="st1" d="M437.58,723.29c-0.15-0.01-0.32-0.02-0.47-0.04c-0.13-0.01-0.25-0.02-0.36-0.04
			c-0.58-0.06-1.16-0.16-1.73-0.29c-0.21-0.04-0.43-0.09-0.64-0.15c-0.53-0.13-1.07-0.29-1.59-0.48c-4.33-1.53-6.25-4.16-5.79-6.68
			c0.43-2.33,0.8-4.66,0.9-7.01h0.01c-0.03,0.48,2.52,4.56,9.88,3.86c0.01,0.18,0.03,0.35,0.04,0.51
			C437.99,716.2,437.82,720.01,437.58,723.29z"/>
		<path class="st1" d="M490.07,690.98c-0.89-0.17-1.77-0.41-2.63-0.71c-1.95-0.69-3.41-1.6-4.38-2.63
			c-0.13-0.13-0.24-0.26-0.34-0.39c-0.76-0.93-1.13-1.93-1.12-2.93c0-0.24,0.02-0.48,0.07-0.72c0.32-1.75,0.61-3.5,0.78-5.26
			c0.04-0.36,0.06-0.71,0.08-1.06c0.02-0.23,0.04-0.46,0.04-0.69h0.01c-0.02,0.43,1.92,3.61,7.37,3.91
			c0.05,0.78,0.08,1.53,0.08,2.25C490.05,685.81,490.07,688.57,490.07,690.98z"/>
		<path class="st7" d="M605.91,570.05c-0.64,1.49-2.69,3.18-3.48,3.71c0,0-1.3,5.41-8.01,6.71c-6.71,1.3-18.29-4.22-18.29-4.22
			s-16.02-1.44-26.09-7.27c-3.16-1.83-6.54-3.25-10.04-4.3c-3.38-1.01-7.81-2.95-12.03-6.62c-4.4-3.84-9.56-12.86-13.5-20.64
			c-4.5-8.9-3.51-19.66,2.76-27.42c5.11-6.33,12.51-13.29,22.42-17.47c-0.65,2.07-2.44,4.5-2.83,5.56
			c-0.71,1.89-0.62,1.56-2.08,2.64c-0.92,0.69-1.77,1.22-2.46,2.18c-0.42,0.58-1.78,6.23-1.21,5.98c-2.56,1.08-2.38,5.55,0.25,6.43
			c-0.9,1.06,0.3,3.01,1.66,2.69c1.24,3.6,5.56,4.92,9.28,5.73c4.96,1.09,8.52,0.88,12.27,0.85c5.1-0.04,9.71,2.89,12.03,7.43
			c4.92,9.66,14.66,19.29,22.68,25.75c4.57,3.69,10.91,5.4,13.94,10.42C603.82,569.32,605.59,568.8,605.91,570.05z"/>
		<path class="st2" d="M536.33,521.74c0,0-5.81,41.48-21.44,50.22h-0.01c-1.05,0.59-2.14,1.03-3.28,1.3
			c-18.12,4.26-14.6-23.46-12.79-27.71c5.48-12.91,30.53-32.59,30.53-32.59l1.91,2.41L536.33,521.74z"/>
		<path class="st7" d="M531.3,515.32c0,0-0.01,0.01-0.05,0.04c-1.23,0.85-25.06,17.6-28.35,37.16
			c-3.38,20.08,5.87,20.19,11.98,19.44c-1.05,0.59-2.14,1.03-3.28,1.3c-18.12,4.26-14.6-23.46-12.79-27.71
			c5.48-12.91,30.53-32.59,30.53-32.59L531.3,515.32z"/>
		<path class="st5" d="M605.91,570.05c-0.03,0.01-0.06,0.02-0.08,0.03c-4.25,1.24-7.63-0.88-9.34-4.71
			c-0.78-1.75-4.07-4.33-5.77-5.58c-0.69-0.51-1.14-1.29-1.21-2.15c-0.2-2.24-0.19-6.66,2.43-9.58c3.63-4.05,12.11-3.66,12.11-3.66
			c1.85,2.38,4.54,8.09,4.76,13.84C608.99,563.04,608.5,566.08,605.91,570.05z"/>
		<path class="st5" d="M559.98,531.35c-1.55-0.41-3.43-0.3-4.47,0.93c-0.73,0.88-0.86,2.12-0.71,3.26c0.33,2.58,1.93,4.96,4.2,6.24
			c2.6,1.47,7.32,1.84,7.66-2.1C567,535.83,563.49,532.27,559.98,531.35z"/>
	</g>
	<path class="st6" d="M561.85,535.72c0.02,0.48,0.05,0.98,0.27,1.41c0.21,0.43,0.67,0.79,1.15,0.73c0.64-0.08,1-0.84,0.93-1.49
		c-0.06-0.56-0.35-1.15-0.88-1.35C561.85,534.48,561.85,535.72,561.85,535.72z"/>
</g>
</svg>
