<svg width="1934" height="1782" viewBox="0 0 1934 1782" fill="none" xmlns="http://www.w3.org/2000/svg">
<path fill-rule="evenodd" clip-rule="evenodd" d="M1797.15 1549.17C1818.14 1692.62 1218.21 1759.63 898.911 1777.27C351.885 1807.51 91.5383 1677.85 191.321 1566.98C302.278 1443.69 898.331 1379.9 1218.12 1379.9C1537.92 1379.9 1783.61 1456.67 1797.15 1549.17Z" fill="#A1CE57"/>
<path fill-rule="evenodd" clip-rule="evenodd" d="M882.199 1466.76C865.392 1471.56 699.902 1521.53 790.347 1556.07C880.785 1585 919.532 1597.97 915.573 1611.1C911.614 1624.23 967.024 1682.57 1108.88 1657.6C1211.5 1627.03 1200.46 1591.22 1406.37 1597.92C1612.28 1604.61 1700.64 1565.74 1596.2 1494.1C1488.96 1422.47 1162.79 1466.31 1061.03 1455.31C959.263 1444.31 899.001 1461.95 882.199 1466.76Z" fill="#91AD5C"/>
<path d="M964.207 434.683C964.207 434.683 950.687 449.354 915.966 440.786C881.245 432.217 876.567 418.289 879.22 409.986C881.873 401.689 899.666 358.448 886.944 323.394C874.228 288.34 862.582 287.754 852.331 278.635C842.081 269.511 853.582 262.858 871.653 262.495C889.724 262.133 921.544 267.233 950.198 325.074C978.851 382.915 964.207 434.683 964.207 434.683Z" fill="#3A3837"/>
<path d="M967.422 380.383C967.422 380.383 961.336 398.221 933.021 405.823C904.712 413.418 889.343 389.477 887.167 386.722C893.471 391.671 916.818 402.813 937.245 395.478C957.679 388.136 967.422 380.383 967.422 380.383Z" fill="#282626"/>
<path d="M958.205 347.674C958.205 347.674 957.492 362.515 933.807 373.053C910.121 383.598 890.618 364.545 890.938 362.068C894.77 366.261 915.428 372.842 933.438 364.606C949.678 357.179 958.205 347.674 958.205 347.674Z" fill="#282626"/>
<path d="M944.71 317.152C944.71 317.152 941.833 331.329 923.684 339.68C905.534 348.031 890.715 336.489 889.688 332.579C892.721 336.846 912.043 338.163 923.031 332.126C935.197 325.437 944.71 317.152 944.71 317.152Z" fill="#282626"/>
<path d="M919.623 287.131C919.623 287.131 915.597 297.79 900.446 305.096C886.823 311.127 879.22 305.428 877.449 302.624C881.088 303.754 900.174 305.326 919.623 287.131Z" fill="#282626"/>
<path d="M892.921 269.547C892.921 269.547 886.865 287.252 868.202 287.766C869.695 287.004 886.744 278.599 892.921 269.547Z" fill="#282626"/>
<path d="M953.262 420.227C953.262 420.227 975.83 316.818 882.919 270.205C898.88 269.395 984.962 320.794 953.262 420.227Z" fill="#5B5756"/>
<path fill-rule="evenodd" clip-rule="evenodd" d="M781.825 408.306C781.825 408.306 702.996 432.737 684.073 498.947C665.156 565.151 674.615 613.233 646.233 685.746C617.858 758.258 597.358 770.87 596.572 781.904C595.786 792.938 603.667 821.314 656.484 810.28C709.3 799.246 734.527 732.257 735.312 702.309C750.289 726.746 770.783 807.138 777.878 894.625C794.118 1055.45 873.261 1139.75 876.416 1149.2C879.564 1158.66 872.475 1215.41 885.874 1244.58C894.547 1265.86 895.333 1330.49 885.874 1374.62C876.416 1418.76 851.189 1445.56 847.249 1447.92C843.308 1450.28 837.004 1461.32 865.38 1471.57C893.761 1481.81 914.256 1482.6 922.137 1471.57C930.018 1460.53 927.655 1458.17 943.423 1455.01C959.185 1451.87 969.435 1431.37 961.554 1420.34C953.667 1409.3 942.631 1401.42 945.786 1335.21C948.941 1269.01 955.16 1257.97 964.268 1245.36C973.376 1232.75 979.679 1213.84 978.894 1201.23L993.09 1200.44C993.09 1200.44 1001.76 1220.15 1004.91 1261.13C1008.07 1302.11 1008.85 1302.9 1020.68 1321.03C1032.51 1339.16 1036.45 1428.22 1032.51 1461.32C1028.57 1494.43 1001.76 1529.9 998.614 1537.78C995.459 1545.66 1035.66 1558.27 1052.22 1561.43C1068.77 1564.58 1069.56 1567.74 1075.87 1561.43C1082.18 1555.12 1077.44 1543.3 1090.84 1540.15C1104.24 1537 1117.65 1518.08 1109.76 1502.32C1101.88 1486.55 1089.27 1470 1086.12 1406.16C1082.96 1342.32 1086.12 1319.46 1096.36 1309.22C1106.61 1298.97 1108.19 1272.95 1099.51 1232.76C1090.84 1192.56 1097.34 1177.72 1097.34 1177.72C1097.34 1177.72 1138.94 1179.16 1205.94 1192.56C1272.95 1205.96 1350.98 1194.93 1395.13 1170.49C1410.89 1178.38 1428.23 1276.11 1407.74 1332.07C1387.25 1388.03 1352.56 1410.89 1350.98 1421.13C1349.41 1431.38 1403.01 1443.99 1421.14 1442.41C1430.6 1442.41 1426.66 1432.17 1439.27 1430.59C1451.88 1429.01 1470.01 1417.19 1466.07 1403.79C1462.13 1390.39 1453.46 1383.3 1459.77 1350.2C1466.07 1317.1 1489.73 1237.49 1485 1205.96C1491.31 1183.1 1503.13 1182.32 1505.49 1180.74C1507.85 1179.16 1522.05 1187.05 1547.27 1262.71C1572.5 1337.59 1556.74 1409.31 1535.45 1450.3C1514.17 1491.28 1496.82 1504.69 1504.7 1510.99C1512.58 1517.3 1573.28 1537.79 1585.9 1522.03C1598.51 1506.27 1590.62 1491.29 1602.45 1489.71C1614.27 1488.14 1626.1 1470.8 1620.58 1455.82C1615.06 1440.84 1599.3 1411.68 1608.76 1358.88C1618.22 1306.07 1642.66 1255.62 1640.3 1239.07C1637.93 1222.52 1615.08 1196.51 1637.15 1135.82C1659.22 1075.13 1669.47 1042.03 1661.59 969.518C1653.71 897.005 1636.31 870.315 1636.31 870.315C1636.31 870.315 1675.78 887.549 1678.93 874.937C1677.36 865.481 1655.29 864.689 1666.32 862.326C1677.36 859.964 1697.07 855.232 1693.13 846.561C1689.19 837.889 1667.9 842.621 1678.93 836.312C1689.97 830.004 1717.56 825.278 1711.26 817.399C1704.95 809.519 1686.82 815.036 1696.28 801.633C1705.74 788.236 1740.42 787.445 1734.91 783.505C1729.39 779.565 1721.11 778.773 1735.5 775.625C1749.88 772.471 1765.65 765.377 1748.31 760.651C1774.32 759.074 1792.45 758.283 1774.32 743.309C1756.19 728.335 1698.65 709.415 1655.29 733.852C1611.93 758.283 1583.56 776.411 1571.73 773.257C1559.91 770.102 1512.6 726.752 1375.44 757.491C1263.51 777.196 1153.14 793.741 1075.88 773.244C1003.36 753.539 988.382 735.411 988.382 735.411C988.382 735.411 998.626 721.223 995.472 710.189C1008.08 703.886 1008.08 685.758 1008.08 685.758C1008.08 685.758 1021.49 709.403 1061.69 703.886C1101.9 698.369 1121.6 658.958 1115.29 645.562C1105.05 638.467 1057.29 636.993 1027 588.814C999.418 544.926 999.412 536.007 999.412 536.007C999.412 536.007 1008.08 470.588 952.108 421.721C900.869 377.585 863.035 389.404 863.035 389.404L846.481 387.966L859.88 379.948C859.904 379.954 822.004 378.328 781.825 408.306Z" fill="#A2A8B6"/>
<path fill-rule="evenodd" clip-rule="evenodd" d="M721.043 563.852C721.043 563.852 734.756 633.742 735.318 702.296C741.277 714.273 762.364 761.068 770.396 831.417C775.763 872.176 778.906 908.825 778.906 908.825C778.906 908.825 787.476 849.534 785.542 809.549C783.608 769.564 845.593 738.142 884.871 752.802C928.084 768.93 977.105 777.305 988.4 735.417C984.2 746.995 964.854 759.896 940.34 755.382C915.827 750.868 893.26 732.812 849.4 723.784C805.541 714.757 764.902 708.956 750.718 671.551C736.527 632.859 735.234 588.995 721.043 563.852Z" fill="#838893"/>
<path fill-rule="evenodd" clip-rule="evenodd" d="M999.436 536.014C999.436 536.014 1001.61 559.985 996.451 590.936C991.295 621.893 993.223 630.274 996.451 636.075C999.678 642.523 1008.79 660.639 1008.1 685.758C1006.92 694.146 1045.43 721.145 1089.31 693.439C1104.02 680.133 1111.95 670.905 1115.8 657.358C1111.14 669.57 1084.19 698.66 1054.53 695.735C1024.67 692.798 1015.42 670.247 1009.61 638.649C1003.81 607.058 1008.53 563.853 999.436 536.014Z" fill="#838893"/>
<path fill-rule="evenodd" clip-rule="evenodd" d="M781.825 408.307C781.825 408.307 732.242 424.302 705.692 458.788C679.142 493.273 677.196 524.363 674.652 542.739C672.113 561.109 667.079 629.198 653.541 665.122C640.003 701.046 630.025 727.526 615.791 749.304C601.552 771.082 586.794 779.197 604.653 802.734C621.297 822.01 678.985 814.765 706.158 776.991C691.35 792.642 657.221 808.009 629.825 799.489C602.423 790.968 614.184 775.59 628 753.219C645.762 724.462 662.099 692.26 675.492 610.684C680.967 552.843 675.667 449.965 781.825 408.307Z" fill="#838893"/>
<path fill-rule="evenodd" clip-rule="evenodd" d="M781.825 408.306C780.75 409.031 816.547 379.525 859.899 379.96C864.691 381.12 846.5 387.979 846.5 387.979C846.5 387.979 888.22 379.664 917.326 416.283C915.628 417.739 886.521 404.403 866.39 403.188C882.883 407.799 902.289 431.323 902.531 448.297C899.382 443.934 873.183 421.86 845.774 421.377C852.568 418.47 875.606 416.041 893.798 434.961C892.1 428.9 870.27 405.859 856.683 402.463C858.14 398.1 876.573 393.731 900.827 406.101C896.463 401.98 868.082 388.879 834.853 393.49C835.095 392.764 841.646 385.972 846.735 384.274C836.805 385.477 794.771 399.605 781.825 408.306Z" fill="#838893"/>
<path fill-rule="evenodd" clip-rule="evenodd" d="M992.051 480.378C992.051 480.378 949.817 464.921 932.321 498.041C914.824 531.167 949.195 604.115 988.407 630.914C993 635.38 998.989 640.752 1000.78 645.52C999.733 643.018 991.139 635.749 994.118 609.698C997.092 583.648 1008.6 520.399 992.051 480.378Z" fill="#999FAA"/>
<path fill-rule="evenodd" clip-rule="evenodd" d="M721.043 563.852C721.043 563.852 777.123 773.305 668.801 798.533C706.157 776.985 742.649 722.328 721.043 563.852Z" fill="#BAC0CC"/>
<path fill-rule="evenodd" clip-rule="evenodd" d="M1005.73 548.51C1005.73 548.51 1015.49 601.148 1054.53 624.509C1092.2 647.188 1105.94 638.969 1108.69 651.991C1111.44 665.014 1082.58 688.405 1073.65 689.094C1090.74 684.973 1105.26 656.113 1092.89 649.931C1080.52 643.749 1025.1 646.354 1005.73 548.51Z" fill="#BAC0CC"/>
<path fill-rule="evenodd" clip-rule="evenodd" d="M932.314 498.047C932.314 498.047 915.089 563.496 988.4 633.694C949.925 610.538 913.657 566.602 932.314 498.047Z" fill="#BAC0CC"/>
<path fill-rule="evenodd" clip-rule="evenodd" d="M1164.74 793.269C1164.74 793.269 1270.75 783.571 1385.82 763.165C1500.89 742.752 1627.96 755.901 1653.22 967.246C1649.01 933.684 1600.58 793.275 1497.41 780.006C1408.86 768.615 1215.92 812.564 1164.74 793.269Z" fill="#BAC0CC"/>
<path fill-rule="evenodd" clip-rule="evenodd" d="M1571.75 773.262C1571.75 773.262 1615.39 817.972 1636.33 870.314C1651.11 874.55 1660.95 881.535 1672.2 879.499C1683.44 877.462 1678.02 869.468 1664.52 864.622C1663.31 863.455 1665.95 863.087 1682.66 857.896C1696.41 852.705 1697.69 842.221 1676.71 839.798C1671.06 837.381 1698.48 829.248 1703.68 826.601C1708.88 823.954 1715.74 820.939 1708.43 815.011C1699.96 809.083 1687.35 814.177 1698.08 799.548C1707.17 793.68 1719.55 787.746 1731.86 786.332C1738.86 784.918 1731.07 782.749 1727.9 779.413C1731.86 786.332 1731.79 783.74 1722.36 784.332C1712.92 784.924 1688.16 791.408 1686.99 806.14C1685.81 820.878 1698.45 820.341 1675.19 826.601C1660.61 830.529 1650.46 835.75 1661.07 841.055C1671.68 846.361 1648.18 850.929 1635.8 837.369C1623.42 823.809 1608.66 789.559 1571.75 773.262Z" fill="#838893"/>
<path fill-rule="evenodd" clip-rule="evenodd" d="M1591.77 773.257C1591.77 773.257 1619.14 764.912 1639.49 751.581C1659.84 738.245 1703.36 709.476 1770.03 746.669C1753.19 742.457 1718.1 727.725 1680.9 743.865C1643.7 760.005 1624.05 768.272 1591.77 773.257Z" fill="#BAC0CC"/>
<path fill-rule="evenodd" clip-rule="evenodd" d="M876.428 1149.2C876.428 1149.2 896.469 1175.26 923.255 1190.01C950.047 1204.76 978.906 1201.23 978.906 1201.23C978.906 1201.23 982.085 1220.78 970.336 1235.28C958.586 1249.79 952.778 1265.71 950.796 1280.07C948.808 1294.43 945.484 1336.71 945.369 1347.21C945.254 1357.72 944.928 1392.01 951.207 1403.43C957.668 1415.1 963.742 1419.82 964.274 1428.75C964.805 1437.68 959.475 1452.72 934.961 1457.23C927.141 1459.42 923.231 1476.84 912.376 1478.19C919.133 1474.74 922.481 1470.29 924.814 1461.75C927.147 1453.21 928.694 1448.94 939.567 1445.06C950.439 1441.18 956.646 1431.86 949.273 1420.6C941.9 1409.34 934.52 1387.6 936.46 1348.01C938.4 1308.41 952.658 1254.06 927.866 1225.72C903.069 1197.38 878.9 1184.48 876.428 1149.2Z" fill="#838893"/>
<path fill-rule="evenodd" clip-rule="evenodd" d="M1126.44 997.207C1126.44 997.207 1136.27 1037.22 1118.72 1096.86C1101.18 1156.51 1091.55 1189.27 1097.08 1219.14C1097.08 1219.14 1106.12 1258.94 1105.05 1282.11C1103.98 1305.28 1094.62 1310.37 1092.87 1313.7C1091.11 1317.03 1082.98 1340.19 1085.2 1382.46C1087.41 1424.73 1087.6 1450.39 1095.59 1470.38C1104.14 1491.51 1112.54 1502.46 1112.01 1510.16C1111.47 1517.84 1111.27 1531.19 1093.59 1539.28C1083.74 1543.92 1083.07 1547.01 1079.47 1554.22C1075.87 1561.43 1071.4 1569.59 1061.02 1563.39C1075.87 1561.43 1072.39 1556.49 1074.49 1545.26C1076.6 1534.04 1079.41 1530.53 1088.53 1525.62C1097.66 1520.71 1104.72 1511.84 1092.1 1483.36C1076.52 1448.24 1066.77 1381.07 1085.47 1308.57C1098.81 1259.45 1092.04 1250.55 1088.53 1227.39C1085.02 1204.24 1081.58 1176.28 1101.87 1123.54C1127.09 1057.94 1126.44 997.207 1126.44 997.207Z" fill="#838893"/>
<path fill-rule="evenodd" clip-rule="evenodd" d="M1452.1 910.208C1452.69 908.19 1418.41 986.697 1450.69 1077.22C1468.24 1126.43 1482.83 1144.84 1492.33 1159.15C1522.98 1204.23 1540.87 1242.2 1546.26 1259.63C1542.64 1249.13 1537.58 1212.31 1499.82 1154.41C1462.06 1096.51 1428.23 990.909 1452.1 910.208Z" fill="#838893"/>
<path fill-rule="evenodd" clip-rule="evenodd" d="M1657.71 941.094C1657.71 941.094 1670.39 1009.63 1657.83 1070.87C1645.84 1124.09 1627.81 1145.28 1627.65 1183.14C1628.63 1214.11 1637.67 1227.91 1640.32 1239.07C1642.97 1250.24 1633.9 1270.16 1628.48 1286.89C1623.07 1303.62 1608.13 1348.74 1606.05 1382.06C1603.97 1415.96 1614.92 1441.44 1617.76 1448.63C1620.6 1455.82 1626.73 1463.82 1616.78 1479.74C1607.41 1492.79 1597.92 1487.56 1596.19 1494.11C1594.34 1501.31 1590.48 1527.36 1574.64 1527.36C1557.7 1527.23 1532.73 1522.04 1532.73 1522.04C1532.73 1522.04 1575.28 1525.48 1582.74 1488.21C1590.2 1468.71 1611.42 1479.6 1606.26 1453.23C1601.1 1426.86 1593.07 1390.15 1606.26 1336.83C1619.45 1283.5 1629.19 1257.21 1621.74 1234.23C1614.28 1211.25 1605.11 1190.03 1626.33 1128.67C1647.56 1067.31 1660.98 1025.89 1657.71 941.094Z" fill="#838893"/>
<path fill-rule="evenodd" clip-rule="evenodd" d="M1414.11 1225.94C1414.11 1225.94 1423.74 1291.75 1410.29 1324.29C1417.43 1319.8 1422.63 1296.66 1427.63 1292.12C1463.35 1259.64 1459.69 1329.63 1452.87 1347.36C1446.04 1365.09 1444 1379.42 1448.78 1391.02C1453.55 1402.61 1448.73 1427.83 1433.75 1432.27C1445.92 1428.99 1466.01 1423.74 1466.6 1406.7C1461.87 1392.75 1453.73 1377.23 1459.78 1350.2C1465.84 1323.18 1483.49 1255.85 1484.92 1228.76C1470.6 1202.1 1451.5 1202.1 1451.5 1202.1C1451.5 1202.1 1415.6 1208.87 1414.11 1225.94Z" fill="#838893"/>
<path fill-rule="evenodd" clip-rule="evenodd" d="M985.947 633.695C983.511 633.997 920.729 641.254 907.68 649.4C898.246 655.285 898.246 655.285 879.553 659.999C864.449 663.806 799.956 691.107 831.408 720.13C839.712 721.828 860.515 725.091 899.086 739.962C928.471 754.555 946.185 759.577 964.207 754.398C982.363 749.032 987.536 738.252 993.26 726.638C998.578 715.024 995.49 710.208 995.49 710.208C995.49 710.208 1008.27 705.652 1008.13 682.828C1009.59 659.177 998.729 632.118 985.947 633.695Z" fill="#FBC7BA"/>
<path fill-rule="evenodd" clip-rule="evenodd" d="M964.207 672.803C964.207 672.803 971.163 693.36 970.257 711.198C973.883 706.364 972.07 685.505 964.207 672.803Z" fill="#B25959"/>
<path fill-rule="evenodd" clip-rule="evenodd" d="M863.216 692.001C864.122 692.762 898.596 713.924 941.229 718.764C983.861 723.604 1002.11 711.186 1005.03 699.415C1000.2 705.458 988.11 713.634 961.197 714.238C907.377 714.842 863.222 690.949 863.222 690.949V692.001H863.216Z" fill="#B25959"/>
<path fill-rule="evenodd" clip-rule="evenodd" d="M943.961 727.025C943.961 727.025 969.689 743.533 993.103 719.84C979.051 737.551 963.615 746.676 943.961 727.025Z" fill="#B25959"/>
<path fill-rule="evenodd" clip-rule="evenodd" d="M859.034 705.391C859.034 705.391 866.051 687.722 882.194 684.217C875.177 682.114 855.529 687.976 859.034 705.391Z" fill="#B25959"/>
<path fill-rule="evenodd" clip-rule="evenodd" d="M899.376 654.178C899.376 654.178 893.03 650.009 927.268 638.957C961.506 627.904 990.383 627.771 991.211 633.627C993.49 636.068 969.018 673.497 964.214 672.802C958.345 671.062 905.148 659.925 899.376 654.178Z" fill="#110F0D"/>
<path fill-rule="evenodd" clip-rule="evenodd" d="M980.924 633.253C981.426 635.87 968.009 640.674 950.947 643.973C933.88 647.273 919.641 647.828 919.133 645.212C918.625 642.595 932.049 637.798 949.11 634.492C966.172 631.193 980.411 630.637 980.924 633.253Z" fill="#3A342F"/>
<path fill-rule="evenodd" clip-rule="evenodd" d="M806.713 903.718C806.713 903.718 784.635 901.718 779.504 919.212C779.504 919.212 792.812 1041.06 876.428 1149.2C895.973 1177.93 933.033 1199.84 959.849 1201.46C972.783 1202.66 984.985 1204.74 993.108 1200.44C989.953 1187.64 983.928 1169.81 978.029 1152.65C963.24 1121.75 924.693 1068.94 917.525 1042.05C910.061 1013.8 857.807 892.086 806.713 903.718Z" fill="#FBC7BA"/>
<path fill-rule="evenodd" clip-rule="evenodd" d="M1121.96 1084.84C1121.96 1084.84 1120.47 1085.26 1205.75 1109.46C1291.02 1133.68 1436.8 1082.1 1447.6 1062.09C1461.57 1104.94 1479.15 1137.57 1492.33 1159.15C1458.41 1175.77 1421.04 1161.56 1398.57 1173.55C1379.06 1183.95 1311.51 1202.77 1262.6 1199.46C1213.69 1196.14 1110.18 1175.64 1097.36 1179.72C1097.86 1171.13 1104.66 1140.18 1111.54 1121.47C1117.14 1098.34 1121.96 1084.84 1121.96 1084.84Z" fill="#FBC7BA"/>
<path fill-rule="evenodd" clip-rule="evenodd" d="M1389.31 1211.58C1389.31 1211.58 1375.47 1257.02 1392.9 1275.11C1403.49 1286.1 1432.76 1266.63 1434.53 1218.91C1434.45 1204.91 1392.59 1204.56 1389.31 1211.58Z" fill="#DB8C82"/>
<path fill-rule="evenodd" clip-rule="evenodd" d="M1474.33 1125.19C1486.62 1151.13 1511.84 1189.62 1511.84 1189.62C1511.84 1189.62 1509.99 1198.94 1491.54 1212.62C1496.98 1225.85 1509 1267.06 1494.48 1271.87C1476.03 1275.03 1454.2 1247.36 1447.6 1234.23C1354.69 1226.37 1336.29 1191.18 1336.29 1191.18C1336.29 1191.18 1401.62 1143.1 1474.33 1125.19Z" fill="#EFAA9C"/>
<path fill-rule="evenodd" clip-rule="evenodd" d="M1438.99 1211.93C1438.99 1211.93 1472.22 1266.51 1492.33 1272.09C1481.69 1272.55 1460.91 1260.37 1447.6 1234.23C1437.29 1233.21 1422.2 1231.16 1422.2 1231.16C1422.2 1231.16 1444.55 1234.98 1442.84 1227.72C1441.13 1220.47 1438.99 1211.93 1438.99 1211.93Z" fill="#CE7A74"/>
<path fill-rule="evenodd" clip-rule="evenodd" d="M1479.99 1194.42C1479.99 1194.42 1503.27 1248.76 1499.32 1267.48C1504.33 1260.17 1498.83 1232.52 1491.54 1212.62C1503.92 1201.76 1508.67 1195.9 1508.67 1195.9C1508.67 1195.9 1494.33 1207.27 1491.54 1207.09C1487.96 1206.86 1479.99 1194.42 1479.99 1194.42Z" fill="#CE7A74"/>
<path fill-rule="evenodd" clip-rule="evenodd" d="M1344.72 1191.56C1344.72 1191.56 1371.02 1226.65 1436.83 1228.06C1432.45 1223.84 1388.93 1220.33 1344.72 1191.56Z" fill="#FFC6BD"/>
<path fill-rule="evenodd" clip-rule="evenodd" d="M1447.6 1211.93C1447.6 1211.93 1477.65 1263.14 1491.54 1264.54C1501.11 1261.05 1497.26 1256.12 1494.33 1248.4C1494.21 1256.12 1495.29 1259.63 1484.92 1251.21C1474.55 1242.79 1447.6 1211.93 1447.6 1211.93Z" fill="#FFC6BD"/>
<path fill-rule="evenodd" clip-rule="evenodd" d="M1390.77 1228.06C1390.77 1228.06 1384.72 1260.72 1393.14 1272.1C1401.56 1283.49 1422 1263.68 1424.06 1250.08C1415.6 1265.24 1403.21 1270.22 1395.95 1259.63C1388.69 1249.05 1390.77 1228.06 1390.77 1228.06Z" fill="#F4A59A"/>
<path fill-rule="evenodd" clip-rule="evenodd" d="M1121.96 1084.84C1121.96 1084.84 1118.29 1169.92 1218.12 1194.43C1199.93 1191.82 1112.79 1178.72 1097.36 1179.73C1099.73 1160.89 1103.17 1148.67 1109.06 1127.8C1116.29 1102.21 1121.96 1084.84 1121.96 1084.84Z" fill="#F9B0A1"/>
<path opacity="0.5" fill-rule="evenodd" clip-rule="evenodd" d="M906.06 943.855C906.06 943.855 894.831 1011.92 939.748 1093.32C949.388 1111.24 957.341 1126.4 963.899 1139.16C967.646 1146.46 990.189 1199.96 942.141 1197.96C974.173 1207.53 993.102 1200.44 993.102 1200.44C993.102 1200.44 986.067 1160.69 948.959 1089.12C918.528 1030.43 910.974 989.466 906.06 943.855Z" fill="#838893"/>
<path d="M776.38 423.811C776.38 423.811 782.224 457.113 749.563 471.688C716.903 486.257 706.326 479.87 703.317 471.688C700.307 463.512 686.497 414.729 654.918 394.891C623.34 375.047 613.791 381.742 600.101 380.842C586.412 379.941 591.392 367.626 605.42 356.236C619.454 344.851 647.69 329.321 705.843 357.354C764.002 385.386 776.38 423.811 776.38 423.811Z" fill="#3A3837"/>
<path d="M753.432 390.4C753.432 390.4 759.59 408.214 741.925 431.6C724.259 454.985 697.418 445.54 694.01 444.706C702.024 444.737 727.293 439.183 738.903 420.844C750.507 402.51 753.432 390.4 753.432 390.4Z" fill="#282626"/>
<path d="M726.059 370.262C726.059 370.262 734.617 382.408 722.409 405.279C710.2 428.151 683.106 425.099 681.837 422.948C687.433 423.903 707.777 416.404 716.921 398.838C725.171 383.006 726.059 370.262 726.059 370.262Z" fill="#282626"/>
<path d="M696.65 354.471C696.65 354.471 703.093 367.426 693.906 385.162C684.72 402.903 665.936 402.897 662.721 400.444C667.737 401.948 683.789 391.108 688.745 379.596C694.239 366.852 696.65 354.471 696.65 354.471Z" fill="#282626"/>
<path d="M658.411 346.199C658.411 346.199 661.784 357.082 654.32 372.153C647.279 385.278 637.778 385.453 634.659 384.329C638.225 382.987 654.247 372.509 658.411 346.199Z" fill="#282626"/>
<path d="M626.537 348.736C626.537 348.736 632.641 366.423 618.232 378.297C618.94 376.775 627.226 359.668 626.537 348.736Z" fill="#282626"/>
<path d="M766.746 430.543C766.746 430.543 720.995 335.098 619.049 355.402C631.148 344.948 730.647 332.615 766.746 430.543Z" fill="#5B5756"/>
<path d="M916.667 1466.6C916.667 1466.6 872.91 1431.17 840.715 1445.24C811.79 1460.86 796.064 1512.78 800.113 1522.03C806.478 1530.71 820.342 1523.83 820.342 1523.83C820.342 1523.83 821.436 1535.66 829.619 1536.49C850.772 1538.66 907.62 1528.14 916.256 1509.03C921.363 1497.74 926.138 1474.12 916.667 1466.6Z" fill="#3A3837"/>
<path d="M849.685 1470.12C849.685 1470.12 821.763 1495.87 810.05 1526.41C814.528 1525.82 820.796 1526.41 820.796 1526.41C820.796 1526.41 844.215 1472.67 849.685 1470.12Z" fill="#1E1D1C"/>
<path d="M840.008 1449.21C840.008 1449.21 810.926 1480.26 805.438 1510.09C802.597 1523.96 809.215 1526.41 809.215 1526.41C809.215 1526.41 798.222 1524.22 801.092 1511.87C803.492 1500.93 815.446 1463.6 840.008 1449.21Z" fill="#4F4E4D"/>
<path d="M848.608 1473.06C848.608 1473.06 823.69 1518.53 822.638 1526.41C822.113 1533.41 836.152 1537.27 848.608 1534.82C836.503 1535 827.026 1528.51 828.779 1523.24C830.538 1517.97 848.608 1473.06 848.608 1473.06Z" fill="#4F4E4D"/>
<path d="M1076.79 1551.95C1076.79 1551.95 1030.02 1514.08 995.623 1529.12C964.709 1545.81 947.901 1601.29 952.234 1611.18C959.034 1620.46 973.853 1613.11 973.853 1613.11C973.853 1613.11 975.019 1625.75 983.771 1626.64C1006.38 1628.96 1067.13 1617.72 1076.35 1597.3C1081.81 1585.22 1086.91 1559.98 1076.79 1551.95Z" fill="#3A3837"/>
<path d="M1005.21 1555.7C1005.21 1555.7 975.37 1583.22 962.854 1615.86C967.646 1615.23 974.343 1615.86 974.343 1615.86C974.343 1615.86 999.358 1558.42 1005.21 1555.7Z" fill="#1E1D1C"/>
<path d="M994.868 1533.35C994.868 1533.35 963.785 1566.55 957.922 1598.42C954.882 1613.24 961.959 1615.86 961.959 1615.86C961.959 1615.86 950.21 1613.52 953.274 1600.32C955.837 1588.63 968.613 1548.73 994.868 1533.35Z" fill="#4F4E4D"/>
<path d="M1004.05 1558.85C1004.05 1558.85 977.425 1607.44 976.3 1615.85C975.738 1623.34 990.739 1627.46 1004.05 1624.84C991.114 1625.03 980.99 1618.09 982.864 1612.46C984.744 1606.85 1004.05 1558.85 1004.05 1558.85Z" fill="#4F4E4D"/>
<path d="M1430.17 1432.11C1430.17 1432.11 1382.28 1393.33 1347.05 1408.74C1315.4 1425.83 1298.19 1482.64 1302.62 1492.77C1309.58 1502.26 1324.76 1494.74 1324.76 1494.74C1324.76 1494.74 1325.96 1507.68 1334.91 1508.6C1358.06 1510.96 1420.27 1499.46 1429.72 1478.55C1435.31 1466.18 1440.87 1444.89 1430.17 1432.11Z" fill="#3A3837"/>
<path d="M1356.86 1435.96C1356.86 1435.96 1326.31 1464.15 1313.49 1497.56C1318.39 1496.92 1325.25 1497.56 1325.25 1497.56C1325.25 1497.56 1350.87 1438.74 1356.86 1435.96Z" fill="#1E1D1C"/>
<path d="M1346.28 1413.07C1346.28 1413.07 1314.45 1447.06 1308.45 1479.69C1305.33 1494.87 1312.58 1497.56 1312.58 1497.56C1312.58 1497.56 1300.55 1495.16 1303.69 1481.64C1306.31 1469.68 1319.4 1428.82 1346.28 1413.07Z" fill="#4F4E4D"/>
<path d="M1355.68 1439.18C1355.68 1439.18 1328.42 1488.94 1327.27 1497.56C1326.69 1505.22 1342.05 1509.45 1355.68 1506.76C1342.44 1506.95 1332.07 1499.85 1333.99 1494.09C1335.91 1488.34 1355.68 1439.18 1355.68 1439.18Z" fill="#4F4E4D"/>
<path d="M1591.98 1507.9C1591.98 1507.9 1544.1 1469.12 1508.87 1484.53C1477.21 1501.62 1460.01 1558.43 1464.44 1568.56C1471.4 1578.06 1486.57 1570.53 1486.57 1570.53C1486.57 1570.53 1487.77 1583.46 1496.73 1584.38C1519.88 1586.76 1582.09 1575.25 1591.54 1554.33C1597.12 1541.97 1602.68 1520.67 1591.98 1507.9Z" fill="#3A3837"/>
<path d="M1518.68 1511.74C1518.68 1511.74 1488.12 1539.92 1475.3 1573.34C1480.21 1572.7 1487.06 1573.34 1487.06 1573.34C1487.06 1573.34 1512.69 1514.53 1518.68 1511.74Z" fill="#1E1D1C"/>
<path d="M1508.1 1488.86C1508.1 1488.86 1476.26 1522.85 1470.26 1555.48C1467.15 1570.66 1474.4 1573.34 1474.4 1573.34C1474.4 1573.34 1462.36 1570.94 1465.51 1557.43C1468.13 1545.47 1481.21 1504.6 1508.1 1488.86Z" fill="#4F4E4D"/>
<path d="M1517.5 1514.96C1517.5 1514.96 1490.23 1564.72 1489.08 1573.34C1488.51 1581.01 1503.87 1585.23 1517.5 1582.54C1504.25 1582.73 1493.88 1575.63 1495.8 1569.87C1497.73 1564.12 1517.5 1514.96 1517.5 1514.96Z" fill="#4F4E4D"/>
<path d="M854.091 563.284C846.192 545.24 826.235 536.539 809.524 543.857C792.807 551.174 785.663 571.732 793.563 589.775C801.462 607.819 821.412 616.52 838.129 609.203C854.846 601.885 861.99 581.328 854.091 563.284Z" fill="#141414"/>
<path d="M852.283 565.811C845.018 549.223 826.682 541.229 811.312 547.948C795.949 554.674 789.38 573.57 796.644 590.157C803.909 606.744 822.245 614.739 837.615 608.013C852.978 601.294 859.547 582.398 852.283 565.811Z" fill="white"/>
<path d="M851.123 565.036C845.95 553.217 832.176 547.833 820.354 553.005C808.533 558.184 803.148 571.955 808.321 583.775C813.495 595.594 827.268 600.979 839.09 595.806C850.911 590.627 856.296 576.85 851.123 565.036Z" fill="#0279B5"/>
<path d="M840.546 570.244C837.688 563.706 830.072 560.727 823.533 563.591C817 566.449 814.02 574.063 816.879 580.602C819.738 587.134 827.353 590.119 833.892 587.255C840.425 584.396 843.405 576.776 840.546 570.244Z" fill="#140D0D"/>
<path d="M834.115 560.487C832.792 557.466 829.268 556.088 826.246 557.411C823.225 558.735 821.847 562.257 823.17 565.279C824.494 568.3 828.017 569.678 831.039 568.355C834.061 567.031 835.439 563.508 834.115 560.487Z" fill="#EFEFEF"/>
<path d="M999.062 531.524C994.644 512.326 977.395 499.908 960.533 503.782C943.671 507.661 933.584 526.369 938.002 545.567C942.42 564.765 959.669 577.183 976.525 573.303C993.387 569.424 1003.48 550.722 999.062 531.524Z" fill="#141414"/>
<path d="M996.952 533.638C992.891 515.994 977.038 504.573 961.542 508.138C946.046 511.703 936.775 528.895 940.83 546.54C944.886 564.184 960.738 575.599 976.241 572.04C991.737 568.475 1001.01 551.283 996.952 533.638Z" fill="white"/>
<path d="M995.991 532.653C993.096 520.078 981.087 512.114 969.163 514.851C957.239 517.595 949.92 530.006 952.809 542.581C955.698 555.156 967.713 563.12 979.637 560.383C991.561 557.64 998.886 545.222 995.991 532.653Z" fill="#0279B5"/>
<path d="M985.222 535.676C983.626 528.72 976.984 524.315 970.39 525.832C963.797 527.349 959.747 534.213 961.349 541.162C962.95 548.112 969.586 552.523 976.18 551.006C982.78 549.495 986.823 542.625 985.222 535.676Z" fill="#140D0D"/>
<path d="M980.822 524.87C980.078 521.655 977.014 519.619 973.962 520.32C970.916 521.021 969.042 524.193 969.78 527.414C970.517 530.629 973.587 532.665 976.639 531.964C979.685 531.257 981.559 528.085 980.822 524.87Z" fill="#EFEFEF"/>
<path d="M760.793 538.117C760.793 538.117 771.484 512.689 799.412 507.74C827.341 502.791 838.449 519.408 840.728 521.699C837.071 519.3 801.117 505.818 760.793 538.117Z" fill="#141414"/>
<path d="M930.054 507.492C930.054 507.492 928.676 486.535 951.479 475.749C974.276 464.963 991.356 478.45 991.356 484.233C985.572 478.571 957.076 470.335 930.054 507.492Z" fill="#141414"/>
<path fill-rule="evenodd" clip-rule="evenodd" d="M394.977 1513.13C394.977 1513.13 231.095 1551.11 358.031 1588.99C451.764 1600.66 503.595 1590.98 544.016 1601.35C584.436 1611.73 577.722 1630.11 658.055 1624.12C721.146 1619.41 794.1 1574.17 712.63 1546.12C690.371 1538.46 643.429 1538.2 594.795 1531.03C462.123 1493.64 435.917 1505.64 394.977 1513.13Z" fill="#91AD5C"/>
<path fill-rule="evenodd" clip-rule="evenodd" d="M898.427 1092.7C894.438 1085.13 854.169 1068.79 837.826 1018.96C821.478 969.131 823.871 934.851 807.922 910.934C791.973 887.017 758.883 872.665 749.715 872.665C743.731 862.302 714.631 849.546 699.08 852.337C709.046 853.933 724.198 865.094 724.198 865.094C724.198 865.094 711.446 862.701 701.075 869.076C701.075 869.076 648.844 874.26 633.693 901.761C617.344 929.666 607.378 944.815 608.575 960.756C608.974 977.5 597.013 1003.81 574.688 1026.13C552.362 1048.45 525.649 1045.66 523.654 1061.21C521.66 1076.76 534.817 1085.53 534.817 1085.53C534.817 1085.53 517.278 1084.33 480.991 1080.35C444.711 1076.36 409.228 1077.16 396.071 1085.53C382.913 1093.9 341.048 1133.36 331.082 1138.15C321.116 1142.93 263.302 1128.18 262.504 1064.8C258.116 1056.83 244.161 1080.75 249.347 1098.69C243.762 1093.9 230.581 1108.25 238.951 1132.57C245.726 1154.49 258.914 1154.49 258.914 1154.49C258.914 1154.49 244.959 1156.09 253.329 1168.84C261.301 1180 263.295 1180 263.295 1180C263.295 1180 253.329 1179.61 259.307 1185.58C265.29 1191.56 292.795 1199.14 302.767 1191.96C296.385 1203.12 288.014 1225.05 304.363 1260.13C319.913 1295.21 321.908 1331.08 306.756 1351.01C291.604 1370.95 296.391 1373.34 306.357 1391.67C316.323 1410.01 344.233 1465.82 341.441 1486.94C338.25 1508.07 327.486 1514.05 333.469 1521.62C339.453 1529.2 353.801 1520.43 355.396 1526.81C356.992 1533.19 347.425 1548.33 358.587 1548.73C369.75 1549.13 400.126 1540.91 398.929 1528.55C396.536 1522.57 384.902 1503.69 384.902 1503.69C384.902 1503.69 388.891 1510.07 404.834 1507.28C420.385 1504.09 421.98 1492.53 421.581 1484.56C421.581 1474.99 394.729 1444.89 401.111 1419.78C409.881 1398.26 440.722 1383.71 451.885 1352.22C467.834 1355.41 527.637 1356.6 538.8 1354.61C538.8 1354.61 537.603 1357.4 544.378 1367.76C551.153 1378.13 558.732 1403.24 557.535 1420.38C556.339 1437.53 558.732 1443.9 565.108 1453.87C571.484 1463.83 573.479 1486.95 563.114 1510.07C552.749 1533.19 544.378 1542.76 551.552 1553.52C558.726 1564.29 569.889 1572.26 587.833 1568.27C605.777 1564.29 611.355 1551.93 607.765 1540.77C604.175 1529.61 592.214 1526.42 595.406 1500.5C598.597 1474.59 598.996 1464.63 604.175 1459.05C609.361 1453.47 617.332 1439.52 616.535 1421.18C615.737 1402.84 620.922 1366.17 638.062 1352.22C644.439 1357 649.225 1373.74 647.231 1390.48C645.236 1407.23 641.247 1409.62 654.006 1435.53C658.792 1451.87 656.798 1467.81 647.63 1493.33C638.461 1518.84 636.068 1524.82 646.034 1533.19C654.405 1537.18 655.202 1538.77 656 1543.55C656.798 1548.34 705.444 1544.75 701.056 1526.41C695.073 1516.45 681.517 1488.54 689.096 1462.23C697.466 1435.52 708.23 1428.35 706.641 1408.41C705.045 1388.48 706.242 1386.49 720.197 1363.37C734.152 1340.25 746.91 1309.16 749.298 1280.85C764.05 1249.36 779.601 1223.45 789.168 1172.03C797.938 1123 800.73 1064.4 800.73 1064.4C800.73 1064.4 799.932 1109.05 834.218 1117.42C868.922 1125.79 900.023 1101.87 898.427 1092.7ZM379.36 1488.35C374.936 1477.09 368.898 1452.95 372.923 1426.01C373.11 1424.75 385.796 1469.44 379.36 1488.35Z" fill="#E3E2E8"/>
<path d="M793.919 956.949C793.919 956.949 791.06 1012.49 797.775 1049.9C804.49 1087.32 788.909 1173.52 788.546 1175.38C788.147 1164.52 796.814 1081.83 773.213 1091.87C749.612 1101.91 726.495 1097.58 716.861 1111.55C707.227 1125.51 652.803 1135.14 634.98 1104.33C641.242 1114.92 671.031 1122.45 686.038 1116.36C703.861 1109.14 705.306 1093.87 719.273 1091.87C733.24 1089.88 775.564 1081.39 786.642 1060.68C792.934 1046.03 785.7 1034.62 789.042 1006.98C793.333 971.416 793.919 956.949 793.919 956.949Z" fill="#B9B6C1"/>
<path d="M638.08 1352.21C637.404 1351.33 665.265 1352.35 679.456 1344.94C678.489 1347.52 674.941 1351.07 674.941 1351.07L688.812 1341.39L685.264 1346.92C685.264 1346.92 737.264 1320.6 749.316 1280.86C748.149 1298.83 733.638 1324.3 712.999 1343.97C692.359 1363.64 663.337 1369.12 661.397 1399.75C659.463 1430.38 671.073 1437.16 660.11 1469.72C649.147 1502.29 638.552 1514.51 639.616 1520.61C640.383 1515.39 645.919 1498.74 651.721 1480.04C657.523 1461.34 655.269 1445.21 652.688 1435.87C650.107 1426.52 642.372 1413.94 646.56 1398.14C650.754 1382.35 646.687 1363.35 638.08 1352.21Z" fill="#B9B6C1"/>
<path d="M358.038 1226.17C358.038 1226.17 334.304 1311.63 451.891 1352.21C442.324 1353.3 423.268 1347.82 405.264 1366.8C385.803 1387.3 378.266 1406.27 384.044 1430.35C389.822 1454.43 385.972 1476.59 384.044 1483.32C382.116 1490.07 389.163 1509.79 415.26 1502.58C404.84 1507.28 392.517 1510.09 384.908 1503.69C380.188 1497.29 379.354 1488.35 379.354 1488.35C379.354 1488.35 383.47 1463.08 372.917 1426.01C371.999 1406.27 371.999 1399.05 387.41 1377.38C399.933 1357.64 405.233 1348.49 406.678 1337.41C403.795 1335.97 337.326 1295.52 358.038 1226.17Z" fill="#B9B6C1"/>
<path d="M331.088 1138.15C331.088 1138.15 320.56 1148.89 313.114 1163.79C312.492 1164.41 315.906 1163.79 315.906 1163.79C315.906 1163.79 306.103 1176.39 302.779 1191.96C289.525 1197.92 265.066 1193.95 257.433 1182.13C256.629 1180.23 264.329 1181.22 262.214 1179.3C260.098 1177.39 251.843 1168.75 250.664 1161.62C249.485 1154.48 257.493 1153.57 258.92 1154.49C256.478 1154.08 244.004 1151.34 237.434 1127.31C231.173 1104.52 244.874 1095.33 249.353 1098.69C242.378 1099.88 235.518 1106.69 241.725 1123.14C247.932 1139.58 257.24 1148.89 270.276 1154.47C265 1154.47 256.001 1158.82 260.032 1166.89C264.069 1174.95 282.067 1176.2 294.481 1166.89C306.907 1157.58 316.783 1145.1 331.088 1138.15Z" fill="#B9B6C1"/>
<path d="M302.779 1191.96C302.779 1191.96 293 1204.41 295.569 1231.71C297.593 1252.46 315.005 1273.2 315.851 1298.34C316.698 1323.47 317.882 1335.89 302.579 1357.28C294.118 1370.69 297.086 1374.86 302.972 1385.6C308.859 1396.34 339.682 1458.71 341.054 1482.24C339.718 1501.5 338.111 1497.02 334.938 1507.42C331.765 1517.81 329.263 1521.33 340.981 1524.9C350.518 1527.38 359.524 1517.59 353.111 1542.67C359.246 1533.93 359.747 1524.76 354.042 1520.61C348.337 1516.48 334.152 1523.02 339.603 1504.47C345.061 1489.2 347.787 1481.02 342.329 1459.75C336.872 1438.47 307.414 1388.28 311.778 1369.74C316.142 1351.19 324.869 1333.74 321.599 1302.1C316.142 1272.1 304.689 1251.91 301.957 1243.73C299.231 1235.54 293.629 1214.19 302.779 1191.96Z" fill="#B9B6C1"/>
<path d="M538.806 1354.6C538.806 1354.6 537.923 1356.58 543.314 1366.8C544.698 1369.42 551.322 1382.01 553.679 1393.01C556.514 1403.89 557.638 1411.85 557.541 1420.38C557.402 1432.71 554.737 1438.85 565.114 1453.86C575.491 1468.88 567.362 1502.18 564.25 1507.42C563.12 1510.06 538.945 1546.44 554.278 1557.2C567.362 1569.48 578.561 1571.57 587.839 1568.26C587.839 1568.26 560.491 1565.27 558.877 1542.67C560.321 1521.61 571.883 1515.11 574.772 1496.33C580.55 1456.6 559.602 1445.04 560.321 1427.71C561.047 1410.37 561.772 1399.54 554.544 1380.76C544.172 1360.92 538.806 1354.6 538.806 1354.6Z" fill="#B9B6C1"/>
<path d="M534.816 1085.53C534.816 1085.53 540.437 1090.39 558.417 1091.24C576.397 1092.08 601.364 1079.39 606.018 1065.22C605.595 1062.47 607.323 1049.24 607.722 1047.03C607.493 1049.37 610.4 1088.49 632.217 1100.33C633.094 1102.98 635.584 1106.9 637.584 1108.23C635.209 1107.73 619.556 1099.48 613.415 1089.33C608.762 1081.3 601.781 1084.2 597.339 1086.03C592.897 1087.85 573.224 1093.99 558.206 1094.2C543.193 1094.41 534.816 1085.53 534.816 1085.53Z" fill="#B9B6C1"/>
<path d="M725.558 865.334C725.558 865.334 692.547 855.243 687.911 897.246C688.727 895.337 702.096 878.701 719.828 878.423C709.191 884.967 701.002 893.155 701.552 908.975C702.096 904.34 722.832 887.427 738.382 885.517C736.473 884.701 718.19 884.943 708.097 896.128C708.097 891.493 719.834 878.429 726.652 877.607C725.564 876.513 704.308 873.148 693.369 886.623C694.729 883.336 702.761 863.437 725.558 865.334Z" fill="#B9B6C1"/>
<path d="M609.868 1039.52C609.868 1039.52 607.759 1043.91 607.499 1049.37C607.27 1054.15 605.009 1081.59 623.823 1095.34C626.513 1097.31 628.61 1100.02 632.224 1101.32C634.974 1104.32 639.465 1116.53 668.994 1118.41C696.88 1119.47 700.44 1103.73 709.119 1097.27C714.915 1093.25 712.896 1093.01 730.774 1089.8C747.43 1085.5 745.224 1066.33 717.217 1056.47C689.211 1046.6 662.086 1046.05 656.605 1045.78C651.123 1045.52 617.653 1036.27 609.868 1039.52Z" fill="#EDC3C3"/>
<path d="M634.974 1070.3C634.974 1070.3 607.251 1047.26 608.768 1042.26C608.708 1038.21 614.093 1035.18 636.503 1036.69C658.913 1038.21 680.115 1042.75 677.087 1048.2C674.367 1053.3 646.771 1057.89 634.974 1070.3Z" fill="#3A3837"/>
<path d="M610.225 1040.56C614.812 1042.63 626.434 1044.71 643.925 1046.39C667.471 1047.52 674.361 1047.1 674.337 1045.67C674.283 1042.37 635.893 1035.15 613.809 1038.45C612.497 1038.64 608.696 1039.86 610.225 1040.56Z" fill="#6B6867"/>
<path d="M607.571 1062.01C607.571 1062.01 607.626 1084.83 626.796 1098.8C633.596 1103.14 643.187 1105.61 656.06 1102.78C672.487 1099.17 687.216 1088.79 696.656 1077.47C696.469 1075.95 695.713 1076.9 695.713 1076.9C695.713 1076.9 687.403 1086.52 668.716 1095.02C634.974 1109.86 610.768 1092.87 607.571 1062.01Z" fill="#B25959"/>
<path d="M687.845 1072.31C686.545 1072.37 699.044 1077.36 699.769 1086.03C702.652 1079.53 695.792 1071.95 687.845 1072.31Z" fill="#B25959"/>
<path d="M634.974 1072.3C634.974 1072.3 631.263 1081.71 636.545 1096.15C635.463 1091.09 634.853 1079.15 634.974 1072.3Z" fill="#B25959"/>
<path d="M632.224 1101.32C632.224 1101.32 642.963 1116.75 664.957 1103.78C663.645 1109.04 641.017 1119.7 632.224 1101.32Z" fill="#B25959"/>
<path d="M610.86 979.133C610.86 979.133 605.843 1015.81 577.305 1036.29C548.766 1056.78 545.152 1063.25 550.573 1072.29C555.807 1081.03 593.417 1075.51 610.122 1037.6C610.715 1036.25 613.053 1032.41 614.861 1029.67C617.798 1025.61 621.557 1016.33 620.602 1012.71C619.623 1000.59 613.706 989.889 610.86 979.133Z" fill="#D8A7A7"/>
<path d="M753.426 873.154C753.426 873.154 795.623 882.533 815.03 925.061C828.127 960.502 826.259 1002.38 847.69 1041.15C866.758 1073.61 896.197 1086.18 898.427 1092.7C900.658 1099.23 883.699 1116.6 847.436 1119.14C822.603 1120.11 803.075 1098.16 799.322 1066.17C805.257 1089.56 816.293 1107.94 837.186 1111.66C858.079 1115.38 885.276 1103.16 878.967 1090.16C872.657 1077.16 842.305 1067.7 830.085 1010.94C817.864 954.187 813.918 916.354 791.846 897.827C770.578 876.55 753.426 873.154 753.426 873.154Z" fill="#B9B6C1"/>
<path fill-rule="evenodd" clip-rule="evenodd" d="M615.574 933.654C615.574 933.654 603.849 958.568 610.86 979.132C617.472 998.474 626.815 1013.64 614.861 1029.67C623.267 1020.97 643.943 1001.86 651.462 964.907C658.98 927.95 629.493 907.102 615.574 933.654Z" fill="#D8D7DD"/>
<path d="M557.922 1558.98C557.922 1558.98 591.477 1569.67 608.006 1552.61C627.86 1563.33 638.648 1598.95 635.868 1605.3C631.498 1611.25 621.986 1606.54 621.986 1606.54C621.986 1606.54 621.236 1614.65 615.615 1615.23C601.098 1616.71 562.086 1609.5 556.163 1596.38C552.664 1588.63 551.419 1564.14 557.922 1558.98Z" fill="#3A3837"/>
<path d="M601.854 1569.67C601.854 1569.67 621.018 1587.34 629.056 1608.3C625.98 1607.9 621.677 1608.3 621.677 1608.3C621.677 1608.3 605.607 1571.42 601.854 1569.67Z" fill="#1E1D1C"/>
<path d="M608.49 1555.32C608.49 1555.32 628.453 1576.64 632.212 1597.1C634.164 1606.62 629.619 1608.31 629.619 1608.31C629.619 1608.31 637.162 1606.8 635.198 1598.32C633.554 1590.83 625.352 1565.2 608.49 1555.32Z" fill="#4F4E4D"/>
<path d="M602.591 1571.7C602.591 1571.7 619.689 1602.89 620.414 1608.3C620.776 1613.11 611.143 1615.76 602.591 1614.07C610.901 1614.19 617.404 1609.74 616.195 1606.13C614.993 1602.52 602.591 1571.7 602.591 1571.7Z" fill="#4F4E4D"/>
<path d="M650.331 1534.68C650.331 1534.68 683.886 1545.37 700.415 1528.31C720.269 1539.03 731.057 1574.65 728.277 1581C723.907 1586.96 714.394 1582.24 714.394 1582.24C714.394 1582.24 713.645 1590.35 708.024 1590.93C693.507 1592.41 654.495 1585.2 648.572 1572.08C645.073 1564.33 643.834 1539.84 650.331 1534.68Z" fill="#3A3837"/>
<path d="M694.263 1545.38C694.263 1545.38 713.421 1563.05 721.46 1584.01C718.383 1583.6 714.08 1584.01 714.08 1584.01C714.08 1584.01 698.022 1547.12 694.263 1545.38Z" fill="#1E1D1C"/>
<path d="M700.905 1531.03C700.905 1531.03 720.868 1552.34 724.627 1572.8C726.579 1582.32 722.034 1584 722.034 1584C722.034 1584 729.577 1582.5 727.613 1574.02C725.969 1566.53 717.761 1540.9 700.905 1531.03Z" fill="#4F4E4D"/>
<path d="M695.006 1547.4C695.006 1547.4 712.104 1578.6 712.829 1584C713.191 1588.81 703.558 1591.46 695.006 1589.77C703.316 1589.89 709.819 1585.44 708.61 1581.83C707.408 1578.22 695.006 1547.4 695.006 1547.4Z" fill="#4F4E4D"/>
<path d="M417.326 1543.51C422.53 1544.48 427.286 1544.06 430.556 1543.64C435.548 1543.01 436.044 1535.77 436.044 1535.77C436.044 1535.77 444.614 1539.77 448.379 1534.37C450.718 1528.66 439.543 1496.25 421.641 1487.13C415.132 1494.18 406.188 1497.14 397.478 1497.26C397.478 1497.26 382.381 1497.49 380.417 1493.78C383.119 1500.81 384.581 1509.83 389.126 1515.08C393.671 1520.33 399.902 1526.04 396.614 1531.74C399.201 1535.9 407.082 1541.61 417.326 1543.51Z" fill="#3A3837"/>
<path d="M417.32 1503.37C417.32 1503.37 434.763 1518.7 442.366 1537.19C439.616 1536.9 435.796 1537.35 435.796 1537.35C435.796 1537.35 420.705 1504.85 417.32 1503.37Z" fill="#1E1D1C"/>
<path d="M422.929 1490.46C422.929 1490.46 441.157 1509.01 444.946 1527.15C446.886 1535.59 442.873 1537.18 442.873 1537.18C442.873 1537.18 449.557 1535.68 447.63 1528.17C446.004 1521.53 438.153 1498.88 422.929 1490.46Z" fill="#4F4E4D"/>
<path d="M418.027 1505.16C418.027 1505.16 433.916 1532.58 434.678 1537.38C435.101 1541.65 426.579 1544.21 418.934 1542.89C426.338 1542.82 432.031 1538.72 430.882 1535.53C429.728 1532.34 418.027 1505.16 418.027 1505.16Z" fill="#4F4E4D"/>
<path d="M355.632 1534.13C355.632 1534.13 385.736 1542.93 400.096 1527.38C418.004 1536.51 428.369 1568 426.03 1573.71C422.27 1579.11 413.694 1575.11 413.694 1575.11C413.694 1575.11 413.199 1582.35 408.207 1582.98C395.309 1584.61 360.419 1579.02 354.864 1567.47C351.583 1560.64 349.957 1538.86 355.632 1534.13Z" fill="#3A3837"/>
<path d="M394.977 1542.71C394.977 1542.71 412.419 1558.04 420.022 1576.53C417.272 1576.24 413.452 1576.69 413.452 1576.69C413.452 1576.69 398.361 1544.19 394.977 1542.71Z" fill="#1E1D1C"/>
<path d="M400.586 1529.79C400.586 1529.79 418.814 1548.35 422.603 1566.49C424.543 1574.93 420.53 1576.52 420.53 1576.52C420.53 1576.52 427.215 1575.02 425.287 1567.52C423.661 1560.87 415.81 1538.23 400.586 1529.79Z" fill="#4F4E4D"/>
<path d="M395.678 1544.5C395.678 1544.5 411.567 1571.92 412.328 1576.72C412.751 1580.99 404.23 1583.56 396.584 1582.24C403.988 1582.17 409.681 1578.06 408.533 1574.87C407.378 1571.68 395.678 1544.5 395.678 1544.5Z" fill="#4F4E4D"/>
<path d="M380.411 1493.78C380.411 1493.78 382.587 1503.91 386.914 1511.87C390.897 1518.95 396.905 1521.3 397.448 1527.39C399.201 1526.91 408.466 1533.13 416.027 1543.25C418.33 1543.69 427.232 1543.98 427.232 1543.98C427.232 1543.98 416.323 1541.95 410.098 1532.62C403.178 1522.93 399.721 1522.42 399.721 1522.42C399.721 1522.42 391.072 1513.88 387.96 1507.43C384.847 1500.98 384.89 1496.3 387.108 1496.59C385.004 1496.18 381.505 1494.2 380.411 1493.78Z" fill="#1E1D1C"/>
<path d="M356.822 1256.09C356.822 1256.09 360.6 1277.47 419.031 1295.52C476.99 1312.62 490.818 1300.21 513.12 1298.34C535.421 1296.47 548.464 1304.44 548.464 1304.44C548.464 1304.44 546.771 1317.9 543.943 1323.93C541.114 1329.96 534.285 1342.41 538.8 1354.6C529.716 1356.31 466.136 1354.28 451.884 1352.21C436.213 1350.14 358.744 1313.56 356.822 1256.09Z" fill="#EDC3C3"/>
<path d="M674.954 1220.9C674.954 1220.9 690.927 1193.87 717.218 1193.4C743.508 1192.92 765.096 1230.29 757.155 1264.57C749.213 1296.47 717.29 1333.25 685.27 1346.92L688.818 1341.4L674.948 1351.07L679.462 1344.95C679.462 1344.95 654.756 1353.82 638.087 1352.22C647.811 1343.61 667.417 1328.32 676.241 1262.77C677.456 1236.65 674.954 1220.9 674.954 1220.9Z" fill="#EDC3C3"/>
<path opacity="0.6" d="M554.55 1241.1C554.55 1241.1 547.327 1255.54 548.288 1276.73C549.249 1297.92 549.249 1313.81 543.955 1323.92C538.655 1334.03 535.536 1345.19 538.812 1354.6C531.456 1355.25 513.132 1355.57 513.132 1355.57C513.132 1355.57 528.066 1350.41 530.955 1333.07C533.844 1315.74 536.733 1313.33 540.105 1303.21C543.471 1293.11 536.243 1267.1 554.55 1241.1Z" fill="#B9B6C1"/>
<path opacity="0.6" d="M665.706 1185C665.706 1185 678.906 1239.26 665.706 1290.1C652.506 1339.97 638.08 1352.21 638.08 1352.21C638.08 1352.21 649.569 1349.26 667.175 1309.17C684.78 1269.08 675.974 1207.48 665.706 1185Z" fill="#B9B6C1"/>
<path d="M724.838 1003.61C737.358 1003.61 747.508 992.651 747.508 979.131C747.508 965.612 737.358 954.652 724.838 954.652C712.318 954.652 702.168 965.612 702.168 979.131C702.168 992.651 712.318 1003.61 724.838 1003.61Z" fill="#141414"/>
<path d="M745.677 980.226C745.677 967.796 736.345 957.723 724.838 957.723C713.331 957.723 703.999 967.796 703.999 980.226C703.999 992.65 713.331 1002.72 724.838 1002.72C736.345 1002.72 745.677 992.65 745.677 980.226Z" fill="white"/>
<path d="M738.376 981.024C738.376 972.171 731.196 964.992 722.342 964.992C713.488 964.992 706.308 972.171 706.308 981.024C706.308 989.876 713.488 997.055 722.342 997.055C731.196 997.055 738.376 989.876 738.376 981.024Z" fill="#644242"/>
<path d="M730.296 981.386C730.296 976.492 726.325 972.521 721.43 972.521C716.534 972.521 712.563 976.492 712.563 981.386C712.563 986.281 716.534 990.251 721.43 990.251C726.325 990.251 730.296 986.281 730.296 981.386Z" fill="#140D0D"/>
<path d="M728.936 973.482C728.936 971.216 727.098 969.385 724.838 969.385C722.571 969.385 720.74 971.222 720.74 973.482C720.74 975.748 722.577 977.579 724.838 977.579C727.104 977.579 728.936 975.748 728.936 973.482Z" fill="#EFEFEF"/>
<path d="M703.999 941.703C703.999 941.703 714.696 926.089 734.157 926.615C753.618 927.146 758.786 939.848 760 941.703C757.873 939.582 735.566 925.557 703.999 941.703Z" fill="#141414"/>
<path d="M649.866 966.907C649.866 952.985 640.976 941.703 630.006 941.703C619.037 941.703 610.146 952.985 610.146 966.907C610.146 980.824 619.037 992.112 630.006 992.112C640.976 992.105 649.866 980.824 649.866 966.907Z" fill="#141414"/>
<path d="M648.404 967.993C648.404 955.098 640.166 944.65 630.007 944.65C619.847 944.65 611.609 955.104 611.609 967.993C611.609 980.889 619.847 991.343 630.007 991.343C640.166 991.343 648.404 980.889 648.404 967.993Z" fill="white"/>
<path d="M642.148 968.689C642.148 960.271 635.657 953.449 627.655 953.449C619.653 953.449 613.162 960.271 613.162 968.689C613.162 977.1 619.647 983.923 627.655 983.923C635.663 983.929 642.148 977.106 642.148 968.689Z" fill="#644242"/>
<path d="M634.842 969.039C634.842 964.386 631.252 960.615 626.827 960.615C622.403 960.615 618.813 964.386 618.813 969.039C618.813 973.692 622.397 977.462 626.827 977.462C631.258 977.462 634.842 973.692 634.842 969.039Z" fill="#140D0D"/>
<path d="M633.621 961.523C633.621 959.371 631.959 957.625 629.916 957.625C627.873 957.625 626.211 959.371 626.211 961.523C626.211 963.674 627.873 965.42 629.916 965.42C631.959 965.42 633.621 963.68 633.621 961.523Z" fill="#EFEFEF"/>
<path d="M622.18 923.973C622.18 923.973 643.828 916.408 652.066 945.6C653.154 932.717 638.329 903.319 622.18 923.973Z" fill="#141414"/>
</svg>
