<svg width="1610" height="1808" viewBox="0 0 1610 1808" fill="none" xmlns="http://www.w3.org/2000/svg">
<g clip-path="url(#clip0_3032_6239)">
<path d="M1581.61 655.833C1406.12 598.584 1307.58 446.179 1273.97 384.752C1270.33 378.095 1264.12 373.894 1257.31 372.488L1257.33 372.446L1170.75 346.143L1134.77 397.737L1132.19 433.468C1019.27 476.028 909.635 466.863 857.769 458.544C839.203 455.564 820.923 465.516 813.693 482.869C552.14 1110.36 722.191 1424.38 841.378 1552.99L838.285 1595.06L925.966 1621.7C934.108 1624.32 942.727 1625.34 951.351 1624.28C1432.39 1565.15 1580.66 868.3 1609.42 701.176C1612.85 681.207 1600.87 662.12 1581.61 655.833Z" fill="#210088"/>
<path d="M1186.28 358.11C1219.89 419.537 1318.43 571.942 1493.92 629.191C1513.18 635.478 1525.16 654.565 1521.73 674.534C1492.97 841.652 1344.7 1538.51 863.661 1597.63C848.134 1599.54 832.596 1594.93 819.924 1585.77C730.431 1521 406.802 1222.01 725.997 456.227C733.232 438.874 751.507 428.922 770.073 431.902C838.157 442.825 1005.79 455.309 1149.71 350.16C1161.85 341.293 1179.07 344.928 1186.28 358.11Z" fill="#5442EC"/>
<path d="M1153.36 419.065C1201.17 495.789 1300.46 622.516 1460.54 680.337C1444.11 770.398 1400.72 966.465 1309.27 1150.19C1192.18 1385.43 1039.9 1516.18 856.699 1538.81C856.389 1538.74 855.62 1538.47 854.678 1537.79C816.914 1510.46 723.97 1429.38 676.58 1267.26C649.395 1174.25 641.26 1068.3 652.411 952.336C665.786 813.286 707.055 658.646 775.121 492.499C796.941 495.431 826.51 498.19 860.609 498.19C938.08 498.19 1048.74 483.829 1153.36 419.065ZM1164.55 345.303C1159.42 345.303 1154.22 346.87 1149.72 350.159C1051.29 422.068 941.781 438.963 860.603 438.963C823.083 438.963 791.607 435.351 770.084 431.901C767.891 431.549 765.704 431.377 763.534 431.377C747.358 431.377 732.386 440.923 726.008 456.226C406.813 1222.01 730.443 1521 819.936 1585.77C830.706 1593.56 843.55 1598.06 856.699 1598.06C859.017 1598.06 861.342 1597.93 863.666 1597.63C1344.71 1538.51 1492.98 841.651 1521.73 674.533C1525.16 654.57 1513.18 635.477 1493.92 629.19C1318.43 571.941 1219.9 419.536 1186.28 358.109C1181.75 349.814 1173.25 345.303 1164.55 345.303Z" fill="#938EEF"/>
<path d="M999.818 1180.07L924.248 1161.37C910.312 1157.92 901.807 1143.83 905.258 1129.89L1005.95 727.215C1009.4 713.282 1023.49 704.778 1037.43 708.229L1113 726.923C1126.94 730.373 1135.44 744.46 1131.99 758.399L1031.3 1161.08C1027.85 1175.01 1013.75 1183.51 999.818 1180.07Z" fill="#210088"/>
<path d="M1237.16 940.098L1212.8 1038.49C1209.35 1052.42 1195.26 1060.93 1181.32 1057.48L838.781 972.016C824.846 968.565 816.34 954.478 819.791 940.54L844.145 842.148C847.596 828.216 861.686 819.712 875.627 823.162L1218.17 908.622C1232.1 912.073 1240.61 926.166 1237.16 940.098Z" fill="#210088"/>
<path d="M963.335 1171.04L887.765 1152.35C873.83 1148.9 865.325 1134.81 868.776 1120.87L969.468 718.195C972.919 704.262 987.009 695.759 1000.95 699.209L1076.52 717.903C1090.46 721.353 1098.96 735.441 1095.51 749.379L994.817 1152.06C991.366 1165.99 977.27 1174.49 963.335 1171.04Z" fill="#F2F2F2"/>
<path d="M1200.68 931.079L1176.32 1029.47C1172.87 1043.4 1158.78 1051.91 1144.84 1048.46L802.298 962.996C788.363 959.546 779.858 945.458 783.309 931.52L807.663 833.129C811.113 819.196 825.204 810.692 839.145 814.143L1181.69 899.603C1195.62 903.053 1204.13 917.146 1200.68 931.079Z" fill="#F2F2F2"/>
<path d="M1020.78 287.46L1103.82 255.466L1096.82 235.824L1009.83 251.223L1020.78 287.46Z" fill="#CF51A2"/>
<path d="M1119.4 266.421C1102.08 263.728 1090.23 247.513 1092.92 230.202C1095.61 212.89 1111.83 201.038 1129.14 203.731C1146.46 206.425 1158.31 222.64 1155.62 239.951C1152.92 257.262 1136.71 269.109 1119.4 266.421Z" fill="#CF51A2"/>
<path d="M992.443 469.693L1061.86 525.381L1049.23 541.972L971.01 500.901L992.443 469.693Z" fill="#CF51A2"/>
<path d="M1080.02 519.665C1062.71 516.971 1046.49 528.824 1043.8 546.135C1041.1 563.447 1052.96 579.661 1070.27 582.355C1087.59 585.049 1103.81 573.196 1106.5 555.884C1109.19 538.573 1097.34 522.358 1080.02 519.665Z" fill="#CF51A2"/>
<path d="M587.111 406.689L504.061 438.684L511.064 458.325L598.054 442.933L587.111 406.689Z" fill="#CF51A2"/>
<path d="M488.485 427.728C505.799 430.421 517.654 446.636 514.96 463.947C512.272 481.259 496.048 493.111 478.74 490.418C461.425 487.724 449.57 471.509 452.264 454.198C454.953 436.893 471.17 425.04 488.485 427.728Z" fill="#CF51A2"/>
<path d="M615.44 224.466L546.027 168.778L558.663 152.188L636.873 193.264L615.44 224.466Z" fill="#CF51A2"/>
<path d="M527.857 174.486C545.172 177.18 561.389 165.327 564.083 148.016C566.772 130.705 554.923 114.49 537.608 111.796C520.294 109.109 504.076 120.955 501.382 138.267C498.688 155.578 510.543 171.793 527.857 174.486Z" fill="#CF51A2"/>
<path d="M849.865 565.552L881.866 648.581L901.511 641.585L886.115 554.605L849.865 565.552Z" fill="#CF51A2"/>
<path d="M870.921 664.165C873.609 646.853 889.833 635.001 907.141 637.694C924.456 640.388 936.311 656.602 933.617 673.914C930.923 691.225 914.705 703.078 897.39 700.384C880.082 697.691 868.227 681.476 870.921 664.165Z" fill="#CF51A2"/>
<path d="M690.688 539.941L634.99 609.341L618.396 596.707L659.475 518.512L690.688 539.941Z" fill="#CF51A2"/>
<path d="M640.699 627.505C643.393 610.194 631.538 593.979 614.224 591.286C596.909 588.592 580.692 600.445 577.997 617.756C575.309 635.068 587.158 651.282 604.473 653.97C621.787 656.67 638.005 644.817 640.699 627.505Z" fill="#CF51A2"/>
<path d="M936.84 157.285L992.538 87.8848L1009.14 100.512L968.054 178.714L936.84 157.285Z" fill="#CF51A2"/>
<path d="M986.833 69.7173C984.139 87.0286 995.994 103.243 1013.31 105.937C1030.62 108.631 1046.84 96.7778 1049.53 79.4665C1052.23 62.1552 1040.37 45.9404 1023.06 43.2469C1005.74 40.5533 989.521 52.406 986.833 69.7173Z" fill="#CF51A2"/>
<path d="M791.122 135.972L759.122 52.9434L739.477 59.9394L754.878 146.919L791.122 135.972Z" fill="#CF51A2"/>
<path d="M770.074 37.3669C767.38 54.6782 751.162 66.5309 733.853 63.8374C716.539 61.1438 704.684 44.929 707.378 27.6177C710.072 10.3064 726.29 -1.54629 743.604 1.14724C760.919 3.84077 772.762 20.0556 770.074 37.3669Z" fill="#CF51A2"/>
<path d="M819.867 590.526C953.63 590.526 1062.07 482.109 1062.07 348.37C1062.07 214.632 953.63 106.215 819.867 106.215C686.103 106.215 577.666 214.632 577.666 348.37C577.666 482.109 686.103 590.526 819.867 590.526Z" fill="#E173B4"/>
<path d="M661.886 293.254C670.218 308.349 692.64 311.942 711.969 301.275C731.299 290.608 740.209 269.727 731.877 254.633C723.544 239.544 701.122 235.951 681.793 246.618C662.464 257.279 653.553 278.16 661.886 293.254Z" fill="#EDBBDE"/>
<path d="M963.85 399.27C973.059 404.609 986.064 399.377 992.9 387.596C999.737 375.809 997.812 361.93 988.603 356.59C979.394 351.251 966.389 356.483 959.559 368.27C952.716 380.052 954.642 393.936 963.85 399.27Z" fill="#EDBBDE"/>
<path d="M844.846 347.26C854.818 361.592 877.782 362.855 896.134 350.091C914.486 337.32 921.274 315.355 911.297 301.023C901.325 286.691 878.361 285.428 860.009 298.192C841.657 310.957 834.875 332.928 844.846 347.26Z" fill="#EDBBDE"/>
<path d="M767.298 492.662C766.153 503.246 776.214 513.001 789.762 514.461C803.309 515.921 815.218 508.531 816.357 497.948C817.501 487.37 807.44 477.609 793.892 476.143C780.351 474.689 768.436 482.085 767.298 492.662Z" fill="#EDBBDE"/>
<path d="M695.083 422.03C703.046 414.969 702.17 400.983 693.128 390.793C684.087 380.602 670.307 378.064 662.344 385.125C654.381 392.187 655.257 406.173 664.299 416.363C673.334 426.553 687.121 429.086 695.083 422.03Z" fill="#EDBBDE"/>
<path d="M913.128 245.941C921.091 238.879 920.215 224.893 911.174 214.697C902.132 204.507 888.346 201.968 880.383 209.03C872.42 216.091 873.296 230.077 882.338 240.268C891.385 250.464 905.171 253.002 913.128 245.941Z" fill="#EDBBDE"/>
<path d="M768.66 214.456C767.426 222.113 774.96 229.699 785.485 231.386C796.011 233.078 805.536 228.239 806.769 220.576C807.997 212.912 800.469 205.332 789.944 203.64C779.424 201.959 769.893 206.798 768.66 214.456Z" fill="#EDBBDE"/>
<path d="M849.454 445.249C852.744 455.946 867.316 460.952 882.014 456.441C896.706 451.923 905.951 439.594 902.667 428.897C899.377 418.201 884.804 413.189 870.106 417.706C855.414 422.223 846.169 434.553 849.454 445.249Z" fill="#EDBBDE"/>
<path d="M755.691 373.518C754.457 381.182 761.991 388.762 772.517 390.454C783.043 392.147 792.573 387.308 793.801 379.644C795.029 371.981 787.495 364.401 776.975 362.715C766.449 361.016 756.919 365.855 755.691 373.518Z" fill="#EDBBDE"/>
<path d="M730.738 1404.29L774.236 1351.62L762.154 1341.12L709.764 1384.17L730.738 1404.29Z" fill="#CF51A2"/>
<path d="M788.78 1353.09C776.186 1357.81 762.149 1351.42 757.429 1338.83C752.708 1326.24 759.092 1312.21 771.692 1307.49C784.286 1302.77 798.322 1309.15 803.042 1321.75C807.763 1334.33 801.374 1348.37 788.78 1353.09Z" fill="#CF51A2"/>
<path d="M780.432 1536.85L847.837 1547.96L845.638 1563.82L777.846 1565.79L780.432 1536.85Z" fill="#CF51A2"/>
<path d="M857.841 1537.31C845.247 1542.03 838.863 1556.06 843.578 1568.65C848.298 1581.24 862.335 1587.63 874.929 1582.91C887.523 1578.19 893.906 1564.15 889.192 1551.56C884.477 1538.97 870.441 1532.59 857.841 1537.31Z" fill="#CF51A2"/>
<path d="M485.553 1647.32L442.055 1700L454.136 1710.5L506.527 1667.45L485.553 1647.32Z" fill="#CF51A2"/>
<path d="M427.514 1698.53C440.108 1693.81 454.144 1700.19 458.865 1712.79C463.585 1725.38 457.202 1739.41 444.602 1744.13C432.008 1748.85 417.971 1742.47 413.251 1729.88C408.53 1717.28 414.914 1703.25 427.514 1698.53Z" fill="#CF51A2"/>
<path d="M435.869 1514.76L368.459 1503.65L370.664 1487.79L438.45 1485.82L435.869 1514.76Z" fill="#CF51A2"/>
<path d="M358.455 1514.31C371.049 1509.59 377.438 1495.55 372.718 1482.96C367.997 1470.37 353.961 1463.99 341.367 1468.71C328.773 1473.43 322.383 1487.46 327.104 1500.05C331.824 1512.64 345.861 1519.03 358.455 1514.31Z" fill="#CF51A2"/>
<path d="M721.156 1654.66L773.833 1698.16L784.341 1686.08L741.278 1633.7L721.156 1654.66Z" fill="#CF51A2"/>
<path d="M772.372 1712.7C767.652 1700.11 774.035 1686.07 786.629 1681.35C799.223 1676.63 813.259 1683.01 817.98 1695.61C822.7 1708.2 816.317 1722.23 803.717 1726.95C791.129 1731.67 777.093 1725.29 772.372 1712.7Z" fill="#CF51A2"/>
<path d="M605.027 1697.47L593.911 1764.86L578.051 1762.66L576.078 1694.88L605.027 1697.47Z" fill="#CF51A2"/>
<path d="M604.573 1774.86C599.852 1762.27 585.816 1755.89 573.222 1760.61C560.628 1765.33 554.244 1779.36 558.959 1791.95C563.679 1804.54 577.716 1810.93 590.31 1806.21C602.91 1801.49 609.293 1787.45 604.573 1774.86Z" fill="#CF51A2"/>
<path d="M625.545 1348.81L636.661 1281.41L652.521 1283.61L654.494 1351.39L625.545 1348.81Z" fill="#CF51A2"/>
<path d="M626 1271.41C630.72 1284 644.757 1290.38 657.351 1285.66C669.945 1280.94 676.328 1266.91 671.608 1254.32C666.887 1241.72 652.851 1235.34 640.257 1240.06C627.669 1244.78 621.285 1258.81 626 1271.41Z" fill="#CF51A2"/>
<path d="M520.042 1389.41L467.359 1345.92L456.857 1358L499.92 1410.38L520.042 1389.41Z" fill="#CF51A2"/>
<path d="M468.82 1331.38C473.54 1343.98 467.157 1358.01 454.563 1362.73C441.969 1367.45 427.933 1361.07 423.212 1348.47C418.491 1335.88 424.875 1321.84 437.469 1317.12C450.063 1312.4 464.099 1318.79 468.82 1331.38Z" fill="#CF51A2"/>
<path d="M655.341 1703.03C756.073 1683.12 821.583 1585.33 801.663 1484.61C781.742 1383.9 683.934 1318.4 583.202 1338.32C482.47 1358.24 416.959 1456.03 436.88 1556.74C456.8 1657.45 554.609 1722.95 655.341 1703.03Z" fill="#E173B4"/>
<path d="M492.853 1543.3C504.112 1550.26 520.461 1544.21 529.371 1529.8C538.282 1515.39 536.381 1498.07 525.122 1491.11C513.863 1484.15 497.514 1490.19 488.597 1504.6C479.693 1519.01 481.594 1536.34 492.853 1543.3Z" fill="#EDBBDE"/>
<path d="M734.78 1500.51C742.945 1500.61 749.68 1492.22 749.811 1481.76C749.942 1471.3 743.428 1462.74 735.256 1462.64C727.085 1462.54 720.356 1470.93 720.225 1481.39C720.093 1491.84 726.608 1500.41 734.78 1500.51Z" fill="#EDBBDE"/>
<path d="M635.576 1510.52C647.645 1516.35 663.482 1508.55 670.95 1493.11C678.418 1477.65 674.681 1460.4 662.612 1454.57C650.542 1448.74 634.706 1456.55 627.238 1471.99C619.769 1487.44 623.506 1504.69 635.576 1510.52Z" fill="#EDBBDE"/>
<path d="M638.465 1636.99C641.69 1644.5 652.09 1647.24 661.704 1643.12C671.318 1638.99 676.498 1629.57 673.273 1622.06C670.055 1614.55 659.648 1611.81 650.034 1615.93C640.426 1620.06 635.241 1629.48 638.465 1636.99Z" fill="#EDBBDE"/>
<path d="M563.552 1616.93C566.222 1609.21 560.363 1600.19 550.475 1596.77C540.587 1593.36 530.413 1596.85 527.749 1604.57C525.085 1612.29 530.938 1621.32 540.82 1624.73C550.708 1628.15 560.882 1624.65 563.552 1616.93Z" fill="#EDBBDE"/>
<path d="M643.095 1417.04C645.759 1409.32 639.906 1400.3 630.018 1396.88C620.13 1393.47 609.956 1396.96 607.286 1404.68C604.622 1412.41 610.475 1421.43 620.363 1424.84C630.251 1428.25 640.431 1424.77 643.095 1417.04Z" fill="#EDBBDE"/>
<path d="M534.588 1450.39C536.65 1455.98 544.542 1458.21 552.224 1455.38C559.901 1452.55 564.449 1445.73 562.393 1440.14C560.33 1434.55 552.433 1432.31 544.756 1435.14C537.079 1437.97 532.526 1444.8 534.588 1450.39Z" fill="#EDBBDE"/>
<path d="M675.576 1574.34C681.805 1580.26 693.439 1578.12 701.569 1569.57C709.699 1561.02 711.236 1549.29 705.008 1543.37C698.779 1537.45 687.139 1539.59 679.009 1548.14C670.885 1556.7 669.348 1568.43 675.576 1574.34Z" fill="#EDBBDE"/>
<path d="M585.822 1561.67C587.885 1567.26 595.782 1569.49 603.459 1566.66C611.136 1563.83 615.689 1557 613.627 1551.42C611.565 1545.83 603.667 1543.59 595.997 1546.42C588.314 1549.25 583.76 1556.08 585.822 1561.67Z" fill="#EDBBDE"/>
<path d="M252.067 852.802L271.718 810.79L261.99 805.939L234.859 843.136L252.067 852.802Z" fill="#CF51A2"/>
<path d="M281.525 809.288C274.045 814.532 263.734 812.715 258.495 805.242C253.256 797.763 255.068 787.454 262.542 782.216C270.022 776.972 280.333 778.789 285.572 786.262C290.811 793.735 289.006 804.044 281.525 809.288Z" fill="#CF51A2"/>
<path d="M307.246 931.507L353.444 927.371L354.69 938.169L310.465 950.975L307.246 931.507Z" fill="#CF51A2"/>
<path d="M358.212 918.668C350.732 923.912 348.92 934.222 354.165 941.694C359.41 949.173 369.722 950.985 377.196 945.741C384.676 940.497 386.488 930.187 381.243 922.715C375.998 915.242 365.692 913.43 358.212 918.668Z" fill="#CF51A2"/>
<path d="M132.163 1054.21L112.518 1096.22L122.245 1101.08L149.37 1063.88L132.163 1054.21Z" fill="#CF51A2"/>
<path d="M102.71 1097.73C110.19 1092.49 120.502 1094.31 125.741 1101.78C130.986 1109.26 129.168 1119.57 121.694 1124.81C114.214 1130.05 103.902 1128.23 98.6633 1120.76C93.4183 1113.29 95.2302 1102.98 102.71 1097.73Z" fill="#CF51A2"/>
<path d="M76.9964 975.506L30.7926 979.647L29.5469 968.849L73.7719 956.037L76.9964 975.506Z" fill="#CF51A2"/>
<path d="M26.0296 988.344C33.5098 983.106 35.3217 972.791 30.0767 965.318C24.8316 957.84 14.5204 956.028 7.04625 961.272C-0.433862 966.51 -2.24578 976.825 2.99924 984.298C8.23829 991.777 18.5495 993.589 26.0296 988.344Z" fill="#CF51A2"/>
<path d="M288.303 1019.02L330.322 1038.67L335.18 1028.94L297.97 1001.82L288.303 1019.02Z" fill="#CF51A2"/>
<path d="M331.831 1048.48C326.592 1041 328.404 1030.69 335.878 1025.45C343.358 1020.22 353.669 1022.03 358.908 1029.5C364.153 1036.98 362.335 1047.29 354.861 1052.53C347.387 1057.76 337.076 1055.95 331.831 1048.48Z" fill="#CF51A2"/>
<path d="M219.232 1066.88L223.374 1113.08L212.574 1114.32L199.76 1070.1L219.232 1066.88Z" fill="#CF51A2"/>
<path d="M232.073 1117.84C226.828 1110.36 216.516 1108.55 209.042 1113.79C201.562 1119.04 199.75 1129.34 204.995 1136.82C210.24 1144.3 220.552 1146.11 228.026 1140.86C235.506 1135.63 237.318 1125.32 232.073 1117.84Z" fill="#CF51A2"/>
<path d="M173.486 834.198L169.344 788.009L180.144 786.764L192.958 830.981L173.486 834.198Z" fill="#CF51A2"/>
<path d="M160.644 783.236C165.889 790.714 176.2 792.526 183.674 787.282C191.154 782.044 192.966 771.729 187.721 764.256C182.476 756.777 172.165 754.966 164.691 760.21C157.211 765.448 155.399 775.763 160.644 783.236Z" fill="#CF51A2"/>
<path d="M111.041 878.813L69.0217 859.166L64.1641 868.891L101.374 896.017L111.041 878.813Z" fill="#CF51A2"/>
<path d="M67.5125 849.357C72.7575 856.836 70.9397 867.145 63.4655 872.383C55.9914 877.621 45.6742 875.81 40.4351 868.337C35.1901 860.858 37.008 850.549 44.4821 845.311C51.9622 840.073 62.2734 841.884 67.5125 849.357Z" fill="#CF51A2"/>
<path d="M318.105 988.811C340.499 922.799 305.13 851.135 239.106 828.746C173.081 806.356 101.404 841.719 79.0106 907.731C56.6167 973.743 91.9861 1045.41 158.01 1067.8C224.035 1090.19 295.712 1054.82 318.105 988.811Z" fill="#E173B4"/>
<path d="M119.295 984.583C127.878 987.247 137.599 980.501 141.014 969.512C144.423 958.524 140.227 947.457 131.645 944.794C123.062 942.13 113.341 948.882 109.926 959.864C106.516 970.853 110.712 981.919 119.295 984.583Z" fill="#EDBBDE"/>
<path d="M271.068 915.377C276.456 914.06 279.454 907.397 277.767 900.503C276.08 893.602 270.34 889.085 264.952 890.402C259.564 891.719 256.566 898.381 258.253 905.276C259.94 912.177 265.68 916.7 271.068 915.377Z" fill="#EDBBDE"/>
<path d="M207.552 938.809C216.475 940.591 225.564 932.773 227.847 921.349C230.13 909.925 224.747 899.217 215.819 897.435C206.897 895.653 197.807 903.465 195.524 914.895C193.242 926.319 198.624 937.027 207.552 938.809Z" fill="#EDBBDE"/>
<path d="M230.938 1021.45C234.329 1025.84 241.637 1025.87 247.257 1021.53C252.878 1017.19 254.678 1010.11 251.286 1005.72C247.895 1001.33 240.588 1001.3 234.967 1005.64C229.353 1009.99 227.547 1017.07 230.938 1021.45Z" fill="#EDBBDE"/>
<path d="M178.28 1020.99C178.721 1015.46 173.339 1010.52 166.258 1009.96C159.177 1009.39 153.086 1013.41 152.639 1018.94C152.198 1024.47 157.58 1029.41 164.66 1029.98C171.741 1030.54 177.839 1026.51 178.28 1020.99Z" fill="#EDBBDE"/>
<path d="M196.617 876.076C197.058 870.546 191.676 865.606 184.596 865.039C177.515 864.473 171.418 868.496 170.976 874.026C170.535 879.556 175.917 884.496 182.998 885.062C190.079 885.628 196.176 881.606 196.617 876.076Z" fill="#EDBBDE"/>
<path d="M130.959 916.419C133.266 919.745 138.833 919.87 143.398 916.705C147.964 913.541 149.793 908.285 147.493 904.96C145.186 901.635 139.619 901.51 135.054 904.674C130.488 907.832 128.652 913.094 130.959 916.419Z" fill="#EDBBDE"/>
<path d="M244.691 973.966C249.793 976.797 257.077 973.418 260.969 966.416C264.861 959.414 263.877 951.441 258.781 948.61C253.68 945.78 246.396 949.158 242.504 956.16C238.612 963.162 239.589 971.136 244.691 973.966Z" fill="#EDBBDE"/>
<path d="M183.529 980.878C185.836 984.203 191.403 984.329 195.968 981.164C200.534 978 202.37 972.738 200.063 969.419C197.757 966.094 192.19 965.969 187.624 969.133C183.059 972.291 181.223 977.553 183.529 980.878Z" fill="#EDBBDE"/>
</g>
<defs>
<clipPath id="clip0_3032_6239">
<rect width="1610" height="1807" fill="white" transform="translate(0 0.765625)"/>
</clipPath>
</defs>
</svg>
