<svg width="1428" height="1825" viewBox="0 0 1428 1825" fill="none" xmlns="http://www.w3.org/2000/svg">
<path d="M1322.69 550.835V696.775C1322.69 878.692 1290.27 1036.47 1226.36 1165.69C1175.92 1267.65 1105.62 1352.51 1017.42 1417.88C938.307 1476.52 858.858 1508.59 806.141 1525.16C760.405 1539.53 726.21 1545.11 713.757 1546.83C701.304 1545.11 667.109 1539.53 621.373 1525.16C568.655 1508.59 489.207 1476.52 410.094 1417.88C321.893 1352.51 251.595 1267.65 201.153 1165.69C137.24 1036.47 104.827 878.692 104.827 696.775V442.465C191.582 423.69 276.303 397.274 357.272 363.719C432.737 332.439 505.141 294.911 572.461 252.183C636.542 211.51 683.861 173.835 713.757 147.859C743.654 173.835 790.973 211.51 855.054 252.183C910.812 287.573 970.06 319.398 1031.64 347.051L1093.29 259.657C1030.76 232.716 970.699 201.174 914.48 165.742C808.521 98.946 752.229 40.704 751.746 40.191L713.977 0L675.841 40.117C675.285 40.704 618.993 98.946 513.034 165.742C450.997 204.842 384.275 239.205 314.733 267.865C227.968 303.642 136.485 330.604 42.832 348.016L0 355.983V696.776C0 896.514 36.627 1071.05 108.863 1215.53C167.503 1332.79 249.363 1430.32 352.177 1505.41C527.112 1633.17 701.44 1651.11 708.778 1651.8L713.757 1652.28L718.736 1651.8C726.074 1651.11 900.401 1633.17 1075.34 1505.41C1178.15 1430.32 1260.01 1332.79 1318.64 1215.53C1390.89 1071.05 1427.51 896.514 1427.51 696.776V402.253L1322.69 550.835Z" fill="#283A54"/>
<path d="M855.053 252.183C791.129 211.604 743.884 174.013 713.977 148.048V0L751.746 40.191C752.228 40.705 808.52 98.947 914.48 165.742C970.699 201.174 1030.76 232.716 1093.29 259.657L1031.63 347.051C970.058 319.398 910.81 287.573 855.053 252.183Z" fill="#152435"/>
<path d="M1427.51 402.253V696.776C1427.51 896.514 1390.89 1071.05 1318.64 1215.53C1260.01 1332.79 1178.15 1430.32 1075.34 1505.41C900.401 1633.17 726.074 1651.11 718.736 1651.8L713.977 1652.26V1546.8C726.609 1545.05 760.667 1539.45 806.141 1525.16C858.859 1508.59 938.307 1476.52 1017.42 1417.88C1105.62 1352.51 1175.92 1267.65 1226.36 1165.69C1290.27 1036.47 1322.69 878.692 1322.69 696.775V550.835L1427.51 402.253Z" fill="#152435"/>
<path d="M670.491 1252.84L363.448 998.822C338.295 978.013 334.773 940.753 355.582 915.6L424.349 832.477C445.158 807.324 482.418 803.802 507.571 824.611L675.671 963.68L1210.28 205.891C1229.1 179.216 1265.98 172.847 1292.65 191.666L1380.8 253.856C1407.48 272.675 1413.85 309.555 1395.03 336.23L756.469 1241.37C736.62 1269.5 697.02 1274.78 670.491 1252.84Z" fill="#35BA83"/>
<path d="M713.975 1824.99C873.417 1824.99 1002.67 1807.11 1002.67 1785.05C1002.67 1762.99 873.417 1745.11 713.975 1745.11C554.534 1745.11 425.281 1762.99 425.281 1785.05C425.281 1807.11 554.534 1824.99 713.975 1824.99Z" fill="#D9DEE2"/>
</svg>
