<svg width="488" height="560" viewBox="0 0 488 560" fill="none" xmlns="http://www.w3.org/2000/svg">
<path d="M225.01 552.876C224.8 553.946 222.49 554.416 221.66 554.586C219.13 555.096 216.55 554.776 213.99 554.896C207.16 555.216 200.32 555.296 193.49 555.346C186.29 555.396 179.09 555.296 171.89 555.396C122.93 556.066 103.09 555.816 103.16 552.216C103.22 548.946 123.9 549.506 125.8 549.456C144.94 549.006 164.09 549.086 183.24 548.806C194.26 548.646 205.36 548.576 216.39 549.196C218.26 549.306 220.17 549.436 221.91 550.136C222.79 550.486 225.23 551.656 225.01 552.876Z" fill="#807890"/>
<path d="M146.692 526.116C146.692 526.116 154.272 520.386 157.382 506.356C157.902 503.996 112.832 445.916 112.672 437.016C120.852 437.046 144.522 422.726 152.702 422.616C151.002 430.266 166.352 472.376 177.322 498.376C182.762 511.256 186.422 519.606 186.422 519.606L146.692 526.116Z" fill="#903B16"/>
<path d="M192.361 536.226C192.361 536.226 132.271 549.016 119.531 548.386C118.111 548.316 117.411 546.806 117.911 544.286C118.381 541.886 119.451 539.246 120.561 538.076C122.841 535.676 135.991 529.186 140.451 523.726C144.911 518.266 148.421 510.936 152.101 508.976C155.791 507.026 159.341 508.476 160.751 508.916C162.151 509.366 167.191 515.926 171.841 515.896C178.661 515.856 180.191 507.646 182.891 507.886C184.561 508.036 188.061 516.916 190.521 524.436C192.041 529.046 192.381 533.146 192.361 536.226Z" fill="#5EA093"/>
<path d="M193.12 536.776C193.12 536.776 131.74 549.776 118.99 549.146C117.57 549.076 117.421 546.806 117.921 544.286C123.671 543.676 159.871 539.396 163.291 537.576C166.981 535.626 168.991 531.206 172.031 529.356C174.471 527.866 185.511 525.166 190.751 524.446C192.261 529.056 193.14 533.696 193.12 536.776Z" fill="white"/>
<path d="M170.122 539.496C170.122 539.496 172.022 553.286 171.422 553.896C170.822 554.506 124.912 556.346 123.702 554.506C122.492 552.666 123.702 547.756 123.702 547.756L150.882 535.486L170.122 539.496Z" fill="white"/>
<path d="M164.171 525.066C164.171 525.066 167.191 523.836 168.401 526.906C169.611 529.976 170.821 545.926 170.821 545.926C170.821 545.926 164.781 545.316 162.971 547.766C161.161 550.216 158.141 540.406 158.141 540.406L164.171 525.066Z" fill="#7EB3A8"/>
<path d="M147.102 459.106L147.562 541.936C147.562 541.936 163.262 545.616 165.082 529.666C165.772 523.596 169.002 510.306 172.772 495.376C173.092 494.116 179.742 467.696 180.942 455.416C172.482 459.106 147.102 459.106 147.102 459.106Z" fill="#9A4B28"/>
<path d="M146.052 520.776C146.052 520.776 156.322 518.936 158.132 520.776C159.942 522.616 160.852 530.896 162.062 531.516C163.272 532.126 163.992 531.636 164.842 530.966C165.692 530.296 170.522 545.626 170.522 545.626C170.522 545.626 165.692 545.626 164.482 546.856C163.272 548.086 162.062 550.536 159.652 550.536C157.232 550.536 139.722 550.536 139.722 550.536L123.412 549.926C123.412 549.926 122.812 545.016 126.432 543.176C128.382 542.186 133.072 540.106 136.702 533.356C140.312 526.596 144.242 520.776 146.052 520.776Z" fill="#7EB3A8"/>
<path d="M77.9901 360.946C80.6201 373.866 124.08 479.926 130.21 490.636C134.09 497.446 145.06 494.196 145.06 494.196C145.06 494.196 145.34 501.856 145.36 501.866C155.63 505.596 185.24 502.476 190.68 498.186C192.73 490.046 189.44 385.446 188.81 371.276C188.68 368.436 188.76 365.856 188.97 363.166C189.05 358.526 189.28 353.886 189.43 349.246C189.7 340.346 189.94 334.716 190.89 325.846C191.84 317.016 192.9 308.216 193.2 299.326C193.51 290.426 194.51 281.506 194.39 272.596C194.26 262.906 193.31 233.566 185.97 215.746L121.55 205.776C104.24 263.436 74.6001 344.316 77.9901 360.946ZM126.86 363.606C127.14 360.776 139.56 315.266 139.84 314.296C139.84 314.296 139.9 324.646 139.98 325.646C139.98 325.666 139.99 325.686 139.99 325.706C140.64 333.636 146.2 398.366 146.2 412.166C146.2 412.166 140.31 398.586 135.48 389.806C129.88 379.636 126.26 369.736 126.86 363.606Z" fill="#7EB3A8"/>
<path d="M137.669 279.926C144.869 280.956 174.079 284.406 181.439 285.416C185.589 285.986 189.729 286.576 193.869 287.156C194.179 282.296 194.449 277.446 194.379 272.586C194.249 262.896 193.299 233.556 185.959 215.736L121.539 205.766C115.219 226.826 107.259 250.976 99.8594 273.976C104.499 274.396 129.639 278.776 137.669 279.926Z" fill="#5EA093"/>
<path d="M139.98 310.916C139.87 301.236 139.52 298.526 138.55 288.896C138.26 285.996 136.49 286.666 136.46 288.826C136.37 296.566 136.85 296.876 137.1 304.616C137.34 311.956 137.26 319.106 138.24 326.426C138.3 326.846 138.42 327.336 138.82 327.456C139.18 327.566 139.57 327.256 139.68 326.896C139.97 325.986 139.86 324.226 139.9 323.256C139.95 321.896 139.82 320.756 139.86 319.396C139.97 316.676 140.01 313.636 139.98 310.916Z" fill="#5EA093"/>
<path d="M170.82 236.296C173.95 242.466 178.33 247.626 183.78 251.856C185.08 252.866 184.11 254.106 182.76 253.116C176.9 248.826 171.45 244.336 168.13 237.866C167.21 236.086 169.91 234.506 170.82 236.296Z" fill="#849DAD"/>
<path d="M137.48 293.306C137.62 292.666 136.63 292.376 136.5 293.026C134.28 303.876 115.28 351.586 113.25 356.386C111.92 359.546 109.64 364.116 108.49 370.916C108.18 372.746 108.42 374.706 110.19 375.646C110.84 375.996 111.57 376.146 112.3 376.166C112.94 376.186 113.88 375.866 114.47 376.206C114.75 376.366 114.92 376.676 114.99 376.996C115.16 377.846 114.66 378.666 114.33 379.426C113.97 380.246 113.58 381.056 113.31 381.916C112.77 383.606 112.95 388.346 114.51 389.376C115.15 389.796 115.71 388.786 115.1 388.356C113.24 387.046 114.78 381.176 115.52 379.696C116.1 378.536 116.68 376.676 115.6 375.616C114.97 375.006 113.96 374.906 113.14 374.946C112.02 375.006 110.76 374.956 110.04 373.936C108.71 372.086 110.26 368.446 110.84 366.496C112.16 361.926 133.18 313.486 137.48 293.306Z" fill="#6AA79B"/>
<path d="M142.2 442.456C138.19 434.436 133.97 426.536 130.12 418.436C126.28 410.336 122.62 402.146 119.15 393.876C118.91 393.316 117.93 393.726 118.17 394.296C120.95 401.006 124.46 409.176 128.99 418.766C132.85 426.936 136.77 435.176 141.23 443.026C141.6 443.666 142.52 443.106 142.2 442.456Z" fill="#6AA79B"/>
<path d="M145.181 390.966C145.071 389.526 142.881 389.496 142.951 390.966C143.981 411.476 144.611 466.856 144.921 487.366C144.951 489.036 147.371 489.016 147.461 487.366C148.581 467.006 146.751 411.266 145.181 390.966Z" fill="#FFF0DE"/>
<path d="M127.788 95.7659C127.788 95.7659 115.998 101.816 107.798 107.956C99.5984 114.106 96.5283 123.326 96.5283 131.526C96.5283 139.726 93.8183 174.086 93.0383 173.966C88.1383 173.226 79.0483 161.476 75.2783 159.876C73.2583 159.016 47.1484 176.936 48.4284 178.386C60.8784 192.436 71.8983 200.336 83.8483 215.776C88.3683 221.616 102.058 231.096 109.718 228.036C113.528 226.516 122.148 204.276 122.148 204.276L127.788 95.7659Z" fill="#7EB3A8"/>
<path d="M63.5989 173.236C63.5989 173.236 51.4889 181.476 48.4189 178.386C45.1889 175.136 55.5889 164.196 55.5889 164.196L63.5989 173.236Z" fill="#391715"/>
<path d="M75.4179 160.456C73.3679 159.426 65.1879 153.256 65.1879 153.256C65.1879 153.256 60.0979 141.966 58.0579 138.896C57.2279 137.646 55.0279 136.046 52.6579 134.736L52.7779 134.726C52.7779 134.726 42.0579 126.186 38.0279 126.786C35.4279 127.176 35.8678 132.856 37.5778 136.726C36.2178 137.286 34.4779 138.396 34.7379 140.276C35.1579 143.296 34.0079 142.566 33.2879 144.586C32.7079 146.206 34.4679 151.356 36.4979 154.716C36.4979 154.886 36.4979 155.066 36.4979 155.236C36.4879 157.286 43.6479 161.406 44.6779 162.436C45.6979 163.466 58.4678 176.306 58.4678 176.306C71.8078 169.156 77.4679 161.486 75.4179 160.456Z" fill="#9A4B28"/>
<path d="M41.1383 156.696C41.3683 155.776 41.3783 154.856 41.1783 153.936C41.1083 153.576 40.9883 152.996 40.7783 152.636C40.9283 152.626 41.0982 152.566 41.1982 152.526C41.8782 152.266 42.2483 151.606 42.3483 150.906C42.4383 150.226 42.1683 149.616 42.0283 148.976C42.7683 149.066 43.4883 149.416 44.2583 149.036C45.0983 148.626 45.3983 147.746 45.3683 146.866C45.3183 145.756 44.8783 144.636 44.4883 143.606C44.1983 142.836 43.8783 142.096 43.4783 141.396C44.4883 141.496 45.6082 141.326 46.3182 140.546C47.1082 139.676 47.1583 138.396 47.1283 137.276C47.0883 135.906 46.7983 134.586 46.2783 133.326C46.1383 132.986 45.8382 132.756 45.4482 132.856C45.0982 132.946 44.8783 133.336 44.9783 133.686C45.3083 134.846 45.4383 136.066 45.3883 137.276C45.3683 137.806 45.3683 138.426 45.1283 138.916C44.9883 139.206 44.7282 139.316 44.4582 139.356C44.0582 139.416 43.6182 139.346 43.1982 139.246C42.6582 139.116 42.3583 138.986 41.8883 138.726C40.9683 138.206 40.2883 137.546 39.5283 136.746C39.1783 136.376 38.5583 136.356 38.1683 136.666C37.8083 136.956 37.5783 137.586 37.8983 137.996C38.9183 139.336 40.3083 140.466 41.8983 141.046C42.4983 142.796 43.3383 144.456 43.7383 146.286C43.8683 146.896 43.9983 147.726 43.1583 147.636C42.3783 147.556 41.7283 147.296 40.9383 147.486C40.5983 147.566 40.3583 147.906 40.3583 148.246C40.3483 149.056 40.8483 149.846 40.7783 150.616C40.7383 151.056 40.5883 151.016 40.2183 151.056C39.8483 151.106 39.5083 151.246 39.2883 151.556C38.8583 152.156 39.1783 152.816 39.4083 153.426C39.7683 154.356 39.7983 155.316 39.6383 156.286C39.5083 157.236 40.8883 157.676 41.1383 156.696Z" fill="#903B16"/>
<path d="M66.0994 116.856C67.3894 115.316 73.7394 120.956 72.1194 122.806L35.4594 158.106L31.3594 154.446C31.3594 154.446 64.8094 118.396 66.0994 116.856Z" fill="#EAAF4B"/>
<path d="M38.0194 150.696C37.4194 150.176 36.2394 149.706 35.7194 149.746C33.0694 152.606 31.3594 154.446 31.3594 154.446L35.4594 158.106L39.8293 153.896C39.7293 152.726 38.8994 151.456 38.0194 150.696Z" fill="white"/>
<path d="M60.5777 154.786C60.5777 154.786 56.4978 149.656 53.4278 146.566C50.3578 143.486 49.3377 142.456 48.3177 141.426C47.2977 140.396 45.2578 137.316 42.1778 140.386C39.0978 143.456 45.2277 148.596 46.2477 150.646C47.2677 152.696 48.2778 156.796 48.2778 156.796L60.5777 154.786Z" fill="#9A4B28"/>
<path d="M47.538 139.096C48.818 140.756 49.578 142.476 51.238 143.866C53.058 145.386 54.998 146.646 56.598 148.426C58.138 150.136 59.408 152.066 60.668 153.986C61.388 155.086 60.2781 155.876 59.5581 154.786C57.3681 151.446 54.448 148.896 51.268 146.456C50.248 145.676 49.218 144.896 48.338 143.946C47.378 142.906 46.928 141.466 45.988 140.466C44.998 139.416 43.6681 139.676 42.8081 140.716C42.0681 141.616 42.278 142.526 42.528 143.586C43.108 146.056 45.168 147.626 46.638 149.526C48.378 151.776 49.168 154.546 49.038 157.376C48.988 158.456 48.298 158.916 48.268 157.826C48.188 154.686 46.198 151.806 44.078 149.496C42.438 147.726 40.778 145.946 40.508 143.416C40.398 142.326 40.618 141.206 41.158 140.246C41.508 139.626 41.788 138.846 42.288 138.326C42.828 137.766 44.148 137.436 44.908 137.516C45.918 137.626 46.928 138.306 47.538 139.096Z" fill="#903B16"/>
<path d="M31.3587 154.446C31.3587 154.446 27.7787 160.556 28.7487 161.406C29.5587 162.126 34.0487 159.456 35.4587 158.106C35.4487 158.106 34.4387 155.026 31.3587 154.446Z" fill="#391715"/>
<path d="M189.409 108.386C188.849 116.936 184.989 129.666 184.269 138.206C183.199 150.916 180.869 163.236 182.419 175.956C183.179 182.256 196.229 221.356 194.399 215.246C212.799 276.766 202.549 272.576 202.549 272.576C189.729 275.376 170.199 276.896 136.499 274.156C114.899 272.406 104.009 270.306 99.8591 267.286C96.5191 264.856 110.879 226.976 111.029 219.416C111.839 177.786 102.439 179.746 100.629 172.506C98.5791 164.306 99.7491 158.386 104.869 148.136C109.989 137.886 113.739 117.436 117.539 107.436C120.549 99.5259 127.799 95.7559 127.799 95.7559C127.799 95.7559 148.669 83.6558 164.519 91.4158C171.029 94.6258 189.409 108.386 189.409 108.386Z" fill="#7EB3A8"/>
<path d="M197.92 239.116C191.94 237.646 185.8 236.786 179.74 235.686C173.66 234.586 167.58 233.486 161.52 232.316C160.46 232.116 160 233.716 161.07 233.946C167.19 235.286 173.31 236.596 179.46 237.786C185.49 238.946 191.57 240.256 197.68 240.826C198.67 240.916 198.86 239.346 197.92 239.116Z" fill="#5EA093"/>
<path d="M116.909 233.126C113.589 233.676 110.339 234.416 107.119 235.336C106.959 235.876 106.789 236.426 106.629 236.976C110.139 235.966 113.699 235.116 117.269 234.426C118.129 234.266 117.759 232.986 116.909 233.126Z" fill="#5EA093"/>
<path d="M197.88 227.336C196.85 223.616 195.7 219.606 194.4 215.246C195.36 218.466 192.189 209.106 188.859 198.616L149.52 205.056C149.52 205.056 151.69 218.766 197.88 227.336Z" fill="#5EA093"/>
<path d="M172.911 21.6759C171.741 23.1259 170.881 24.6859 169.471 25.9659C168.091 27.2159 166.461 28.2359 164.711 28.8659C163.081 29.4559 161.361 29.7259 159.631 29.7359C161.141 29.0559 162.511 28.0159 163.611 26.7559C167.721 22.0459 168.341 15.0059 165.881 9.37595C163.251 3.36595 156.711 -1.04405 150.411 0.215946C134.071 3.48595 136.101 16.0059 137.741 18.9759C125.811 17.8359 115.411 22.8259 114.191 29.2659C104.691 33.0559 93.8109 43.3959 110.321 58.1359C117.271 64.3459 128.741 62.8159 128.741 62.8159C128.741 62.8159 153.381 76.0759 155.521 67.7759C162.591 52.3159 166.191 40.4559 157.011 31.3659C157.441 31.4559 157.871 31.5259 158.291 31.5759C160.641 31.8759 163.041 31.6859 165.291 30.9259C167.271 30.2559 169.111 29.2059 170.701 27.8559C172.261 26.5259 174.011 24.6559 174.601 22.6559C174.851 21.7359 173.561 20.8659 172.911 21.6759Z" fill="#391715"/>
<path d="M129.843 70.5959C131.063 75.6759 136.763 84.4859 135.513 87.5459C135.493 87.5859 135.473 87.6259 135.443 87.6659C135.113 88.2259 133.923 90.0559 132.313 91.8659C131.883 92.3559 128.273 95.3159 127.793 95.7659C125.913 101.916 127.903 122.496 130.643 127.556C131.423 128.996 135.083 118.146 142.903 109.676C150.693 101.226 157.153 96.6259 160.783 93.8759C162.063 92.9059 163.323 92.0659 164.523 91.4359C161.983 89.0159 159.553 86.3759 158.563 84.4159C155.533 78.4859 153.493 65.8459 152.423 57.5659C144.893 61.2959 136.963 64.1359 129.113 67.1059C129.283 68.1159 129.523 69.2759 129.843 70.5959Z" fill="#9A4B28"/>
<path d="M135.51 87.5459C135.49 87.5859 135.471 87.6259 135.441 87.6659C155.151 82.5059 148.651 59.8459 148.651 59.8459L129.73 69.8559C130.95 74.9459 136.76 84.4859 135.51 87.5459Z" fill="#1A1A1A"/>
<path d="M111.542 56.4058C112.582 59.7958 115.662 85.2958 131.202 85.2358C138.932 85.2058 148.452 78.0158 151.582 69.1858C152.632 66.2458 152.242 65.4858 152.982 61.9958C152.982 61.9958 160.802 60.0658 157.212 51.7058C155.452 47.6058 150.932 46.6658 149.072 49.3758C147.532 51.6158 146.942 54.5658 146.942 54.5658C146.942 54.5658 146.632 56.8158 141.462 54.1658C139.702 53.2658 136.982 49.1658 136.132 49.4858C124.832 53.7258 116.692 48.6858 111.672 44.4658C111.672 44.4658 110.172 51.9458 111.542 56.4058Z" fill="#9A4B28"/>
<path d="M129.53 58.676C129.77 58.336 130.09 58.126 130.5 58.146C130.55 58.136 130.59 58.136 130.64 58.136C130.66 58.136 130.67 58.126 130.69 58.126C130.71 58.126 130.72 58.136 130.74 58.136C132.15 58.176 132.95 60.126 132.52 61.276C132.49 61.546 132.41 61.796 132.22 61.966C132.03 62.136 131.77 62.216 131.5 62.226C131.48 62.236 131.46 62.256 131.43 62.266C130.81 62.446 130.28 62.096 129.92 61.536C129.15 60.776 128.97 59.486 129.53 58.676Z" fill="#1A1A1A"/>
<path d="M112.369 61.3759C112.769 60.5359 113.839 60.3259 114.699 60.9259C114.779 60.9759 114.849 61.0459 114.909 61.1059C115.139 61.3159 115.299 61.5959 115.349 61.9059C115.359 61.9459 115.359 61.9759 115.369 62.0159C115.369 62.0259 115.369 62.0359 115.379 62.0459C115.409 62.5859 115.439 63.1459 115.219 63.6259C114.809 64.5459 113.589 64.4859 112.829 63.7459C112.159 63.0959 112.019 62.0859 112.369 61.3759Z" fill="#1A1A1A"/>
<path d="M120.732 69.2459C120.702 68.7459 121.082 68.3559 121.572 68.3959C122.052 68.4359 122.532 68.4859 123.012 68.5259C123.502 68.5659 123.942 69.0259 123.972 69.5259C124.002 70.0259 123.622 70.4159 123.132 70.3759C122.652 70.3359 122.172 70.2859 121.692 70.2459C121.202 70.1959 120.762 69.7459 120.732 69.2459Z" fill="#8A3C1D"/>
<path d="M125.45 51.486C126.75 51.736 128.05 51.786 129.35 52.106C130.67 52.426 131.96 52.906 133.27 53.266C134.45 53.596 134.27 55.336 133.08 55.006C131.77 54.636 130.48 54.156 129.16 53.846C127.86 53.536 126.56 53.476 125.26 53.226C124.06 52.996 124.25 51.256 125.45 51.486Z" fill="#391715"/>
<path d="M110.411 56.7258C110.921 55.7558 111.701 55.3158 112.621 54.8558C113.591 54.3758 114.601 56.0558 113.621 56.5358C113.011 56.8358 112.351 57.0758 112.011 57.7258C111.491 58.7158 109.891 57.7258 110.411 56.7258Z" fill="#391715"/>
<path d="M125.441 75.2059C125.441 75.2059 130.831 74.4659 132.701 73.5859C133.151 75.1259 133.531 80.0859 130.911 80.4359C127.521 80.8859 125.441 75.2059 125.441 75.2059Z" fill="white"/>
<path d="M182.022 108.076C178.202 105.586 171.612 101.056 166.332 98.046C167.812 97.256 169.622 96.196 171.142 95.406C170.002 94.616 169.912 94.616 169.592 94.406C164.852 96.986 161.592 98.596 157.922 101.786C154.152 105.056 149.522 109.676 145.312 113.986C144.522 114.796 145.472 115.386 146.262 114.556C149.682 110.956 154.702 106.826 157.882 103.756C160.062 101.646 162.932 99.936 165.482 98.476C169.712 101.186 177.142 105.996 181.392 108.616C182.162 109.086 182.742 108.546 182.022 108.076Z" fill="#5EA093"/>
<path d="M122.67 108.366C122.49 104.896 122.05 102.156 122.36 98.7158C121.97 98.9258 121.39 99.2658 121.27 99.3358C121.05 100.266 121.4 105.096 121.94 108.566C122 108.896 122.7 108.896 122.67 108.366Z" fill="#5EA093"/>
<path d="M137.85 19.1559C137.85 19.1559 141.81 19.5759 147.58 23.7659C155.06 29.2059 156.69 32.1459 157.86 31.8559C159.03 31.5659 157.08 25.9759 152.78 21.9659C148.48 17.9559 139.76 14.9059 137.16 15.2359C134.56 15.5559 137.1 17.0259 136.12 17.1259C135.14 17.2059 135.46 18.9559 137.85 19.1559Z" fill="#5EA093"/>
<path d="M155.111 209.536C157.361 209.946 191.811 210.426 198.981 207.346C206.151 204.276 215.371 201.196 218.451 191.976C221.521 182.756 216.401 177.636 214.351 175.586C212.301 173.536 216.401 169.436 215.371 165.336C214.351 161.236 212.301 161.236 208.201 156.116C204.101 150.996 202.051 139.726 200.001 126.406C199.101 120.516 196.781 116.226 194.491 113.266C194.021 112.676 193.561 112.116 193.101 111.626C190.751 109.076 188.741 107.956 188.741 107.956C179.491 112.026 173.181 126.526 170.781 136.966C170.631 137.636 170.481 138.276 170.371 138.906C169.761 142.076 169.551 144.726 169.791 146.386C170.811 153.556 181.391 171.326 180.371 173.376C180.371 173.376 154.121 174.046 151.941 177.776C148.911 182.936 149.111 208.436 155.111 209.536Z" fill="#7EB3A8"/>
<path d="M159.769 175.926C159.819 175.846 159.879 175.786 159.939 175.726C160.529 175.196 161.789 175.046 162.539 174.896C164.299 174.546 166.159 174.466 167.909 174.266C171.299 173.896 174.689 173.516 178.079 173.146C178.749 173.076 178.749 173.076 179.419 172.996C178.259 161.376 173.509 149.666 175.409 137.756C175.799 135.296 178.339 137.006 178.019 139.446C176.539 150.926 181.539 161.426 181.949 172.726C186.059 172.206 196.249 171.526 200.329 170.736C202.549 170.306 200.529 172.996 198.359 173.446C192.739 174.606 184.719 175.546 179.019 176.116C175.539 176.456 172.059 176.786 168.579 177.106C167.119 177.236 165.659 177.376 164.189 177.506C162.799 177.626 161.289 177.946 159.929 177.646C159.839 177.626 159.739 177.606 159.669 177.536C159.259 177.186 159.459 176.376 159.769 175.926Z" fill="#5EA093"/>
<path d="M170.368 138.906C170.668 139.296 171.298 139.386 171.658 138.846C175.148 133.616 176.878 127.416 180.498 122.246C183.248 118.336 189.168 112.646 194.498 113.266C194.028 112.676 193.568 112.116 193.108 111.626C189.218 111.866 185.228 114.436 182.448 117.126C176.948 122.446 173.958 130.086 170.778 136.966C170.618 137.326 170.448 137.686 170.288 138.036C170.128 138.376 170.188 138.686 170.368 138.906Z" fill="#6AA79B"/>
<path d="M125.299 191.666C124.139 191.146 123.039 190.356 122.479 189.226C121.919 188.086 122.039 186.546 123.009 185.736C123.399 185.406 123.889 185.216 124.369 185.036C125.699 184.536 127.039 184.026 128.369 183.526C128.879 183.336 129.459 183.146 129.949 183.366C130.209 183.486 130.399 183.696 130.589 183.906C132.129 185.586 133.899 187.646 133.539 190.106C133.249 192.046 131.409 192.596 129.679 192.596C128.179 192.606 126.669 192.286 125.299 191.666Z" fill="#914123"/>
<path d="M160.458 192.606C160.458 192.606 158.538 181.386 154.958 178.096C151.388 174.806 150.698 183.096 151.978 189.966C153.258 196.826 160.458 192.606 160.458 192.606Z" fill="#391715"/>
<path d="M157.318 186.936C157.318 186.936 146.688 179.296 143.498 177.166C138.508 173.836 131.898 178.586 128.418 182.046C127.658 182.806 126.918 183.626 126.518 184.616C126.118 185.616 126.108 186.826 126.748 187.696C127.478 188.686 128.858 189.036 129.538 190.066C130.008 190.786 130.048 191.706 130.418 192.486C130.758 193.206 131.398 193.776 132.148 194.046C132.748 194.256 133.418 194.286 133.948 194.626C134.938 195.246 135.068 196.606 135.548 197.666C136.208 199.156 137.748 200.216 139.378 200.316C139.908 200.346 140.458 200.286 140.948 200.496C141.738 200.836 142.068 201.756 142.498 202.506C142.948 203.306 143.678 204.036 144.538 204.386C145.558 204.796 150.458 205.856 154.698 206.856C157.688 207.556 161.458 204.046 161.228 199.106C160.968 193.836 160.048 188.126 157.318 186.936Z" fill="#9A4B28"/>
<path d="M141.98 178.306C145.35 181.126 144.27 185.236 146.61 188.586C147.6 190.006 148.72 191.276 149.35 192.916C150.14 194.966 150.28 197.216 150.32 199.386C150.34 200.656 148.46 200.626 148.37 199.386C148.2 197.186 148.15 194.886 147.14 192.876C146.42 191.446 145.28 190.286 144.43 188.946C142.51 185.916 144.78 182.316 141.91 179.826C140.98 179.026 141.06 177.536 141.98 178.306Z" fill="#903B16"/>
<path d="M111.707 202.076C111.357 197.316 111.087 192.456 110.247 187.766C109.487 183.516 105.007 176.316 104.897 176.136C102.597 172.566 101.657 168.566 101.897 164.346C102.167 159.756 103.587 155.256 104.977 150.906C106.337 146.646 107.807 142.426 109.077 138.136C109.707 136.006 110.257 133.836 110.707 131.666C111.147 129.566 111.687 127.256 111.527 125.106C111.487 124.536 110.717 124.416 110.527 124.966C109.767 127.266 109.477 129.756 108.857 132.106C108.267 134.336 107.577 136.536 106.867 138.726C105.417 143.206 103.767 147.616 102.367 152.106C100.817 157.066 99.2273 163.056 99.8173 168.526C100.607 176.606 106.297 181.646 107.407 185.516C108.707 190.056 108.797 195.046 109.177 199.736C109.557 204.546 109.817 209.376 109.677 214.196C109.517 219.716 108.757 225.206 107.177 230.506C106.757 231.906 108.897 232.476 109.347 231.106C112.427 221.766 112.417 211.776 111.707 202.076Z" fill="#5EA093"/>
<path d="M104.298 185.896C102.898 183.996 101.018 182.416 99.4082 180.696C97.7782 178.966 96.1881 177.206 94.5981 175.446C91.3981 171.926 88.1382 168.486 84.2982 165.656C83.6282 165.166 82.7882 166.256 83.4082 166.806C86.9482 169.946 90.1781 173.426 93.3381 176.946C94.8781 178.676 96.4081 180.416 97.9881 182.106C99.5781 183.806 101.208 185.756 103.218 186.966C103.858 187.366 104.788 186.556 104.298 185.896Z" fill="#FDE6D7"/>
<path d="M343.59 222.666V285.346H475.2V555.306H12.25V221.896L343.59 222.666Z" fill="#FCFAFA"/>
<path d="M317.301 217.166C319.341 211.866 335.471 167.986 332.741 166.896C329.541 165.616 266.981 165.296 264.231 166.896C261.781 168.326 250.421 211.646 249.331 212.736C248.241 213.826 218.131 213.286 215.951 214.376C214.681 215.006 214.531 216.246 214.631 217.176H317.301V217.166Z" fill="#9BADBD"/>
<path d="M482.31 559.286H5.28003C2.36003 559.286 0 558.926 0 556.006C0 553.086 2.36003 552.886 5.28003 552.886H482.31C485.23 552.886 487.59 553.086 487.59 556.006C487.59 558.926 485.22 559.286 482.31 559.286Z" fill="#807890"/>
<path d="M343.74 228.286H12.0097C8.7897 228.286 6.17969 225.676 6.17969 222.456C6.17969 219.236 8.7897 216.626 12.0097 216.626H343.74C346.96 216.626 349.57 219.236 349.57 222.456C349.57 225.676 346.96 228.286 343.74 228.286Z" fill="#CEA78D"/>
<path d="M477.98 291.166H341.311C338.091 291.166 335.48 288.556 335.48 285.336C335.48 282.116 338.091 279.506 341.311 279.506H477.98C481.2 279.506 483.811 282.116 483.811 285.336C483.811 288.566 481.2 291.166 477.98 291.166Z" fill="#CEA78D"/>
<path d="M97.3413 449.386C131.804 449.386 159.741 417.155 159.741 377.396C159.741 337.637 131.804 305.406 97.3413 305.406C62.8787 305.406 34.9414 337.637 34.9414 377.396C34.9414 417.155 62.8787 449.386 97.3413 449.386Z" fill="#CEA78D"/>
<path d="M78.4796 425.016C78.4796 425.016 57.7196 433.166 56.6996 413.776C55.6796 394.376 76.9396 394.766 80.8596 384.556C84.7796 374.346 102.49 366.216 111.87 383.286C119.66 397.466 124.71 395.036 128.73 398.326C138.06 405.946 140.53 428.186 122.86 428.336C105.19 428.486 101.86 418.196 78.4796 425.016Z" fill="#FCFAFA"/>
<path d="M50.4403 350.916C50.4403 350.916 47.1603 386.636 57.4203 389.366C67.6803 392.096 73.4303 385.046 73.0203 375.436C72.6103 365.836 52.4903 327.796 50.4403 350.916Z" fill="#FCFAFA"/>
<path d="M145.229 354.616C145.229 354.616 148.509 390.336 138.249 393.066C127.989 395.796 122.239 388.746 122.649 379.136C123.069 369.536 143.179 331.496 145.229 354.616Z" fill="#FCFAFA"/>
<path d="M81.0598 320.066C74.1398 328.086 70.6697 365.216 81.4897 368.096C92.3097 370.976 97.7398 359.616 97.3098 349.486C96.8798 339.356 87.9898 312.036 81.0598 320.066Z" fill="#FCFAFA"/>
<path d="M119.21 323.516C125.58 340.996 126.1 365.196 115.28 368.076C104.46 370.956 102.69 360.256 103.13 350.136C103.56 340.006 112.84 306.036 119.21 323.516Z" fill="#FCFAFA"/>
<path d="M27.6 216.626C22.25 216.626 22.25 209.836 22.25 209.836H97.33C97.33 209.836 97.93 213.986 101.73 215.306C105.53 216.626 147.12 213.236 147.12 213.236L146.19 216.626C146.2 216.626 30.74 216.626 27.6 216.626Z" fill="white"/>
</svg>
