<svg width="1971" height="1916" viewBox="0 0 1971 1916" fill="none" xmlns="http://www.w3.org/2000/svg">
<g clip-path="url(#clip0_3033_6677)">
<path opacity="0.4" d="M1971 1849.81C1971 1849.81 1529.76 1916 985.5 1916C441.242 1916 0 1849.81 0 1849.81C0 1849.81 441.242 1783.61 985.5 1783.61C1529.76 1783.61 1971 1849.81 1971 1849.81Z" fill="#BCBEC0"/>
<path d="M193.309 833.285C193.309 833.285 183.521 843.218 215.305 846.81C215.305 846.81 127.284 891.123 116.689 915.57C106.094 940.017 128.933 944.085 128.933 944.085C128.933 944.085 106.094 1002.77 129.74 1033.74C153.386 1064.71 180.405 1048.25 180.405 1048.25C275.245 1174.3 388.928 874.812 388.928 874.812C388.928 874.812 300.907 784.391 193.309 833.285Z" fill="#CCC4C4"/>
<path d="M849.711 1577.7L861.332 1828.29H897.406L910.97 1574.03L849.711 1577.7Z" fill="#CCC4C4"/>
<path d="M854.623 1853.58L860.892 1822.32L899.238 1806.52C899.238 1806.52 950.783 1821.36 956.502 1853.54H854.623V1853.58Z" fill="#483938"/>
<path d="M733.57 1577.7L745.192 1828.29H781.265L794.83 1574.03L733.57 1577.7Z" fill="#EAE2E1"/>
<path d="M738.445 1853.58L744.714 1822.32L783.061 1806.52C783.061 1806.52 834.605 1821.36 840.324 1853.54H738.445V1853.58Z" fill="#483938"/>
<path d="M351.828 1577.7L363.449 1828.29H399.523L413.087 1574.03L351.828 1577.7Z" fill="#CCC4C4"/>
<path d="M356.74 1853.58L363.009 1822.32L401.356 1806.52C401.356 1806.52 452.9 1821.36 458.619 1853.54H356.74V1853.58Z" fill="#483938"/>
<path d="M182.311 1577.7L193.895 1828.29H229.969L243.533 1574.03L182.311 1577.7Z" fill="#EAE2E1"/>
<path d="M1009.88 1285.8C1009.88 1285.8 1000.05 1330.77 974.354 1333.23C974.354 1333.23 984.546 1377.65 974.758 1384.98C964.969 1392.31 958.444 1388.24 958.444 1388.24C958.444 1388.24 966.986 1422.47 963.32 1432.85C959.654 1443.22 949.865 1432.85 949.865 1432.85C949.865 1432.85 964.933 1470.53 959.434 1483.39C953.935 1496.22 936.008 1488.89 936.008 1488.89C936.008 1488.89 955.144 1531.92 950.269 1539.87C945.393 1547.83 929.885 1539.87 929.885 1539.87C929.885 1539.87 945.173 1576.31 937.217 1585.47C929.262 1594.63 917.641 1592.8 917.641 1592.8C917.641 1592.8 916.834 1610.1 897.881 1609.51C878.928 1608.93 861.807 1593.02 861.807 1593.02C861.807 1593.02 830.646 1605.26 819.611 1600.35C808.613 1595.47 811.656 1580.59 811.656 1580.59C811.656 1580.59 789.037 1585.29 784.748 1570C780.458 1554.72 793.729 1534.16 793.729 1534.16C793.729 1534.16 780.128 1538.08 775.802 1527.67C771.477 1517.26 790.87 1485.44 790.87 1485.44C790.87 1485.44 780.275 1484.01 779.249 1468.33C777.819 1454.25 788.01 1443.66 788.01 1443.66C788.01 1443.66 782.915 1435.93 781.082 1423.1C779.249 1410.27 808.577 1394.95 808.577 1394.95C808.577 1394.95 795.746 1398.61 789.623 1389.89C785.334 1385.6 802.455 1356.43 802.455 1356.43C802.455 1356.43 787.79 1354.59 781.045 1342.35C781.045 1342.35 759.049 1344.81 751.094 1327.69C743.138 1310.57 746.804 1302.62 746.804 1302.62C746.804 1302.62 715.716 1302.07 700.063 1273.92C684.445 1245.77 992.538 1234.78 992.538 1234.78L1009.88 1285.8Z" fill="#CCC4C4"/>
<path d="M293.465 1152.82C293.465 1152.82 254.568 1203.66 257.904 1222.5C261.24 1241.34 275.318 1229.24 275.318 1229.24C275.318 1229.24 264.943 1296.02 273.778 1305.44C282.613 1314.86 293.538 1300.79 293.538 1300.79C293.538 1300.79 277.224 1336.41 297.901 1341.33C297.901 1341.33 279.167 1392.2 291.742 1405.98C304.279 1419.76 317.88 1404.48 317.88 1404.48C317.88 1404.48 307.249 1442.3 327.999 1449.52C327.999 1449.52 300.32 1485.26 305.819 1501.17C311.281 1517.07 308.715 1503.88 308.715 1503.88C308.715 1503.88 316.634 1547.5 321.07 1562.27C325.469 1577.04 337.054 1568.32 337.054 1568.32C337.054 1568.32 326.569 1591.04 335.661 1603.79C344.752 1616.55 371.294 1610.1 371.294 1610.1C371.294 1610.1 384.822 1620 397.176 1617.76C409.531 1615.52 416.093 1603.17 416.093 1603.17C416.093 1603.17 449.674 1602.04 454.843 1589.32C459.975 1576.6 447.291 1557.25 447.291 1557.25C447.291 1557.25 459.719 1561.09 469.104 1552.11C478.489 1543.13 465.218 1498.16 465.218 1498.16C465.218 1498.16 476.253 1498.97 482.815 1486.58C489.377 1474.19 484.171 1434.79 484.171 1434.79C484.171 1434.79 507.78 1428.56 512.106 1415.36C516.432 1402.17 505.471 1355.36 505.471 1355.36C505.471 1355.36 524.277 1351.88 526.184 1342.79C528.127 1333.7 517.165 1304.45 517.165 1304.45L474.199 1209.6L293.465 1152.82Z" fill="#CCC4C4"/>
<path d="M1058.12 1094.87C1058.12 1094.87 1074.44 1105.47 1076.86 1083.47C1079.31 1061.48 1048.34 1020.73 1048.34 1020.73C1048.34 1020.73 1058.93 1023.99 1064.65 1011.75C1070.37 999.503 1038.03 944.525 1038.03 944.525L1019.41 928.581C1003.98 900.982 976.921 881.776 930.986 875.655C885.491 869.607 820.125 862.606 781.009 875.655C781.009 875.655 741.672 866.272 729.465 871.769C717.257 877.267 719.676 886.174 719.676 886.211C719.676 886.211 691.595 866.895 676.307 882.802C676.307 882.802 654.311 865.905 626.193 870.084C598.074 874.262 599.284 881.592 599.284 881.592C599.284 881.592 567.5 855.936 547.923 853.48C528.347 851.024 526.514 863.853 526.514 863.853C526.514 863.853 493.52 822.912 463.531 842.447C463.531 842.447 428.668 826.98 395.673 837.17C377.71 842.704 375.51 855.166 377.233 865.392C291.705 886.101 200.678 944.525 178.792 1055.98C162.918 1071.75 146.421 1090.88 145.761 1103.01C144.441 1126.65 164.824 1116.06 164.824 1116.06C164.824 1116.06 133.443 1193.47 141.398 1207.32C149.353 1221.18 166.474 1207.32 166.474 1207.32C166.474 1207.32 136.779 1245.59 160.278 1257.32C160.278 1257.32 123.361 1313.25 134.543 1333.37C145.724 1353.49 166.437 1338.98 166.437 1338.98C166.437 1338.98 142.938 1381.5 165.887 1396.05C165.887 1396.05 139.345 1435.19 141.435 1455.9C143.525 1476.61 162.551 1464.29 162.551 1464.29C162.551 1464.29 124.498 1510.73 125.634 1529.72C126.771 1548.74 143.158 1541.52 143.158 1541.52C143.158 1541.52 124.131 1565.89 131.463 1583.82C138.795 1601.74 172.596 1601.48 172.596 1601.48C172.596 1601.48 186.087 1617.25 201.594 1618.05C217.065 1618.86 228.503 1605.85 228.503 1605.85C228.54 1605.85 269.269 1613.98 279.021 1600.13C288.809 1586.27 279.021 1559.37 279.021 1559.37C279.021 1559.37 292.878 1567.51 306.736 1559.37C320.593 1551.23 317.331 1493.36 317.331 1493.36C317.331 1493.36 330.382 1497.43 341.783 1484.38C353.184 1471.33 358.097 1422.44 358.097 1422.44C358.097 1422.44 388.268 1421.63 397.213 1406.97C406.195 1392.31 406.232 1332.89 406.232 1332.89C406.232 1332.89 429.841 1334.03 434.717 1323.66C438.676 1315.26 436.256 1288.73 435.157 1278.8C456.933 1297.2 513.096 1336.38 621.317 1364.01V1364.05C621.317 1364.05 631.142 1409.02 656.841 1411.48C656.841 1411.48 646.649 1455.9 656.438 1463.23C666.226 1470.56 672.751 1466.49 672.751 1466.49C672.751 1466.49 664.209 1500.73 667.875 1511.1C671.542 1521.47 681.33 1511.1 681.33 1511.1C681.33 1511.1 666.262 1548.78 671.761 1561.61C677.26 1574.43 701.31 1564.28 701.31 1564.28C701.31 1564.28 686.022 1600.71 693.978 1609.88C701.933 1619.04 713.554 1617.21 713.554 1617.21C713.554 1617.21 714.361 1634.51 733.314 1633.92C752.267 1633.3 769.388 1617.43 769.388 1617.43C769.388 1617.43 800.549 1629.67 811.584 1624.76C822.582 1619.88 819.539 1605 819.539 1605C819.539 1605 842.158 1609.69 846.448 1594.41C850.737 1579.13 837.466 1558.56 837.466 1558.56C837.466 1558.56 850.92 1562.23 851.947 1546.54C853.046 1535.66 847.217 1526.9 844.541 1523.49C864.154 1513.34 855.649 1474.41 855.649 1474.41C855.649 1474.41 862.358 1478 872.146 1476.24C883.144 1470.45 884.977 1429.18 884.977 1429.18C884.977 1429.18 891.686 1437.65 907.597 1431.64C919.841 1430.43 931.682 1377.65 931.682 1377.65C931.682 1377.65 929.63 1388.24 946.75 1385.45C963.87 1382.67 978.534 1332.82 978.534 1332.82C978.534 1332.82 982.604 1345.87 995.655 1341.8C1002.62 1339.64 1008.96 1311.34 1013.4 1285.39C1060.47 1292.54 1050.28 1204.9 1050.28 1204.9C1050.28 1204.9 1068.21 1217.15 1077.3 1195.92C1086.1 1174.74 1058.12 1094.87 1058.12 1094.87Z" fill="#E8E2E2"/>
<path d="M1048.78 1010.76L974.172 1030.47C974.172 1030.47 663.697 1047.3 754.908 893.541C846.375 849.301 863.752 655.959 864.778 526.576C865.292 457.339 861.149 406.392 861.149 406.392L997.745 335.689L1088.59 406.392C1088.59 406.392 1043.64 482.959 1043.64 699.686C1043.57 703.094 1043.53 706.466 1043.53 709.802C1041.22 891.708 1048.78 1010.76 1048.78 1010.76Z" fill="#E8E2E2"/>
<path opacity="0.5" d="M1088.63 406.392C1088.63 406.392 1043.68 482.959 1043.68 699.686C1043.61 703.094 1043.57 706.466 1043.57 709.802C1036.57 714.603 1026.67 718.268 1016.84 711.781C998.991 699.979 1007.13 655.959 1007.35 654.64C1006.21 655.153 989.276 662.557 976.482 648.592C963.321 634.188 976.482 578.292 976.482 578.292C913.866 595.263 886.114 528.115 886.114 528.115C877.023 533.137 870.021 531.011 864.815 526.576C865.328 457.339 861.186 406.392 861.186 406.392L997.781 335.689L1088.63 406.392Z" fill="#CCC4C4"/>
<path d="M187.188 1853.58L193.456 1822.32L231.803 1806.52C231.803 1806.52 283.347 1821.36 289.066 1853.54H187.188V1853.58Z" fill="#483938"/>
<path d="M1790.38 996.644C1790.38 996.644 1798.59 1005 1771.9 1008.01C1771.9 1008.01 1845.84 1045.25 1854.71 1065.77C1863.62 1086.3 1844.45 1089.74 1844.45 1089.74C1844.45 1089.74 1863.62 1139 1843.75 1165.03C1823.88 1191.05 1801.19 1177.23 1801.19 1177.23C1721.53 1283.12 1626.06 1031.57 1626.06 1031.57C1626.06 1031.57 1700.01 955.594 1790.38 996.644Z" fill="#E5DBDA"/>
<path d="M1239.08 1621.9L1229.33 1832.36H1199.05L1187.64 1618.82L1239.08 1621.9Z" fill="#E5DBDA"/>
<path d="M1234.97 1853.58L1229.69 1827.34L1197.47 1814.07C1197.47 1814.07 1154.17 1826.53 1149.37 1853.58H1234.97Z" fill="#483938"/>
<path d="M1336.63 1621.9L1326.88 1832.36H1296.6L1285.2 1618.82L1336.63 1621.9Z" fill="#F7F2F2"/>
<path d="M1332.53 1853.58L1327.25 1827.34L1295.02 1814.07C1295.02 1814.07 1251.73 1826.53 1246.92 1853.58H1332.53Z" fill="#483938"/>
<path d="M1657.23 1621.9L1647.47 1832.36H1617.19L1605.79 1618.82L1657.23 1621.9Z" fill="#E5DBDA"/>
<path d="M1653.12 1853.58L1647.84 1827.34L1615.62 1814.07C1615.62 1814.07 1572.32 1826.53 1567.52 1853.58H1653.12Z" fill="#483938"/>
<path d="M1799.61 1621.9L1789.86 1832.36H1759.58L1748.18 1618.82L1799.61 1621.9Z" fill="#F7F2F2"/>
<path d="M1104.57 1376.69C1104.57 1376.69 1112.86 1414.48 1134.41 1416.54C1134.41 1416.54 1125.87 1453.85 1134.08 1460.01C1142.3 1466.16 1147.76 1462.75 1147.76 1462.75C1147.76 1462.75 1140.57 1491.49 1143.65 1500.21C1146.73 1508.94 1154.94 1500.21 1154.94 1500.21C1154.94 1500.21 1142.3 1531.88 1146.91 1542.66C1151.53 1553.43 1166.6 1547.28 1166.6 1547.28C1166.6 1547.28 1150.51 1583.41 1154.61 1590.09C1158.72 1596.76 1171.73 1590.09 1171.73 1590.09C1171.73 1590.09 1158.9 1620.69 1165.57 1628.39C1172.25 1636.08 1182 1634.55 1182 1634.55C1182 1634.55 1182.7 1649.1 1198.61 1648.58C1214.52 1648.07 1228.89 1634.73 1228.89 1634.73C1228.89 1634.73 1255.06 1644.99 1264.3 1640.89C1273.54 1636.78 1270.97 1624.28 1270.97 1624.28C1270.97 1624.28 1289.96 1628.2 1293.56 1615.38C1297.15 1602.55 1286.04 1585.25 1286.04 1585.25C1286.04 1585.25 1297.48 1588.55 1301.11 1579.79C1304.74 1571.03 1288.46 1544.34 1288.46 1544.34C1288.46 1544.34 1297.37 1543.13 1298.21 1529.98C1299.42 1518.17 1290.84 1509.27 1290.84 1509.27C1290.84 1509.27 1295.13 1502.78 1296.67 1492C1298.21 1481.23 1273.58 1468.36 1273.58 1468.36C1273.58 1468.36 1284.35 1471.44 1289.49 1464.11C1293.08 1460.52 1278.71 1436 1278.71 1436C1278.71 1436 1291.03 1434.46 1296.67 1424.2C1296.67 1424.2 1315.15 1426.25 1321.82 1411.88C1328.49 1397.51 1325.41 1390.84 1325.41 1390.84C1325.41 1390.84 1351.55 1390.37 1364.68 1366.73C1377.8 1343.08 1119.02 1333.85 1119.02 1333.85L1104.57 1376.69Z" fill="#E5DBDA"/>
<path d="M1706.28 1265.01C1706.28 1265.01 1738.94 1307.71 1736.15 1323.55C1733.37 1339.38 1721.53 1329.19 1721.53 1329.19C1721.53 1329.19 1730.25 1385.27 1722.85 1393.19C1715.44 1401.1 1706.28 1389.3 1706.28 1389.3C1706.28 1389.3 1719.95 1419.21 1702.61 1423.35C1702.61 1423.35 1718.34 1466.09 1707.82 1477.67C1697.29 1489.25 1685.86 1476.43 1685.86 1476.43C1685.86 1476.43 1694.8 1508.2 1677.35 1514.25C1677.35 1514.25 1700.59 1544.27 1695.97 1557.65C1691.39 1571.03 1693.56 1559.92 1693.56 1559.92C1693.56 1559.92 1686.88 1596.54 1683.18 1608.96C1679.48 1621.35 1669.76 1614.02 1669.76 1614.02C1669.76 1614.02 1678.56 1633.11 1670.94 1643.82C1663.31 1654.52 1640.98 1649.1 1640.98 1649.1C1640.98 1649.1 1629.62 1657.42 1619.24 1655.55C1608.87 1653.68 1603.33 1643.3 1603.33 1643.3C1603.33 1643.3 1575.11 1642.35 1570.82 1631.65C1566.49 1620.98 1577.16 1604.71 1577.16 1604.71C1577.16 1604.71 1566.71 1607.93 1558.83 1600.38C1550.95 1592.83 1562.09 1555.08 1562.09 1555.08C1562.09 1555.08 1552.82 1555.74 1547.32 1545.37C1541.78 1534.96 1546.18 1501.86 1546.18 1501.86C1546.18 1501.86 1526.35 1496.62 1522.72 1485.55C1519.05 1474.45 1528.29 1435.15 1528.29 1435.15C1528.29 1435.15 1512.49 1432.22 1510.88 1424.6C1509.26 1416.97 1518.47 1392.38 1518.47 1392.38L1554.54 1312.7L1706.28 1265.01Z" fill="#E5DBDA"/>
<path d="M1064.06 1216.38C1064.06 1216.38 1050.39 1225.28 1048.3 1206.81C1046.25 1188.34 1072.27 1154.1 1072.27 1154.1C1072.27 1154.1 1063.37 1156.85 1058.6 1146.59C1053.8 1136.33 1080.96 1090.11 1080.96 1090.11L1096.62 1076.73C1109.59 1053.57 1132.32 1037.44 1170.85 1032.27C1209.05 1027.18 1263.97 1021.31 1296.82 1032.27C1296.82 1032.27 1329.85 1024.39 1340.11 1029.01C1350.38 1033.63 1348.36 1041.1 1348.36 1041.14C1348.36 1041.14 1371.97 1024.9 1384.8 1038.28C1384.8 1038.28 1403.28 1024.1 1426.89 1027.58C1450.5 1031.1 1449.47 1037.26 1449.47 1037.26C1449.47 1037.26 1476.16 1015.7 1492.58 1013.65C1509.01 1011.6 1510.55 1022.37 1510.55 1022.37C1510.55 1022.37 1538.26 987.995 1563.45 1004.42C1563.45 1004.42 1592.7 991.404 1620.45 999.98C1635.52 1004.64 1637.39 1015.12 1635.96 1023.69C1707.78 1041.07 1784.25 1090.15 1802.62 1183.76C1815.96 1196.99 1829.82 1213.04 1830.37 1223.27C1831.47 1243.13 1814.35 1234.23 1814.35 1234.23C1814.35 1234.23 1840.71 1299.25 1834.04 1310.87C1827.37 1322.49 1812.99 1310.87 1812.99 1310.87C1812.99 1310.87 1837.92 1343.01 1818.2 1352.87C1818.2 1352.87 1849.21 1399.86 1839.83 1416.76C1830.44 1433.65 1813.03 1421.45 1813.03 1421.45C1813.03 1421.45 1832.75 1457.15 1813.51 1469.35C1813.51 1469.35 1835.8 1502.23 1834.07 1519.6C1832.35 1536.98 1816.33 1526.64 1816.33 1526.64C1816.33 1526.64 1848.3 1565.64 1847.34 1581.62C1846.39 1597.6 1832.61 1591.52 1832.61 1591.52C1832.61 1591.52 1848.59 1612 1842.43 1627.07C1836.27 1642.13 1807.9 1641.91 1807.9 1641.91C1807.9 1641.91 1796.57 1655.14 1783.56 1655.84C1770.54 1656.54 1760.97 1645.61 1760.97 1645.61C1760.97 1645.61 1726.73 1652.43 1718.52 1640.81C1710.31 1629.19 1718.52 1606.58 1718.52 1606.58C1718.52 1606.58 1706.9 1613.43 1695.24 1606.58C1683.62 1599.73 1686.33 1551.12 1686.33 1551.12C1686.33 1551.12 1675.37 1554.53 1665.8 1543.61C1656.24 1532.65 1652.13 1491.6 1652.13 1491.6C1652.13 1491.6 1626.8 1490.9 1619.28 1478.59C1611.77 1466.27 1611.73 1416.39 1611.73 1416.39C1611.73 1416.39 1591.9 1417.34 1587.79 1408.62C1584.49 1401.58 1586.51 1379.26 1587.42 1370.94C1569.13 1386.41 1521.95 1419.28 1431.07 1442.52V1442.56C1431.07 1442.56 1422.78 1480.35 1401.23 1482.4C1401.23 1482.4 1409.77 1519.71 1401.56 1525.87C1393.34 1532.03 1387.88 1528.62 1387.88 1528.62C1387.88 1528.62 1395.07 1557.36 1391.99 1566.08C1388.91 1574.8 1380.7 1566.08 1380.7 1566.08C1380.7 1566.08 1393.34 1597.75 1388.73 1608.52C1384.11 1619.3 1363.91 1610.79 1363.91 1610.79C1363.91 1610.79 1376.74 1641.4 1370.07 1649.1C1363.39 1656.79 1353.64 1655.25 1353.64 1655.25C1353.64 1655.25 1352.95 1669.8 1337.03 1669.29C1321.12 1668.78 1306.75 1655.44 1306.75 1655.44C1306.75 1655.44 1280.58 1665.7 1271.34 1661.59C1262.1 1657.49 1264.67 1644.99 1264.67 1644.99C1264.67 1644.99 1245.68 1648.91 1242.08 1636.08C1238.49 1623.26 1249.6 1605.96 1249.6 1605.96C1249.6 1605.96 1238.31 1609.03 1237.47 1595.88C1236.55 1586.71 1241.42 1579.38 1243.7 1576.52C1227.2 1567.98 1234.39 1535.33 1234.39 1535.33C1234.39 1535.33 1228.74 1538.37 1220.53 1536.87C1211.29 1531.99 1209.75 1497.35 1209.75 1497.35C1209.75 1497.35 1204.1 1504.47 1190.76 1499.41C1180.5 1498.38 1170.52 1454.07 1170.52 1454.07C1170.52 1454.07 1172.25 1462.97 1157.88 1460.63C1143.51 1458.28 1131.19 1416.43 1131.19 1416.43C1131.19 1416.43 1127.78 1427.39 1116.82 1423.94C1110.99 1422.11 1105.64 1398.36 1101.9 1376.58C1062.34 1382.6 1070.95 1308.96 1070.95 1308.96C1070.95 1308.96 1055.89 1319.22 1048.26 1301.45C1040.56 1283.45 1064.06 1216.38 1064.06 1216.38Z" fill="#F7F2F2"/>
<path d="M1134.52 1162.28L1071.91 1145.71C1071.91 1145.71 1078.47 1041.95 1076.16 884.451C1076.16 829.619 1072.72 785.489 1067.91 750.633C1056.88 669.557 1038.47 638.11 1038.47 638.11L1114.73 578.732L1229.47 638.11C1229.47 638.11 1224.97 694.005 1226.94 764.817C1229.95 871.843 1247.8 1012.95 1318.78 1047.3C1395.33 1176.46 1134.52 1162.28 1134.52 1162.28Z" fill="#F7F2F2"/>
<path d="M1226.87 764.854C1170.82 810.78 1131 767.897 1131 767.897C1106.99 787.212 1088.63 745.685 1088.63 745.685C1081.84 751.293 1072.9 751.293 1067.88 750.67C1056.84 669.594 1038.44 638.147 1038.44 638.147L1114.69 578.77L1229.44 638.147C1229.44 638.147 1224.89 694.042 1226.87 764.854Z" fill="#E8E6E6"/>
<path d="M1048.12 450.485C1049.22 460.198 1048.63 468.591 1046.83 475.958C1042.62 493.405 1031.77 504.547 1021.57 511.438C1010.28 519.025 999.724 521.444 999.724 521.444C999.724 521.444 947.374 495.641 944.294 429.116C941.251 362.665 989.423 341.187 1001.19 347.052C1012.89 352.916 999.871 370.582 1006.65 401.407C1013.4 432.159 1048.12 450.485 1048.12 450.485Z" fill="#E1D6D4"/>
<path d="M1046.83 475.958C1042.62 493.405 1031.77 504.547 1021.57 511.438C1007.57 503.264 982.018 485.781 973.88 463.276C962.552 431.682 969.444 399.574 978.755 395.799C987.92 392.06 980.332 458.181 1046.83 475.958Z" fill="#726658"/>
<path d="M1159.38 424.902C1162.64 434.138 1166.86 441.396 1171.66 447.26C1183.06 461.115 1197.69 466.393 1209.9 468.152C1223.39 470.021 1233.91 467.602 1233.91 467.602C1233.91 467.602 1269.76 421.53 1243.48 360.357C1217.23 299.257 1164.47 300.98 1156.48 311.353C1148.49 321.725 1167.96 331.915 1175.33 362.629C1182.62 393.308 1159.38 424.902 1159.38 424.902Z" fill="#F2EBEB"/>
<path d="M1171.66 447.26C1183.06 461.115 1197.69 466.393 1209.9 468.152C1218.92 454.701 1234.31 427.798 1231.75 404.01C1228.12 370.656 1207.92 344.743 1197.91 345.439C1188.05 346.063 1223.72 402.251 1171.66 447.26Z" fill="#726658"/>
<path d="M1274.38 582.324C1274.38 582.324 1297.33 624.254 1290.22 636.533C1283.14 648.738 1271.52 640.821 1271.52 640.821C1271.52 640.821 1282.89 681.322 1266.76 688.286C1250.66 695.287 1244.87 684.401 1244.87 684.401C1244.87 684.401 1244.25 723.619 1233.51 728.531C1222.77 733.442 1220.57 725.819 1220.57 725.819C1220.57 725.819 1214.74 758.879 1181.52 766.576C1148.23 774.2 1128.55 746.967 1128.55 746.967C1128.55 746.967 1129.9 754.774 1118.14 755.031C1106.33 755.324 1088.59 720.284 1088.59 720.284C1088.59 720.284 1088.19 732.599 1070.63 733.406C1053.1 734.212 1045.66 692.721 1045.66 692.721C1045.66 692.721 1038.66 704.927 1026.96 697.01C1015.2 689.166 1017.58 641.334 1017.58 641.334C1017.58 641.334 1001.12 654.896 993.712 637.046C986.527 619.636 999.431 582.177 1000.05 580.308C999.138 581.041 988.176 589.691 976.555 578.329C972.376 574.187 973.292 563.851 976.262 552.159C976.262 552.159 976.262 552.159 976.335 552.159C981.871 530.131 994.775 503.264 994.775 503.264C994.775 503.264 1016.26 453.124 1025.75 443.191C1035.25 433.295 1049 439.526 1049 439.526C1049 439.526 1050.13 426.624 1057.94 425.231C1065.75 423.875 1077.85 432.085 1077.85 432.085C1084.63 420.796 1101.93 420.063 1101.93 420.063C1101.93 420.063 1117.88 413.099 1128.88 420.356C1128.88 420.356 1129.72 418.89 1131.15 416.911C1133.86 413.026 1138.78 406.978 1143.8 405.549C1151.5 403.386 1158.1 414.492 1158.1 414.492C1158.1 414.492 1167.7 402.91 1180.61 407.711C1193.51 412.476 1234.68 448.212 1234.68 448.212C1234.68 448.212 1289.52 491.792 1283.8 507.699C1278.09 523.68 1263.46 519.721 1263.46 519.721C1263.46 519.721 1292.79 548.75 1294 568.029C1295.06 587.345 1274.38 582.324 1274.38 582.324Z" fill="#F7F2F2"/>
<path d="M1144.24 561.323C1178.99 555.019 1274.9 687.408 1177.2 712.808L1177.23 712.918C1176.76 713.028 1176.32 713.065 1175.84 713.175C1175.36 713.285 1174.96 713.431 1174.45 713.578L1174.41 713.431C1075.39 733.26 1110.22 570.816 1144.24 561.323Z" fill="#E0C1B1"/>
<path d="M1151.09 600.872C1151.09 600.872 1185.77 591.672 1186.65 606.15C1187.53 620.591 1168.76 638.66 1160.7 642.655C1151.68 642.582 1126.94 634.519 1121.4 621.14C1115.9 607.726 1151.09 600.872 1151.09 600.872Z" fill="#726658"/>
<path d="M1160.88 634.098L1156.88 635.018L1163.28 662.881L1167.28 661.961L1160.88 634.098Z" fill="#726658"/>
<path d="M1200.48 655.961C1198.72 659.48 1196.44 662.632 1193.66 664.794C1190.94 667.03 1187.75 668.02 1184.53 667.983C1181.34 667.946 1178.33 666.92 1175.55 665.161C1172.91 663.402 1170.23 660.836 1168.43 658.38L1163.6 651.746L1161.14 659.663C1160.08 663.072 1158.39 666.884 1156.26 669.852C1154.17 672.968 1151.5 675.24 1148.31 676.34C1145.05 677.33 1141.01 677.403 1137.38 676.193C1133.68 674.984 1130.12 672.601 1127.08 669.449C1128.51 673.664 1131.55 677.366 1135.55 679.968C1137.6 681.215 1139.91 682.094 1142.33 682.644C1144.79 683.121 1147.17 683.157 1149.85 682.791C1155.13 681.874 1159.56 678.429 1162.57 674.654C1165.65 670.732 1167.66 666.59 1169.06 661.752L1161.76 663.035C1164.62 666.81 1167.81 669.522 1171.81 671.722C1173.82 672.748 1175.99 673.554 1178.22 674.031C1180.5 674.434 1182.84 674.507 1185.12 674.104C1189.66 673.518 1193.91 670.842 1196.44 667.397C1199.01 663.951 1200.33 659.92 1200.48 655.961Z" fill="#726658"/>
<path d="M1084.04 571.072C1080.89 575.581 1077.7 579.539 1074.14 582.764C1070.63 585.953 1066.56 588.446 1062.56 589.618C1060.65 590.242 1058.64 590.388 1056.47 590.168C1054.31 590.095 1052.11 589.399 1049.84 588.702C1045.29 587.126 1040.75 584.744 1035.91 582.105C1038.29 587.089 1042.14 591.378 1047.02 594.457C1049.44 596.069 1052.26 597.206 1055.3 597.865C1056.8 598.268 1058.42 598.232 1060.03 598.342C1061.64 598.122 1063.29 598.085 1064.83 597.535C1070.96 595.703 1075.68 591.708 1078.98 586.943C1082.25 582.178 1084.12 576.643 1084.04 571.072Z" fill="#726658"/>
<path d="M1192.15 546.222C1194.5 551.243 1198.61 555.422 1203.63 558.281C1208.69 561.103 1214.7 562.679 1221.01 561.653C1222.66 561.469 1224.16 560.81 1225.66 560.296C1227.05 559.527 1228.52 558.83 1229.73 557.804C1232.19 555.862 1234.24 553.626 1235.71 551.133C1238.79 546.222 1240.36 540.724 1240.33 535.189C1237.1 539.661 1234.06 543.803 1230.65 547.211C1228.89 548.861 1227.24 550.437 1225.3 551.427C1223.46 552.563 1221.56 553.296 1219.58 553.589C1215.47 554.285 1210.7 553.809 1206.16 552.453C1201.54 551.06 1196.96 548.898 1192.15 546.222Z" fill="#726658"/>
<path d="M1795.51 1853.58L1790.23 1827.34L1758 1814.07C1758 1814.07 1714.71 1826.53 1709.91 1853.58H1795.51Z" fill="#483938"/>
<path d="M1075.54 163.314C1074.88 174.933 1076.2 184.866 1078.84 193.479C1085.03 213.895 1098.74 226.393 1111.35 233.87C1125.32 242.08 1138.01 244.243 1138.01 244.243C1138.01 244.243 1198.46 209.973 1197.47 130.657C1196.48 51.4872 1137.71 29.2758 1124.15 37.0461C1110.62 44.8165 1127.37 64.9021 1121.44 102.031C1115.53 139.16 1075.54 163.314 1075.54 163.314Z" fill="#E8E2E2"/>
<path d="M1078.84 193.479C1085.03 213.895 1098.74 226.393 1111.35 233.87C1127.41 223.204 1156.59 200.626 1164.69 173.32C1175.95 134.982 1165.54 97.2664 1154.21 93.4545C1143.06 89.6793 1156.63 167.786 1078.84 193.479Z" fill="#726658"/>
<path d="M941.508 140.662C938.282 151.841 933.773 160.821 928.457 168.078C915.882 185.341 898.835 192.635 884.465 195.531C868.554 198.72 855.87 196.557 855.87 196.557C855.87 196.557 810.081 144.291 837.063 69.7395C864.045 -4.70175 926.844 -6.35109 937.072 5.45102C947.263 17.2531 924.864 30.7046 918.265 67.7237C911.703 104.669 941.508 140.662 941.508 140.662Z" fill="#E8E2E2"/>
<path d="M928.456 168.078C915.882 185.341 898.835 192.635 884.464 195.531C872.806 180.173 852.679 149.275 854.036 120.796C856.016 80.8817 878.268 48.7009 890.183 48.8108C901.987 48.9208 863.458 118.194 928.456 168.078Z" fill="#726658"/>
<path d="M1124.92 458.879C1115.5 469.728 1098.08 460.748 1098.08 460.748C1098.08 460.748 1102.33 490.913 1084.08 504.548C1065.75 518.219 1048.7 506.454 1048.7 506.454C1020.95 563.852 996.423 537.535 996.423 537.535C990.484 547.578 977.433 551.793 976.297 552.123C981.833 530.095 994.737 503.228 994.737 503.228C994.737 503.228 1016.22 453.088 1025.71 443.155C1035.21 433.259 1048.96 439.49 1048.96 439.49C1048.96 439.49 1050.09 426.588 1057.9 425.195C1065.71 423.839 1077.81 432.049 1077.81 432.049C1084.59 420.76 1101.89 420.027 1101.89 420.027C1101.89 420.027 1117.84 413.063 1128.84 420.32C1128.84 420.32 1129.68 418.854 1131.11 416.875C1131.04 416.838 1134.3 448.03 1124.92 458.879Z" fill="#EDEBEB"/>
<path d="M1141.75 314.176C1142.48 315.972 1160.59 359.882 1153.18 381.213C1145.67 402.985 1125.21 387.994 1125.21 387.994C1125.21 387.994 1131.26 444.622 1117.88 454.848C1104.46 465.001 1095.37 451.036 1095.37 451.036C1095.37 451.036 1089.32 500.811 1068.42 501.104C1047.53 501.397 1046.17 486.773 1046.17 486.773C1046.17 486.773 1027.55 529.656 1013.51 530.133C999.43 530.609 1000.57 521.226 1000.57 521.226C1000.57 521.226 979.047 554.946 938.977 548.166C898.871 541.422 889.669 502.497 889.669 502.497C889.669 502.497 887.616 511.696 874.492 506.602C861.368 501.507 857.922 454.922 857.922 454.922C857.922 454.922 851.799 468.263 832.149 461.116C812.536 453.969 823.204 405.001 823.204 405.001C823.204 405.001 810.007 415.227 800.695 401.189C791.42 387.151 815.762 335.654 815.762 335.654C815.762 335.654 791.493 343.095 791.567 320.04C791.677 297.023 824.488 260.443 824.488 260.443C824.488 260.443 807.404 266.198 799.485 247.615C791.603 228.996 853.779 173.394 853.779 173.394C853.779 173.394 875.482 152.208 894.032 136.704C899.714 131.976 905.14 127.725 909.503 124.829C911.702 123.326 913.645 122.19 915.258 121.457C919.951 119.405 924.387 119.258 928.309 120.101C936.668 121.86 942.46 128.018 942.46 128.018C942.46 128.018 949.609 114.383 958.81 116.362C968.049 118.415 977.581 133.003 977.581 133.003C990.192 123.62 1009.62 130.767 1009.62 130.767C1009.62 130.767 1030.26 130.437 1039.1 143.375C1039.1 143.375 1052.84 132.783 1062.27 133.882C1071.65 135.019 1073.85 150.229 1073.85 150.229C1073.85 150.229 1089.76 141.909 1101.71 153.052C1101.86 153.198 1102.01 153.308 1102.15 153.491C1114.32 165.513 1142.66 222.252 1142.66 222.252C1142.66 222.252 1183.1 295.19 1169.5 310.181C1156.45 324.659 1142.77 314.909 1141.75 314.176Z" fill="#E8E2E2"/>
<path d="M969.001 301.749C927.245 296.654 822.47 460.711 940.37 484.095L940.333 484.242C940.92 484.352 941.433 484.352 942.019 484.462C942.606 484.572 943.083 484.718 943.669 484.828V484.682C1062.74 501.322 1010.1 310.656 969.001 301.749Z" fill="#E0C1B1"/>
<path d="M963.576 349.216C963.576 349.216 921.711 340.712 921.674 357.939C921.637 375.166 945.173 395.325 955.071 399.54C965.776 398.843 994.664 387.554 1000.27 371.244C1005.88 354.934 963.576 349.216 963.576 349.216Z" fill="#726658"/>
<path d="M954.36 389.569L948.68 423.143L953.487 423.956L959.168 390.382L954.36 389.569Z" fill="#726658"/>
<path d="M908.695 418.123C911.042 422.191 913.938 425.746 917.42 428.129C920.83 430.585 924.679 431.538 928.455 431.281C932.268 431.024 935.751 429.595 938.94 427.322C941.983 425.013 944.989 421.788 946.932 418.783L952.248 410.572L955.73 419.809C957.234 423.804 959.507 428.202 962.219 431.574C964.896 435.129 968.268 437.622 972.117 438.721C976.04 439.674 980.879 439.454 985.095 437.768C989.421 436.082 993.49 433.004 996.863 429.045C995.47 434.14 992.097 438.758 987.515 442.13C985.169 443.78 982.492 444.952 979.669 445.759C976.81 446.492 973.95 446.712 970.761 446.455C964.455 445.722 958.92 441.947 955.071 437.659C951.148 433.187 948.472 428.422 946.492 422.778L955.254 423.804C952.101 428.495 948.508 431.941 943.889 434.8C941.58 436.156 939.05 437.255 936.41 437.988C933.734 438.611 930.948 438.905 928.235 438.575C922.81 438.208 917.567 435.313 914.304 431.391C911.005 427.542 909.135 422.851 908.695 418.123Z" fill="#726658"/>
<path d="M1041.22 309.154C1045.26 314.286 1049.36 318.757 1053.8 322.386C1058.2 325.941 1063.22 328.617 1068.06 329.753C1070.37 330.339 1072.79 330.376 1075.32 329.973C1077.88 329.753 1080.45 328.763 1083.13 327.774C1088.44 325.611 1093.68 322.422 1099.26 318.977C1096.76 325.098 1092.51 330.413 1086.9 334.408C1084.15 336.497 1080.85 338.036 1077.3 339.026C1075.54 339.613 1073.59 339.686 1071.69 339.906C1069.78 339.759 1067.8 339.832 1065.93 339.283C1058.53 337.523 1052.62 333.088 1048.37 327.664C1044.12 322.239 1041.52 315.752 1041.22 309.154Z" fill="#726658"/>
<path d="M911.006 287.126C908.587 293.284 904.004 298.525 898.212 302.264C892.383 306.002 885.344 308.238 877.792 307.468C875.849 307.358 874.016 306.662 872.147 306.185C870.423 305.342 868.627 304.646 867.161 303.51C864.118 301.384 861.515 298.892 859.609 295.996C855.613 290.388 853.376 283.937 853.01 277.34C857.116 282.435 861.038 287.163 865.328 290.938C867.527 292.771 869.617 294.53 871.963 295.593C874.236 296.802 876.509 297.572 878.892 297.755C883.841 298.268 889.45 297.389 894.766 295.483C900.155 293.54 905.471 290.645 911.006 287.126Z" fill="#726658"/>
<path d="M946.603 161.628C918.228 149.019 899.825 133.772 897.552 122.886C895.279 112 930.766 122.776 938.501 119.624C938.501 119.624 918.338 98.2555 924.424 67.6873C930.509 37.0824 953.788 84.0343 970.285 88.6892C970.285 88.6892 967.646 46.2456 985.609 33.014C1003.54 19.7825 1012.08 88.6892 1012.08 88.6892C1012.08 88.6892 1030.23 58.5608 1045.51 57.901C1060.76 57.2413 1047.97 101.298 1047.97 101.298C1047.97 101.298 1080.67 88.3226 1091.45 80.2591C1102.23 72.1955 1111.5 98.9885 1070.84 127.431C1070.84 127.431 1092 122.849 1108.6 127.541C1122.57 131.426 1100.36 155.653 1068.79 161.151C1068.79 161.151 1078.25 180.43 1092.22 185.598C1106.18 190.766 1055.74 221.848 1010.5 178.378C1010.5 178.378 942.827 195.788 924.937 187.651C906.937 179.514 946.603 161.628 946.603 161.628Z" fill="#CCC4C4"/>
<path d="M1059.77 626.528C1061.2 632.539 1054.16 639.356 1044.08 641.775C1033.96 644.194 1024.62 641.262 1023.19 635.288C1021.76 629.277 1028.8 622.459 1038.88 620.04C1048.96 617.621 1058.34 620.553 1059.77 626.528Z" fill="#E27F89"/>
<path d="M1271.63 573.638C1273.06 579.649 1266.02 586.466 1255.94 588.885C1245.82 591.304 1236.48 588.372 1235.05 582.398C1233.62 576.387 1240.65 569.569 1250.74 567.15C1260.85 564.695 1270.2 567.627 1271.63 573.638Z" fill="#E27F89"/>
</g>
<defs>
<clipPath id="clip0_3033_6677">
<rect width="1971" height="1916" fill="white"/>
</clipPath>
</defs>
</svg>
