<svg width="1849" height="1807" viewBox="0 0 1849 1807" fill="none" xmlns="http://www.w3.org/2000/svg">
<g clip-path="url(#clip0_3033_17747)">
<path d="M1776.66 1167.19C1779.27 1194.43 1790.8 1218.92 1800.42 1243.98C1810.06 1269.06 1820.77 1293.64 1823.17 1321.06C1825.33 1345.68 1816.13 1368.18 1812.95 1391.75C1804.02 1457.86 1812.62 1521.95 1835.99 1584.26C1840.02 1594.98 1843.9 1605.78 1847.24 1616.73C1851.81 1631.71 1848.56 1644.71 1834.56 1652.99C1828.94 1656.32 1828.45 1659.02 1830.56 1664.71C1834.21 1674.51 1836.67 1684.73 1837.36 1695.27C1846.6 1716.3 1842.14 1737.28 1836.69 1758.09C1831.67 1777.23 1821.99 1785.14 1802.52 1785.38C1760.03 1785.92 1717.53 1786.08 1675.04 1785.34C1648.07 1784.88 1638.53 1770.45 1647.36 1744.63C1653.17 1727.63 1659.61 1710.84 1666.74 1694.35C1675.38 1665.49 1677.97 1635.65 1680.15 1605.84C1682 1580.41 1678.4 1554.97 1676.62 1529.7C1674.24 1495.93 1672.7 1462.06 1669.06 1428.35C1667.28 1411.86 1663.47 1395.95 1659.81 1379.95C1645.9 1353.69 1623 1334.65 1605.62 1312.88C1616.07 1333.4 1620.61 1355.07 1610.86 1378.99C1600.94 1403.36 1591.77 1428.13 1586.08 1453.99C1574.59 1490.69 1564.17 1527.61 1559.28 1565.88C1557.5 1579.83 1557.39 1593.75 1559.09 1607.66C1562.18 1633.04 1561.67 1658.41 1559.66 1683.82C1556.57 1695.9 1557.32 1708.5 1554.23 1720.63C1547.53 1746.95 1537.03 1757.1 1510.14 1755.16C1468.78 1752.18 1427.44 1753.36 1386.09 1752.37C1364.78 1751.86 1355.64 1738.18 1362.99 1717.94C1367.58 1705.29 1374.16 1693.45 1380.47 1681.59C1390.79 1658.91 1401.49 1636.36 1413.59 1614.55C1420.39 1602.3 1425.36 1590.4 1418.51 1576.52C1417.22 1573.92 1417.39 1570.67 1417.95 1567.65C1416.6 1555.9 1419.66 1544.94 1423.69 1534.08C1429.6 1518.12 1436.79 1502.74 1444.71 1487.72C1461.47 1455.94 1466.32 1422.36 1458.14 1387.57C1451.98 1361.33 1442.89 1335.9 1430.96 1311.58C1426.97 1303.46 1421.89 1300.61 1412.17 1300.98C1366.85 1302.71 1321.38 1305.99 1276.75 1293.23C1262 1289.01 1252.97 1296.3 1254.19 1311.43C1256.44 1339.48 1248.53 1365.04 1235.81 1389.09C1204.58 1448.14 1207.06 1507.93 1229.79 1568.58C1234.69 1581.64 1240.53 1594.32 1243.15 1608.24C1244.87 1617.35 1245.02 1626.02 1242.08 1634.76C1240.81 1644.86 1234.89 1652.87 1230.14 1661.43C1227.59 1666.02 1223.14 1669.99 1224.73 1676.14C1229.69 1710.97 1230.24 1745.86 1223.94 1780.47C1221.04 1796.36 1211.7 1803.6 1195.02 1803.2C1144.49 1801.99 1094.17 1808.23 1043.66 1806.49C1038.66 1806.32 1033.65 1806.55 1028.71 1805.53C1011.67 1802.01 1003.94 1790.67 1008.04 1773.72C1012.27 1756.21 1019.74 1739.72 1025.48 1722.67C1047.33 1657.77 1070.33 1593.15 1079.01 1524.78C1082.95 1493.67 1088.09 1462.26 1077.39 1431.26C1074.94 1424.16 1072.62 1417.01 1068.87 1410.48C1047.25 1372.79 1044.72 1334.05 1061.63 1293.89C1068.18 1278.32 1067.76 1278.08 1051.39 1274.22C1024.82 1267.96 999.965 1257.55 977.658 1241.87C967.277 1234.57 960.968 1236.59 954.869 1246.84C938.833 1273.77 920.256 1299.01 915.844 1331.84C912.587 1356.07 896.926 1375.73 882.896 1395.17C860.908 1425.65 852.008 1459.75 852.696 1496.73C853.081 1517.43 857.71 1537.34 866.542 1556.12C871.655 1566.99 876.732 1577.84 879.98 1589.46C884.278 1604.85 882.836 1619.42 872.801 1632.13C867.711 1638.57 866.025 1644.9 867.691 1652.86C872.998 1678.22 871.38 1703.58 866.706 1728.82C861.695 1755.86 851.34 1763.25 823.911 1764.71C780.037 1767.05 736.048 1766.05 692.237 1770.05C650.193 1773.89 638.68 1759.25 651.524 1719.09C655.79 1705.75 660.988 1692.76 666.564 1679.93C672.198 1662.04 678.903 1644.56 686.538 1627.44C689.677 1614.9 695.131 1603.15 699.289 1590.95C702.431 1581.73 699.558 1578.16 689.933 1578.3C672.571 1578.56 655.197 1578.57 637.836 1578.3C628.441 1578.15 623.848 1581.79 624.449 1591.41C624.791 1596.89 623.847 1602.28 622.958 1607.69C620.431 1628.38 622.75 1649.22 620.763 1669.91C619.027 1677.12 617.463 1684.11 618.02 1691.89C619.233 1708.82 611.464 1722.88 600.462 1735.13C585.843 1751.4 567.761 1762.92 547.832 1771.48C493.436 1794.85 436.448 1805.37 377.365 1806.61C311.645 1808 247.958 1799.38 187.271 1772.77C168.302 1764.45 151.34 1753.21 135.347 1740.32C130.677 1736.56 126.308 1732.24 126.978 1725.32C118.173 1712.04 114.634 1697.41 114.085 1681.53C107.228 1482.9 101.087 1284.24 92.5607 1085.69C90.1538 1029.64 70.7518 976.529 49.7217 924.641C37.7337 895.062 24.8598 865.997 6.08594 839.751C-6.73615 821.826 0.776234 800.564 22.6158 788.945C39.1949 780.124 57.8652 778.582 75.7117 774.18C79.5316 773.237 83.2757 771.989 87.0551 770.882C97.0794 761.087 109.91 761.95 122.33 761.936C237.334 761.801 352.338 761.96 467.342 761.792C490.291 761.759 513.18 762.087 536.18 759.47C577.788 754.737 617.366 766.4 656.717 778.018C660.547 779.149 664.068 781.159 667.52 783.195C691.605 797.401 700.424 819.236 691.523 845.68C678.108 885.537 666.927 925.857 661.968 967.743C657.743 1003.42 653.73 1039.13 651.738 1074.99C650.701 1093.66 652.506 1094.81 670.698 1094.95C691.198 1095.11 711.701 1094.81 732.199 1095.05C762.366 1095.41 779.057 1110.69 783.259 1140.91C785.609 1157.8 785.625 1174.68 784.963 1185.42C788.385 1159.49 784.136 1127.02 789.02 1094.87C791.619 1077.77 786.992 1061.23 782.468 1044.74C768.565 994.088 765.598 942.683 770.408 890.36C772.871 863.565 773.721 836.585 776.856 809.804C777.655 802.973 774.869 797.17 771.369 791.526C758.728 771.142 746.167 750.702 734.519 729.731C731.194 723.745 726.291 719.991 720.541 716.668C700.132 704.877 680.937 691.474 664.383 674.463C656.238 666.093 649.038 657.267 645.787 645.886C644.062 639.848 639.971 635.559 636.322 630.803C606.689 592.187 589.126 549.804 596.176 499.936C597.143 493.099 594.936 487.218 591.95 481.305C580.994 459.613 575.075 436.539 573.237 412.341C572.267 399.579 570.593 398.599 558.397 404.553C545.377 410.909 532.426 417.416 519.474 423.91C458.583 454.438 402.844 442.303 351.536 402.352C325.725 382.254 305.582 356.62 290.336 327.341C284.772 316.655 280.419 305.789 279.275 293.752C272.042 275.792 264.063 258.089 257.767 239.807C250.055 217.416 260.126 204.218 284.038 203.546C303.463 203.001 321.351 208.318 338.272 217.55C343.467 220.385 348.907 222.769 354.235 225.36C363.077 223.978 369.418 229.55 376.104 233.628C394.102 244.608 412.581 253.742 433.567 258.288C455.098 262.953 474.17 258.516 492.363 247.728C506.117 239.571 518.898 229.928 531.823 220.515C551.602 206.11 573.484 197.228 598.101 195.074C620.579 193.107 630.826 172.937 619.452 153.318C604.056 126.762 583.611 105.456 555.025 92.8371C549.142 90.2401 542.774 88.0663 539.966 81.3455C529.043 77.7792 517.964 74.9659 506.392 74.7451C497.628 74.5781 490.478 71.1229 487.403 62.8282C484.223 54.2518 486.389 46.2834 493.172 39.6298C511.898 21.2606 535.538 16.3032 560.373 15.4271C587.61 14.466 613.591 21.5608 639.332 29.5214C658.619 27.7472 672.715 39.0662 686.196 49.8006C709.136 68.0668 728.076 90.1838 738.983 117.822C743.45 129.138 750.156 133.527 761.755 131.805C790.669 127.512 819.559 129.847 848.353 132.908C858.661 134.004 861.401 127.37 864.209 120.424C874.658 94.5709 888.84 71.2782 909.753 52.4719C953.008 13.573 1004.44 -1.99936 1061.68 0.497244C1078.37 1.22476 1093.93 7.63454 1107.28 18.0641C1117.33 25.9233 1123.67 36.0035 1120.25 49.3569C1116.93 62.3702 1106.67 66.8408 1094.47 68.7175C1043.13 76.6095 1005.91 103.415 984.669 151.318C978.455 165.33 979.258 166.146 994.033 166.007C1013.36 165.825 1031.61 170.948 1049.17 178.624C1065.71 185.852 1081.48 194.718 1096.54 204.499C1129.61 225.967 1163.02 225.78 1197.64 209.023C1219.67 198.357 1240.92 185.976 1264.5 178.634C1276.13 175.013 1287.85 173.121 1299.98 174.046C1321.57 175.693 1333.87 189.998 1330.66 211.544C1324.04 256.063 1305.45 295.592 1278.17 331.106C1241.96 378.239 1192.78 400.782 1134.55 404.08C1113.05 405.299 1091.68 400.491 1071.55 392.381C1060.67 387.996 1058.24 390.332 1055.68 402.157C1048.87 433.646 1053.13 461.26 1071.44 488.523C1087.4 512.282 1094.34 540.611 1100.38 568.543C1102.73 579.392 1106.96 584.561 1118.94 585.434C1160.86 588.486 1199.83 599.659 1235.89 623.266C1269.93 645.551 1310.24 652.065 1350.13 656.706C1395.82 662.021 1441.76 664.09 1487.78 662.903C1514.78 662.207 1540.49 668.029 1565.13 678.425C1574.14 682.224 1580.68 681.811 1588.01 674.898C1600.85 662.77 1616.55 656.659 1634.42 656.966C1641.7 657.091 1647.85 654.629 1654.13 651.01C1682.12 634.869 1713.72 641.145 1732.55 667.593C1754.59 698.551 1756.04 731.918 1738.86 765.382C1733.18 776.454 1733.94 783.117 1742.12 792.847C1799.13 860.711 1817.63 938.054 1795.04 1024.14C1785.51 1060.44 1773.99 1096.21 1776.95 1134.48C1777.8 1145.38 1779.73 1156.31 1776.66 1167.19Z" fill="#373B46"/>
<path d="M1023.15 518.27C1026.24 505.734 1029.34 493.198 1032.98 478.438C1070.31 532.125 1073.8 594.594 1090.88 656.208C1093.87 646.017 1097.12 639.46 1097.5 632.742C1098.47 615.378 1107.35 613.686 1122.81 614.623C1182.77 618.256 1230.15 642.821 1263.25 693.56C1264.26 695.118 1265.67 696.421 1269.38 700.74C1267.55 688.328 1266.24 679.436 1264.61 668.318C1301.87 681.37 1340.04 684.105 1377.67 689.983C1392.41 698.463 1401.65 712.119 1411.08 725.584C1428.25 750.099 1442.43 776.529 1459.4 801.152C1463.69 807.368 1468.78 818.707 1476.17 815.162C1484.13 811.352 1477.39 800.74 1475.49 793.512C1468.4 766.515 1460.31 739.796 1451.31 713.358C1449.11 706.915 1445.63 700.297 1449.93 693.293C1462.87 693.213 1475.8 693.134 1488.74 693.054C1496.26 697.882 1499.77 705.623 1503.59 713.212C1515.08 735.995 1527.85 757.96 1545.79 776.425C1549.87 780.635 1553.53 785.578 1560.48 787.652C1563.86 781.878 1561.24 776.157 1560.01 770.822C1555.98 753.321 1550.47 736.242 1544.89 719.164C1543.05 713.518 1537.39 703.016 1552.3 704.628C1575.06 711.414 1592.94 725.385 1608.34 742.902C1615.93 751.534 1622.83 760.816 1630.8 769.064C1646.53 785.333 1665.72 794.804 1688.59 790.913C1698.2 789.279 1703.58 792.3 1709.46 798.248C1772.09 861.61 1791.25 937.896 1765.91 1021.48C1741.74 1101.18 1745.16 1176.5 1779.42 1251.55C1786.02 1265.99 1791.07 1281.21 1796.04 1296.33C1802.57 1316.22 1802.86 1336.39 1797.75 1356.84C1777.04 1439.74 1787.26 1520.19 1817.52 1598.97C1819.31 1603.62 1820.98 1608.31 1822.64 1613C1824.92 1619.45 1829.36 1626.5 1823 1632.38C1816.99 1637.94 1808.96 1636.67 1801.55 1634.93C1798.79 1634.28 1796.27 1632.58 1790.64 1629.96C1799.37 1647.76 1808.1 1662.46 1811.68 1679.32C1815.55 1697.56 1815.55 1698.05 1797.7 1698.04C1767.7 1698.02 1737.7 1697.83 1707.7 1698C1699.54 1698.05 1695.11 1698.19 1698.2 1686.87C1710.33 1642.45 1707.94 1596.75 1708.05 1551.32C1712.36 1491.72 1728.44 1433.61 1729.25 1373.44C1729.78 1334.76 1717.7 1300.92 1698.17 1268.83C1685.94 1248.72 1671.96 1229.77 1656 1212.52C1620.49 1174.14 1605.52 1128.58 1605.69 1076.97C1605.83 1035.54 1599.96 995.159 1578.5 958.733C1570.75 945.556 1564.46 931.16 1552.49 920.786C1548.82 914.503 1545.15 908.221 1539.73 898.949C1540.85 920.242 1550.47 936.188 1551.97 953.859C1552.8 967.865 1551.39 981.485 1545.35 994.391C1535.17 1016.17 1527.8 1038.93 1521.34 1062.07C1511.11 1098.67 1488.12 1111.11 1451.75 1099.76C1434.36 1094.33 1417.4 1091.59 1398.83 1094.24C1380.25 1096.89 1360.85 1097.84 1343.26 1087.57C1323.22 1075.86 1311.8 1059.55 1311.43 1035.4C1310.91 1001.48 1313.59 967.537 1309.25 933.608C1306.46 911.803 1299 891.923 1288.82 872.978C1281.97 860.229 1276.4 846.946 1270.05 834.004C1269.11 832.399 1268.2 829.433 1267.24 829.42C1262.54 829.356 1264.03 833.442 1263.88 835.956C1262.46 859.538 1263.47 883.119 1270.57 905.672C1289.06 964.372 1280.59 1021.11 1258.91 1076.74C1244.9 1112.7 1242.26 1149.86 1246.88 1187.24C1249.83 1211.07 1245.69 1232.77 1238.01 1254.57C1229.69 1278.15 1222.02 1301.48 1225.69 1327.48C1227.73 1341.92 1221.29 1355.99 1214.3 1368.78C1174.78 1441.14 1175.7 1514.59 1207.64 1589.08C1211.75 1598.67 1215.92 1608.29 1215.89 1619.11C1215.85 1636.88 1208.92 1641.82 1192.38 1635.09C1187.37 1633.05 1182.88 1629.71 1177.17 1626.39C1177.31 1635.61 1182.66 1642.38 1185.95 1649.63C1193.44 1666.17 1197.37 1683.53 1200.09 1701.31C1201.26 1708.99 1199.9 1713.25 1190.36 1713.16C1147.39 1712.73 1104.41 1712.97 1059.81 1712.97C1066.3 1692.58 1072.76 1673.02 1078.76 1653.32C1096.38 1595.45 1110.48 1536.99 1111.5 1475.96C1112 1446.29 1106.69 1418.57 1092.09 1392.55C1079.3 1369.78 1076.25 1345.59 1083.96 1320.36C1092.62 1321.05 1091.73 1328.65 1093.83 1333.93C1096.23 1323.51 1102.17 1314.9 1108.75 1306.64C1118.09 1294.91 1127.52 1283.25 1136.81 1271.48C1140.55 1266.74 1144.85 1262.42 1135.31 1258.07C1129.04 1255.21 1130.27 1247.87 1131.18 1241.84C1133.59 1225.95 1137.71 1210.41 1143.78 1195.63C1157.37 1162.58 1152.96 1131.37 1137.15 1100.33C1125.35 1077.16 1112.23 1054.69 1101.07 1031.22C1094.4 1017.2 1089.03 1002.67 1092.14 986.574C1092.84 981.314 1093.54 976.054 1094.52 968.724C1074.43 979.604 1067.41 996.376 1065.76 1016.06C1064.9 1026.33 1065.5 1036.73 1065.43 1047.07C1051.7 1062.04 1034 1063.83 1015.92 1059.84C962.785 1048.09 924.311 986.735 935.579 933.276C939.643 913.996 947.719 896.319 956.647 878.992C967.189 858.532 971.843 838.445 959.495 816.518C951.945 803.11 955.033 788.294 959.884 774.27C966.262 755.832 974.256 738.062 983.384 720.85C1007.15 676.044 1020.95 628.322 1022.59 577.744C1023.22 557.998 1021.1 538.095 1023.15 518.27Z" fill="#FCFAF8"/>
<path d="M272.322 1716.76C225.132 1710.5 181.936 1693.36 141.311 1669.02C135.656 1665.63 134.799 1660.97 134.6 1655.22C130.865 1547.43 126.733 1439.66 123.415 1331.86C122.31 1295.96 118.696 1260.11 120.259 1224.13C130.433 1224.86 131.054 1233 132.335 1240.21C138.951 1277.44 143.98 1314.93 150.056 1352.25C153.005 1370.36 156.655 1388.32 161.584 1406.12C160.192 1361.9 163.422 1317.74 160.019 1273.42C157.817 1244.74 155.396 1215.85 156.027 1186.94C156.177 1180.06 155.328 1172.75 162.089 1167.92C268.597 1170.03 375.094 1167.25 481.597 1167.19C492.327 1167.19 502.327 1170.03 512.188 1173.62C529.448 1179.91 546.622 1186.43 563.956 1194.44C431.325 1200.4 298.167 1193.15 165.55 1208.42C184.437 1209.8 203.324 1211.17 222.21 1212.55C265.932 1214.52 309.36 1219.97 352.847 1224.4C391.949 1228.39 431.594 1230.59 468.816 1245.33C511.122 1262.09 523.894 1285.88 512.618 1330.24C505.063 1359.97 502.38 1389.85 500.821 1420.43C498.23 1471.26 499.124 1522.17 495.3 1572.94C492.172 1614.45 474.559 1645.94 436.612 1665.6C386.52 1691.56 333.756 1708.85 278.144 1717.76C276.156 1718.08 274.171 1717.63 272.322 1716.76Z" fill="#F7EEDF"/>
<path d="M946.028 593.704C915.77 538.157 902.525 478.328 900.371 415.511C899.696 395.822 897.543 376.139 892.971 354.117C881.25 368.296 880.847 383.238 879.938 397.602C878.002 428.197 883.445 458.392 886.177 488.729C885.754 495.639 879.897 496.159 875.367 496.735C861.308 498.524 848.415 503.922 835.489 509.011C817.5 516.093 799.757 517.037 781.589 510.093C766.7 504.402 751.74 499.002 735.665 497.304C730.939 496.805 725.503 495.374 725.644 488.507C731.299 457.455 735.808 426.361 729.478 394.813C726.935 382.138 722.906 370.14 713.637 357.316C710.086 368.355 711.453 377.171 711.864 385.641C714.308 436.13 707.919 485.292 690.089 532.689C683.983 548.92 677.86 565.326 666.259 578.801C657.575 581.334 653.588 574.76 649.213 569.611C629.393 546.284 625.235 517.769 622.884 488.711C622.404 482.786 623.834 476.757 621.925 470.907C621.77 468.915 621.688 466.914 621.448 464.932C620.166 454.38 620.152 454.382 610.213 460.725C602.363 423.062 593.586 385.54 607.226 345.144C610.722 355.677 613.687 364.019 618.9 371.212C631.683 388.852 654.584 389.108 666.584 370.987C680.004 350.724 680.813 328.55 671.148 306.692C664.078 290.704 645.272 283.231 629.624 291.39C615.426 298.793 613.86 292.022 612.785 281.074C608.349 235.902 633.107 190.58 676.682 176.978C755.057 152.515 834.697 149.027 913.088 178.675C962.571 197.39 988.864 237.89 1008.48 284.287C1036.36 350.252 1035.25 411.342 1011.44 479.932C1006.51 477.329 1011.14 470.076 1004.41 467.847C996.401 477.96 997.155 490.45 996.809 502.358C996.142 525.248 995.677 548.09 987.289 569.86C980.558 578.982 974.482 588.813 963.018 592.936C957.454 594.938 951.869 597.444 946.028 593.704Z" fill="#FCFAF8"/>
<path d="M412.201 833.713C412.924 833.481 413.598 833.58 414.224 834.009C443.904 835.3 465.828 852.985 488.219 869.408C494.291 873.862 500.653 879.691 490.942 887.048C494.746 892.407 501.989 887.918 505.989 892.43C532.765 909.329 540.94 935.858 543.238 965.123C544.211 977.508 543.679 990.004 543.412 1002.44C542.995 1021.88 539.668 1025.43 520.403 1027.73C516.452 1028.2 512.628 1029.48 508.609 1029.63C442.242 1028.52 375.927 1024.97 309.516 1026.38C262.154 1027.39 214.895 1030.29 167.631 1033.18C162.642 1033.48 157.728 1034.58 152.88 1032.69C144.52 1028.75 143.402 1020.46 141.437 1012.87C134.466 985.922 128.014 958.821 117.211 933.046C114.002 925.388 111.059 917.511 103.935 911.569C104.139 931.817 105.098 951.823 106.615 971.839C107.556 984.27 112.529 997.492 101.796 1008.49C84.837 950.675 62.7833 894.882 33.27 839.812C108.516 842.929 181.511 845.382 254.504 838.129C236.861 832.635 218.577 831.96 200.472 831.395C149.046 829.794 97.5915 829.138 46.1602 827.689C37.7621 827.453 24.6327 830.615 22.9153 820.385C21.0991 809.564 34.2239 807.139 42.8777 803.828C46.4845 802.448 50.1215 800.154 54.3729 801.415C68.2324 803.359 81.8681 799.642 95.8435 800.374C182.051 804.891 268.361 803.499 354.642 803.718C362.597 803.738 370.621 803.024 378.454 804.937C388.737 815.601 401.881 823.004 412.201 833.713Z" fill="#BEBEB9"/>
<path d="M272.322 1716.76C323.442 1700.39 376.021 1688.98 424.899 1665.16C469.819 1643.27 489.077 1609.04 489.635 1560.29C490.313 1501.03 492.563 1441.75 495.858 1382.57C496.926 1363.41 503.097 1344.48 507.515 1325.58C516.294 1288.03 505.307 1266.73 469.848 1252.09C440.862 1240.13 410.028 1237.36 379.504 1233.34C343.538 1228.6 306.884 1227.49 271.602 1219.85C255.059 1216.27 237.948 1219.14 222.21 1212.55C297.155 1214.34 372.104 1215.76 447.041 1212.34C497.949 1210.02 548.844 1207.38 599.749 1204.97C618.844 1204.07 618.091 1204.14 616.923 1223.55C612.178 1302.34 607.782 1381.16 603.568 1459.98C600.101 1524.82 596.883 1589.68 594.085 1654.56C593.728 1662.84 590.084 1667.03 583.853 1671.05C542.765 1697.51 496.916 1710.76 449.407 1718.76C392.298 1728.38 335.01 1727.67 277.808 1718.9C275.915 1718.61 274.148 1717.49 272.322 1716.76Z" fill="#E5DCCB"/>
<path d="M1023.15 518.27C1030.46 562.981 1030.28 607.305 1017.65 651.274C1009.61 679.271 998.168 705.741 984.918 731.579C976.72 747.567 969.493 764.009 963.793 781.119C959.065 795.309 960.182 808.794 967.821 821.438C976.684 836.11 975.33 850.306 969.073 865.647C959.675 888.688 945.913 909.907 941.307 934.992C932.947 980.524 961.223 1043.98 1021.91 1055.66C1037.53 1058.67 1050.76 1049.11 1065.44 1047.07C1070.95 1082.83 1078.01 1118.35 1080.94 1154.48C1083.65 1176.76 1081.05 1182.63 1060.25 1188.76C1015.6 1201.92 977.28 1187.78 942.761 1159.24C929.323 1148.12 920.905 1132.11 906.211 1122.28C901.04 1115.92 897.276 1108.78 894.518 1101.09C889.333 1099.61 886.075 1096.02 883.791 1091.34C868.78 1060.55 857.132 1029.07 858.237 993.851C858.93 971.721 865.577 951.556 875.024 932.204C885.142 911.479 888.062 891.01 880.681 868.554C871.413 840.358 876.478 814.464 896.84 791.916C922.396 763.616 935.926 729.591 942.388 692.503C943.365 686.896 945.764 682.131 948.086 677.188C995.669 638.239 1012.34 584.459 1020.48 526.547C1020.87 523.718 1022.24 521.025 1023.15 518.27Z" fill="#E9E0D0"/>
<path d="M816.582 1109.19C846.38 1156.92 886.016 1186.09 933.627 1204.92C942.167 1208.3 942.92 1211.43 938.437 1218.71C925.618 1239.53 913.162 1260.59 900.807 1281.69C895.202 1291.27 892.291 1301.65 891.227 1312.87C889.279 1333.39 879.687 1351.07 867.358 1367.01C834.612 1409.32 821.458 1457.03 825.296 1510.1C827.099 1535.03 835.216 1557.76 845.842 1579.97C850.299 1589.29 858.252 1600.68 850.774 1609.09C844.366 1616.31 833.273 1607.57 824.225 1606.03C816.953 1604.79 810.83 1599.39 802.091 1599.99C815.123 1615.94 830.127 1629.44 837.257 1648.8C840.994 1658.95 839.85 1662.49 827.915 1662.31C786.524 1661.68 745.12 1662.07 703.131 1662.07C710.056 1643.66 717.833 1623.85 724.98 1603.82C744.142 1550.11 758.904 1495.33 764.398 1438.35C767.401 1407.2 763.929 1376.56 757.828 1346.06C753.085 1322.35 755.678 1299.33 772.677 1281.39C803.812 1248.52 810.734 1207.91 813.394 1165.46C814.48 1148.12 815.367 1130.76 816.582 1109.19Z" fill="#D7C9B1"/>
<path d="M1270.05 834.004C1300.42 869.848 1316.93 911.077 1317.6 958.208C1317.98 984.651 1317.42 1011.11 1317.61 1037.55C1317.79 1062.25 1338.74 1086.2 1363.25 1088.77C1375.09 1090.01 1387.64 1090.98 1399.04 1088.4C1418.14 1084.07 1435.51 1087.88 1453.2 1093.75C1487.63 1105.15 1506.64 1094.67 1515.73 1059.7C1521.25 1038.46 1527.72 1017.58 1537.22 997.672C1543.88 983.721 1548.92 969.089 1551.97 953.858C1559.27 977.924 1559.86 1001.98 1550.43 1025.55C1534.65 1064.98 1526.34 1105.67 1528.23 1148.24C1531.04 1160.21 1524.83 1169.61 1518.82 1178.67C1497.78 1210.39 1466.8 1227.77 1430.89 1236.83C1394.92 1245.9 1359.45 1243.12 1325.37 1228.08C1286.56 1210.96 1261.97 1178.37 1269.23 1130.17C1268.49 1114.77 1274.33 1100.93 1279.3 1086.85C1301.13 1024.96 1304.91 962.395 1285.5 899.17C1278.93 877.762 1272.38 856.397 1270.05 834.004Z" fill="#E5DCCA"/>
<path d="M509.792 1023.6C537.32 1021.72 537.136 1021.72 537.395 993.842C537.61 970.805 538.109 947.761 527.881 926.275C521.78 913.46 513.485 902.323 501.265 894.563C506.353 886.26 514.562 890.334 521.477 889.654C527.237 889.087 533.088 889.687 535.203 889.596C525.612 890.223 512.325 888.829 499.033 889.482C494.149 889.722 488.955 890.008 486.24 884.425C491.457 881.934 493.55 879.612 487.286 875.272C464.185 859.266 441.94 841.825 414.226 834.01C492.537 836.554 570.843 839.312 649.167 841.419C661.303 841.745 662.953 845.004 659.158 856.093C638.983 915.048 631.431 976.321 627.34 1038.13C624.243 1084.92 621.326 1131.72 618.635 1178.54C618.207 1185.98 616.625 1190.32 608.168 1187.39C579.507 1177.45 549.833 1170.56 521.84 1158.62C516.589 1139.45 522.98 1120.45 523.305 1101.36C523.492 1090.41 522.992 1081.34 515.522 1073.25C519.162 1064.14 527.287 1065.31 534.603 1065.2C552.402 1064.91 570.305 1066.73 587.876 1062.45C589.79 1061.66 587.124 1060.18 588.142 1061.9C588.448 1062.42 588.106 1062.85 587.093 1062.96C569.409 1064.9 551.673 1068.92 534.196 1061.72C529.097 1052.72 521.167 1049.99 511.108 1049.94C501.658 1049.89 491.376 1052.76 483.183 1045.02C484.06 1034.12 492.879 1035.44 499.628 1035.22C522.882 1034.44 546.188 1035.7 563.553 1033.86C554.638 1034.3 539.977 1031.87 525.196 1031.94C519.069 1031.96 511.837 1032.03 509.792 1023.6Z" fill="#ACA795"/>
<path d="M948.086 677.188C950.144 708.149 938.633 735.532 925.271 762.317C917.442 778.01 905.926 791.311 894.756 804.573C881.857 819.886 878.192 838.235 883.911 855.111C894.803 887.248 891.151 915.985 876.185 945.658C855.488 986.693 862.9 1027.99 879.72 1068.45C884.304 1079.47 889.567 1090.22 894.519 1101.09C888.439 1114.23 896.788 1125.57 899.358 1137.54C901.192 1146.08 904.727 1154.25 905.971 1163.73C884.851 1151.14 865.765 1136.86 850.887 1117.37C815.992 1071.65 801.037 1019.19 798.271 962.618C796.097 918.136 799.389 873.883 803.92 828.037C816.571 835.266 821.659 847.458 830.585 856.418C818.671 808.722 789.967 769.299 765.881 725.754C787.985 726.199 808.827 729.982 830.043 727.307C866.485 722.71 899.874 711.685 928.988 688.72C934.78 684.148 941.691 680.994 948.086 677.188Z" fill="#DFCFB6"/>
<path d="M1455.09 1291.01C1489.36 1285.49 1522.45 1280.18 1552.93 1265.41C1558.52 1262.7 1559.3 1265.13 1560.86 1269.76C1568.81 1293.39 1576.64 1317.09 1585.66 1340.32C1589.97 1351.43 1586.68 1360.89 1583.2 1370.74C1564.24 1424.42 1547.15 1478.6 1535.4 1534.43C1528.93 1565.21 1528.34 1595.98 1532.45 1626.83C1538.12 1669.49 1538.56 1669.43 1497.01 1669.27C1472 1669.17 1447 1669.06 1421.99 1668.88C1421.17 1668.87 1420.36 1667.98 1418.76 1667.05C1428.14 1644.54 1440.44 1623.55 1453.63 1603.05C1459.63 1593.73 1464.56 1584.02 1466.16 1572.9C1466.59 1569.95 1467.58 1566.45 1464.63 1564.69C1461.46 1562.79 1459.4 1566.36 1456.95 1567.75C1453.38 1569.8 1450.52 1576.17 1446.03 1572.64C1441.81 1569.31 1444.25 1563.55 1445.53 1558.61C1449.83 1541.99 1457.89 1527.04 1466.01 1512.19C1494.62 1459.84 1496.97 1405.73 1477.38 1350.14C1470.6 1330.89 1463 1311.92 1455.09 1291.01Z" fill="#D7C8B2"/>
<path d="M1552.49 920.787C1556.42 918.46 1559.02 920.5 1561.44 923.413C1588.67 956.111 1604.43 993.271 1609.23 1035.89C1613.01 1069.5 1609.37 1103.72 1618.97 1136.85C1627.11 1164.93 1643.02 1187.89 1661.69 1209.71C1693.71 1247.11 1722.97 1286.49 1732.45 1336.29C1738.28 1366.9 1736.02 1397.96 1731.51 1428.61C1726.23 1464.53 1719.85 1500.29 1713.84 1536.1C1712.93 1541.5 1711.57 1546.85 1708.05 1551.32C1705.01 1512.49 1700.86 1473.7 1699.22 1434.81C1697.42 1392.11 1684.9 1355.05 1654.07 1324.14C1634 1304.01 1615.74 1282.04 1598.16 1259.56C1550 1198.01 1538.27 1129.45 1563.07 1056.34C1578.36 1011.25 1576.74 969.451 1555.01 927.762C1553.88 925.589 1553.32 923.119 1552.49 920.787Z" fill="#EAE0CF"/>
<path d="M515.916 1073.73C524.753 1074.04 533.999 1074.46 531.126 1087.27C526.437 1108.19 529.987 1129.79 525.307 1150.68C524.642 1153.65 524.171 1156.48 521.837 1158.62C489.32 1146.7 455.03 1148.36 421.446 1147.16C337.788 1144.19 254.129 1145.56 170.747 1154.37C167.803 1154.68 164.799 1154.42 161.823 1154.42C155.936 1151.27 153.59 1145.96 153.244 1139.68C152.176 1120.35 153.842 1100.93 151.133 1081.63C150.507 1077.17 152.262 1072.8 155.633 1069.4C160.689 1065.44 166.635 1064.66 172.674 1065.35C233.738 1072.31 295.049 1070.64 356.309 1070.75C384.738 1070.8 413.171 1070.52 441.597 1070.84C460.561 1071.04 479.205 1066.17 498.232 1067.82C504.664 1068.38 511.395 1067.64 515.916 1073.73Z" fill="#C0BFBB"/>
<path d="M725.644 488.508C752.9 491.626 777.706 504.079 804.37 509.208C814.806 511.215 825.009 506.715 834.686 502.621C851.228 495.623 868.316 490.775 886.176 488.725C891.404 522.264 903.478 553.42 918.431 583.699C924.558 596.105 928.083 609.549 931.488 623.041C933.656 631.633 932.898 638.5 927.372 645.083C919.877 655.963 909.673 654.741 899.006 651.49C892.189 644.676 884.187 642.808 874.578 644.249C860.283 646.392 845.833 647.522 831.468 649.222C819.486 650.639 812.5 645.799 809.65 634.065C804.934 614.644 804.11 597.11 822.989 583.182C834.106 574.981 843.214 563.942 852.708 553.676C856.605 549.462 860.951 545.274 859.781 537.004C848.468 542.139 842.324 551.455 834.517 558.684C829.012 563.781 824.66 569.943 819.753 575.594C808.259 588.828 804.168 589.012 792.23 576.676C782.852 566.987 773.448 557.321 763.673 548.043C760.344 544.883 757.703 539.782 750.856 541.099C750.898 548.371 755.546 552.911 759.887 557.414C771.32 569.275 782.854 581.03 795.155 592.026C805.518 601.29 808.27 632.43 799.894 643.154C794.155 650.5 786.123 650.063 777.979 649.32C759.619 647.645 741.433 643.989 722.842 644.874C716.82 645.161 710.913 645.673 705.095 647.376C695.513 647.671 685.283 651.043 677.824 641.554C672.781 622.758 680.368 605.868 687.849 589.97C703.303 557.129 717.389 523.953 725.644 488.508Z" fill="#E6C5A8"/>
<path d="M156.356 1070.85C158.178 1098.71 160.001 1126.56 161.823 1154.42C157.838 1159 157.767 1163.5 162.087 1167.92C163.577 1247.07 170.913 1326.08 168.119 1405.35C167.865 1412.56 169.523 1420.3 162.278 1427.31C154.306 1415.13 152.759 1401.72 150.564 1389.04C141.922 1339.11 134.142 1289.03 126.278 1238.97C125.401 1233.39 124.498 1228.18 120.258 1224.13C118.75 1187.26 116.61 1150.41 115.915 1113.53C115.244 1077.89 108.487 1043.23 101.794 1008.49C102.661 977.994 98.289 947.803 96.7193 917.455C96.3924 911.137 92.3876 901.209 101.076 899.108C108.99 897.194 111.361 907.055 114.355 913.004C132.923 949.89 143.049 989.45 150.733 1029.75C158.726 1038.79 169.573 1037.68 179.939 1037.69C273.08 1037.82 366.222 1037.66 459.363 1037.87C467.565 1037.89 476.593 1035.85 483.079 1043.58C494.911 1043.62 506.823 1044.53 518.552 1043.45C530.738 1042.32 534.795 1047.48 533.984 1058.6C528.453 1066.33 520.452 1064.98 512.655 1064.48C484.946 1058.18 457.059 1059.78 429.146 1062.72C366.411 1062.07 303.652 1061.63 240.945 1063.01C217.651 1063.53 194.338 1065.86 170.958 1065.1C165.162 1064.91 160.108 1066.1 156.356 1070.85Z" fill="#FDFDFC"/>
<path d="M470.933 382.797C509.964 371.24 546.167 352.48 585.396 336.754C583.054 352.019 580.257 363.286 564.625 369.236C546.108 376.285 528.666 386.341 511.164 395.842C444.806 431.866 381.935 399.585 347.404 358.77C317.116 322.971 297.973 280.711 280.803 237.494C276.009 225.429 282.684 224.603 291.449 225.564C315.022 228.149 334.769 239.754 353.778 252.773C377.056 268.717 401.79 280.83 429.884 286.004C459.929 291.537 487.484 286.33 512.638 269.267C526.26 260.028 539.108 249.652 552.715 240.39C566.407 231.07 581.262 224.472 600.552 224.35C592.884 242.593 589.642 260.411 591.356 278.824C591.918 284.865 588.438 286.341 583.613 287.559C508.381 306.541 434.568 305.185 362.439 273.56C352.596 269.244 343.147 260.159 330.6 265.977C330.216 276.537 323.562 271.078 318.854 270.611C310.704 265.942 307.831 257.725 304.64 250.642C315.162 282.634 329.465 313.228 357.696 335.221C383.206 357.943 412.129 373.274 446.287 378.945C454.468 380.303 463.458 377.251 470.933 382.797Z" fill="#FBFAF8"/>
<path d="M1269.23 1130.17C1272.91 1191.73 1305.84 1224.97 1368.14 1233.67C1416.07 1240.35 1457.9 1228.06 1494.5 1197.95C1510.17 1185.06 1521.89 1168.15 1528.23 1148.25C1532.61 1176.89 1539.45 1204.89 1551.79 1231.23C1555.3 1238.71 1551.06 1240.42 1545.78 1243.15C1521.02 1255.96 1494.25 1261.85 1467.05 1265.45C1421.01 1271.55 1374.79 1275.6 1328.24 1272.26C1309.76 1270.93 1291.93 1266.28 1274 1262.11C1267.48 1260.6 1264.76 1257.2 1266.87 1250.36C1275.36 1222.79 1270.04 1194.93 1268.32 1167.16C1267.55 1154.79 1264.83 1142.4 1269.23 1130.17Z" fill="#D6C9B4"/>
<path d="M663.458 1473.75C685.773 1466.91 690.758 1460.49 691.124 1435.75C692.15 1366.26 692.901 1296.77 693.76 1227.28C703.034 1215.8 699.236 1202.8 698.022 1190.12C696.718 1176.48 692.41 1162.29 705.474 1151.43C716.129 1155.9 719.756 1165.05 720.286 1175.45C722.551 1219.84 724.961 1264.24 726.343 1308.67C727.257 1338.09 726.516 1367.55 726.516 1397C728.219 1397.02 729.922 1397.04 731.625 1397.06C732.249 1386.75 732.874 1376.44 733.62 1364.12C740.149 1372.3 738.246 1380.66 739.575 1388.05C743.231 1408.38 743.009 1428.89 740.019 1449.24C736.831 1470.94 719.55 1487.46 696.892 1491.61C686.621 1494.11 676.19 1492.4 665.84 1492.67C660.259 1492.81 653.001 1494.79 651.674 1486.08C650.344 1477.35 657.061 1475.52 663.458 1473.75Z" fill="#D9E0E1"/>
<path d="M1092.14 986.572C1094.45 1011.71 1107.82 1032.46 1119.23 1053.89C1130.94 1075.9 1142.94 1097.71 1151.98 1121.04C1160.7 1143.52 1159.86 1165.82 1152.2 1188.24C1145.92 1206.62 1139.62 1224.96 1136.18 1244.2C1134.65 1252.8 1133.4 1259.15 1145.39 1253.51C1147.2 1252.66 1149.28 1251.75 1150.84 1253.63C1153.2 1256.47 1151.77 1259.56 1150.1 1261.89C1142.59 1272.4 1135.29 1283.13 1127.01 1293.02C1112.59 1310.22 1097.92 1327.11 1093.32 1354.05C1087.4 1340.84 1090.06 1329.26 1083.96 1320.36C1087.17 1300.42 1101.34 1284.6 1104.66 1264.67C1111.48 1223.77 1108.36 1183.05 1103.25 1142.29C1097.36 1095.33 1085.08 1048.98 1089.54 1001.03C1089.99 996.15 1088.73 990.93 1092.14 986.572Z" fill="#ECDDC5"/>
<path d="M979.741 195.889C1005.89 191.756 1027.99 198.126 1048.91 209.598C1060.27 215.829 1071.46 222.444 1082.32 229.515C1120.65 254.473 1160.45 256.167 1202.18 238.835C1226.54 228.715 1248.43 213.334 1273.89 205.726C1280.52 203.745 1287.3 202.081 1294.12 200.967C1297.81 200.365 1302.49 199.815 1302.7 206.122C1302.85 210.582 1301.87 214.494 1296.91 215.048C1256.74 219.536 1227.67 246.539 1194.49 265.226C1152.13 289.09 1108.07 301.35 1059.76 284.91C1038.6 277.709 1021.72 266.375 1012.63 244.52C1005.33 226.987 992.325 212.716 979.741 195.889Z" fill="#FCFBF9"/>
<path d="M470.933 382.797C447.032 390.978 425.741 379.696 404.378 372.656C385.024 366.279 369.315 352.879 354.435 339.01C343.698 321.507 328.897 306.261 324.523 285.199C325.358 278.885 327.448 273.286 333.373 269.916C357.761 298.29 392.432 306.02 426.116 314.295C478.948 327.273 531.904 323.444 584.388 310.492C586.736 309.913 589.125 309.499 591.909 308.922C591.715 314.699 587.145 315.352 584.202 317.134C548.852 338.539 514.523 361.773 476.175 377.874C474.103 378.744 472.666 381.122 470.933 382.797Z" fill="#D56B65"/>
<path d="M1095.4 40.1144C1089.83 45.768 1083.31 44.5169 1077.63 45.7644C1021.35 58.1301 982.393 91.7187 959.136 143.598C954.953 152.926 952.289 154.258 944.397 148.443C947.426 151.737 951.642 154.564 953.17 158.449C954.918 162.896 953.878 168.209 950.662 173.245C931.701 161.978 912.06 152.613 890.346 148.491C883.381 147.17 882.073 144.318 884.526 137.109C914.809 48.0925 1004.99 18.3787 1070.02 27.1688C1079.07 28.3917 1088.55 31.163 1095.4 40.1144Z" fill="#EEC495"/>
<path d="M657.248 147.051C652.693 147.08 648.413 152.786 643.902 144.47C615.523 92.1491 572.627 60.7349 512.134 55.7504C511.289 55.6807 510.518 54.6924 509.72 54.1237C517.373 43.6127 524.902 38.6968 543.233 36.7172C602.849 30.2782 683.795 52.2752 717.006 129.863C721.85 141.178 719.34 144.272 708.179 145.791C693.363 147.809 678.938 151.708 665.038 157.628C661.068 159.32 656.495 165.842 652.158 160.705C647.316 154.971 654.605 151.263 657.13 146.865C664.914 141.468 673.917 138.358 682.007 133.535C673.956 138.412 664.774 141.21 657.248 147.051Z" fill="#EFC494"/>
<path d="M384.261 810.509C333.867 810.369 283.472 810.152 233.078 810.112C176.729 810.066 120.474 807.556 64.2539 804.017C60.7809 803.798 57.215 803.999 54.3721 801.416C88.7586 792.41 123.539 789.33 159.228 789.844C295.096 791.798 430.971 790.347 566.833 787.863C587.492 787.486 606.962 794.941 627.035 798.47C626.523 805.092 621.211 806.413 616.41 806.71C606.947 807.294 597.624 810.023 588.285 809.843C556.401 809.226 524.792 813.92 492.895 813.639C463.105 813.378 433.374 817.862 403.486 816.303C396.596 815.942 389.313 816.942 384.261 810.509Z" fill="#FBFAF8"/>
<path d="M677.825 641.553C688.209 641.761 698.593 641.969 708.977 642.177C763.992 663.398 819.68 669.314 876.595 649.871C883.047 647.667 889.621 644.375 896.811 647.49C907.126 648.304 917.336 647.795 927.372 645.08C933.127 651.632 929.84 656.374 924.792 661.591C899.635 687.586 867.462 699.799 833.049 704.345C777.239 711.717 727.358 696.51 686.032 657.238C682.015 653.422 672.637 650.811 677.825 641.553Z" fill="#FBF9F9"/>
<path d="M1721.01 725.123C1720.81 741.227 1714.62 758.004 1695.78 765.79C1677.7 773.261 1661.35 766.843 1647.96 753.599C1633.4 739.201 1621.79 722.023 1606.14 708.591C1604.77 707.418 1603.27 705.24 1603.4 703.661C1604.3 693.009 1629.06 681.953 1638.73 687.702C1655.42 697.619 1655.42 697.619 1664.28 681.281C1671.81 667.404 1691.68 665.637 1704.19 678.222C1716.06 690.179 1720.72 705.239 1721.01 725.123Z" fill="#E7DCCA"/>
<path d="M1266.31 236.446C1276.96 230.344 1287.62 224.243 1300.79 216.699C1293.87 250.774 1280.3 278.704 1262.33 304.494C1217.79 368.411 1134.59 396.419 1059.13 355.629C1056.52 354.216 1053.9 352.811 1051.35 351.281C1047.41 348.911 1045.75 344.501 1047 340.96C1048.88 335.627 1054.02 338.723 1057.22 339.702C1081.47 347.128 1105.43 355.896 1131.51 353.313C1133.67 347.996 1138.34 346.308 1143.36 345.357C1194.66 335.646 1228.01 303.246 1251.97 259.183C1256.28 251.26 1261 243.695 1266.31 236.446Z" fill="#FCFAF9"/>
<path d="M906.21 1122.28C914.782 1118.21 917.794 1126.04 921.856 1130.22C943.478 1152.49 964.746 1174.84 996.616 1182.8C1016.75 1187.83 1036.67 1190.97 1056.92 1184.41C1071.36 1179.73 1084.08 1173.4 1080.93 1154.48C1086.38 1182.97 1086.8 1211.69 1085.06 1240.54C1084.34 1252.51 1075.61 1248.78 1069.69 1247.8C1040.87 1243.02 1014.34 1232.34 990.094 1215.84C954.377 1191.54 928.353 1158.68 906.21 1122.28Z" fill="#D7CAB5"/>
<path d="M1266.31 236.447C1248.68 295.121 1201.75 340.858 1144.53 350.72C1140.17 351.472 1135.84 352.445 1131.51 353.314C1107.66 344.718 1083.9 335.93 1061.3 324.289C1051.61 319.298 1041.37 315.017 1037.19 302.702C1039.03 302.321 1040.48 301.508 1041.43 301.9C1115.2 332.291 1177.76 310.325 1234.48 260.767C1244.55 251.965 1253.33 241.454 1266.31 236.447Z" fill="#D56D63"/>
<path d="M384.261 810.509C448.487 808.292 512.725 806.364 576.93 803.659C593.66 802.954 610.63 803.004 627.035 798.471C639.343 800.251 651.624 802.1 661.092 811.373C664.372 814.586 667.513 818.06 666.215 823.053C664.638 829.119 659.126 827.656 655.04 827.728C636.623 828.051 618.193 827.768 599.775 828.085C541.04 829.093 482.308 830.256 423.576 831.42C419.69 831.497 415.519 830.644 412.199 833.714C399.698 832.79 391.853 823.177 382.11 817.219C378.195 814.824 382.853 812.597 384.261 810.509Z" fill="#B0A899"/>
<path d="M1449.93 693.292C1463.82 729.746 1474.29 767.265 1484.5 804.855C1486.32 811.538 1488.5 819.535 1480.66 823.668C1472.59 827.913 1467.65 820.948 1463.15 815.812C1450.91 801.837 1442.61 785.183 1432.69 769.634C1416.59 744.401 1401.98 718.127 1380.46 696.751C1378.87 695.165 1378.57 692.269 1377.67 689.981C1401.84 689.291 1425.88 691.446 1449.93 693.292Z" fill="#EFE4D2"/>
<path d="M225.83 1730.9C280.245 1744.67 335.381 1751.56 391.56 1747.78C408.99 1746.61 426.368 1744.67 443.769 1743.07C456.262 1741.31 450.475 1748.22 447.32 1751.78C439.846 1760.22 429.489 1764.75 419.107 1768.1C391.935 1776.88 364.107 1781.02 335.499 1776.76C295.607 1775.46 256.765 1768.67 219.32 1754.56C215.378 1745 211.863 1735.55 225.83 1730.9Z" fill="#CFD6D8"/>
<path d="M736.441 1295.96C736.56 1255.63 733.46 1215.72 732.496 1175.74C731.853 1149.06 720.413 1137.59 694.024 1137.82C680.032 1137.94 666.043 1138.29 652.054 1138.63C647.609 1138.74 642.892 1140.21 642.631 1132.9C642.403 1126.49 644.606 1124.13 651.195 1124.1C677.196 1123.98 703.204 1122.77 729.19 1123.19C748.107 1123.5 754.35 1129.81 756.162 1148.24C759.388 1181.06 762.062 1213.94 765.092 1246.78C765.576 1252.02 764.931 1256.35 760.684 1260.19C749.827 1270.02 742.827 1282.53 736.441 1295.96Z" fill="#DEE2E4"/>
<path d="M734.789 1485.79C729.858 1506.24 725.873 1522.1 722.258 1538.05C720.649 1545.14 717.739 1549.55 709.476 1549.57C682.483 1549.63 655.492 1550.19 628.499 1550.48C626.56 1550.5 623.301 1550.47 622.871 1549.49C617.183 1536.55 621.855 1523.16 622.017 1510C622.113 1502.22 630.192 1504.21 635.188 1504.03C649.677 1503.49 664.202 1503.08 678.687 1503.5C698.074 1504.06 716.639 1502.37 734.789 1485.79Z" fill="#B4BEC1"/>
<path d="M335.5 1776.76C341.953 1776.57 348.447 1775.84 354.853 1776.3C386.615 1778.62 413.272 1763.92 440.442 1750.96C444.605 1748.98 444.598 1747.95 443.77 1743.07C468.463 1737.34 493.398 1732.59 517.583 1724.78C542.702 1716.67 566.81 1706.23 592.506 1691.41C587.342 1711.21 576.26 1722.56 562.171 1731.32C536.956 1746.99 509.567 1757.55 480.708 1764.27C439.261 1773.92 397.295 1779.4 354.672 1779.04C348.235 1778.98 341.64 1779.59 335.5 1776.76Z" fill="#B6C0C2"/>
<path d="M1552.3 704.626C1542.13 708.174 1548.8 714.807 1550.45 719.206C1558.01 739.352 1563.84 759.903 1567.76 781.045C1568.75 786.384 1572 792.498 1565.76 795.855C1559.96 798.971 1555.5 793.864 1551.56 790.226C1522.29 763.237 1503.38 729.516 1488.74 693.053C1510.81 692.076 1532.18 694.899 1552.3 704.626Z" fill="#EBE1D0"/>
<path d="M705.475 1151.43C699.14 1170.99 705.9 1190.58 705.357 1210.15C705.133 1218.23 705.076 1226.62 693.761 1227.29C693.434 1219.87 693.116 1212.45 692.777 1205.03C691.64 1180.13 681.79 1170.66 656.562 1170.11C649.039 1169.94 640.928 1172.64 641.208 1159.06C641.478 1146.01 648.25 1145.99 657.336 1146.7C673.414 1147.95 689.967 1144.36 705.475 1151.43Z" fill="#B7BBBF"/>
<path d="M225.83 1730.9C219.854 1737.74 223.129 1747.13 219.32 1754.56C196.542 1746.93 174.892 1736.97 155.732 1722.3C145.913 1714.79 136.545 1706.62 135.496 1690.42C164.756 1708.57 195.239 1719.86 225.83 1730.9Z" fill="#BCC5C5"/>
<path d="M621.925 470.908C626.044 490.077 627.101 509.822 633.77 528.539C640.685 547.946 650.023 565.537 666.258 578.803C666.617 588.589 661.33 596.639 658.674 605.725C632.158 587.217 619.224 539.153 621.925 470.908Z" fill="#D5CAB5"/>
<path d="M946.028 593.705C962.989 591.305 973.5 577.747 987.289 569.861C985.111 591.577 971.479 619.361 954.348 635.978C951.486 621.437 948.757 607.572 946.028 593.705Z" fill="#DACFC0"/>
<path d="M662.978 331.99C656.838 325.668 651.774 323.921 646.503 330.07C640.933 336.567 634.844 342.138 626.563 334.512C620.927 329.321 619.612 322.41 623.346 315.393C628.079 306.501 635.622 301.757 645.527 305.165C656.593 308.973 663.824 316.561 662.978 331.99Z" fill="#F8F8F8"/>
<path d="M663.458 1473.75C659.963 1477.45 653.096 1479.36 655.172 1486.2C657.372 1493.45 664.1 1490.54 669.017 1490.85C678.287 1491.44 687.598 1491.4 696.892 1491.61C675.22 1496.23 653.306 1493.11 631.507 1493.67C624.64 1493.84 623.272 1489.89 623.598 1484.03C623.917 1478.29 623.797 1472.98 632.111 1473.37C642.543 1473.85 653.008 1473.65 663.458 1473.75Z" fill="#B4B9BC"/>
<path d="M333.373 269.916C331.544 274.92 329.714 279.923 327.885 284.927C318.755 281.924 314.691 276.402 318.864 266.786C322.813 267.058 327.023 271.126 330.601 265.98C331.524 267.29 332.449 268.603 333.373 269.916Z" fill="#E8B7AE"/>
<path d="M1199.68 1746.51C1197.94 1755.68 1200.68 1765.66 1192.13 1774.97C1189.59 1762.42 1195.61 1754.47 1199.68 1746.51Z" fill="#C1C3C8"/>
<path d="M832.715 1728.7C829.378 1717.12 837.955 1710.32 839.146 1701.67C840.014 1710.83 839.337 1719.61 832.715 1728.7Z" fill="#878D8F"/>
<path d="M1518.32 1726.6C1519.96 1715.31 1522.85 1709.46 1527.2 1702.36C1528.27 1711.62 1525.64 1717.86 1518.32 1726.6Z" fill="#909398"/>
<path d="M1173.79 1359.47C1173.55 1377.94 1158.45 1392.64 1140.33 1392.05C1123.5 1391.5 1109.93 1376.19 1110.07 1357.92C1110.21 1340.26 1126.09 1325.57 1144.28 1326.28C1160.44 1326.91 1174.02 1342.17 1173.79 1359.47Z" fill="#E9C397"/>
<path d="M930.507 339.022C929.843 328.086 932.17 317.973 938.256 309.082C945.866 297.964 956.431 291.439 970.108 294.508C984.171 297.665 994.18 306.227 996.691 321.33C999.461 337.982 997.999 354.24 989.657 369.153C983.581 380.015 975.296 388.08 961.292 387.493C947.183 386.903 940.165 378.11 935.189 366.487C931.407 357.652 929.731 348.454 930.507 339.022Z" fill="#363943"/>
<path d="M916.176 372.336C924.141 388.704 934.563 399.567 952.628 400.01C932.284 404.601 917.601 393.835 916.176 372.336Z" fill="#616163"/>
<path d="M699.118 376.111C693.638 394.293 682.11 403.51 661.609 405.23C677.863 397.985 689.03 389.35 699.118 376.111Z" fill="#6E6E6E"/>
<path d="M483.081 1043.58C376.973 1045.23 270.867 1044.8 164.756 1043.78C154.211 1043.68 148.377 1041.49 150.735 1029.75C194.221 1022.29 238.266 1022.79 282.113 1021.13C358.019 1018.27 433.911 1021.44 509.791 1023.6C531.113 1025.63 552.449 1027.54 573.749 1029.78C579.976 1030.43 586.107 1032.02 592.281 1033.18C592.292 1034.42 592.303 1035.67 592.314 1036.91C572.795 1038.21 553.285 1039.68 533.753 1040.75C516.861 1041.68 499.796 1039.42 483.081 1043.58Z" fill="#353745"/>
<path d="M193.98 875.286C187.279 882.465 179.487 882.064 172.321 882.837C143.03 885.998 113.723 886.428 84.4718 882.183C79.0985 881.403 71.2035 881.068 70.8935 875.517C70.4821 868.151 78.8474 870.05 83.6761 869.497C115.464 865.854 147.271 866.059 179.053 869.878C184.066 870.481 188.783 871.7 193.98 875.286Z" fill="#3D404A"/>
<path d="M486.239 884.425C508.283 883.863 530.366 882.678 555.833 888.084C544.617 893.123 536.329 893.785 527.932 893.97C519.042 894.166 510.152 894.365 501.263 894.562C492.714 893.653 483.9 893.888 475.89 889.654C477.997 883.705 482.934 885.907 486.239 884.425Z" fill="#41424D"/>
<path d="M794.409 1356.19C779.369 1356.34 761.096 1339.81 760.663 1325.67C760.122 1308.02 775.28 1291.67 792.873 1290.94C810.188 1290.22 826.356 1306.23 826.598 1324.34C826.847 1343 813.706 1356 794.409 1356.19Z" fill="#C4B498"/>
<path d="M156.356 1070.85C152.969 1060.89 157.794 1059.43 166.678 1059.13C254.123 1056.25 341.581 1055.71 429.058 1056.61C451.777 1058.86 474.559 1056.97 497.301 1057.65C502.711 1057.81 508.205 1056.76 513.52 1058.6C520.342 1058.6 527.163 1058.6 533.985 1058.6C551.773 1060.17 569.561 1061.74 589.264 1063.49C564.325 1071.88 539.501 1068.64 515.915 1073.73C450.507 1077.12 385.05 1077.78 319.564 1077.67C265.057 1077.59 210.647 1075.81 156.356 1070.85Z" fill="#373841"/>
<path d="M896.811 647.491C856.411 666.558 814.155 672.081 770.176 664.692C753.975 661.97 737.753 659.275 722.108 654.029C716.024 651.989 709.182 650.745 708.978 642.176C713.686 637.127 719.586 637.702 725.691 638.333C744.571 640.286 763.531 641.571 782.343 644.012C792.746 645.362 798.438 643.501 798.206 631.532C798.062 624.154 797.761 616.528 800.58 609.307C802.721 603.823 798.506 601.662 795.109 598.508C780.472 584.914 766.172 570.955 751.861 557.013C749.376 554.593 747.217 551.761 745.285 548.868C741.701 543.497 739.697 537.564 745.745 532.855C751.858 528.094 756.735 531.762 761.213 536.522C775.895 552.129 790.715 567.605 805.999 583.674C819.105 565.499 835.176 551.14 849.542 535.215C853.844 530.446 859.081 524.464 865.856 530.75C871.65 536.127 869.596 543.212 864.923 548.261C851.7 562.55 838.567 577.042 824.131 590.047C814.446 598.771 809.904 606.333 812.864 620.502C817.832 644.284 816.365 644.71 839.736 642.373C854.14 640.933 868.488 638.941 882.888 637.453C890.265 636.692 897.528 636.731 896.811 647.491Z" fill="#3A3944"/>
<path d="M513.52 1058.6C485.321 1059.79 457.157 1059.51 429.057 1056.61C457.26 1055.22 485.439 1054.82 513.52 1058.6Z" fill="#ACA795"/>
<path d="M318.864 266.787C321.87 272.831 324.876 278.875 327.883 284.923C335.714 303.455 350.215 318.709 354.433 339.01C322.095 313.32 304.127 279.976 300.449 238.986C309.406 246.525 313.491 257.066 318.864 266.787Z" fill="#34343F"/>
<path d="M657.247 147.052C665.538 136.269 678.53 134.439 690.033 129.777C679.476 136.26 669.881 144.607 657.131 146.864C657.13 146.865 657.247 147.052 657.247 147.052Z" fill="#A47A57"/>
<path d="M771.655 678.841C801.429 679.579 830.661 674.702 860.083 672.762C831.347 686.013 801.793 687.897 771.655 678.841Z" fill="#474449"/>
<path d="M984.695 337.45C976.801 329.082 971.376 329.283 966.827 337.559C963.477 343.652 957.212 342.798 952.191 341.057C946.477 339.076 944.256 333.767 945.022 327.68C946.474 316.144 953.565 309.862 964.681 308.933C975.416 308.037 983.072 318.236 984.695 337.45Z" fill="#F9F9F9"/>
</g>
<defs>
<clipPath id="clip0_3033_17747">
<rect width="1849" height="1807" fill="white"/>
</clipPath>
</defs>
</svg>
