<?xml version="1.0" encoding="utf-8"?>
<!-- Generator: Adobe Illustrator 24.1.3, SVG Export Plug-In . SVG Version: 6.00 Build 0)  -->
<svg version="1.1" id="Layer_1" xmlns="http://www.w3.org/2000/svg" xmlns:xlink="http://www.w3.org/1999/xlink" x="0px" y="0px"
	 viewBox="0 0 3200 3600" style="enable-background:new 0 0 3200 3600;" xml:space="preserve">
<style type="text/css">
	.st0{fill:#7B99B3;}
	.st1{opacity:0.49;fill:#7B99B3;}
	.st2{fill:#F0F0F2;}
	.st3{opacity:0.34;fill:#7B99B3;}
	.st4{opacity:0.14;fill:#7B99B3;}
	.st5{fill:#18070A;}
	.st6{fill:#D9A796;}
	.st7{fill:#D98F4E;}
	.st8{fill:#34362F;}
	.st9{opacity:0.62;fill:#34362F;}
	.st10{opacity:0.34;fill:#D9A796;}
	.st11{fill:#AF652E;}
	.st12{fill:#593043;}
	.st13{opacity:0.33;fill:#593043;}
	.st14{fill:#5A693B;}
	.st15{opacity:0.55;fill:#5A693B;}
	.st16{opacity:0.16;fill:#F0F0F2;}
	.st17{fill:#F7A277;}
	.st18{opacity:0.36;fill:#F7A277;}
	.st19{opacity:0.53;fill:#D9A796;}
	.st20{opacity:0.72;fill:#D9A796;}
	.st21{opacity:0.42;fill:#D98F4E;}
</style>
<g>
	<g>
		<path class="st0" d="M2208.44,2364l-68.17,321.76l-0.88,2.94l-15.87,75.22c0,24.97-64.94,45.25-145.16,45.25
			c-79.92,0-144.86-20.27-144.86-45.25l-17.04-80.22l-0.59-2.35L1748.58,2364H2208.44z"/>
		<g>
			<path class="st1" d="M2140.26,2685.76l-0.88,2.94c-13.52,4.99-26.74,9.4-40.84,12.34c-36.14,8.52-73.17,11.46-110.19,10.58
				c-37.02-0.88-74.05-3.82-110.19-10.58c-21.16-4.11-41.73-9.7-61.71-17.34l-0.59-2.35c20.28,7.35,41.43,12.93,62.59,17.34
				c36.14,7.64,72.87,11.75,109.9,11.17c36.73-0.3,73.75-3.23,109.6-11.46C2112.06,2694.57,2126.16,2690.46,2140.26,2685.76z"/>
		</g>
		<path class="st1" d="M1765.66,2443.08c32.36,17.85,68.11,28.26,104.04,35.94c36.07,7.42,72.97,11.55,109.86,11.19
			c36.83-0.31,73.78-3.29,109.62-11.65c35.31-9.48,71.02-20.87,102.72-39.67l0.18,0.23c-15.32,10.45-32.45,17.78-49.51,24.85
			c-17.13,6.88-34.58,13.38-52.73,17.36c-36.15,8.37-73.34,11.27-110.29,10.61c-36.95-1.01-73.88-4.02-110.28-10.74
			c-36.22-7.07-72.18-18.52-103.77-37.89L1765.66,2443.08z"/>
		<path class="st0" d="M2208.4,2363.92c0,6.69-5.78,13.24-16.43,19.02c-33.93,18.86-116.84,32.25-213.44,32.25
			c-96.75,0-179.51-13.39-213.44-32.25c-10.65-5.78-16.43-12.32-16.43-19.02c0-28.29,102.84-51.12,229.87-51.12
			C2105.4,2312.8,2208.4,2335.62,2208.4,2363.92z"/>
		<path class="st2" d="M2191.98,2382.81c-4.11,2.35-9.4,4.7-14.99,6.76c-5.29,2.06-10.87,3.82-17.04,5.58
			c-42.02,12.34-107.84,19.98-181.3,19.98c-71.4,0-135.17-7.05-177.19-18.81c-7.93-2.06-15.28-4.41-21.45-6.76
			c-5.58-2.06-10.58-4.41-14.99-6.76c34.08-18.81,116.65-32.03,213.62-32.03C2075.04,2350.78,2157.9,2364,2191.98,2382.81z"/>
		<path class="st2" d="M2177,2389.57c-5.29,2.06-10.87,3.82-17.04,5.58c-62.31-4.37-106.43-34.68-177.19-18.8
			c-67.95,15.24-106.61,18.8-185.64,18.8c-7.93-2.06-10.94-3.23-17.11-5.58c39.96-15.57,113.72-25.56,198.64-25.56
			C2062.98,2364,2137.03,2373.99,2177,2389.57z"/>
		<path class="st3" d="M2154.11,2405.65l-59.13,307.18c0,24.92-58.83,45.12-131.41,45.12c-72.58,0-131.41-20.2-131.41-45.12
			l-59.9-311.18c-7.24-3.66-16.24-11.94-19.63-18.72l80.9,381.04c0,24.92,64.9,45.12,144.95,45.12c80.05,0,144.95-20.2,144.95-45.12
			L2204,2384.6C2193.19,2394.54,2174.26,2400.12,2154.11,2405.65z"/>
		<path class="st4" d="M1809.95,2419.77c0,0,50.37,25.48,121.85,22.65c-8.01,101.85-12.2,183.44-12.2,183.44s-48.72,6.2-72.81-11.28
			C1837.69,2588.44,1809.95,2419.77,1809.95,2419.77z"/>
		<path class="st0" d="M2133.24,2442.42c0,4.54-3.68,8.23-8.23,8.23c-4.54,0-8.23-3.68-8.23-8.23s3.68-8.23,8.23-8.23
			C2129.56,2434.19,2133.24,2437.88,2133.24,2442.42z"/>
		<g>
			<path class="st5" d="M1890.29,2684.82c-6.31,0-12.8-0.2-19.43-0.63c-43.16-2.75-82.67-23.7-108.41-57.45
				c-24.42-32-33.46-71.11-25.42-110.13c5.88-28.52,20.43-58.22,28.55-73.4l2.39,11.91c-7.95,14.78-17.8,35.44-23.48,63.04
				c-7.57,36.84,0.95,73.75,23.99,103.96c24.45,32.02,61.92,51.88,102.85,54.49c124.97,7.69,189.85-64.51,217.4-108.47
				c31.31-49.99,41-106.2,30.13-125.4l6.6-3.73c12.14,21.41,4.02,78.43-30.27,133.18
				C2068.2,2615.23,2006.59,2684.82,1890.29,2684.82z"/>
		</g>
	</g>
	<g>
		<g>
			<path class="st6" d="M2922.51,1993.66c10.07,18.47,10.37,40.74,3.09,60.47c-13.66,37.01-49.23,82.84-38.99,119.8
				c0,0-25.21-31.73-29.9-51.43c-2.3-9.81-3.32-20.24-1.68-30.77c0.98-5.18,1.87-10.62,4.08-15.63l3.01-7.36l1.89-5.47
				c2.28-7.35,4.41-14.78,4.47-22.86c0.34-7.95-0.63-16.08,2.06-23.34c5.72-14.67,14.67-45.58,14.67-45.58
				C2886.39,1970.48,2908.13,1967.28,2922.51,1993.66z"/>
			<path class="st5" d="M1398.2,1956.67c0,0-3.26,358.38,15.37,374.04c0,0,18.64,15.65,18.15,30.87
				c-0.98,30.85,36.43,108.65,12.62,223.17c1.85,27.92-21.04,78.36-21.04,78.36c3.31,10.96,48.95,19.15,79.94,9.86
				c8.57-2.57,13.82-11.27,12.5-20.12l-0.62-4.16c-0.9-6.05-1.56-12.08-1.89-18.19c-9.72-180.99,4.21-240.66-7.01-288.42
				c-3.35-14.25-4.09-28.97-2.81-43.56c6.14-70.03,21.45-252.9,92.22-317.49C1665,1917.72,1398.2,1956.67,1398.2,1956.67z"/>
			<path class="st5" d="M2471.51,1430.2c0,0,27.09,466.69,101.2,676.55c15.34,43.44,23.76,89.19,21.65,135.21
				c-4.28,93.16,36.78,159.44,13.9,435.16l-17.76,37.3c-3.71,30.67,97.27,30.67,102.96,0l4.3-57.93c0,0,28.29-318.12,52.01-438.14
				c2.49-12.6,2.35-25.49-0.23-38.07c-20.92-101.79-23.48-219.12,36.88-359.01c210.32-487.41,40.64-659.03-127.79-746.43
				C2603.51,1046.26,2629.76,1050.59,2471.51,1430.2z"/>
			<path class="st7" d="M613.62,1410.91c-70.62-39.75-77.92-127.78-115.71-192.15c-20.27,55.92-28.64,116.96,5.98,169.91
				c14.28,21.84,56.79,56.89,85.16,54.04C602.91,1441.32,605.23,1432.53,613.62,1410.91z"/>
			<path class="st8" d="M2882.4,1562.64c-0.51,1.36-1.02,2.71-1.7,4.07c-20.19,50.9-51.24,99.26-93.66,140.83
				c-215.48,211.24-577.22,322.71-687.34,290.65c-178.49-52.09-544.31-22.57-557.88-4.92c-22.4,29.35-92.47,234.15-101.29,270.12
				c-0.34,1.19-0.51,2.38-0.85,3.73c-0.34,1.36-0.68,2.72-0.85,4.24c-14.42,77.54-5.09,325.43-0.17,410.1
				c0.85,13.57,1.36,22.9,1.87,26.81c-8.82,0.34,1.87,34.44-10.18,33.93c-7.81-0.51-17.48,4.92-24.77,7.97
				c-87.72,36.14-89.42,5.43-80.08-19.17c0.51-1.53,1.19-3.05,1.87-4.58c6.11-13.74,15.78-26.98,22.57-40.89
				c4.41-8.82,7.81-17.81,8.14-27.49c17.81-103.16-4.24-288.1-28-335.27c-9.5-18.66,3.9-255.19-90.26-277.41
				c-94-22.23-299.64-312.03-410.94-274.87c-77.2,25.96-157.79,111.98-224.64,160c-30.03,21.55-57.01,35.46-79.92,33.09
				c-10.52-1.02-21.21-3.39-31.9-6.96c-15.1-4.92-30.03-12.05-43.44-20.87c-32.75-21.21-56.84-51.92-54.46-82.29
				c0.68-10.35,4.58-20.87,12.22-30.88c6.96-8.82,13.74-26.13,20.7-48.87c33.26-106.55,68.21-335.61,104.18-414.17
				c7.64-16.29,65.15-46.32,72.62-47.34c108.42-70.58,199.02,14.59,302.52-11.88c170.35-43.78,340.7-148.63,502.91-197.67
				c16.63-5.09,34.1-7.3,51.41-6.62c36.99,1.53,71.6-0.68,104.35-5.09c119.45-15.44,214.63-56.16,309.31-33.76
				c69.4,16.29,189.18,27.49,318.47,24.6c91.11-2.04,187.15-11.2,273.34-30.71c14.08-3.22,27.83-6.62,41.23-10.35
				c58.37-16.29,109.44-9.67,160.68,10.69c11.37,4.58,22.4,9.5,32.75,14.76c127.76,65.32,199.53,190.88,207.68,322.88
				C2912.6,1447.26,2903.95,1506.48,2882.4,1562.64z"/>
			<path class="st6" d="M654.53,1449.31c27.06-38.37,50.5-72.21,60.37-119.58c6.72-32.26,16.43-80.47,7.04-112.27
				c-12.47,8.75-19.94,30.6-26.5,43.98c-10.82,22.08-21.76,44.39-34.54,65.52c-11.36,18.79-24.26,38.25-40.81,52.43
				c-7.6,6.51-17.14,11.65-23.62,18.25c7.69,13.5,18.96,32.36,32.75,39.79C639.49,1442.95,650.7,1440.91,654.53,1449.31z"/>
			<path class="st2" d="M1254.86,1483.83c-145.63-5.83-184.07-54.64-196.93,48.51c-12.86,103.15-24.53,44.82,45.47,138.15
				c70,93.33,17.5,151.67,186.67,140c169.17-11.67,93.81-110.83,213.15-105c119.34,5.83,131.01,173.7,224.35,40.18
				c93.33-133.52-34.05-250.18-119.11-256.02c-85.06-5.83-78.37,87.5-204.21,0C1278.4,1402.16,1254.86,1483.83,1254.86,1483.83z"/>
			<path class="st9" d="M2882.4,1562.64c-20.19,52.43-51.75,102.14-95.35,144.9c-215.48,211.24-577.22,322.71-687.34,290.65
				c-178.49-52.09-544.31-22.57-557.88-4.92c-22.4,29.35-92.47,234.15-101.29,270.12c-0.34,1.19-0.51,2.38-0.85,3.73
				c-0.34,1.36-0.51,2.88-0.85,4.24c-16.8,89.93-1.53,409.08,1.7,436.9c-8.8,0.29,1.83,34.45-10.1,33.88
				c-7.87-0.38-17.58,5.05-24.87,8.05c-87.7,36.09-89.42,5.32-80.07-19.2c115.04-23.08,59.9-354.03,72.45-374.63
				c15.63-25.66,34.27-237.03,56.67-280.81c35.56-69.85,29.78-195.47,7.87-320.14c-4.91-27.93,29.61-44.48,49.1-23.88
				c130.02,137.37,263.52,116.82,369.41,140.92c126.74,28.84,228.04-140.66,231.94-255.36c2.88-81.1,692.98-909.75,795.93-228.04
				C2912.6,1447.26,2903.95,1506.48,2882.4,1562.64z"/>
			<path class="st6" d="M2298.37,2255.38l-39.28,62.59c-4.34,6.91-13.47,9-20.38,4.66c-5.46-3.42-7.9-9.85-6.56-15.8l16.38-72.06
				c3.35-14.73,18.01-23.96,32.74-20.61c14.73,3.35,23.95,18,20.61,32.74C2301.18,2249.96,2299.94,2252.87,2298.37,2255.38z"/>
			<path class="st6" d="M2576.99,1898.08c-6.28,63.97-19,130.65-41.91,188.5l-0.17,0.34c-8.48,21.38-17.82,41.91-28.17,61.08
				c-30.37,56.84-69.06,101.8-118.26,122.16c-6.11,2.71-12.56,4.92-19.17,6.62c-28,7.47-59.21,7.29-93.83-2.72
				c-19-5.43-35.63-11.88-50.39-18.83c-14.25-6.96-26.81-14.59-37.67-22.91c-31.22-23.58-48.19-52.43-55.31-83.48
				c-9.5-40.72-1.53-85.68,14.25-128.61c22.57-61.42,61.08-118.77,88.06-154.57c17.65-23.41,30.37-37.67,30.37-37.67
				c5.77-5.6,11.37-11.37,17.14-17.14c17.48-17.82,34.61-35.97,51.75-53.45c28-28.84,55.82-56.33,83.65-78.05
				c43.1-34.1,86.7-54.29,132.34-45.64c1.87,0.34,3.73,0.85,5.6,1.36c2.38,0.51,4.75,1.36,7.13,2.04c1.02,0.17,1.87,0.51,2.88,0.85
				c0.85,0.17,1.53,1.19,2.38,3.05c2.04,3.9,4.07,11.71,5.94,22.74c1.19,7.13,2.38,15.44,3.56,24.94
				C2582.59,1737.4,2585.3,1815.45,2576.99,1898.08z"/>
			<path class="st6" d="M2523.82,2241.55l12.7,72.8c1.4,8.04-3.98,15.7-12.02,17.11c-6.34,1.11-12.46-2.04-15.45-7.35l-36.06-64.5
				c-7.37-13.19-2.65-29.85,10.53-37.22c13.19-7.37,29.85-2.66,37.22,10.53C2522.27,2235.64,2523.29,2238.64,2523.82,2241.55z"/>
			<path class="st6" d="M2613.47,2221.13c-22.06,25.11-52.43,43.44-93.32,52.6c-19.34,4.24-36.99,6.62-53.28,7.47
				c-30.71,1.53-56.67-2.55-78.39-11.03c-166.28-64.48-91.45-382.95-91.45-382.95c13.06-43.44,24.09-88.23,36.65-129.8
				c28-28.84,55.82-56.33,83.65-78.05c43.1-34.1,86.7-54.29,132.34-45.64c1.87,0.34,3.73,0.85,5.6,1.36
				c6.62,15.44,14.08,33.42,21.89,53.62c12.9,33.09,26.81,71.6,39.53,113c18.16,58.2,33.93,121.82,41.57,183.08v0.17
				C2669.46,2078.27,2661.66,2165.99,2613.47,2221.13z"/>
			<path class="st6" d="M2144.38,2212.51l-50.36,54.08c-5.56,5.98-14.92,6.31-20.89,0.75c-4.71-4.39-5.9-11.17-3.47-16.75
				l29.65-67.69c6.06-13.84,22.19-20.14,36.03-14.08c13.84,6.06,20.14,22.19,14.08,36.03
				C2148.16,2207.71,2146.39,2210.34,2144.38,2212.51z"/>
			<path class="st10" d="M2613.47,2221.13c-22.06,25.11-52.43,43.44-93.32,52.6c-19.34,4.24-36.99,6.62-53.28,7.47
				c-30.71,1.53-56.67-2.55-78.39-11.03c-6.11,2.71-12.56,4.92-19.17,6.62c-28,7.47-59.21,7.29-93.83-2.72
				c-19-5.43-35.63-11.88-50.39-18.83c-14.25-6.96-26.81-14.59-37.67-22.91l12.73-287.59l81.78-133.87
				c17.48-17.82,34.61-35.97,51.75-53.45c28-28.84,55.82-56.33,83.65-78.05c43.1-34.1,86.7-54.29,132.34-45.64
				c1.87,0.34,3.73,0.85,5.6,1.36c2.38,0.51,4.75,1.36,7.13,2.04c1.02,0.17,1.87,0.51,2.88,0.85c0.85,0.17,1.53,1.19,2.38,3.05
				c2.04,3.9,4.07,11.71,5.94,22.74c1.19,7.13,2.38,15.44,3.56,24.94c12.9,33.09,26.81,71.6,39.53,113
				c5.41,17.78-22.09,86.73-51.83,114.62c-5.43,5.09-11.84,20.87-28.12,48.11c-23.18,38.76-46.96,107.9-30,183.57
				c1.7,7.47,3.73,14.25,6.62,20.53C2536.27,2219.44,2587,2223,2613.47,2221.13z"/>
			<path class="st6" d="M2577.33,1649.51c0,0-1.19,5.09-3.73,14.25c-2.04,7.47-4.75,17.82-8.48,30.2
				c-27.49,93.66-99.26,314.91-202.59,451.5c-4.92,6.62-9.84,12.89-14.93,19c-37.16,45.13-78.39,78.22-122.5,90.77
				c-35.46,9.67-73.13,6.28-112.15-15.44c-78.22-43.1-113.51-103.5-119.45-163.73c-4.24-40.04,4.58-79.92,21.89-115.04
				c18.49-37.33,52.6-70.58,89.59-100.45c24.6-19.85,50.56-38.18,73.81-55.31c3.56-2.55,7.13-5.26,10.69-7.8
				c13.57-10.18,29.01-21.38,45.81-33.09c0-0.17,0.51-0.34,0.85-0.51c102.14-71.6,249.93-160.51,318.81-131.33
				c0.34,0.17,0.34,0.17,0.34,0.17c1.19,0.51,4.07,2.21,7.13,4.41c1.7,1.19,3.56,2.55,5.26,3.9
				C2571.9,1644.08,2575.8,1647.48,2577.33,1649.51z"/>
			<path class="st6" d="M2369.31,2276.79c-28,7.47-59.21,7.29-93.83-2.72c-19-5.43-35.63-11.88-50.39-18.83
				c-35.46,9.67-73.13,6.28-112.15-15.44c-78.22-43.1-113.51-103.5-119.45-163.73c13.46,34.98,54.64,67.66,74.93,79.13
				c26.94,15.23,71.23,15.75,83.29,7.49c29.68-20.33,50.16-59.27-5.35-142.44c-0.51-1.02-1.19-2.21-1.87-3.39
				c-41.06-70.41-57.58-120.33-39.53-156.27c24.6-19.85,50.56-38.18,73.81-55.31L2369.31,2276.79z"/>
			<path class="st8" d="M2804.35,1297.95c-5.6,64.81-31.73,126.4-74.32,175.61c-119.96,138.28-139.13,287.59-213.11,420.45
				c-78.9,141.85-105.54,268.76-76.69,392.11c0,76.52-50.39,315.42-42.76,402.46c1.36,13.57-1.87,27.15-1.02,40.89l-0.34,46.66
				c-3.22,25.11-107.91,31.22-103.16,0.51l15.27-37.33c1.36-3.56,2.55-7.13,3.73-10.52c5.77-15.95,10.86-30.88,14.42-53.28
				c14.08-89.42-17.48-221.08-32.58-387.53c-34.44-111.64-160.68-332.05-171.71-622.69c-39.7-157.29,12.39-325.94,139.47-426.89
				c212.77-168.99,389.9-124.88,428.59-98.75C2744.46,1176.3,2817.75,1140.33,2804.35,1297.95z"/>
			<path class="st2" d="M2266.35,1113.23c1.44,34.77-60.43,90.65-247,119.66c-186.81,29.26-163.55,0-185.85,70.02
				c-22.3,70.02-6.72,46.76-35.97,93.28c-29.02,46.76-75.78,29.26-145.56-69.78c-69.54-99.28-169.3-41.01-155.16-105.04
				c5.99-28.06,36.21-80.33,68.59-130.46c119.42-15.35,214.63-56.12,309.35-33.81c69.31,16.31,189.21,27.58,318.46,24.7
				C2237.81,1094.53,2266.11,1105.8,2266.35,1113.23z"/>
			<path class="st2" d="M601.85,1676.3c-41.73,41.73-115.35,88.01-174.34,97.36c33.09-106.47,68.1-335.49,104.07-414.15
				c49.16,0,16.52,89.68,70.27,141.73C639.8,1537.99,648.37,1629.78,601.85,1676.3z"/>
			<path class="st9" d="M1239.81,2045.35c-94-22.23-299.64-312.03-410.94-274.87c-77.2,25.96-157.79,111.98-224.64,160
				c-30.03,21.55-57.01,35.46-79.92,33.09c-10.52-1.02-21.21-3.39-31.9-6.96c30.66-4.15,58.28-16.61,84.82-33.83
				c118.66-77.01,84.46-251.28,270.14-257.84C913.91,1662.6,1111.03,1960.52,1239.81,2045.35z"/>
			<path class="st11" d="M448.97,1935.75c-32.75-21.21-56.84-51.92-54.46-82.29c38.35-0.34,55.14,7.8,56.5,43.1
				C451.35,1907.41,450.5,1921.33,448.97,1935.75z"/>
			<path class="st5" d="M539.8,1552.08c-14.11-39.46,29.26-49.58,72.29-45.1C604.25,1535.73,569.06,1566.59,539.8,1552.08z"/>
			<path class="st2" d="M525.68,1544.28c0,0,5.6-56.7,38.36-59.43c32.76-2.73,43.57,10.27,59.82,11.32
				c16.26,1.05,15.57,39.8,0,50.94c-15.56,11.14-41.42,29.1-59.82,26.89C545.65,1571.79,525.68,1544.28,525.68,1544.28z"/>
			<path class="st8" d="M2821.22,1172.55c17.75,13.84,30.75,31.03,40.49,48.24c9.69,17.31,16.83,34.95,22.11,52.43
				c10.64,35,15.78,69.53,19.44,103.71c6.74,68.33,6.56,135.48,5.26,202.32c-3.09,133.6-11.72,266-16.5,398.73
				c-0.16,4.33-3.79,7.71-8.12,7.56c-4.14-0.15-7.41-3.52-7.56-7.59c-4.52-132.89-5.2-266.07-11.41-398.09
				c-3.31-65.88-7.88-131.77-18.7-195.15c-5.58-31.51-12.69-62.59-23.44-90.51c-10.68-27.7-25.78-52.27-44.01-64.09
				c-16.6-10.76-21.33-32.93-10.57-49.53c10.75-16.6,32.93-21.33,49.53-10.57c0.87,0.56,1.7,1.15,2.5,1.77L2821.22,1172.55z"/>
			<path class="st2" d="M2781.63,1124.35c88.27,82.37,68.57,229.05-39.82,282.24c-62.73,30.78-109.05,86.02-144.76,118.64
				c-58.03,53.24-105.27,22.78-156.83-41.49c-51.32-64.03,31.41-53.48,32.85-157.31c1.44-104.08,30.46-93.53,0-163.55
				c-19.42-44.36,116.07-74.58,228.06-96.64C2728.26,1080.08,2755.93,1100.36,2781.63,1124.35z"/>
			<path class="st2" d="M2886.84,1971.43c27.33-7.68,39.92,31.32,40.42,50.72c0.06,47.07-49.98,69.95-40.87,150.16l0.09,0.22
				c0.54,1.39-0.15,2.96-1.54,3.5c-1.06,0.41-2.22,0.11-2.95-0.66c-12.56-13.31-22.61-29.17-28.31-48.01
				c-2.81-9.39-4.57-19.56-4.04-30.2c0.41-5.25,0.71-10.74,2.2-16.01l1.98-7.68l1.16-5.67c1.34-7.57,2.55-15.21,1.92-23.2
				c-0.37-7.91-1.9-15.81-0.19-23.35c6.45-46,28.52-49.78,30.03-49.93C2886.77,1971.33,2886.81,1971.4,2886.84,1971.43z"/>
			<path class="st2" d="M2903.57,1975.85c10.48,13.4,16.46,30.67,15.92,48.13c-0.54,17.83-9.67,33.41-17.94,47.92
				c-8.37,14.68-16.97,29.32-21.65,45.45c-4.97,16.02-4.19,33.67,2.7,49.18l-0.39,0.18c-7.45-15.32-8.92-33.37-4.37-49.92
				c4.37-16.61,12.75-31.68,20.71-46.55c7.72-14.93,16.1-29.93,16.75-46.48c1.21-16.41-3.67-33.12-12.07-47.66L2903.57,1975.85z"/>
			<path class="st2" d="M2873.17,1979.86c-7.6,14.14-10.31,30.42-8.5,45.96c2.74,15.57,4.37,32.32,2.43,48.45
				c-1.27,16.35-7.73,31.66-5.67,47.62c1.34,15.9,7.87,31.06,16.4,44.62l-0.35,0.23c-9.02-13.29-16.2-28.34-18.16-44.63
				c-2.51-16.52,3.66-32.38,4.38-48.14c1.18-16.02-0.62-31.58-3.17-47.74c-1.21-16.42,2.56-33.49,12.3-46.62L2873.17,1979.86z"/>
			<path class="st2" d="M2890.55,1977.92c3.64,12.04,5.3,24.6,5.59,37.26c0.22,12.68-2.67,25.5-7.14,37.16
				c-4.1,11.84-8.72,23.41-12.2,35.34c-3.54,11.84-6.15,24.25-4.52,36.64l-0.42,0.07c-2.21-12.42-0.13-25.17,2.9-37.28
				c3.1-12.16,7.35-23.96,11.01-35.83c3.78-11.89,6.17-23.79,6.13-36.15c0.47-12.3-0.52-24.69-1.76-37.12L2890.55,1977.92z"/>
			<path class="st2" d="M2886.89,1971.47c-8.42,16.65-10.31,34.93-9.04,53.32c1.01,18.78-1.18,37.6-6.34,55.52l-0.41-0.12
				c3.96-18.12,5.1-36.85,3.37-55.14c-1.25-9.15-1.74-18.93,0.13-28.29c2.05-9.27,5.57-18.48,11.95-25.55L2886.89,1971.47z"/>
			<path class="st2" d="M2927.26,2022.15c-0.36-13.99-7.05-38.1-20.98-47.62c7.71,11.5,11.49,27.66,11.73,38.14
				c-0.09,47.07-50.2,69.8-41.34,150.04l0.09,0.22c0.54,1.4-0.15,2.96-1.55,3.5c-0.26,0.1-0.53,0.04-0.79,0.06
				c2.42,3.06,4.91,6.06,7.57,8.89c0.74,0.78,1.9,1.08,2.95,0.66c1.39-0.54,2.08-2.11,1.54-3.5l-0.09-0.22
				C2877.28,2092.11,2927.31,2069.22,2927.26,2022.15z"/>
			<path class="st2" d="M2859.03,2129.38c-1.74-10.31-2.34-21.35-0.62-32.64c1-5.56,1.92-11.39,3.99-16.85l2.83-7.98l1.79-5.92
				c2.19-7.94,4.25-15.96,4.53-24.55c0.52-8.48-0.11-17.06,2.44-24.93c6.57-27.41,16.59-39.83,24.33-45.46
				c-3.5-0.77-7.3-0.8-11.48,0.38c-0.03-0.03-0.07-0.1-0.12-0.1c-1.51,0.15-23.58,3.94-30.03,49.93
				c-1.71,7.54-0.18,15.44,0.19,23.35c0.63,7.99-0.58,15.63-1.92,23.2l-1.16,5.67l-1.98,7.68c-1.49,5.26-1.79,10.76-2.2,16.01
				c-0.53,10.64,1.23,20.81,4.04,30.2c3.07,10.14,7.47,19.35,12.77,27.83C2863.21,2147.08,2860.6,2138.54,2859.03,2129.38z"/>
			<path class="st9" d="M2396.46,2729.47l-0.34,46.66c-3.22,25.11-107.91,31.22-103.16,0.51l15.27-37.33
				c1.36-3.56,2.55-7.13,3.73-10.52C2329.78,2738.46,2361.34,2748.98,2396.46,2729.47z"/>
			<path class="st9" d="M1438.67,2681.45c0.85,13.57,1.36,22.9,1.87,26.81c-8.82,0.34,1.87,34.44-10.18,33.93
				c-7.81-0.51-17.48,4.92-24.77,7.97c-87.72,36.14-89.42,5.43-80.08-19.17c0.51-1.53,1.19-3.05,1.87-4.58
				c6.11-13.74,15.78-26.98,22.57-40.89c9.67,8.82,25.62,15.1,52.09,9.67C1420.85,2691.46,1432.05,2686.37,1438.67,2681.45z"/>
			<path class="st8" d="M639.65,1361.68c-1.1-11.49,8.38-21.21,19.88-20.26c33.56,2.77,95.85,14.25,121.99,60.61
				c36.65,65,12.94,133.99-19.4,168.48c-32.34,34.5-130-114.47-124.92-129.36C643.89,1421.53,641.88,1384.9,639.65,1361.68z"/>
			<path class="st9" d="M639.65,1361.68c-1.1-11.49,8.38-21.21,19.88-20.26c33.56,2.77,95.85,14.25,121.99,60.61
				c36.65,65,12.94,133.99-19.4,168.48c-32.34,34.5-130-114.47-124.92-129.36C643.89,1421.53,641.88,1384.9,639.65,1361.68z"/>
		</g>
		<g>
			<path class="st7" d="M638.12,2717.16c-81.97-18.08-160.89-1.15-209.73-1.34c-2.49,0-5.17,0-8.04-0.38
				c-37.73-1.92-110.51-18.58-78.15-72.02c20.11-32.94,43.48-22.03,61.48-22.03c9.19,0,38.31,6.13,66.08-27.2
				c10.73-12.64,26.81-14.94,41.95-13.02c21.26,2.49,60.97,31.71,60.97,31.71S706.3,2732.2,638.12,2717.16z"/>
			<path class="st12" d="M1235.26,2241.02c-19.92-46.22-33.01-108.61-49.63-180.47c-26.85-116.31-77.47-292.38-136.9-196.87
				c-49.41,79.67-33.56,184.87-5.5,266.96c4.62,13.65,9.69,26.74,14.74,38.85c21.28,51.92,40.8,98.15,53.25,127.39
				c46.54-5.73,92.38-14.73,137.68-25.88C1240.47,2252.42,1235.26,2241.07,1235.26,2241.02z"/>
			<path class="st12" d="M1190.45,2237.04c-8.78,45.82-19.73,91.23-33.96,135.91c21.97,0.62,35.22,0.91,35.22,0.91
				c49.3-8.72,187.8-12.05,283.41-30.13c22.37,1.92,31.11-46.62,25.54-76.67c-2.58-13.9-8.17-23.86-16.76-23.08
				C1396.83,2238.5,1254.4,2237.33,1190.45,2237.04z"/>
			<path class="st13" d="M1413.61,2240.74c-11.55,24.76-17.62,90.07-17.62,114.27c-105.96,7.26-242.38,15.43-270.88-25.73
				c0,0-31.14-71.97-67.13-159.78c-5.06-12.11-10.12-25.2-14.74-38.85l10.34-33.34l31.8-82.75l59.6-50.12
				c0,0-1.64,228.58,9.8,246.41c11.44,17.83,128.27,86.22,212.35,101.52C1378.91,2314.45,1399.61,2271.77,1413.61,2240.74z"/>
			<path class="st6" d="M1691.74,2207.35c7.7,9.08,11.66,21.71,3.94,35.05c-13.39,23.4-113.64,66.49-154.58,86.72
				c-41.05,20.44-145.11,35.67-145.11,35.67s1.44-18.07,4.01-40.89c4.1-38.21,11.41-89.72,19.41-94.49c0,0,66.67,15.07,82.48,9.94
				c16.03-5.03,42.66-33.15,60.63-47.58c17.86-14.75,94.23-1.29,109.59,2.61C1678.49,2195.99,1686.15,2200.56,1691.74,2207.35z"/>
			<path class="st6" d="M1691.74,2207.35c7.7,9.08,11.66,21.71,3.94,35.05c-13.39,23.4-113.64,66.49-154.58,86.72
				c-41.05,20.44-145.11,35.67-145.11,35.67s1.44-18.07,4.01-40.89c0,0,68.24-15.34,80.63-23.36c12.29-7.8,41-57.66,60.29-70.95
				c19.51-13.19,130.54,13.65,146.34,1.57C1691.59,2227.84,1694.38,2212.67,1691.74,2207.35z"/>
			<path class="st6" d="M1582.12,2398.48c-4.06,3.05-9.47,4.19-14.69,2.61c-2.13-0.65-17.64-5.52-31.23-14.99
				c-21.8,11.55-66.55,33.65-77.04,38.81c-8.17,4.03-18.07,0.67-22.1-7.51c-4.02-8.19-0.58-18.11,7.51-22.1
				c29.23-14.4,78.04-38.8,84.58-42.98c6.6-4.23,15.26-3.22,20.73,2.41c7.36,7.59,20.72,16.47,24.66,19.37
				c8.84,6.49,15.17,10.63,13.46,15.97C1586.89,2393.54,1584.83,2396.44,1582.12,2398.48z"/>
			<path class="st7" d="M1265.44,1530.34c56.63,64.23,11.07,117.52-53.16,174.15c-64.23,56.63-198.49,208.62-244.05,65.15
				c-25.92-81.62-60.87-176.52,37.36-263.13C1069.81,1449.87,1208.8,1466.1,1265.44,1530.34z"/>
			<path class="st14" d="M1285.94,2190.9c-12.28-14.06-29.68-23.71-49.69-25.59l-7.59-0.66c-4.84-0.44-9.91-0.66-14.86-0.66
				l-9.02,0.11l-12.88,0.55l-20.69,1.1l-36.98,2.86c-23.99,1.98-47.43,4.29-70.76,6.71c-46.55,4.73-92.66,9.9-138.77,15.3
				l-107.95,13.1l-29.93,3.63l-137.77,17.72c-16.95,2.2-34.56,7.15-50.84,14.74c-84.84,40.06-121.27,141.18-81.32,226.14
				c39.95,84.84,141.19,121.27,226.14,81.32l0.88-0.44l64.59-30.48l58.98-27.73l124.24-57.44c2.11-0.95,4.22-1.9,6.32-2.85
				c-6.07,2.12-11.98,4.45-18.25,6.33c6.27-1.88,12.18-4.21,18.25-6.33c0.09-0.04,0.19-0.08,0.28-0.12
				c-0.01,0.01-0.03,0.03-0.04,0.04C1124.75,2383.95,1208.61,2288.81,1285.94,2190.9z"/>
			<path class="st14" d="M1285.94,2190.9c-77.33,97.9-161.19,193.04-287.65,237.34c-21.66,22.33-44.65,45.09-66.53,65.65l-0.88,0.88
				c-30.26,28.5-32.46,76.15-4.62,107.4c28.39,31.69,77.03,34.44,108.72,6.05c26.41-23.44,50.29-46.11,74.72-70.1
				c24.21-23.88,47.98-48.31,71.31-74.06c8.58-9.46,17.06-19.03,25.42-28.83v-0.11c14.52-17.06,28.72-34.77,42.58-54.14
				c10.89-15.4,21.68-31.69,31.91-51.28c5.06-9.9,10.01-20.58,14.53-33.56c4.29-12.77,8.58-28.39,8.91-49.74l0.11-0.11
				C1306.11,2225.33,1298.85,2205.68,1285.94,2190.9z"/>
			<path class="st15" d="M971.96,2454.96c9-9,17.81-17.81,26.43-26.81c-2.3,0.96-4.41,2.11-6.7,3.06l-55.74,25.86
				c-34.28-13.22-64.55-61.29-64.55-61.29s117.41,3.06,212.22-71.06C1178.62,2250.6,1017.93,2427.19,971.96,2454.96z"/>
			<path class="st15" d="M1269.03,2346.55l-62.63,88.68c-8.24,9.77-16.85,19.34-25.47,28.92c-23.17,25.67-46.92,50.18-71.25,73.93
				c-24.33,24.13-48.27,46.73-74.7,70.1c-31.6,28.54-80.25,25.67-108.79-5.94c-27.77-31.41-25.48-78.91,4.79-107.45l0.77-0.96
				c13.03-12.26,26.62-25.48,40.03-38.69c0.19-0.19,0.19-0.19,0.19-0.19c9-9,17.81-17.81,26.43-26.81c-2.3,0.96-4.41,2.11-6.7,3.06
				l-55.74,25.86l-68.38,31.6l-58.99,27.77l-146.9-203.21l155.14-109.56l107.83-13.02c46.16-5.36,92.32-10.53,138.86-15.32
				c23.37-2.49,46.73-4.79,70.67-6.7C1134.19,2168.62,1122.7,2299.24,1269.03,2346.55z"/>
			<path class="st14" d="M1115.23,2757.77l-0.19,0.19c-22.03,11.87-39.07,15.13-54.59,18c-15.32,2.68-28.92,3.45-42.14,3.83
				c-26.05,0.58-49.99-0.96-73.36-3.06c-46.35-4.41-357.2-54.2-360.65-54.2c-31.22-2.87-68.18-137.14-30.07-148.44
				c14.75,7.47,67.03,6.32,75.65,7.47l-21.64-5.17c-10.15-2.3-21.07-4.98-29.88-6.51c-73.93-13.41-126.22-76.42-128.71-148.44
				c-0.19-1.34-0.19-2.87-0.19-4.4c0-9.58,0.77-19.54,2.68-29.31c15.32-85.04,45.39-32.56,130.63-17.81
				c24.9,4.21,68.76,0.57,104.96-4.02c32.94-4.02,59.37-8.81,59.37-8.81c43.48-13.98,23.75-26.62,43.48-13.98
				c39.45,25.09,98.06,63.59,136.75,90.98c38.69,27.77,76.81,56.69,114.73,90.02c18.77,17.04,37.54,34.86,56.5,56.88
				c9.58,11.11,19.15,22.98,28.54,38.5c4.6,7.66,9.38,16.28,13.6,26.62c4.4,10.34,8.23,22.6,9.96,37.35
				c0.19,1.34,0.19,2.68,0.38,4.02C1154.87,2716.59,1140.13,2744.36,1115.23,2757.77z"/>
			<path class="st15" d="M702.1,2568.62c-68.69-18.55-116.1-41.65-148.76-64.17c-40.56-27.97-32.73-88.7,13.1-106.75
				c0.25-0.1,0.51-0.18,0.75-0.3c35.78-18.15,69.55-16.62,104.03-17.39c30.5-0.68,60.56-7.95,88.14-20.99
				c24.9-11.77,33.38-14.61,33.38-14.61l-107.64,5.34c-36.2,4.51-81.65,3.39-106.41-0.89c-85.28-14.75-111.2-46.21-126.6,38.85
				c-1.82,9.85-2.46,19.67-2.35,29.38h-0.18c0,1.54,0,2.97,0.11,4.4c2.53,71.97,54.8,135.02,128.64,148.45
				c8.8,1.54,19.81,4.18,29.93,6.49l21.57,5.06c230.87,12.44,353.9,69.44,361.38,72.96C969.84,2637.29,906.46,2623.86,702.1,2568.62
				z"/>
			<path class="st12" d="M1110.35,2111.05c-12.7,31.16-35.71,56.57-64.72,72.63c-1.92,1.2-8.15,5.27-16.3,10.31
				c-17.74,11.27-43.86,27.81-48.42,29.48c-71.91,23.97-107.14,45.3-126.07,63.28c-4.32,4.32-7.91,8.15-10.79,11.98
				c-0.72,0.96-1.44,1.68-1.92,2.64c-2.88,3.6-5.03,7.19-6.71,10.55c-0.48,0.72-0.72,1.2-0.72,1.44
				c-7.19,13.66-9.59,23.01-26.85,27.08c-47.69,10.55-67.35,33.32-131.11,28.53c-25.89-1.92-51.29-0.96-75.02,1.44l-5.75,0.72
				c-11.27,1.2-22.05,2.64-32.36,4.56c-2.16,0.24-3.36,0.48-3.36,0.48c-84.61,14.14-139.5,38.59-115.05-5.27
				c50.6-179.96,283.66-307.33,398.74-437.56c172.86-195.63,296.36-116.6,310.26-36.78
				C1164.04,1952.85,1140.79,2035.06,1110.35,2111.05z"/>
			<path class="st16" d="M1110.35,2111.05l-53.93-117.69l34.28-82.69l63.52-14.14C1164.04,1952.85,1140.79,2035.06,1110.35,2111.05z
				"/>
			<path class="st17" d="M1234.04,1754.88c-3.9,10.52-24.77,35.8-46.32,60.74c-22.06,25.11-44.45,49.88-50.73,58.71
				c0,0,2.04,12.39,2.21,26.64c0.34,20.02-2.88,43.94-20.02,42.59c-26.13-1.87-88.06-113.51-71.09-119.45
				c18.49-6.62,66.51-102.99,75.84-119.45l0.51-0.85C1141.06,1674.79,1244.05,1727.73,1234.04,1754.88z"/>
			<path class="st18" d="M1136.99,1874.33c0,0,2.04,12.39,2.21,26.64c-1.02-0.34-2.04-0.51-3.05-0.85
				c-26.47-7.64-26.47-76.35-26.47-76.35l68.21-23.25l9.84,15.1C1165.67,1840.73,1143.27,1865.5,1136.99,1874.33z"/>
			<path class="st13" d="M959.26,2231c-87.86,30.62-129.75,79.77-145.27,99.8c12.98-19.92,39.06-56.45,71.64-87.81
				c47.65-45.78,39.98-226.1,39.98-226.1S980.91,2223.46,959.26,2231z"/>
			<path class="st12" d="M1090.13,1879.47c-14.3-59.31-129.65-40.61-149.79,17.05c-49.41,141.96,56.38,489.33,94.87,511.59
				c51.13-10.13,70.49-79.57,111.66-111.22C1136.96,2291.29,1106.75,1948.58,1090.13,1879.47z"/>
			<path class="st12" d="M1420.92,2395.61l-0.84-0.29c-26.83-7.05-273.21-98.43-287.22-125.68c-38.8,37.17-65.99,97.09-97.73,138.44
				c0.04,0.02,0.03,0.03,0.08,0.03c18.62,11.04,81.53,35.32,96.74,39.97c30.36,9.23,236.71,50.8,266.98,55.26
				c17.99,2.65,34.51-41.42,35.38-74.12C1434.8,2412.26,1430.96,2398.21,1420.92,2395.61z"/>
			<path class="st19" d="M1475.65,2387.64c0,0,47.74-24.72,57.48-24.35c8.23,6.73,54.88,26.77,54.88,26.77L1475.65,2387.64z"/>
			<path class="st13" d="M1434.25,2429.39c-1.03,32.69-17.75,76.68-35.73,73.95c-30.26-4.61-236.41-47.15-266.72-56.52
				c-15.19-4.73-77.98-29.31-96.55-40.43C1044.89,2410.1,1376.47,2537.52,1434.25,2429.39z"/>
			<path class="st6" d="M1651.96,2438.31c-1.1,16.11-15.09,33.8-31.39,44.83c-25.64,17.74-72.13,35.26-83.35,40.68
				c-11.36,5.23-56.13,15.46-74.88,1.65c-18.94-13.66-18.42-22.14-50.01-20.31c-21.86,11.61-77.7,4.67-77.7,4.67
				c-6.91-14-4.9-41.27,2.66-67.93l0.05-0.34c8.95-31.59,25.67-62.42,44.13-68.18c0,0,48.62,18.06,56.91,18.72
				c8.29,0.67,95.82-14.08,111.5-13.56c16.01,0.57,81.98,30.17,88.55,34.53C1648.93,2419.91,1652.63,2428.82,1651.96,2438.31z"/>
			<path class="st13" d="M854.84,2286.74c-4.32,4.32-7.91,8.15-10.79,11.98c-0.72,0.96-1.44,1.68-1.92,2.64
				c-2.88,3.6-5.03,7.19-6.71,10.55c-0.48,0.72-0.72,1.2-0.72,1.44c-7.19,13.66-9.59,23.01-26.85,27.08
				c-47.69,10.55-67.35,33.32-131.11,28.53c-25.89-1.92-51.29-0.96-75.02,1.44c46.02-6.71,110.26-17.5,83.41-20.61
				c-40.27-5.03-92.52-56.57-62.56-36.19c27.09,18.46,130.63,9.11,145.73,8.15c-16.78-1.68-139.74-61.12-58.72-36.91
				c83.65,24.93,143.81,0,143.81,0L854.84,2286.74z"/>
			<path class="st20" d="M1651.96,2438.31c-1.1,16.11-15.09,33.8-31.39,44.83c-25.64,17.74-72.13,35.26-83.35,40.68
				c-11.36,5.23-56.13,15.46-74.88,1.65c-18.94-13.66-18.42-22.14-50.01-20.31c-21.86,11.61-77.7,4.67-77.7,4.67
				c-6.91-14-4.9-41.27,2.66-67.93l0.05-0.34c0,0,63.33,19.3,80.49,20.2c17.02,0.71,67.74,14.79,91.52,28.11
				c23.73,13.65,85.38,0.35,107.9-15.95C1636.72,2459.94,1648.89,2443.01,1651.96,2438.31z"/>
			<path class="st21" d="M505.78,2637.87c-31.2,19.29-32.7,26.94-45.91,43.14c-11.36,13.93-40.52,20.83-56.29,20.64
				c-38.36,1.7-93.73-4.78-61.37-58.22c20.11-32.94,43.48-22.03,61.48-22.03c9.19,0,38.31,6.13,66.08-27.2
				c10.73-12.64,26.81-14.94,41.95-13.02C525.04,2588.7,530.16,2622.8,505.78,2637.87z"/>
			<path class="st15" d="M1115.04,2757.96c-22.03,11.87-39.07,15.13-54.59,18c-15.32,2.68-28.92,3.45-42.14,3.83
				c-26.05,0.58-49.99-0.96-73.36-3.06c-46.35-4.41-357.2-54.2-360.65-54.2c-31.22-2.87-68.18-137.14-30.07-148.44
				c0,0-14.75,83.89,59.37,118.37C687.54,2726.93,998.01,2784.01,1115.04,2757.96z"/>
			<path class="st13" d="M1141.97,2278.43c0,0-51.07,3.54-71.33,59.47C1096.22,2309.15,1141.97,2278.43,1141.97,2278.43z"/>
			<path class="st17" d="M1288.49,1652.08c0.01-0.09,0.02-0.18,0.04-0.27c11.53-88.97-29.8-138.93-132.03-150.4
				c-95.18-10.69-286.9,139.13-132.58,260.62c68.6,54.01,62.81,63.2,150.51,101.69C1285.94,1912.67,1286.4,1668.28,1288.49,1652.08z
				"/>
			<path class="st7" d="M1285.94,1588.44c0,0-82.68,140.25-129.45,118.72c-33.54,174.61-26.57,211.25-85.9,154.15
				c-96.48-92.86-363.62,227.47-254.08,82.28c28.74-38.08,109.09-132.57,117.5-283.15c10.16-182.05,229.02-211.75,294.71-159.38
				C1265.44,1530.34,1278.6,1543.48,1285.94,1588.44z"/>
			<path class="st17" d="M1176.12,1730.64c-6.51,27.31,10.71,50.19-5.51,56.15c-16.22,5.96-37.21-10.55-46.9-36.88
				c-9.69-26.33-14.64-48.74,11.84-58.48C1164.91,1680.63,1182.62,1703.35,1176.12,1730.64z"/>
		</g>
	</g>
</g>
</svg>
