<?xml version="1.0" encoding="utf-8"?>
<!-- Generator: Adobe Illustrator 24.1.3, SVG Export Plug-In . SVG Version: 6.00 Build 0)  -->
<svg version="1.1" id="Layer_1" xmlns="http://www.w3.org/2000/svg" xmlns:xlink="http://www.w3.org/1999/xlink" x="0px" y="0px"
	 viewBox="0 0 1440 900" style="enable-background:new 0 0 1440 900;" xml:space="preserve">
<style type="text/css">
	.st0{fill:#FABCA3;}
	.st1{fill:#E5A895;}
	.st2{fill:#232020;}
	.st3{fill:#141111;}
	.st4{fill:#494343;}
	.st5{fill:#1E1B1B;}
	.st6{fill:#D5DFE2;}
	.st7{fill:#BCC2C4;}
	.st8{fill:#1E1E1E;}
	.st9{fill:#5B5350;}
	.st10{fill:#AA5446;}
	.st11{fill:#FFFFFF;}
	.st12{fill:#005884;}
	.st13{fill:#0A0E0F;}
	.st14{fill:#F7F9F9;}
	.st15{fill:#FFD0C2;}
	.st16{fill:#D69A8A;}
	.st17{fill:#F7C5B5;}
	.st18{fill:#474949;}
	.st19{fill:#8E241B;}
	.st20{fill:#F28F8F;}
	.st21{fill:#C96161;}
	.st22{fill:#EADCDC;}
</style>
<g>
	<g>
		<path class="st0" d="M946.69,514.3c0,0,0.41,14.76,5.33,23.37c4.92,8.61,8.2,12.71,0,22.96c-8.2,10.25-13.12,39.77-9.02,48.38
			c4.1,8.61,7.79,12.71,1.64,15.99c-6.15,3.28-9.02,2.87-8.61,9.43c0.41,6.56-32.39,10.25-30.75-10.66
			c6.15-5.33,22.14-25.01,15.17-54.94c-6.97-29.93-18.57-40.18-15.23-43.05C908.56,522.91,941.36,506.51,946.69,514.3z"/>
		<path class="st0" d="M888.39,511.85c0,0,9.84,8.2,2.46,22.55c-8.2,14.76-12.71,35.26-10.66,46.33c2.05,11.07,8.2,16.81,3.28,20.5
			c-4.92,3.69-9.02-0.41-11.07,8.61c-2.05,9.02-33.62,1.64-31.16-9.84c5.74-2.46,18.86-14.35,17.63-40.18
			c-1.23-25.83-5.74-32.39-7.79-36.9C850.67,515.13,884.68,506.63,888.39,511.85z"/>
		<path class="st0" d="M782.19,537.22c0,0,2.43,7.11-4.56,31.73c-6.95,29.24-6.19,44.06-1.15,54.19
			c5.03,10.13,4.28,19.12-3.02,19.96c-6.14,2.13-0.82,10.63-5.2,11.63c-4.38,1-23.63-7.44-24.18-12.39
			c-0.12-5.34,0.08-9.03,6.21-16.09c6.13-7.06,4.07-37.37-0.36-54.03c-5.24-12.73-8.1-24.85-4.98-37
			C752.72,527.83,781.15,530.17,782.19,537.22z"/>
		<path class="st0" d="M721.4,528.9c0,0,3.69,12.71-2.87,25.42c-6.15,13.53-1.43,38.95,1.95,44.69c3.38,5.74,5.12,14.76-1.49,17.22
			c-6.61,2.87-7.84,9.84-7.84,9.84s-9.84,2.05-11.48,0c-1.64-2.05-11.89-7.38-11.89-7.38s3.28-3.69,2.87-7.79
			c-0.41-4.1,3.28-8.61,4.92-15.99c1.64-7.38,0-32.8-4.1-41.82c-4.51-9.02-6.15-20.5-3.69-34.44
			C694.75,509.63,720.37,519.89,721.4,528.9z"/>
		<path class="st1" d="M908.62,536.47c0,0,3.77,4.34,10.65,4.29c8.15,0.33,20.79-2.83,25.03,4.03c5.67,9.16,1.52,14.73-2.67,24.23
			c-3.04,6.88-5.64,16.41-4.62,27.11c0.92,9.66,0.99,15.42,4.14,17.9c3.15,2.49,4.31,7.79-4.47,11.44
			c-4.64,2.15,0.35,10.44-6.37,13.26c3.35-1.28,6.33-0.7,5.73-6.5c0.64-4.94,4.97-5.32,7.16-6.49c2.19-1.17,7.66-3.3,2.31-11.73
			c-5.35-8.43-4.57-20.23-1.81-32.56c2.76-12.33,6.43-17.87,8.91-21.56c2.48-3.69,6.68-9.06,2.55-16.59
			c-4.12-7.53-5.85-8.26-8.36-26.86c-0.68-8.16-18.58-6.17-36.82,2.95C902.7,526.5,903.44,527.71,908.62,536.47z"/>
		<path class="st1" d="M854.08,529.66c0.14,0.24,10.12,4,18.87,0c8.75-4,11.48-1,10.11,5.84c-1.37,6.83-8.2,25.42-6.56,39.91
			c1.64,14.49,6.01,19.41-0.27,22.14c-6.29,2.73-6.85,4.92-7.49,10.39c-0.64,5.47-18.05,4.47-25.09-1.32
			c7.71,4.74,20.83,12.25,28.76,3.23c2.17-4.94,2.9-7.6,6.78-6.8c4.15,0.52,9.85-4.22,4.21-12.01c-5.64-7.79-4.33-26.84-0.01-38.57
			c4.32-11.73,14.62-28.36,8.1-36.6c-5.15-8.24-29.69-3.23-36.28,1.92C849.71,522.1,851.06,524.64,854.08,529.66z"/>
		<path class="st1" d="M744.12,539.25c0,0-0.89,9.82,10.9,14.57c11.79,4.74,16.94,10.65,15.52,21.72
			c-1.42,11.07-6.14,30.52-2.11,40.59c4.03,10.07,7.78,19.58-1.3,24.02c-8.53,4.47-7.48,10.27-7.48,10.27l9.88,4.51
			c0,0,1.54-1.44,0.71-7.23c-0.56-5.77,5.79-3.46,8.41-8c2.62-4.54,0.22-11.5-3.91-20.76c-3.86-9.25-2.97-25.27,1.65-44.57
			c4.67-19.57,8.99-32.97,3.95-39.76C774.71,528.88,742.9,527.67,744.12,539.25z"/>
		<path class="st1" d="M686.97,524.5c0,0,4.09,4.95,13.66,8.5c9.57,3.55,13.03,10.8,10.39,20.5c-3.28,12.03-0.75,30.27,1.3,36.63
			c2.45,7.59,7.17,14.49,3.34,21.05c-3.83,6.56-7.38,13.94-9.02,13.94c2.38,1.34,4.51,0.96,4.51,0.96s0.98-5.14,6.16-8.96
			c5.27-3.99,8.49-3.92,4.26-16c-4.24-12.08-6-16.76-5.95-32.59c0.87-13.92,8.37-21.9,6.81-31.68c0.07-10.67-4.78-15.74-11.72-18.24
			C703.7,516.08,686.66,509.28,686.97,524.5z"/>
		<g>
			<path class="st2" d="M770.16,658.19c0,0-0.67-7.5-9.02-13.87c-7.76-4.33-12.76-6.59-20.71-3.51
				c-7.95,3.08-18.38,19.71-16.79,25.05c0.97,0.68,2.08,1.49,7-0.33c-2.04,2.82-1.34,3.51-0.68,3.93c5.32,3.36,20.21,4.1,33.6-0.49
				C767.77,667.53,771.07,663,770.16,658.19z"/>
			<path class="st3" d="M742.73,646.46c0,0-12.92,7.97-18.3,19.88c1.71,0.83,6.22-0.81,6.22-0.81S739.03,649.45,742.73,646.46z"/>
			<path class="st4" d="M761.41,646.02c0,0-9.24-6.77-17.29-5.51c-8.06,1.26-17.48,11.46-19.96,22.95
				c1.43-4.04,7.59-16.54,17.45-19.71C751.46,640.56,761.41,646.02,761.41,646.02z"/>
			<path class="st4" d="M742.69,647.18c0,0-10.21,17.77-9.71,20.21c0.59,2.37,5.93,3.71,7.06,3.53c-3.33,0.3-10.17-1.72-10.08-3.13
				C730.07,666.39,739.9,649.37,742.69,647.18z"/>
			<path class="st5" d="M760.41,643.91c0,0,6.93,4.27,9.11,11.62c2.19,7.35-1.17,11.12-6.79,13.72c-5.63,2.6-17.63,3.95-26.58,2.31
				c4.73,0.55,27.29-1.9,29.24-11.16C767.35,651.14,762.63,645.11,760.41,643.91z"/>
		</g>
		<g>
			<path class="st2" d="M871.87,614.86c0,0-1.06-7.35-9.62-13.17c-7.87-3.85-12.91-5.81-20.57-2.35
				c-7.66,3.46-17.04,20.38-15.2,25.55c0.99,0.61,2.13,1.36,6.88-0.69c-1.86,2.89-1.13,3.53-0.46,3.91
				c5.41,3.02,20.12,2.96,33.05-2.27C870.02,624.18,873.02,619.55,871.87,614.86z"/>
			<path class="st3" d="M844.25,604.77c0,0-12.29,8.54-16.96,20.54c1.73,0.73,6.08-1.13,6.08-1.13S840.76,607.91,844.25,604.77z"/>
			<path class="st4" d="M862.61,603.35c0,0-9.45-6.18-17.32-4.51c-7.86,1.67-16.6,12.21-18.43,23.65
				c1.19-4.05,6.59-16.68,16.12-20.34C852.52,598.5,862.61,603.35,862.61,603.35z"/>
			<path class="st4" d="M844.25,605.49c0,0-9.11,18.03-8.48,20.41c0.71,2.3,6.03,3.34,7.14,3.1c-3.26,0.48-10.11-1.15-10.09-2.54
				C832.84,625.07,841.61,607.79,844.25,605.49z"/>
			<path class="st5" d="M861.51,601.32c0,0,7.04,3.83,9.59,10.95c2.55,7.12-0.56,11.01-5.96,13.87c-5.4,2.86-17.14,4.83-26.04,3.68
				c4.68,0.29,26.76-3.33,28.19-12.54C868.73,608.07,863.76,602.38,861.51,601.32z"/>
		</g>
		<g>
			<path class="st2" d="M934.76,640.37c0,0-1.12-7.75-10.15-13.9c-8.31-4.06-13.63-6.13-21.71-2.48
				c-8.08,3.65-17.99,21.5-16.04,26.96c1.04,0.65,2.25,1.43,7.26-0.73c-1.96,3.05-1.2,3.72-0.49,4.12
				c5.71,3.19,21.23,3.13,34.87-2.39C932.8,650.21,935.98,645.32,934.76,640.37z"/>
			<path class="st3" d="M905.61,629.73c0,0-12.97,9.01-17.89,21.67c1.83,0.77,6.41-1.19,6.41-1.19S901.93,633.04,905.61,629.73z"/>
			<path class="st4" d="M924.99,628.22c0,0-9.97-6.52-18.27-4.76c-8.3,1.76-17.52,12.89-19.45,24.96
				c1.26-4.28,6.96-17.6,17.02-21.46C914.34,623.11,924.99,628.22,924.99,628.22z"/>
			<path class="st4" d="M905.61,630.49c0,0-9.61,19.03-8.95,21.54c0.75,2.43,6.36,3.52,7.54,3.27c-3.44,0.5-10.67-1.21-10.65-2.68
				C893.57,651.15,902.83,632.92,905.61,630.49z"/>
			<path class="st5" d="M923.83,626.09c0,0,7.43,4.04,10.12,11.55c2.69,7.51-0.59,11.62-6.28,14.64c-5.7,3.02-18.09,5.09-27.48,3.89
				c4.94,0.31,28.24-3.51,29.75-13.23C931.44,633.21,926.2,627.21,923.83,626.09z"/>
		</g>
		<g>
			<path class="st2" d="M713.42,627.12c0,0-1.05-7.25-9.49-13c-7.76-3.8-12.74-5.73-20.3-2.32c-7.56,3.41-16.82,20.1-15,25.21
				c0.98,0.61,2.1,1.34,6.79-0.69c-1.83,2.85-1.12,3.48-0.46,3.85c5.34,2.98,19.85,2.93,32.61-2.24
				C711.59,636.31,714.55,631.74,713.42,627.12z"/>
			<path class="st3" d="M686.16,617.16c0,0-12.13,8.42-16.73,20.27c1.71,0.72,6-1.11,6-1.11S682.72,620.26,686.16,617.16z"/>
			<path class="st4" d="M704.28,615.75c0,0-9.33-6.09-17.09-4.45c-7.76,1.65-16.38,12.05-18.18,23.33c1.18-4,6.5-16.46,15.91-20.06
				C694.33,610.97,704.28,615.75,704.28,615.75z"/>
			<path class="st4" d="M686.16,617.87c0,0-8.99,17.79-8.37,20.14c0.7,2.27,5.95,3.29,7.05,3.06c-3.21,0.47-9.97-1.14-9.95-2.51
				C674.91,637.19,683.56,620.14,686.16,617.87z"/>
			<path class="st5" d="M703.2,613.76c0,0,6.95,3.78,9.46,10.8c2.51,7.02-0.55,10.86-5.88,13.68c-5.33,2.82-16.91,4.76-25.7,3.63
				c4.62,0.28,26.41-3.28,27.82-12.37C710.31,620.42,705.42,614.81,703.2,613.76z"/>
		</g>
	</g>
	<path class="st6" d="M732.9,535.95c0.59,7.43,13.67,14.86,24.07,10.7c5.05,6.54,22.29,6.24,23.78-3.57
		c8.32,4.76,16.94-0.89,19.32-7.43c3.86,11,18.43,9.81,20.81,3.87c7.13,7.13,23.63,8.02,28.31-0.3c6.17,4.76,18.42,2.08,19.43-4.46
		c5.76,4.46,21.35,1.07,22.11-8.92c7.13,3.57,8.85-0.59,8.85-0.59s-2.78,15.16,17.96,9.51c4.99,3.57,20.15,0.59,19.25-5.65
		c7.13,4.76,17.83-3.57,14.56-13.08c6.54-0.59,11.37-10.4,5.54-18.43c4.27-3.86,4.27-7.73,4.27-7.73s8.03,7.43,16.05-0.89
		c5.65-7.13,3.27-12.48,3.27-12.48s9.51-11.29-3.57-22c7.43-16.05,0.59-26.45-5.05-27.05c4.76-8.02-2.9-26.16-14.97-27.64
		c-0.19-10.4-7.91-16.35-17.43-13.97c-0.59-7.43-2.08-14.86-12.78-13.67c-4.46-9.51-12.48-16.05-24.08-12.19
		c-5.94-5.94-20.81-7.01-27.64-1.13c-6.24-5.71-24.08-6.3-30.02,0.83c-3.86-5.05-17.24-7.73-23.78-2.68
		c-5.65-4.76-17.24-5.05-20.81,0.3c-4.16-6.84-14.27-11.59-21.1-6.54c-3.27-5.65-12.19-12.48-21.99-8.32
		c-2.68-9.81-7.43-13.38-14.27-12.48c-0.89-7.43-13.38-11.89-19.02-7.43c-7.73-4.46-18.43-1.78-18.72,5.35
		c-8.03,4.46-22.29,12.78-21.1,20.51c-8.32-0.59-19.62,5.94-18.43,11.59c-8.62,0.89-24.22,12.57-21.4,27.94
		c0,0-2.38,20.51,14.27,23.18c-8.02,7.43-6.24,21.99,5.05,23.18c-4.16,8.32-3.21,16.94,4.34,17.24c-6.12,5.35-3.44,18.73,7.26,19.32
		c-7.26,9.04-3.64,19.1,2.56,19.68c0,0-8.79,13.85,3.29,19.71c-5.6,4.26-0.56,13.28,5.07,16.48c3.72,4.26,11.16,3.65,11.16,3.65
		s7.45,11.25,16.23,2.73C715.95,538.96,727.13,542.15,732.9,535.95z"/>
	<path class="st7" d="M773.89,344.88c0,0,4.45,6.73,2.34,18.97c-2.11,12.24-8.57,19.71-27.86,14.35
		c-15.19-4.22-24.9,2.45-35.03,12.83c-10.13,10.38-21.1,15.87-23.63,20.09c-6.75,0.42-16.04,17.97-10.55,24.6
		c-3.8-0.54-8.02,12.96,0.42,17.18c-3.8,1.69-5.49,12.66,0.42,15.19c-2.11,4.22-5.49,16.88,2.95,19.84
		c-0.84,2.53-8.56,13.91-1.87,22.31c-4.72,0.05-10.56-10.77-3.29-19.71c-6.43-0.55-9.85-9.75-2.56-19.68
		c-5.38-0.41-15.46-5.78-7.26-19.32c-4.45-1.65-11.41-3.77-4.34-17.24c-5.59,2.57-16.33-10.53-5.05-23.18
		c-5.23-1.68-15.75-4.17-14.27-23.18c-3.16-4.67,2.49-25.05,21.4-27.94c0.34-2.79,4.01-11.85,18.43-11.59
		c1.01-4.74,2.38-15.16,21.1-20.51c-2.89-4.14,6.15-11.21,18.72-5.35c2.87-1.4,12.81-5.77,19.02,7.43
		c4.52-2.42,12.62,3.75,14.27,12.48C760.61,337.68,771.58,342.63,773.89,344.88z"/>
	<path class="st7" d="M686.64,486.82c0,0-3.02,11.51,9.06,14.5c-2.19,5.98-0.69,17.15,11.62,16.92c0,4.95,4.72,11.05,12.32,10.7
		c0.92,5.52,10.98,8.6,13.26,7c-1.64-0.44,1.22,6.17,9.4,10.17c8.18,4,14.67,0.53,14.67,0.53s-15.24,0.13-20.19-11.83
		c-3.34-8.63-2.65-10.82-2.65-10.82s-13.01-2.42-7.25-17.49c-4.26-2.76-12.12-8.98-5.25-20.49c-4.76,2.42-7.52,16,1.11,21.41
		c-2.88,4.95,0.46,12.43,2.53,16.46c2.07,4.03-0.72,5.52-1.8,5.18c-1.08-0.35-3.04-2.65-2.69-4.49c-1.84,1.5-11.74,0.11-11.16-7.54
		c-2.88,0.06-14.96-2.13-12.32-16.75C696.74,499.02,686.67,498.56,686.64,486.82z"/>
	<path class="st7" d="M681.09,510.24c0,0-2.99,1.55-2.24,6.79c0.74,5.24,8.12,15.58,18.48,13.34c1.6,4.1,10.37,10.12,16.23,2.73
		c-2.06,1.67-11.18,3.66-14.74-4.39c-3.22,0.58-11.46-0.9-15.77-7.37C678.74,514.89,680.28,511.46,681.09,510.24z"/>
	<path class="st7" d="M806.31,481.87c0,0,9.9,11.74,0,23.71c4.6,3.91,2.76,17.96-5.75,20.26c2.76,5.75-14.27,19.34-21.64,13.58
		c-1.15,4.83-6.51,12.56-21.94,7.23c1.91,4.74,22.16,8.15,23.78-3.57c3.68,3.01,15.85,2.15,19.32-7.43
		c2.09,6.07,13.51,14.09,20.81,3.87c0,0-7.44,4.05-11.35-0.1c-3.91-4.14-5.06-9.44-2.53-11.74c2.3-1.61,8.75-8.29,3.68-21.87
		C816.66,498.67,813.67,488.32,806.31,481.87z"/>
	<path class="st7" d="M868.62,469.21c0,0-5.22,12.2,6.52,20.03c-4.83,4.14-5.29,17.49,9.21,19.8c-1.61,6.45,7.14,15.88,17.03,14.73
		c0,4.37,5.98,14.27,15.88,8.98c2.63,3.07,19.05,1.26,19.54-3.63c0.95,3.17-7.92,11.12-19.25,5.65c-3.7,5.06-19.7,2.97-18.51-8.73
		c-1.34,2.34-7.22,2.81-8.31-0.19c1.4,5.1-10.44,17.15-22.11,8.92c-0.16,5.58-12.46,11.16-19.43,4.46
		c-1.45,4.8-18.11,12.83-28.31,0.3c7.21,4.29,22.03,5.2,27.09-4.01c5.52,3.45,18.73,4.17,19.38-4.25c4.79,4.02,15.84,0.79,16.3-6.57
		c-1.38-5.06-6.44-7.45-2.07-13.39c-4.37,0.73-20.72-5.94-11.51-20.45C867.08,488.08,859.57,478.19,868.62,469.21z"/>
	<path class="st7" d="M956.9,421.27c0,0,11.19,21.78,5.38,35.57c4.36,5.99,1.81,16.51-2.72,19.05c4.9,5.44,2.66,18.56-2.66,21.71
		c2.84,3.15,5.68,15.92-5.54,18.43c2.03,3.59,0.2,9.09-4.06,12.42c-4.26,3.33-7.14,2.16-10.5,0.66c3.46,1.31,14.6-5.31,11.15-14.75
		c4.54-0.91,9.8-9.98,4.36-16.7c2.9-3.08,7.62-17.2,2.54-21.73c3.45-1.27,9.98-16.37,3.27-18.73
		C963.45,452.98,961.68,432.53,956.9,421.27z"/>
	<path class="st7" d="M939.47,385.85c0,0,14.95-5.31,17.43,13.97c5.74,0.04,19.84,12.78,14.97,27.64
		c7.83,0.35,12.44,16.73,5.05,27.05c4.77,1.79,11.8,12.99,3.57,22c2.3,3.75,0.19,11.62-6.47,15.03c-6.11,2.87-11.6,0.17-12.85-1.66
		c3.73,2.25,11.27,0.35,14.9-4.55c3.63-4.9,1.09-9.39,1.09-9.39s11.43-10.02-2.18-20.19c1.27-5.99,7.8-21.59-5.99-26.49
		c2.9-6.71-1.81-24.5-13.97-27.04C955.64,398.3,949.33,383.82,939.47,385.85z"/>
	<path class="st7" d="M774.42,345.84c0,0,3.23,1.04,4.85,4.94c1.77-2.49,12.23-5.93,21.1,6.54c2.01-3.73,11.36-7.33,21.33,0
		c3.74,3.13,4.98,7.64,4.98,7.64s-8.26-9.19-15.42-7.95c-7.17,1.25-9.66,3.58-9.66,3.58s-11.37-9.66-17.76-9.19
		c-6.39,0.47-4.83,3.27-4.83,3.27L774.42,345.84z"/>
	<path class="st7" d="M825.91,354.84c0,0,10.99-2.75,19.05,4.85c0.74-3.3,15.99-10.2,30.02-0.83c1.41-2.63,16.64-8.36,27.64,1.13
		c3.36-3.45,18.93-1.31,24.08,12.19c5.46-2.55,14.18,3.1,12.78,13.67c-0.76-5.51-4.67-13.57-14.33-11.39
		c-0.62-4.05-10.9-17.14-22.43-12.15c-1.07-3.12-15.27-6.23-26.8-0.16c0,0-12.62-12.77-29.6-1.87l-0.93,1.25
		C845.38,361.53,837.75,355.63,825.91,354.84z"/>
	<path class="st7" d="M752.94,385.18c0,0-0.4,17.7-15.11,20.88c-0.4,15.51-15.91,17.3-23.07,15.21c0,11.04-15.51,15.02-24.66,10.64
		c12.73,8.35,29.43,2.39,28.64-6.76c13.92,3.58,23.87-4.77,22.27-16.31C751.75,408.84,756.12,397.71,752.94,385.18z"/>
	<path class="st7" d="M779.19,373.84c0,0,3.18,19.49-7.16,24.66c0.4,7.56-0.33,15.65-8.92,16.77c10.9-0.47,15.5-9.82,13.68-14.39
		C786.75,393.73,786.35,379.01,779.19,373.84z"/>
	<path class="st7" d="M756.98,435.72c0,0-7.22,13.3-16.36,12.9c-7.16,9.94-15.29,10.74-18.58,7.56c-4.09,9.15-16.02,7.96-21.59,3.98
		c3.98,8.35,19.92,6.76,23.08,0c7.94,5.97,18.68-3.24,18.68-9.38C748.96,454.19,757.03,445.49,756.98,435.72z"/>
	<path class="st7" d="M805.05,415.28c0,0,5.17,16.29-3.18,20.44c4.37,4.94,5.57,14.04-3.18,15.06c7.56,5.4,5.17,12.16,0,12.56
		c8.75-2.39,8.78-11.19,6.36-12.56c6.76-4.15,5.95-8.87,1.58-15.06C812.21,431.52,813.4,418.13,805.05,415.28z"/>
	<path class="st7" d="M826.69,371.46c0,0,10.98,2.53,5.8,14.39c5.57,6.69,2.34,16.63-2.21,18.62c8.97,1.99,2.53,14.32-3.59,14.32
		c9.38-0.8,14.09-9.55,8.75-15.91c6.2-6.76,7.79-12.33,0.63-17.7C839.25,377.42,837.59,372.25,826.69,371.46z"/>
	<path class="st0" d="M628.54,257.2c0,0-5.61,7.36-18.92,4.9c-13.31-2.45-40.29-4.55-46.94,15.41
		c-5.25,18.92,25.57,24.87,31.18,25.22c-4.2,5.61-15.41,45.54-0.35,68.32c14.36,20.67,46.24,25.22,81.63,14.01
		c35.38-11.21,46.59-46.94,46.59-46.94s9.81,22.42,32.23,31.88c21.72,8.41,20.32-15.06,19.62-23.82c-0.7-8.76-4.2-23.12-16.47-32.93
		c-12.26-9.81-24.52-18.57-23.12-29.08c-11.56-8.06-45.89-25.57-54.3-29.08c-8.41-3.5-12.61-4.56-22.07-7.36
		C648.16,244.94,636.25,247.74,628.54,257.2z"/>
	<path class="st7" d="M893.59,378.22c0,0,8.9,5.57,4.13,14.72c6.36,3.18,5.6,12.33,1.41,14.32c8.54,2.78,4.3,12.93-1.14,14.02
		c12.46-0.1,7.93-11.69,5.99-14.82c5.27-7.16,2.88-14.54-2.29-15.43C904.88,384.18,901.4,377.82,893.59,378.22z"/>
	<path class="st1" d="M629.83,255.71c0,0-2.02,5.51-11.42,13.7c-9.4,8.19-21.45,26.24-24.56,33.33
		c-6.85-1.16-29.27-4.16-31.78-21.02c3.13,8.55,19.03,18.03,30.55,12.57c7.15-3.39,10.92-10.61,7.89-11.83
		c-3.03-1.21-23.14-5.76-27.3,0.3c-2.43-3.34,3.94-11.83,14.56-10.62c9.71,1.21,14.86,10.62,23.05,2.12
		c5.97-3.38,8.53-8.32,6.98-10.01c-1.55-1.69-8.19-2.15-8.19-2.15S622.75,265.37,629.83,255.71z"/>
	<path class="st1" d="M706.68,295.8c0,0,0.3,6.37,7.58,12.13c3.34,3.64,2.67,21.84,7.46,30.19c-3.89,9.05-9.39,24.55-29.36,38.58
		c-20.27,14.64-58.53,17.79-77.92,10.15c12.92,3.3,49.87,3.62,75.65-19.17c23.36-22.45,20.83-48.23,18.1-53.99
		C705.47,307.93,702.74,303.99,706.68,295.8z"/>
	<path class="st1" d="M727.92,297.92c0,0-2.12,8.49,7.28,19.11c9.4,10.62,27,9.29,25.18,37.1c-0.3-4.34-7.89-17.99-18.2-22.85
		C731.86,326.44,721.84,311.67,727.92,297.92z"/>
	<path class="st1" d="M626.6,258.19c0,0-2.03,7.28,15.17,0c-1.21,8.19,0,21.54,18.5,11.53c-2.73,11.83,13.04,18.12,20.93,9.51
		c0,7.47,5.16,19.3,15.47,12.33c0.91,10.31,15.17,8.19,22.45,0.61c3.64,8.19,13.74,6.9,16.73,0.72
		c-1.86-8.71-3.03-16.19-13.82-22.86c-10.79-6.67-5.33-3.03-16.86-8.19c-11.53-5.16-23.96-10.92-29.42-13.04
		c-5.46-2.12-13.65-0.52-20.32-2.08c-6.67-1.56-14.56-2.47-17.29-1.26C635.4,246.66,627.9,256.7,626.6,258.19z"/>
	<path class="st6" d="M626.6,258.19c0,0-6.28-11.53,3.23-19.41c9.51-7.28,14.16-3.03,14.16-3.03s4.15-11.83,16.89-10.31
		c12.74,1.52,12.44,6.37,12.44,6.37s3.34-8.46,12.74-6.5c9.4,1.95,10.92,8.32,10.92,8.32s4.55-4.25,10.92-1.52
		c6.37,2.73,5.76,8.67,5.76,9.49c1.21,0.21,7.83,0.21,12.41,6.58c3.67,6.07,1.24,10.01,1.24,10.01s13.95,4.85,7.28,17.29
		c4.85,1.21,7.78,12.55,1.26,17.4c-6.42,2.92-15.46,3.53-14.12-5.57c-4.26,6.39-21.41,8.8-22.32-2.73
		c-6.67,3.03-18.26-2.03-16.56-12.84c-4.97,4.05-20.44,5.26-19.23-7.48c-6.4,6.98-22.62,1.82-20.11-10.62
		C640.25,258.19,627.63,260.67,626.6,258.19z"/>
	<path class="st7" d="M643.99,235.74c0,0-3.72-3.97-13.31,2.4c-9.59,6.37-5.89,17.03-4.08,20.04c1.81,3.01,14.6-0.02,16.9-4.55
		c-0.26,2.51-1.33,8.66,7.03,12.72c7.62,3,14.37-0.88,13.8-4.61c-2.15,2.73-10.2,4.17-15.23,0c-5.03-4.17-5.31-8.04-4.74-10.2
		c-1.73,1.72-11.64,8.19-15.37,4.88c-3.73-3.3-2.73-12.07,2.73-16.81C637.18,234.89,641.89,234.3,643.99,235.74z"/>
	<path class="st7" d="M644.53,234.52c0,0,4.26-8.17,11.89-9.07c7.63-0.9,15.26,1.82,16.9,6.35c0.93-3.81,5.81-6.77,10.84-6.8
		c5.03-0.02,10.99,3.47,12.82,8.62c1.54-2.03,7.19-3.71,11.83-1.08c4.65,2.64,5.05,8.15,4.85,9.06c-0.05-2.02-3.65-7.88-8.39-8.3
		c-4.74-0.42-8.62,2.74-8.76,3.74c-0.57-2.15-6.03-9.62-11.78-9.34c-5.75,0.29-10.34,4.44-11.06,6.82
		c-1.01-2.08-7.28-8.45-16.38-7.25C649.88,228.25,645.06,233.3,644.53,234.52z"/>
	<path class="st7" d="M716.6,242.02c0,0,6.77,0.91,10.07,7.23c2.45,5.31,0.64,8.93,0.64,8.93s8.07,2.72,9.03,9.89
		c0.08,5.16-1.75,7.4-1.75,7.4s4.63,1.35,5.04,8.25c0.41,6.89-2.16,9.88-9.07,10.83c-6.9,0.95-9.62-2.08-8.83-7.24
		c-1.52,3.89-20,11.62-22.32-2.73c-4.48,1.73-18.02,0.45-16.56-12.84c1.03,5.24,6.92,13.28,18.12,10.7
		c0.86,4.17,7.92,14.22,20.77,2.59c0.64,2.3,0.49,6.18,6.24,6.61c5.75,0.43,9.77-2.55,9.48-8.47c-0.29-5.93-4.74-6.32-4.74-6.32
		s3.59-6.46,0.29-11.35c-3.3-4.88-8.47-5.58-8.47-5.58s2.87-5.19-0.43-11.22C720.78,242.64,716.6,242.02,716.6,242.02z"/>
	<path class="st8" d="M605.46,364.16c0,0-14.75-11.89-12.13-25.7c4.89-5.8,35.7,3.63,33.71,10.77c-3.86,1.89-14.82,11.64-18.4,15.18
		C606.33,365.71,606.47,365.14,605.46,364.16z"/>
	<path class="st9" d="M623.07,346.32c-0.4,1.36-6.92,0.65-14.58-1.58c-7.66-2.23-13.54-5.14-13.14-6.51
		c0.4-1.36,6.92-0.65,14.58,1.58C617.59,342.05,623.47,344.96,623.07,346.32z"/>
	<path class="st10" d="M588.7,360.82c0,0,5.37,17.01,24.02,18.39c14.96,0.92,34.21-9.27,38.63-12c0.27,0.72,1.42,0.95,1.42,0.95
		s-21.86,14.27-38.32,14.04S592.07,370.28,588.7,360.82z"/>
	<path class="st10" d="M643.5,364.96c0,0,11.11,2.97,13.18,10.56C658.53,371.84,653.8,364.06,643.5,364.96z"/>
	<path class="st10" d="M613.41,385.85c0,0,9.84,3.58,18.42-3.65C630.21,388.49,620.54,392.03,613.41,385.85z"/>
	<path class="st10" d="M606.23,364.96c0,0-1.3,9.8,0.72,13.24C608.57,375.98,607.1,369.35,606.23,364.96z"/>
	<g>
		<path class="st8" d="M624.99,305.37c4.63-5.58,4.07-13.68-1.24-18.09c-5.32-4.42-13.38-3.48-18.01,2.1
			c-4.63,5.58-4.07,13.68,1.24,18.09C612.29,311.89,620.36,310.95,624.99,305.37z"/>
		<path class="st11" d="M623.44,305.17c4.14-4.99,3.64-12.23-1.11-16.18c-4.76-3.95-11.97-3.11-16.11,1.87
			c-4.14,4.99-3.64,12.23,1.11,16.18C612.09,311,619.3,310.16,623.44,305.17z"/>
		<path class="st12" d="M620.72,302.91c2.83-3.41,2.49-8.37-0.76-11.07c-3.25-2.7-8.19-2.13-11.02,1.28
			c-2.83,3.41-2.49,8.37,0.76,11.07C612.95,306.9,617.89,306.32,620.72,302.91z"/>
		<path class="st13" d="M618.06,301.29c1.69-2.04,1.49-5-0.45-6.61c-1.94-1.62-4.89-1.27-6.58,0.77c-1.69,2.04-1.49,5,0.45,6.61
			C613.42,303.67,616.37,303.32,618.06,301.29z"/>
		<path class="st14" d="M615.07,295.28c0.69-0.83,0.61-2.03-0.18-2.69c-0.79-0.66-1.99-0.52-2.68,0.31
			c-0.69,0.83-0.61,2.03,0.18,2.69C613.18,296.25,614.38,296.11,615.07,295.28z"/>
		<path class="st8" d="M676.97,325.42c4.51-6.27,3.32-14.84-2.67-19.14c-5.98-4.3-14.49-2.7-19,3.57
			c-4.51,6.27-3.32,14.84,2.67,19.14C663.96,333.29,672.46,331.69,676.97,325.42z"/>
		<path class="st11" d="M675.31,325.32c4.03-5.61,2.97-13.27-2.38-17.12c-5.35-3.85-12.95-2.42-16.99,3.19
			c-4.03,5.61-2.97,13.27,2.38,17.12C663.67,332.35,671.27,330.93,675.31,325.32z"/>
		<path class="st12" d="M672.25,323.12c2.76-3.84,2.03-9.08-1.63-11.71c-3.66-2.63-8.86-1.65-11.62,2.18
			c-2.76,3.84-2.03,9.08,1.63,11.71C664.29,327.93,669.49,326.95,672.25,323.12z"/>
		<path class="st13" d="M669.3,321.59c1.65-2.29,1.21-5.42-0.97-7c-2.19-1.57-5.29-0.99-6.94,1.3c-1.65,2.29-1.21,5.42,0.97,7
			C664.55,324.46,667.65,323.88,669.3,321.59z"/>
		<path class="st14" d="M665.68,315.42c0.67-0.93,0.49-2.21-0.4-2.85c-0.89-0.64-2.15-0.4-2.82,0.53c-0.67,0.93-0.49,2.21,0.4,2.85
			C663.74,316.59,665.01,316.35,665.68,315.42z"/>
		<path class="st8" d="M664.72,292.03c0,0,17.94,0.67,26.06,15.43C690,300.99,680.57,283.42,664.72,292.03z"/>
		<path class="st8" d="M638.01,283.42c0,0-9.87-12.54-23.99-8.44C618.75,271.17,635.44,266.12,638.01,283.42z"/>
	</g>
	<path class="st15" d="M619.21,312.21c0,0-20.36,20.63-23.25,24.44c4.78,0.03,13.92,0.89,13.92,0.89S594.54,340.82,619.21,312.21z"
		/>
	<path class="st15" d="M595.96,298.63c0,0-20.79,43.6-2.94,69.98C590.88,361.98,585.31,331.4,595.96,298.63z"/>
	<path class="st15" d="M562.19,279.94c-0.22,0.61,2.44-14.01,17.92-17.74c15.48-3.74,30.37,1.18,34.72,0.41
		c-5.21-0.5-25.52,0.22-37.42,4.83C565.5,272.04,563.37,276.72,562.19,279.94z"/>
	<path class="st15" d="M733.25,296c0,0,2.85,12.01,18.26,20.31c15.41,8.3,22.83,38.9,16.31,51.95c5.58-8.45,4.88-33.02-4.7-46.68
		C754.07,310.83,739.05,304.88,733.25,296z"/>
</g>
<g>
	<g>
		<path class="st0" d="M459.57,596.37c0,0-0.2,7.18-2.59,11.36c-2.39,4.19-3.99,6.18,0,11.16c3.99,4.98,6.38,19.33,4.38,23.52
			c-1.99,4.19-3.79,6.18-0.8,7.77c2.99,1.59,4.39,1.4,4.19,4.58c-0.2,3.19,15.75,4.98,14.95-5.18c-2.99-2.59-10.76-12.16-7.37-26.71
			c3.39-14.55,9.03-19.53,7.4-20.93C478.11,600.55,462.16,592.58,459.57,596.37z"/>
		<path class="st0" d="M490.27,598.56c0,0-4.78,3.99-1.2,10.96c3.99,7.18,6.18,17.14,5.18,22.52c-1,5.38-3.99,8.17-1.59,9.97
			c2.39,1.79,4.39-0.2,5.38,4.19c1,4.38,16.34,0.8,15.15-4.78c-2.79-1.2-9.17-6.98-8.57-19.53c0.6-12.56,2.79-15.75,3.79-17.94
			C508.6,600.16,492.07,596.02,490.27,598.56z"/>
		<path class="st0" d="M561.82,605.14c0,0-1.37,3.39,1.38,15.52c2.61,14.37,1.85,21.55-0.86,26.33c-2.71,4.78-2.58,9.17,0.94,9.77
			c2.92,1.2,0.12,5.18,2.22,5.78c2.1,0.6,11.67-2.99,12.07-5.38c0.2-2.59,0.2-4.38-2.59-7.97c-2.79-3.59-1-18.25,1.59-26.22
			c2.88-6.04,4.58-11.85,3.39-17.83C576.37,601.35,562.51,601.74,561.82,605.14z"/>
		<path class="st0" d="M584.14,603.54c0,0-1.79,6.18,1.4,12.36c2.99,6.58,0.69,18.93-0.95,21.73s-2.49,7.18,0.73,8.37
			c3.21,1.39,3.81,4.78,3.81,4.78s4.78,1,5.58,0c0.8-1,5.78-3.59,5.78-3.59s-1.59-1.79-1.4-3.79c0.2-1.99-1.59-4.19-2.39-7.77
			c-0.8-3.59,0-15.95,1.99-20.33c2.19-4.38,2.99-9.97,1.79-16.74C597.1,594.18,584.65,599.16,584.14,603.54z"/>
		<path class="st1" d="M478.08,607.15c0,0-1.83,2.11-5.18,2.08c-3.96,0.16-10.11-1.38-12.17,1.96c-2.76,4.45-0.74,7.16,1.3,11.78
			c1.48,3.35,2.74,7.98,2.25,13.18c-0.45,4.69-0.48,7.49-2.01,8.7c-1.53,1.21-2.1,3.79,2.18,5.56c2.26,1.05-0.17,5.08,3.1,6.45
			c-1.63-0.62-3.08-0.34-2.79-3.16c-0.31-2.4-2.42-2.59-3.48-3.15c-1.06-0.57-3.72-1.61-1.12-5.7c2.6-4.1,2.22-9.83,0.88-15.83
			c-1.34-6-3.13-8.69-4.33-10.48c-1.21-1.8-3.25-4.4-1.24-8.07c2-3.66,2.85-4.02,4.06-13.06c0.33-3.96,9.03-3,17.9,1.43
			C480.96,602.3,480.6,602.89,478.08,607.15z"/>
		<path class="st1" d="M506.95,607.22c-0.07,0.12-4.92,1.95-9.17,0c-4.25-1.95-5.58-0.48-4.92,2.84c0.66,3.32,3.99,12.36,3.19,19.4
			c-0.8,7.04-2.92,9.43,0.13,10.76c3.06,1.33,3.33,2.39,3.64,5.05c0.31,2.66,8.77,2.18,12.2-0.64c-3.75,2.3-10.13,5.96-13.98,1.57
			c-1.05-2.4-1.41-3.69-3.3-3.31c-2.02,0.25-4.79-2.05-2.05-5.84c2.74-3.79,2.11-13.05,0-18.75c-2.1-5.7-7.11-13.79-3.94-17.79
			c2.5-4.01,14.43-1.57,17.64,0.93C509.07,603.54,508.41,604.78,506.95,607.22z"/>
		<path class="st1" d="M580.25,607.12c0,0,0.17,4.79-5.67,6.79s-8.5,4.73-8.11,10.14c0.4,5.41,2.18,14.98-0.04,19.76
			c-2.22,4.78-4.29,9.3,0,11.69c4.03,2.39,3.36,5.18,3.36,5.18l-4.92,1.93c0,0-0.71-0.74-0.16-3.53c0.42-2.79-2.72-1.83-3.87-4.1
			c-1.15-2.27,0.19-5.59,2.44-9.98c2.12-4.39,2.1-12.19,0.37-21.68c-1.75-9.62-3.5-16.24-0.88-19.4
			C565.67,601.28,581.14,601.53,580.25,607.12z"/>
		<path class="st1" d="M600.88,601.4c0,0-1.99,2.4-6.64,4.13c-4.65,1.73-6.33,5.25-5.05,9.97c1.59,5.85,0.36,14.71-0.63,17.81
			c-1.19,3.69-3.49,7.04-1.63,10.23c1.86,3.19,3.59,6.78,4.39,6.78c-1.15,0.65-2.19,0.47-2.19,0.47s-0.48-2.5-3-4.36
			c-2.56-1.94-4.13-1.91-2.07-7.78c2.06-5.87,2.92-8.15,2.89-15.84c-0.42-6.77-4.07-10.64-3.31-15.4c-0.04-5.19,2.32-7.65,5.7-8.87
			C592.75,597.31,601.03,594,600.88,601.4z"/>
		<g>
			<path class="st2" d="M562.7,664.26c0,0,0.61-4.2,5.5-7.53c4.5-2.2,7.38-3.32,11.76-1.35c4.38,1.98,9.74,11.65,8.69,14.6
				c-0.57,0.35-1.22,0.78-3.93-0.4c1.06,1.65,0.65,2.02,0.26,2.23c-3.09,1.73-11.5,1.69-18.89-1.3
				C563.77,669.58,562.05,666.94,562.7,664.26z"/>
			<path class="st3" d="M578.5,658.49c0,0,7.03,4.88,9.69,11.74c-0.99,0.42-3.47-0.64-3.47-0.64S580.49,660.28,578.5,658.49z"/>
			<path class="st4" d="M568,657.67c0,0,5.4-3.53,9.9-2.58c4.5,0.95,9.49,6.98,10.53,13.52c-0.68-2.32-3.77-9.54-9.22-11.62
				C573.77,654.9,568,657.67,568,657.67z"/>
			<path class="st4" d="M578.5,658.9c0,0,5.21,10.31,4.85,11.67c-0.41,1.32-3.45,1.91-4.08,1.77c1.86,0.27,5.78-0.66,5.77-1.45
				C585.02,670.09,580,660.22,578.5,658.9z"/>
			<path class="st5" d="M568.63,656.52c0,0-4.03,2.19-5.48,6.26c-1.46,4.07,0.32,6.29,3.4,7.93c3.09,1.63,9.8,2.76,14.89,2.11
				c-2.68,0.17-15.3-1.9-16.12-7.17C564.5,660.38,567.34,657.12,568.63,656.52z"/>
		</g>
		<g>
			<path class="st2" d="M497.42,648.71c0,0,0.58-4.02,5.26-7.21c4.31-2.11,7.06-3.18,11.25-1.29c4.19,1.89,9.32,11.14,8.31,13.97
				c-0.54,0.34-1.16,0.74-3.76-0.38c1.02,1.58,0.62,1.93,0.25,2.14c-2.96,1.65-11,1.62-18.08-1.24
				C498.44,653.81,496.79,651.27,497.42,648.71z"/>
			<path class="st3" d="M512.53,643.19c0,0,6.72,4.67,9.27,11.23c-0.95,0.4-3.32-0.61-3.32-0.61S514.44,644.91,512.53,643.19z"/>
			<path class="st4" d="M502.49,642.41c0,0,5.17-3.38,9.47-2.47c4.3,0.91,9.08,6.68,10.08,12.94c-0.65-2.22-3.61-9.12-8.82-11.12
				C508,639.76,502.49,642.41,502.49,642.41z"/>
			<path class="st4" d="M512.53,643.58c0,0,4.98,9.86,4.64,11.17c-0.39,1.26-3.3,1.82-3.91,1.69c1.78,0.26,5.53-0.63,5.52-1.39
				C518.77,654.29,513.97,644.84,512.53,643.58z"/>
			<path class="st5" d="M503.09,641.3c0,0-3.85,2.1-5.25,5.99c-1.39,3.89,0.3,6.02,3.26,7.59c2.95,1.56,9.38,2.64,14.25,2.02
				c-2.56,0.16-14.64-1.82-15.42-6.86C499.14,645,501.86,641.88,503.09,641.3z"/>
		</g>
		<g>
			<path class="st2" d="M464,657.85c0,0,0.61-4.2,5.5-7.53c4.5-2.2,7.38-3.32,11.76-1.35c4.38,1.98,9.74,11.65,8.69,14.6
				c-0.57,0.35-1.22,0.78-3.93-0.4c1.06,1.65,0.65,2.02,0.26,2.23c-3.09,1.73-11.5,1.69-18.89-1.3
				C465.06,663.17,463.34,660.53,464,657.85z"/>
			<path class="st3" d="M479.79,652.08c0,0,7.03,4.88,9.69,11.74c-0.99,0.42-3.47-0.64-3.47-0.64S481.78,653.87,479.79,652.08z"/>
			<path class="st4" d="M469.29,651.26c0,0,5.4-3.53,9.9-2.58c4.5,0.95,9.49,6.98,10.53,13.52c-0.68-2.32-3.77-9.54-9.22-11.62
				C475.06,648.49,469.29,651.26,469.29,651.26z"/>
			<path class="st4" d="M479.79,652.49c0,0,5.21,10.31,4.85,11.67c-0.41,1.32-3.45,1.91-4.08,1.77c1.86,0.27,5.78-0.66,5.77-1.45
				C486.31,663.68,481.3,653.81,479.79,652.49z"/>
			<path class="st5" d="M469.92,650.11c0,0-4.03,2.19-5.48,6.26c-1.46,4.07,0.32,6.29,3.4,7.93c3.09,1.63,9.8,2.76,14.89,2.11
				c-2.68,0.17-15.3-1.9-16.12-7.17C465.8,653.97,468.63,650.71,469.92,650.11z"/>
		</g>
		<g>
			<path class="st2" d="M587.38,654.23c0,0,0.58-4.02,5.26-7.21c4.31-2.11,7.07-3.18,11.26-1.29c4.19,1.89,9.33,11.15,8.32,13.98
				c-0.54,0.34-1.17,0.74-3.76-0.38c1.02,1.58,0.62,1.93,0.25,2.14c-2.96,1.66-11.01,1.62-18.08-1.24
				C588.4,659.33,586.75,656.79,587.38,654.23z"/>
			<path class="st3" d="M602.5,648.71c0,0,6.73,4.67,9.28,11.24c-0.95,0.4-3.32-0.62-3.32-0.62S604.4,650.42,602.5,648.71z"/>
			<path class="st4" d="M592.45,647.93c0,0,5.17-3.38,9.48-2.47c4.3,0.91,9.08,6.68,10.08,12.94c-0.65-2.22-3.61-9.13-8.82-11.13
				C597.97,645.27,592.45,647.93,592.45,647.93z"/>
			<path class="st4" d="M602.5,649.1c0,0,4.98,9.87,4.64,11.17c-0.39,1.26-3.3,1.83-3.91,1.7c1.78,0.26,5.53-0.63,5.52-1.39
				C608.74,659.81,603.94,650.36,602.5,649.1z"/>
			<path class="st5" d="M593.05,646.82c0,0-3.86,2.1-5.25,5.99c-1.39,3.89,0.3,6.03,3.26,7.59c2.95,1.56,9.38,2.64,14.25,2.02
				c-2.56,0.16-14.64-1.82-15.43-6.86C589.1,650.51,591.82,647.4,593.05,646.82z"/>
		</g>
	</g>
	<path class="st6" d="M450.86,572.22c0,0-5.31,3.22-7.57,0c-3.22,2.58-10.47-4.03-6.12-11.92c-1.61-3.22,0.32-4.99,2.26-5.64
		c-2.26-2.26-2.74-8.54,2.25-10.15c-0.81-2.09-1.29-7.09,3.7-9.66c-0.81-1.61-1.13-8.7,5.48-10.31c0.48-3.22,3.22-5.48,6.28-6.12
		c-1.61-1.61,1.93-8.52,9.82-7.56c0-1.94,2.9-4.81,5.48-3.69c0.16-2.11,6.28-5.04,10.31-1.56c1.61-2.65,9.34-8.69,16.75-1.64
		c1.77-0.04,6.77-7.93,14.5-3.26c1.77-3.06,9.18-4.65,12.56,1.62c0.81-1.94,9.02-7.42,15.78-1.62c1.61-2.58,10.95-6.43,17.88-0.88
		c0.48-3.15,4.67-7.83,9.66-7.74c-0.64-1.84,2.09-4.91,3.87-4.99s39.76,9.56,47.26,18.51c4.6,0.42,6.76,2.24,7.13,4.07
		c2.3,1.34,4.07,12.78-2.53,16.8c3.06,3.7,5.15,10.15-0.32,12.56c5.15,3.54,2.58,14.33-0.16,14.33c3.22,2.58,1.29,9.99-3.54,10.47
		c2.25,4.03,3.06,12.4-4.35,12.88c1.61,3.87,2.25,11.6-6.28,12.4c0.16,4.51-4.96,7.59-8.73,7.73c-1.35,4.54-3.83,5.07-6.89,5.43
		c-1.1,3.24-9.34,3.1-10.15,1.82c-0.64,2.74-3.44,3.12-4.94,3.01c-0.86,3.05-6.49,5.53-11.65,2.47c-2.74,2.74-10.95,0.4-9.66-7.29
		c-2.58,0.69-4.35-2.37-4.35-2.37s-4.51,7.89-14.5,3.54c-3.54,4.51-11.27,2.58-11.76,2.09c-2.09,3.06-14.11,2.42-16.32-1.45
		c-3.33,2.09-17.99,1.61-19.6-4.19c-1.61,3.06-7.35,2.58-7.78,1.29c-0.43,3.7-7.19,6.6-10.26,4.19c-1.48,3.83-10.77,1.29-10.46-3.87
		c-1.14,0.32-8.38-1.45-5.16-8.7c-4.2-0.81-6.64-5.96-4.2-11.11C452.64,581.08,448.93,577.21,450.86,572.22z"/>
	<path class="st7" d="M572.86,487.48c0,0-3.64,1.29,2.08,13.72c5.46,12.43,10.8,18.15,16.52,19.98c2.47,3.64,5.46,5.73,8.85,4.94
		c1.82,3.38,10.58,4.03,13.36,2.6c3.34-0.51,5.46,0.86,6.04,2.69c8.54-0.39,6.47,6.41,5.03,7.58c2.33,0.04,4.75-2.91,3.62-7.36
		c-0.68-4.33-2.74-5.16-2.74-5.16s3.87-1.62,4.52-8.12c0.65-6.51-2.2-9.34-2.2-9.34s-10.18,5.03-19.75,1.9
		C608.19,510.91,579.4,503.1,572.86,487.48z"/>
	<g>
		<path class="st0" d="M565.73,460.46c0,0,0.9,3.59-5.08,5.38c-5.98,1.79-17.64,5.08-21.23,17.64c-2.69,8.67-1.79,9.27,0,11.06
			c1.79,1.79,9.57,5.68,17.64-1.2c8.07-6.88,12.56-17.94,13.45-16.44c-0.6,2.99-1.49,20.63,23.32,35.88
			c24.81,15.25,47.83-10.76,49.33-32.29c3.59,5.08,3.59,14.35,11.66,19.13c7.77,4.78,16.14,1.49,16.74-2.09
			c0.6-3.59,0-14.65-6.88-21.23c-6.88-6.58-16.14-6.88-19.43-15.85c-4.19-10.76-11.66-14.65-19.73-17.94
			C617.45,439.24,582.48,430.87,565.73,460.46z"/>
		<path class="st1" d="M642.33,464c0,0-5.82-1.35-6.24-7.22c-6.3,1.47-14.06-2.73-14.06-6.09c-4.62,2.1-14.06,2.1-13.85-2.73
			c-6.09,4.2-12.17,2.31-13.22,0c-3.57,3.78-9.02,3.78-10.07,2.31c-1.05,3.36-4.62,6.93-5.88,5.67c-0.21,1.47-8.6,19.94,5.04,40.92
			c13.64,20.57,31.44,21.68,38.01,17.04c-4.1,1.85-19.25,12.49-43.42-13.92c-10.74-14.45-8.11-23.07-8.11-23.07s2.62-2.5,2.41-6.69
			c-0.42-4.41-2.88-8.3-5.04-9.02c0,0,0.22-3.56,4.94-10.17c4.72-6.62,26.96-19.01,54.66-7.67c0,0,12.27,4.25,16.73,14.72
			c3.24,6.36,4.27,7.51,4.27,7.51s-3.38,2.54-3.59,6.95c-0.21,4.41,0,5.88,1.26,9.86c1.26,3.99,1.57,8.77,1.57,8.77
			s-3.16-7.93-4.57-10.66C643.34,474.61,643.17,468.2,642.33,464z"/>
		<path class="st16" d="M541.19,491.38c-0.12-0.3,0.16-8.29,7.65-12.39c5.05-2.68,14.6-3.08,16.1-5.84
			c-0.08,1.81-1.9,3.92-7.97,5.92C547.03,482.35,541.82,493.04,541.19,491.38z"/>
		<path class="st16" d="M645.73,475.08c0,0-0.4,2.99,5.58,5.38c5.98,2.39,17.14,9.87,13.45,16.54c3.89-1.69,4.88-7.97-1.69-13.15
			C656.5,478.67,649.02,481.16,645.73,475.08z"/>
		<path class="st17" d="M640.35,467.41c0,0,1,33.88-19.33,45.64C628.18,509.65,644.14,498.9,640.35,467.41z"/>
		<g>
			<path class="st8" d="M602.29,475.08c0-4.18-3.45-7.58-7.7-7.58c-4.25,0-7.7,3.39-7.7,7.58c0,4.18,3.45,7.58,7.7,7.58
				C598.84,482.66,602.29,479.27,602.29,475.08z"/>
			<path class="st11" d="M601.47,475.57c0-3.74-3.08-6.78-6.89-6.78s-6.89,3.03-6.89,6.78s3.08,6.77,6.89,6.77
				S601.47,479.31,601.47,475.57z"/>
			<path class="st12" d="M599.3,475.57c0-2.56-2.11-4.63-4.71-4.63s-4.71,2.08-4.71,4.63c0,2.56,2.11,4.63,4.71,4.63
				S599.3,478.13,599.3,475.57z"/>
			<ellipse class="st13" cx="594.59" cy="475.83" rx="2.81" ry="2.77"/>
			<path class="st14" d="M593.63,474.26c0-0.62-0.51-1.13-1.14-1.13s-1.14,0.5-1.14,1.13c0,0.62,0.51,1.13,1.14,1.13
				S593.63,474.88,593.63,474.26z"/>
			<path class="st8" d="M583.58,466.23c0,0,7.31-5.61,14.62-1.3C596.1,462.12,587.48,456.92,583.58,466.23z"/>
		</g>
		<g>
			<path class="st8" d="M619.68,475.03c-0.22-4.18,3.05-7.74,7.3-7.96c4.25-0.22,7.86,2.99,8.08,7.17c0.22,4.18-3.05,7.74-7.3,7.96
				C623.52,482.42,619.9,479.21,619.68,475.03z"/>
			<path class="st11" d="M620.52,475.47c-0.19-3.74,2.73-6.93,6.53-7.12c3.8-0.2,7.03,2.67,7.23,6.41c0.19,3.74-2.73,6.92-6.53,7.12
				C623.95,482.08,620.71,479.21,620.52,475.47z"/>
			<path class="st12" d="M622.69,475.36c-0.13-2.56,1.87-4.74,4.46-4.87c2.6-0.13,4.81,1.83,4.94,4.39
				c0.13,2.56-1.87,4.74-4.47,4.87C625.04,479.88,622.83,477.92,622.69,475.36z"/>
			<path class="st13" d="M624.6,475.52c-0.08-1.53,1.12-2.83,2.67-2.91c1.55-0.08,2.87,1.09,2.95,2.62
				c0.08,1.53-1.12,2.83-2.67,2.91C626,478.22,624.68,477.05,624.6,475.52z"/>
			<path class="st14" d="M628.29,473.76c-0.03-0.62,0.45-1.15,1.09-1.18c0.63-0.03,1.17,0.44,1.2,1.07
				c0.03,0.62-0.45,1.15-1.09,1.18C628.86,474.86,628.32,474.38,628.29,473.76z"/>
			<path class="st8" d="M636.48,466c0,0-6.99-6-14.53-2.1C624.21,461.22,633.1,456.49,636.48,466z"/>
		</g>
		<path class="st8" d="M602.29,489.38c0,0,2.26-2.69,12.48-2.23c9.68,0.54,8.53,2.46,7.61,3.77c-0.92,1.31-6.9,6.61-9.13,6.13
			C611.02,496.55,600.57,491.53,602.29,489.38z"/>
		<path class="st18" d="M619.68,488.64c0,0.55-3.2,1-7.15,1s-7.15-0.45-7.15-1c0-0.55,3.2-1,7.15-1S619.68,488.09,619.68,488.64z"/>
		<path class="st19" d="M602.29,501.2c0,0,3.75,2.69,10.25,2.79c6.49,0.1,9.08-2.79,9.08-2.79s-3.29,8.47-6.58,9.77
			C611.75,512.26,606.18,512.36,602.29,501.2z"/>
		<path class="st20" d="M605.4,507.53c0,0,3.06-1.63,5.53,0.16c0.82-0.68,4.76-1.07,6.09,1.72c-0.35,0.91-2.76,2.56-5.96,2.06
			C607.85,510.96,606.23,508.58,605.4,507.53z"/>
		<path class="st21" d="M610.84,507.63c0,0,1,1.29,1.12,3.23c0.09-1.62-0.16-1.78-0.3-2.44c-0.14-0.66,1.14-1.33,1.95-1.19
			C613.36,507.21,611.79,506.96,610.84,507.63z"/>
		<path class="st22" d="M604.73,502.46c0,0,2.62,2.74,7.99,3.13c4.84,0.31,7.35-3.26,7.35-3.26S613.6,505.94,604.73,502.46z"/>
		<path class="st10" d="M597.37,498.97c0,0,1.9,0.39,3.65,1.46c1.75,1.07,5.12,3.75,11.86,3.54c6.74-0.22,8.94-2.67,11.86-5.53
			c-0.12-0.36-4.23,4.55-12.52,4.45C604.03,502.74,600.34,498.42,597.37,498.97z"/>
		<path class="st10" d="M594.71,501.59c0,0,1.59-2.86,6.63-3.17C600.44,497.46,595.51,497.66,594.71,501.59z"/>
		<path class="st10" d="M602.33,500.96c0,0,2.06,6.2,5.23,8.74c3.17,2.54,6.66,1.45,8.14,0.63c1.48-0.81,3.22-4,3.91-5.25
			c0.84-1.52,2.01-4.12,2.01-4.12l0.28-0.25c0,0-2.23,6.77-4.89,9.41c-2.65,2.93-7.09,2.1-9.13,0.59c-2.5-1.56-4.46-5.17-5.83-9.77
			C602.06,500.94,602.33,500.96,602.33,500.96z"/>
		<path class="st10" d="M606.89,512.98c0,0,5.97,4.99,10.72-0.36C616,513.31,612.29,515.73,606.89,512.98z"/>
		<path class="st10" d="M613.58,497.07c0,0,0,3.17-0.3,5.51C613.91,502.27,614.53,499.55,613.58,497.07z"/>
	</g>
	<path class="st7" d="M505.34,562.45c0,0,1.65,11.8-4.85,13.96c3.07,2.16,4.67,8.63,0,10.66c1.68,3.17-0.35,9.05-5.43,9.67
		c-1.02,1.88-0.72,2.47-2.65,3.19c1,1.76,1.87,4.04,9.62,5.11c6.86,0.94,9.98-0.92,9.98-0.92s3.26,4.17,12.25,3.22
		c-3.57-0.59-10.04-2.08-10.55-4.89c-4.32-0.02-13.33-1.75-11.42-5.58c1.9-3.83,1.49-7.94,0.76-9.54c3.17-1.9,3.05-7.23,0.51-10.53
		C507,574.25,508.34,569.17,505.34,562.45z"/>
	<path class="st7" d="M550.23,568.88c0,0-6.67,7.86,0,14.29c-2.38,4.05-1.31,9.77,2.98,11.08c-1.07,2.14-0.8,4.57,1.39,5.68
		c-0.55,2.06-7.12,7.52-14.5,3.54c-2.37,2.85-7.56,4-11.76,2.09c0,0,5.81,1.31,10.22-4.65c3.93,0,10.12-2.26,9.05-6.31
		c-1.19-2.26-3.93-7.74,0.71-11.67C545.58,581.86,542.13,575.07,550.23,568.88z"/>
	<path class="st7" d="M590.92,572.45c0,0,2.79,6.11-2.13,9.83c2.39,2.52,2.39,10.36-3.06,12.49c1.33,3.45,1.96,5.79-0.55,9.34
		c3.34,1.69,8.59,1.06,10.15-1.82c3.66-0.91,5.57-0.95,6.89-5.43c3.97-0.1,8.84-3.27,8.73-7.73c3.61,0.06,9.75-2.67,6.28-12.4
		c3.31-0.03,8.31-2.62,4.35-12.88c0.69,5.95-1.04,11.26-7.15,11.79c1.59,4.52-0.66,10.9-6.25,11.16c0.53,3.99-2.67,8.11-7.31,8.11
		c-1.19,3.59-8.53,4.45-8.79,1.83c2.39-2.22,3.23-11.26-0.09-14.58C595.45,579.89,592.91,576.44,590.92,572.45z"/>
	<path class="st7" d="M454.61,539c0,0-5.97,4.81-2.89,9.21c-1.91,1.91-3.96,9.84,0,13.22c-2.2,1.91-3.33,8.51-0.86,10.79
		c-1.93,2.57-6.31,2.13-7.57,0c-2.73,1.25-6.63-0.5-7.47-6.82c-0.4-4.26,1.35-5.1,1.35-5.1s-2.11-3.59,2.26-5.64
		c-1.36,1.92-1.66,5.59,0.1,6.18c-1.91,2.35-1.03,6.37,2.35,8.03c3.38,1.66,4.06-0.79,4.35-3.58c0.29-2.79,2.55-4.45,2.55-4.45
		s-2.57-2.82-1.1-7.81c0.73-3.38,2.13-4.82,2.13-4.82S447.36,541.83,454.61,539z"/>
	<path class="st7" d="M590.92,530.99c0,0,4.81,6.58,11.18,4.98c2.18,3.99,7.76,3.59,8.96,1.99c1.4,1.99,7.48,2.39,9.02-0.6
		c-0.85,3.59-6.04,5.05-9.02,3.39c-2.99,3.39-9.37-0.6-9.72-2.59C596.9,539.76,591.52,537.17,590.92,530.99z"/>
	<path class="st7" d="M573.98,517.57c0,0-1.2,6.44,3.39,8.83c-2.99,1.79-0.62,8.89,2.98,10.13c-1.58,3.83,2.74,8.81,7.36,8.01
		c-0.97,5.58,6.21,6.38,8,5.38c0.8,3.59,6.23,4.19,9.79,1.2c-3.02,3.59-8.24,4.58-10.91,0.4c-5.66,1-10.14-2.39-9.4-5.58
		c-4.04,0.4-9.62-3.79-6.63-8.37c-2.19,0.6-7.57-5.38-3.79-10.76C573.58,525.81,570.39,522.89,573.98,517.57z"/>
	<path class="st7" d="M500.07,504.34c0,0-2.99,2.96-1.7,7.74c-1.08,1.02-1.11,6.54,1.19,7.72c-1.32,1.38-1.23,4.86,0.94,6.02
		c-1.85,0.42-4.73-3.53-3-6.53c-2.57-1.47-3.94-5.79-1.27-7.75C495.21,509.13,496.4,504.29,500.07,504.34z"/>
	<path class="st7" d="M526.61,502.3c0,0-2.99,2.96-1.7,7.74c-1.08,1.02-1.11,6.54,1.19,7.72c-1.32,1.38-1.23,4.86,0.93,6.02
		c-1.85,0.42-4.73-3.53-3-6.53c-2.57-1.47-3.94-5.79-1.27-7.75C521.75,507.09,522.93,502.24,526.61,502.3z"/>
	<path class="st7" d="M466.89,510.86c0,0-2.99,2.96-1.7,7.74c-1.08,1.02-1.11,6.54,1.19,7.72c-1.32,1.38-1.23,4.86,0.93,6.02
		c-1.85,0.42-4.73-3.53-3-6.53c-2.57-1.47-3.94-5.79-1.27-7.75C462.03,515.65,463.21,510.81,466.89,510.86z"/>
	<path class="st7" d="M482.76,505.56c0,0-2.99,2.96-1.7,7.74c-1.08,1.02-1.11,6.54,1.19,7.72c-1.32,1.38-1.23,4.86,0.94,6.02
		c-1.85,0.42-4.73-3.53-3-6.53c-2.57-1.47-3.94-5.79-1.27-7.75C477.9,510.35,479.09,505.51,482.76,505.56z"/>
	<path class="st7" d="M567.25,492.48c0,0-12.44,3.36-4.67,19.08C562.27,510.9,559.55,497.11,567.25,492.48z"/>
	<path class="st7" d="M543.75,499.37c0,0-7.44,6.24,0.66,19.4c-1.06-2.13-1.87-21.21,8.64-21.7
		C551.46,497,545.61,496.76,543.75,499.37z"/>
	<path class="st7" d="M531.35,534.61c0,0-4.73,7.77,1.67,16.14c1.02,4.48,4.5,8.97,8.44,8.67c-3.83,2.09-10.2-2.57-10.41-7.47
		C527.77,549.56,524.18,539.99,531.35,534.61z"/>
	<path class="st7" d="M567.38,548.92c0,0-2.67,7.36,4.15,13.34c1.62,3.61,5.31,6.81,8.59,5.89c-2.88,2.41-9.04-0.44-10.05-4.55
		C566.88,562.14,562.23,554.67,567.38,548.92z"/>
	<path class="st7" d="M490.06,538.98c0,0-3.75,6.18,1.33,12.83c0.81,3.56,3.57,7.13,6.7,6.89c-3.05,1.66-8.1-2.04-8.27-5.94
		C487.21,550.86,484.36,543.25,490.06,538.98z"/>
	<path class="st7" d="M552.9,598.18c0,0,3.17,4.12,8.62,3.26c-1.25,2.89,0.12,9.18,7.09,8.15c1.49,0.73,10.82,0.61,11.21-3.82
		c1.93,0,5.75-0.96,5.38-2.41c0.11,2.02-1.81,4.34-4.94,3.76c0.09,2.21-5.51,6.35-12.05,2.8c-2.55,2.97-10.3-0.31-9.26-7.63
		C556.79,603.26,553.53,601.76,552.9,598.18z"/>
	<path class="st7" d="M450.86,572.22c0,0-2.73,7.42,3.69,9.5c-2.55,4.88-0.6,10.97,4.2,11.11c-2.57,5.72,1.74,9.08,5.16,8.7
		c-0.07,4.96,7.93,8.11,10.46,3.87c3.03,3.08,9.01,0.26,10.26-4.19c3.13,1.98,8.25,1.67,10.43-4.48c-0.78,1.65-8.29,5.84-10.43,1.44
		c-2.14,3.77-8.52,7.96-9.72,3.17c-2.19,3.59-9.17,3.39-9.37-2.97c-2.99,0.98-7.37-0.62-5.58-6.6c-1.4-0.6-6.58-4.98-3.59-10.17
		C455.39,580.02,451.99,578.98,450.86,572.22z"/>
	<g>
		<path class="st6" d="M564.94,447.35c0,0-7.12,10.14,0.84,13.58c2.11,0.27,3.17,0,3.17,0s8.94,2.35,8.51-9
			c3.93,0.44,7.42-3.27,7.42-5.45c2.4,3.71,8.77,2.4,9.84-1.96c4.34,3.71,13.07,3.05,14.6-1.96c1.74,5.45,10.15,8.94,15.43,4.58
			c0.93,5.67,7.91,9.6,14.67,7.85c-1.31,6.51,3.7,10.21,6.32,8.6c3.06-0.31,8.57-9.47,2.76-17.1c1.83-4.8-3.19-10.69-10.17-10.25
			c1.31-6.11-6.32-13.31-16.36-10.69c-0.44-4.58-12.11-7.2-15.43-1.75c-2.02-5.67-13.14-5.56-15.19,0.44
			c-5.14-1.31-14.97,3.05-12.35,8.51c-4.14-1.96-11.34,2.27-9.38,6.15C565.89,439.93,563.11,444.73,564.94,447.35z"/>
		<path class="st7" d="M578.98,432.73c0,0-10.28-1.94-9.38,6.15c-2.47-0.08-7.66,6.02-3.77,9.65c-0.65,1.17-0.92,6.97,6.61,5.06
			c-2.2-0.13-6.48-1.56-3.76-5.18c-2.07-1.04-3.78-5.83,3.03-8.3C570.89,439.59,570.74,432.61,578.98,432.73z"/>
		<path class="st7" d="M591.34,426.1c0,0-1.62-3.74,5.17-6.15c6.79-2.28,10.65,3.3,10.02,4.72c0-0.89-3.83-3.89-8.33-3.11
			C593.7,422.34,591.56,424.55,591.34,426.1z"/>
		<path class="st7" d="M621.02,426.1c0,0,1.02-1.43,7.27-0.97c6.25,0.45,10.11,5.87,10.07,8.48
			C637.93,432.08,634.33,424.55,621.02,426.1z"/>
		<path class="st7" d="M624.6,438.88c0,0,2.78,10.16-8.23,9.84C621.31,450.99,629.31,446.87,624.6,438.88z"/>
		<path class="st7" d="M607.19,436.73c0,0,1.85,10.46-7.89,9.9C605.11,447.75,613.15,444.64,607.19,436.73z"/>
		<path class="st7" d="M593.63,438.75c0,0,1.24,8.14-3.75,9.84C593.31,448.01,596.92,445.31,593.63,438.75z"/>
		<path class="st7" d="M640.92,449.34c0,0-3.39,8.37-11.7,4.1C635.17,456.96,642.39,456.38,640.92,449.34z"/>
		<path class="st7" d="M650.5,450.34c0,0,0.5,7.14-3.39,9.21c-3.89,2.07-8.22,0.17-7.8-4c-0.62,3.74,0.8,6.85,4.04,8.41
			C646.59,465.51,652.72,458.93,650.5,450.34z"/>
		<path class="st7" d="M577.45,451.93c0,0-1.77,8.79-8.9,8.4c-7.13-0.39-6.42-6.36-6.42-6.36s-1.78,7.19,5.76,8.17
			C575.43,463.12,578.06,456.88,577.45,451.93z"/>
		<path class="st7" d="M584.11,441.27c0.53,0-0.81,9-5.39,10.66C582.17,451.9,587.48,447.23,584.11,441.27"/>
	</g>
</g>
</svg>
