<svg width="1899" height="1777" viewBox="0 0 1899 1777" fill="none" xmlns="http://www.w3.org/2000/svg">
<path d="M1389.61 1516.18C1385.23 1509.15 1379.63 1500.64 1373.45 1492.42C1371.45 1489.73 1369.67 1486.8 1367.26 1484.52C1367.05 1484.32 1366.84 1484.13 1366.64 1483.93C1359.4 1477.02 1349.47 1460.73 1342.14 1446.35C1336.26 1434.81 1333.55 1421.93 1334.3 1409C1335.36 1390.52 1337.12 1359.71 1338.81 1329.12C1341.8 1275.29 1357.05 1229.59 1357.82 1223.22C1360.27 1202.94 1369.35 1080.58 1410.85 882.939C1452.35 685.303 1453.87 672.838 1453.87 672.838L1251.84 909.766C1251.84 909.766 1239.45 1040.43 1275.02 1220.01C1275.02 1220.01 1278.58 1290.18 1277.99 1312.83C1277.39 1335.67 1270.27 1401.96 1270.27 1401.96C1270.37 1412.82 1255.67 1433.1 1255.67 1433.1C1251.71 1446.12 1255.59 1460.32 1265.84 1469.28C1275.23 1477.5 1288.51 1491.15 1294.36 1509.98C1295.78 1514.48 1296.93 1519.33 1297.73 1524.56C1298.42 1529.03 1302.3 1532.31 1306.82 1532.31H1380.63C1388.91 1532.31 1393.98 1523.22 1389.61 1516.18Z" fill="#F7EEE2"/>
<path d="M1267.19 1413.75L1235.95 1462.43C1235.95 1462.43 1257.78 1476.6 1270.82 1449.45L1267.19 1413.75Z" fill="#2D2C2B"/>
<path d="M1373.45 1492.42C1379.63 1500.64 1385.23 1509.15 1389.61 1516.18C1393.98 1523.22 1388.91 1532.31 1380.62 1532.31H1306.82C1302.29 1532.31 1298.42 1529.03 1297.73 1524.56C1296.92 1519.34 1294.67 1511.16 1293.25 1506.66C1309.89 1501.67 1342.17 1496.52 1373.45 1492.42Z" fill="#2D2C2B"/>
<path d="M1653.71 147.847L1652.29 148.251L1612.8 159.176C1612.8 159.176 1606.51 157.176 1598.11 152.175C1583.47 143.462 1562.39 125.729 1556.85 93.76C1551.74 64.2936 1549.66 39.8844 1548.81 24.6902C1548.54 19.7851 1554.75 17.4575 1557.77 21.343C1566.62 32.788 1581.22 49.079 1599.61 60.3311C1599.7 60.3878 1599.82 60.465 1599.94 60.524C1600.76 61.044 1601.61 61.5436 1602.47 62.0251C1629.36 77.3555 1642.5 105.63 1649.73 131.442C1651.33 137.076 1652.62 142.597 1653.71 147.847Z" fill="#FFF6E7"/>
<path d="M1439.59 106.976C1482.05 94.1845 1592.2 72.1006 1667.06 156.696L1711.25 156.796C1711.25 156.796 1685.61 62.6902 1565.73 56.1183C1496.17 52.3056 1454.22 80.7956 1434.87 98.8624C1431.15 102.341 1434.72 108.448 1439.59 106.976Z" fill="#3F372D"/>
<path d="M1718.69 134.287L1664.37 128.767C1582.07 51.3675 1473.69 72.5635 1432.58 89.1815C1427.85 91.1049 1423.74 85.3348 1427.14 81.5447C1432.18 75.8903 1439.01 69.6 1447.8 63.4642C1469.7 48.1156 1503.9 33.6504 1553.58 31.8042C1642.54 28.516 1690.35 86.4293 1709.11 116.609C1715.67 127.132 1718.69 134.287 1718.69 134.287Z" fill="#4C4235"/>
<path d="M1709.11 116.611C1702.93 119.631 1696.43 121.555 1696.43 121.555C1696.43 121.555 1663.21 88.4365 1604.18 60.4688C1545.18 32.4829 1470.59 69.8904 1453.57 69.5248C1448.49 69.409 1447.16 66.9089 1447.8 63.4663C1469.7 48.1177 1503.9 33.6523 1553.58 31.8061C1642.54 28.518 1690.35 86.4314 1709.11 116.611Z" fill="#726351"/>
<path d="M895.53 1529.45H831.594C824.376 1529.45 817.968 1524.79 815.797 1517.91C814.902 1515.08 813.812 1511.84 812.52 1508.35C807.211 1494.02 798.441 1475.38 785.439 1462.44C776.958 1454.01 774.86 1441.2 780.323 1430.57C785.094 1421.26 789.324 1409.04 789.324 1394.92C789.324 1384.81 766.76 1288.84 754.525 1230.3C750.44 1210.75 750.133 1190.61 753.623 1170.95L795.68 933.9L894.156 948.384L836.386 1172.31C831.558 1191.02 830.239 1210.46 832.491 1229.65L848.344 1422.21C848.439 1430.12 858.549 1443.55 863.435 1449.76C870.84 1459.18 882.323 1474.76 891.402 1491.11C896.634 1500.56 901.075 1510.29 903.423 1519.23C904.783 1524.41 900.86 1529.45 895.53 1529.45Z" fill="#F7EEE2"/>
<path d="M895.53 1529.45H825.53C821.744 1529.45 818.433 1526.94 817.407 1523.3C816.349 1519.54 814.73 1514.33 812.518 1508.35C822.307 1504.89 861.987 1495.08 891.395 1491.12L900.492 1510.27C901.666 1513.31 902.647 1516.31 903.414 1519.24C904.784 1524.41 900.86 1529.45 895.53 1529.45Z" fill="#2D2C2B"/>
<path d="M787.362 1411.87L759.479 1460.92C759.479 1460.92 782.108 1473.77 793.511 1445.89L787.764 1410.47L787.362 1411.87Z" fill="#2D2C2B"/>
<path d="M785.16 1135.25C800.494 1139.49 813.54 1149.57 821.067 1163.58C834.946 1189.43 849.838 1212.95 856.655 1209.75C861.235 1207.59 861.164 1195.45 858.923 1179.82C855.574 1156.47 869.239 1127.81 893.695 1116.38L785.16 1135.25Z" fill="#BC938A"/>
<path d="M960.976 996.506C960.303 1000.78 959.398 1005.16 958.264 1009.7C957.013 1014.68 955.648 1019.63 954.109 1024.49C940.01 1069.42 913.642 1108.83 873.962 1128.55C852.844 1139.05 839.958 1160.92 841.611 1184.44C842.726 1200.2 841.92 1212.31 837.187 1214.12C830.166 1216.83 817.012 1192.31 805.029 1165.52C798.528 1150.99 786.238 1140.01 771.254 1134.68C765.733 1132.72 760.445 1130.37 755.406 1127.7C724.401 1111.25 702.206 1082.04 686.377 1048.03C680.625 1035.76 675.72 1022.85 671.529 1009.7C645.467 927.952 735.712 877.441 814.895 877.441C890.541 877.444 975.649 905.373 960.976 996.506Z" fill="#CEA697"/>
<path d="M960.976 996.507C960.304 1000.78 959.398 1005.16 958.265 1009.7C957.013 1014.68 951.3 1032.26 949.761 1037.13C922.661 1034.49 856.217 1027.72 841.902 1038.19C838.87 1040.4 766.41 1108.72 755.408 1127.7C724.403 1111.26 702.209 1082.04 686.379 1048.04C689.266 1041.79 693.246 1034.88 698.535 1027.26C737.099 971.773 750.12 944.075 819.092 935.918C888.064 927.782 899.47 914.203 930.975 930.494L960.976 996.507Z" fill="#BC938A"/>
<path d="M1615.09 1573.86C1614.93 1573.93 1614.76 1573.78 1614.57 1573.43C1615.1 1573.61 1615.3 1573.74 1615.09 1573.86Z" fill="#FFF6E7"/>
<path d="M1896.83 307.133C1896.28 300.752 1892.88 294.03 1887.91 287.376C1883.14 280.973 1876.89 274.66 1870.4 268.824C1858.32 258.014 1845.21 248.886 1838.43 244.049C1823.21 233.171 1817.78 214.709 1805.86 188.277C1804.41 185.098 1802.71 181.805 1800.68 178.421C1799.1 175.833 1797.3 173.198 1795.26 170.564C1793.33 168.044 1791.17 165.546 1788.74 163.07C1777.11 151.262 1759.56 140.385 1732.4 134.367C1728.45 133.481 1724.3 132.687 1719.94 132.028C1719.12 131.915 1718.3 131.778 1717.48 131.687C1715.1 131.347 1712.62 131.052 1710.1 130.779C1707.81 130.529 1705.49 130.325 1703.09 130.143C1701.68 130.03 1700.23 129.939 1698.77 129.848C1698.09 129.803 1697.41 129.757 1696.71 129.712C1696.71 129.734 1696.68 129.712 1696.68 129.712C1694.14 129.598 1691.53 129.507 1688.85 129.439C1688.58 129.439 1688.31 129.417 1688.03 129.417C1686.26 129.394 1684.44 129.371 1682.61 129.371C1681.63 129.371 1680.63 129.371 1679.63 129.394C1677.06 129.394 1674.41 129.439 1671.71 129.507C1671.68 129.507 1671.68 129.507 1671.66 129.507C1670.66 129.553 1669.66 129.576 1668.64 129.621C1664.48 129.78 1660.51 130.052 1656.7 130.507C1656.04 130.575 1655.38 130.643 1654.74 130.734C1654.08 130.802 1653.45 130.893 1652.79 130.983C1651.75 131.12 1650.72 131.279 1649.72 131.438C1647 131.869 1644.34 132.346 1641.75 132.914C1636.8 133.981 1632.15 135.275 1627.79 136.797C1627.18 136.978 1626.56 137.206 1625.97 137.41C1625.31 137.637 1624.66 137.887 1624 138.159C1613.89 141.974 1605.35 146.811 1598.11 152.17C1588.51 159.301 1581.24 167.34 1575.74 175.129C1574.09 177.49 1572.59 179.807 1571.22 182.1C1571.22 182.123 1571.2 182.123 1571.2 182.145C1568.7 186.392 1566.71 190.457 1565.14 194.09C1561.03 203.65 1559.85 210.349 1559.85 210.349L1546.31 232.013L1542.98 237.35L1537.91 245.434L1495.29 313.559V313.582L1495 314.036C1489.39 318.146 1482.96 322.234 1475.67 326.026C1470.72 328.615 1466.34 331.522 1462.46 334.633C1443.13 350.074 1436.07 370.398 1433.75 379.436C1433.71 379.641 1433.66 379.823 1433.62 379.981C1433.09 382.093 1432.84 383.501 1432.78 383.955C1432.75 384.069 1432.75 384.137 1432.75 384.137C1432.78 384.069 1432.82 384.024 1432.84 383.955C1433.5 382.593 1434.21 381.253 1434.93 379.959C1435 379.8 1435.09 379.664 1435.16 379.505C1447.88 356.66 1467.18 343.92 1480.35 337.448L1468.79 355.933C1463.55 364.335 1457.71 372.261 1451.35 379.686C1451.21 379.868 1451.08 380.027 1450.9 380.209C1449.81 381.503 1448.67 382.797 1447.51 384.046C1445.97 385.772 1444.4 387.475 1442.79 389.133C1415.47 413.635 1349.17 428.737 1308.02 440.749C1268.01 452.444 1232.43 453.012 1230.29 453.012C1230.22 453.012 1230.18 453.012 1230.18 453.012C1215.8 452.875 1201.27 452.444 1186.58 451.808C1169.75 449.356 1153.79 442.77 1138.39 435.549C1121.7 427.715 1102.56 419.29 1083.78 423.196C1102.56 421.606 1119.71 431.825 1135.1 441.43C1139.8 444.405 1144.62 447.289 1149.52 449.991C1093.77 446.858 1036.35 442.316 978.238 441.181L978.283 440.295C978.17 440.318 977.647 440.295 977.284 440.295C966.68 439.432 956.348 436.571 946.175 433.415C942.769 432.324 938.136 430.644 934.707 429.986C918.63 426.715 902.349 431.325 889.088 440.295L889.497 440.931C896.263 437.547 903.734 435.345 911.205 434.527C918.63 433.642 926.079 434.504 932.8 436.843C935.865 438.047 938.886 439.478 941.906 440.931C915.701 441.158 889.383 442.248 863.088 444.655C848.827 444.065 834.567 442.248 820.624 439.455C799.052 435.049 775.822 440.499 758.337 453.807L758.701 454.283C772.257 446.063 788.175 442.134 803.821 443.406C808.521 443.656 813.131 444.723 817.604 445.927C801.709 447.335 786.041 452.194 771.848 459.302C761.108 462.027 751.003 465.047 741.488 468.34C730.589 470.656 719.598 472.7 708.585 474.449C703.68 475.243 698.775 475.97 693.87 476.628C675.296 478.354 655.881 484.395 641.552 496.544C637.192 500.223 633.309 504.469 630.062 509.306C634.195 504.197 639.054 499.973 644.413 496.498C658.969 487.052 677.203 483.305 694.438 483.328C697.39 483.191 700.342 483.055 703.271 482.896C692.939 486.121 682.948 490.39 673.82 496.022H673.797C668.392 499.36 663.329 503.152 658.674 507.512C666.099 502.448 674.251 498.656 682.744 495.885C682.925 495.817 683.107 495.772 683.289 495.704C683.198 495.772 683.107 495.817 683.016 495.885C675.682 500.472 668.915 505.287 662.67 510.214C659.809 512.485 657.061 514.802 654.404 517.14C645.208 525.247 637.351 533.627 630.675 542.074C620.366 555.041 612.804 568.166 607.218 580.61C607.218 580.633 607.218 580.633 607.218 580.633C600.497 595.643 596.682 609.677 594.525 621.349C594.184 623.143 593.889 624.869 593.616 626.55C593.344 628.366 593.094 630.092 592.89 631.773V631.795C592.708 633.181 592.572 634.52 592.435 635.792C592.208 637.995 592.049 640.038 591.936 641.878C591.505 648.418 591.641 652.573 591.55 653.527C587.917 693.312 587.031 728.783 588.03 760.189C587.417 762.142 586.781 764.254 586.145 766.502C585.737 767.932 585.328 769.431 584.942 770.975C581.377 784.441 577.834 802.336 576.676 822.955C576.313 829.518 576.177 836.376 576.358 843.461C576.449 847.003 576.608 850.614 576.881 854.27C577.948 869.235 580.537 885.017 585.283 901.163C585.283 901.163 582.944 880.566 584.692 854.27C584.919 850.841 585.214 847.298 585.6 843.688C586.304 837.034 587.304 830.153 588.711 823.273V823.25C589.506 819.231 590.437 815.189 591.527 811.215C591.981 815.37 592.458 819.412 592.958 823.364C593.866 830.54 594.888 837.397 595.978 843.96C596.568 847.503 597.159 850.932 597.794 854.27C599.293 862.331 600.905 869.893 602.563 876.933C601.768 899.619 603.517 929.253 614.666 952.756C614.666 952.756 612.782 937.269 613.894 915.946C615.416 920.283 616.914 924.235 618.345 927.845C618.345 927.845 618.345 927.868 618.345 927.891C626.088 947.352 632.265 956.549 632.265 956.549H806.614C812.018 954.664 817.377 953.142 822.691 951.916C824.417 951.507 826.165 951.121 827.891 950.781C840.743 948.237 853.21 947.465 865.426 947.988H865.449C874.895 948.396 884.183 949.577 893.38 951.326H893.402C899.442 952.461 905.437 953.846 911.409 955.391C911.432 955.391 911.432 955.391 911.432 955.391C923.444 958.547 935.366 962.385 947.31 966.472C952.374 968.198 957.438 969.947 962.524 971.718C1017.11 990.679 1073.52 1009.75 1143.91 981.959C1144.41 981.732 1144.93 981.528 1145.43 981.323C1147.52 980.438 1149.59 979.575 1151.66 978.735C1151.68 978.735 1151.68 978.712 1151.7 978.712C1153.59 977.894 1155.49 977.032 1157.42 976.123C1172.23 969.175 1186.04 963.588 1198.96 959.183H1198.98C1216.26 953.233 1231.9 949.395 1245.98 947.102C1247.35 946.875 1248.69 946.67 1250.03 946.489C1266.97 944.059 1281.59 943.923 1294.06 945.172C1295.15 945.285 1296.21 945.399 1297.26 945.535C1305.25 946.511 1312.31 948.056 1318.49 949.918C1324.69 951.78 1330 953.937 1334.5 956.14H1334.52C1347.99 962.703 1354 969.606 1354 969.606L1394.22 967.017L1479.05 961.567L1481.1 961.431C1493.59 951.008 1504.28 935.748 1513.41 917.445C1514.39 915.56 1515.3 913.652 1516.2 911.7C1516.89 910.246 1517.57 908.793 1518.2 907.294C1518.2 907.271 1518.22 907.271 1518.22 907.271C1518.88 905.818 1519.52 904.319 1520.13 902.82C1520.16 902.798 1520.16 902.798 1520.16 902.775C1522.22 897.984 1524.15 893.033 1526.01 887.969C1526.24 889.286 1526.47 890.649 1526.67 892.057V892.079C1527.1 894.714 1527.49 897.484 1527.83 900.436C1528.26 904.092 1528.63 907.975 1528.85 912.017C1528.99 914.038 1529.08 916.082 1529.12 918.171C1529.56 933.295 1528.26 950.236 1523.24 966.586C1523.24 966.586 1526.65 960.863 1530.99 950.531C1534.32 942.538 1538.23 931.774 1541.52 918.762C1542.07 916.695 1542.57 914.561 1543.07 912.381C1545.47 901.617 1547.43 889.536 1548.31 876.365C1548.52 873.504 1548.68 870.597 1548.77 867.622C1548.88 863.83 1548.9 859.992 1548.84 856.041V856.018C1548.79 853.089 1548.68 850.114 1548.52 847.094C1548.22 841.894 1547.74 836.603 1547.04 831.198C1547.04 831.175 1547.04 831.175 1547.04 831.175C1546.59 827.36 1546.02 823.477 1545.32 819.549C1546.36 814.666 1547.38 809.761 1548.34 804.879C1549.72 810.488 1550.83 816.233 1551.72 821.956C1551.72 821.956 1551.72 821.956 1551.72 821.979C1552.63 827.86 1553.31 833.719 1553.83 839.35C1553.83 839.35 1553.85 839.35 1553.83 839.373C1554.08 842.053 1554.28 844.664 1554.44 847.23C1554.76 851.84 1554.94 856.2 1555.08 860.242C1555.08 860.242 1555.1 860.265 1555.08 860.265C1555.15 862.944 1555.19 865.442 1555.22 867.781C1555.31 878.182 1554.94 884.881 1554.94 884.881C1556.94 879.136 1558.58 873.458 1559.92 867.895C1561.62 860.901 1562.85 854.065 1563.66 847.457C1564.28 842.575 1564.68 837.852 1564.89 833.242V833.219C1565.32 824.908 1565.16 817.051 1564.62 809.739C1564.46 807.354 1564.23 805.038 1563.98 802.767C1562.57 789.891 1560.1 779.059 1557.78 770.975C1557.33 769.363 1556.87 767.887 1556.44 766.502C1556.08 765.412 1555.74 764.39 1555.42 763.436C1555.42 763.413 1555.42 763.413 1555.42 763.413C1555.85 760.643 1556.24 757.895 1556.62 755.147C1558.94 738.638 1560.73 722.924 1562.14 708.732C1562.23 707.846 1562.32 706.983 1562.41 706.143C1562.5 704.962 1562.62 703.804 1562.73 702.646C1563.12 698.581 1563.59 694.539 1564.21 690.519C1564.21 690.406 1564.23 690.292 1564.25 690.179C1565.52 681.686 1567.23 673.329 1569.41 665.063C1569.84 663.451 1570.27 661.861 1570.72 660.249C1571.18 658.637 1571.66 657.047 1572.16 655.457C1573.22 651.983 1574.36 648.531 1575.61 645.102C1576.06 643.831 1576.52 642.536 1577.01 641.265C1577.61 639.698 1578.2 638.154 1578.83 636.587C1579.42 635.111 1580.01 633.635 1580.65 632.181C1581.33 630.569 1582.03 628.979 1582.74 627.39C1584.33 623.87 1586.01 620.373 1587.8 616.921C1588.39 615.74 1588.98 614.582 1589.62 613.424C1590.41 611.925 1591.23 610.427 1592.07 608.951C1592.09 608.928 1592.09 608.882 1592.12 608.86C1592.8 607.611 1593.5 606.384 1594.23 605.158C1594.68 604.363 1595.14 603.591 1595.61 602.797C1596.38 601.502 1597.18 600.208 1597.97 598.913C1598.27 598.459 1598.54 597.982 1598.81 597.528C1600.22 595.257 1601.58 592.964 1602.97 590.602C1606.76 584.13 1610.44 577.295 1613.76 570.255C1613.89 569.915 1614.05 569.597 1614.21 569.256C1614.89 567.848 1615.55 566.418 1616.21 564.964C1620.3 556.176 1624.38 546.957 1628.45 537.578C1629.61 534.853 1630.79 532.105 1631.97 529.335C1633.15 526.587 1634.31 523.817 1635.46 521.046C1637.24 516.891 1638.96 512.712 1640.66 508.534C1644.68 498.837 1648.63 489.141 1652.47 479.717C1653.59 477.037 1654.68 474.358 1655.74 471.724C1655.79 471.587 1655.86 471.451 1655.9 471.315C1657.47 467.477 1658.99 463.707 1660.53 460.006C1662.1 456.191 1663.64 452.444 1665.17 448.788C1666.17 446.358 1667.16 443.951 1668.16 441.612C1672.36 431.598 1676.34 422.469 1680.02 414.612C1680.02 414.612 1680.02 414.612 1680.02 414.589C1681.27 411.91 1682.49 409.389 1683.7 407.027C1684.22 405.982 1684.72 404.961 1685.22 403.984C1688.01 398.648 1690.55 394.31 1692.82 391.199C1693.03 390.95 1693.21 390.7 1693.41 390.45C1693.6 390.2 1693.8 389.973 1693.98 389.746C1694.35 389.292 1694.71 388.883 1695.07 388.497C1696.05 387.453 1697.09 386.476 1698.18 385.545C1698.77 385.068 1699.39 384.568 1700 384.137C1700.34 383.865 1700.68 383.615 1701.02 383.41C1701.38 383.138 1701.75 382.888 1702.11 382.684C1702.91 382.139 1703.72 381.639 1704.56 381.208C1704.75 381.094 1704.93 380.981 1705.11 380.912C1705.49 380.685 1705.88 380.481 1706.29 380.277C1707.08 379.868 1707.88 379.504 1708.7 379.141C1710.72 378.256 1712.83 377.484 1715.03 376.825C1715.03 376.825 1715.03 376.825 1715.05 376.825C1716.08 376.507 1717.08 376.212 1718.14 375.939C1718.89 375.735 1719.62 375.553 1720.39 375.372H1720.41C1725.43 374.213 1730.86 373.441 1736.6 372.919C1737.31 372.828 1738.01 372.783 1738.74 372.715C1739.03 372.669 1739.33 372.669 1739.6 372.669C1748.66 371.897 1758.45 371.693 1768.64 371.42C1776.86 371.239 1785.36 371.012 1793.96 370.489C1798.28 370.217 1802.62 369.899 1806.98 369.422C1809.65 369.15 1812.33 368.832 1815.01 368.446C1816.94 368.196 1818.85 367.901 1820.78 367.583C1823.94 367.06 1827.07 366.447 1830.2 365.743C1833.2 365.085 1836.2 364.335 1839.15 363.495C1839.9 363.291 1840.65 363.064 1841.38 362.859C1881.57 351.142 1890.58 341.899 1894.1 327.707C1894.76 325.095 1895.22 322.302 1895.65 319.304C1895.76 318.601 1895.85 317.851 1895.97 317.102C1896.06 316.352 1896.17 315.603 1896.28 314.831C1896.42 313.832 1896.56 312.787 1896.72 311.743C1896.94 310.221 1896.97 308.677 1896.83 307.133Z" fill="#FFF6E7"/>
<path d="M582.762 1435.27L556.803 1481.59C556.803 1481.59 579.431 1494.44 590.835 1466.56L585.358 1433.89L582.762 1435.27Z" fill="#2D2C2B"/>
<path d="M970.536 955.983C907.222 945.83 849.54 963.37 795.362 1028.52C763.522 1066.81 671.238 1201.85 670.505 1240.76C669.119 1314.31 649.45 1438.5 649.173 1449.78C648.826 1463.6 655.69 1485.8 660.268 1504.6C660.422 1505.27 660.595 1505.94 660.749 1506.6C662.48 1513.67 664.251 1520.29 665.788 1525.85C668.116 1534.24 661.962 1542.58 653.249 1542.82C627.092 1543.49 580.085 1544.39 576.429 1542.32C574.506 1541.22 575.083 1531.66 576.524 1520.18C576.89 1517.26 577.312 1514.24 577.773 1511.18C578.87 1503.75 580.158 1496.21 581.254 1490.14C581.561 1488.46 581.697 1486.77 581.697 1485.1C581.697 1482.4 581.314 1479.73 580.562 1477.15C579.486 1473.4 577.637 1469.88 575.08 1466.82C570.003 1460.73 569.599 1452 574.158 1445.49C577.928 1440.09 586.575 1433.01 590.113 1422.76C593.015 1414.31 585.905 1329.94 581.763 1261.59C579.708 1227.68 583.475 1193.67 592.915 1161.02L597.697 1144.48C623.175 1056.38 627.651 963.527 610.768 873.379L597.113 800.484L989.076 846.839C989.076 846.828 1077.11 973.075 970.536 955.983Z" fill="#FFF6E7"/>
<path d="M620.504 999.895C620.504 999.895 622.135 1043.34 589.822 1076.47C589.822 1076.47 624.578 1058.01 637.882 1002.88L620.504 999.895Z" fill="#FFF6E7"/>
<path d="M576.522 1520.17C576.522 1520.17 630.56 1508.93 661.512 1509.69L667.734 1531.68C669.426 1537.66 664.934 1543.6 658.722 1543.6H581.089C576.577 1543.6 573.157 1539.53 573.929 1535.09L576.522 1520.17Z" fill="#2D2C2B"/>
<path d="M795.835 1065.45C795.835 1065.45 806.416 1014.61 833.915 989.878L821.674 989.09L812.134 1003.31C812.833 1002.38 793.757 1027.95 795.835 1065.45Z" fill="#FFF6E7"/>
<path d="M809.629 1012.53C809.629 1012.53 767.779 1054.63 775.627 1109.5C775.627 1109.5 753.351 1070.04 783.858 1022.25L809.629 1012.53Z" fill="#FFF6E7"/>
<path d="M1273.35 875.213C1272.5 875.213 1271.72 874.641 1271.49 873.776C1271.2 872.681 1264.78 846.478 1288.23 803.4C1310.51 762.455 1311.86 755.127 1311.9 754.834C1312.06 753.81 1313 753.067 1314.04 753.196C1315.07 753.321 1315.81 754.209 1315.73 755.24C1315.67 755.93 1314.49 763.195 1291.61 805.237C1268.96 846.837 1275.15 872.554 1275.21 872.808C1275.48 873.837 1274.86 874.884 1273.83 875.15C1273.67 875.193 1273.51 875.213 1273.35 875.213Z" fill="#DDD2C0"/>
<path d="M877.2 926.507C876.826 926.507 876.444 926.398 876.113 926.169C875.238 925.567 875.016 924.371 875.618 923.494C909.854 873.669 936.545 831.793 957.215 795.466C957.742 794.542 958.921 794.222 959.838 794.746C960.762 795.271 961.085 796.447 960.56 797.369C939.833 833.791 913.087 875.759 878.79 925.674C878.413 926.217 877.814 926.507 877.2 926.507Z" fill="#DDD2C0"/>
<path d="M970.862 743.475C970.574 743.475 970.279 743.409 970.004 743.273C969.055 742.798 968.669 741.643 969.143 740.693C969.237 740.507 978.54 721.645 985.636 688.291C992.737 654.924 980.654 509.333 980.534 507.866C980.443 506.808 981.231 505.879 982.289 505.788C983.324 505.698 984.278 506.485 984.364 507.544C984.871 513.555 996.617 655.169 989.401 689.089C982.191 722.972 972.974 741.631 972.584 742.41C972.247 743.085 971.569 743.475 970.862 743.475Z" fill="#DDD2C0"/>
<path d="M1708.7 379.142C1703.43 381.449 1698.84 384.469 1695.07 388.488C1690.99 392.835 1685.89 402.086 1680.01 414.59C1680.03 414.61 1680.03 414.61 1680.01 414.61C1676.33 422.476 1672.37 431.594 1668.16 441.615C1652.35 479.141 1633.23 528.92 1614.21 569.254C1614.05 569.6 1613.9 569.929 1613.75 570.254C1610.44 577.293 1606.76 584.122 1602.98 590.603C1601.32 593.45 1599.65 596.218 1597.98 598.912C1585.15 619.454 1575.51 641.765 1569.41 665.059C1567.24 673.329 1565.53 681.697 1564.26 690.179C1564.24 690.295 1564.22 690.411 1564.22 690.524C1563.61 694.544 1563.12 698.584 1562.74 702.642C1562.62 703.795 1562.51 704.969 1562.41 706.143C1562.32 706.99 1562.24 707.855 1562.14 708.721C1521.08 654.173 1518.83 581.197 1532.62 513.414C1541.85 468.079 1558.24 425.072 1575.01 391.432C1595.68 349.961 1616.92 322.727 1625.98 322.957C1636.56 323.227 1650.23 342.152 1665.74 353.731C1681.24 365.33 1693.6 372.697 1708.7 379.142Z" fill="#F7EEE2"/>
<path d="M1614.15 482.199C1613.51 482.199 1612.89 481.888 1612.53 481.313C1611.95 480.419 1612.21 479.229 1613.11 478.657C1613.38 478.479 1640.61 460.079 1629.64 406.255C1621.74 367.54 1640.58 341.718 1641.39 340.637C1642.02 339.785 1643.23 339.61 1644.07 340.244C1644.93 340.878 1645.1 342.081 1644.47 342.935C1644.28 343.187 1625.87 368.525 1633.41 405.485C1644.94 462.063 1616.41 481.109 1615.18 481.892C1614.86 482.101 1614.5 482.199 1614.15 482.199Z" fill="#DDD2C0"/>
<path d="M1652.34 425.537C1651.61 425.537 1650.92 425.124 1650.59 424.417C1631.24 382.42 1650.43 343.741 1650.62 343.355C1651.11 342.406 1652.26 342.031 1653.21 342.513C1654.16 342.994 1654.53 344.15 1654.05 345.099C1653.86 345.469 1635.53 382.55 1654.09 422.81C1654.53 423.775 1654.11 424.917 1653.14 425.362C1652.88 425.48 1652.61 425.537 1652.34 425.537Z" fill="#DDD2C0"/>
<path d="M1534.31 683.323C1533.45 683.323 1532.67 682.746 1532.45 681.878C1532.33 681.399 1520.05 633.55 1514.31 595.516C1508.5 557.073 1573.38 390.236 1576.14 383.151C1576.53 382.161 1577.65 381.675 1578.63 382.059C1579.62 382.445 1580.11 383.56 1579.73 384.55C1579.05 386.276 1512.46 557.507 1518.11 594.942C1523.82 632.785 1536.05 680.443 1536.18 680.92C1536.44 681.949 1535.82 682.998 1534.79 683.261C1534.63 683.302 1534.47 683.323 1534.31 683.323Z" fill="#DDD2C0"/>
<path d="M1575.93 743.94C1579.28 728.282 1576.39 714.723 1572.1 704.452C1569.7 698.625 1566.81 693.854 1564.37 690.355C1564.33 690.298 1564.29 690.239 1564.26 690.182C1561.29 685.97 1559.02 683.663 1559.02 683.663L1565.29 641.5C1565.54 647.693 1566.68 655.484 1569.41 665.062C1570.52 669.043 1571.93 673.315 1573.66 677.911C1588.55 717.494 1575.93 743.94 1575.93 743.94Z" fill="#F7EEE2"/>
<path d="M1568.45 754.094C1568.08 755.307 1567.7 756.538 1567.28 757.787C1567.28 757.787 1567.37 756.461 1567.47 754.172C1567.85 745.054 1568.22 720.838 1562.41 706.143C1561.04 702.68 1559.31 699.737 1557.18 697.662L1564.22 690.527L1564.37 690.354L1567.04 687.643C1567.04 687.643 1570.2 693.701 1572.1 704.454C1574.18 716.069 1574.82 733.187 1568.45 754.094Z" fill="#F7EEE2"/>
<path d="M1680.01 414.59C1680.02 414.611 1680.02 414.611 1680.01 414.611C1678.45 430.363 1673.99 450.349 1662.83 469.967C1662.83 469.967 1665.98 456.907 1668.16 441.615C1669.33 433.152 1670.21 424.016 1670.08 416.014C1669.71 393.567 1679.85 384.143 1679.85 384.143C1679.85 384.143 1681.81 396.587 1680.01 414.59Z" fill="#F7EEE2"/>
<path d="M1619.98 550.596C1619.98 550.596 1617.36 557.983 1614.21 569.253C1609.78 585.161 1604.32 608.818 1603.69 630.437C1603.69 630.437 1601.71 611.684 1602.98 590.602C1603.84 576.715 1606.09 561.828 1611.28 550.594L1619.98 550.596Z" fill="#F7EEE2"/>
<path d="M1297.47 946.311C1293.19 944.117 1230.19 945.191 1143.91 981.959C1012.51 1037.94 854.981 976.679 833.917 989.877C854.338 950.292 921.047 889.245 964.132 889.104C1096.05 888.675 1114.09 857.71 1199.62 849.573C1271.78 842.688 1289.98 919.152 1297.47 946.311Z" fill="#F7EEE2"/>
<path d="M1090.13 1001.07C1090.13 1001.07 1147.01 1030.45 1202.39 981.89C1257.77 933.33 1284.8 924.176 1292.57 920.707C1300.33 917.239 1224.51 923.189 1224.51 923.189C1224.51 923.189 1181.47 1013.19 1090.13 1001.07Z" fill="#F7EEE2"/>
<path d="M1255.16 951.335C1254.23 951.335 1253.41 950.656 1253.26 949.705C1253.1 948.655 1253.82 947.672 1254.87 947.511C1270.14 945.154 1284.5 944.811 1297.53 946.489C1298.59 946.625 1299.33 947.588 1299.2 948.642C1299.06 949.695 1298.13 950.449 1297.04 950.304C1284.36 948.674 1270.37 949.014 1255.45 951.315C1255.35 951.328 1255.26 951.335 1255.16 951.335Z" fill="#DDD2C0"/>
<path d="M854.666 1003.79C854.666 1003.79 871.501 989.122 906.8 993.739L970.881 998.313C970.881 998.313 953.23 1013.3 911.414 1003.79C874.873 995.472 854.666 1003.79 854.666 1003.79Z" fill="#F7EEE2"/>
<path d="M1409.56 1440.45L1381.28 1490.9C1381.28 1490.9 1403.91 1503.75 1415.31 1475.87L1409.56 1440.45Z" fill="#2D2C2B"/>
<path d="M1492.59 740.931L1541.93 690.178C1541.93 690.178 1512.72 694.79 1492.59 740.931Z" fill="#FFF6E7"/>
<path d="M1541.17 1533.27C1537.82 1527.9 1533.76 1521.67 1529.3 1515.36C1527.9 1513.4 1526.47 1511.44 1525.01 1509.49C1523.71 1507.74 1501.6 1474.82 1486.29 1452C1476.82 1437.89 1471.69 1421.34 1471.5 1404.35C1471.17 1374.22 1470.61 1326.49 1470.23 1309.02C1469.69 1284.39 1472.88 1210.7 1472.88 1210.7C1472.88 1210.7 1485.43 1015.12 1476.2 904.423C1469.41 822.939 1478.9 772.324 1492.59 740.93L1294.03 945.19C1294.03 945.19 1295.18 948.292 1297.22 953.835C1302.53 975.301 1318.87 1047.79 1308.7 1091.2C1308.7 1091.2 1319.78 1057.55 1320.38 1018.29C1332.04 1051.43 1345.6 1091.1 1356.76 1126.84C1356.72 1144.42 1354.81 1156.67 1354.81 1156.67C1354.81 1156.67 1358.05 1150.93 1361.04 1140.77C1369 1167.06 1375.23 1190.28 1377.82 1205.76C1378.82 1211.79 1380.44 1217.69 1382.61 1223.41C1389.85 1242.53 1405.79 1297.42 1409.68 1417.37C1410.03 1428.21 1406.46 1451.1 1406.46 1451.1C1402.5 1464.12 1406.39 1478.32 1416.64 1487.28C1422.06 1492.03 1430.32 1512.09 1434.11 1528.15C1436.88 1539.83 1439.21 1549.39 1441.11 1549.39H1532.18C1540.48 1549.39 1545.55 1540.31 1541.17 1533.27Z" fill="#FFF6E7"/>
<path d="M1479.95 955.08C1478.93 955.08 1478.08 954.285 1478.03 953.261C1474.6 889.871 1500.37 854.557 1501.46 853.083C1502.1 852.234 1503.31 852.057 1504.16 852.692C1505.01 853.328 1505.18 854.532 1504.55 855.383C1504.29 855.733 1478.52 891.147 1481.87 953.052C1481.93 954.113 1481.12 955.021 1480.06 955.078C1480.02 955.08 1479.99 955.08 1479.95 955.08Z" fill="#DDD2C0"/>
<path d="M1532.19 1549.39H1441.11C1439.21 1549.39 1436.88 1539.83 1434.11 1528.15C1449.83 1524.4 1497.01 1513.99 1529.3 1515.36C1533.76 1521.67 1537.82 1527.9 1541.17 1533.27C1545.55 1540.31 1540.48 1549.39 1532.19 1549.39Z" fill="#2D2C2B"/>
<path d="M681.154 521.55C681.154 521.55 594.806 501.337 550.819 532.625C506.83 563.91 420.484 624.194 396.046 616.047C396.046 616.047 457.956 681.217 538.603 647.003C619.249 612.788 674.642 607.901 674.642 607.901L681.154 521.55Z" fill="#FFF6E7"/>
<path d="M441.664 582.195C441.664 582.195 484.023 584.005 548.828 542.369L566.34 524.225C566.34 524.225 538.033 528.973 504.001 551.059C469.969 573.143 453.249 581.834 441.664 582.195Z" fill="#FFF6E7"/>
<path d="M457.443 663.419C457.443 663.419 517.078 681.145 595.17 630.351C673.261 579.556 654.77 582.161 654.77 582.161L576.679 632.956L551.948 615.567C551.948 615.567 530.582 666.198 457.443 663.419Z" fill="#FFF6E7"/>
<path d="M522.58 524.224C522.58 524.224 576.888 515.034 611.099 529.154L621.96 521.286C621.96 521.286 577.43 500.83 522.58 524.224Z" fill="#FFF6E7"/>
<path d="M592.999 635.894C592.951 635.894 592.901 635.892 592.851 635.887C591.793 635.805 590.998 634.881 591.08 633.823C594.595 587.73 623.536 556.917 623.829 556.61C624.562 555.843 625.779 555.815 626.547 556.546C627.317 557.28 627.346 558.497 626.613 559.265C626.331 559.562 598.326 589.437 594.918 634.116C594.838 635.127 593.993 635.894 592.999 635.894Z" fill="#DDD2C0"/>
<path d="M1683.12 146.272L1652.29 148.252L1640.75 148.983C1640.75 148.983 1634.02 145.175 1625.98 137.404C1625.92 137.345 1625.84 137.27 1625.78 137.231C1625.26 136.732 1624.76 136.232 1624.28 135.73C1624.15 135.614 1624.03 135.481 1623.9 135.326L1623.36 134.788C1622.78 134.193 1622.23 133.596 1621.69 132.98C1621.13 132.365 1620.57 131.75 1620.03 131.134C1620.05 131.114 1620.03 131.114 1620.01 131.096C1609.8 119.267 1599.61 101.513 1599.34 77.5468C1599.32 76.2207 1599.34 74.8739 1599.38 73.5069C1599.53 69.0447 1599.73 64.7165 1599.94 60.5245C1600.03 58.9281 1600.13 57.3318 1600.22 55.774C1601.59 34.0011 1603.82 16.2091 1605.63 4.26447C1606.38 -0.60195 1612.94 -1.60114 1615.09 2.82246C1621.75 16.4975 1633.5 36.7125 1650.52 51.7727C1672.72 71.3928 1680.16 100.051 1682.33 125.92C1682.43 127.074 1682.51 128.228 1682.6 129.363C1682.64 130.21 1682.7 131.037 1682.76 131.863C1683.03 136.848 1683.12 141.675 1683.12 146.272Z" fill="#FFF6E7"/>
<path d="M1654.99 146.099C1654.88 146.099 1654.77 146.09 1654.67 146.071C1653.62 145.897 1652.91 144.906 1653.08 143.86C1653.12 143.644 1656.43 122.121 1639.6 99.4806C1619.83 72.8799 1618.15 54.066 1618.09 53.278C1618.01 52.2198 1618.8 51.2978 1619.86 51.2115C1620.96 51.1411 1621.84 51.9177 1621.93 52.9736C1621.94 53.1553 1623.65 71.5696 1642.69 97.1847C1660.54 121.203 1657.03 143.553 1656.88 144.493C1656.72 145.436 1655.91 146.099 1654.99 146.099Z" fill="#DDD2C0"/>
<path d="M1627.79 136.798C1627.7 136.525 1627.54 136.252 1627.31 136.025C1627.24 135.957 1627.15 135.866 1627.06 135.798C1626.59 135.321 1626.11 134.867 1625.54 134.277C1625.5 134.231 1625.45 134.163 1625.34 134.05L1624.75 133.459C1624.2 132.869 1623.66 132.301 1623.04 131.62C1622.66 131.188 1622.27 130.757 1621.89 130.326L1621.84 130.008L1621.32 129.644C1617.21 124.807 1613.69 119.471 1610.83 113.726C1610.12 112.363 1609.46 110.955 1608.85 109.547C1608.42 108.571 1607.31 108.139 1606.31 108.548C1606.17 108.616 1606.04 108.684 1605.92 108.798C1605.22 109.298 1604.97 110.251 1605.31 111.092C1605.33 111.114 1605.33 111.16 1605.35 111.182C1608.53 118.381 1612.58 125.057 1617.46 131.052L1617.43 131.075L1618.59 132.392C1619.12 133.005 1619.66 133.596 1620.25 134.254C1620.8 134.89 1621.39 135.503 1621.93 136.071C1622.16 136.321 1622.41 136.57 1622.5 136.639C1622.66 136.82 1622.79 136.979 1622.95 137.115C1623.29 137.479 1623.63 137.819 1624 138.16C1624.16 138.319 1624.29 138.478 1624.45 138.614L1624.61 138.773H1624.63C1625 139.136 1625.5 139.318 1625.97 139.318C1626.47 139.318 1626.97 139.136 1627.34 138.75L1627.36 138.728C1627.86 138.205 1628.02 137.456 1627.79 136.798Z" fill="#DDD2C0"/>
<path d="M1715.3 376.814C1684.25 376.814 1673.62 358.134 1673.1 357.194C1672.59 356.261 1672.93 355.094 1673.87 354.583C1674.8 354.076 1675.96 354.415 1676.47 355.343C1677.05 356.381 1690.79 380.093 1734.3 370.815C1735.34 370.59 1736.36 371.255 1736.59 372.295C1736.81 373.333 1736.15 374.355 1735.11 374.578C1727.73 376.151 1721.15 376.814 1715.3 376.814Z" fill="#DDD2C0"/>
<path d="M1887.9 287.376C1887.9 287.376 1846.84 279.605 1849.01 274.183C1850.38 270.74 1861.3 268.49 1870.4 268.817C1875.71 268.989 1880.4 270.068 1882.23 272.28C1887.9 279.163 1887.9 287.376 1887.9 287.376Z" fill="#2D2C2B"/>
<path d="M1883.51 320.849C1875.08 320.849 1865.09 319.516 1856.88 318.419C1850.94 317.626 1845.81 316.947 1843.64 317.097C1836.46 317.611 1830.88 319.836 1830.83 319.859C1829.84 320.258 1828.72 319.781 1828.32 318.798C1827.93 317.815 1828.4 316.693 1829.38 316.293C1829.63 316.191 1835.55 313.818 1843.36 313.26C1845.94 313.073 1850.99 313.75 1857.39 314.606C1870.1 316.303 1889.31 318.866 1895.94 314.97C1896.86 314.431 1898.04 314.736 1898.58 315.655C1899.12 316.571 1898.81 317.749 1897.89 318.287C1894.67 320.179 1889.48 320.849 1883.51 320.849Z" fill="#DDD2C0"/>
<path d="M1746.33 223.361C1746.33 223.361 1740.3 244.361 1714.79 244.343C1691.43 244.325 1690.16 216.496 1690.16 216.496C1695.71 214.572 1707.91 212.118 1713.06 209.138C1719.28 205.541 1728.56 209.592 1733.94 214.824L1746.33 223.361Z" fill="white"/>
<path d="M1703.39 220.319C1703.39 220.319 1733.62 217.966 1735.25 220.319C1736.88 222.672 1736.52 229.552 1726.92 231.723C1717.33 233.896 1699.41 230.638 1699.23 227.922C1699.04 225.206 1698.5 221.586 1703.39 220.319Z" fill="#2D2C2B"/>
<path d="M1753.17 232.38C1752.64 232.38 1752.11 232.162 1751.73 231.735C1751.56 231.545 1734.6 212.569 1724.14 209.62C1715.59 207.208 1693.03 217.014 1685.06 220.992C1684.11 221.471 1682.95 221.081 1682.48 220.131C1682 219.18 1682.39 218.026 1683.34 217.552C1684.56 216.941 1713.47 202.621 1725.18 205.918C1736.72 209.17 1753.88 228.363 1754.6 229.178C1755.31 229.973 1755.24 231.188 1754.45 231.894C1754.08 232.219 1753.62 232.38 1753.17 232.38Z" fill="#DDD2C0"/>
<path d="M1583.72 225.018C1583.72 225.018 1569.2 233.366 1542.97 237.346C1541.2 237.635 1539.37 237.885 1537.49 238.116C1527.68 239.29 1516.44 239.828 1503.9 239.154C1503.9 239.154 1544.93 226.478 1565.14 194.087C1567.47 190.374 1569.53 186.393 1571.2 182.142C1571.2 182.124 1571.22 182.124 1571.22 182.104L1576.13 198.915L1583.72 225.018Z" fill="#FFF6E7"/>
<path d="M1599.38 224.692C1599.38 224.692 1577.87 240.175 1537.91 245.427C1532.71 246.12 1527.21 246.62 1521.41 246.908C1521.41 246.908 1528.25 243.983 1537.49 238.118C1540.26 236.349 1543.24 234.309 1546.31 232.02C1556.82 224.134 1568.37 213.113 1576.13 198.918C1578.78 194.072 1580.98 188.858 1582.55 183.281L1599.38 224.692Z" fill="#FFF6E7"/>
<path d="M1768.63 371.43C1768.61 371.45 1768.59 371.45 1768.58 371.45C1737.84 377.566 1720.4 401.167 1720.4 401.167C1726.18 389.971 1732.4 380.681 1738.48 373.065C1738.55 372.949 1738.65 372.833 1738.75 372.72C1742.3 368.276 1745.82 364.411 1749.13 361.082C1762.02 348.233 1772.27 343.462 1772.9 344.329C1773.98 345.771 1799.29 365.314 1768.63 371.43Z" fill="#FFF6E7"/>
<path d="M1759.42 366.506C1759.42 366.506 1750.73 368.545 1739.61 372.66C1739.25 372.776 1738.86 372.93 1738.48 373.064C1727.86 377.065 1715.26 382.893 1705.91 390.529C1705.91 390.529 1710.49 383.22 1718.15 375.951C1718.57 375.546 1718.99 375.142 1719.43 374.758C1725.48 369.238 1733.23 363.988 1742.03 362.16C1744.82 361.583 1747.15 361.238 1749.13 361.083C1762.17 359.948 1759.42 366.506 1759.42 366.506Z" fill="#FFF6E7"/>
<path d="M1729.65 124.058C1727.07 126.712 1723.86 129.406 1719.94 132.04C1718.07 133.309 1716.05 134.54 1713.84 135.753C1711.84 136.868 1709.68 137.965 1707.38 139.041L1693.6 136.137C1693.6 136.137 1697.51 133.866 1703.09 130.135C1704.26 129.347 1705.53 128.482 1706.84 127.578C1718.71 119.307 1734.94 106.42 1739.59 94.8594C1739.59 94.8594 1744.25 109.036 1729.65 124.058Z" fill="#FFF6E7"/>
<path d="M1802.18 142.985C1800.98 142.023 1775.96 122.328 1732.4 134.368C1727.99 135.58 1723.38 137.118 1718.59 139.041L1713.84 135.753L1708.08 131.79C1708.08 131.79 1708.79 131.406 1710.1 130.791C1713.37 129.233 1720.39 126.213 1729.64 124.06C1748.96 119.518 1777.9 118.73 1802.18 142.985Z" fill="#FFF6E7"/>
<path d="M1843.05 165.564C1843.05 165.564 1831.95 183.374 1800.68 178.432C1795.31 177.606 1789.37 176.087 1782.77 173.7L1777.33 157.139C1777.33 157.139 1781.62 160.043 1788.73 163.081C1800.93 168.257 1821.45 173.777 1843.05 165.564Z" fill="#FFF6E7"/>
<path d="M1697.28 129.443C1695.51 130.347 1693.49 131.156 1691.18 131.866C1689.1 132.5 1686.78 133.058 1684.2 133.519C1684.2 133.519 1685.82 132.077 1688.05 129.384C1688.87 128.403 1689.8 127.229 1690.76 125.921C1695.82 118.92 1701.99 107.437 1702.03 93.0508C1702.03 93.0508 1719.74 118.075 1697.28 129.443Z" fill="#FFF6E7"/>
<path d="M1810.19 359.088C1810.19 359.088 1789.01 409.233 1824.85 452.681C1824.85 452.681 1807.47 394.751 1834.63 359.088H1810.19Z" fill="#FFF6E7"/>
<path d="M1799.87 359.087C1799.87 359.087 1782.07 383.542 1793.17 413.658C1805.21 446.315 1789.5 464.354 1789.5 464.354C1789.5 464.354 1814.53 452.548 1806.66 416.771C1798.78 380.991 1822.41 359.087 1822.41 359.087C1822.41 359.087 1809.92 409.774 1832.73 432.312C1832.73 432.312 1825.13 380.751 1840.6 363.765C1856.08 346.777 1814.53 337.998 1799.87 359.087Z" fill="#FFF6E7"/>
<path d="M216.347 1444.9C214.883 1467.14 234.295 1671.5 234.295 1671.5L299.332 1679.02C299.332 1679.02 301.735 1529.15 302.906 1478.98C302.984 1475.13 303.063 1471.87 303.14 1469.31C304.155 1433.36 423.096 1191.09 423.096 1191.09L198.184 1190.53C198.184 1190.53 219.863 1312.11 217.499 1418.38C217.285 1427.34 216.913 1436.21 216.347 1444.9Z" fill="#603F25"/>
<path d="M236.351 1659.97L209.692 1706.88C209.692 1706.88 231.328 1719.17 242.232 1692.51L236.737 1658.64L236.351 1659.97Z" fill="#332C24"/>
<path d="M299.326 1679.01C301.853 1693.11 304.242 1710.91 308.617 1728.88C308.765 1729.52 308.931 1730.17 309.078 1730.79C310.734 1737.56 312.426 1743.88 313.897 1749.2C316.122 1757.22 310.237 1765.2 301.907 1765.42C276.895 1766.07 231.95 1766.93 228.455 1764.94C226.616 1763.89 227.167 1754.75 228.548 1743.77C228.898 1740.98 229.302 1738.09 229.743 1735.17C230.792 1728.07 232.022 1720.86 233.072 1715.05C233.367 1713.45 233.494 1711.83 233.494 1710.23C233.494 1707.65 233.126 1705.1 232.409 1702.63C231.38 1699.05 229.613 1695.68 227.168 1692.76C222.313 1686.93 221.927 1678.58 226.284 1672.36C229.888 1667.19 234.082 1659.82 237.465 1650.01L299.326 1679.01Z" fill="#EAE0D3"/>
<path d="M228.544 1743.78C228.544 1743.78 280.213 1733.03 309.81 1733.75L315.759 1754.78C317.376 1760.5 313.082 1766.18 307.142 1766.18H232.911C228.596 1766.18 225.326 1762.28 226.064 1758.04L228.544 1743.78Z" fill="#2D2C2B"/>
<path d="M234.295 1671.5L299.332 1679.02C299.332 1679.02 301.735 1529.16 302.906 1478.98C291.559 1467.11 254.471 1430.56 217.501 1418.38C217.285 1427.34 216.915 1436.21 216.35 1444.9C214.883 1467.14 234.295 1671.5 234.295 1671.5Z" fill="#EAE0D3"/>
<path d="M282.068 1485.43C282.068 1485.43 287.143 1460.93 266.47 1434.08L256.213 1437.6C256.213 1437.6 275.744 1459.19 282.068 1485.43Z" fill="#603F25"/>
<path d="M259.587 1457.02C259.587 1457.02 238.017 1445.66 231.766 1422.85L245.677 1420.62C245.677 1420.62 240.399 1439.18 259.587 1457.02Z" fill="#603F25"/>
<path d="M382.133 1346.95C360.568 1354.91 345.79 1374.74 344.924 1397.71C344.354 1413.09 342.299 1424.75 337.526 1426C330.439 1427.9 320.264 1402.75 311.462 1375.54C309.233 1368.65 305.699 1362.38 301.146 1356.96L382.133 1346.95Z" fill="#A3796C"/>
<path d="M480.293 1228.12C479.187 1232.19 477.857 1236.35 476.281 1240.62C474.537 1245.33 472.7 1249.96 470.695 1254.51C469.514 1257.2 468.294 1259.86 467.039 1262.48C448.48 1301.02 420.061 1332.97 382.14 1346.95L350.46 1350.87C325.772 1353.92 305.865 1373.51 303.803 1398.32C303.728 1399.16 303.671 1400.02 303.635 1400.89C303.072 1416.27 301.01 1427.92 296.248 1429.17C289.163 1431.07 278.984 1405.93 270.173 1378.71C267.137 1369.33 261.701 1361.12 254.557 1354.64C250.451 1350.91 245.785 1347.76 240.685 1345.3C235.548 1342.81 230.655 1339.98 226.063 1336.87C197.738 1317.69 179.292 1287.04 167.521 1252.43C163.247 1239.93 159.834 1226.92 157.155 1213.72C141.539 1137 221.883 1097.5 295.16 1099.61C313.624 1096.2 332.875 1095.45 351.228 1097.44C424.526 1105.37 504.064 1141.36 480.293 1228.12Z" fill="#A3796C"/>
<path d="M313.394 1375.83L309.527 1375.27C309.607 1374.68 311.882 1360.56 345.694 1341.78C378.079 1323.78 399.329 1274.58 399.54 1274.08L403.135 1275.61C403.081 1275.74 397.624 1288.47 388.141 1303.27C379.349 1317.01 365.175 1335.42 347.594 1345.19C315.899 1362.8 313.415 1375.7 313.394 1375.83Z" fill="#875C50"/>
<path d="M681.892 1231.43C681.892 1231.43 739.213 1256.99 750.678 1272.87C759.643 1285.3 776.029 1389.73 781.908 1442.44C783.547 1457.13 784.369 1467.79 783.979 1471.35C782.221 1487.66 799.447 1548.73 801.205 1584C802.962 1619.27 802.944 1679.92 802.944 1679.92L796.5 1703.92L795.562 1707.38L860.93 1719.18C860.794 1718.55 860.676 1717.71 860.56 1716.66C858.294 1696.97 858.294 1606.15 859.954 1585.21C861.36 1567.69 871.789 1513.1 876.574 1486.74C877.198 1483.28 877.609 1479.8 877.843 1476.33C878.059 1472.79 878.077 1469.24 877.881 1465.68C873.39 1387.03 891.202 1309.47 897.978 1278.17C905.029 1245.53 943.073 1142.74 943.073 1142.74L681.892 1231.43Z" fill="#603F25"/>
<path d="M786.493 1706.3L774.544 1740.29C774.544 1740.29 793.219 1746.36 798.092 1723.71L792.867 1701.88L786.493 1706.3Z" fill="#332C24"/>
<path d="M788.019 1702.25C790.898 1698.13 800.235 1687.73 802.938 1679.92L805.556 1686.5C810.556 1682.94 817.053 1672.43 818.129 1671.26L857.963 1680.77C858.44 1695.26 863.749 1732.96 867.246 1747.28C867.364 1747.79 867.495 1748.31 867.613 1748.8C868.937 1754.2 870.289 1759.24 871.462 1763.47C873.24 1769.86 868.538 1776.22 861.882 1776.4C841.897 1776.91 805.985 1777.6 803.192 1776.02C801.723 1775.18 802.163 1767.9 803.265 1759.15C803.544 1756.92 803.866 1754.62 804.221 1752.29C804.872 1747.89 803.321 1743.03 798.61 1737.42C796.025 1734.34 794.102 1730.7 793.005 1726.71C792.974 1726.59 792.942 1726.48 792.91 1726.37C792.088 1723.51 790.676 1720.83 788.723 1718.5C784.847 1713.85 784.538 1707.2 788.019 1702.25Z" fill="#EAE0D3"/>
<path d="M803.269 1759.15C803.269 1759.15 844.552 1750.59 868.202 1751.16L872.954 1767.92C874.247 1772.47 870.815 1777 866.07 1777H806.76C803.312 1777 800.699 1773.9 801.289 1770.51L803.269 1759.15Z" fill="#2D2C2B"/>
<path d="M801.203 1584C802.96 1619.28 802.942 1679.92 802.942 1679.92L796.498 1703.92L860.556 1716.66C858.289 1696.97 858.289 1606.15 859.949 1585.22C861.355 1567.7 871.785 1513.11 876.569 1486.74C877.193 1483.28 877.605 1479.81 877.839 1476.33C861.569 1463.81 831.767 1444.2 801.2 1440.94C793.916 1440.16 787.51 1440.82 781.903 1442.45C783.543 1457.13 784.365 1467.8 783.974 1471.35C782.219 1487.66 799.445 1548.73 801.203 1584Z" fill="#EAE0D3"/>
<path d="M865.27 1482.61C865.27 1482.61 858.246 1458.15 843.041 1451.17C827.836 1444.18 829.977 1440.61 829.977 1440.61C829.977 1440.61 849.828 1468.09 865.27 1482.61Z" fill="#603F25"/>
<path d="M155.264 721.193C155.264 721.193 115.319 681.365 155.264 592.011C155.264 592.011 130.036 599.369 122.678 640.367C122.678 640.367 116.372 580.448 155.264 547.859C155.264 547.859 81.682 557.32 97.4502 688.722C97.4502 688.722 71.1706 645.621 89.0415 590.96C89.0415 590.96 29.1251 690.825 102.707 769.666L155.264 721.193Z" fill="#FFF6E7"/>
<path d="M176.827 711.505C176.827 711.505 132.738 723.667 122.856 667.414C122.856 667.414 106.131 734.311 176.827 711.505Z" fill="#7C5937"/>
<path d="M141.644 713.359C141.644 713.359 103.043 720.254 84.0186 689.922C84.0186 689.922 85.9486 730.731 117.932 730.179C117.932 730.179 93.6692 726.319 87.0522 713.359C87.0522 713.359 90.9124 736.245 107.455 740.932C123.997 745.619 128.135 748.101 128.135 748.101L141.644 713.359Z" fill="#7C5937"/>
<path d="M967.206 604.32C967.206 604.32 960.592 765.727 961.915 784.248C963.239 802.772 980.436 986.667 979.114 1023.71C977.79 1060.76 937.203 1186.93 889.364 1217.11C841.526 1247.3 702.617 1247.3 702.617 1247.3C702.617 1247.3 599.427 1236.71 574.292 1236.71C549.157 1236.71 423.475 1239.36 385.11 1236.71C346.746 1234.07 284.431 1201.43 284.431 1201.43C284.431 1201.43 105.965 1235.39 91.4143 1227.45C76.861 1219.51 19.9739 1023.71 17.3285 990.636C14.6831 957.561 37.1725 723.39 154.916 710.16C272.66 696.93 489.624 744.559 534.603 744.559C579.583 744.559 701.295 728.683 711.879 723.39C722.463 718.099 772.736 695.606 772.736 678.409C772.736 661.212 780.674 534.201 780.674 534.201C780.674 534.201 968.516 571.091 967.206 604.32Z" fill="#7C5937"/>
<path d="M89.1799 1203.96C89.1799 1203.96 106.351 1286.79 93.1175 1346.94C93.1175 1346.94 118.157 1308.08 108.393 1247.3C98.631 1186.52 51.0288 1122.17 51.0288 1122.17C51.0288 1122.17 52.3097 1227.52 69.9558 1274.85C69.9558 1274.85 47.8977 1194.24 86.4984 1128.06L89.1799 1203.96Z" fill="#7C5937"/>
<path d="M19.9854 1006.73C19.9854 1006.73 39.8089 1104.53 28.0464 1153.06C28.0464 1153.06 54.5167 1097.91 40.5469 1045.71C26.5749 993.501 19.9854 1006.73 19.9854 1006.73Z" fill="#7C5937"/>
<path d="M982.043 982.473C982.043 982.473 980.94 938.907 954.472 917.951C954.472 917.951 998.588 925.12 982.043 982.473Z" fill="#7C5937"/>
<path d="M961.913 784.246C961.913 784.246 971.014 873.282 991.969 909.679C991.969 909.679 940.127 843.004 961.913 784.246Z" fill="#7C5937"/>
<path d="M961.5 780.645C961.5 780.645 973.551 813.583 976.803 831.525C976.803 831.525 954.897 809.809 961.5 780.645Z" fill="#7C5937"/>
<path d="M698.603 726.714C698.603 726.714 670.663 731.742 649.709 724.389C649.709 724.389 664.046 731.742 680.589 735.418C697.131 739.095 605.96 748.653 597.136 746.08C588.314 743.507 568.461 726.228 540.153 726.594C540.153 726.594 568.093 733.947 578.754 750.122C589.415 766.297 682.794 765.564 684.999 765.564L698.603 726.714Z" fill="#7C5937"/>
<path d="M366.408 721.629C366.408 721.629 324.356 704.534 286.123 703.801C286.123 703.801 346.414 717.035 355.972 733.213C365.529 749.39 414.058 733.213 414.058 733.213C414.058 733.213 390.898 721.448 372.516 717.035C354.135 712.623 350.091 703.801 350.091 703.801C350.091 703.801 353.031 717.035 372.149 723.287L366.408 721.629Z" fill="#7C5937"/>
<path d="M75.1035 776.594C75.1035 776.594 36.135 811.887 26.5773 856.739C17.0197 901.593 0.842773 910.415 0.842773 910.415C0.842773 910.415 36.1894 894.237 44.6162 855.267L75.1035 776.594Z" fill="#7C5937"/>
<path d="M679.853 1277.78C679.853 1277.78 660.622 1249.27 645.664 1241.66C630.707 1234.05 653.108 1235.87 653.108 1235.87C653.108 1235.87 673.787 1252.42 679.853 1277.78Z" fill="#7C5937"/>
<path d="M426.197 1237.82C426.197 1237.82 361.669 1240.01 339.062 1271.99C339.062 1271.99 357.275 1211.92 426.197 1237.82Z" fill="#7C5937"/>
<path d="M325.825 1214.64C325.825 1214.64 341.337 1226.17 339.059 1251.66C339.059 1251.66 328.121 1225.67 302.709 1205.82L325.825 1214.64Z" fill="#7C5937"/>
<path d="M464.791 1224C464.73 1224 464.666 1224 464.602 1223.99C461.187 1223.67 380.696 1215.77 355.252 1197.29C329.71 1178.73 300.511 1083.75 299.278 1079.72C298.962 1078.69 299.546 1077.6 300.577 1077.28C301.612 1076.96 302.7 1077.55 303.015 1078.58C303.313 1079.56 333.057 1176.34 357.548 1194.13C382.138 1211.99 464.151 1220.03 464.975 1220.11C466.049 1220.21 466.837 1221.16 466.733 1222.24C466.637 1223.25 465.786 1224 464.791 1224Z" fill="#332C24"/>
<path d="M79.2251 1205.08C79.2251 1205.08 113.266 1318.48 123.911 1422.56C125.063 1433.75 125.941 1444.84 126.47 1455.66C127.388 1474.36 157.603 1618.65 167.308 1664.67C167.58 1665.88 167.816 1667.01 168.03 1668.07C169.474 1674.84 170.296 1678.73 170.296 1678.73H236.7C236.7 1678.73 235.313 1665.43 233.224 1645.43C227.812 1593.34 217.735 1495.86 215.489 1469.98C215.391 1468.89 215.391 1467.62 215.45 1466.14C217.755 1418.97 302.711 1179.83 302.711 1179.83L79.2251 1205.08Z" fill="#7C5937"/>
<path d="M146.135 1706.58C146.135 1706.58 158.713 1713.73 169.513 1705.31C172.871 1702.69 176.075 1698.55 178.673 1692.22L176.486 1678.73L173.167 1658.36L172.796 1659.68L168.03 1668.06L159.73 1682.67L146.135 1706.58Z" fill="#2D2C2B"/>
<path d="M126.468 1455.66C127.385 1474.36 157.6 1618.65 167.305 1664.67C165.743 1667.52 164.199 1669.98 162.716 1672.07C160.491 1675.25 159.494 1679 159.728 1682.67C159.728 1682.67 167.01 1687.24 169.513 1705.31C169.785 1706.84 169.924 1708.38 169.924 1709.94C169.924 1711.54 169.806 1713.16 169.513 1714.76C168.459 1720.56 167.228 1727.77 166.172 1734.88C165.743 1737.81 165.332 1740.68 164.98 1743.49C163.593 1754.47 163.048 1763.61 164.883 1764.65C168.223 1766.54 209.353 1765.86 234.82 1765.21C238.433 1761.23 244.527 1756.95 250.756 1753.16C250.874 1751.78 250.717 1750.35 250.327 1748.9C248.862 1743.59 247.164 1737.26 245.501 1730.51C245.365 1729.88 245.188 1729.24 245.052 1728.59C242.552 1718.32 236.693 1678.73 236.693 1678.73C236.693 1678.73 235.306 1665.43 233.217 1645.43C227.805 1593.34 217.728 1495.86 215.482 1469.98C215.384 1468.89 215.384 1467.62 215.443 1466.14C208.079 1455.33 193.998 1440.16 167.262 1423.01C145.856 1409.3 132.381 1413.15 123.904 1422.56C125.062 1433.75 125.941 1444.84 126.468 1455.66Z" fill="#FFF6E7"/>
<path d="M164.983 1743.49C164.983 1743.49 216.651 1732.74 246.248 1733.47L252.198 1754.49C253.815 1760.21 249.521 1765.89 243.58 1765.89H169.349C165.035 1765.89 161.765 1762 162.503 1757.75L164.983 1743.49Z" fill="#2D2C2B"/>
<path d="M123.914 1422.56C123.914 1422.56 124.427 1467.81 108.393 1480.11C108.393 1480.11 126.718 1476.55 132.57 1452.4C132.57 1452.4 109.018 1492.53 119.177 1534.14C119.177 1534.14 122.599 1488.67 133.694 1479.14C144.789 1469.61 151.853 1430.58 123.914 1422.56Z" fill="#FFF6E7"/>
<path d="M189.958 1431.38C189.958 1431.38 194.523 1458.22 207.112 1477.14C207.112 1477.14 176.936 1456.95 173.627 1426.11C173.627 1426.11 178.514 1448.42 157.798 1452.02C157.798 1452.02 169.018 1433.6 156.02 1417.06C143.022 1400.52 184.384 1408.24 189.958 1431.38Z" fill="#7C5937"/>
<path d="M287.978 1222.05C287.978 1222.05 263.386 1288.53 278.889 1336.51C278.889 1336.51 235.242 1260.89 287.978 1222.05Z" fill="#7C5937"/>
<path d="M293.197 1207.77C292.951 1207.77 292.701 1207.72 292.461 1207.62C291.462 1207.22 290.982 1206.08 291.387 1205.08C305.463 1170.47 300.817 1128.7 300.77 1128.28C300.645 1127.21 301.412 1126.24 302.484 1126.12C303.563 1126 304.525 1126.76 304.648 1127.83C304.698 1128.26 309.455 1171.02 295.004 1206.55C294.697 1207.31 293.969 1207.77 293.197 1207.77Z" fill="#332C24"/>
<path d="M625 1231.43C625 1231.43 682.321 1256.99 693.786 1272.87C702.34 1284.69 717.593 1379.85 724.096 1434.45C726.342 1453.2 727.534 1467.17 727.085 1471.35C725.327 1487.66 742.553 1548.73 744.311 1584C746.089 1619.27 746.05 1679.92 746.05 1679.92L742.574 1692.85L738.668 1707.38L804.036 1719.18C801.4 1706.82 801.302 1607.26 803.078 1585.21C804.466 1567.69 814.893 1513.11 819.679 1486.74C820.931 1479.79 821.378 1472.73 820.988 1465.68C820.91 1464.3 820.831 1462.91 820.792 1461.54C817.12 1384.32 834.424 1308.93 841.084 1278.17C848.134 1245.53 908.991 1201.43 908.991 1201.43L943.07 1142.74L625 1231.43Z" fill="#7C5937"/>
<path d="M729.605 1706.3L717.657 1740.29C717.657 1740.29 736.331 1746.36 741.205 1723.71L735.977 1701.88L729.605 1706.3Z" fill="#2D2C2B"/>
<path d="M731.133 1702.25C734.013 1698.13 743.35 1687.73 746.052 1679.92L748.671 1686.5C753.671 1682.94 760.167 1672.43 761.244 1671.26L801.077 1680.77C801.554 1695.26 806.863 1732.96 810.36 1747.28C810.478 1747.79 810.61 1748.31 810.728 1748.8C812.05 1754.2 813.403 1759.24 814.577 1763.47C816.355 1769.86 811.653 1776.22 804.997 1776.4C785.012 1776.91 749.1 1777.6 746.307 1776.02C744.837 1775.18 745.278 1767.9 746.38 1759.15C746.659 1756.92 746.981 1754.62 747.335 1752.29C747.987 1747.89 746.436 1743.03 741.727 1737.42C739.142 1734.34 737.219 1730.7 736.122 1726.71C736.091 1726.59 736.059 1726.48 736.027 1726.37C735.205 1723.51 733.793 1720.83 731.84 1718.5C727.959 1713.85 727.65 1707.2 731.133 1702.25Z" fill="#FFF6E7"/>
<path d="M746.382 1759.15C746.382 1759.15 787.667 1750.59 811.314 1751.16L816.067 1767.92C817.359 1772.47 813.928 1777 809.182 1777H749.87C746.423 1777 743.809 1773.9 744.399 1770.51L746.382 1759.15Z" fill="#2D2C2B"/>
<path d="M744.311 1584C746.089 1619.28 746.05 1679.92 746.05 1679.92L742.574 1692.85L804.036 1719.18C801.4 1706.82 801.302 1607.27 803.078 1585.22C804.465 1567.7 814.893 1513.11 819.679 1486.74C820.931 1479.79 821.378 1472.74 820.987 1465.69C820.91 1464.3 820.831 1462.91 820.792 1461.55C801.066 1446.17 772.67 1429.03 744.311 1429.28C736.733 1429.34 730.014 1431.26 724.096 1434.46C726.342 1453.21 727.534 1467.17 727.085 1471.35C725.327 1487.66 742.553 1548.73 744.311 1584Z" fill="#FFF6E7"/>
<path d="M724.096 1434.45C724.096 1434.45 711.101 1458.94 719.189 1506C719.189 1506 724.337 1462.61 742.717 1450.12C761.098 1437.62 724.096 1434.45 724.096 1434.45Z" fill="#FFF6E7"/>
<path d="M760.365 1418.5C760.365 1418.5 799.209 1433.2 801.477 1486.88C801.477 1486.88 774.582 1443.74 744.313 1429.28C714.044 1414.82 760.365 1418.5 760.365 1418.5Z" fill="#7C5937"/>
<path d="M724.096 1434.45C724.096 1434.45 722.13 1453.06 696.396 1445.7L724.096 1434.45Z" fill="#FFF6E7"/>
<path d="M841.981 1258.68C841.892 1258.68 841.802 1258.68 841.713 1258.67C840.643 1258.52 839.896 1257.54 840.044 1256.47C846.74 1207.67 877.593 1178.68 877.904 1178.4C878.697 1177.67 879.932 1177.72 880.664 1178.51C881.397 1179.3 881.347 1180.53 880.557 1181.26C880.257 1181.54 850.412 1209.65 843.916 1257C843.779 1257.98 842.942 1258.68 841.981 1258.68Z" fill="#332C24"/>
<path d="M690.882 1253.62C690.035 1253.62 689.256 1253.06 689.009 1252.21C688.825 1251.59 670.595 1189.46 658.66 1174.5C646.773 1159.59 614.301 1144.67 613.974 1144.52C612.993 1144.07 612.559 1142.91 613.009 1141.93C613.456 1140.94 614.616 1140.52 615.595 1140.96C616.964 1141.58 649.25 1156.43 661.714 1172.06C674.126 1187.63 692.004 1248.53 692.76 1251.12C693.062 1252.15 692.469 1253.24 691.432 1253.54C691.248 1253.59 691.061 1253.62 690.882 1253.62Z" fill="#332C24"/>
<path d="M855.485 275.417C854.842 278.866 854.942 283.485 855.775 288.633C858.973 308.503 860.978 366.543 856.087 381.381L900.468 383.366C900.468 383.366 900.3 369.902 898.068 352.221C895.545 332.242 890.398 306.875 879.877 289.444C865.19 265.125 857.274 265.498 855.485 275.417Z" fill="#603F25"/>
<path d="M1055.52 341.369C1053.99 344.523 1051.16 348.177 1047.43 351.821C1033.04 365.896 996.914 411.36 992.021 426.198L955.162 401.398C955.162 401.398 963.303 390.673 975.613 377.786C989.523 363.225 1008.75 345.894 1027.57 338.137C1053.84 327.323 1059.98 332.331 1055.52 341.369Z" fill="#603F25"/>
<path d="M765.686 525.72C768.476 538.464 797.331 666.392 809.089 675.142C820.827 683.887 843.289 692.421 861.854 690.702C872.273 689.739 970.96 606.621 976.169 601.367C981.397 596.119 1004.02 546.467 1007.93 526.166C1010.95 510.463 1011.55 461.939 1011.64 440.705C1011.68 434.219 1008.82 427.972 1003.75 423.893C996.901 418.407 989.858 413.452 982.741 409.029C982.457 408.831 982.146 408.647 981.855 408.47C960.66 395.353 938.829 386.654 919.38 380.838C907.719 377.343 896.936 374.877 887.659 373.136C870.338 369.913 858.28 369.187 855.71 368.873C848.339 368.026 797.669 435.391 792.199 445.31C786.356 455.91 762.938 512.97 765.686 525.72Z" fill="#7C5937"/>
<path d="M942.535 542.033C942.535 542.033 952.903 563.517 980.347 558.78C1005.49 554.441 1001.71 524.259 1001.71 524.259C995.375 523.216 981.792 522.833 975.706 520.576C968.342 517.855 959.102 523.932 954.279 530.556L942.535 542.033Z" fill="white"/>
<path d="M992.879 538.674C992.879 538.674 962.199 526.225 959.726 528.135C957.254 530.045 955.355 537.323 964.62 542.757C973.884 548.191 993.611 550.728 994.698 547.962C995.782 545.196 997.546 541.608 992.879 538.674Z" fill="#332C24"/>
<path d="M936.478 552.887C936.126 552.887 935.77 552.792 935.447 552.592C934.532 552.024 934.251 550.819 934.821 549.903C935.45 548.895 950.346 525.101 962.127 519.485C974.071 513.797 1007.77 523.845 1009.19 524.279C1010.23 524.59 1010.81 525.678 1010.5 526.713C1010.19 527.744 1009.1 528.335 1008.07 528.019C998.736 525.21 972.597 518.827 963.805 523.012C953.053 528.137 938.284 551.731 938.136 551.97C937.768 552.562 937.13 552.887 936.478 552.887Z" fill="#332C24"/>
<path d="M835.623 502.607C835.623 502.607 814.509 513.714 795.265 493.583C777.632 475.141 798.618 453.123 798.618 453.123C804.332 456.052 815.481 463.823 821.714 465.626C829.251 467.82 833.068 478.2 833.005 486.393L835.623 502.607Z" fill="white"/>
<path d="M797.147 469.964C797.147 469.964 829.215 478.203 830.069 481.209C830.92 484.216 828.12 491.196 817.439 490.054C806.759 488.912 789.39 479.22 790.162 476.35C790.934 473.479 791.65 469.548 797.147 469.964Z" fill="#332C24"/>
<path d="M835.198 515.317C835.146 515.317 835.094 515.315 835.039 515.31C833.963 515.222 833.161 514.279 833.25 513.207C833.273 512.926 835.43 485.176 829.832 474.662C825.259 466.067 800.446 455.651 791.272 452.363C790.257 451.997 789.731 450.88 790.092 449.867C790.455 448.85 791.57 448.32 792.59 448.686C793.995 449.19 827.064 461.148 833.279 472.83C839.413 484.35 837.237 512.338 837.14 513.523C837.06 514.543 836.206 515.317 835.198 515.317Z" fill="#332C24"/>
<path d="M852.476 692.096C844.367 692.096 836.124 690.291 829.171 687.7C811.782 681.221 799.213 669.238 797.147 657.175L765.097 531.99C764.829 530.946 765.461 529.881 766.505 529.613C767.547 529.338 768.612 529.976 768.883 531.021L800.966 656.36C802.833 667.231 814.427 678.035 830.538 684.037C843.958 689.04 862.413 691.001 873.958 681.516L965.799 607.355C966.636 606.678 967.869 606.808 968.544 607.648C969.223 608.488 969.091 609.717 968.251 610.393L876.424 684.543C869.779 690.002 861.205 692.096 852.476 692.096Z" fill="#332C24"/>
<path d="M889.478 658.556C888.908 658.556 888.341 658.308 887.955 657.829C887.925 657.79 884.837 654.003 880.329 651.673C876.403 649.64 844.969 639.778 833.134 636.068C830.423 635.216 828.576 634.637 828.052 634.464C826.231 633.869 820.608 634.308 817.49 634.723C816.407 634.864 815.438 634.117 815.295 633.047C815.152 631.98 815.901 630.997 816.97 630.851C818.465 630.652 826.081 629.698 829.278 630.756C829.796 630.926 831.622 631.501 834.306 632.341C854.602 638.709 878.376 646.264 882.123 648.203C887.391 650.928 890.857 655.204 891 655.383C891.674 656.223 891.538 657.452 890.7 658.126C890.341 658.415 889.907 658.556 889.478 658.556Z" fill="#332C24"/>
<path d="M821.346 599.597C854.054 638.987 903.387 626.892 914.938 616.306C927.968 604.354 916.443 527.777 925.969 503.811C932.493 487.445 960.015 444.026 976.787 418.165C978.978 414.786 980.985 411.707 982.738 409.028C982.738 409.023 982.736 409.021 982.736 409.016C962.229 396.282 945.584 387.507 927.084 381.605C925.1 380.971 923.072 380.47 921.031 380.047L887.655 373.135C887.655 373.135 871.305 446.304 873.783 482.081C874.95 499.001 839.946 544.547 821.153 567.678C813.576 577.007 813.676 590.364 821.346 599.597Z" fill="#EAE0D3"/>
<path d="M839.792 586.253C841.863 583.251 845.662 581.975 849.125 583.117L868.09 589.371L887.055 595.625C890.518 596.767 892.814 600.053 892.694 603.698C892.535 608.519 888.275 612.166 883.486 611.58L882.321 611.437C881.106 611.287 879.873 611.414 878.713 611.803L864.277 616.644C860.824 617.802 857.022 616.549 854.933 613.563L846.207 601.086C845.505 600.083 844.588 599.249 843.523 598.645L842.503 598.069C838.307 595.691 837.051 590.225 839.792 586.253Z" fill="#332C24"/>
<path d="M972.556 419.779C972.556 419.779 949.354 461.981 948.064 494.072C948.064 494.072 931.358 449.639 972.556 419.779Z" fill="#EAE0D3"/>
<path d="M857.617 488.971C857.617 488.971 879.8 452.213 884.935 422.549C884.935 422.549 896.034 464.028 857.617 488.971Z" fill="#EAE0D3"/>
<path d="M928.453 584.741C928.453 584.741 932.695 550.976 920.638 528.985C908.58 506.992 899.708 531.551 899.708 531.551C899.708 531.551 925.901 559.092 928.453 584.741Z" fill="#EAE0D3"/>
<path d="M867.922 516.425C867.922 516.425 827.645 544.179 814.423 566.917C814.423 566.917 825.061 527.843 872.295 503.156L867.922 516.425Z" fill="#EAE0D3"/>
<path d="M927.248 608.876C927.248 608.876 918.072 595.61 916.737 580.879C916.737 580.879 909.413 604.269 927.248 608.876Z" fill="#EAE0D3"/>
<path d="M849.438 395.636C849.438 395.636 823.04 373.536 804.109 361.242C785.178 348.95 704.999 393.561 692.036 394.857C679.072 396.154 656.219 393.64 656.219 393.64C656.219 393.64 680.557 433.897 708.553 439.824C736.549 445.751 801.909 432.435 801.909 432.435L849.438 395.636Z" fill="#7C5937"/>
<path d="M725.976 412.179C725.302 412.179 724.648 411.829 724.285 411.207C723.742 410.276 724.06 409.082 724.989 408.539C726.101 407.889 752.808 392.709 799.985 397.791C801.059 397.904 801.834 398.87 801.718 399.944C801.602 401.015 800.621 401.785 799.567 401.676C753.762 396.733 727.216 411.766 726.953 411.918C726.646 412.093 726.308 412.179 725.976 412.179Z" fill="#332C24"/>
<path d="M791.654 427.841C791.654 427.841 757.005 451.342 720.822 444.99C720.822 444.99 754.445 445.713 765.915 424.957L791.654 427.841Z" fill="#7C5937"/>
<path d="M777.223 368.842C777.223 368.842 758.894 362.799 736.765 368.276C736.765 368.276 747.712 367.241 759.094 375.638L777.223 368.842Z" fill="#7C5937"/>
<path d="M993.917 443.27C993.917 443.27 1028.28 441.201 1050.81 442.579C1073.34 443.955 1111.27 527.506 1120.92 536.261C1130.57 545.015 1150.44 556.584 1150.44 556.584C1150.44 556.584 1106.93 574.472 1080.9 562.589C1054.87 550.703 1010.24 501.124 1010.24 501.124L993.917 443.27Z" fill="#7C5937"/>
<path d="M1084.5 530.384C1083.74 530.384 1083.02 529.941 1082.71 529.206C1082.59 528.926 1070.18 501.056 1030.42 477.787C1029.49 477.242 1029.17 476.045 1029.72 475.114C1030.26 474.181 1031.46 473.87 1032.39 474.415C1073.34 498.386 1085.79 526.476 1086.29 527.659C1086.72 528.649 1086.26 529.798 1085.27 530.225C1085.02 530.334 1084.76 530.384 1084.5 530.384Z" fill="#332C24"/>
<path d="M1043 547.631C1043 547.631 1039.96 531.935 1029.06 520.779C1018.16 509.622 1040.66 520.152 1040.66 520.152C1040.66 520.152 1046.21 532.142 1043 547.631Z" fill="#7C5937"/>
<path d="M1137.69 534.724C1137.69 534.724 1117.51 530.773 1099.9 513.744L1098.13 502.369C1098.13 502.369 1120.41 528.155 1137.69 534.724Z" fill="#7C5937"/>
<path d="M778.331 594.912C778.331 594.912 763.912 633.875 743.55 646.324C743.55 646.324 763.274 643.37 774.97 625.244L778.331 594.912Z" fill="#7C5937"/>
<path d="M892.099 715.014C892.099 715.014 888.636 725.407 883.113 744.055C875.182 763.308 848.393 826.839 834.535 841.3C834.535 841.3 846.157 835.838 857.912 823.803C849.318 842.951 838.777 862.9 825.926 882.107C825.926 882.107 840.287 885.356 850.301 871.089C846.043 890.08 841.779 910.349 837.68 931.65C828.358 951.295 819.309 979.978 820.413 1016.11C820.413 1016.11 823.515 1002.16 829.603 987.113C822.409 1098.26 881.269 1153.06 881.269 1153.06C858.857 1073.52 888.098 996.26 888.098 996.26C884.094 1078.98 912.958 1088.91 912.958 1088.91C912.958 1088.91 894.056 1019.42 916.936 927.58C914.695 943.844 911.839 973.974 918.674 989.091C918.674 989.091 928.776 906.709 933.245 861.013L933.002 860.15C935.616 833.17 932.293 808.506 926.592 787.463C935.983 812.365 940.139 856.369 940.139 856.369C948.958 754.903 892.099 715.014 892.099 715.014Z" fill="#FFF6E7"/>
</svg>
