<?xml version="1.0" encoding="utf-8"?>
<!-- Generator: Adobe Illustrator 24.1.3, SVG Export Plug-In . SVG Version: 6.00 Build 0)  -->
<svg version="1.1" id="Layer_1" xmlns="http://www.w3.org/2000/svg" xmlns:xlink="http://www.w3.org/1999/xlink" x="0px" y="0px"
	 viewBox="0 0 3200 3600" style="enable-background:new 0 0 3200 3600;" xml:space="preserve">
<style type="text/css">
	.st0{fill:#AD263D;}
	.st1{fill:#FFFFFF;}
	.st2{fill:#614CD4;}
	.st3{fill:#311E69;}
	.st4{fill:#7F72F7;}
	.st5{fill:url(#SVGID_1_);}
	.st6{fill:#EDAEAE;}
	.st7{fill:#FFCBCA;}
	.st8{fill:#FFE1E1;}
	.st9{fill:#FFF5EB;}
	.st10{fill:#FFEDD9;}
	.st11{fill:#DD9E9E;}
</style>
<g>
	<g>
		<path class="st0" d="M1645.05,1255.24c-300.86,0-544.76,243.9-544.76,544.76s243.9,544.76,544.76,544.76
			s544.76-243.9,544.76-544.76S1945.91,1255.24,1645.05,1255.24z M1645.05,2212.38c-227.75,0-412.38-184.63-412.38-412.38
			s184.63-412.38,412.38-412.38c227.75,0,412.38,184.63,412.38,412.38S1872.8,2212.38,1645.05,2212.38z"/>
		<path class="st1" d="M1645.05,2212.38c-227.75,0-412.38-184.63-412.38-412.38s184.63-412.38,412.38-412.38
			c227.75,0,412.38,184.63,412.38,412.38S1872.8,2212.38,1645.05,2212.38z"/>
		<g>
			<polygon class="st1" points="1461.5,1384.09 1846.42,1384.09 1956.22,1598.09 1583.69,1598.09 			"/>
			<g>
				<g>
					<path class="st2" d="M1830.32,1506.98l-77.59-114.39l-58.08,38.12l0.03,0.04c-12.7,8.69-5.31,41.61,16.52,73.53
						c21.83,31.92,49.82,50.76,62.52,42.07L1830.32,1506.98z"/>
					<g>
						<path class="st3" d="M1773.72,1546.36l56.6-39.38l-38.68-57.03c-13.75,15.72-19.26,29.93-33.99,35.42
							c-10.99,4.09-28.79,13.56-43.4,23.24C1735.57,1537.88,1761.6,1554.64,1773.72,1546.36z"/>
					</g>
					<path class="st4" d="M1830.74,1506.69c-12.7,8.69-40.47-9.81-62.01-41.32c-21.54-31.51-28.71-64.09-16-72.78
						c12.7-8.69,40.47,9.81,62.01,41.32C1836.28,1465.42,1843.45,1498.01,1830.74,1506.69z"/>
				</g>
				
					<linearGradient id="SVGID_1_" gradientUnits="userSpaceOnUse" x1="601.9005" y1="374.673" x2="660.0242" y2="374.673" gradientTransform="matrix(0.5644 0.8255 -2.0158 1.3782 2184.209 389.7179)">
					<stop  offset="0" style="stop-color:#4D4D4D"/>
					<stop  offset="1" style="stop-color:#000000"/>
				</linearGradient>
				<path class="st5" d="M1759.29,1412.69c-0.4-4.16,10.08-11.34,13.78-9.44c7.39,3.8,16.66,9.65,23.73,17.74
					c13.85,15.85,18.41,20.32,11.84,25.03c-6.58,4.72-37.22-24.66-45.01-26.13C1760.81,1419.37,1759.64,1416.34,1759.29,1412.69z"/>
			</g>
			<polygon class="st6" points="1461.5,1384.09 1349.93,1598.09 1583.69,1598.09 			"/>
			<path class="st7" d="M1461.5,1384.09v-51.6c0-8.43,9.06-15.26,20.23-15.26h344.47c11.17,0,20.23,6.83,20.23,15.26v51.6H1461.5z"
				/>
			<rect x="1349.93" y="1598.09" class="st8" width="233.76" height="634.53"/>
			<rect x="1583.69" y="1598.09" class="st7" width="372.53" height="634.53"/>
			<rect x="1349.93" y="1740.61" class="st9" width="233.76" height="307.32"/>
			<rect x="1583.69" y="1740.61" class="st10" width="372.53" height="307.32"/>
			<g>
				<path class="st2" d="M1692.17,1842.67h28.29v112.97h-28.24v-60.02l-28.24,60.02l-28.25-60.02v60.02h-28.24v-112.97h28.3
					l28.19,59.91L1692.17,1842.67z"/>
				<path class="st2" d="M1734.59,1842.67h28.24v112.97h-28.24V1842.67z"/>
				<path class="st2" d="M1805.19,1930.93h35.3v24.71h-63.55v-112.97h28.24V1930.93z"/>
				<path class="st2" d="M1939.29,1955.64h-28.19l-28.24-45.9v45.9h-28.24v-112.97h28.24v46.6l28.24-46.6h28.4l-35.43,56.56
					L1939.29,1955.64z"/>
			</g>
			<polygon class="st11" points="1349.93,1598.09 1535.74,1514.12 1583.69,1598.09 			"/>
		</g>
		
			<rect x="1572.07" y="1294.57" transform="matrix(0.7071 0.7071 -0.7071 0.7071 1754.615 -636.0148)" class="st0" width="145.95" height="1010.85"/>
	</g>
</g>
</svg>
