<svg width="1777" height="1777" viewBox="0 0 1777 1777" fill="none" xmlns="http://www.w3.org/2000/svg">
<g clip-path="url(#clip0_3033_17089)">
<path d="M888.582 0.392578C398.097 0.392578 0.4729 398.017 0.4729 888.501C0.4729 1378.99 398.097 1776.61 888.582 1776.61C1379.07 1776.61 1776.69 1378.99 1776.69 888.501C1776.69 398.017 1379.07 0.392578 888.582 0.392578ZM888.582 1560.79C517.286 1560.79 216.289 1259.8 216.289 888.501C216.289 517.206 517.286 216.208 888.582 216.208C1259.88 216.208 1560.87 517.206 1560.87 888.501C1560.87 1259.8 1259.88 1560.79 888.582 1560.79Z" fill="#AD263D"/>
<path d="M888.582 1560.79C517.287 1560.79 216.289 1259.8 216.289 888.502C216.289 517.207 517.287 216.209 888.582 216.209C1259.88 216.209 1560.87 517.207 1560.87 888.502C1560.87 1259.8 1259.88 1560.79 888.582 1560.79Z" fill="white"/>
<path d="M589.345 210.453H1216.87L1395.87 559.332H788.548L589.345 210.453Z" fill="white"/>
<path d="M1190.62 410.796L1064.13 224.309L969.443 286.455L969.492 286.52C948.788 300.687 960.835 354.356 996.424 406.394C1032.01 458.433 1077.64 489.147 1098.35 474.98L1190.62 410.796Z" fill="#614CD4"/>
<path d="M1098.35 474.997L1190.62 410.797L1127.56 317.822C1105.15 343.45 1096.16 366.616 1072.15 375.567C1054.23 382.235 1025.22 397.673 1001.4 413.454C1036.15 461.172 1078.59 488.496 1098.35 474.997Z" fill="#311E69"/>
<path d="M1191.31 410.324C1170.6 424.491 1125.33 394.331 1090.21 342.961C1055.1 291.591 1043.41 238.476 1064.13 224.309C1084.83 210.142 1130.11 240.302 1165.22 291.672C1200.34 343.042 1212.03 396.173 1191.31 410.324Z" fill="#7F72F7"/>
<path d="M1074.82 257.077C1074.17 250.295 1091.26 238.59 1097.29 241.687C1109.34 247.882 1124.45 257.419 1135.98 270.608C1158.56 296.448 1165.99 303.736 1155.28 311.414C1144.55 319.109 1094.6 271.212 1081.9 268.815C1077.3 267.967 1075.39 263.027 1074.82 257.077Z" fill="url(#paint0_linear_3033_17089)"/>
<path d="M589.345 210.453L407.455 559.332H788.548L589.345 210.453Z" fill="#EDAEAE"/>
<path d="M589.345 210.453V126.331C589.345 112.588 604.115 101.453 622.325 101.453H1183.91C1202.12 101.453 1216.89 112.588 1216.89 126.331V210.453H589.345Z" fill="#FFCBCA"/>
<path d="M788.548 559.332H407.455V1593.79H788.548V559.332Z" fill="#FFE1E1"/>
<path d="M1395.87 559.332H788.548V1593.79H1395.87V559.332Z" fill="#FFCBCA"/>
<path d="M788.548 791.68H407.455V1292.7H788.548V791.68Z" fill="#FFF5EB"/>
<path d="M1395.87 791.68H788.548V1292.7H1395.87V791.68Z" fill="#FFEDD9"/>
<path d="M965.401 958.066H1011.52V1142.24H965.482V1044.39L919.443 1142.24L873.388 1044.39V1142.24H827.349V958.066H873.486L919.443 1055.74L965.401 958.066Z" fill="#614CD4"/>
<path d="M1034.56 958.066H1080.6V1142.24H1034.56V958.066Z" fill="#614CD4"/>
<path d="M1149.65 1101.95H1207.2V1142.24H1103.6V958.066H1149.64V1101.95H1149.65Z" fill="#614CD4"/>
<path d="M1368.27 1142.24H1322.32L1276.28 1067.41V1142.24H1230.24V958.066H1276.28V1034.04L1322.32 958.066H1368.62L1310.86 1050.27L1368.27 1142.24Z" fill="#614CD4"/>
<path d="M407.455 559.332L710.376 422.438L788.548 559.332H407.455Z" fill="#DD9E9E"/>
<path d="M1555.34 389.942L1387.1 221.695L221.821 1386.97L390.067 1555.22L1555.34 389.942Z" fill="#AD263D"/>
</g>
<defs>
<linearGradient id="paint0_linear_3033_17089" x1="1090.09" y1="241.216" x2="1143.57" y2="319.439" gradientUnits="userSpaceOnUse">
<stop stop-color="#4D4D4D"/>
<stop offset="1"/>
</linearGradient>
<clipPath id="clip0_3033_17089">
<rect width="1777" height="1777" fill="white"/>
</clipPath>
</defs>
</svg>
