<svg width="377" height="353" viewBox="0 0 377 353" fill="none" xmlns="http://www.w3.org/2000/svg">
<path d="M180.793 214.991C180.793 214.991 184.156 213.257 187.126 213.908C190.096 214.559 200.88 221.59 200.88 221.59L209.569 219.967L214.69 244.501L180.793 258.588V214.991Z" fill="#AE7461"/>
<path d="M155.717 223.545C155.717 223.545 163.482 222.564 166.295 221.158C169.108 219.752 175.815 213.802 177.221 213.91C178.627 214.018 183.712 214.992 183.712 214.992L181.656 221.158C181.656 221.158 191.825 227.324 194.854 229.596C197.883 231.868 207.403 242.037 207.836 244.525C208.269 247.013 207.511 249.934 206.321 250.908C205.131 251.882 200.804 249.934 200.804 249.934C200.804 249.934 201.453 252.206 199.83 254.369C198.207 256.533 194.421 255.775 194.421 255.775C194.421 255.775 194.097 259.345 192.365 259.994C190.634 260.643 186.74 258.696 186.74 258.696C186.74 258.696 185.565 261.725 184.151 262.05C182.737 262.375 178.734 259.995 178.734 259.995C178.734 259.995 161.425 247.554 157.53 245.715C153.635 243.876 152.445 243.768 152.445 243.768L155.717 223.545Z" fill="#FFBE9D"/>
<path d="M186.74 258.697C186.662 258.694 186.613 258.392 186.43 257.937C186.25 257.481 185.944 256.869 185.56 256.209C184.789 254.89 184.098 253.834 184.222 253.743C184.328 253.662 185.211 254.583 186.011 255.949C186.408 256.631 186.683 257.311 186.784 257.834C186.889 258.362 186.805 258.703 186.74 258.697Z" fill="#EB996E"/>
<path d="M193.933 256.593C193.792 256.666 192.946 255.112 191.751 253.325C190.568 251.524 189.3 250.321 189.391 250.209C189.473 250.089 190.962 251.176 192.183 253.033C193.409 254.87 194.048 256.538 193.933 256.593Z" fill="#EB996E"/>
<path d="M200.881 250.349C200.728 250.387 200.245 248.515 199.049 246.496C197.873 244.465 196.476 243.129 196.584 243.014C196.659 242.907 198.27 244.118 199.498 246.233C200.743 248.338 201.011 250.336 200.881 250.349Z" fill="#EB996E"/>
<path d="M195.811 236.847C195.947 236.818 196.319 238.106 196.389 239.747C196.465 241.388 196.208 242.704 196.07 242.687C195.922 242.672 195.943 241.367 195.868 239.77C195.801 238.173 195.665 236.875 195.811 236.847Z" fill="#EB996E"/>
<path d="M170.621 227.107C170.621 227.107 173.326 218.452 174.299 217.371C175.273 216.289 184.319 213.908 184.319 213.908L187.123 221.158L185.116 223.281L180.789 222.997C180.791 222.996 178.086 230.136 170.621 227.107Z" fill="#AE7461"/>
<path d="M154.022 244.221C154.022 244.221 152.785 245.173 154.022 247.445C155.259 249.717 158.613 248.094 159.695 247.445C159.695 247.445 158.072 251.231 160.128 252.421C162.183 253.611 164.672 253.287 164.672 253.287C164.672 253.287 164.564 255.559 167.485 257.073C170.406 258.587 171.163 257.073 171.163 257.073C171.163 257.073 171.488 260.859 174.841 261.184C178.195 261.508 179.375 260.356 179.375 260.356L177.87 258.12C177.87 258.12 179.817 254.151 178.303 252.421C176.788 250.69 174.3 250.907 174.3 250.907C174.3 250.907 174.962 247.392 173.033 246.413C169.448 244.594 167.917 247.987 167.917 247.987C167.917 247.987 167.701 244.135 164.888 244.222C162.075 244.309 160.561 246.04 160.561 246.04L154.022 244.221Z" fill="#AE7461"/>
<path d="M167.917 247.987C168.044 248.05 167.514 249.368 166.628 250.872C165.744 252.378 164.848 253.481 164.732 253.401C164.611 253.319 165.306 252.097 166.18 250.608C167.055 249.12 167.786 247.921 167.917 247.987Z" fill="#6F4439"/>
<path d="M174.372 251.394C174.497 251.453 173.946 252.86 172.897 254.387C171.853 255.919 170.742 256.943 170.642 256.847C170.532 256.746 171.448 255.589 172.467 254.093C173.492 252.602 174.238 251.328 174.372 251.394Z" fill="#6F4439"/>
<path d="M107.365 292.219H90.9549L86.7539 351.893H103.207C106.007 342.804 113.009 295.444 113.009 295.444L107.365 292.219Z" fill="#263238"/>
<path d="M14.4242 292.219C14.4242 292.219 3.92223 316.846 4.97223 326.814C6.02223 336.782 11.9202 351.893 11.9202 351.893H93.1952C93.1952 351.893 95.4632 343.567 97.2142 331.254C98.9642 318.94 103.69 292.219 103.69 292.219H14.4242Z" fill="#263238"/>
<path d="M121.827 54.5531C119.082 51.0891 115.689 47.7531 114.987 43.3901C114.34 39.3781 116.095 34.9851 114.296 31.3421C112.083 26.8591 105.721 25.9831 102.962 21.8141C101.626 19.7951 101.309 17.2371 99.9909 15.2071C97.7439 11.7471 93.1309 10.6331 89.0129 10.8701C84.8939 11.1071 80.8759 12.3871 76.7519 12.4731C71.0939 12.5921 65.3639 10.4691 59.8689 11.8241C53.8059 13.3191 49.8939 18.4291 45.7579 23.3581L40.4009 29.0471C39.3029 30.0121 38.1479 30.8931 36.8909 31.6221C34.6919 32.8971 32.2059 33.7301 30.2879 35.3981C26.1839 38.9671 26.1609 46.2171 30.2429 49.8121C25.8329 50.9861 22.4969 55.3681 22.5379 59.9311C22.5609 62.4421 23.4859 64.8411 24.1189 67.2701C24.7529 69.6991 25.0749 72.3851 23.9639 74.6361C22.8519 76.8871 19.8359 78.3211 17.7109 76.9831C18.3249 80.2661 20.5099 83.2181 23.4709 84.7621C22.2359 85.9151 20.5479 86.5691 18.8579 86.5501C22.9139 97.5131 35.0869 103.758 46.7589 104.377C58.4319 104.996 69.8189 101.102 80.8589 97.2601L112.686 90.5841C115.476 90.0831 116.785 86.7831 116.88 83.9491C116.974 81.1151 116.397 78.1351 117.534 75.5371C119.092 71.9761 123.4 70.2511 125.022 66.7181C126.866 62.7021 124.571 58.0171 121.827 54.5531Z" fill="#263238"/>
<path d="M46.0844 79.7012C44.1444 72.4892 42.2353 65.2252 41.5653 57.7872C40.8953 50.3492 41.5154 42.6632 44.4744 35.8062C44.9234 34.7672 48.6473 27.8292 49.7663 27.9982C50.5663 28.1192 48.1563 34.6452 48.5263 35.3642C52.0643 42.2292 52.7063 50.2991 51.6903 57.9541C50.6753 65.6091 48.7194 72.4422 46.0844 79.7012Z" fill="#263238"/>
<path d="M46.8144 51.2062C47.1704 32.4792 58.3654 17.0772 77.0754 17.9512L78.8004 18.1322C96.1534 19.9622 109.198 34.8052 108.77 52.2492C108.372 68.4792 107.723 86.4062 106.706 95.0292C104.601 112.879 86.4315 113.774 86.4315 113.774C86.3915 113.772 85.9424 143.26 85.9424 143.26L43.3984 113.781L46.8144 51.2062Z" fill="#FFBE9D"/>
<path d="M86.4337 113.775C86.4337 113.775 75.0977 113.248 63.8867 104.442C63.8867 104.442 68.0757 119.548 86.0807 119.819L86.4337 113.775Z" fill="#EB996E"/>
<path d="M102.58 66.1011C102.486 67.4541 101.262 68.4901 99.847 68.4171C98.435 68.3441 97.364 67.1911 97.459 65.8381C97.553 64.4851 98.777 63.4481 100.189 63.5201C101.603 63.5931 102.674 64.7491 102.58 66.1011Z" fill="#263238"/>
<path d="M104.171 59.2651C103.82 59.5641 102.037 57.9292 99.2895 57.6472C96.5495 57.3262 94.3845 58.5262 94.1225 58.1582C93.9915 57.9942 94.3775 57.4272 95.3225 56.8802C96.2535 56.3352 97.7925 55.8712 99.5025 56.0592C101.212 56.2492 102.585 57.0301 103.344 57.7621C104.119 58.5001 104.342 59.1321 104.171 59.2651Z" fill="#263238"/>
<path d="M77.7206 66.1012C77.6266 67.4542 76.4026 68.4902 74.9876 68.4172C73.5756 68.3442 72.5046 67.1922 72.5996 65.8382C72.6946 64.4862 73.9176 63.4482 75.3306 63.5212C76.7446 63.5932 77.8146 64.7492 77.7206 66.1012Z" fill="#263238"/>
<path d="M77.1499 57.5402C76.7979 57.8392 75.0119 56.2042 72.2669 55.9222C69.5269 55.6012 67.3619 56.8012 67.0989 56.4332C66.9689 56.2692 67.3509 55.7022 68.2999 55.1562C69.2309 54.6102 70.7699 54.1472 72.4799 54.3342C74.1899 54.5242 75.5619 55.3062 76.3219 56.0372C77.0959 56.7762 77.3199 57.4082 77.1499 57.5402Z" fill="#263238"/>
<path d="M84.7774 79.684C84.7814 79.527 86.5193 79.411 89.3233 79.349C90.0323 79.351 90.7113 79.281 90.8793 78.815C91.0983 78.326 90.8844 77.539 90.6304 76.687C90.1494 74.92 89.6474 73.069 89.1194 71.128C87.0404 63.221 85.6144 56.749 85.9334 56.667C86.2534 56.586 88.1973 62.93 90.2753 70.838C90.7713 72.787 91.2454 74.643 91.6964 76.42C91.8774 77.245 92.2384 78.197 91.7704 79.211C91.5264 79.715 90.9714 80.041 90.5094 80.115C90.0454 80.205 89.6504 80.171 89.3004 80.155C86.4994 80.011 84.7714 79.842 84.7774 79.684Z" fill="#263238"/>
<path d="M76.4904 80.732C76.9404 80.753 76.6314 83.735 78.9604 86.12C81.2834 88.511 84.4974 88.511 84.4764 88.931C84.4984 89.122 83.7074 89.436 82.3624 89.331C81.0414 89.237 79.1644 88.612 77.7394 87.153C76.3194 85.691 75.8334 83.889 75.8604 82.655C75.8784 81.397 76.2884 80.693 76.4904 80.732Z" fill="#263238"/>
<path d="M78.1729 46.3781C77.8229 47.0971 75.1179 46.4531 71.8549 46.5021C68.5909 46.4851 65.8919 47.1541 65.5349 46.4401C65.3779 46.0991 65.9059 45.4451 67.0319 44.8321C68.1489 44.2201 69.8829 43.7091 71.8409 43.6971C73.7979 43.6901 75.5369 44.1831 76.6599 44.7841C77.7929 45.3871 78.3269 46.0361 78.1729 46.3781Z" fill="#263238"/>
<path d="M103.998 50.015C103.449 50.588 101.625 49.741 99.353 49.47C97.091 49.12 95.107 49.447 94.732 48.747C94.571 48.41 94.94 47.817 95.844 47.315C96.735 46.814 98.175 46.48 99.733 46.692C101.291 46.906 102.586 47.614 103.311 48.337C104.047 49.063 104.243 49.733 103.998 50.015Z" fill="#263238"/>
<path d="M46.8811 64.5951C46.5901 64.4311 34.9831 59.6681 34.0851 71.9291C33.1881 84.1891 45.6821 82.5621 45.7291 82.2121C45.7751 81.8611 46.8811 64.5951 46.8811 64.5951Z" fill="#FFBE9D"/>
<path d="M42.3245 77.2921C42.2735 77.2491 42.0995 77.4251 41.7265 77.5651C41.3625 77.7001 40.7485 77.7671 40.1275 77.4811C38.8665 76.9111 37.9265 74.7751 38.0285 72.5601C38.0795 71.4421 38.3905 70.3971 38.8505 69.5461C39.2905 68.6771 39.9165 68.0921 40.5775 68.0241C41.2375 67.9221 41.6705 68.3461 41.7955 68.7021C41.9345 69.0571 41.8385 69.2961 41.9025 69.3221C41.9345 69.3561 42.1805 69.1361 42.1195 68.6221C42.0865 68.3751 41.9635 68.0751 41.6935 67.8181C41.4165 67.5581 40.9925 67.4031 40.5355 67.4191C39.5855 67.4151 38.6705 68.2221 38.1655 69.1561C37.6075 70.0911 37.2315 71.2641 37.1745 72.5201C37.0725 74.9961 38.1675 77.4011 39.9025 78.0431C40.7485 78.3311 41.4865 78.1241 41.8795 77.8621C42.2815 77.5871 42.3655 77.3181 42.3245 77.2921Z" fill="#EB996E"/>
<path d="M102.144 31.4151C104.2 30.4481 98.6553 23.6341 93.9193 21.1061C86.7603 17.2861 75.6323 14.5011 68.7083 15.9911C60.3733 17.7851 53.3092 21.4211 48.7202 28.6071C44.1302 35.7931 42.0272 44.3751 41.7182 52.8951C41.6242 55.4951 41.7192 58.2181 42.9642 60.5021C44.5032 63.3251 47.6812 65.2451 47.2962 68.9771C47.1552 70.3411 47.4572 71.7471 48.3302 72.8041C50.4202 75.3371 53.3112 73.2701 54.7182 71.1011C57.7242 66.4691 58.3943 60.7521 58.9853 55.2621C59.4063 51.3601 59.8213 47.3741 58.9603 43.5451C58.4923 41.4621 57.6523 39.4681 57.2993 37.3611C56.9463 35.2541 57.1613 32.9041 58.5623 31.2931C58.7903 31.0311 59.1593 30.7061 59.6233 30.3491C63.2933 27.5271 68.2153 26.9291 72.4723 28.7501C79.2233 31.6391 90.7862 36.0481 94.0182 33.9021C98.6682 30.8141 99.8702 28.6831 99.8702 28.6831L102.144 31.4151Z" fill="#263238"/>
<path d="M69.4545 14.3681C76.3405 12.5471 84.0085 13.1601 90.1075 16.8391C93.3445 18.7921 96.1915 21.7641 96.9795 25.4621C97.7675 29.1601 95.9285 33.5301 92.3425 34.7281L92.0925 34.8641C86.7455 36.2891 83.3885 35.3691 78.2855 33.2271C73.9925 31.4241 70.2615 28.4631 65.9595 26.6811C61.3865 24.7871 56.2395 24.3051 51.3945 25.3171C56.4295 20.2801 62.5685 16.1881 69.4545 14.3681Z" fill="#263238"/>
<path d="M72.5588 12.2382C72.5638 12.2052 73.0077 12.2412 73.8067 12.3622C74.5997 12.5112 75.7477 12.7612 77.1087 13.2612C78.4677 13.7592 80.0358 14.5112 81.6268 15.5902C83.2118 16.6642 84.8358 18.0752 86.1278 19.9002C87.4318 21.7302 88.1427 23.7682 88.6047 25.6212C89.0587 27.4852 89.2577 29.2012 89.3587 30.6392C89.4607 32.0782 89.4637 33.2452 89.4487 34.0492C89.4327 34.8542 89.3928 35.2982 89.3598 35.2982C89.3218 35.2982 89.2927 34.8542 89.2457 34.0532C89.1987 33.2522 89.1387 32.0942 88.9917 30.6712C88.8447 29.2502 88.6097 27.5612 88.1387 25.7392C87.6617 23.9282 86.9527 21.9532 85.7017 20.2012C84.4577 18.4432 82.8877 17.0562 81.3527 15.9862C79.8137 14.9112 78.2937 14.1392 76.9737 13.6052C74.3237 12.5452 72.5388 12.3382 72.5588 12.2382Z" fill="#455A64"/>
<path d="M83.8479 11.5571C83.8589 11.5231 84.2329 11.6281 84.9069 11.8501C85.2369 11.9771 85.6719 12.0661 86.1179 12.3031C86.5879 12.5411 87.0989 12.8001 87.6509 13.0801C89.8339 14.3571 92.5289 16.9231 94.0109 20.5601C94.4159 21.4511 94.6559 22.3741 94.9129 23.2571C95.0809 24.1611 95.2749 25.0281 95.3129 25.8741C95.4219 26.7131 95.3589 27.5191 95.3599 28.2681C95.2669 29.0121 95.2379 29.7151 95.0789 30.3341C94.9329 30.9561 94.8239 31.5221 94.6239 31.9911C94.4429 32.4641 94.3219 32.8831 94.1309 33.1891C93.7939 33.8171 93.5939 34.1511 93.5629 34.1341C93.4559 34.0841 94.3029 32.7321 94.7169 30.2681C94.8499 29.6611 94.8559 28.9721 94.9289 28.2481C94.9079 27.5171 94.9549 26.7341 94.8349 25.9191C94.7859 25.0971 94.5849 24.2561 94.4169 23.3791C94.1599 22.5231 93.9239 21.6271 93.5309 20.7631C92.0919 17.2361 89.5389 14.7251 87.4569 13.3941C86.9289 13.0961 86.4409 12.8201 85.9919 12.5671C85.5659 12.3091 85.1489 12.1941 84.8339 12.0401C84.1909 11.7631 83.8369 11.5921 83.8479 11.5571Z" fill="#455A64"/>
<path d="M91.8446 140.299C91.8446 141.982 100.279 179.025 103.507 188.124C106.735 197.223 116.957 288.469 115.612 294.968C114.267 301.467 110.77 301.207 110.77 301.207C110.77 301.207 28.1866 296.008 19.3096 296.788C10.4326 297.568 6.66655 297.308 4.51455 287.169C2.36255 277.03 4.57855 224.338 2.69555 211.6C0.812554 198.862 0.796556 192.687 0.0685556 173.762C-0.562444 157.36 3.16955 144.203 10.9705 134.708C18.7715 125.213 36.0395 115.612 36.0395 115.612L42.1645 106.679L85.5095 129.604L86.5006 124.386L89.1305 132.509L91.8446 140.299Z" fill="#455A64"/>
<g opacity="0.3">
<path d="M110.477 253.203C109.755 251.363 107.414 250.9 105.449 250.682C87.0839 248.645 67.9668 244.061 54.5538 231.352C49.3058 226.38 45.1678 220.372 41.1798 214.343C32.4628 201.162 24.2679 187.645 16.0759 174.132L9.71484 176.538C13.6168 195.618 17.4568 209.432 23.8098 225.071C30.1708 240.728 35.0978 255.884 51.2018 261.007C61.6118 264.318 81.3819 261.78 92.2729 260.927C96.8199 260.571 101.398 260.131 105.764 258.813C107.084 258.415 108.421 257.912 109.415 256.956C110.409 256 110.98 254.486 110.477 253.203Z" fill="black"/>
</g>
<path d="M7.4752 171.55C7.9502 172.396 44.7032 250.893 61.1122 254.121C77.5212 257.349 128.518 258.103 138.471 256.22C148.424 254.337 158.162 252.584 158.162 252.584C158.162 252.584 165.368 235.466 158.79 220.882L145.092 221.315C145.092 221.315 107.004 219.261 101.624 217.789C96.2442 216.318 91.5962 211.272 86.7542 211.541L57.7792 144.111C57.7792 144.111 38.9492 126.626 25.4992 132.006C12.0482 137.387 3.5342 164.539 7.4752 171.55Z" fill="#455A64"/>
<path d="M146.146 255.305C146.112 255.294 146.211 254.824 146.418 253.986C146.635 253.151 146.906 251.929 147.191 250.415C147.484 248.902 147.736 247.082 147.918 245.055C148.076 243.025 148.15 240.786 148.061 238.439C147.858 233.739 147.022 229.542 146.197 226.574C145.787 225.089 145.416 223.894 145.131 223.079C144.855 222.26 144.718 221.8 144.751 221.787C144.784 221.773 144.985 222.208 145.321 223.009C145.666 223.805 146.092 224.988 146.551 226.472C147.473 229.435 148.377 233.668 148.582 238.418C148.672 240.79 148.583 243.053 148.397 245.099C148.187 247.144 147.894 248.974 147.553 250.489C147.219 252.005 146.892 253.22 146.614 254.042C146.345 254.866 146.18 255.316 146.146 255.305Z" fill="#263238"/>
<path d="M57.7767 144.112C57.7767 144.112 57.9717 144.514 58.3237 145.307C58.6777 146.114 59.1947 147.292 59.8697 148.83C61.2197 151.939 63.1977 156.494 65.7317 162.33C70.7867 174.04 78.0566 190.881 86.9406 211.46L86.7407 211.336C89.0287 211.229 91.1776 212.224 93.1646 213.303C95.1636 214.405 97.0997 215.686 99.2237 216.656C101.322 217.722 103.704 217.969 106.117 218.26C108.53 218.546 110.993 218.757 113.49 218.974C123.485 219.8 134.076 220.451 145.104 221.066H145.083C149.391 220.928 154.052 220.779 158.781 220.628L158.953 220.623L159.021 220.778C161.134 225.614 162.019 231.053 161.764 236.499C161.53 241.95 160.414 247.435 158.401 252.685L158.352 252.813L158.207 252.84C155.448 253.35 152.481 253.897 149.498 254.449C146.3 255.039 143.122 255.626 139.964 256.209C136.802 256.825 133.578 257.062 130.42 257.192C124.083 257.481 117.838 257.505 111.703 257.473C105.568 257.439 99.5416 257.297 93.6436 257.078C87.7456 256.87 81.9746 256.564 76.3506 256.135C73.5386 255.934 70.7657 255.663 68.0327 255.364C65.2997 255.003 62.6167 254.76 59.9777 254.026C58.6907 253.546 57.5497 252.81 56.4897 252.013C55.4267 251.215 54.4537 250.328 53.5267 249.415C51.6697 247.59 50.0087 245.641 48.4407 243.68C42.2267 235.782 37.3557 227.779 33.0017 220.455C24.3867 205.735 18.1687 193.407 13.8997 184.886C11.7767 180.618 10.1697 177.284 9.09065 175.018C8.01265 172.752 7.47266 171.549 7.47266 171.549C7.47266 171.549 7.63566 171.836 7.92166 172.412C8.21166 173 8.63366 173.855 9.18466 174.972C10.3097 177.229 11.9587 180.537 14.0807 184.794C18.4037 193.285 24.6707 205.584 33.3187 220.267C37.6877 227.57 42.5747 235.555 48.7777 243.409C50.3417 245.358 51.9977 247.293 53.8387 249.096C54.7567 249.998 55.7197 250.872 56.7617 251.652C57.8007 252.431 58.9137 253.143 60.1337 253.595C62.6327 254.286 65.3847 254.548 68.0857 254.897C70.8107 255.191 73.5787 255.458 76.3867 255.655C82.0017 256.077 87.7676 256.377 93.6606 256.58C99.5536 256.793 105.575 256.931 111.705 256.961C117.834 256.989 124.075 256.962 130.394 256.672C133.561 256.539 136.721 256.308 139.867 255.696C143.025 255.113 146.205 254.525 149.403 253.935C152.387 253.384 155.355 252.836 158.115 252.327L157.921 252.482C159.9 247.321 161.017 241.857 161.247 236.477C161.502 231.092 160.627 225.737 158.557 220.985L158.797 221.134C154.068 221.282 149.407 221.427 145.099 221.562H145.088L145.078 221.561C134.045 220.937 123.455 220.274 113.451 219.432C110.951 219.211 108.486 218.996 106.064 218.705C104.852 218.567 103.653 218.411 102.461 218.185C101.253 218.003 100.123 217.533 99.0406 217.052C96.8756 216.058 94.9366 214.767 92.9586 213.672C90.9946 212.597 88.9087 211.645 86.7637 211.743L86.6187 211.75L86.5627 211.619C77.7477 191.011 70.5336 174.145 65.5186 162.418C63.0286 156.563 61.0857 151.993 59.7587 148.874C59.1077 147.326 58.6087 146.14 58.2677 145.328C57.9337 144.53 57.7767 144.112 57.7767 144.112Z" fill="#263238"/>
<path d="M53.9401 138.818C53.9051 138.85 53.4281 138.345 52.5141 137.498C51.6031 136.648 50.2011 135.5 48.3101 134.328C46.4241 133.153 44.0071 132.015 41.1751 131.239C38.3491 130.459 35.0961 130.095 31.7271 130.411C28.3611 130.767 25.2441 131.768 22.6281 133.093C20.0051 134.415 17.8611 136.009 16.2451 137.534C14.6241 139.056 13.4761 140.459 12.7521 141.473C12.0231 142.485 11.6561 143.073 11.6151 143.049C11.6001 143.04 11.6761 142.884 11.8371 142.596C12.0071 142.313 12.2231 141.872 12.5851 141.358C13.2641 140.301 14.3801 138.846 15.9911 137.268C17.5971 135.688 19.7521 134.035 22.4101 132.666C25.0611 131.294 28.2371 130.257 31.6751 129.894C35.1161 129.57 38.4341 129.958 41.3031 130.777C44.1791 131.593 46.6191 132.786 48.5061 134.017C50.3981 135.245 51.7791 136.45 52.6541 137.352C53.1101 137.784 53.4101 138.175 53.6321 138.418C53.8471 138.669 53.9531 138.806 53.9401 138.818Z" fill="#263238"/>
<path d="M86.644 211.6C86.779 211.65 85.949 214.2 84.79 217.294C83.631 220.389 82.583 222.857 82.448 222.806C82.313 222.756 83.143 220.206 84.302 217.111C85.461 214.018 86.509 211.55 86.644 211.6Z" fill="#263238"/>
<path d="M153.217 224.53C153.217 224.501 153.358 224.461 153.595 224.546C153.83 224.628 154.132 224.868 154.332 225.267C154.521 225.644 154.656 226.27 154.295 226.825C153.955 227.339 153.309 227.733 152.556 227.628C151.79 227.485 151.343 226.821 151.246 226.231C151.141 225.613 151.397 225.051 151.746 224.754C152.103 224.444 152.5 224.412 152.731 224.432C152.971 224.455 153.089 224.518 153.084 224.55C153.101 224.65 152.501 224.514 152.002 225.019C151.772 225.269 151.617 225.702 151.718 226.14C151.808 226.576 152.168 227.036 152.644 227.115C153.123 227.193 153.648 226.912 153.897 226.558C154.16 226.21 154.113 225.75 153.995 225.413C153.737 224.697 153.197 224.597 153.217 224.53Z" fill="#263238"/>
<path d="M86.5449 132.214C86.5329 132.234 86.1909 132.056 85.5579 131.703C84.8769 131.314 83.963 130.792 82.823 130.14L83.0149 130.056C82.4749 132.789 81.951 136.811 81.034 141.631L80.973 141.951L80.694 141.775C76.67 139.239 71.8419 136.34 66.6909 133.227C62.8509 130.928 59.2609 128.607 55.9539 126.602C52.6299 124.613 49.5929 122.891 47.0359 121.457C44.5149 120.055 42.4559 118.909 40.9669 118.081C40.2899 117.7 39.7439 117.393 39.3209 117.155C38.9469 116.939 38.754 116.819 38.762 116.803C38.77 116.787 38.9789 116.876 39.3699 117.062C39.8049 117.278 40.367 117.556 41.063 117.902C42.526 118.645 44.632 119.741 47.214 121.134C49.796 122.528 52.8539 124.219 56.1999 126.189C59.5129 128.219 63.146 130.444 66.961 132.781C72.109 135.893 76.93 138.818 80.934 141.395L80.594 141.539C81.552 136.756 82.143 132.73 82.762 130.003L82.8029 129.824L82.955 129.919C84.069 130.614 84.9619 131.171 85.6269 131.587C86.2379 131.977 86.5569 132.194 86.5449 132.214Z" fill="#263238"/>
<g opacity="0.3">
<path d="M44.8555 120.04C52.3955 125.658 59.9355 131.276 67.4745 136.894C72.4515 140.602 77.5475 144.373 83.4565 146.27C83.3475 141.03 83.2385 135.79 83.1295 130.551L80.8145 141.585L44.8555 120.04Z" fill="black"/>
</g>
<path d="M277.779 41.3051C273.841 41.8321 269.737 39.0111 268.818 35.1461C267.898 31.2811 270.292 26.9151 274.044 25.6111C271.541 23.1431 270.846 19.0301 272.4 15.8771C273.954 12.7241 277.639 10.7691 281.121 11.2511C281.198 7.78106 283.206 4.41707 286.223 2.70107C289.24 0.986065 293.158 0.981064 296.179 2.68906C299.947 -0.670936 306.124 -0.913939 310.145 2.13906C313.503 1.45106 317.212 3.17506 318.852 6.18406C320.492 9.19306 319.93 13.2451 317.533 15.6941" fill="#263238"/>
<path d="M276.624 42.465C277.7 24.57 292.339 10.505 310.262 10.141L312.043 10.105C331.269 10.836 341.389 27.572 340.127 46.771L341.27 115.266L294.552 132.036L294.144 107.369C294.144 107.369 275.625 104.875 275.021 86.422C274.729 77.509 275.622 59.108 276.624 42.465Z" fill="#AE7461"/>
<path d="M293.992 107.344C293.992 107.344 305.793 107.813 318.033 99.7729C318.033 99.7729 312.615 113.172 294.164 111.885L293.992 107.344Z" fill="#6F4439"/>
<path d="M281.809 59.154C281.788 60.547 282.95 61.713 284.405 61.762C285.857 61.81 287.053 60.723 287.074 59.33C287.095 57.937 285.933 56.769 284.481 56.72C283.026 56.672 281.83 57.761 281.809 59.154Z" fill="#263238"/>
<path d="M280.775 51.414C281.109 51.751 283.075 50.232 285.912 50.182C288.745 50.091 290.856 51.508 291.156 51.155C291.304 50.998 290.959 50.384 290.039 49.743C289.133 49.104 287.599 48.496 285.831 48.539C284.065 48.585 282.592 49.266 281.751 49.949C280.893 50.636 280.611 51.264 280.775 51.414Z" fill="#263238"/>
<path d="M307.653 59.1541C307.632 60.5471 308.795 61.7131 310.249 61.7611C311.701 61.8101 312.897 60.7231 312.918 59.3291C312.939 57.9371 311.776 56.7691 310.324 56.7201C308.87 56.6711 307.673 57.7611 307.653 59.1541Z" fill="#263238"/>
<path d="M308.665 51.375C308.999 51.712 310.968 50.194 313.803 50.144C316.635 50.053 318.747 51.47 319.047 51.116C319.195 50.959 318.853 50.346 317.929 49.704C317.024 49.065 315.489 48.457 313.722 48.5C311.956 48.546 310.482 49.227 309.641 49.91C308.786 50.597 308.501 51.225 308.665 51.375Z" fill="#263238"/>
<path d="M298.8 72.6209C298.81 72.4589 297.041 72.1899 294.177 71.8829C293.451 71.8229 292.763 71.6929 292.631 71.2009C292.45 70.6809 292.737 69.8949 293.071 69.0439C293.716 67.2779 294.391 65.4259 295.1 63.4849C297.915 55.5719 299.936 49.0719 299.617 48.9609C299.297 48.8509 296.757 55.1749 293.942 63.0879C293.265 65.0389 292.618 66.8989 292.003 68.6779C291.746 69.5069 291.293 70.4499 291.685 71.5279C291.891 72.0649 292.431 72.4479 292.897 72.5629C293.364 72.6949 293.772 72.6949 294.13 72.7089C297.009 72.8049 298.792 72.7809 298.8 72.6209Z" fill="#263238"/>
<path d="M307.608 41.7379C307.997 42.4489 310.411 41.6199 313.403 41.4629C316.39 41.2379 318.923 41.7499 319.182 40.9969C319.293 40.6389 318.748 40.0039 317.658 39.4499C316.577 38.8959 314.941 38.4839 313.148 38.5969C311.357 38.7139 309.812 39.3289 308.841 40.0149C307.861 40.6999 307.434 41.3979 307.608 41.7379Z" fill="#263238"/>
<path d="M280.226 41.3811C280.837 42.0131 283.164 41.2961 285.979 41.2081C288.79 41.0371 291.187 41.5351 291.721 40.8501C291.955 40.5181 291.567 39.8801 290.513 39.2921C289.475 38.7051 287.747 38.2431 285.814 38.3321C283.881 38.4231 282.216 39.0411 281.25 39.7201C280.269 40.4021 279.955 41.0721 280.226 41.3811Z" fill="#263238"/>
<path d="M278.226 33.964C278.226 33.964 282.859 22.306 288.378 19.495C295.059 16.092 298.115 23.439 304.508 21.511C310.902 19.583 317.279 16.318 323.952 21.155C331.256 26.449 327.963 30.335 328.574 38.516C331.052 71.682 337.306 80.948 338.713 65.274C338.867 63.557 343.594 62.097 344.152 54.844C344.875 45.438 345.003 34.033 342.773 27.414C340.892 21.835 337.612 18.021 331.784 13.861C322.584 7.29399 310.133 7.40299 301.697 8.42499C293.262 9.44699 277.161 19.506 278.226 33.964Z" fill="#263238"/>
<path d="M337.525 64.7951C337.583 61.9441 339.992 59.6451 342.836 59.8571C346.285 60.1141 350.155 61.9911 350.073 69.1091C349.927 81.7361 337.28 78.9851 337.262 78.6221C337.251 78.3761 337.417 70.0781 337.525 64.7951Z" fill="#AE7461"/>
<path d="M340.067 73.9031C340.123 73.8641 340.286 74.0601 340.655 74.2341C341.015 74.4041 341.637 74.5261 342.299 74.2871C343.639 73.8131 344.786 71.7081 344.874 69.4331C344.919 68.2851 344.691 67.1881 344.294 66.2771C343.919 65.3491 343.33 64.6971 342.659 64.5701C341.992 64.4071 341.512 64.8041 341.354 65.1581C341.181 65.5091 341.258 65.7621 341.191 65.7831C341.155 65.8141 340.923 65.5681 341.03 65.0481C341.085 64.7981 341.237 64.5021 341.536 64.2631C341.842 64.0201 342.289 63.8991 342.756 63.9561C343.729 64.0341 344.595 64.9401 345.031 65.9401C345.521 66.9451 345.804 68.1781 345.753 69.4681C345.642 72.0121 344.313 74.3781 342.481 74.8841C341.59 75.1051 340.852 74.8291 340.473 74.5271C340.086 74.2081 340.023 73.9251 340.067 73.9031Z" fill="#6F4439"/>
<path d="M336.784 40.3511C335.168 41.5031 333.46 42.6921 331.489 42.9281C329.518 43.1641 327.237 42.0761 326.864 40.1261C326.697 39.2511 326.89 38.2271 326.299 37.5601C325.593 36.7641 324.327 37.0441 323.272 37.1771C319.611 37.6411 315.801 35.1221 314.794 31.5721C313.887 32.9921 311.702 32.9761 310.267 32.0921C308.832 31.2081 307.89 29.7331 306.756 28.4861C305.622 27.2401 304.044 26.1361 302.38 26.4071C301.45 26.5581 300.588 27.1321 299.648 27.0681C297.988 26.9541 297.139 25.0311 296.855 23.3911C296.571 21.7511 296.337 19.8361 294.915 18.9711C293.598 18.1691 291.922 18.6821 290.401 18.9381C288.88 19.1941 286.903 18.8761 286.482 17.3921C286.261 16.6141 286.58 15.7841 287 15.0921C288.902 11.9591 293.159 10.4971 296.584 11.8021C297.734 7.60709 301.567 4.28308 305.883 3.73908C310.199 3.19408 314.738 5.46308 316.893 9.24108C319.511 6.76708 323.365 5.67208 326.893 6.40208C330.42 7.13108 333.525 9.66408 334.947 12.9741C338 12.1041 341.523 13.2201 343.519 15.6891C345.514 18.1581 345.867 21.8371 344.376 24.6401C346.671 25.8901 348.658 28.1041 348.759 30.7151C348.859 33.3261 346.368 35.9801 343.833 35.3441C344.893 37.3571 344.12 40.1341 342.173 41.3101C340.226 42.4861 337.408 41.8781 336.12 40.0041" fill="#263238"/>
<path d="M295.725 15.534C295.715 15.535 295.717 15.613 295.733 15.765C295.753 15.916 295.767 16.145 295.827 16.437C295.955 17.017 296.207 17.875 296.793 18.85C297.382 19.809 298.288 20.913 299.652 21.776C300.988 22.65 302.811 23.298 304.851 23.145L304.631 22.87C304.261 23.957 304.395 25.25 304.955 26.349C305.487 27.467 306.309 28.451 307.178 29.408C307.622 29.867 308.01 30.41 308.62 30.827C309.212 31.228 309.916 31.453 310.635 31.528C312.062 31.681 313.659 31.208 314.667 29.99L314.192 29.865C314.564 32.367 316.042 34.848 318.34 36.332C319.557 37.175 321.052 37.674 322.511 37.605C323.972 37.561 325.32 37.105 326.576 36.626L326.236 36.484C326.946 38.039 328.016 39.356 329.302 40.318C330.564 41.279 332.232 41.824 333.723 41.425C336.689 40.734 338.614 38.217 338.964 35.876L338.681 36.015C340.175 36.79 341.763 36.835 343.03 36.564C344.315 36.302 345.316 35.721 346.027 35.154C346.74 34.576 347.156 33.989 347.406 33.583C347.634 33.162 347.727 32.93 347.713 32.924C347.648 32.873 347.314 33.892 345.897 34.987C345.189 35.51 344.209 36.042 342.972 36.264C341.752 36.498 340.247 36.42 338.867 35.676L338.628 35.547L338.584 35.815C338.228 37.999 336.372 40.349 333.622 40.958C332.271 41.304 330.805 40.816 329.609 39.907C328.407 38.999 327.387 37.73 326.728 36.268L326.624 36.036L326.388 36.126C325.151 36.594 323.849 37.022 322.499 37.059C321.149 37.116 319.807 36.671 318.647 35.873C316.476 34.469 315.089 32.148 314.725 29.779L314.634 29.184L314.25 29.654C313.4 30.696 311.971 31.146 310.689 31.011C310.045 30.947 309.42 30.75 308.903 30.404C308.399 30.073 307.994 29.537 307.544 29.074C306.677 28.134 305.878 27.187 305.372 26.147C304.839 25.12 304.718 23.983 305.033 22.999L305.13 22.696L304.813 22.724C302.891 22.893 301.137 22.308 299.833 21.49C298.502 20.684 297.598 19.638 296.995 18.723C295.804 16.841 295.814 15.503 295.725 15.534Z" fill="#455A64"/>
<path d="M308.579 73.5971C308.128 73.6501 308.649 76.6261 306.476 79.1881C304.309 81.7561 301.079 81.9821 301.129 82.4021C301.121 82.5961 301.937 82.8551 303.283 82.6551C304.604 82.4681 306.447 81.7061 307.776 80.1401C309.1 78.5701 309.462 76.7241 309.348 75.4861C309.242 74.2221 308.779 73.5441 308.579 73.5971Z" fill="#263238"/>
<path d="M205.461 217.204C207.061 216.564 259.91 210.214 259.91 210.214L281.353 192.061L279.341 244.614L211.861 251.12L205.461 217.204Z" fill="#FF725E"/>
<path opacity="0.3" d="M271.873 200.087C271.23 200.408 265.934 205.115 265.934 205.115L267.549 245.583L271.873 200.087Z" fill="black"/>
<path d="M361.913 295.257H272.648C272.648 295.257 277.374 320.444 279.124 332.051C280.874 343.657 283.432 351.893 283.432 351.893H364.279C364.279 351.893 370.314 337.262 371.365 327.866C372.414 318.47 361.913 295.257 361.913 295.257Z" fill="#263238"/>
<path d="M265.995 298.297C265.995 298.297 263.501 327.008 265.995 351.893H296.916V328.964L265.995 298.297Z" fill="#263238"/>
<path d="M283.176 157.562L292.796 136.496L293.991 123.484C293.991 123.484 312.438 111.89 321.189 107.514C329.94 103.138 341.73 99.177 341.73 99.177V111.454L283.176 157.562Z" fill="#EBEBEB"/>
<path d="M363.583 265.154C363.583 265.154 368.808 194.936 369.162 189.718C369.162 189.718 372.248 152.2 365.586 137.913C358.924 123.627 344.017 111.07 344.017 111.07L342.645 103.57L313.527 121.922L300.067 133.629C300.067 133.629 292.427 141.695 287.367 149.431C283.546 154.717 279.298 161.518 277.408 170.07C276.717 173.196 268.706 210.575 268.467 236.631C268.467 236.631 267.236 259.361 265.923 272.237C264.298 288.173 261.822 324.502 262.36 346.026L356.713 343.144C380.03 339.587 375.929 337.269 375.929 337.269L363.583 265.154Z" fill="#FF725E"/>
<path d="M341.731 111.456C341.731 111.456 341.512 111.569 341.077 111.754C340.617 111.946 339.976 112.214 339.152 112.559C338.329 112.955 337.329 113.478 336.154 114.088C335.027 114.786 333.683 115.507 332.291 116.499C326.631 120.297 319.162 126.734 311.56 135.66L311.506 135.723L311.428 135.737C308.555 136.265 305.519 136.824 302.375 137.402L302.57 137.176C302.428 141.382 302.279 145.796 302.125 150.364L302.122 150.467L302.044 150.541C297.51 154.834 292.904 159.693 288.733 165.132C287.041 167.361 285.482 169.652 284.169 172.03L283.676 172.919L283.299 173.848C283.042 174.462 282.797 175.08 282.616 175.731C282.212 177.009 281.814 178.278 281.485 179.56C280.088 184.659 278.936 189.636 277.856 194.378C275.707 203.866 273.918 212.444 272.435 219.651C269.473 234.067 267.805 243.014 267.805 243.014C267.805 243.014 267.827 242.441 268.007 241.373C268.172 240.301 268.446 238.727 268.806 236.701C269.537 232.65 270.641 226.798 272.074 219.578C273.512 212.36 275.264 203.772 277.388 194.272C278.456 189.523 279.599 184.542 280.994 179.424C281.322 178.14 281.721 176.86 282.127 175.57C282.307 174.921 282.558 174.282 282.825 173.643L283.216 172.683L283.715 171.781C285.044 169.37 286.616 167.06 288.318 164.817C292.518 159.342 297.134 154.481 301.702 150.169L301.62 150.346C301.784 145.778 301.943 141.364 302.095 137.159L302.102 136.967L302.29 136.933C305.435 136.366 308.473 135.817 311.348 135.299L311.216 135.376C318.889 126.437 326.416 120.037 332.147 116.282C333.555 115.303 334.916 114.594 336.058 113.912C337.248 113.317 338.262 112.811 339.096 112.434C339.934 112.115 340.586 111.866 341.053 111.689C341.497 111.524 341.731 111.456 341.731 111.456Z" fill="#263238"/>
<path d="M310.054 166.941L311.186 260.637L296.918 351.892H334.533C334.533 351.892 351.628 282.604 355.609 268.043C359.475 253.904 365.267 182.735 365.781 179.241C365.982 177.871 370.06 153.293 358.055 141.698" fill="#FF725E"/>
<path d="M358.054 141.699C358.054 141.699 358.326 141.957 358.841 142.481C359.352 143.006 360.071 143.834 360.896 145.007C362.541 147.344 364.478 151.206 365.594 156.553C366.719 161.884 367.115 168.618 366.309 176.322C365.744 180.16 365.461 184.263 365.045 188.637C364.648 193.004 364.229 197.621 363.788 202.471C362.891 212.169 361.878 222.793 360.655 234.193C360.027 239.891 359.375 245.786 358.571 251.845C357.75 257.893 356.952 264.165 355.258 270.419C348.974 295.448 342.058 322.994 334.786 351.956L334.736 352.154H334.533C333.252 352.154 331.865 352.154 330.475 352.154C319.06 352.153 307.849 352.152 296.918 352.151H296.617L296.664 351.854C301.943 318.196 306.815 287.13 310.975 260.606L310.972 260.641C310.667 232.269 310.416 208.848 310.24 192.508C310.166 184.35 310.109 177.962 310.07 173.601C310.058 171.434 310.048 169.772 310.041 168.64C310.038 167.519 310.053 166.942 310.053 166.942C310.053 166.942 310.082 167.519 310.106 168.64C310.127 169.772 310.157 171.433 310.197 173.6C310.263 177.961 310.36 184.348 310.483 192.505C310.702 208.845 311.016 232.264 311.397 260.636V260.654L311.394 260.672C307.259 287.201 302.416 318.272 297.17 351.934L296.916 351.637C307.847 351.636 319.058 351.635 330.473 351.634C331.863 351.634 333.25 351.634 334.531 351.634L334.278 351.832C341.566 322.87 348.497 295.324 354.795 270.294C356.486 264.079 357.288 257.834 358.117 251.786C358.929 245.734 359.589 239.842 360.226 234.147C361.468 222.753 362.502 212.132 363.422 202.437C363.875 197.589 364.307 192.973 364.715 188.607C365.142 184.253 365.444 180.101 366.019 176.291C366.85 168.618 366.485 161.907 365.395 156.594C364.313 151.265 362.418 147.412 360.808 145.066C360.001 143.889 359.297 143.053 358.8 142.517C358.301 141.983 358.054 141.699 358.054 141.699Z" fill="#263238"/>
<path d="M329.948 269.858C329.926 269.923 328.81 269.62 327.041 269.016C325.273 268.413 322.858 267.493 320.251 266.337C317.644 265.178 315.341 264.004 313.708 263.097C312.074 262.191 311.101 261.565 311.134 261.506C311.171 261.44 312.206 261.951 313.878 262.771C315.55 263.592 317.867 264.708 320.462 265.861C323.058 267.012 325.439 267.981 327.169 268.671C328.899 269.361 329.973 269.786 329.948 269.858Z" fill="#263238"/>
<path d="M265.553 276.069C265.544 276.068 265.541 275.985 265.544 275.823C265.551 275.63 265.559 275.395 265.569 275.105C265.605 274.432 265.654 273.512 265.717 272.349C265.872 269.912 266.092 266.463 266.362 262.22C266.939 253.67 267.763 241.858 268.916 228.831C270.071 215.799 271.401 204.029 272.486 195.527C273.031 191.276 273.493 187.839 273.841 185.468C274.013 184.316 274.149 183.405 274.249 182.739C274.297 182.453 274.336 182.221 274.368 182.031C274.398 181.872 274.417 181.791 274.426 181.792C274.435 181.793 274.433 181.876 274.421 182.038C274.403 182.23 274.381 182.465 274.353 182.753C274.277 183.422 274.173 184.338 274.042 185.495C273.756 187.92 273.35 191.351 272.852 195.572C271.861 204.083 270.59 215.852 269.436 228.878C268.284 241.899 267.402 253.704 266.731 262.247C266.392 266.485 266.116 269.93 265.921 272.364C265.817 273.524 265.736 274.442 265.676 275.113C265.645 275.401 265.62 275.635 265.599 275.827C265.577 275.988 265.562 276.07 265.553 276.069Z" fill="#263238"/>
<path d="M341.731 129.878C341.568 129.933 340.646 126.278 338.192 122.414C335.773 118.526 332.88 116.111 333 115.988C333.039 115.941 333.81 116.479 334.907 117.53C336.003 118.578 337.394 120.17 338.633 122.136C339.867 124.104 340.7 126.048 341.168 127.49C341.64 128.934 341.791 129.863 341.731 129.878Z" fill="#263238"/>
<path d="M275.354 246.289C275.381 246.283 275.476 246.519 275.446 246.97C275.413 247.41 275.218 248.083 274.629 248.666C274.078 249.256 272.982 249.677 271.916 249.282C271.393 249.104 270.895 248.765 270.522 248.285C270.146 247.809 269.939 247.156 269.958 246.527C269.968 245.721 270.217 244.949 270.682 244.347C270.915 244.049 271.216 243.8 271.558 243.655C271.918 243.522 272.179 243.459 272.477 243.364L272.514 243.352L272.547 243.353C273.228 243.37 273.889 243.517 274.361 243.874C274.84 244.219 275.079 244.693 275.201 245.066C275.432 245.834 275.387 246.285 275.354 246.289C275.292 246.302 275.237 245.849 274.951 245.164C274.802 244.83 274.561 244.443 274.148 244.183C273.743 243.91 273.17 243.805 272.546 243.809L272.615 243.798C272.343 243.894 271.998 243.998 271.751 244.098C271.497 244.213 271.265 244.408 271.078 244.657C270.703 245.154 270.484 245.839 270.477 246.531C270.423 247.63 271.202 248.516 272.076 248.831C272.959 249.179 273.85 248.882 274.376 248.398C274.924 247.921 275.155 247.337 275.244 246.941C275.333 246.535 275.311 246.294 275.354 246.289Z" fill="#263238"/>
<path d="M273.956 279.419C273.982 279.413 274.077 279.649 274.048 280.1C274.015 280.54 273.82 281.213 273.231 281.796C272.681 282.385 271.584 282.807 270.518 282.412C269.995 282.234 269.497 281.895 269.124 281.415C268.748 280.939 268.541 280.286 268.56 279.657C268.571 278.851 268.819 278.079 269.284 277.477C269.517 277.179 269.818 276.93 270.161 276.785C270.521 276.652 270.782 276.589 271.08 276.494L271.117 276.482L271.15 276.483C271.831 276.5 272.492 276.647 272.964 277.004C273.443 277.349 273.682 277.823 273.804 278.197C274.034 278.964 273.989 279.415 273.956 279.419C273.894 279.432 273.839 278.979 273.553 278.294C273.404 277.96 273.163 277.573 272.75 277.313C272.345 277.04 271.772 276.935 271.148 276.939L271.217 276.928C270.945 277.024 270.6 277.128 270.353 277.228C270.099 277.343 269.867 277.538 269.68 277.787C269.305 278.284 269.085 278.969 269.079 279.661C269.025 280.76 269.804 281.646 270.678 281.961C271.561 282.309 272.452 282.011 272.978 281.528C273.526 281.051 273.757 280.467 273.846 280.071C273.935 279.665 273.913 279.424 273.956 279.419Z" fill="#263238"/>
<path d="M353.819 136.154C353.766 136.243 352.525 135.448 350.33 134.607C349.237 134.177 347.89 133.79 346.372 133.48C344.848 133.201 343.15 133.019 341.361 133.032C339.572 133.068 337.879 133.298 336.363 133.618C334.854 133.97 333.518 134.394 332.438 134.854C330.267 135.756 329.048 136.584 328.993 136.497C328.973 136.467 329.267 136.248 329.819 135.875C330.092 135.683 330.435 135.462 330.856 135.245C331.274 135.023 331.738 134.742 332.291 134.517C333.371 134.006 334.721 133.536 336.255 133.151C337.796 132.797 339.526 132.548 341.354 132.512C343.182 132.498 344.917 132.7 346.467 133.011C348.011 133.353 349.373 133.786 350.467 134.267C351.027 134.477 351.498 134.744 351.922 134.955C352.349 135.16 352.698 135.372 352.976 135.557C353.538 135.912 353.838 136.123 353.819 136.154Z" fill="#263238"/>
<g opacity="0.3">
<path d="M271.43 223.797C275.505 217.868 277 212.276 279.177 205.419C282.412 195.229 283.315 183.716 288.391 174.307C291.381 168.766 294.896 163.081 300.094 159.528C305.164 156.063 305.915 151.657 305.815 139.742C309.439 139.778 313.27 136.984 313.725 136.495C316.194 133.842 317.98 129.63 318.169 128.167C315.627 130.931 311.389 135.517 311.389 135.517C311.389 135.517 302.198 137.225 302.333 137.166C302.107 141.75 302.099 145.77 301.873 150.354C301.873 150.354 284.241 169.061 282.869 172.822C281.496 176.584 271.43 223.797 271.43 223.797Z" fill="black"/>
</g>
<g opacity="0.3">
<path d="M336.891 340.59C359.236 298.297 366.18 242.688 364.851 189.717C364.851 189.717 358.437 254.101 356.275 265.153C354.128 276.128 336.891 340.59 336.891 340.59Z" fill="black"/>
</g>
<path d="M340.301 104.649C340.31 104.664 340.138 104.796 339.8 105.032C339.414 105.294 338.92 105.629 338.311 106.042C336.95 106.937 335.075 108.169 332.782 109.676C328.038 112.733 321.577 116.896 314.44 121.496C311.677 123.258 309.015 124.955 306.525 126.543L306.543 126.53C305.678 127.199 304.834 127.852 304.015 128.486C303.175 129.102 302.454 129.729 301.757 130.414C300.372 131.752 299.139 133.053 298.03 134.234L297.83 134.447L297.715 134.182C296.517 131.413 295.537 129.149 294.829 127.512C294.517 126.762 294.265 126.156 294.069 125.686C293.901 125.266 293.821 125.041 293.838 125.034C293.855 125.026 293.969 125.236 294.17 125.641C294.39 126.1 294.672 126.692 295.023 127.426C295.77 129.046 296.802 131.286 298.065 134.027L297.749 133.976C298.842 132.774 300.061 131.455 301.444 130.092C302.118 129.412 302.907 128.717 303.731 128.104C304.544 127.467 305.38 126.811 306.238 126.138L306.247 126.131L306.256 126.125C308.742 124.531 311.4 122.826 314.159 121.056C321.33 116.505 327.82 112.387 332.587 109.362C334.916 107.913 336.821 106.729 338.204 105.869C338.835 105.489 339.345 105.182 339.745 104.942C340.101 104.735 340.292 104.634 340.301 104.649Z" fill="#263238"/>
</svg>
