<svg width="2771" height="1777" viewBox="0 0 2771 1777" fill="none" xmlns="http://www.w3.org/2000/svg">
<path d="M972.743 289.786C989.448 289.786 1002.99 279.733 1002.99 267.332C1002.99 254.931 989.448 244.879 972.743 244.879C956.036 244.879 942.494 254.931 942.494 267.332C942.494 279.733 956.036 289.786 972.743 289.786Z" fill="#808198"/>
<path d="M1016.75 263.181H930.841C920.781 263.181 912.551 254.952 912.551 244.893V45.8858C912.551 35.8273 920.781 27.5977 930.841 27.5977H1016.75C1026.81 27.5977 1035.04 35.8273 1035.04 45.8858V244.893C1035.04 254.952 1026.81 263.181 1016.75 263.181Z" fill="#808198"/>
<path d="M979.035 98.5014C979.035 98.7803 978.896 103.336 978.687 111.3C978.34 124.272 977.748 146.217 976.948 173.064C976.669 181.584 976.392 190.556 976.079 199.946V200.225C976.079 200.539 976.044 200.886 976.044 201.302C975.592 215.213 975.105 229.889 974.584 244.947C974.34 250.964 974.131 257.049 973.887 263.171C973.887 263.797 973.852 264.422 973.817 265.048C973.54 273.255 984.976 279.713 984.664 287.954C984.159 300.684 989.009 322.095 971.302 327.641C970.417 347.784 969.472 367.234 968.461 384.994C967.87 395.393 967.349 406.765 966.792 418.728C962.514 511.757 956.635 639.182 907.037 669.263C899.734 673.714 891.699 675.939 883.074 675.939C874.205 675.939 864.64 673.574 854.518 668.88C809.892 648.222 788.503 523.616 790.973 298.537C792.19 188.641 799.042 77.1804 804.956 4.14818C808.537 3.17433 812.086 2.2005 815.668 1.26172C809.685 73.9114 802.625 187.075 801.407 298.676C799.077 513.042 819.493 641.161 858.902 659.421C875.77 667.245 889.753 667.559 901.613 660.359C946.481 633.163 952.428 503.826 956.394 418.241C956.95 406.242 957.472 394.837 958.063 384.403C959.699 355.468 961.194 322.013 962.515 288.418C962.828 280.385 963.142 272.385 963.419 264.422C963.454 264.005 963.454 263.587 963.489 263.171C963.698 257.328 963.907 251.555 964.081 245.817C966.862 167.812 968.566 99.335 968.602 98.2575C968.672 95.371 970.967 92.9707 973.922 93.146C976.809 93.2496 979.105 95.6149 979.035 98.5014Z" fill="#808198"/>
<path d="M1016.67 218.903C1040.35 218.903 1059.54 185.989 1059.54 145.388C1059.54 104.787 1040.35 71.873 1016.67 71.873C992.992 71.873 973.799 104.787 973.799 145.388C973.799 185.989 992.992 218.903 1016.67 218.903Z" fill="#808198"/>
<path d="M557.322 1542.01C557.322 1542.01 644.787 1610.2 774.083 1572.1C774.083 1572.1 773.364 1415.18 557.322 1542.01Z" fill="#232333"/>
<path d="M225.361 1476.9C225.361 1476.9 263.131 1538.25 433.892 1522.19C433.892 1522.19 414.973 1419.1 225.361 1476.9Z" fill="#232333"/>
<path d="M760.454 1487.26C760.454 1487.26 714.413 1599.1 719.858 1620.88C725.302 1642.64 748.745 1691.64 809.751 1709.79C864.365 1726.02 871.862 1737.36 897.633 1742.65C906.289 1744.43 911.42 1754.09 906.955 1761.71C900.255 1773.16 879.733 1776.85 858.694 1774.26C829.274 1770.63 791.011 1784.51 718.424 1770C645.837 1755.48 595.605 1782.36 566.915 1753.33C538.225 1724.3 568.777 1691.18 583.64 1632.45C598.502 1573.7 620.209 1473.9 620.209 1473.9L760.454 1487.26Z" fill="#F78D5D"/>
<path d="M412.39 1469.11C412.39 1469.11 355.118 1579.29 360.562 1601.07C366.006 1622.83 389.449 1671.83 450.455 1689.96C505.069 1706.21 512.566 1717.55 538.337 1722.84C546.993 1724.62 552.122 1734.27 547.659 1741.9C540.961 1753.35 520.437 1757.03 499.399 1754.44C469.978 1750.82 431.715 1764.7 359.128 1750.19C286.541 1735.67 236.309 1762.55 207.619 1733.52C178.929 1704.49 202.17 1669.02 224.344 1612.63C248.073 1552.28 279.375 1449.3 279.375 1449.3L412.39 1469.11Z" fill="#F78D5D"/>
<path d="M297.062 1276.15L225.361 1476.91C225.361 1476.91 365.366 1467.19 433.892 1522.19C433.892 1522.19 588.333 1249.07 618.646 1182.34C648.96 1115.6 602.63 1108.09 602.63 1108.09C602.63 1108.09 351.629 1046.59 297.062 1276.15Z" fill="#1E4C37"/>
<path d="M432.552 941.753C432.552 941.753 858.527 800.991 938.807 875.995C977.294 911.954 922.684 1077.71 874.484 1236.09C822.146 1408.06 774.085 1572.1 774.085 1572.1C774.085 1572.1 681.596 1517.78 557.323 1542.01L617.951 1241.53C617.951 1241.53 603.465 1259.59 543.011 1309.95C438.821 1412.85 323.136 1441.12 225.363 1389.8C218.548 1387.06 177.832 1390.45 156.592 1386.52C86.5571 1373.57 30.5549 1327.68 31.2103 1256.47C31.7255 1200.48 51.6194 1128.26 85.7295 1034.97C180.043 777.007 432.552 941.753 432.552 941.753Z" fill="#2E7658"/>
<path d="M1567.2 1094.37C1568.85 1092 1576.39 1089.23 1588.39 1085.29C1583.25 1080.07 1578.51 1075.22 1574.38 1071.2C1555.31 1052.65 1540.24 1030.68 1523.29 1010.31C1515.09 1004.32 1506.55 998.752 1497.73 993.532C1469.42 983.236 1439.71 975.615 1409.16 969.9C1373.65 966.47 1367.75 872.39 1331.51 871.562C1351.69 915.05 1339.32 1014.37 1354.47 1060.93C1369.3 1106.48 1359.14 1190.59 1388.14 1238.04C1417.14 1285.48 1415.06 1344.32 1392.89 1441.12C1370.73 1537.91 1379.51 1549.3 1331.82 1583.47C1284.14 1617.63 1269.16 1649.9 1279.68 1653.69C1287.2 1656.41 1334.38 1655.23 1360.69 1654.35C1374.16 1653.91 1387.9 1646.09 1396.53 1634.08C1404.77 1622.62 1414.26 1605.58 1421.47 1581.56C1437.44 1528.42 1465.58 1430.37 1482 1383.55C1498.42 1336.73 1527.28 1310.16 1530.99 1260.81C1534.69 1211.46 1561.53 1102.55 1567.2 1094.37Z" fill="#242334"/>
<path d="M2154.19 1170.92C2100.08 1133.65 2186.73 986.945 2236.05 829.972C2238.17 823.236 2239.85 816.716 2241.22 810.346C2214.18 819.151 2186.91 823.077 2159.41 822.071C2145.07 825.711 2130.77 830.08 2116.51 834.92C2074.94 852.387 2034 871.661 1993.25 892.513C1964.88 907.031 1936.55 921.425 1908.55 936.615C1927.49 986.633 1893.44 1137.83 1936.06 1186.77C1985.65 1243.73 2050.22 1276.81 2044.21 1336.19C2038.21 1395.57 1997.13 1492.05 1985.43 1534.91C1973.71 1577.77 1943.18 1570.18 1918.99 1592.96C1894.78 1615.73 1875.23 1651.38 1897.1 1655.38C1913.33 1658.36 1964.04 1656.91 1989.1 1655.96C1998.37 1655.63 2007.83 1650.23 2013.67 1641.93C2023.73 1627.63 2039.31 1602.36 2051.81 1568.29C2072 1513.24 2119.94 1353.64 2144.08 1306.28C2168.21 1258.91 2208.3 1208.2 2154.19 1170.92Z" fill="#242334"/>
<path d="M2048.42 585.667C1928.71 586.197 1933.45 573.749 1869.98 585.667C1806.52 597.585 1746.72 585.137 1666.99 576.904C1587.26 568.671 1385.58 531.662 1385.58 531.662L1285.27 683.815C1285.27 683.815 1264.49 871.564 1359.93 943.853C1406.59 979.204 1365.65 1079.19 1402.01 1082.69C1438.37 1086.2 1433.45 1190.59 1462.45 1238.04C1491.45 1285.49 1489.37 1344.32 1467.2 1441.12C1445.04 1537.91 1453.82 1549.3 1406.13 1583.47C1358.45 1617.63 1343.47 1649.9 1353.99 1653.69C1361.5 1656.41 1408.69 1655.25 1435 1654.35C1448.47 1653.91 1462.21 1646.09 1470.84 1634.08C1479.08 1622.62 1488.57 1605.58 1495.78 1581.56C1511.75 1528.42 1539.89 1430.37 1556.3 1383.55C1572.72 1336.73 1601.59 1310.16 1605.29 1260.81C1608.99 1211.47 1635.83 1102.55 1641.5 1094.38C1647.18 1086.2 1722.21 1073.48 1811.41 1023.85C1900.6 974.22 2006.92 907.792 2053.24 921.078C2099.54 934.364 2045.3 1129.82 2094.89 1186.78C2144.49 1243.73 2209.06 1276.81 2203.05 1336.19C2197.05 1395.57 2155.97 1492.05 2144.26 1534.91C2132.54 1577.78 2102.01 1570.18 2077.82 1592.96C2053.62 1615.73 2034.06 1651.38 2055.94 1655.38C2072.17 1658.36 2122.91 1656.91 2147.95 1655.98C2157.22 1655.63 2166.65 1650.25 2172.49 1641.96C2182.55 1627.65 2198.14 1602.38 2210.64 1568.29C2230.84 1513.24 2278.77 1353.65 2302.92 1306.28C2327.05 1258.92 2367.13 1208.21 2313.02 1170.93C2258.91 1133.65 2345.56 986.95 2394.89 829.979C2471.84 585.135 2048.42 585.667 2048.42 585.667Z" fill="#4F5160"/>
<path d="M1416.79 576.319C1466.59 639.171 1345.12 685.192 1327.81 744.014C1310.5 802.873 1287.38 780.249 1287.38 780.249C1287.87 825.988 1258.16 834.498 1244.46 790.047C1230.71 745.599 1175.74 708.85 1161.94 744.467C1148.17 780.08 1117.21 775.372 1117.21 775.372C1121.05 836.031 1084.71 814.693 1084.71 814.693C1085.38 862.279 1050.6 836.957 1029.68 858.01C1010.77 877.083 997.839 843.959 980.158 839.016C978.319 838.497 976.433 838.273 974.478 838.457C967.198 839.146 961.61 838.03 957.428 836.307C949.821 833.153 945.403 825.093 946.385 816.926C947.251 809.463 950.444 798.418 959.841 784.557C961.069 782.87 962.334 781.179 963.56 779.455C991.099 741.443 1018.43 695.046 1021.53 650.977C1024.81 604.919 1030.65 605.975 1046.67 574.094C1062.74 542.247 1050.59 474.116 1150.23 459.282C1249.88 444.449 1280.29 483.52 1338.04 489.494C1395.8 495.469 1430.35 497.938 1417.04 518.271C1417.03 518.271 1445.06 532.537 1416.79 576.319Z" fill="#4F5160"/>
<path d="M2320.34 663.947C2320.34 663.947 2400.74 678.486 2443.24 767.132C2485.73 855.778 2501.11 886.292 2543.92 911.935C2586.72 937.576 2644.81 923.782 2632.91 965.091C2632.91 965.091 2660.27 970.649 2692.5 999.704C2724.74 1028.76 2783.01 1031.71 2768.2 1078.22C2753.4 1124.74 2620.84 1080.59 2620.84 1080.59C2620.84 1080.59 2624.92 1122.56 2584.86 1091.12C2584.86 1091.12 2588.17 1135.54 2522.02 1055.12C2455.89 974.709 2442.81 984.863 2406.35 886.575C2369.89 788.287 2320.34 663.947 2320.34 663.947Z" fill="#4F5160"/>
<path d="M1232.73 725.212C1227.4 725.212 1222.72 723.729 1218.75 720.777C1211.26 715.202 1208.33 705.787 1207.22 700.17C1203.06 701.918 1199.18 702.107 1195.63 700.721C1183.94 696.16 1178.53 675.773 1171.68 649.962C1167.99 636.019 1163.79 620.214 1158.16 605.912C1151.44 588.842 1143.17 578.552 1134.25 576.158C1126.42 574.048 1120.51 578.629 1120.27 578.828C1118.93 579.891 1116.98 579.676 1115.91 578.346C1114.84 577.014 1115.04 575.074 1116.37 573.996C1116.71 573.722 1124.83 567.263 1135.73 570.127C1146.84 573.041 1156.33 584.316 1163.94 603.639C1169.7 618.274 1173.94 634.264 1177.69 648.37C1183.57 670.559 1189.13 691.519 1197.89 694.935C1200.67 696.021 1203.98 695.305 1207.99 692.748C1208.92 692.159 1210.08 692.103 1211.06 692.597C1212.04 693.089 1212.68 694.066 1212.76 695.159C1212.77 695.299 1213.82 709.393 1222.48 715.806C1226.74 718.964 1232.32 719.778 1239.05 718.22C1255.31 714.469 1270.35 703.868 1278.3 690.558C1284.54 680.12 1286.18 668.543 1283.04 657.078C1278.58 640.77 1284.68 635.318 1289.57 630.938C1294.83 626.23 1299.38 622.167 1290.25 601.144C1289.79 600.085 1289.96 598.858 1290.68 597.959C1290.94 597.632 1297.2 589.459 1294.24 575.039C1290.71 557.869 1273.58 530.349 1212 496.732C1210.49 495.911 1209.94 494.022 1210.76 492.52C1211.58 491.015 1213.47 490.462 1214.98 491.281C1278.9 526.177 1296.7 555.576 1300.38 574.094C1303.07 587.601 1298.77 596.721 1296.62 600.245C1305.83 622.273 1300.99 629.056 1293.72 635.567C1289.18 639.63 1285.59 642.838 1289.03 655.443C1292.63 668.577 1290.76 681.82 1283.64 693.744C1274.85 708.456 1258.3 720.154 1240.45 724.273C1237.75 724.9 1235.17 725.211 1232.73 725.212Z" fill="#242334"/>
<path d="M1420.51 632.654C1419.96 632.654 1419.4 632.508 1418.9 632.205C1417.43 631.315 1416.97 629.407 1417.86 627.941C1441.47 589.028 1393.58 551.164 1393.09 550.784C1391.73 549.733 1391.49 547.782 1392.54 546.429C1393.59 545.074 1395.55 544.825 1396.9 545.882C1397.43 546.293 1449.62 587.573 1423.17 631.161C1422.58 632.123 1421.56 632.654 1420.51 632.654Z" fill="#242334"/>
<path d="M1089.12 573.19C1088.51 573.19 1087.9 573.011 1087.36 572.638C1085.95 571.662 1085.59 569.728 1086.57 568.319C1086.83 567.942 1112.97 531.072 1152.27 553.489C1153.76 554.337 1154.28 556.235 1153.43 557.722C1152.58 559.214 1150.68 559.729 1149.19 558.882C1114.77 539.263 1092.6 570.512 1091.68 571.85C1091.07 572.723 1090.11 573.19 1089.12 573.19Z" fill="#242334"/>
<path d="M980.158 839.018C978.319 838.499 976.433 838.275 974.478 838.459C967.198 839.148 961.61 838.033 957.428 836.309C949.821 833.156 945.403 825.095 946.385 816.928C947.251 809.465 950.444 798.42 959.841 784.559C961.069 782.872 962.334 781.181 963.56 779.457C973.901 791.815 990.988 817.129 980.158 839.018Z" fill="#242334"/>
<path d="M1098.92 627.992C1106.31 640.901 1106.22 654.847 1098.71 659.143C1091.2 663.439 1079.13 656.458 1071.74 643.551C1064.35 630.644 1064.44 616.696 1071.95 612.4C1079.46 608.104 1091.53 615.084 1098.92 627.992Z" fill="#242334"/>
<path d="M1098.03 821.301C1090.29 821.301 1083.6 817.631 1083.2 817.404C1081.7 816.566 1081.16 814.675 1082 813.177C1082.84 811.685 1084.73 811.15 1086.22 811.98C1086.4 812.08 1097.61 818.147 1105.52 813.047C1112.73 808.399 1115.7 795.456 1114.11 775.621C1109.18 714.101 1134.38 700.072 1135.45 699.504C1136.97 698.704 1138.85 699.286 1139.65 700.799C1140.45 702.317 1139.87 704.193 1138.35 704.995C1138.15 705.107 1115.74 718.183 1120.3 775.122C1122.11 797.728 1118.26 812.252 1108.85 818.288C1105.36 820.527 1101.59 821.301 1098.03 821.301Z" fill="#242334"/>
<path d="M1293.1 603.017C1291.92 603.017 1290.79 602.34 1290.27 601.195C1278.69 575.685 1262.86 563.241 1262.7 563.119C1261.35 562.071 1261.1 560.12 1262.15 558.764C1263.2 557.407 1265.15 557.157 1266.5 558.211C1267.2 558.748 1283.71 571.73 1295.93 598.627C1296.64 600.189 1295.95 602.029 1294.39 602.739C1293.97 602.927 1293.53 603.017 1293.1 603.017Z" fill="#242334"/>
<path d="M1285.95 797.369C1283.5 797.369 1281.26 796.757 1279.24 795.53C1267.33 788.283 1269.36 762.264 1269.63 759.319C1269.79 757.615 1271.27 756.355 1273 756.513C1274.71 756.669 1275.97 758.181 1275.81 759.888C1275.22 766.351 1275.18 785.796 1282.47 790.225C1285.57 792.105 1290.17 791.121 1296.14 787.296C1297.58 786.367 1299.5 786.793 1300.43 788.236C1301.36 789.681 1300.93 791.601 1299.49 792.526C1294.45 795.754 1289.92 797.369 1285.95 797.369Z" fill="#242334"/>
<path d="M1346.64 604.623C1345.18 604.623 1343.87 603.59 1343.59 602.103C1339.97 583.238 1330.1 566.465 1330 566.298C1329.12 564.824 1329.61 562.92 1331.08 562.044C1332.55 561.169 1334.46 561.649 1335.34 563.125C1335.76 563.842 1345.86 580.969 1349.69 600.935C1350.01 602.618 1348.91 604.247 1347.22 604.567C1347.02 604.605 1346.83 604.623 1346.64 604.623Z" fill="#242334"/>
<path d="M1623.92 1159.88C1623.72 1159.88 1623.53 1159.86 1623.34 1159.82C1621.64 1159.51 1620.55 1157.88 1620.85 1156.2C1638.23 1064.19 1680.28 980.635 1680.71 979.801C1681.47 978.274 1683.34 977.662 1684.87 978.439C1686.41 979.213 1687.02 981.083 1686.24 982.613C1685.81 983.438 1644.16 1066.24 1626.96 1157.35C1626.69 1158.84 1625.38 1159.88 1623.92 1159.88Z" fill="#242334"/>
<path d="M2328.95 1010.81C2328.54 1010.81 2328.14 1010.73 2327.76 1010.57C2326.18 1009.91 2325.41 1008.1 2326.07 1006.51C2412.46 798.319 2392.86 737.041 2392.65 736.447C2392.08 734.828 2392.94 733.057 2394.55 732.49C2396.18 731.926 2397.95 732.778 2398.52 734.395C2399.4 736.915 2419.11 798.521 2331.82 1008.89C2331.31 1010.09 2330.16 1010.81 2328.95 1010.81Z" fill="#242334"/>
<path d="M2623.93 968.438C2547.83 968.438 2504.14 916.634 2503.7 916.09C2502.6 914.769 2502.8 912.812 2504.11 911.72C2505.45 910.631 2507.4 910.82 2508.49 912.135C2508.94 912.678 2554.24 966.219 2632.76 961.992C2634.43 961.903 2635.93 963.211 2636.02 964.925C2636.11 966.637 2634.8 968.1 2633.08 968.193C2629.98 968.359 2626.93 968.438 2623.93 968.438Z" fill="#242334"/>
<path d="M2667.25 1096C2667.02 1096 2666.81 1095.98 2666.58 1095.93C2598.66 1080.85 2587.14 1055.85 2586.68 1054.79C2586.01 1053.21 2586.72 1051.39 2588.31 1050.71C2589.88 1050.03 2591.69 1050.74 2592.38 1052.3C2592.55 1052.67 2603.93 1075.65 2667.92 1089.87C2669.59 1090.24 2670.65 1091.9 2670.28 1093.57C2669.96 1095.02 2668.67 1096 2667.25 1096Z" fill="#242334"/>
<path d="M2714.6 1087.17C2713.81 1087.17 2713.02 1086.87 2712.41 1086.26C2698.07 1072 2677.05 1069.26 2676.83 1069.24C2675.13 1069.03 2673.92 1067.48 2674.14 1065.77C2674.35 1064.07 2675.89 1062.88 2677.6 1063.07C2678.54 1063.19 2700.96 1066.12 2716.78 1081.86C2718 1083.07 2718 1085.04 2716.8 1086.25C2716.19 1086.87 2715.4 1087.17 2714.6 1087.17Z" fill="#242334"/>
<path d="M2518.47 963.29C2517.83 963.29 2517.19 963.097 2516.64 962.691C2492.73 945.202 2467.06 912.673 2465.98 911.297C2464.93 909.948 2465.15 907.996 2466.51 906.937C2467.85 905.878 2469.8 906.118 2470.87 907.461C2471.13 907.792 2497.09 940.701 2520.31 957.679C2521.69 958.692 2521.99 960.634 2520.99 962.018C2520.38 962.85 2519.43 963.29 2518.47 963.29Z" fill="#242334"/>
<path d="M2299.96 1263.85C2299.43 1263.85 2298.86 1263.71 2298.36 1263.41C2296.9 1262.52 2296.42 1260.62 2297.31 1259.15C2318.77 1223.38 2301.9 1203.31 2301.16 1202.47C2300.04 1201.18 2300.16 1199.23 2301.45 1198.1C2302.73 1196.97 2304.69 1197.09 2305.81 1198.36C2306.68 1199.33 2326.54 1222.47 2302.63 1262.34C2302.05 1263.31 2301.01 1263.85 2299.96 1263.85Z" fill="#242334"/>
<path d="M2087.96 958.69C2086.36 958.69 2085.02 957.475 2084.86 955.861C2075.89 855.294 1991.34 848.897 1990.49 848.845C1988.78 848.738 1987.47 847.264 1987.58 845.553C1987.68 843.845 1989.19 842.523 1990.87 842.647C1991.78 842.703 2081.6 849.488 2091.05 955.309C2091.21 957.018 2089.94 958.525 2088.23 958.677C2088.14 958.685 2088.05 958.69 2087.96 958.69Z" fill="#242334"/>
<path d="M1806.39 712.773C1804.84 712.773 1803.48 711.606 1803.31 710.023C1803.12 708.32 1804.34 706.779 1806.04 706.583C1815.83 705.458 1822.37 702.198 1825.49 696.896C1830.03 689.173 1826.02 679.222 1825.98 679.122C1825.6 678.209 1825.67 677.168 1826.19 676.324C1826.7 675.481 1827.58 674.926 1828.57 674.836C1848.45 673.048 1861.94 659.495 1862.06 647.957C1862.19 636.35 1849.07 627.938 1826.99 625.451C1767.08 618.71 1753.55 613.246 1753 613.018C1751.42 612.355 1750.67 610.535 1751.34 608.953C1751.99 607.377 1753.81 606.63 1755.38 607.283C1755.56 607.353 1769.36 612.717 1827.69 619.281C1864.56 623.431 1868.35 640.765 1868.28 648.026C1868.09 663.324 1852.56 677.323 1832.91 680.541C1834.04 685.099 1834.99 692.978 1830.87 699.999C1826.71 707.098 1818.6 711.388 1806.74 712.752C1806.62 712.767 1806.5 712.773 1806.39 712.773Z" fill="#242334"/>
<path d="M1748.38 774.298C1741.52 774.298 1736.65 773.689 1736.05 773.611C1734.36 773.387 1733.16 771.828 1733.38 770.129C1733.6 768.428 1735.15 767.236 1736.86 767.452C1737.27 767.509 1778.39 772.613 1791.85 751.766C1792.78 750.326 1794.72 749.914 1796.15 750.841C1797.6 751.772 1798.01 753.692 1797.08 755.134C1786.49 771.55 1762.94 774.298 1748.38 774.298Z" fill="#242334"/>
<path d="M1378.74 939.359C1377.36 939.359 1376.5 939.231 1376.27 939.193C1374.58 938.903 1373.44 937.298 1373.73 935.608C1374.02 933.927 1375.6 932.795 1377.29 933.066C1377.87 933.156 1419.91 937.966 1448.87 830.259C1449.32 828.605 1451.03 827.624 1452.68 828.067C1454.34 828.512 1455.32 830.216 1454.87 831.873C1427.84 932.411 1388.95 939.359 1378.74 939.359Z" fill="#242334"/>
<path d="M1420.42 1072.09C1420.39 1072.09 1420.36 1072.09 1420.35 1072.09C1418.63 1072.06 1417.27 1070.65 1417.29 1068.94C1417.32 1067.23 1418.74 1065.92 1420.42 1065.88C1421.21 1065.87 1437.89 1065.23 1438.7 1029.71C1438.74 1027.99 1440.15 1026.58 1441.87 1026.67C1443.59 1026.71 1444.95 1028.13 1444.91 1029.85C1443.96 1071.28 1422.09 1072.09 1420.42 1072.09Z" fill="#242334"/>
<path d="M2138.84 1178.04C2132.72 1178.04 2129.1 1176.96 2128.62 1176.81C2126.99 1176.29 2126.09 1174.54 2126.61 1172.91C2127.13 1171.28 2128.85 1170.37 2130.5 1170.89C2130.97 1171.03 2165.27 1180.68 2209.29 1130.52C2210.43 1129.23 2212.39 1129.11 2213.68 1130.24C2214.97 1131.37 2215.09 1133.33 2213.97 1134.62C2181.03 1172.14 2153.13 1178.04 2138.84 1178.04Z" fill="#242334"/>
<path d="M2302.69 793.921C2301.67 793.921 2300.66 793.412 2300.07 792.477C2299.15 791.03 2299.58 789.112 2301.03 788.193C2330.11 769.771 2318.66 737.855 2318.16 736.506C2317.57 734.9 2318.39 733.114 2319.99 732.515C2321.59 731.913 2323.37 732.725 2323.98 734.332C2324.12 734.708 2337.75 772.286 2304.35 793.441C2303.83 793.764 2303.27 793.921 2302.69 793.921Z" fill="#242334"/>
<path d="M2061.93 1659.67C2061.51 1659.67 2061.1 1659.59 2060.69 1659.42C2059.12 1658.74 2058.39 1656.91 2059.08 1655.34C2071.3 1626.88 2083.16 1613.52 2083.66 1612.97C2084.8 1611.69 2086.77 1611.58 2088.04 1612.74C2089.32 1613.88 2089.42 1615.84 2088.28 1617.12C2088.16 1617.25 2076.56 1630.37 2064.78 1657.79C2064.27 1658.97 2063.13 1659.67 2061.93 1659.67Z" fill="#242334"/>
<path d="M2087.68 1659.67C2087.26 1659.67 2086.82 1659.58 2086.4 1659.39C2084.83 1658.68 2084.15 1656.85 2084.85 1655.28C2096.43 1629.73 2108.02 1617.73 2108.51 1617.22C2109.71 1616 2111.68 1615.99 2112.9 1617.18C2114.13 1618.38 2114.15 1620.33 2112.96 1621.57C2112.85 1621.69 2101.6 1633.39 2090.52 1657.85C2089.99 1659 2088.86 1659.67 2087.68 1659.67Z" fill="#242334"/>
<path d="M2113.2 1659.67C2112.73 1659.67 2112.26 1659.56 2111.81 1659.35C2110.27 1658.57 2109.65 1656.71 2110.43 1655.17C2121.06 1633.9 2132.25 1623.88 2132.73 1623.47C2134.01 1622.34 2135.97 1622.47 2137.1 1623.75C2138.24 1625.03 2138.12 1626.99 2136.84 1628.13C2136.73 1628.23 2126.02 1637.86 2115.97 1657.94C2115.43 1659.04 2114.33 1659.67 2113.2 1659.67Z" fill="#242334"/>
<path d="M1367.73 1659.67C1367.32 1659.67 1366.91 1659.59 1366.51 1659.42C1364.93 1658.74 1364.2 1656.91 1364.88 1655.34C1377.11 1626.88 1388.97 1613.52 1389.47 1612.97C1390.61 1611.69 1392.57 1611.6 1393.85 1612.74C1395.12 1613.88 1395.23 1615.84 1394.09 1617.12C1393.97 1617.25 1382.37 1630.37 1370.59 1657.79C1370.08 1658.97 1368.93 1659.67 1367.73 1659.67Z" fill="#242334"/>
<path d="M1393.49 1659.67C1393.06 1659.67 1392.63 1659.58 1392.21 1659.39C1390.65 1658.68 1389.96 1656.85 1390.67 1655.28C1402.25 1629.73 1413.83 1617.73 1414.32 1617.22C1415.51 1616 1417.47 1615.97 1418.71 1617.18C1419.93 1618.37 1419.96 1620.33 1418.76 1621.57C1418.65 1621.69 1407.41 1633.39 1396.32 1657.85C1395.8 1659 1394.67 1659.67 1393.49 1659.67Z" fill="#242334"/>
<path d="M1419 1659.67C1418.53 1659.67 1418.06 1659.56 1417.61 1659.35C1416.08 1658.57 1415.46 1656.71 1416.22 1655.17C1426.86 1633.9 1438.05 1623.88 1438.53 1623.47C1439.81 1622.34 1441.77 1622.47 1442.9 1623.75C1444.04 1625.03 1443.92 1626.99 1442.64 1628.13C1442.53 1628.23 1431.83 1637.86 1421.78 1657.94C1421.23 1659.04 1420.14 1659.67 1419 1659.67Z" fill="#242334"/>
<path d="M1353.5 789.051C1337.63 789.051 1327.62 773.498 1327.2 772.826C1326.28 771.377 1326.71 769.466 1328.16 768.548C1329.61 767.636 1331.53 768.061 1332.45 769.506C1332.53 769.646 1341.41 783.269 1354.14 782.831C1365.01 782.447 1376.42 771.776 1387.14 751.975C1387.82 750.724 1389.25 750.083 1390.64 750.443C1390.76 750.472 1403.33 753.462 1413.28 745.612C1422.07 738.667 1426.46 725.458 1426.31 706.353C1426.3 704.639 1427.67 703.238 1429.39 703.225C1429.4 703.225 1429.41 703.225 1429.41 703.225C1431.12 703.225 1432.51 704.598 1432.52 706.306C1432.68 727.478 1427.48 742.361 1417.05 750.544C1407.46 758.072 1396.34 757.588 1391.52 756.908C1379.81 777.798 1367.3 788.604 1354.31 789.04C1354.04 789.048 1353.77 789.051 1353.5 789.051Z" fill="#242334"/>
<path d="M1486.21 589.334C1448.51 583.576 1451.4 527.866 1489.47 525.612C1489.91 525.586 1490.36 525.563 1490.81 525.545C1536.18 523.73 1526.2 490.163 1572.47 500.143C1572.47 500.143 1566.47 442.079 1623.92 438.45C1681.35 434.822 1728.54 484.719 1728.54 484.719C1728.54 484.719 1743.41 459.317 1765.45 482.904C1787.51 506.493 1795.68 547.629 1782.98 564.71C1782.98 564.71 1797.72 578.808 1788.99 589.826C1780.25 600.845 1714.01 599.911 1714.01 599.911C1714.01 599.911 1719.47 638.294 1646.87 629.55C1646.87 629.55 1657.77 666.265 1604.22 663.948C1550.69 661.63 1484.46 655.28 1514.4 614.454C1534.13 587.56 1511.05 593.127 1486.21 589.334Z" fill="#F1E9E8"/>
<path d="M1428.33 1117.02C1428.33 1117.02 1401.71 1123.41 1420.4 1189.64C1426.63 1211.71 1432.2 1224.82 1436.87 1232.48C1442.4 1241.56 1445.69 1251.9 1445.33 1262.53C1445.14 1268.21 1445.84 1275.05 1448.17 1283.08C1456.33 1311.21 1473.57 1309.39 1473.57 1309.39C1473.57 1309.39 1459.96 1316.65 1459.05 1362.92C1458.15 1409.19 1431.24 1493.09 1456.49 1491.96C1481.74 1490.84 1497.16 1408.28 1497.16 1408.28C1497.16 1408.28 1515.31 1415.54 1517.12 1385.6C1518.94 1355.66 1538.9 1342.05 1522.57 1312.11C1522.57 1312.11 1560.74 1300.32 1528.94 1244.07C1497.16 1187.82 1485.37 1166.05 1468.13 1166.05C1468.13 1166.05 1451.15 1110.63 1428.33 1117.02Z" fill="#F1E9E8"/>
<path d="M1906.38 622.618C1906.38 622.618 1891.86 662.846 1934.5 664.052C1934.5 664.052 1907.28 687.937 1943.59 700.64C1979.88 713.341 1998.02 726.949 2027.97 700.64C2057.9 674.331 2092.38 675.724 2108.72 706.326C2125.04 736.928 2157.71 706.568 2199.45 706.326C2241.19 706.084 2267.49 650.742 2288.38 679.773C2309.24 708.804 2328.95 679.773 2328.95 679.773C2328.95 679.773 2367.06 711.101 2375.35 688.18C2383.64 665.259 2353.7 615.835 2298.34 610.153C2298.34 610.153 2300.17 582.622 2249.36 583.114C2198.54 583.606 2164.06 536.741 2119.6 564.71C2119.6 564.71 2086.94 527.358 2043.39 560.019C1999.83 592.679 1917.26 586.328 1906.38 622.618Z" fill="#F1E9E8"/>
<path d="M1089.12 475.335C1089.12 475.335 1066.86 457.502 1047.8 490.845C1028.75 524.186 1017.18 527.895 1026.03 552.237C1034.87 576.578 1006.82 608.909 1025.27 613.156C1043.72 617.403 1064.82 565.692 1064.82 565.692C1064.82 565.692 1084.07 575.898 1085.33 533.033C1085.33 533.033 1094.08 530.992 1107.69 503.775C1121.3 476.554 1111.39 453.022 1089.12 475.335Z" fill="#F1E9E8"/>
<path d="M2052.75 1015.33C2052.75 1015.33 2018.38 1023.53 2022.57 1065.66C2026.76 1107.79 2017.88 1121.43 2043.47 1130.64C2069.04 1139.85 2063.63 1189.78 2084.83 1175.38C2106.04 1160.97 2091.16 1103.63 2091.16 1103.63C2091.16 1103.63 2117.27 1092.78 2088.87 1060.61C2088.87 1060.61 2096.13 1050.85 2090.78 1018.3C2085.44 985.746 2059.37 978.121 2052.75 1015.33Z" fill="#F1E9E8"/>
<path d="M1157.15 670.734C1157.15 670.734 1135.91 566.575 1185.99 563.127C1236.06 559.678 1267.04 571.225 1266.62 606.951C1266.19 642.677 1277.87 648.005 1274.13 695.205C1270.4 742.405 1290.22 760.538 1232 775.141C1173.78 789.746 1145.84 753.462 1157.15 670.734Z" fill="#F5AF7D"/>
<path d="M1250.51 651.425C1245.67 661.615 1185.67 673.613 1185.67 673.613C1185.67 673.613 1242.68 669.126 1242.4 678.447C1242.09 690.376 1187.52 698.305 1187.52 698.305C1187.52 698.305 1236.28 698.514 1233.15 706.895C1228.67 718.893 1185.33 714.094 1173.4 725.849C1161.47 737.568 1144.91 753.636 1106.58 764.556C1085.61 770.502 1022.45 815.991 960.29 856.646C908.778 890.31 857.929 920.636 832.26 922.41C832.157 922.41 832.018 922.445 831.913 922.41C827.912 887.146 826.452 827.781 828.643 782.571C852.329 774.815 886.45 763.478 920.676 751.62C977.127 732.109 1033.99 711.104 1045.4 702.062C1067.35 684.673 1084.7 670.449 1127.83 638.768C1136.77 632.195 1146.89 627.257 1157.68 624.613C1198.34 614.632 1243.38 612.546 1241.67 621.379C1239.73 631.498 1185.4 643.358 1185.4 643.358C1185.4 643.358 1256.94 637.756 1250.51 651.425Z" fill="#F78D5D"/>
<path d="M1185.99 563.125C1185.99 563.125 1183.99 530.825 1217.15 520.866C1250.31 510.907 1264.02 478.038 1280.9 512.367C1297.79 546.695 1343.88 547.558 1327.29 584.466C1327.29 584.466 1342.56 596.634 1321.29 635.284C1300.01 673.933 1288.11 713.3 1273.66 705.674C1259.21 698.049 1267.95 656.296 1262.68 632.997C1257.41 609.696 1238.05 612.549 1231.94 588.093C1225.83 563.637 1191.34 591.46 1185.99 563.125Z" fill="#F1E9E8"/>
<path d="M960.29 856.643C908.778 890.307 857.929 920.633 832.26 922.407C832.157 922.407 832.018 922.442 831.913 922.407C827.912 887.143 826.452 827.778 828.643 782.568C852.329 774.813 886.45 763.476 920.676 751.617C929.544 775.474 948.153 825.344 960.29 856.643Z" fill="#D66134"/>
<path d="M459.588 523.395C558.232 571.368 630.843 546.347 658.213 510.662C658.213 510.662 551.068 472.159 615.834 383.43C628.7 365.803 610.65 348.572 607.542 335.786C607.52 335.567 607.457 335.374 607.401 335.147C594.643 284.038 542.336 291.221 542.336 291.221C542.336 291.221 497.175 412.133 404.52 422.542C404.52 422.542 360.919 475.38 459.588 523.395Z" fill="#F78D5D"/>
<path d="M455.205 256.377C456.369 270.094 460.876 284.035 467.581 296.231C467.577 296.266 467.61 296.271 467.639 296.311C479.415 317.785 489.414 353.005 508.479 352.544C552.647 315.405 678.401 280.799 678.401 280.799C678.401 280.799 722.794 263.095 703.356 208.985C694.756 185.106 691.33 170.765 684.995 160.769C684.995 160.769 684.995 160.769 684.966 160.73C684.966 160.73 684.937 160.69 684.873 160.646C676.886 148.079 664.202 142.401 630.738 133.162C570.628 116.593 575.665 110.494 548.881 128.291C548.881 128.291 535.427 108.145 518.253 126.129C501.074 144.146 483.937 139.06 476.976 176.064C470.014 213.067 451.996 218.47 455.205 256.377Z" fill="#6F361E"/>
<path d="M624.429 208.75C641.647 211.371 666.73 214.092 676.728 228.35C688.331 244.9 694.832 254.326 692.244 273.268C683.539 336.949 665.888 422.973 611.609 414.775C533.489 402.978 541.645 284.74 541.645 284.74L542.7 263.991C542.7 263.991 595.474 278.03 624.429 208.75Z" fill="#F78D5D"/>
<path d="M525.011 273.735C521.068 295.126 530.398 321.934 545.335 325.421C560.272 328.908 575.159 307.754 579.104 286.363C583.048 264.972 574.135 244.805 559.198 241.318C544.262 237.831 528.956 252.344 525.011 273.735Z" fill="#F78D5D"/>
<path d="M635.152 266.541C635.094 272.262 645.424 272.072 658.161 272.198C670.899 272.326 681.223 272.724 681.281 267.003C681.338 261.282 671.084 254.073 658.346 253.945C645.607 253.819 635.21 260.82 635.152 266.541Z" fill="#6F361E"/>
<path d="M644.573 292.944C642.586 300.832 645.474 308.359 651.024 309.757C656.573 311.154 662.682 305.892 664.668 298.005C666.656 290.117 663.767 282.59 658.218 281.192C652.668 279.793 646.559 285.055 644.573 292.944Z" fill="#232333"/>
<path d="M558.801 285.501C558.727 285.501 558.654 285.498 558.579 285.493C556.872 285.371 555.584 283.893 555.701 282.185C555.745 281.499 556.61 265.347 541.206 260.742C539.564 260.251 538.63 258.521 539.121 256.877C539.612 255.234 541.348 254.298 542.986 254.792C559.166 259.629 562.431 275.107 561.897 282.614C561.78 284.253 560.417 285.501 558.801 285.501Z" fill="#D66134"/>
<path d="M645.041 360.366C629.474 360.366 621.593 347.745 619.559 340.803C619.079 339.159 620.021 337.434 621.669 336.951C623.307 336.468 625.031 337.411 625.519 339.051C625.716 339.709 630.54 355.199 646.574 354.104C648.254 353.992 649.763 355.288 649.876 357.001C649.987 358.711 648.69 360.189 646.978 360.302C646.32 360.344 645.674 360.366 645.041 360.366Z" fill="#D66134"/>
<path d="M538.181 279.112C537.262 279.112 536.352 278.705 535.739 277.928C534.678 276.581 534.91 274.629 536.257 273.568L550.914 262.028C552.26 260.967 554.217 261.202 555.275 262.546C556.336 263.893 556.104 265.846 554.756 266.906L540.1 278.446C539.531 278.896 538.854 279.112 538.181 279.112Z" fill="#D66134"/>
<path d="M686.97 306.688C686.97 306.688 695.361 338.858 692.369 344.256C689.375 349.652 670.625 348.491 670.625 348.491L686.97 306.688Z" fill="#F78D5D"/>
<path d="M617.214 342.553C614.312 342.553 612.018 341.616 611.638 341.453C610.064 340.77 609.34 338.944 610.021 337.37C610.701 335.802 612.515 335.08 614.087 335.746C614.18 335.785 617.369 337.061 619.794 335.746C621.419 334.865 622.525 332.873 623.088 329.823C623.399 328.136 625.016 327.016 626.705 327.333C628.391 327.644 629.506 329.262 629.197 330.948C628.272 335.968 626.085 339.429 622.692 341.24C620.831 342.232 618.918 342.553 617.214 342.553Z" fill="#D66134"/>
<path d="M455.205 256.377C456.369 270.094 460.876 284.035 467.581 296.231C438.079 235.15 520.977 221.958 506.07 197.69C491.168 173.387 508.476 149.868 563.007 167.038C617.534 184.241 595.773 136.885 636.149 142.983C674.015 148.701 683.806 159.325 684.873 160.646C676.886 148.079 664.202 142.401 630.738 133.162C570.628 116.593 575.665 110.494 548.881 128.291C548.881 128.291 535.427 108.145 518.253 126.129C501.074 144.146 483.937 139.06 476.976 176.064C470.014 213.067 451.996 218.47 455.205 256.377Z" fill="#512414"/>
<path d="M498.961 154.292C498.961 154.292 506.469 111.139 475.303 80.0693C434.843 39.7347 376.647 77.0974 372.209 118.633C367.77 160.168 404.808 154.28 410.679 185.917C417.256 221.351 457.43 228.76 477.103 207.876C496.776 186.991 510.827 137.732 510.827 137.732L498.961 154.292Z" fill="#512414"/>
<path d="M578.698 403.672C577.883 403.672 577.067 403.352 576.458 402.715C545.327 370.246 546.561 335.762 546.626 334.311C546.707 332.6 548.135 331.265 549.868 331.356C551.578 331.432 552.906 332.883 552.831 334.595C552.817 334.925 551.741 367.961 580.939 398.419C582.126 399.656 582.085 401.622 580.846 402.808C580.245 403.385 579.471 403.672 578.698 403.672Z" fill="#D66134"/>
<path d="M84.5658 880.743C37.5472 969.613 -33.3114 1080.46 56.6058 1121.23C91.3104 1094.1 170.276 1129.94 279.298 1108.17C308.195 1102.39 333.681 1089.17 363.112 1087.67C731.835 1068.99 616.372 859.247 616.372 859.247C674.289 1019.03 776.708 942.377 847.987 952.361C866.448 954.948 884.513 945.055 891.753 927.878C915.727 870.999 876.865 779.436 897.421 759.603C886.371 734.612 838.677 777.045 828.691 758.103C818.705 739.162 815.691 746.964 793.939 739.092C776.29 732.705 775.808 710.491 772.412 655.79C770.332 622.286 762.566 589.291 748.816 558.666C732.823 523.047 719.265 512.651 691.148 506.418C652.217 497.786 611.609 472.904 611.609 472.904C464.883 480.105 404.52 422.541 404.52 422.541C404.52 422.541 313.772 423.151 279.299 432.671C244.827 442.192 220.73 465.331 149.001 551.39C77.2725 637.45 -16.722 707.221 4.24344 783.347C18.2081 834.055 84.5658 880.743 84.5658 880.743Z" fill="#A0BAD8"/>
<path d="M652.676 928.564C651.886 928.564 651.095 928.266 650.491 927.665C622.516 899.974 613.03 866.766 602.984 831.608C600.955 824.503 598.854 817.157 596.606 809.92C583.619 768.127 580.258 675.677 580.122 671.762C580.063 670.049 581.404 668.612 583.119 668.551C584.821 668.49 586.269 669.833 586.33 671.547C586.364 672.498 589.798 767.08 602.538 808.077C604.808 815.383 606.917 822.766 608.957 829.903C618.771 864.257 628.04 896.705 654.861 923.253C656.081 924.459 656.09 926.425 654.883 927.644C654.274 928.256 653.476 928.564 652.676 928.564Z" fill="#242334"/>
<path d="M28.0576 990.476C27.6034 990.476 27.1431 990.377 26.7071 990.166C25.1631 989.42 24.5169 987.563 25.2637 986.018C25.4466 985.64 44.0114 947.377 81.8558 879.236C105.597 836.488 112.982 806.222 120.802 774.18C125.605 754.496 130.572 734.141 139.495 709.359C163.023 644.002 213.158 553.2 213.661 552.29C214.492 550.792 216.387 550.249 217.883 551.077C219.385 551.907 219.927 553.797 219.097 555.298C218.595 556.203 168.697 646.577 145.339 711.462C136.529 735.932 131.601 756.125 126.837 775.652C118.914 808.111 111.433 838.771 87.285 882.251C49.5397 950.219 31.0389 988.347 30.8575 988.723C30.318 989.831 29.2099 990.476 28.0576 990.476Z" fill="#242334"/>
<path d="M78.0912 720.134C76.6204 720.134 75.3156 719.087 75.0413 717.589C74.7319 715.903 75.8476 714.285 77.5333 713.975C79.0149 713.706 114.096 707.389 140.901 713.713C142.57 714.106 143.604 715.778 143.21 717.447C142.816 719.116 141.132 720.155 139.475 719.756C113.96 713.744 79.0057 720.021 78.6536 720.082C78.4662 720.117 78.2772 720.134 78.0912 720.134Z" fill="#242334"/>
<path d="M731.833 793.544C730.369 793.544 729.064 792.504 728.784 791.012C728.467 789.328 729.576 787.704 731.263 787.387C790.398 776.276 810.984 760.315 811.185 760.155C812.525 759.093 814.479 759.307 815.546 760.642C816.616 761.977 816.407 763.924 815.075 764.997C814.218 765.688 793.393 782.033 732.41 793.49C732.216 793.527 732.022 793.544 731.833 793.544Z" fill="#242334"/>
<path d="M591.752 780.196C590.885 780.196 590.022 779.834 589.408 779.129C571.13 758.128 559.114 732.488 558.613 731.407C557.89 729.853 558.564 728.007 560.12 727.283C561.676 726.563 563.519 727.235 564.245 728.791C564.365 729.047 576.408 754.734 594.093 775.054C595.218 776.348 595.084 778.307 593.788 779.434C593.201 779.944 592.476 780.196 591.752 780.196Z" fill="#242334"/>
<path d="M838.392 899.095C837.563 899.095 836.736 898.764 836.123 898.109C834.952 896.855 835.019 894.89 836.274 893.72C865.284 866.629 860.859 795.183 860.813 794.465C860.698 792.756 861.993 791.274 863.703 791.16C865.42 791.058 866.895 792.34 867.009 794.05C867.215 797.102 871.679 869.154 840.514 898.259C839.914 898.816 839.151 899.095 838.392 899.095Z" fill="#242334"/>
<path d="M588.665 735.22C587.522 735.22 586.422 734.586 585.879 733.493C585.118 731.956 585.748 730.095 587.283 729.333C588.229 728.863 682.914 682.535 774.636 685.461C776.351 685.516 777.697 686.95 777.642 688.663C777.589 690.378 776.154 691.748 774.44 691.668C684.35 688.825 590.973 734.438 590.04 734.899C589.598 735.118 589.127 735.22 588.665 735.22Z" fill="#242334"/>
<path d="M176.874 633.695C176.076 633.695 175.277 633.389 174.67 632.776C135.844 593.649 121.415 583.756 121.274 583.662C119.852 582.702 119.478 580.772 120.438 579.352C121.397 577.931 123.328 577.552 124.749 578.517C125.346 578.921 139.825 588.848 179.078 628.405C180.286 629.621 180.278 631.587 179.06 632.796C178.457 633.395 177.664 633.695 176.874 633.695Z" fill="#242334"/>
<path d="M181.386 1050.81C180.778 1050.81 180.164 1050.64 179.626 1050.26C178.214 1049.29 177.859 1047.36 178.833 1045.95C190.196 1029.47 204.021 976.955 220.025 916.145C236.259 854.47 254.659 784.567 274.977 736.042C314.801 640.922 422.939 462.849 424.026 461.063C424.916 459.597 426.827 459.132 428.292 460.023C429.758 460.915 430.221 462.824 429.331 464.289C428.246 466.074 320.349 643.749 280.703 738.441C260.553 786.568 242.211 856.247 226.03 917.726C209.875 979.099 195.921 1032.1 183.942 1049.47C183.343 1050.35 182.372 1050.81 181.386 1050.81Z" fill="#242334"/>
<path d="M184.54 1049.89C165.047 1049.89 142.706 1048.21 117.639 1043.76C115.95 1043.46 114.825 1041.85 115.126 1040.16C115.424 1038.47 117.026 1037.33 118.726 1037.64C218.464 1055.34 275.687 1027.83 276.252 1027.55C277.792 1026.79 279.653 1027.42 280.414 1028.95C281.174 1030.49 280.551 1032.35 279.014 1033.11C277.219 1034 244.317 1049.89 184.54 1049.89Z" fill="#242334"/>
<path d="M279.292 639.588C277.661 639.588 276.291 638.314 276.196 636.665C276.094 634.953 277.402 633.484 279.113 633.384L354.247 628.978C355.988 628.863 357.43 630.183 357.529 631.895C357.631 633.606 356.323 635.075 354.612 635.176L279.478 639.582C279.415 639.586 279.353 639.588 279.292 639.588Z" fill="#242334"/>
<path d="M505.058 1016.2C503.883 1016.2 502.758 1015.53 502.235 1014.39C501.52 1012.83 502.202 1010.99 503.759 1010.27C567.483 980.975 578.211 914.892 578.313 914.228C578.57 912.534 580.133 911.359 581.847 911.623C583.542 911.879 584.708 913.459 584.454 915.154C584.348 915.851 573.199 985.181 506.355 1015.92C505.933 1016.11 505.492 1016.2 505.058 1016.2Z" fill="#242334"/>
<path d="M636.621 1686.92C635.963 1686.92 635.3 1686.7 634.736 1686.28C627.798 1680.97 623.958 1674.51 623.324 1667.07C622.08 1652.47 633.844 1639.61 634.346 1639.08C635.512 1637.81 637.475 1637.74 638.729 1638.91C639.987 1640.07 640.061 1642.03 638.9 1643.28C638.795 1643.4 628.49 1654.73 629.514 1666.57C629.998 1672.18 633.026 1677.15 638.507 1681.34C639.869 1682.37 640.128 1684.32 639.087 1685.68C638.479 1686.49 637.555 1686.92 636.621 1686.92Z" fill="#D66134"/>
<path d="M289.775 1643.82C289.117 1643.82 288.454 1643.6 287.89 1643.18C280.952 1637.87 277.112 1631.41 276.478 1623.97C275.235 1609.37 286.998 1596.51 287.5 1595.98C288.664 1594.71 290.627 1594.65 291.883 1595.81C293.141 1596.97 293.216 1598.93 292.054 1600.2C291.949 1600.31 281.644 1611.63 282.668 1623.47C283.153 1629.08 286.18 1634.05 291.661 1638.24C293.023 1639.27 293.283 1641.23 292.242 1642.6C291.633 1643.39 290.71 1643.82 289.775 1643.82Z" fill="#D66134"/>
<path d="M1161.63 650.625C1160.2 650.625 1158.91 649.625 1158.6 648.163C1158.24 646.487 1159.31 644.838 1160.99 644.483C1162.08 644.253 1188.03 638.838 1227.72 639.414C1229.44 639.44 1230.81 640.85 1230.78 642.564C1230.76 644.282 1229.19 645.633 1227.63 645.624C1188.72 645.016 1162.54 650.501 1162.28 650.556C1162.06 650.603 1161.85 650.625 1161.63 650.625Z" fill="#D66134"/>
<path d="M1172.52 677.841C1170.97 677.841 1169.63 676.689 1169.44 675.116C1169.23 673.414 1170.44 671.864 1172.14 671.653C1173.41 671.498 1203.49 667.824 1220.16 669.532C1221.86 669.706 1223.1 671.231 1222.93 672.937C1222.75 674.641 1221.24 675.907 1219.52 675.707C1203.57 674.083 1173.21 677.777 1172.9 677.817C1172.77 677.833 1172.64 677.841 1172.52 677.841Z" fill="#D66134"/>
<path d="M321.652 1415.95C309.824 1415.95 297.411 1415.36 284.343 1414.12C245.441 1409.27 215.456 1391.94 195.131 1362.61C141.094 1284.63 172.491 1149.89 173.853 1144.19C174.254 1142.52 175.931 1141.5 177.595 1141.89C179.263 1142.29 180.293 1143.96 179.894 1145.63C179.566 1147 147.785 1283.4 200.243 1359.09C219.518 1386.9 248.041 1403.34 285.02 1407.95C423.885 1421.06 487.912 1359.39 555.696 1294.07C574.679 1275.78 594.306 1256.87 615.985 1239.13C709.313 1155.68 768.972 995.746 769.563 994.142C770.156 992.531 771.941 991.711 773.551 992.301C775.159 992.893 775.985 994.68 775.392 996.287C774.794 997.907 714.617 1159.27 620.021 1243.84C598.435 1261.52 578.899 1280.34 560.007 1298.55C497.512 1358.76 438.158 1415.95 321.652 1415.95Z" fill="#242334"/>
<path d="M206.136 1393.37C78.9587 1393.37 49.9453 1330.45 48.7199 1327.64C48.0325 1326.07 48.7504 1324.24 50.3218 1323.55C51.8933 1322.87 53.7193 1323.58 54.4082 1325.15C54.7435 1325.9 86.3067 1393.21 225.215 1386.7C226.83 1386.6 228.381 1387.94 228.463 1389.65C228.544 1391.37 227.219 1392.82 225.506 1392.9C218.818 1393.22 212.347 1393.37 206.136 1393.37Z" fill="#242334"/>
<path d="M787.699 1041.63C787.539 1041.63 787.375 1041.62 787.214 1041.6L731.355 1032.85C729.66 1032.58 728.502 1030.99 728.767 1029.3C729.03 1027.6 730.634 1026.45 732.314 1026.71L788.176 1035.46C789.871 1035.73 791.027 1037.32 790.762 1039.01C790.521 1040.54 789.201 1041.63 787.699 1041.63Z" fill="#242334"/>
<path d="M731.835 1477.01C731.507 1477.01 731.175 1476.96 730.847 1476.85C729.223 1476.3 728.346 1474.54 728.89 1472.92C729.177 1472.06 758.013 1386.21 798.393 1277.19C838.673 1168.46 875.468 982.472 875.836 980.607C876.17 978.925 877.799 977.829 879.483 978.158C881.166 978.49 882.262 980.121 881.933 981.803C881.564 983.675 844.669 1170.15 804.218 1279.35C763.872 1388.27 735.068 1474.04 734.78 1474.89C734.344 1476.19 733.134 1477.01 731.835 1477.01Z" fill="#242334"/>
<path d="M782.25 1503.2C781.455 1503.2 780.66 1502.89 780.055 1502.29C728.648 1450.89 585.071 1468.96 583.628 1469.15C581.947 1469.38 580.369 1468.17 580.146 1466.47C579.925 1464.77 581.123 1463.21 582.824 1462.99C588.844 1462.21 730.902 1444.36 784.447 1497.89C785.661 1499.11 785.661 1501.07 784.447 1502.29C783.838 1502.89 783.044 1503.2 782.25 1503.2Z" fill="#242334"/>
<path d="M207.677 1148.54C120.034 1148.54 62.7358 1129.15 61.7024 1128.79C60.0852 1128.22 59.2317 1126.45 59.7971 1124.83C60.3641 1123.22 62.14 1122.36 63.7511 1122.93C65.6106 1123.58 252.05 1186.55 468.307 1082.24C469.848 1081.5 471.706 1082.14 472.454 1083.68C473.198 1085.23 472.552 1087.08 471.006 1087.83C372.334 1135.43 279.746 1148.54 207.677 1148.54Z" fill="#242334"/>
<path d="M961.045 267.164C961.04 267.164 961.036 267.164 961.031 267.164C959.316 267.156 957.932 265.762 957.94 264.046C958.082 230.306 957.243 206.656 956.573 187.652C955.599 160.14 954.957 141.963 957.742 115.126C958.702 105.881 961.382 97.6177 965.713 90.566C984.402 60.1239 1019.61 68.9098 1019.96 68.9997C1021.62 69.4325 1022.61 71.1257 1022.18 72.7839C1021.75 74.4405 1020.06 75.4524 1018.4 75.0089C1017.13 74.6828 987.253 67.3414 971.005 93.8136C967.166 100.068 964.782 107.452 963.919 115.764C961.179 142.174 961.816 160.177 962.781 187.431C963.455 206.49 964.293 230.207 964.151 264.072C964.142 265.783 962.753 267.164 961.045 267.164Z" fill="#242334"/>
<path d="M1010.6 222.565C979.585 222.565 967.396 190.538 967.256 190.153C966.664 188.546 967.487 186.766 969.096 186.173C970.708 185.58 972.488 186.404 973.083 188.009C973.682 189.625 988.212 227.423 1027.5 213.099C1029.11 212.509 1030.89 213.341 1031.48 214.954C1032.07 216.565 1031.24 218.346 1029.63 218.933C1022.63 221.484 1016.3 222.565 1010.6 222.565Z" fill="#242334"/>
<path d="M984.714 267.171C983.004 267.171 981.614 265.787 981.609 264.076C981.608 263.713 981.506 227.719 981.609 209.621C981.618 207.913 983.007 206.535 984.714 206.535C984.72 206.535 984.726 206.535 984.732 206.535C986.447 206.546 987.828 207.943 987.819 209.658C987.715 227.728 987.817 263.696 987.819 264.058C987.823 265.772 986.438 267.167 984.723 267.171C984.72 267.171 984.717 267.171 984.714 267.171Z" fill="#242334"/>
<path d="M1021.41 202.083C1009.49 202.083 1000.46 198.848 993.833 192.214C980.224 178.593 979.646 152.24 980.221 126.416C980.588 109.885 984.729 97.7736 992.535 90.4218C1000.17 83.2269 1008.49 83.4494 1008.85 83.4647C1010.56 83.5287 1011.9 84.9704 1011.83 86.6834C1011.77 88.3888 1010.3 89.739 1008.63 89.672C1007.69 89.6735 987.247 89.7177 986.43 126.555C985.885 151.038 986.346 175.936 998.228 187.826C1003.86 193.465 1011.91 196.127 1022.73 195.859C1024.45 195.893 1025.86 197.183 1025.9 198.898C1025.94 200.612 1024.58 202.031 1022.86 202.069C1022.37 202.077 1021.89 202.083 1021.41 202.083Z" fill="#242334"/>
<path d="M1007.37 118.703C1005.66 118.703 1004.27 117.313 1004.27 115.598V108.341C1004.27 106.626 1005.66 105.236 1007.37 105.236C1009.08 105.236 1010.47 106.626 1010.47 108.341V115.598C1010.47 117.313 1009.08 118.703 1007.37 118.703Z" fill="#242334"/>
<path d="M1002.99 160.436C1001.28 160.436 999.889 159.046 999.889 157.332V150.073C999.889 148.359 1001.28 146.969 1002.99 146.969C1004.71 146.969 1006.1 148.359 1006.1 150.073V157.332C1006.1 159.046 1004.71 160.436 1002.99 160.436Z" fill="#242334"/>
<path d="M1039.13 122.331C1037.41 122.331 1036.02 120.942 1036.02 119.227V111.97C1036.02 110.255 1037.41 108.865 1039.13 108.865C1040.84 108.865 1042.23 110.255 1042.23 111.97V119.227C1042.23 120.942 1040.84 122.331 1039.13 122.331Z" fill="#242334"/>
<path d="M1042.75 164.064C1041.04 164.064 1039.65 162.674 1039.65 160.96V153.702C1039.65 151.988 1041.04 150.598 1042.75 150.598C1044.47 150.598 1045.86 151.988 1045.86 153.702V160.96C1045.86 162.673 1044.47 164.064 1042.75 164.064Z" fill="#242334"/>
<path d="M1022.8 138.704C1021.08 138.704 1019.69 137.315 1019.69 135.6V128.343C1019.69 126.628 1021.08 125.238 1022.8 125.238C1024.51 125.238 1025.9 126.628 1025.9 128.343V135.6C1025.9 137.313 1024.51 138.704 1022.8 138.704Z" fill="#242334"/>
<path d="M1028.57 187.704C1026.85 187.704 1025.46 186.315 1025.46 184.6V177.343C1025.46 175.628 1026.85 174.238 1028.57 174.238C1030.28 174.238 1031.67 175.628 1031.67 177.343V184.6C1031.67 186.315 1030.28 187.704 1028.57 187.704Z" fill="#242334"/>
<path d="M973.417 268.165C959.397 268.165 948.488 264.376 947.805 264.134C946.19 263.561 945.345 261.787 945.917 260.173C946.49 258.558 948.261 257.712 949.88 258.28C950.113 258.366 973.385 266.4 994.458 258.309C996.054 257.694 997.854 258.492 998.47 260.096C999.084 261.696 998.286 263.493 996.684 264.107C988.756 267.15 980.669 268.165 973.417 268.165Z" fill="#242334"/>
<path d="M724.83 521.801C724.83 521.801 724.83 420.397 578.705 433.197C496.754 440.376 474.097 458.76 450.563 518.778C427.028 578.797 432.599 603.581 387.623 659.911C342.647 716.242 337.202 766.367 314.065 818.192C290.928 870.018 324.712 893.75 394.925 853.987C465.138 814.224 459.695 836.892 497.803 794.259C535.911 751.626 546.347 756.604 558.823 670.422C571.299 584.241 602.2 597.8 628.941 559.721C655.68 521.641 686.243 506.297 724.83 521.801Z" fill="#FFE8D9"/>
<path d="M317.511 846.137C317.511 846.137 308.587 858.992 302.435 891.132C296.283 923.273 278.42 954.512 291.244 962.021C304.069 969.532 310.94 953.734 310.614 927.656C310.289 901.579 319.744 860.415 321.113 857.273C322.483 854.13 317.511 846.137 317.511 846.137Z" fill="#FFE8D9"/>
<path d="M335.128 853.678C335.128 853.678 328.547 867.875 328.01 900.594C327.475 933.314 315.246 967.159 329.171 972.353C343.097 977.547 347.149 960.804 342.347 935.17C337.544 909.537 339.783 867.36 340.592 864.029C341.4 860.7 335.128 853.678 335.128 853.678Z" fill="#FFE8D9"/>
<path d="M357.418 850.896C357.418 850.896 352.397 865.718 355.374 898.306C358.351 930.894 349.823 965.854 364.225 969.526C378.627 973.197 380.86 956.116 373.335 931.145C365.812 906.174 363.513 864.002 363.96 860.603C364.406 857.204 357.418 850.896 357.418 850.896Z" fill="#FFE8D9"/>
<path d="M373.032 845.123C373.032 845.123 370.633 860.586 379.168 892.178C387.702 923.77 385.311 959.676 400.129 960.817C414.947 961.959 414.211 944.748 402.507 921.443C390.803 898.137 381.29 856.986 381.145 853.561C381 850.137 373.032 845.123 373.032 845.123Z" fill="#FFE8D9"/>
<path d="M403.773 829.334C403.773 829.334 400.048 844.533 405.823 876.743C411.599 908.953 406.116 944.519 420.781 946.934C435.445 949.352 436.198 932.141 426.55 907.912C416.901 883.683 410.977 841.864 411.128 838.44C411.28 835.017 403.773 829.334 403.773 829.334Z" fill="#FFE8D9"/>
<path d="M422.922 830.062C422.922 830.062 421.866 845.674 433.091 876.414C444.317 907.153 445.029 943.131 459.892 942.992C474.754 942.852 472.535 925.769 458.864 903.558C445.195 881.349 432.169 841.17 431.73 837.769C431.291 834.369 422.922 830.062 422.922 830.062Z" fill="#FFE8D9"/>
<path d="M442.733 819.479C442.733 819.479 443.357 835.115 457.815 864.472C472.274 893.829 476.84 929.524 491.602 927.792C506.364 926.059 502.327 909.311 486.353 888.695C470.379 868.078 453.121 829.528 452.319 826.196C451.519 822.865 442.733 819.479 442.733 819.479Z" fill="#FFE8D9"/>
<path d="M461.792 806.283C461.792 806.283 463.258 821.863 479.281 850.397C495.303 878.931 501.79 914.328 516.436 911.801C531.082 909.275 526.147 892.769 509.085 873.046C492.023 853.322 472.707 815.76 471.727 812.475C470.747 809.188 461.792 806.283 461.792 806.283Z" fill="#FFE8D9"/>
<path d="M486.573 779.938C486.573 779.938 483.346 795.249 490.17 827.254C496.994 859.258 492.676 894.984 507.412 896.919C522.148 898.855 522.337 881.629 511.902 857.729C501.467 833.828 494.18 792.226 494.22 788.798C494.261 785.372 486.573 779.938 486.573 779.938Z" fill="#FFE8D9"/>
<path d="M504.698 772.225C504.698 772.225 503.133 787.794 513.351 818.882C523.57 849.971 523.108 885.953 537.967 886.297C552.825 886.641 551.167 869.495 538.228 846.851C525.289 824.207 513.581 783.626 513.254 780.213C512.925 776.803 504.698 772.225 504.698 772.225Z" fill="#FFE8D9"/>
<path d="M520.878 757.002C520.878 757.002 522.012 772.609 537.422 801.479C552.831 830.348 558.562 865.874 573.259 863.662C587.955 861.447 583.373 844.842 566.735 824.758C550.097 804.675 531.587 766.708 530.679 763.404C529.769 760.099 520.878 757.002 520.878 757.002Z" fill="#FFE8D9"/>
<path d="M535.163 730.098C535.163 730.098 534.927 745.745 547.748 775.852C560.57 805.96 563.169 841.851 578.002 840.933C592.836 840.014 589.726 823.07 574.911 801.607C560.096 780.145 544.982 740.703 544.366 737.332C543.75 733.96 535.163 730.098 535.163 730.098Z" fill="#FFE8D9"/>
<path d="M408.427 821.298C408.121 821.298 407.808 821.251 407.502 821.155C405.865 820.646 404.95 818.904 405.461 817.267C411.872 796.699 427.336 775.923 443.708 753.929C462.524 728.648 481.982 702.509 488.486 675.218C492.514 658.312 493.301 646.474 493.993 636.027C495.363 615.373 496.268 601.729 522.811 573.056C535.03 559.855 544.671 546.485 553.993 533.556C574.096 505.678 593.083 479.343 633.924 459.869C654.75 449.941 673.085 447.985 688.414 454.049C708.015 461.807 715.229 479.808 715.526 480.571C716.15 482.167 715.36 483.968 713.761 484.591C712.17 485.213 710.367 484.425 709.742 482.83C709.611 482.505 703.037 466.472 686.045 459.79C672.402 454.425 655.764 456.336 636.599 465.474C597.189 484.262 578.654 509.971 559.03 537.188C549.597 550.269 539.845 563.796 527.368 577.273C502.319 604.332 501.518 616.417 500.189 636.436C499.515 646.599 498.675 659.245 494.526 676.658C487.725 705.191 467.88 731.85 448.689 757.635C432.642 779.194 417.485 799.556 411.388 819.112C410.975 820.444 409.748 821.296 408.427 821.298Z" fill="#242334"/>
<path d="M432.95 720.134C432.017 720.134 431.095 719.716 430.485 718.917C429.441 717.558 429.699 715.607 431.06 714.565C462.244 690.647 466.531 653.056 466.571 652.681C466.751 650.977 468.284 649.753 469.98 649.915C471.684 650.091 472.924 651.616 472.747 653.319C472.578 654.964 468.205 693.901 434.837 719.492C434.274 719.925 433.608 720.134 432.95 720.134Z" fill="#242334"/>
<path d="M420.317 611.161C419.679 611.161 419.034 610.966 418.481 610.558C417.1 609.541 416.803 607.598 417.818 606.218C418.139 605.78 450.387 561.922 483.325 517.965C487.347 512.597 491.303 507.068 495.124 501.725C523.87 461.54 550.998 423.564 618.223 429.469C619.93 429.619 621.195 431.124 621.044 432.834C620.896 434.542 619.383 435.811 617.68 435.654C554.04 430.086 527.862 466.633 500.176 505.339C496.332 510.712 492.359 516.266 488.295 521.69C455.374 565.624 423.143 609.458 422.822 609.897C422.213 610.723 421.273 611.161 420.317 611.161Z" fill="#242334"/>
<path d="M420.314 144.212C419.634 144.212 418.952 143.991 418.38 143.534C390.295 121.126 405.497 90.3338 405.654 90.0259C406.435 88.4989 408.307 87.8893 409.831 88.665C411.36 89.4422 411.969 91.3091 411.193 92.8377C410.629 93.9609 398.204 119.493 422.253 138.682C423.593 139.751 423.814 141.705 422.744 143.045C422.13 143.811 421.226 144.212 420.314 144.212Z" fill="#242334"/>
<path d="M474.647 207.374C473.919 207.374 473.186 207.119 472.596 206.598C471.308 205.465 471.186 203.503 472.32 202.216C492.38 179.458 491.965 150.435 491.959 150.144C491.92 148.429 493.278 147.009 494.994 146.971C496.681 146.862 498.129 148.29 498.169 150.005C498.199 151.291 498.626 181.764 476.978 206.323C476.367 207.017 475.509 207.374 474.647 207.374Z" fill="#242334"/>
<path d="M689.424 252.135C688.26 252.135 687.144 251.476 686.615 250.355C674.388 224.431 668.004 222.845 637.334 215.217C633.21 214.19 628.671 213.06 623.65 211.756C579.918 200.385 556.879 141.319 555.921 138.811C555.308 137.209 556.11 135.417 557.712 134.804C559.321 134.185 561.108 134.993 561.722 136.593C561.944 137.178 584.592 195.185 625.212 205.747C630.212 207.047 634.73 208.17 638.834 209.191C670.292 217.015 678.747 219.118 692.232 247.706C692.963 249.257 692.3 251.107 690.749 251.839C690.319 252.039 689.868 252.135 689.424 252.135Z" fill="#242334"/>
<path d="M510.821 247.984C509.638 247.984 508.507 247.302 507.989 246.155C507.285 244.591 507.978 242.753 509.542 242.046C537.49 229.427 549.104 203.29 549.22 203.028C549.902 201.454 551.728 200.727 553.305 201.417C554.878 202.1 555.599 203.929 554.916 205.502C554.413 206.663 542.21 234.111 512.1 247.706C511.682 247.894 511.249 247.984 510.821 247.984Z" fill="#242334"/>
<path d="M971.915 329.013C971.853 329.013 971.792 329.012 971.731 329.012L971.385 329.007C962.763 328.887 955.747 321.777 955.747 313.157V287.27C955.747 285.556 957.137 284.166 958.851 284.166C960.566 284.166 961.956 285.556 961.956 287.27V313.157C961.956 318.4 966.224 322.724 971.469 322.797L971.806 322.801C974.552 322.806 976.848 321.838 978.697 320.011C980.544 318.185 981.56 315.754 981.56 313.163V287.956C981.56 286.242 982.951 284.852 984.665 284.852C986.38 284.852 987.77 286.242 987.77 287.956V313.163C987.77 317.425 986.098 321.427 983.062 324.427C980.068 327.389 976.116 329.013 971.915 329.013Z" fill="#242334"/>
<path d="M973.302 292.477C960.26 292.477 950.835 286.591 950.273 286.232C948.828 285.307 948.404 283.388 949.328 281.943C950.252 280.501 952.172 280.079 953.614 280.997C954.358 281.468 970.973 291.695 989.788 282.336C991.323 281.573 993.187 282.198 993.952 283.734C994.714 285.27 994.089 287.132 992.554 287.897C985.724 291.293 979.149 292.477 973.302 292.477Z" fill="#242334"/>
</svg>
