<svg width="1818" height="1166" viewBox="0 0 1818 1166" fill="none" xmlns="http://www.w3.org/2000/svg">
<path d="M638.198 190.146C649.158 190.146 658.044 183.55 658.044 175.413C658.044 167.276 649.158 160.68 638.198 160.68C627.237 160.68 618.352 167.276 618.352 175.413C618.352 183.55 627.237 190.146 638.198 190.146Z" fill="#808198"/>
<path d="M667.071 172.689H610.707C604.107 172.689 598.707 167.289 598.707 160.689V30.1079C598.707 23.5079 604.107 18.1079 610.707 18.1079H667.071C673.671 18.1079 679.071 23.5079 679.071 30.1079V160.689C679.071 167.289 673.672 172.689 667.071 172.689Z" fill="#808198"/>
<path d="M642.326 64.6331C642.326 64.8161 642.235 67.8051 642.098 73.0311C641.87 81.5431 641.482 95.9421 640.957 113.558C640.774 119.149 640.592 125.036 640.387 131.197V131.38C640.387 131.586 640.364 131.814 640.364 132.087C640.067 141.215 639.748 150.845 639.406 160.725C639.246 164.673 639.109 168.666 638.949 172.683C638.949 173.094 638.926 173.504 638.903 173.915C638.721 179.3 646.224 183.537 646.019 188.945C645.688 197.298 648.87 211.347 637.253 214.986C636.672 228.203 636.052 240.965 635.389 252.619C635.001 259.442 634.659 266.904 634.294 274.754C631.487 335.796 627.63 419.407 595.09 439.145C590.298 442.066 585.027 443.526 579.368 443.526C573.549 443.526 567.274 441.974 560.633 438.894C531.355 425.339 517.322 343.577 518.942 195.889C519.741 123.779 524.236 50.6431 528.116 2.72211C530.466 2.08311 532.794 1.44412 535.144 0.828125C531.219 48.4981 526.587 122.752 525.788 195.98C524.259 336.639 537.654 420.706 563.509 432.687C574.576 437.821 583.75 438.027 591.531 433.303C620.968 415.458 624.87 330.592 627.472 274.434C627.837 266.561 628.179 259.077 628.567 252.231C629.64 233.245 630.621 211.293 631.488 189.249C631.693 183.978 631.899 178.729 632.081 173.504C632.104 173.23 632.104 172.956 632.127 172.683C632.264 168.849 632.401 165.061 632.515 161.296C634.34 110.112 635.458 65.1801 635.481 64.4731C635.527 62.5791 637.033 61.0041 638.972 61.1191C640.866 61.1871 642.372 62.7391 642.326 64.6331Z" fill="#808198"/>
<path d="M667.018 143.636C682.552 143.636 695.145 122.039 695.145 95.3981C695.145 68.757 682.552 47.1602 667.018 47.1602C651.483 47.1602 638.891 68.757 638.891 95.3981C638.891 122.039 651.483 143.636 667.018 143.636Z" fill="#808198"/>
<path d="M365.648 1011.81C365.648 1011.81 423.032 1056.55 507.861 1031.55C507.861 1031.55 507.389 928.587 365.648 1011.81Z" fill="#232333"/>
<path d="M147.855 969.089C147.855 969.089 172.635 1009.34 284.668 998.805C284.668 998.805 272.256 931.16 147.855 969.089Z" fill="#232333"/>
<path d="M498.919 975.881C498.919 975.881 468.713 1049.27 472.285 1063.56C475.857 1077.84 491.237 1109.99 531.262 1121.9C567.093 1132.55 572.012 1139.99 588.92 1143.46C594.599 1144.63 597.965 1150.97 595.036 1155.97C590.64 1163.48 577.176 1165.9 563.373 1164.2C544.071 1161.82 518.967 1170.93 471.344 1161.41C423.721 1151.88 390.765 1169.52 371.942 1150.47C353.119 1131.42 373.164 1109.69 382.915 1071.15C392.666 1032.6 406.907 967.119 406.907 967.119L498.919 975.881Z" fill="#F78D5D"/>
<path d="M270.561 963.977C270.561 963.977 232.986 1036.27 236.558 1050.56C240.13 1064.84 255.51 1096.99 295.535 1108.89C331.366 1119.55 336.285 1126.99 353.193 1130.46C358.872 1131.63 362.237 1137.96 359.309 1142.97C354.914 1150.48 341.449 1152.9 327.646 1151.2C308.344 1148.82 283.24 1157.93 235.617 1148.41C187.994 1138.88 155.038 1156.52 136.215 1137.47C117.392 1118.42 132.64 1095.15 147.188 1058.15C162.756 1018.55 183.293 950.979 183.293 950.979L270.561 963.977Z" fill="#F78D5D"/>
<path d="M194.897 837.36L147.855 969.089C147.855 969.089 239.71 962.713 284.668 998.805C284.668 998.805 385.994 819.595 405.882 775.805C425.77 732.016 395.374 727.089 395.374 727.089C395.374 727.089 230.697 686.732 194.897 837.36Z" fill="#1E4C37"/>
<path d="M283.789 617.943C283.789 617.943 563.263 525.58 615.933 574.795C641.184 598.39 605.355 707.151 573.732 811.073C539.394 923.915 507.862 1031.55 507.862 1031.55C507.862 1031.55 447.182 995.91 365.649 1011.81L405.426 814.645C405.426 814.645 395.922 826.493 356.259 859.543C287.902 927.061 212.003 945.609 147.856 911.934C143.385 910.135 116.672 912.359 102.737 909.781C56.7884 901.282 20.0464 871.172 20.4764 824.445C20.8144 787.71 33.8664 740.325 56.2454 679.107C118.123 509.843 283.789 617.943 283.789 617.943Z" fill="#2E7658"/>
<path d="M1028.21 718.087C1029.29 716.528 1034.24 714.711 1042.11 712.127C1038.74 708.703 1035.63 705.519 1032.92 702.881C1020.41 690.708 1010.52 676.292 999.404 662.924C994.024 658.994 988.418 655.343 982.629 651.918C964.061 645.162 944.569 640.161 924.523 636.411C901.226 634.161 897.357 572.429 873.578 571.886C886.818 600.421 878.703 665.588 888.644 696.142C898.369 726.031 891.708 781.218 910.733 812.352C929.758 843.486 928.391 882.093 913.849 945.607C899.307 1009.12 905.069 1016.59 873.784 1039.01C842.499 1061.43 832.67 1082.6 839.572 1085.09C844.504 1086.87 875.459 1086.1 892.725 1085.52C901.563 1085.23 910.576 1080.1 916.239 1072.22C921.644 1064.7 927.87 1053.52 932.601 1037.76C943.075 1002.89 961.542 938.554 972.312 907.832C983.082 877.11 1002.02 859.675 1004.45 827.295C1006.88 794.916 1024.49 723.453 1028.21 718.087Z" fill="#242334"/>
<path d="M1413.32 768.316C1377.82 743.856 1434.67 647.596 1467.03 544.596C1468.42 540.176 1469.52 535.898 1470.42 531.718C1452.68 537.496 1434.79 540.072 1416.75 539.412C1407.34 541.8 1397.96 544.667 1388.6 547.843C1361.33 559.304 1334.47 571.951 1307.73 585.633C1289.12 595.159 1270.53 604.604 1252.16 614.571C1264.59 647.391 1242.25 746.604 1270.21 778.716C1302.75 816.087 1345.11 837.794 1341.17 876.756C1337.23 915.718 1310.28 979.024 1302.6 1007.15C1294.91 1035.27 1274.88 1030.29 1259.01 1045.24C1243.13 1060.18 1230.3 1083.57 1244.65 1086.2C1255.3 1088.15 1288.57 1087.2 1305.01 1086.58C1311.09 1086.36 1317.3 1082.82 1321.13 1077.37C1327.73 1067.99 1337.95 1051.41 1346.15 1029.05C1359.4 992.931 1390.85 888.21 1406.69 857.131C1422.52 826.051 1448.82 792.776 1413.32 768.316Z" fill="#242334"/>
<path d="M1343.93 384.292C1265.39 384.64 1268.5 376.472 1226.86 384.292C1185.22 392.112 1145.99 383.944 1093.68 378.542C1041.37 373.14 909.052 348.856 909.052 348.856L843.243 448.693C843.243 448.693 829.61 571.887 892.221 619.32C922.84 642.516 895.976 708.121 919.833 710.422C943.69 712.723 940.462 781.219 959.486 812.353C978.51 843.487 977.144 882.094 962.602 945.608C948.06 1009.12 953.822 1016.59 922.537 1039.01C891.252 1061.43 881.423 1082.6 888.325 1085.09C893.257 1086.87 924.212 1086.11 941.478 1085.52C950.316 1085.23 959.33 1080.1 964.992 1072.22C970.397 1064.7 976.622 1053.52 981.354 1037.76C991.828 1002.89 1010.29 938.555 1021.06 907.833C1031.83 877.112 1050.77 859.676 1053.2 827.297C1055.63 794.917 1073.24 723.454 1076.96 718.089C1080.68 712.723 1129.91 704.376 1188.43 671.811C1246.95 639.246 1316.7 595.658 1347.09 604.376C1377.47 613.094 1341.88 741.346 1374.42 778.718C1406.96 816.09 1449.32 837.796 1445.38 876.758C1441.44 915.72 1414.49 979.026 1406.81 1007.15C1399.12 1035.28 1379.09 1030.29 1363.22 1045.24C1347.34 1060.18 1334.51 1083.57 1348.86 1086.2C1359.51 1088.15 1392.8 1087.2 1409.23 1086.59C1415.31 1086.36 1421.5 1082.83 1425.33 1077.39C1431.93 1068 1442.16 1051.42 1450.36 1029.05C1463.61 992.933 1495.06 888.212 1510.9 857.133C1526.73 826.054 1553.03 792.779 1517.53 768.319C1482.03 743.859 1538.88 647.599 1571.24 544.6C1621.73 383.943 1343.93 384.292 1343.93 384.292Z" fill="#4F5160"/>
<path d="M929.527 378.159C962.2 419.4 882.507 449.597 871.149 488.194C859.794 526.815 844.627 511.97 844.627 511.97C844.949 541.982 825.457 547.566 816.464 518.399C807.447 489.234 771.383 465.121 762.325 488.491C753.291 511.859 732.979 508.77 732.979 508.77C735.498 548.572 711.66 534.571 711.66 534.571C712.096 565.795 689.281 549.18 675.555 562.994C663.144 575.509 654.663 553.774 643.063 550.531C641.856 550.19 640.619 550.043 639.336 550.164C634.56 550.616 630.894 549.884 628.15 548.753C623.159 546.684 620.261 541.395 620.905 536.036C621.473 531.139 623.568 523.892 629.733 514.797C630.539 513.69 631.369 512.58 632.173 511.449C650.241 486.507 668.172 456.063 670.208 427.147C672.36 396.925 676.19 397.618 686.703 376.699C697.241 355.802 689.272 311.097 754.646 301.364C820.019 291.631 839.971 317.268 877.865 321.188C915.758 325.108 938.425 326.728 929.69 340.07C929.688 340.07 948.077 349.431 929.527 378.159Z" fill="#4F5160"/>
<path d="M1522.33 435.657C1522.33 435.657 1575.08 445.197 1602.96 503.363C1630.84 561.529 1640.93 581.551 1669.02 598.377C1697.1 615.202 1735.21 606.151 1727.4 633.256C1727.4 633.256 1745.35 636.903 1766.5 655.968C1787.65 675.033 1825.88 676.968 1816.16 707.49C1806.45 738.012 1719.48 709.045 1719.48 709.045C1719.48 709.045 1722.16 736.58 1695.88 715.953C1695.88 715.953 1698.05 745.097 1654.65 692.332C1611.26 639.567 1602.68 646.23 1578.76 581.737C1554.84 517.244 1522.33 435.657 1522.33 435.657Z" fill="#4F5160"/>
<path d="M808.768 475.857C805.276 475.857 802.206 474.884 799.601 472.947C794.683 469.289 792.764 463.111 792.034 459.425C789.304 460.572 786.758 460.696 784.43 459.787C776.76 456.794 773.212 443.417 768.72 426.481C766.293 417.332 763.542 406.961 759.846 397.577C755.435 386.376 750.011 379.624 744.159 378.053C739.021 376.669 735.148 379.675 734.987 379.805C734.11 380.503 732.828 380.362 732.127 379.489C731.425 378.615 731.556 377.342 732.426 376.635C732.649 376.455 737.979 372.217 745.133 374.096C752.418 376.008 758.643 383.406 763.637 396.085C767.418 405.688 770.202 416.18 772.657 425.436C776.519 439.996 780.167 453.749 785.91 455.99C787.739 456.703 789.906 456.233 792.539 454.555C793.147 454.169 793.912 454.132 794.552 454.456C795.194 454.779 795.617 455.42 795.666 456.137C795.673 456.229 796.366 465.477 802.045 469.685C804.84 471.757 808.5 472.291 812.92 471.269C823.585 468.808 833.452 461.852 838.67 453.118C842.761 446.269 843.837 438.673 841.781 431.15C838.854 420.449 842.852 416.872 846.064 413.998C849.516 410.909 852.496 408.243 846.509 394.448C846.208 393.753 846.317 392.948 846.792 392.358C846.96 392.144 851.066 386.781 849.123 377.319C846.81 366.053 835.571 347.995 795.17 325.937C794.182 325.398 793.818 324.159 794.357 323.173C794.897 322.186 796.137 321.823 797.122 322.36C839.063 345.258 850.743 364.548 853.156 376.699C854.916 385.562 852.1 391.546 850.688 393.858C856.731 408.312 853.557 412.763 848.783 417.035C845.804 419.701 843.45 421.806 845.711 430.077C848.068 438.695 846.843 447.385 842.169 455.209C836.402 464.862 825.546 472.538 813.838 475.241C812.061 475.652 810.37 475.856 808.768 475.857Z" fill="#242334"/>
<path d="M931.968 415.124C931.608 415.124 931.244 415.028 930.913 414.829C929.951 414.245 929.644 412.993 930.228 412.031C945.721 386.498 914.298 361.653 913.979 361.404C913.09 360.714 912.929 359.434 913.62 358.546C914.309 357.657 915.591 357.494 916.478 358.187C916.826 358.457 951.067 385.543 933.712 414.144C933.328 414.775 932.656 415.124 931.968 415.124Z" fill="#242334"/>
<path d="M714.551 376.105C714.151 376.105 713.747 375.988 713.394 375.743C712.469 375.103 712.237 373.834 712.878 372.909C713.047 372.662 730.195 348.469 755.98 363.178C756.958 363.735 757.298 364.98 756.741 365.956C756.183 366.935 754.938 367.273 753.962 366.717C731.379 353.844 716.836 374.348 716.228 375.226C715.833 375.799 715.197 376.105 714.551 376.105Z" fill="#242334"/>
<path d="M643.063 550.532C641.856 550.191 640.619 550.044 639.336 550.165C634.56 550.617 630.894 549.885 628.15 548.754C623.159 546.685 620.261 541.396 620.905 536.037C621.473 531.14 623.568 523.893 629.733 514.798C630.539 513.691 631.369 512.581 632.173 511.45C638.958 519.559 650.168 536.169 643.063 550.532Z" fill="#242334"/>
<path d="M720.981 412.065C725.829 420.535 725.767 429.686 720.842 432.505C715.917 435.324 707.995 430.743 703.147 422.274C698.299 413.805 698.361 404.653 703.286 401.834C708.211 399.015 716.133 403.595 720.981 412.065Z" fill="#242334"/>
<path d="M720.399 538.907C715.321 538.907 710.931 536.499 710.665 536.35C709.683 535.8 709.331 534.559 709.88 533.576C710.431 532.597 711.669 532.246 712.651 532.791C712.768 532.856 720.12 536.837 725.31 533.491C730.042 530.441 731.991 521.948 730.948 508.933C727.713 468.566 744.242 459.361 744.948 458.988C745.946 458.463 747.175 458.845 747.701 459.838C748.226 460.834 747.846 462.065 746.851 462.591C746.72 462.665 732.016 471.245 735.009 508.606C736.198 523.439 733.669 532.969 727.494 536.93C725.207 538.399 722.73 538.907 720.399 538.907Z" fill="#242334"/>
<path d="M848.38 395.677C847.606 395.677 846.865 395.233 846.524 394.482C838.922 377.743 828.538 369.578 828.434 369.498C827.545 368.81 827.382 367.53 828.071 366.64C828.759 365.75 830.04 365.586 830.929 366.277C831.386 366.63 842.219 375.148 850.235 392.797C850.7 393.822 850.247 395.029 849.222 395.495C848.948 395.618 848.662 395.677 848.38 395.677Z" fill="#242334"/>
<path d="M843.686 523.203C842.079 523.203 840.612 522.801 839.288 521.996C831.47 517.241 832.802 500.168 832.98 498.236C833.084 497.118 834.057 496.291 835.194 496.395C836.314 496.497 837.139 497.489 837.036 498.609C836.65 502.85 836.623 515.609 841.406 518.515C843.435 519.749 846.453 519.103 850.373 516.593C851.318 515.984 852.58 516.263 853.188 517.21C853.795 518.158 853.518 519.418 852.571 520.025C849.267 522.143 846.294 523.203 843.686 523.203Z" fill="#242334"/>
<path d="M883.502 396.731C882.544 396.731 881.689 396.053 881.502 395.077C879.129 382.699 872.651 371.693 872.586 371.583C872.012 370.616 872.331 369.367 873.298 368.792C874.263 368.218 875.513 368.533 876.088 369.501C876.369 369.972 882.993 381.21 885.503 394.311C885.715 395.415 884.991 396.484 883.885 396.694C883.757 396.719 883.63 396.731 883.502 396.731Z" fill="#242334"/>
<path d="M1065.42 761.067C1065.29 761.067 1065.17 761.056 1065.04 761.031C1063.93 760.823 1063.21 759.758 1063.41 758.651C1074.81 698.279 1102.4 643.455 1102.68 642.908C1103.18 641.906 1104.41 641.504 1105.41 642.014C1106.42 642.522 1106.82 643.749 1106.31 644.753C1106.03 645.294 1078.7 699.623 1067.42 759.408C1067.24 760.385 1066.38 761.067 1065.42 761.067Z" fill="#242334"/>
<path d="M1527.98 663.255C1527.71 663.255 1527.45 663.204 1527.2 663.099C1526.16 662.667 1525.66 661.475 1526.09 660.436C1582.77 523.827 1569.91 483.619 1569.77 483.229C1569.4 482.167 1569.96 481.005 1571.02 480.633C1572.09 480.263 1573.25 480.822 1573.62 481.883C1574.2 483.536 1587.13 523.96 1529.86 661.999C1529.53 662.781 1528.77 663.255 1527.98 663.255Z" fill="#242334"/>
<path d="M1721.51 635.452C1671.58 635.452 1642.92 601.46 1642.63 601.103C1641.91 600.236 1642.04 598.952 1642.9 598.236C1643.78 597.521 1645.06 597.645 1645.77 598.508C1646.07 598.864 1675.79 633.996 1727.3 631.222C1728.4 631.164 1729.38 632.022 1729.44 633.147C1729.5 634.27 1728.64 635.23 1727.51 635.291C1725.48 635.4 1723.48 635.452 1721.51 635.452Z" fill="#242334"/>
<path d="M1749.93 719.156C1749.78 719.156 1749.64 719.14 1749.49 719.107C1704.93 709.209 1697.37 692.806 1697.07 692.112C1696.63 691.079 1697.1 689.88 1698.14 689.433C1699.17 688.99 1700.36 689.457 1700.81 690.476C1700.92 690.72 1708.39 705.802 1750.37 715.129C1751.47 715.373 1752.16 716.461 1751.92 717.559C1751.71 718.511 1750.86 719.156 1749.93 719.156Z" fill="#242334"/>
<path d="M1781 713.359C1780.48 713.359 1779.96 713.161 1779.56 712.766C1770.15 703.407 1756.36 701.61 1756.22 701.593C1755.1 701.455 1754.31 700.437 1754.45 699.321C1754.59 698.205 1755.6 697.425 1756.72 697.548C1757.34 697.626 1772.05 699.546 1782.43 709.877C1783.23 710.671 1783.23 711.96 1782.44 712.758C1782.04 713.16 1781.52 713.359 1781 713.359Z" fill="#242334"/>
<path d="M1652.32 632.074C1651.9 632.074 1651.48 631.947 1651.12 631.681C1635.43 620.205 1618.59 598.861 1617.88 597.958C1617.19 597.073 1617.34 595.792 1618.23 595.097C1619.11 594.402 1620.39 594.56 1621.09 595.441C1621.26 595.658 1638.29 617.252 1653.53 628.392C1654.43 629.057 1654.63 630.331 1653.97 631.239C1653.57 631.785 1652.95 632.074 1652.32 632.074Z" fill="#242334"/>
<path d="M1508.96 829.29C1508.61 829.29 1508.24 829.196 1507.91 828.999C1506.95 828.42 1506.64 827.169 1507.22 826.204C1521.3 802.734 1510.23 789.566 1509.75 789.017C1509.01 788.171 1509.09 786.886 1509.94 786.146C1510.78 785.404 1512.06 785.483 1512.8 786.319C1513.37 786.953 1526.4 802.141 1510.71 828.301C1510.33 828.937 1509.65 829.29 1508.96 829.29Z" fill="#242334"/>
<path d="M1369.87 629.056C1368.82 629.056 1367.94 628.259 1367.84 627.2C1361.95 561.212 1306.48 557.014 1305.92 556.98C1304.8 556.91 1303.94 555.943 1304.01 554.82C1304.08 553.699 1305.07 552.832 1306.17 552.913C1306.77 552.95 1365.7 557.402 1371.9 626.838C1372 627.959 1371.17 628.948 1370.05 629.048C1369.99 629.053 1369.93 629.056 1369.87 629.056Z" fill="#242334"/>
<path d="M1185.14 467.695C1184.12 467.695 1183.23 466.929 1183.12 465.89C1182.99 464.773 1183.79 463.762 1184.91 463.633C1191.33 462.895 1195.62 460.756 1197.67 457.277C1200.65 452.209 1198.02 445.68 1197.99 445.614C1197.74 445.015 1197.79 444.332 1198.13 443.778C1198.46 443.225 1199.04 442.861 1199.69 442.802C1212.73 441.629 1221.58 432.736 1221.66 425.165C1221.75 417.549 1213.14 412.029 1198.65 410.397C1159.35 405.974 1150.47 402.389 1150.11 402.239C1149.07 401.804 1148.58 400.61 1149.02 399.572C1149.45 398.538 1150.64 398.048 1151.67 398.476C1151.79 398.522 1160.84 402.042 1199.11 406.349C1223.3 409.072 1225.79 420.446 1225.74 425.21C1225.62 435.248 1215.43 444.434 1202.54 446.545C1203.28 449.536 1203.9 454.706 1201.2 459.313C1198.47 463.971 1193.15 466.786 1185.37 467.681C1185.29 467.691 1185.21 467.695 1185.14 467.695Z" fill="#242334"/>
<path d="M1147.08 508.065C1142.58 508.065 1139.38 507.665 1138.99 507.614C1137.88 507.467 1137.09 506.444 1137.24 505.329C1137.38 504.213 1138.4 503.431 1139.52 503.573C1139.79 503.61 1166.77 506.959 1175.6 493.28C1176.21 492.335 1177.48 492.065 1178.42 492.673C1179.37 493.284 1179.64 494.544 1179.03 495.49C1172.08 506.262 1156.63 508.065 1147.08 508.065Z" fill="#242334"/>
<path d="M904.564 616.371C903.658 616.371 903.096 616.287 902.944 616.262C901.835 616.072 901.09 615.019 901.279 613.91C901.467 612.807 902.505 612.064 903.614 612.242C903.997 612.301 931.578 615.457 950.579 544.784C950.871 543.699 951.991 543.055 953.076 543.346C954.162 543.638 954.806 544.756 954.514 545.843C936.777 611.812 911.265 616.371 904.564 616.371Z" fill="#242334"/>
<path d="M931.909 703.467C931.889 703.467 931.874 703.467 931.863 703.467C930.738 703.447 929.842 702.52 929.86 701.395C929.879 700.277 930.806 699.419 931.91 699.392C932.426 699.386 943.369 698.964 943.902 675.655C943.928 674.53 944.852 673.6 945.985 673.665C947.11 673.69 948.001 674.623 947.975 675.748C947.355 702.935 933.004 703.467 931.909 703.467Z" fill="#242334"/>
<path d="M1403.25 772.984C1399.24 772.984 1396.86 772.274 1396.55 772.177C1395.48 771.836 1394.89 770.69 1395.23 769.618C1395.57 768.548 1396.7 767.95 1397.78 768.291C1398.09 768.386 1420.59 774.72 1449.47 741.805C1450.22 740.958 1451.51 740.876 1452.35 741.618C1453.2 742.36 1453.28 743.647 1452.54 744.493C1430.93 769.11 1412.63 772.984 1403.25 772.984Z" fill="#242334"/>
<path d="M1510.75 520.941C1510.08 520.941 1509.42 520.607 1509.03 519.994C1508.43 519.044 1508.71 517.786 1509.66 517.183C1528.74 505.095 1521.23 484.153 1520.9 483.268C1520.51 482.214 1521.05 481.042 1522.1 480.649C1523.15 480.254 1524.32 480.787 1524.72 481.841C1524.81 482.088 1533.75 506.745 1511.84 520.626C1511.5 520.838 1511.13 520.941 1510.75 520.941Z" fill="#242334"/>
<path d="M1352.79 1089.01C1352.52 1089.01 1352.25 1088.96 1351.98 1088.85C1350.95 1088.4 1350.47 1087.2 1350.92 1086.17C1358.94 1067.5 1366.72 1058.73 1367.05 1058.37C1367.8 1057.53 1369.09 1057.46 1369.92 1058.22C1370.76 1058.97 1370.83 1060.25 1370.08 1061.09C1370 1061.18 1362.39 1069.79 1354.66 1087.78C1354.33 1088.55 1353.58 1089.01 1352.79 1089.01Z" fill="#242334"/>
<path d="M1369.69 1089.01C1369.41 1089.01 1369.12 1088.95 1368.85 1088.83C1367.82 1088.36 1367.37 1087.16 1367.83 1086.13C1375.43 1069.37 1383.03 1061.49 1383.35 1061.16C1384.14 1060.36 1385.43 1060.35 1386.23 1061.13C1387.04 1061.92 1387.05 1063.2 1386.27 1064.01C1386.2 1064.09 1378.82 1071.77 1371.55 1087.82C1371.2 1088.57 1370.46 1089.01 1369.69 1089.01Z" fill="#242334"/>
<path d="M1386.43 1089.01C1386.12 1089.01 1385.81 1088.94 1385.52 1088.8C1384.51 1088.29 1384.1 1087.07 1384.61 1086.06C1391.59 1072.1 1398.93 1065.53 1399.24 1065.26C1400.08 1064.52 1401.37 1064.6 1402.11 1065.44C1402.86 1066.28 1402.78 1067.57 1401.94 1068.32C1401.87 1068.38 1394.84 1074.7 1388.25 1087.88C1387.89 1088.6 1387.17 1089.01 1386.43 1089.01Z" fill="#242334"/>
<path d="M897.342 1089.01C897.073 1089.01 896.801 1088.96 896.538 1088.85C895.504 1088.4 895.027 1087.2 895.471 1086.17C903.496 1067.5 911.274 1058.73 911.602 1058.37C912.355 1057.53 913.64 1057.47 914.477 1058.22C915.314 1058.97 915.383 1060.25 914.634 1061.09C914.557 1061.18 906.946 1069.79 899.216 1087.78C898.883 1088.55 898.132 1089.01 897.342 1089.01Z" fill="#242334"/>
<path d="M914.244 1089.01C913.963 1089.01 913.677 1088.95 913.403 1088.83C912.378 1088.36 911.925 1087.16 912.389 1086.13C919.988 1069.37 927.587 1061.49 927.907 1061.16C928.691 1060.36 929.978 1060.34 930.786 1061.13C931.591 1061.91 931.607 1063.2 930.823 1064.01C930.749 1064.09 923.373 1071.77 916.1 1087.82C915.76 1088.57 915.019 1089.01 914.244 1089.01Z" fill="#242334"/>
<path d="M930.977 1089.01C930.672 1089.01 930.36 1088.94 930.068 1088.8C929.061 1088.29 928.653 1087.07 929.157 1086.06C936.137 1072.1 943.48 1065.53 943.789 1065.26C944.633 1064.52 945.918 1064.6 946.661 1065.44C947.406 1066.28 947.328 1067.57 946.487 1068.32C946.417 1068.38 939.396 1074.7 932.802 1087.88C932.444 1088.6 931.725 1089.01 930.977 1089.01Z" fill="#242334"/>
<path d="M888.004 517.745C877.595 517.745 871.028 507.54 870.748 507.099C870.148 506.148 870.432 504.894 871.381 504.292C872.33 503.693 873.589 503.972 874.192 504.92C874.25 505.012 880.074 513.951 888.423 513.664C895.555 513.412 903.043 506.41 910.079 493.417C910.522 492.596 911.461 492.176 912.371 492.412C912.45 492.431 920.7 494.393 927.223 489.242C932.996 484.685 935.873 476.018 935.774 463.482C935.765 462.357 936.67 461.438 937.795 461.429C937.8 461.429 937.806 461.429 937.811 461.429C938.929 461.429 939.839 462.33 939.848 463.451C939.957 477.343 936.543 487.109 929.7 492.478C923.405 497.418 916.109 497.1 912.947 496.654C905.27 510.361 897.062 517.452 888.537 517.738C888.359 517.743 888.181 517.745 888.004 517.745Z" fill="#242334"/>
<path d="M975.072 386.699C950.338 382.921 952.233 346.366 977.211 344.887C977.502 344.87 977.796 344.855 978.094 344.843C1007.86 343.652 1001.31 321.627 1031.67 328.175C1031.67 328.175 1027.73 290.076 1065.42 287.695C1103.1 285.314 1134.06 318.055 1134.06 318.055C1134.06 318.055 1143.82 301.387 1158.28 316.864C1172.75 332.342 1178.11 359.334 1169.78 370.542C1169.78 370.542 1179.45 379.792 1173.72 387.022C1167.99 394.252 1124.53 393.639 1124.53 393.639C1124.53 393.639 1128.11 418.825 1080.48 413.087C1080.48 413.087 1087.63 437.178 1052.5 435.658C1017.38 434.137 973.927 429.97 993.571 403.182C1006.51 385.535 991.372 389.188 975.072 386.699Z" fill="#F1E9E8"/>
<path d="M937.102 732.947C937.102 732.947 919.632 737.139 931.897 780.595C935.985 795.08 939.642 803.679 942.701 808.706C946.328 814.666 948.489 821.449 948.253 828.422C948.127 832.151 948.585 836.643 950.114 841.91C955.472 860.364 966.782 859.173 966.782 859.173C966.782 859.173 957.853 863.935 957.257 894.295C956.662 924.655 939.009 979.709 955.574 978.97C972.139 978.231 982.259 924.06 982.259 924.06C982.259 924.06 994.165 928.822 995.355 909.178C996.546 889.533 1009.64 880.604 998.927 860.959C998.927 860.959 1023.97 853.22 1003.11 816.312C982.259 779.404 974.52 765.117 963.21 765.117C963.21 765.117 952.069 728.755 937.102 732.947Z" fill="#F1E9E8"/>
<path d="M1250.74 408.539C1250.74 408.539 1241.21 434.935 1269.19 435.726C1269.19 435.726 1251.33 451.399 1275.15 459.734C1298.96 468.068 1310.86 476.997 1330.51 459.734C1350.15 442.471 1372.77 443.385 1383.49 463.465C1394.2 483.545 1415.63 463.624 1443.02 463.465C1470.4 463.306 1487.66 426.993 1501.36 446.042C1515.05 465.091 1527.98 446.042 1527.98 446.042C1527.98 446.042 1552.98 466.598 1558.42 451.558C1563.86 436.518 1544.22 404.088 1507.9 400.36C1507.9 400.36 1509.1 382.295 1475.76 382.618C1442.42 382.941 1419.8 352.19 1390.63 370.542C1390.63 370.542 1369.2 346.033 1340.63 367.464C1312.05 388.894 1257.88 384.727 1250.74 408.539Z" fill="#F1E9E8"/>
<path d="M714.553 311.897C714.553 311.897 699.944 300.196 687.443 322.074C674.942 343.951 667.352 346.385 673.156 362.357C678.96 378.329 660.552 399.543 672.658 402.33C684.764 405.117 698.605 371.186 698.605 371.186C698.605 371.186 711.235 377.883 712.063 349.756C712.063 349.756 717.803 348.417 726.732 330.558C735.662 312.697 729.162 297.256 714.553 311.897Z" fill="#F1E9E8"/>
<path d="M1346.77 666.22C1346.77 666.22 1324.22 671.6 1326.97 699.246C1329.72 726.892 1323.89 735.838 1340.68 741.883C1357.46 747.927 1353.91 780.688 1367.82 771.238C1381.73 761.787 1371.97 724.163 1371.97 724.163C1371.97 724.163 1389.1 717.042 1370.47 695.933C1370.47 695.933 1375.23 689.53 1371.72 668.17C1368.22 646.809 1351.11 641.806 1346.77 666.22Z" fill="#F1E9E8"/>
<path d="M759.185 440.11C759.185 440.11 745.251 371.765 778.103 369.502C810.955 367.239 831.279 374.816 831.002 398.258C830.725 421.7 838.387 425.196 835.935 456.167C833.483 487.138 846.49 499.036 808.291 508.618C770.092 518.201 751.763 494.393 759.185 440.11Z" fill="#F5AF7D"/>
<path d="M820.433 427.44C817.261 434.126 777.898 441.999 777.898 441.999C777.898 441.999 815.299 439.055 815.117 445.171C814.911 452.998 779.108 458.201 779.108 458.201C779.108 458.201 811.101 458.338 809.047 463.837C806.104 471.71 777.67 468.561 769.843 476.274C762.016 483.964 751.154 494.507 726.007 501.672C712.247 505.574 670.807 535.422 630.028 562.098C596.232 584.187 562.871 604.086 546.03 605.25C545.962 605.25 545.871 605.273 545.802 605.25C543.177 582.111 542.219 543.158 543.657 513.493C559.197 508.404 581.583 500.965 604.038 493.184C641.074 480.382 678.384 466.599 685.868 460.666C700.267 449.256 711.654 439.923 739.95 419.135C745.815 414.822 752.455 411.582 759.529 409.847C786.205 403.298 815.756 401.929 814.638 407.725C813.36 414.365 777.716 422.147 777.716 422.147C777.716 422.147 824.655 418.471 820.433 427.44Z" fill="#F78D5D"/>
<path d="M778.105 369.502C778.105 369.502 776.791 348.308 798.548 341.773C820.306 335.238 829.298 313.671 840.377 336.196C851.456 358.721 881.693 359.287 870.811 383.505C870.811 383.505 880.827 391.489 866.87 416.85C852.913 442.21 845.101 468.041 835.621 463.037C826.141 458.034 831.88 430.637 828.422 415.349C824.964 400.06 812.263 401.932 808.253 385.885C804.243 369.838 781.618 388.094 778.105 369.502Z" fill="#F1E9E8"/>
<path d="M630.028 562.097C596.232 584.186 562.871 604.085 546.03 605.249C545.962 605.249 545.871 605.272 545.802 605.249C543.177 582.11 542.219 543.157 543.657 513.492C559.197 508.403 581.583 500.964 604.038 493.183C609.856 508.837 622.065 541.56 630.028 562.097Z" fill="#D66134"/>
<path d="M301.527 343.432C366.245 374.91 413.884 358.492 431.841 335.077C431.841 335.077 361.545 309.813 404.037 251.592C412.478 240.026 400.636 228.72 398.597 220.33C398.582 220.186 398.541 220.06 398.504 219.911C390.134 186.375 355.816 191.088 355.816 191.088C355.816 191.088 326.187 270.426 265.398 277.256C265.398 277.256 236.792 311.926 301.527 343.432Z" fill="#F78D5D"/>
<path d="M298.651 168.225C299.415 177.226 302.372 186.373 306.771 194.376C306.768 194.399 306.79 194.402 306.809 194.428C314.535 208.519 321.095 231.629 333.603 231.326C362.581 206.957 445.086 184.25 445.086 184.25C445.086 184.25 474.211 172.633 461.458 137.128C455.816 121.46 453.568 112.05 449.412 105.491C449.412 105.491 449.412 105.491 449.393 105.465C449.393 105.465 449.374 105.439 449.332 105.41C444.092 97.1642 435.77 93.4382 413.815 87.3762C374.378 76.5042 377.683 72.5022 360.11 84.1802C360.11 84.1802 351.283 70.9612 340.016 82.7612C328.745 94.5832 317.502 91.2462 312.935 115.527C308.367 139.807 296.546 143.352 298.651 168.225Z" fill="#6F361E"/>
<path d="M409.676 136.974C420.972 138.694 437.429 140.479 443.988 149.835C451.601 160.694 455.866 166.879 454.168 179.308C448.457 221.093 436.876 277.539 401.265 272.16C350.012 264.419 355.363 186.836 355.363 186.836L356.055 173.221C356.055 173.221 390.679 182.433 409.676 136.974Z" fill="#F78D5D"/>
<path d="M344.45 179.615C341.863 193.651 347.984 211.241 357.784 213.529C367.584 215.817 377.351 201.937 379.939 187.901C382.527 173.865 376.679 160.632 366.879 158.344C357.08 156.056 347.038 165.579 344.45 179.615Z" fill="#F78D5D"/>
<path d="M416.711 174.894C416.673 178.648 423.45 178.523 431.807 178.606C440.164 178.69 446.937 178.951 446.975 175.197C447.013 171.443 440.285 166.713 431.928 166.629C423.57 166.546 416.749 171.14 416.711 174.894Z" fill="#6F361E"/>
<path d="M422.892 192.219C421.588 197.395 423.483 202.334 427.124 203.251C430.765 204.168 434.773 200.715 436.076 195.54C437.38 190.364 435.485 185.425 431.844 184.508C428.203 183.59 424.195 187.043 422.892 192.219Z" fill="#232333"/>
<path d="M366.619 187.335C366.57 187.335 366.522 187.333 366.473 187.33C365.353 187.25 364.508 186.28 364.585 185.159C364.614 184.709 365.181 174.111 355.075 171.089C353.998 170.767 353.385 169.632 353.707 168.553C354.029 167.475 355.168 166.861 356.243 167.185C366.858 170.359 369 180.515 368.65 185.441C368.573 186.516 367.679 187.335 366.619 187.335Z" fill="#D66134"/>
<path d="M423.199 236.458C412.986 236.458 407.815 228.177 406.481 223.622C406.166 222.543 406.784 221.411 407.865 221.094C408.94 220.777 410.071 221.396 410.391 222.472C410.52 222.904 413.685 233.068 424.205 232.349C425.307 232.276 426.297 233.126 426.371 234.25C426.444 235.372 425.593 236.342 424.47 236.416C424.038 236.444 423.614 236.458 423.199 236.458Z" fill="#D66134"/>
<path d="M353.09 183.143C352.487 183.143 351.89 182.876 351.488 182.366C350.792 181.482 350.944 180.201 351.828 179.505L361.444 171.933C362.327 171.237 363.611 171.391 364.305 172.273C365.001 173.157 364.849 174.438 363.965 175.134L354.349 182.706C353.976 183.001 353.532 183.143 353.09 183.143Z" fill="#D66134"/>
<path d="M450.708 201.237C450.708 201.237 456.213 222.346 454.25 225.888C452.286 229.429 439.984 228.667 439.984 228.667L450.708 201.237Z" fill="#F78D5D"/>
<path d="M404.942 224.771C403.038 224.771 401.533 224.156 401.284 224.049C400.251 223.601 399.776 222.403 400.223 221.37C400.669 220.341 401.859 219.867 402.891 220.304C402.952 220.33 405.044 221.167 406.635 220.304C407.701 219.726 408.427 218.419 408.796 216.418C409 215.311 410.061 214.576 411.169 214.784C412.275 214.988 413.007 216.05 412.804 217.156C412.197 220.45 410.762 222.721 408.536 223.909C407.315 224.56 406.06 224.771 404.942 224.771Z" fill="#D66134"/>
<path d="M298.651 168.225C299.415 177.226 302.372 186.373 306.771 194.376C287.415 154.297 341.803 145.641 332.023 129.717C322.246 113.77 333.601 98.3382 369.378 109.604C405.152 120.892 390.875 89.8192 417.365 93.8202C442.208 97.5722 448.632 104.543 449.332 105.41C444.092 97.1642 435.77 93.4382 413.815 87.3762C374.378 76.5042 377.683 72.5022 360.11 84.1802C360.11 84.1802 351.283 70.9612 340.016 82.7612C328.745 94.5832 317.502 91.2462 312.935 115.527C308.367 139.807 296.546 143.352 298.651 168.225Z" fill="#512414"/>
<path d="M327.359 101.241C327.359 101.241 332.285 72.926 311.837 52.539C285.292 26.073 247.111 50.589 244.199 77.843C241.287 105.097 265.587 101.233 269.439 121.992C273.754 145.243 300.111 150.104 313.018 136.401C325.925 122.697 335.144 90.375 335.144 90.375L327.359 101.241Z" fill="#512414"/>
<path d="M379.673 264.874C379.138 264.874 378.603 264.664 378.203 264.246C357.779 242.941 358.588 220.314 358.631 219.362C358.684 218.239 359.621 217.363 360.758 217.423C361.88 217.473 362.751 218.425 362.702 219.548C362.693 219.765 361.987 241.442 381.143 261.427C381.922 262.239 381.895 263.529 381.082 264.307C380.688 264.686 380.18 264.874 379.673 264.874Z" fill="#D66134"/>
<path d="M55.482 577.911C24.634 636.224 -21.855 708.956 37.138 735.71C59.907 717.91 111.715 741.424 183.242 727.137C202.201 723.35 218.922 714.67 238.231 713.691C480.143 701.43 404.39 563.806 404.39 563.806C442.388 668.652 509.583 618.353 556.348 624.904C568.46 626.601 580.312 620.11 585.062 608.839C600.791 571.517 575.294 511.437 588.781 498.423C581.531 482.025 550.24 509.868 543.688 497.439C537.137 485.011 535.159 490.13 520.888 484.965C509.309 480.774 508.993 466.198 506.765 430.305C505.4 408.321 500.305 386.671 491.284 366.576C480.791 343.204 471.896 336.383 453.449 332.293C427.907 326.629 401.265 310.302 401.265 310.302C305.001 315.027 265.398 277.256 265.398 277.256C265.398 277.256 205.86 277.656 183.243 283.903C160.626 290.15 144.817 305.333 97.757 361.802C50.697 418.271 -10.971 464.052 2.78404 514.003C11.946 547.276 55.482 577.911 55.482 577.911Z" fill="#A0BAD8"/>
<path d="M428.208 609.289C427.69 609.289 427.171 609.093 426.775 608.699C408.421 590.529 402.197 568.739 395.606 545.67C394.275 541.008 392.897 536.188 391.422 531.439C382.901 504.016 380.696 443.354 380.607 440.785C380.568 439.661 381.448 438.718 382.573 438.678C383.69 438.638 384.64 439.519 384.68 440.644C384.702 441.268 386.955 503.329 395.314 530.23C396.803 535.024 398.187 539.868 399.525 544.551C405.964 567.093 412.045 588.384 429.642 605.804C430.442 606.595 430.448 607.885 429.656 608.685C429.257 609.087 428.733 609.289 428.208 609.289Z" fill="#242334"/>
<path d="M18.4079 649.913C18.1099 649.913 17.8079 649.848 17.5219 649.71C16.5089 649.22 16.0849 648.002 16.5749 646.988C16.6949 646.74 28.8749 621.633 53.7039 576.922C69.2799 548.872 74.1249 529.013 79.2559 507.988C82.4069 495.072 85.6659 481.716 91.5199 465.455C106.956 422.57 139.849 362.989 140.179 362.392C140.724 361.409 141.967 361.053 142.949 361.596C143.934 362.141 144.29 363.381 143.745 364.366C143.416 364.96 110.679 424.26 95.3539 466.835C89.5739 482.891 86.3409 496.141 83.2149 508.954C78.0169 530.252 73.1089 550.37 57.2659 578.9C32.5019 623.498 20.3639 648.516 20.2449 648.763C19.8909 649.49 19.1639 649.913 18.4079 649.913Z" fill="#242334"/>
<path d="M51.234 472.524C50.269 472.524 49.413 471.837 49.233 470.854C49.03 469.748 49.762 468.686 50.868 468.483C51.84 468.306 74.856 464.161 92.442 468.311C93.537 468.569 94.216 469.666 93.957 470.761C93.699 471.856 92.594 472.538 91.507 472.276C74.767 468.331 51.834 472.45 51.603 472.49C51.48 472.513 51.356 472.524 51.234 472.524Z" fill="#242334"/>
<path d="M480.142 520.693C479.181 520.693 478.325 520.011 478.141 519.032C477.933 517.927 478.661 516.861 479.768 516.653C518.565 509.363 532.071 498.89 532.203 498.785C533.082 498.088 534.364 498.228 535.064 499.104C535.766 499.98 535.629 501.258 534.755 501.962C534.193 502.415 520.53 513.14 480.52 520.658C480.393 520.682 480.266 520.693 480.142 520.693Z" fill="#242334"/>
<path d="M388.237 511.935C387.668 511.935 387.102 511.698 386.699 511.235C374.707 497.455 366.824 480.631 366.495 479.922C366.021 478.902 366.463 477.691 367.484 477.216C368.505 476.743 369.714 477.184 370.19 478.205C370.269 478.373 378.17 495.228 389.773 508.561C390.511 509.41 390.423 510.696 389.573 511.435C389.188 511.77 388.712 511.935 388.237 511.935Z" fill="#242334"/>
<path d="M550.053 589.952C549.509 589.952 548.966 589.735 548.564 589.305C547.796 588.482 547.84 587.193 548.663 586.425C567.696 568.649 564.793 521.769 564.763 521.298C564.687 520.176 565.537 519.204 566.659 519.129C567.785 519.062 568.753 519.903 568.828 521.025C568.963 523.028 571.892 570.306 551.445 589.403C551.051 589.769 550.551 589.952 550.053 589.952Z" fill="#242334"/>
<path d="M386.212 482.423C385.462 482.423 384.74 482.007 384.384 481.29C383.885 480.281 384.298 479.06 385.305 478.56C385.926 478.252 448.047 447.853 508.224 449.773C509.349 449.809 510.232 450.75 510.196 451.874C510.161 452.999 509.22 453.898 508.095 453.846C448.989 451.98 387.726 481.91 387.114 482.212C386.824 482.356 386.515 482.423 386.212 482.423Z" fill="#242334"/>
<path d="M116.044 415.807C115.52 415.807 114.996 415.606 114.598 415.204C89.1244 389.53 79.6584 383.039 79.5654 382.977C78.6324 382.347 78.3874 381.081 79.0174 380.149C79.6464 379.217 80.9134 378.968 81.8454 379.601C82.2374 379.866 91.7364 386.38 117.49 412.336C118.282 413.134 118.277 414.424 117.478 415.217C117.082 415.61 116.562 415.807 116.044 415.807Z" fill="#242334"/>
<path d="M119.004 689.504C118.605 689.504 118.202 689.388 117.849 689.144C116.923 688.505 116.69 687.236 117.329 686.31C124.784 675.502 133.854 641.041 144.354 601.14C155.005 560.671 167.077 514.803 180.407 482.963C206.535 420.549 277.482 303.704 278.195 302.532C278.779 301.57 280.033 301.265 280.994 301.85C281.956 302.435 282.26 303.688 281.676 304.649C280.964 305.82 210.175 422.404 184.164 484.537C170.944 516.116 158.91 561.837 148.294 602.177C137.695 642.448 128.54 677.228 120.681 688.624C120.288 689.197 119.651 689.504 119.004 689.504Z" fill="#242334"/>
<path d="M121.073 688.899C108.284 688.899 93.6268 687.792 77.1808 684.872C76.0728 684.676 75.3348 683.619 75.5318 682.51C75.7278 681.403 76.7789 680.659 77.8939 680.861C143.33 692.473 180.873 674.422 181.244 674.238C182.254 673.74 183.475 674.152 183.974 675.159C184.473 676.167 184.064 677.387 183.056 677.888C181.878 678.472 160.292 688.899 121.073 688.899Z" fill="#242334"/>
<path d="M183.238 419.673C182.168 419.673 181.269 418.837 181.207 417.755C181.14 416.632 181.998 415.668 183.121 415.602L232.415 412.711C233.557 412.636 234.503 413.502 234.568 414.625C234.635 415.748 233.777 416.712 232.654 416.778L183.36 419.669C183.319 419.672 183.278 419.673 183.238 419.673Z" fill="#242334"/>
<path d="M331.359 666.793C330.588 666.793 329.85 666.353 329.507 665.607C329.038 664.584 329.485 663.375 330.507 662.904C372.315 643.679 379.353 600.318 379.42 599.882C379.589 598.771 380.614 598 381.739 598.173C382.851 598.341 383.616 599.378 383.449 600.49C383.38 600.947 376.065 646.439 332.21 666.607C331.933 666.734 331.644 666.793 331.359 666.793Z" fill="#242334"/>
<path d="M417.675 1106.89C417.243 1106.89 416.808 1106.75 416.438 1106.47C411.886 1102.99 409.367 1098.75 408.951 1093.87C408.135 1084.29 415.853 1075.85 416.182 1075.5C416.947 1074.67 418.235 1074.62 419.058 1075.39C419.883 1076.15 419.932 1077.44 419.17 1078.26C419.101 1078.34 412.34 1085.77 413.012 1093.54C413.33 1097.22 415.316 1100.48 418.912 1103.23C419.806 1103.91 419.976 1105.19 419.293 1106.08C418.894 1106.61 418.288 1106.89 417.675 1106.89Z" fill="#D66134"/>
<path d="M190.116 1078.61C189.684 1078.61 189.249 1078.47 188.879 1078.19C184.327 1074.71 181.808 1070.47 181.392 1065.59C180.576 1056.01 188.294 1047.57 188.623 1047.22C189.387 1046.39 190.675 1046.35 191.499 1047.11C192.324 1047.87 192.373 1049.16 191.611 1049.99C191.542 1050.06 184.781 1057.49 185.453 1065.26C185.771 1068.94 187.757 1072.2 191.353 1074.95C192.247 1075.63 192.417 1076.91 191.734 1077.81C191.335 1078.33 190.729 1078.61 190.116 1078.61Z" fill="#D66134"/>
<path d="M762.126 426.915C761.185 426.915 760.338 426.259 760.135 425.3C759.901 424.2 760.604 423.118 761.704 422.885C762.417 422.734 779.445 419.181 805.485 419.559C806.61 419.576 807.508 420.501 807.492 421.626C807.475 422.753 806.447 423.64 805.425 423.634C779.897 423.235 762.721 426.834 762.55 426.87C762.408 426.901 762.266 426.915 762.126 426.915Z" fill="#D66134"/>
<path d="M769.265 444.774C768.251 444.774 767.374 444.018 767.246 442.986C767.109 441.869 767.902 440.852 769.019 440.714C769.855 440.612 789.589 438.201 800.521 439.322C801.64 439.436 802.455 440.437 802.339 441.556C802.224 442.674 801.23 443.505 800.105 443.374C789.637 442.308 769.719 444.732 769.518 444.758C769.434 444.769 769.349 444.774 769.265 444.774Z" fill="#D66134"/>
<path d="M211.03 929.092C203.27 929.092 195.126 928.706 186.552 927.895C161.029 924.71 141.357 913.339 128.022 894.094C92.5692 842.924 113.168 754.511 114.062 750.772C114.325 749.678 115.425 749.01 116.517 749.264C117.611 749.526 118.287 750.625 118.025 751.719C117.81 752.617 96.9592 842.118 131.376 891.781C144.022 910.028 162.735 920.816 186.996 923.845C278.103 932.445 320.11 891.977 364.582 849.122C377.036 837.121 389.913 824.711 404.136 813.067C465.367 758.314 504.508 653.371 504.896 652.318C505.285 651.261 506.456 650.723 507.512 651.11C508.567 651.499 509.109 652.671 508.72 653.726C508.328 654.789 468.847 760.668 406.784 816.163C392.622 827.76 379.805 840.112 367.41 852.056C326.408 891.569 287.467 929.092 211.03 929.092Z" fill="#242334"/>
<path d="M135.242 914.274C51.8032 914.274 32.7681 872.988 31.9641 871.146C31.5131 870.115 31.9841 868.914 33.0151 868.463C34.0461 868.015 35.2441 868.482 35.6961 869.51C35.9161 870.005 56.6241 914.172 147.759 909.898C148.819 909.834 149.836 910.714 149.89 911.838C149.943 912.961 149.074 913.916 147.95 913.969C143.562 914.175 139.317 914.274 135.242 914.274Z" fill="#242334"/>
<path d="M516.794 683.481C516.689 683.481 516.582 683.473 516.476 683.456L479.828 677.715C478.716 677.542 477.956 676.499 478.13 675.388C478.303 674.275 479.355 673.521 480.457 673.69L517.107 679.431C518.219 679.605 518.978 680.648 518.804 681.759C518.646 682.764 517.78 683.481 516.794 683.481Z" fill="#242334"/>
<path d="M480.143 969.158C479.928 969.158 479.71 969.123 479.495 969.052C478.429 968.694 477.854 967.539 478.211 966.472C478.399 965.911 497.318 909.576 523.81 838.045C550.237 766.696 574.378 644.661 574.619 643.437C574.838 642.333 575.907 641.614 577.012 641.83C578.116 642.048 578.835 643.118 578.619 644.222C578.377 645.45 554.171 767.807 527.632 839.459C501.162 910.931 482.264 967.206 482.075 967.766C481.789 968.619 480.995 969.158 480.143 969.158Z" fill="#242334"/>
<path d="M513.219 986.339C512.698 986.339 512.176 986.14 511.779 985.742C478.052 952.018 383.854 963.873 382.907 963.999C381.804 964.151 380.769 963.359 380.623 962.242C380.478 961.127 381.264 960.104 382.38 959.958C386.329 959.444 479.531 947.731 514.661 982.861C515.457 983.657 515.457 984.946 514.661 985.742C514.261 986.14 513.74 986.339 513.219 986.339Z" fill="#242334"/>
<path d="M136.253 753.631C78.7518 753.631 41.1597 740.905 40.4817 740.668C39.4207 740.297 38.8607 739.135 39.2317 738.074C39.6037 737.013 40.7688 736.452 41.8258 736.823C43.0458 737.248 165.365 778.571 307.247 710.123C308.258 709.638 309.477 710.058 309.968 711.073C310.456 712.087 310.032 713.304 309.018 713.794C244.281 745.024 183.536 753.631 136.253 753.631Z" fill="#242334"/>
<path d="M630.523 175.303C630.52 175.303 630.517 175.303 630.514 175.303C629.389 175.298 628.481 174.383 628.486 173.257C628.579 151.118 628.029 135.6 627.589 123.13C626.95 105.078 626.529 93.1512 628.356 75.5412C628.986 69.4752 630.744 64.0532 633.586 59.4262C645.847 39.4512 668.948 45.2162 669.178 45.2752C670.265 45.5592 670.915 46.6702 670.633 47.7582C670.351 48.8452 669.241 49.5092 668.151 49.2182C667.319 49.0042 647.718 44.1871 637.058 61.5571C634.539 65.6611 632.975 70.5062 632.409 75.9602C630.611 93.2892 631.029 105.102 631.662 122.985C632.104 135.491 632.654 151.053 632.561 173.274C632.555 174.397 631.644 175.303 630.523 175.303Z" fill="#242334"/>
<path d="M663.036 146.039C642.687 146.039 634.69 125.024 634.598 124.772C634.21 123.717 634.75 122.549 635.805 122.16C636.863 121.771 638.031 122.312 638.421 123.365C638.814 124.425 648.347 149.227 674.125 139.828C675.181 139.441 676.35 139.987 676.736 141.045C677.122 142.102 676.577 143.271 675.519 143.656C670.925 145.33 666.772 146.039 663.036 146.039Z" fill="#242334"/>
<path d="M646.052 175.308C644.93 175.308 644.018 174.4 644.015 173.277C644.014 173.039 643.947 149.421 644.015 137.546C644.021 136.425 644.932 135.521 646.052 135.521C646.056 135.521 646.06 135.521 646.064 135.521C647.189 135.528 648.095 136.445 648.089 137.57C648.021 149.427 648.088 173.028 648.089 173.265C648.092 174.39 647.183 175.305 646.058 175.308C646.056 175.308 646.054 175.308 646.052 175.308Z" fill="#242334"/>
<path d="M670.125 132.599C662.308 132.599 656.385 130.476 652.035 126.123C643.106 117.186 642.727 99.8941 643.104 82.9491C643.345 72.1021 646.062 64.1551 651.183 59.3311C656.19 54.6101 661.651 54.7561 661.884 54.7661C663.008 54.8081 663.885 55.7541 663.845 56.8781C663.803 57.9971 662.838 58.8831 661.746 58.8391C661.128 58.8401 647.714 58.8691 647.178 83.0401C646.82 99.1051 647.123 115.442 654.918 123.244C658.616 126.944 663.893 128.691 670.992 128.515C672.119 128.537 673.049 129.384 673.073 130.509C673.097 131.634 672.205 132.565 671.079 132.59C670.758 132.595 670.44 132.599 670.125 132.599Z" fill="#242334"/>
<path d="M660.916 77.8882C659.791 77.8882 658.879 76.9762 658.879 75.8512V71.0892C658.879 69.9642 659.791 69.0522 660.916 69.0522C662.041 69.0522 662.953 69.9642 662.953 71.0892V75.8512C662.953 76.9762 662.041 77.8882 660.916 77.8882Z" fill="#242334"/>
<path d="M658.045 105.272C656.92 105.272 656.008 104.36 656.008 103.235V98.472C656.008 97.347 656.92 96.4351 658.045 96.4351C659.17 96.4351 660.082 97.347 660.082 98.472V103.235C660.082 104.36 659.17 105.272 658.045 105.272Z" fill="#242334"/>
<path d="M681.752 80.2691C680.627 80.2691 679.715 79.3571 679.715 78.2321V73.4701C679.715 72.3451 680.627 71.4331 681.752 71.4331C682.877 71.4331 683.789 72.3451 683.789 73.4701V78.2321C683.789 79.3571 682.877 80.2691 681.752 80.2691Z" fill="#242334"/>
<path d="M684.131 107.653C683.006 107.653 682.094 106.741 682.094 105.616V100.854C682.094 99.7289 683.006 98.8169 684.131 98.8169C685.256 98.8169 686.168 99.7289 686.168 100.854V105.616C686.168 106.74 685.256 107.653 684.131 107.653Z" fill="#242334"/>
<path d="M671.037 91.0132C669.912 91.0132 669 90.1012 669 88.9762V84.2142C669 83.0892 669.912 82.1772 671.037 82.1772C672.162 82.1772 673.074 83.0892 673.074 84.2142V88.9762C673.074 90.1002 672.162 91.0132 671.037 91.0132Z" fill="#242334"/>
<path d="M674.822 123.164C673.697 123.164 672.785 122.252 672.785 121.127V116.365C672.785 115.24 673.697 114.328 674.822 114.328C675.947 114.328 676.859 115.24 676.859 116.365V121.127C676.859 122.252 675.947 123.164 674.822 123.164Z" fill="#242334"/>
<path d="M638.64 175.96C629.442 175.96 622.285 173.474 621.837 173.315C620.777 172.939 620.223 171.775 620.598 170.716C620.974 169.656 622.136 169.101 623.198 169.474C623.351 169.53 638.619 174.802 652.445 169.493C653.492 169.089 654.673 169.613 655.077 170.665C655.48 171.715 654.956 172.894 653.905 173.297C648.704 175.294 643.398 175.96 638.64 175.96Z" fill="#242334"/>
<path d="M475.547 342.386C475.547 342.386 475.547 275.849 379.677 284.248C325.911 288.958 311.046 301.021 295.606 340.403C280.165 379.785 283.82 396.047 254.312 433.009C224.804 469.971 221.232 502.861 206.052 536.867C190.872 570.873 213.037 586.445 259.103 560.354C305.168 534.263 301.597 549.137 326.599 521.163C351.601 493.189 358.448 496.455 366.633 439.906C374.818 383.357 395.092 392.254 412.636 367.268C430.179 342.281 450.231 332.213 475.547 342.386Z" fill="#FFE8D9"/>
<path d="M208.313 555.203C208.313 555.203 202.458 563.638 198.422 584.727C194.386 605.817 182.666 626.315 191.08 631.242C199.494 636.17 204.002 625.804 203.788 608.693C203.575 591.582 209.778 564.572 210.676 562.51C211.575 560.448 208.313 555.203 208.313 555.203Z" fill="#FFE8D9"/>
<path d="M219.871 560.151C219.871 560.151 215.553 569.467 215.201 590.936C214.85 612.405 206.827 634.613 215.963 638.021C225.099 641.429 227.758 630.443 224.607 613.623C221.456 596.804 222.925 569.129 223.456 566.943C223.986 564.759 219.871 560.151 219.871 560.151Z" fill="#FFE8D9"/>
<path d="M234.495 558.326C234.495 558.326 231.201 568.051 233.154 589.434C235.107 610.817 229.512 633.757 238.961 636.166C248.41 638.575 249.875 627.367 244.938 610.982C240.002 594.597 238.494 566.925 238.787 564.695C239.08 562.465 234.495 558.326 234.495 558.326Z" fill="#FFE8D9"/>
<path d="M244.739 554.538C244.739 554.538 243.165 564.684 248.765 585.414C254.364 606.143 252.795 629.703 262.517 630.452C272.239 631.201 271.756 619.908 264.077 604.616C256.398 589.324 250.157 562.322 250.062 560.075C249.967 557.828 244.739 554.538 244.739 554.538Z" fill="#FFE8D9"/>
<path d="M264.908 544.177C264.908 544.177 262.464 554.15 266.253 575.285C270.042 596.42 266.445 619.757 276.066 621.342C285.687 622.928 286.181 611.635 279.851 595.737C273.521 579.839 269.634 552.399 269.733 550.152C269.833 547.906 264.908 544.177 264.908 544.177Z" fill="#FFE8D9"/>
<path d="M277.471 544.656C277.471 544.656 276.778 554.9 284.143 575.07C291.508 595.24 291.975 618.847 301.726 618.756C311.477 618.664 310.021 607.455 301.052 592.881C292.084 578.308 283.538 551.944 283.25 549.713C282.962 547.482 277.471 544.656 277.471 544.656Z" fill="#FFE8D9"/>
<path d="M290.469 537.711C290.469 537.711 290.878 547.971 300.364 567.234C309.85 586.497 312.846 609.919 322.531 608.782C332.216 607.645 329.567 596.656 319.087 583.128C308.607 569.6 297.284 544.305 296.758 542.119C296.233 539.933 290.469 537.711 290.469 537.711Z" fill="#FFE8D9"/>
<path d="M302.973 529.053C302.973 529.053 303.935 539.276 314.447 557.999C324.959 576.722 329.215 599.948 338.824 598.29C348.433 596.632 345.195 585.802 334.001 572.86C322.807 559.918 310.134 535.271 309.491 533.116C308.848 530.959 302.973 529.053 302.973 529.053Z" fill="#FFE8D9"/>
<path d="M319.231 511.766C319.231 511.766 317.114 521.813 321.591 542.813C326.068 563.813 323.235 587.255 332.903 588.525C342.571 589.795 342.695 578.492 335.849 562.81C329.003 547.127 324.222 519.829 324.248 517.58C324.275 515.332 319.231 511.766 319.231 511.766Z" fill="#FFE8D9"/>
<path d="M331.123 506.704C331.123 506.704 330.096 516.92 336.8 537.319C343.504 557.718 343.201 581.328 352.95 581.554C362.698 581.78 361.61 570.529 353.121 555.671C344.632 540.813 336.951 514.185 336.736 511.946C336.52 509.708 331.123 506.704 331.123 506.704Z" fill="#FFE8D9"/>
<path d="M341.738 496.716C341.738 496.716 342.482 506.957 352.592 525.9C362.702 544.843 366.462 568.154 376.104 566.702C385.746 565.249 382.74 554.353 371.824 541.175C360.908 527.997 348.764 503.085 348.168 500.917C347.571 498.748 341.738 496.716 341.738 496.716Z" fill="#FFE8D9"/>
<path d="M351.11 479.063C351.11 479.063 350.955 489.33 359.367 509.085C367.779 528.841 369.484 552.391 379.216 551.789C388.948 551.186 386.908 540.068 377.188 525.985C367.468 511.902 357.552 486.022 357.148 483.81C356.744 481.597 351.11 479.063 351.11 479.063Z" fill="#FFE8D9"/>
<path d="M267.961 538.905C267.76 538.905 267.555 538.874 267.354 538.811C266.28 538.477 265.68 537.334 266.015 536.26C270.221 522.764 280.367 509.132 291.108 494.7C303.453 478.112 316.219 460.96 320.486 443.053C323.129 431.96 323.645 424.192 324.099 417.337C324.998 403.785 325.592 394.832 343.006 376.018C351.023 367.356 357.348 358.583 363.464 350.1C376.653 331.807 389.11 314.527 415.905 301.749C429.569 295.235 441.598 293.951 451.655 297.93C464.515 303.021 469.248 314.832 469.443 315.333C469.852 316.38 469.334 317.562 468.285 317.971C467.241 318.379 466.058 317.862 465.648 316.815C465.562 316.602 461.249 306.082 450.101 301.697C441.15 298.177 430.234 299.431 417.66 305.427C391.804 317.755 379.644 334.624 366.769 352.483C360.58 361.066 354.182 369.942 345.996 378.785C329.562 396.54 329.036 404.47 328.164 417.606C327.722 424.274 327.171 432.572 324.449 443.998C319.987 462.72 306.967 480.213 294.376 497.132C283.848 511.278 273.904 524.639 269.904 537.471C269.633 538.345 268.828 538.904 267.961 538.905Z" fill="#242334"/>
<path d="M284.05 472.524C283.438 472.524 282.833 472.25 282.433 471.726C281.748 470.834 281.917 469.554 282.81 468.87C303.269 453.176 306.082 428.51 306.108 428.264C306.226 427.146 307.232 426.343 308.345 426.449C309.463 426.565 310.276 427.565 310.16 428.683C310.049 429.762 307.18 455.311 285.288 472.103C284.919 472.387 284.482 472.524 284.05 472.524Z" fill="#242334"/>
<path d="M275.762 401.021C275.343 401.021 274.92 400.893 274.557 400.625C273.651 399.958 273.456 398.683 274.122 397.777C274.333 397.49 295.49 368.712 317.1 339.869C319.739 336.347 322.334 332.719 324.841 329.213C343.701 302.845 361.499 277.927 405.604 281.801C406.724 281.9 407.554 282.887 407.455 284.009C407.358 285.13 406.365 285.963 405.248 285.86C363.495 282.206 346.32 306.187 328.156 331.584C325.634 335.11 323.027 338.754 320.361 342.313C298.762 371.141 277.616 399.903 277.405 400.191C277.006 400.733 276.389 401.021 275.762 401.021Z" fill="#242334"/>
<path d="M275.76 94.627C275.314 94.627 274.866 94.482 274.491 94.182C256.065 79.479 266.039 59.274 266.142 59.072C266.654 58.07 267.882 57.67 268.882 58.179C269.885 58.689 270.285 59.914 269.776 60.917C269.406 61.654 261.254 78.407 277.032 90.998C277.911 91.7 278.056 92.982 277.354 93.861C276.951 94.364 276.358 94.627 275.76 94.627Z" fill="#242334"/>
<path d="M311.407 136.07C310.929 136.07 310.448 135.903 310.061 135.561C309.216 134.818 309.136 133.53 309.88 132.686C323.041 117.753 322.769 98.7089 322.765 98.5179C322.739 97.3929 323.63 96.4609 324.756 96.4359C325.863 96.3649 326.813 97.3019 326.839 98.4269C326.859 99.2709 327.139 119.266 312.936 135.381C312.535 135.836 311.972 136.07 311.407 136.07Z" fill="#242334"/>
<path d="M452.318 165.441C451.554 165.441 450.822 165.009 450.475 164.273C442.453 147.263 438.265 146.222 418.143 141.217C415.437 140.543 412.459 139.802 409.165 138.946C380.473 131.485 365.358 92.7281 364.729 91.0821C364.327 90.0311 364.853 88.8551 365.904 88.4531C366.96 88.0471 368.132 88.5771 368.535 89.6271C368.681 90.0111 383.54 128.073 410.19 135.003C413.47 135.856 416.434 136.593 419.127 137.263C439.766 142.397 445.313 143.777 454.16 162.535C454.64 163.553 454.205 164.767 453.187 165.247C452.905 165.378 452.609 165.441 452.318 165.441Z" fill="#242334"/>
<path d="M335.14 162.718C334.364 162.718 333.622 162.271 333.282 161.518C332.82 160.492 333.275 159.286 334.301 158.822C352.637 150.542 360.257 133.392 360.333 133.22C360.78 132.187 361.978 131.71 363.013 132.163C364.045 132.611 364.518 133.811 364.07 134.843C363.74 135.605 355.734 153.615 335.979 162.536C335.705 162.659 335.421 162.718 335.14 162.718Z" fill="#242334"/>
<path d="M637.655 215.886C637.614 215.886 637.574 215.885 637.534 215.885L637.307 215.882C631.65 215.803 627.047 211.138 627.047 205.482V188.496C627.047 187.371 627.959 186.459 629.084 186.459C630.209 186.459 631.121 187.371 631.121 188.496V205.482C631.121 208.922 633.921 211.759 637.362 211.807L637.583 211.81C639.385 211.813 640.891 211.178 642.104 209.979C643.316 208.781 643.983 207.186 643.983 205.486V188.946C643.983 187.821 644.895 186.909 646.02 186.909C647.145 186.909 648.057 187.821 648.057 188.946V205.486C648.057 208.282 646.96 210.908 644.968 212.877C643.004 214.82 640.411 215.886 637.655 215.886Z" fill="#242334"/>
<path d="M638.565 191.913C630.008 191.913 623.825 188.051 623.456 187.815C622.508 187.208 622.23 185.949 622.836 185.001C623.442 184.055 624.702 183.778 625.648 184.38C626.136 184.689 637.037 191.4 649.381 185.259C650.388 184.758 651.611 185.168 652.113 186.176C652.613 187.184 652.203 188.406 651.196 188.908C646.715 191.136 642.401 191.913 638.565 191.913Z" fill="#242334"/>
</svg>
