<svg width="2417" height="1782" viewBox="0 0 2417 1782" fill="none" xmlns="http://www.w3.org/2000/svg">
<g clip-path="url(#clip0_3033_17593)">
<path d="M939.279 1482.71C898.565 1509.52 857.844 1536.33 817.14 1563.16C800.975 1573.82 783.417 1586.2 767.381 1565.81C749.705 1543.36 768.577 1528.3 783.647 1515.88C802.436 1500.41 822.871 1486.7 843.662 1474C859.133 1464.54 858.403 1456.91 848.641 1442.72C723.426 1260.76 598.773 1078.4 474.233 895.972C432.311 834.564 390.817 772.857 349.7 710.905C331.298 683.179 313.816 654.771 303.324 619.65C272.96 638.635 244.189 657.085 214.902 674.674C205.207 680.496 193.387 692.079 183.397 676.615C173.914 661.938 187.982 653.518 197.117 647.229C237.206 619.627 278.157 593.283 318.794 566.482C327.043 546.484 349.195 542.802 362.589 528.832C375.598 522.075 384.175 507.55 400.636 506.784C437.529 482.177 474.248 457.296 511.435 433.143C521.432 426.649 534.664 418.118 543.541 432.281C552.156 446.026 539.78 454.15 529.406 461.311C504.005 478.843 478.731 496.557 453.821 513.91C525.137 589.807 575.235 678.261 633.039 760.955C761.598 944.869 888.785 1129.75 1015.55 1314.91C1029.1 1334.71 1038.29 1336.75 1056.87 1322.09C1074.99 1307.78 1095.99 1296.93 1116.4 1285.81C1132.02 1277.31 1147.18 1279.12 1156.38 1296.03C1165.21 1312.26 1160.11 1326.17 1145.43 1336.64C1102.99 1366.89 1060.49 1397.05 1018.01 1427.24C1013.53 1441.68 999.915 1446.6 989.516 1454.9C972.385 1463.44 958.427 1477.81 939.279 1482.71Z" fill="#F9FBFB"/>
<path d="M939.221 1482.08C949.062 1462.9 968.719 1456.87 985.896 1447.54C994.339 1448.36 1000.2 1453.44 1005.04 1459.7C1050.63 1518.63 1089.42 1582.21 1131.53 1643.53C1134.63 1648.06 1134.8 1653.83 1136.67 1659.64C1146.86 1653.37 1153.44 1641.46 1167.03 1642.35C1194.73 1630.53 1218.7 1612.48 1244.03 1596.71C1254.17 1590.39 1266.84 1580.83 1277.03 1592.48C1286.8 1603.67 1270.97 1611.52 1267.26 1621.14C1193.07 1669.77 1118.89 1718.4 1044.68 1766.98C1038.19 1771.23 1031.72 1775.64 1024.77 1779.01C1017.52 1782.54 1009.06 1784.16 1003.4 1776.86C996.352 1767.77 1001.49 1759.71 1009.21 1754.25C1029.09 1740.21 1049.54 1726.98 1069.62 1713.21C1079.27 1706.59 1086.64 1700.82 1076.07 1687.13C1061.94 1668.85 1050.88 1648.19 1038.49 1628.55C1005.4 1579.72 972.31 1530.9 939.221 1482.08Z" fill="#A0E9FA"/>
<path d="M368.088 535.487C356.389 553.204 335.953 557.18 319.131 566.853C303.433 564.15 295.026 552.092 285.977 540.859C250.994 492.769 210.398 447.759 207.717 383.108C207.118 368.644 205.711 356.546 220.997 349.668C259.451 365.368 273.933 403.33 296.517 433.357C319.663 464.13 335.216 500.526 364.678 526.753C366.589 529.359 367.757 532.259 368.088 535.487Z" fill="#06ECE8"/>
<path d="M1167.24 1642.66C1156.02 1659.96 1138.73 1669.69 1113.08 1685.35C1128.1 1665.14 1130.21 1653.15 1119.05 1637.71C1073.91 1575.21 1030.84 1511.2 986.996 1447.75C996.223 1438.45 1006.6 1430.91 1019.24 1426.9C1068.57 1498.81 1117.9 1570.74 1167.24 1642.66Z" fill="#77D6F1"/>
<path d="M399.576 507.071C390.425 518.574 382.343 531.322 366.796 535.36C366.794 535.363 365.189 532.98 365.189 532.98C305.826 457.52 254.77 376.019 196.874 299.49C192.901 294.238 190.104 288.095 194.202 281.303C220.073 271.326 236.957 285.237 247.623 305.484C260.406 329.748 270.21 353.863 298.448 366.408C310.938 371.958 320.947 387.857 327.479 401.311C346.402 440.281 375.844 471.646 399.576 507.071Z" fill="#09E1E1"/>
<path d="M224.796 353.977C204.766 382.536 219.764 410.354 228.261 437.287C240.406 475.786 271.606 504.546 286.652 541.876C282.465 540.354 275.836 539.973 274.463 537.124C254.144 494.95 207.294 468.085 204.043 415.773C202.806 395.878 196.109 375.626 181.184 361.405C154.545 336.023 156.47 311.938 180.061 286.684C207.812 300.793 221.326 324.131 224.796 353.977Z" fill="#46DDE5"/>
<path d="M225.071 353.748C210.884 331.097 200.787 305.755 181.124 286.715C180.796 284.727 180.498 282.729 180.244 280.725C181.77 277.238 182.682 273.07 187.956 273.72C189.881 275.945 191.805 278.171 193.735 280.397C239.926 350.182 295.606 413.381 336.399 486.915C345.278 502.926 365.785 511.538 365.916 533.188C348.117 531.353 340.487 517.421 332.031 504.535C298.199 452.977 263.959 401.709 225.071 353.748Z" fill="#14ADBB"/>
<path d="M186.758 273.164C184.191 275.497 181.625 277.829 179.061 280.168C149.084 233.775 119.301 187.247 89.0696 141.013C59.6166 95.9668 29.709 51.2226 0 6.34507C3.12673 4.23006 6.25219 2.11501 9.37892 0C68.5058 91.0546 127.633 182.109 186.758 273.164Z" fill="#5A7A89"/>
<path d="M726.664 1081.32C698.952 1089 683.661 1121.95 645.993 1122.84C662.908 1097.02 688.036 1090.54 705.001 1073.95C713.026 1066.1 725.983 1061.22 716.53 1048.17C706.384 1034.16 695.974 1047.79 688.357 1052.84C669.634 1065.24 653.512 1082.06 627.693 1082.6C658.196 1053.42 687.838 1024.09 715.515 990.039C695.722 988.496 688.577 1012.06 669.99 1008.4C670.106 991.397 687.337 989.227 694.119 977.923C668.143 975.523 658.229 999.1 641.25 1010.84C633.977 1015.86 628.106 1023.23 620.447 1027.35C611.956 1031.9 602.064 1047.94 592.924 1033.2C583.373 1017.79 602.322 1016.63 610.205 1011.78C628.173 1000.73 646.911 991.034 661.34 974.98C667.376 968.263 668.438 960.881 663.403 953.635C657.106 944.575 650.145 949.1 643.458 953.828C624.452 967.264 605.486 980.767 586.297 993.934C580.613 997.833 573.707 1000.64 569.374 992.389C565.95 985.864 571.261 982.264 576.178 979.425C595.247 968.422 602.815 940.365 631.437 942.478C636.178 942.828 647.048 933.912 628.578 930.937C617.28 929.114 635.682 914.008 624.841 904.829C601.538 913.695 584.782 933.178 565.076 948.362C559.637 952.553 554.592 962.681 546.025 954.192C536.526 944.778 545.219 937.26 551.4 931.799C564.656 920.084 579.026 909.657 592.941 898.703C615.285 880.582 634.997 857.56 667.254 857.882C665.303 887.464 695.754 897.313 706 920.94C712.331 935.541 717.217 955.619 734.937 967.399C760.36 984.301 733.972 995.538 725.469 1009.11C739.083 1010.66 746.821 981.616 759.908 1000.59C765.67 1008.95 782.851 1016.2 772.641 1034.7C769.524 1040.35 781.542 1030.45 786.333 1034.67C796.625 1051.98 786.029 1060.95 772.757 1068.31C758.46 1076.23 743.803 1083.43 726.664 1081.32Z" fill="#6C9EB1"/>
<path d="M839.649 1227.42C834.535 1187.96 831.616 1186.64 798.643 1208.9C778.618 1222.43 761.767 1241.55 729.66 1248.81C752.879 1212.62 797.242 1205.37 806.681 1166.4C803.101 1140.17 826.221 1130.96 839.146 1115.24C854.541 1127.86 857.701 1141.36 837.93 1153.91C851.216 1162.25 864.035 1141.81 866.838 1154.65C873.089 1183.24 907.774 1195.36 905.449 1227.31C904.261 1230.19 902.232 1232.22 899.363 1233.41C876.972 1252.44 859.23 1228.69 839.109 1226.83L839.649 1227.42Z" fill="#78909E"/>
<path d="M599.147 793.781C559.559 806.111 528.142 832.396 495.889 857.275C489.546 862.168 482.83 874.447 474.96 862.753C469.44 854.551 479.957 850.667 486.354 846.235C499.902 836.847 512.716 826.329 525.665 816.057C540.175 804.547 554.529 794.12 534.086 773.656C523.789 763.347 541.489 755.036 541.691 743.733C516.225 747.422 503.303 772.95 480.507 781.039L478.814 779.095C490.035 765.918 501.257 752.739 512.479 739.562C514.658 720.02 525.859 712.648 544.165 714.858C548.29 713.616 555.761 710.731 556.059 711.371C568.695 738.41 594.676 754.865 608.299 780.819C612.847 789.482 597.312 786.249 598.637 794.318L599.147 793.781Z" fill="#6C8C9E"/>
<path d="M452.325 691.738C446.886 695.682 440.093 711.459 435.073 695.795C423.666 660.204 399.359 633.821 380.069 603.849C373.316 593.352 358.68 583.541 376.872 571.22C391.338 561.423 404.389 555.538 416.221 577.977C432.656 609.141 452.586 638.345 471.02 668.387C473.511 683.601 453.952 680.031 452.325 691.738Z" fill="#79F1F5"/>
<path d="M452.452 690.484C454.084 678.874 464.537 674.522 471.608 667.402C478.055 663.336 484.79 659.638 490.917 655.119C504.188 645.33 504.061 645.159 508.678 660.647C521.242 654.964 515.925 678.742 529.99 673.14C535.471 670.957 538.838 677.392 537.283 684.099C536.071 689.318 509.148 704.125 543.671 697.148C563.126 693.215 545.029 708.899 544.796 715.681C534.093 723.785 523.397 731.882 512.7 739.978C490.869 711.706 470.514 721.162 448.715 740.98C437.399 751.268 426.307 764.446 401.748 765.576C435.564 730.867 482.535 717.052 497.529 662.495C481.839 680.381 468.092 687.388 452.452 690.484Z" fill="#657C88"/>
<path d="M819.477 1085.93C823.997 1095.08 828.516 1104.22 833.037 1113.37C836.801 1117.92 834.57 1121.99 830.888 1124.4C806.921 1140.09 782.725 1155.42 753.905 1160.85C759.824 1130.35 731.122 1142.42 719.888 1133.02C722.775 1114.24 740.932 1107.51 750.418 1093.91C763.8 1085.41 776.14 1073.91 794.063 1078.14C804.063 1093.08 790.369 1097.94 783.227 1104.59C794.936 1099 802.963 1084.33 819.477 1085.93Z" fill="#AFD6DE"/>
<path d="M906.256 1312.74C890.288 1297.9 865.336 1285.18 893.006 1259.98C892.163 1241.65 911.765 1239.53 919.723 1228.18C928.963 1252.82 955.043 1267.11 962.023 1293.14C959.467 1297.47 955.414 1299.96 950.837 1301.82C935.733 1304.45 923.436 1318.07 906.256 1312.74Z" fill="#9BABB5"/>
<path d="M559.908 874.681C539.741 883.596 529.576 909.655 498.384 910.005C514.164 878.708 542.765 869.436 565.085 853.011C578.946 829.234 600.933 816.95 625.996 809.014C652.218 817.68 628.226 834.954 632.436 847.392C629.752 877.123 624.392 882.195 600.437 872.042C585.417 865.675 573.155 870.204 559.908 874.681Z" fill="#528299"/>
<path d="M560.275 873.8C575.699 863.439 586.944 831.518 609.927 870.19C616.294 880.906 624.353 855.103 632.294 846.718C648.564 836.03 656.566 848.823 665.598 858.682C637.384 865.407 622.664 897.211 591.87 899.144C583.084 888.47 574.027 878.15 560.275 873.8Z" fill="#B7D7DE"/>
<path d="M752.244 1160.75C778.892 1144.87 805.541 1128.97 832.183 1113.07C834.561 1113.48 836.944 1113.9 839.327 1114.31C839.196 1138.43 812.639 1145.79 806.356 1166.01C778.364 1150.48 761.148 1175.41 739.983 1184.31C727.357 1189.62 717.999 1203.36 699.258 1197.37C711.413 1175.57 737.918 1176.53 752.244 1160.75Z" fill="#5C8697"/>
<path d="M918.45 1228.18C920.611 1247.78 897.127 1246.48 892.185 1260.28C855.972 1277.5 827.953 1307.05 794.277 1328.08C792.282 1325.61 790.289 1323.13 788.294 1320.66C813.831 1301.47 839.596 1282.57 864.805 1262.96C876.521 1253.85 893.151 1250.42 898.97 1234.29C900.988 1232.27 903.008 1230.26 905.027 1228.24C909.501 1228.22 913.976 1228.2 918.45 1228.18Z" fill="#657180"/>
<path d="M724.893 1081.3C734.906 1069.35 750.372 1068.25 763.556 1062.84C776.76 1057.42 788.92 1052.44 785.696 1034.88C792.824 1039.62 797.369 1046.08 799.152 1054.4C798.385 1069.26 788.526 1076.3 776.363 1082.87C766.023 1088.46 754.407 1092.88 746.95 1102.87C739.647 1106.99 736.539 1119.81 724.231 1113.55C726.261 1102.83 733.49 1092.22 724.893 1081.3Z" fill="#AFD6DE"/>
<path d="M906.053 1314.44C921.696 1311.51 930.036 1293.32 947.638 1294.47C949.696 1310.86 939.701 1317.08 926.017 1320.2C890.152 1332.67 861.939 1358.73 828.469 1375.86C848.756 1347.96 879.795 1334.26 906.053 1314.44Z" fill="#5E6574"/>
<path d="M625.423 808.504C607.642 826.889 587.042 841.152 565.153 853.536C559.343 841.373 556.51 829.641 569.588 820.225C588.43 820.398 597.644 795.912 617.869 799.623C620.386 802.582 622.904 805.544 625.423 808.504Z" fill="#B9D6E0"/>
<path d="M925.105 1319.39C932.414 1311.09 939.722 1302.79 947.035 1294.5C951.689 1294.47 956.337 1294.44 961.004 1294.42C969.867 1297.88 971.444 1305.44 972.634 1313.23C974.594 1328.75 964.586 1329.1 952.95 1327.39C946.79 1314.8 930.106 1335.64 925.105 1319.39Z" fill="#B2C0C8"/>
<path d="M838.794 1226.01C821.04 1256.57 789.436 1267.15 761.148 1282.48C787.417 1264.18 805.457 1233.79 839.326 1226.61C839.329 1226.61 838.794 1226.01 838.794 1226.01Z" fill="#5B6D7E"/>
<path d="M954.081 1328.16C961.508 1324.54 969.602 1321.76 973.744 1313.97C989.641 1318.67 986.709 1326.07 975.78 1332.68C955.575 1344.86 934.781 1356.15 914.232 1367.83C910.184 1368.99 908.869 1367.85 910.74 1364.03C925.187 1352.07 939.633 1340.12 954.081 1328.16Z" fill="#627385"/>
<path d="M725.187 1112.91C731.911 1108.64 738.635 1104.36 745.358 1100.08C748.496 1096.84 751.225 1097.16 753.548 1101.05C741.969 1111.88 730.392 1122.71 718.812 1133.54C707.004 1142.31 697.729 1155.48 677.542 1158.68C687.074 1132.41 710.516 1127.29 725.187 1112.91Z" fill="#6091A9"/>
<path d="M753.069 1102.21C750.333 1101.9 747.596 1101.57 744.862 1101.26C760.427 1083 784.678 1074.9 798.346 1054.43C806.676 1064.13 804.025 1073.12 796.612 1081.81C794.098 1084.33 791.577 1084.46 789.054 1081.82C777.058 1088.62 765.064 1095.41 753.069 1102.21Z" fill="#3A647A"/>
<path d="M790.64 1080.64C793.192 1080.64 795.743 1080.63 798.295 1080.63C805.048 1084.11 815.433 1072.77 819.782 1086.05C804.509 1096.83 789.239 1107.59 773.771 1118.5C763.028 1097.88 805.458 1102.65 790.64 1080.64Z" fill="#3A5669"/>
<path d="M914.247 1367.87C899.176 1387.55 874.971 1393.66 855.614 1407.36C868.969 1386.34 890.568 1375.97 910.851 1363.92C911.964 1365.26 913.096 1366.57 914.247 1367.87Z" fill="#627385"/>
<path d="M618.908 800.469C602.631 807.603 589.966 822.923 568.961 819.336C576.077 807.53 595.593 808.783 599.985 794.111L599.465 794.608C605.94 796.58 616.821 786.04 618.908 800.469Z" fill="#3C5F7C"/>
<path d="M481.011 781.536C472.088 796.167 457.07 803.055 437.579 815.529C446.289 790.538 464.324 786.854 479.309 779.693C479.307 779.691 481.011 781.536 481.011 781.536Z" fill="#5C888C"/>
<mask id="mask0_3033_17593" style="mask-type:luminance" maskUnits="userSpaceOnUse" x="1424" y="110" width="993" height="1672">
<path d="M2417 110.764H1424.58V1782H2417V110.764Z" fill="white"/>
</mask>
<g mask="url(#mask0_3033_17593)">
<path d="M1529.9 118.108C1538.39 109.654 1549.38 110.82 1559.81 110.816C1791.74 110.754 2023.66 110.795 2255.58 110.895C2259.78 110.897 2263.97 111.861 2268.16 112.377C2282.56 119.425 2285.78 132.742 2286.08 146.734C2287.65 220.241 2287.21 293.758 2286.37 367.271C2286.23 379.149 2282.74 390.012 2275.54 399.584C2263.5 410.698 2248.36 410.344 2233.59 410.363C2050.4 410.593 1867.22 410.602 1684.04 410.393C1672.37 410.38 1660.72 409.963 1649.74 405.361C1634.78 398.356 1633.54 384.814 1633.11 370.645C1631.24 307.375 1625.09 244.307 1626.6 180.842C1627.73 133.083 1624.44 131.276 1576.74 131.96C1560.66 128.953 1542.69 132.193 1529.9 118.108Z" fill="#E1332E"/>
<path d="M2276.82 428.694C2276.93 433.991 2277.79 439.398 2277.03 444.566C2271.97 478.832 2284.75 496.719 2317.75 513.722C2380.56 546.092 2417.34 601.037 2417.36 675.077C2417.47 991.89 2417.45 1308.7 2417.24 1625.52C2417.18 1714.82 2350.47 1782.28 2261.1 1782.88C2160.45 1783.55 2059.77 1783.93 1959.14 1782.53C1933.34 1782.17 1927.22 1790.74 1927.33 1815.22C1928.27 2004.88 1927.96 2194.54 1927.88 2384.21C1927.87 2396.62 1930.02 2409.45 1923.94 2423.41C1908.98 2413.91 1914.72 2400 1914.7 2389.11C1914.29 2200.5 1913.75 2011.9 1915.21 1823.3C1915.45 1792.05 1908.76 1781.33 1875.31 1782.19C1780.01 1784.67 1684.61 1783.22 1589.26 1783.04C1491.96 1782.88 1425.11 1716.75 1425.03 1619.96C1424.81 1308.45 1425.32 996.93 1424.57 685.416C1424.38 605.966 1462.27 548.158 1528.2 512.729C1559.72 495.787 1569.56 479.01 1565.21 447.537C1564.35 441.31 1565.22 434.844 1565.3 428.488C1577.61 415.606 1593.74 415.735 1609.68 415.722C1817.31 415.548 2024.93 415.542 2232.55 415.728C2248.48 415.741 2264.64 415.591 2276.82 428.694Z" fill="#C0DDEB"/>
<path d="M2276.82 428.694C2039.65 428.622 1802.47 428.55 1565.29 428.481C1565.02 420.656 1564.74 412.826 1564.47 404.998C1565.7 401.324 1568.02 398.576 1571.42 396.712C1595.27 388.781 1618.58 389.108 1641.04 401.525C1851.13 401.704 2061.21 401.883 2271.31 402.062C2274.68 400.604 2276.86 401.652 2277.8 405.204C2277.47 413.034 2277.15 420.864 2276.82 428.694Z" fill="#99C3D1"/>
<path d="M2277.81 405.204C2275.64 404.157 2273.47 403.109 2271.31 402.061C2271.21 320.26 2271.11 238.46 2270.98 156.659C2270.96 143.091 2272.51 129.252 2264.73 116.897C2323.98 113.236 2333.53 122.302 2333.51 181.508C2333.48 236.62 2333.85 291.734 2333.73 346.847C2333.61 397.447 2328.68 402.398 2277.81 405.204Z" fill="#D21F1E"/>
<path d="M1526.47 122.629C1541.35 125.337 1557.82 117.156 1571.36 129.133C1578.02 136.896 1578.81 146.038 1578.47 155.823C1576.09 222.17 1578.03 288.549 1577.22 354.909C1577.01 371.668 1578.21 388.999 1564.86 402.437C1564.86 402.437 1564.49 404.994 1564.48 404.997C1508.65 402.392 1507.42 401.507 1507.2 346.738C1506.95 286.445 1507.17 226.146 1507.79 165.856C1507.95 149.275 1506.68 131.148 1526.47 122.629Z" fill="#F22522"/>
<path d="M1755.79 262.227C1755.82 297.077 1755.66 331.927 1755.88 366.776C1756 385.407 1752.8 399.13 1728.76 391.021C1723 389.078 1716.2 390.094 1709.87 389.977C1653.94 388.949 1653.94 388.964 1653.95 331.411C1653.96 275.441 1655.04 219.442 1653.55 163.511C1652.77 134.257 1666.34 123.573 1693.04 122.813C1706.96 122.417 1720.15 126.661 1733.59 127.861C1751.83 129.487 1756.35 137.999 1756.01 154.516C1755.25 190.405 1755.77 226.322 1755.79 262.227Z" fill="#EF473E"/>
<path d="M1564.86 402.434C1564.95 337.341 1565.27 272.246 1564.98 207.154C1564.86 180.906 1565.06 154.799 1571.36 129.131C1625.49 115.199 1636.59 122.523 1634.54 178.078C1631.78 252.792 1642.49 326.953 1641.04 401.524C1615.64 401.827 1590.26 402.131 1564.86 402.434Z" fill="#EF473E"/>
<path d="M2391.95 1149.83C2391.95 1308.75 2392.05 1467.68 2391.91 1626.61C2391.84 1702.48 2337.96 1757.41 2262.67 1757.52C2033.82 1757.84 1804.96 1757.88 1576.12 1757.65C1504.99 1757.59 1450.57 1702.3 1450.5 1630.16C1450.23 1315.49 1451.81 1000.8 1449.14 686.147C1448.48 608.658 1519.58 511.495 1619.17 511.181C1824.72 510.533 2030.26 510.014 2235.8 511.361C2319.54 511.909 2391.72 588.35 2391.99 673.05C2392.5 831.975 2392.14 990.903 2392.14 1149.83C2392.08 1149.83 2392.02 1149.83 2391.95 1149.83Z" fill="#8FBFCD"/>
<path d="M1913.84 580.136C1944.88 570.147 1977.17 573.556 2008.16 576.224C2073.83 581.878 2139.63 582.253 2204.94 578.855C2294.99 574.171 2333.34 625.218 2333.7 709.08C2334.22 830.944 2333.88 952.812 2333.94 1074.68C2334 1246.36 2334.14 1418.02 2334.14 1589.69C2334.15 1675.77 2303.58 1706.51 2217.56 1706.58C2014.1 1706.76 1810.64 1706.81 1607.17 1706.64C1594.86 1706.63 1581.52 1710.28 1570.59 1700.66C1581.69 1687.26 1597.35 1689.87 1611.75 1689.7C1658.21 1689.12 1704.95 1686.35 1751.1 1690.16C1832.79 1696.93 1914.7 1614.72 1906.24 1520.65C1903.96 1506.62 1896.61 1493.1 1901.6 1478.23C1912.32 1458.77 1903.64 1451.44 1884.41 1450.74C1855.24 1449.66 1825.94 1452.01 1796.89 1449.36C1785.69 1448.33 1767.09 1453.24 1769.48 1430.46C1785.38 1418.55 1803.97 1422.22 1821.69 1421.71C1850.24 1420.9 1878.89 1422.69 1907.29 1418.94C1920.32 1416.5 1933.11 1422.99 1943.38 1420.34C1935.98 1420.64 1925.79 1420.64 1916.14 1416.23C1913.61 1414.05 1912.35 1411.3 1912.1 1408.02C1918.34 1382.64 1906.97 1373.57 1882.55 1373.97C1855.23 1374.42 1827.84 1374.96 1800.56 1373.46C1787.69 1372.77 1772.26 1375.03 1767.11 1357.35C1779.88 1342.44 1797.54 1347.08 1813.61 1346.26C1835.33 1345.16 1857.15 1347.07 1879.96 1345.03C1876.73 1335.54 1859.36 1337.34 1863.46 1323.54C1873.76 1312.22 1891.5 1317.44 1906.29 1305.75C1874.59 1291.86 1845.02 1300.66 1816.66 1297.53C1801.04 1295.8 1781.99 1302.17 1773.49 1281.23C1799.64 1260.13 1830.46 1273.48 1858.97 1269.77C1872.73 1267.98 1890.48 1274.12 1892.68 1251.38C1912.34 1223.66 1912.34 1223.66 1875.41 1204.43C1876.53 1186 1903.6 1187.34 1903.18 1167.77C1910.8 1148.21 1897.69 1146.15 1883.95 1145.44C1860.73 1144.26 1837.43 1146.02 1814.25 1144.48C1801.29 1143.62 1785.68 1146.54 1779.77 1129.06C1806.73 1106.66 1838.62 1119.92 1868.16 1117.85C1886.03 1116.59 1895.22 1111.41 1895.95 1093.43C1913.41 1083.56 1924.23 1069.23 1928.62 1049.29C1957.93 916.153 1988.28 783.234 2010.58 648.668C2011.96 640.325 2011.3 631.766 2011.91 623.35C2013.58 600.309 2003.24 591.743 1980.29 591.214C1957.94 590.697 1933.36 599.004 1913.84 580.136Z" fill="#E7F2FA"/>
<path d="M1781.19 1127.88C1818.56 1141.31 1857.25 1130.86 1895.17 1134.16C1905.02 1135.02 1917.66 1131.22 1920.21 1146.06C1922.18 1157.52 1923.26 1169.7 1907.2 1172.97C1893.39 1186.24 1875.87 1182.32 1859.45 1183.09C1835.85 1184.2 1811.98 1181.41 1782.65 1186.36C1816.31 1201.13 1849.36 1182.7 1875.54 1203.38C1880.66 1203.77 1885.8 1204 1890.91 1204.59C1902.96 1206 1919.19 1198.86 1921.06 1220.58C1922.8 1240.68 1912.95 1248.87 1894.29 1249.47C1868.25 1267.11 1838.84 1255.82 1811.12 1259.06C1795.69 1260.87 1777.75 1257.74 1774.83 1280.48C1807.06 1294.3 1840.86 1283.72 1873.8 1286.76C1884.22 1287.72 1894.84 1286.65 1905.21 1287.87C1916.46 1289.2 1920.57 1297.33 1920.81 1308.03C1921.08 1320.21 1914.61 1324.62 1903.21 1324.67C1889.59 1324.75 1875.98 1325.45 1862.36 1325.87C1847.65 1339.68 1829.12 1333.33 1812.19 1335.35C1795.06 1337.39 1776.18 1335.74 1768.49 1356.88C1809 1371.39 1850.89 1359.96 1892 1363.39C1904.04 1364.39 1918.93 1359.41 1925.09 1374.33C1931.06 1388.83 1928.77 1403.03 1914.98 1413.33C1880.5 1424.92 1844.97 1414.8 1810.13 1418.54C1795.49 1420.13 1777.93 1414.36 1768.72 1432.52C1791.87 1447.09 1817.44 1437.46 1841.82 1439.46C1859.47 1440.9 1877.36 1439.45 1895.13 1439.71C1906.28 1439.87 1919.38 1437.24 1920.84 1454.64C1922.17 1470.37 1921.86 1484.78 1900.36 1485.07C1872.61 1502.98 1841.49 1489.97 1812.44 1494.98C1802.91 1496.62 1786.13 1485.48 1784.96 1506.86C1810.2 1519.22 1836.82 1510.27 1862.58 1512.69C1876.12 1513.96 1889.86 1511.72 1903.41 1514.3C1905 1514.7 1906.6 1515.11 1908.18 1515.54C1920.9 1517.79 1921.76 1527.01 1920.6 1537.12C1911.94 1612.38 1874.11 1666.67 1804.09 1696.95C1795.85 1700.51 1785.55 1700.06 1776.19 1700.11C1707.67 1700.49 1639.14 1700.52 1570.6 1700.66C1528.5 1684.26 1507.92 1655.91 1507.91 1611.85C1507.81 1303.44 1507.85 995.043 1508.11 686.641C1508.16 627.509 1552.63 581.236 1611.83 580.59C1712.5 579.49 1813.17 580.198 1913.85 580.141C1939.26 580.419 1964.82 582.503 1990.05 580.495C2017.52 578.309 2024.05 589.603 2023.45 615.169C2022.15 671.591 2011.24 726.314 1997.21 780.37C1972.85 874.256 1963.82 971.331 1935.95 1064.58C1928.69 1088.87 1918.94 1098.88 1895.03 1096.36C1867.43 1115.47 1836.21 1102.9 1806.81 1106.16C1792.51 1107.76 1778.42 1107.2 1781.19 1127.88Z" fill="#FEFEFD"/>
<path d="M1768.69 1515.15C1758.46 1495.42 1763.99 1485.07 1786.67 1485.05C1824.56 1485.02 1862.47 1485.05 1900.37 1485.06C1915.42 1492.02 1917.31 1502.36 1908.18 1515.53L1908.31 1515.49C1861.76 1520.99 1815.21 1521.44 1768.69 1515.15Z" fill="#2EA9C1"/>
<path d="M1781.19 1127.88C1772.93 1124.17 1761.32 1122.91 1763.69 1109.87C1766.22 1095.97 1778.06 1096.81 1788.49 1096.75C1824 1096.51 1859.52 1096.48 1895.03 1096.36C1901.69 1102.79 1919.26 1098.34 1915.27 1115.04C1911.91 1129.15 1898.87 1126.05 1888.96 1126.3C1853.04 1127.21 1817.12 1127.41 1781.19 1127.88Z" fill="#20ABBC"/>
<path d="M1774.83 1280.48C1768.32 1275.45 1759.81 1271.01 1764.15 1260.71C1767.93 1251.76 1776.85 1250.55 1785.19 1250.42C1821.56 1249.9 1857.93 1249.75 1894.29 1249.47C1903.39 1252.98 1911.53 1256.82 1909.38 1269.31C1906.89 1283.7 1895.67 1279.64 1887.29 1279.77C1849.81 1280.38 1812.33 1280.3 1774.83 1280.48Z" fill="#1DA4B8"/>
<path d="M1875.54 1203.38C1846.09 1202.8 1816.63 1202.63 1787.21 1201.41C1777.35 1201 1763.54 1202.14 1763.75 1187.01C1763.94 1172.65 1776.52 1172.33 1787.2 1172.34C1827.2 1172.38 1867.2 1172.74 1907.2 1172.97C1920.5 1207.96 1888.96 1196.23 1875.54 1203.38Z" fill="#22A6BE"/>
<path d="M1768.49 1356.88C1754.55 1337.33 1765.6 1329.58 1783.61 1328.27C1809.77 1326.37 1836.11 1326.56 1862.36 1325.87C1869.54 1326.97 1876.77 1327.8 1883.88 1329.24C1893.95 1331.29 1909.84 1324.71 1909.82 1343.22C1909.8 1364 1892.48 1357.49 1881.63 1357.64C1843.93 1358.15 1806.21 1357.25 1768.49 1356.88Z" fill="#199EC0"/>
<path d="M2036.06 1325.32C2054.05 1325.32 2072.04 1324.92 2090.01 1325.49C2099.89 1325.8 2105.45 1331.71 2104.96 1342.04C2104.49 1351.81 2097.04 1354.44 2089.5 1354.34C2052.5 1353.91 2015.5 1352.94 1978.51 1351.87C1970.38 1351.64 1964.15 1348.25 1964.39 1338.58C1964.63 1329.11 1970.77 1325.5 1978.92 1325.33C1997.97 1324.97 2017.01 1325.22 2036.06 1325.22C2036.06 1325.25 2036.06 1325.29 2036.06 1325.32Z" fill="#25A2C6"/>
<path d="M2226.2 891.918C2208.2 891.889 2190.2 892.036 2172.19 891.83C2162.16 891.716 2151.92 890.183 2152.2 877.11C2152.49 864.851 2163.08 865.84 2171.18 865.788C2208.25 865.55 2245.32 865.663 2282.38 865.973C2290.76 866.044 2300.73 865.971 2300.94 878.007C2301.12 889.21 2292.28 891.649 2283.39 891.829C2264.34 892.216 2245.27 891.948 2226.2 891.918Z" fill="#34A5CC"/>
<path d="M2224.39 1366.99C2204.37 1366.99 2184.34 1367.36 2164.33 1366.82C2156.12 1366.6 2150.15 1361.97 2151.24 1352.68C2152.19 1344.39 2159.23 1343.69 2165.51 1343.67C2205.55 1343.53 2245.59 1343.56 2285.64 1343.83C2293.07 1343.87 2301.74 1344.99 2302.26 1354.48C2302.94 1366.46 2292.66 1367 2284.46 1367.23C2264.44 1367.77 2244.41 1367.4 2224.39 1367.4C2224.39 1367.26 2224.39 1367.13 2224.39 1366.99Z" fill="#3DACCF"/>
<path d="M1768.72 1432.52C1760.78 1420.57 1759.78 1407.47 1776.8 1407.25C1822.89 1406.64 1869.43 1400.55 1914.98 1413.33L1914.88 1416.18C1917.08 1416.81 1917.94 1417.69 1917.46 1418.83C1916.93 1420.09 1916.37 1420.72 1915.74 1420.72C1910.3 1431.94 1900.73 1433.73 1889.34 1433.54C1849.14 1432.87 1808.93 1432.81 1768.72 1432.52Z" fill="#12A0C0"/>
<path d="M2225.88 1502.64C2247.07 1502.64 2268.27 1502.43 2289.46 1502.77C2295.8 1502.87 2302.96 1504.22 2301.87 1513.09C2301.1 1519.38 2295.34 1521.06 2289.91 1521.1C2248.57 1521.28 2207.24 1521.31 2165.91 1521.23C2159.39 1521.22 2152.19 1520.16 2151.91 1511.93C2151.61 1503.25 2159.18 1502.67 2165.46 1502.58C2185.6 1502.33 2205.74 1502.48 2225.88 1502.48C2225.88 1502.54 2225.88 1502.59 2225.88 1502.64Z" fill="#47AFC8"/>
<path d="M2227.69 1045.35C2206.52 1045.35 2185.33 1045.55 2164.17 1045.23C2157.74 1045.13 2150.81 1043.62 2152 1034.75C2152.86 1028.35 2158.59 1026.85 2163.99 1026.84C2204.21 1026.75 2244.45 1026.8 2284.69 1027.04C2292.5 1027.08 2300.61 1029.3 2299.93 1038.91C2299.3 1047.7 2290.5 1045.72 2284.88 1045.86C2265.82 1046.35 2246.76 1046.05 2227.7 1046.05C2227.69 1045.82 2227.69 1045.58 2227.69 1045.35Z" fill="#36A8CD"/>
<path d="M2300.85 1202.3C2251.34 1202.3 2201.82 1202.3 2147.98 1202.3C2169.99 1186.25 2272.2 1184.59 2300.85 1202.3Z" fill="#34A1C1"/>
<path d="M1964.78 1173.34C2006.85 1173.34 2048.92 1173.34 2090.99 1173.34C2091 1175.07 2091.01 1176.79 2091.03 1178.52C2048.96 1178.52 2006.88 1178.52 1964.82 1178.52C1964.81 1176.79 1964.8 1175.07 1964.78 1173.34Z" fill="#34545E"/>
<path d="M1915.74 1420.73C1915.11 1419.28 1914.82 1417.77 1914.87 1416.18C1937.23 1411.96 1959.34 1413.38 1981.45 1418.79C1959.71 1428.36 1937.91 1430.59 1915.74 1420.73Z" fill="#5B7F8D"/>
<path d="M1969.59 969.42C2008.04 969.42 2046.49 969.42 2084.93 969.42C2084.94 971.132 2084.94 972.846 2084.94 974.559C2046.31 974.559 2007.66 974.559 1969.03 974.559C1969.21 972.846 1969.41 971.132 1969.59 969.42Z" fill="#364D50"/>
<path d="M1633.05 1013.51C1652.06 1013.5 1671.08 1013.33 1690.1 1013.59C1698.15 1013.7 1708.46 1011.57 1709.13 1024.22C1709.69 1034.61 1706.15 1044.19 1693.98 1044.26C1650.69 1044.5 1607.39 1044.17 1564.1 1043.42C1553.01 1043.23 1551.49 1034.51 1551.65 1025.21C1551.82 1014.83 1558.55 1013.54 1566.48 1013.53C1588.67 1013.5 1610.86 1013.52 1633.05 1013.51Z" fill="#1FA5C7"/>
<path d="M1632.24 1127.09C1613.19 1127.1 1594.16 1127.33 1575.12 1127C1566.1 1126.85 1557.89 1124.45 1558.34 1112.86C1558.72 1102.96 1563.99 1096.86 1574.16 1096.91C1613.28 1097.12 1652.4 1097.48 1691.52 1098.22C1701.12 1098.4 1707.87 1103.71 1707.51 1114.03C1707.12 1125.42 1698.12 1126.86 1689.35 1126.99C1670.31 1127.25 1651.27 1127.07 1632.24 1127.09Z" fill="#32A7C1"/>
<path d="M1631.4 1280.51C1613.5 1280.51 1595.6 1280.88 1577.72 1280.37C1568.07 1280.1 1557.64 1278.72 1558.44 1265.26C1559.04 1255.36 1565.92 1250.06 1575.43 1250.09C1613.3 1250.19 1651.18 1250.55 1689.05 1251.42C1697.99 1251.62 1705.73 1255.88 1705.68 1266.62C1705.61 1278.02 1697.21 1279.99 1688.25 1280.1C1669.3 1280.31 1650.36 1280.16 1631.41 1280.16C1631.4 1280.28 1631.4 1280.4 1631.4 1280.51Z" fill="#1DA0BA"/>
<path d="M1631.14 1515.88C1612.16 1515.88 1593.18 1515.89 1574.2 1515.87C1564.43 1515.86 1558.17 1512.1 1557.73 1501.28C1557.25 1489.75 1565.03 1486.31 1573.86 1486.25C1611.79 1486 1649.74 1486.15 1687.65 1486.95C1695.56 1487.13 1705.87 1488.26 1704.86 1500.53C1703.89 1512.3 1695.47 1516.19 1684.92 1516.3C1666.99 1516.47 1649.06 1516.34 1631.14 1516.34C1631.14 1516.19 1631.14 1516.04 1631.14 1515.88Z" fill="#25A8C7"/>
<path d="M1634.03 1203.54C1614.03 1202.58 1593.99 1202.05 1574.04 1200.47C1565.44 1199.78 1556.95 1196.72 1558.2 1185.14C1559.2 1175.88 1566.37 1173 1574.04 1172.95C1611.98 1172.72 1649.94 1172.83 1687.89 1173.22C1696.98 1173.31 1705.14 1177.02 1705.44 1187.53C1705.77 1198.97 1696.06 1200.94 1687.8 1201.31C1669.91 1202.12 1651.97 1201.56 1634.06 1201.56C1634.05 1202.21 1634.04 1202.88 1634.03 1203.54Z" fill="#24A4C3"/>
<path d="M1634.41 1357.27C1614.32 1357.25 1594.23 1357.4 1574.14 1357.19C1564.83 1357.08 1557.25 1354.16 1557.74 1342.73C1558.15 1333.38 1564.78 1330.17 1572.63 1329.43C1612.72 1325.66 1652.84 1325.59 1692.93 1329.68C1701.35 1330.54 1706.68 1335.04 1706.35 1344.07C1706 1353.38 1699.51 1356.98 1691.49 1357.16C1672.47 1357.59 1653.43 1357.29 1634.41 1357.27Z" fill="#189DBF"/>
<path d="M1827.91 860.821C1843.7 860.821 1859.49 860.513 1875.28 860.942C1884.23 861.185 1892.51 864.45 1893.74 874.615C1895.12 886.107 1885.79 889.235 1877.43 889.383C1843.78 889.977 1810.11 889.927 1776.46 889.266C1767.31 889.087 1760.58 883.939 1761.83 872.923C1762.89 863.477 1769.53 860.959 1777.37 860.817C1794.22 860.513 1811.07 860.723 1827.91 860.723C1827.91 860.756 1827.91 860.789 1827.91 860.821Z" fill="#2CB1CD"/>
<path d="M1623.42 860.868C1639.25 860.886 1655.07 860.716 1670.9 860.95C1680.33 861.089 1687.45 864.532 1687.39 875.57C1687.34 884.671 1681.61 889.576 1673.51 889.628C1639.78 889.848 1606.05 889.628 1572.33 888.87C1563.16 888.664 1556.11 884.038 1557.16 872.954C1558.06 863.428 1564.9 861.059 1572.78 860.932C1589.65 860.661 1606.53 860.849 1623.42 860.868Z" fill="#2EAFCB"/>
<path d="M1633.94 1434.42C1614.99 1434.42 1596.03 1434.79 1577.11 1434.25C1567.75 1433.99 1557.33 1433.84 1558.55 1419.27C1559.5 1407.94 1567.1 1405.69 1576.03 1405.71C1612.88 1405.78 1649.73 1406.04 1686.56 1406.53C1696.65 1406.67 1706.56 1409.2 1705.96 1421.93C1705.31 1436.1 1693.27 1433.37 1684.46 1433.65C1667.63 1434.18 1650.78 1433.8 1633.94 1433.8C1633.94 1434 1633.94 1434.21 1633.94 1434.42Z" fill="#129BBF"/>
<path d="M1835.95 1044.34C1816.97 1044.34 1797.99 1044.5 1779.02 1044.26C1771.59 1044.16 1763.41 1043.62 1762.67 1033.62C1761.95 1023.74 1769.25 1020.93 1777.11 1020.93C1816.12 1020.97 1855.13 1021.24 1894.12 1021.91C1901.43 1022.03 1909.77 1023.61 1909.04 1034.03C1908.34 1043.92 1900.5 1044.82 1892.89 1044.88C1873.91 1045.03 1854.93 1044.93 1835.95 1044.93C1835.95 1044.73 1835.95 1044.53 1835.95 1044.34Z" fill="#32B1CA"/>
<path d="M1825.29 963.263C1809.47 963.263 1793.65 963.518 1777.85 963.112C1772.96 962.986 1766.59 963.01 1765.84 955.875C1765.21 949.946 1768.41 944.839 1774.28 944.783C1810.08 944.449 1845.89 944.535 1881.68 945.179C1884.32 945.225 1888.54 950.5 1889.06 953.811C1890.1 960.397 1884.76 962.632 1879.06 962.682C1861.14 962.836 1843.22 962.738 1825.29 962.738C1825.29 962.913 1825.29 963.088 1825.29 963.263Z" fill="#2DB4C5"/>
<path d="M1623.15 963.407C1606.34 963.407 1589.53 963.617 1572.74 963.282C1567.6 963.179 1561.69 961.993 1561.97 954.936C1562.19 949.292 1565.54 944.407 1571.47 944.366C1605.06 944.138 1638.63 944.268 1672.21 944.61C1678.24 944.67 1681.7 949.102 1681.58 954.949C1681.44 961.929 1675.72 962.804 1670.4 962.866C1654.65 963.051 1638.89 962.932 1623.15 962.932C1623.15 963.09 1623.15 963.248 1623.15 963.407Z" fill="#25AFBD"/>
<path d="M1768.69 1515.15C1815.24 1515.26 1861.77 1515.37 1908.31 1515.49C1861.74 1526.53 1815.2 1527.11 1768.69 1515.15Z" fill="#E7F2FA"/>
</g>
</g>
<defs>
<clipPath id="clip0_3033_17593">
<rect width="2417" height="1782" fill="white"/>
</clipPath>
</defs>
</svg>
