<svg width="2226" height="1641" viewBox="0 0 2226 1641" fill="none" xmlns="http://www.w3.org/2000/svg">
<path d="M865.054 1365.39C827.557 1390.08 790.054 1414.77 752.567 1439.48C737.679 1449.29 721.509 1460.69 706.74 1441.92C690.461 1421.24 707.841 1407.37 721.72 1395.94C739.025 1381.69 757.845 1369.07 776.993 1357.37C791.241 1348.66 790.569 1341.63 781.578 1328.57C666.258 1161 551.456 993.074 436.757 825.079C398.148 768.53 359.933 711.705 322.065 654.655C305.118 629.123 289.017 602.963 279.354 570.621C251.39 588.104 224.892 605.094 197.92 621.291C188.991 626.652 178.105 637.319 168.904 623.078C160.171 609.563 173.127 601.809 181.54 596.018C218.461 570.6 256.176 546.34 293.602 521.66C301.199 503.244 321.6 499.853 333.936 486.989C345.917 480.766 353.816 467.391 368.976 466.685C402.954 444.025 436.771 421.113 471.02 398.871C480.227 392.891 492.413 385.035 500.588 398.077C508.523 410.735 497.125 418.216 487.57 424.81C464.177 440.955 440.9 457.267 417.958 473.247C483.639 543.139 529.778 624.594 583.014 700.745C701.414 870.107 818.55 1040.36 935.297 1210.87C947.777 1229.1 956.242 1230.98 973.353 1217.48C990.041 1204.3 1009.38 1194.31 1028.18 1184.07C1042.56 1176.24 1056.53 1177.91 1065 1193.48C1073.13 1208.43 1068.43 1221.24 1054.91 1230.88C1015.83 1258.74 976.684 1286.51 937.561 1314.31C933.439 1327.61 920.898 1332.14 911.321 1339.78C895.544 1347.65 882.689 1360.88 865.054 1365.39Z" fill="#F9FBFB"/>
<path d="M865 1364.81C874.064 1347.15 892.167 1341.6 907.987 1333C915.763 1333.76 921.158 1338.44 925.617 1344.2C967.603 1398.47 1003.33 1457.02 1042.11 1513.49C1044.97 1517.66 1045.12 1522.97 1046.85 1528.32C1056.23 1522.55 1062.29 1511.58 1074.81 1512.4C1100.32 1501.52 1122.39 1484.89 1145.72 1470.37C1155.06 1464.55 1166.73 1455.75 1176.11 1466.48C1185.11 1476.78 1170.53 1484.01 1167.12 1492.87C1098.79 1537.65 1030.47 1582.43 962.123 1627.17C956.146 1631.08 950.187 1635.14 943.788 1638.25C937.11 1641.5 929.318 1642.99 924.112 1636.27C917.617 1627.9 922.344 1620.47 929.454 1615.45C947.766 1602.52 966.606 1590.33 985.099 1577.65C993.981 1571.56 1000.77 1566.24 991.035 1553.64C978.019 1536.8 967.834 1517.78 956.427 1499.69C925.947 1454.73 895.474 1409.77 865 1364.81Z" fill="#A0E9FA"/>
<path d="M339 493.116C328.226 509.431 309.405 513.093 293.912 522C279.455 519.511 271.712 508.407 263.378 498.063C231.16 453.778 193.772 412.33 191.303 352.794C190.751 339.475 189.455 328.334 203.533 322C238.948 336.458 252.286 371.416 273.085 399.067C294.402 427.405 308.726 460.921 335.86 485.073C337.62 487.473 338.696 490.144 339 493.116Z" fill="#06ECE8"/>
<path d="M1075 1512.69C1064.67 1528.62 1048.74 1537.58 1025.12 1552C1038.95 1533.39 1040.9 1522.35 1030.62 1508.13C989.042 1450.57 949.375 1391.63 909 1333.2C917.498 1324.63 927.052 1317.69 938.692 1314C984.128 1380.22 1029.56 1446.46 1075 1512.69Z" fill="#77D6F1"/>
<path d="M368 466.949C359.572 477.542 352.129 489.282 337.81 493C337.808 493.003 336.33 490.808 336.33 490.808C281.658 421.319 234.637 346.267 181.316 275.793C177.657 270.957 175.081 265.3 178.855 259.045C202.682 249.858 218.232 262.668 228.055 281.313C239.828 303.657 248.857 325.864 274.863 337.416C286.366 342.527 295.584 357.168 301.6 369.558C319.028 405.444 346.143 434.327 368 466.949Z" fill="#09E1E1"/>
<path d="M207.032 325.969C188.585 352.268 202.398 377.885 210.223 402.687C221.408 438.14 250.143 464.624 264 499C260.144 497.599 254.039 497.248 252.774 494.624C234.061 455.787 190.913 431.048 187.919 382.875C186.78 364.554 180.612 345.905 166.866 332.809C142.332 309.435 144.105 287.256 165.832 264C191.39 276.993 203.836 298.484 207.032 325.969Z" fill="#46DDE5"/>
<path d="M207.285 325.758C194.219 304.899 184.92 281.562 166.811 264.029C166.509 262.198 166.234 260.358 166 258.513C167.406 255.302 168.246 251.463 173.103 252.062C174.876 254.111 176.648 256.161 178.425 258.211C220.966 322.474 272.246 380.672 309.815 448.388C317.993 463.132 336.879 471.063 337 491C320.607 489.31 313.58 476.48 305.793 464.614C274.634 417.135 243.1 369.924 207.285 325.758Z" fill="#14ADBB"/>
<path d="M172 251.55C169.636 253.698 167.272 255.846 164.911 258C137.303 215.278 109.873 172.431 82.031 129.855C54.9055 88.3735 27.3613 47.1696 0 5.84302C2.87964 3.89536 5.75812 1.94766 8.63776 0C63.0922 83.8499 117.547 167.7 172 251.55Z" fill="#5A7A89"/>
<path d="M669.24 995.76C643.718 1002.83 629.635 1033.18 594.944 1034C610.522 1010.22 633.665 1004.25 649.289 988.971C656.68 981.746 668.613 977.255 659.907 965.233C650.563 952.33 640.975 964.885 633.96 969.533C616.717 980.958 601.869 996.439 578.09 996.939C606.183 970.066 633.482 943.056 658.972 911.703C640.743 910.282 634.163 931.981 617.045 928.611C617.152 912.953 633.021 910.955 639.267 900.546C615.344 898.335 606.213 920.047 590.576 930.855C583.878 935.484 578.471 942.272 571.417 946.058C563.597 950.255 554.487 965.022 546.069 951.445C537.273 937.255 554.724 936.194 561.984 931.727C578.532 921.545 595.79 912.619 609.078 897.835C614.637 891.65 615.615 884.852 610.978 878.179C605.179 869.836 598.768 874.003 592.609 878.357C575.105 890.73 557.638 903.165 539.965 915.29C534.731 918.88 528.37 921.469 524.38 913.867C521.226 907.858 526.118 904.543 530.646 901.929C548.208 891.796 555.178 865.959 581.538 867.905C585.905 868.227 595.916 860.017 578.905 857.277C568.5 855.599 585.448 841.688 575.464 833.235C554.002 841.4 538.57 859.341 520.421 873.324C515.412 877.183 510.766 886.51 502.876 878.692C494.128 870.023 502.134 863.1 507.826 858.071C520.035 847.283 533.269 837.681 546.084 827.594C566.663 810.907 584.817 789.706 614.525 790.003C612.728 817.244 640.773 826.314 650.209 848.071C656.04 861.517 660.54 880.006 676.859 890.854C700.273 906.419 675.971 916.767 668.14 929.269C680.678 930.692 687.804 903.946 699.857 921.421C705.164 929.115 720.987 935.797 711.584 952.831C708.713 958.033 719.782 948.914 724.194 952.804C733.673 968.747 723.914 977.003 711.691 983.777C698.524 991.071 685.025 997.7 669.24 995.76Z" fill="#6C9EB1"/>
<path d="M773.297 1130.3C768.587 1093.96 765.899 1092.75 735.532 1113.25C717.089 1125.71 701.57 1143.31 672 1150C693.384 1116.67 734.241 1110 742.934 1074.11C739.637 1049.96 760.93 1041.47 772.834 1027C787.012 1038.62 789.923 1051.05 771.714 1062.61C783.95 1070.29 795.756 1051.47 798.338 1063.29C804.095 1089.62 836.039 1100.78 833.897 1130.2C832.803 1132.85 830.935 1134.72 828.292 1135.82C807.671 1153.34 791.331 1131.47 772.8 1129.76L773.297 1130.3Z" fill="#78909E"/>
<path d="M551.8 730.974C515.341 742.328 486.406 766.533 456.702 789.444C450.86 793.95 444.675 805.257 437.427 794.488C432.343 786.935 442.029 783.359 447.921 779.277C460.398 770.632 472.199 760.946 484.125 751.487C497.488 740.888 510.708 731.286 491.881 712.441C482.397 702.948 498.699 695.294 498.885 684.886C475.431 688.283 463.53 711.791 442.536 719.24L440.976 717.45C451.311 705.315 461.646 693.179 471.981 681.045C473.988 663.049 484.304 656.26 501.163 658.295C504.962 657.152 511.843 654.495 512.117 655.084C523.755 679.984 547.683 695.137 560.229 719.037C564.418 727.015 550.11 724.038 551.331 731.468L551.8 730.974Z" fill="#6C8C9E"/>
<path d="M416.581 637.005C411.572 640.637 405.315 655.166 400.692 640.741C390.187 607.966 367.8 583.671 350.035 556.07C343.815 546.404 330.336 537.369 347.09 526.023C360.413 517.001 372.433 511.582 383.33 532.245C398.466 560.943 416.821 587.837 433.798 615.502C436.093 629.512 418.079 626.224 416.581 637.005Z" fill="#79F1F5"/>
<path d="M416.698 635.849C418.201 625.158 427.828 621.15 434.34 614.594C440.277 610.849 446.48 607.444 452.123 603.283C464.345 594.268 464.228 594.111 468.48 608.373C480.052 603.14 475.155 625.036 488.108 619.878C493.156 617.867 496.257 623.793 494.825 629.97C493.709 634.776 468.913 648.411 500.708 641.986C518.626 638.364 501.959 652.807 501.744 659.053C491.887 666.515 482.036 673.972 472.185 681.427C452.079 655.392 433.332 664.1 413.256 682.35C402.834 691.824 392.619 703.959 370 705C401.144 673.037 444.403 660.315 458.212 610.075C443.762 626.546 431.102 632.998 416.698 635.849Z" fill="#657C88"/>
<path d="M754.719 1000.01C758.882 1008.43 763.044 1016.85 767.207 1025.27C770.674 1029.46 768.619 1033.21 765.228 1035.43C743.155 1049.88 720.871 1064 694.329 1069C699.78 1040.91 673.346 1052.03 663 1043.37C665.659 1026.08 682.381 1019.88 691.117 1007.35C703.442 999.53 714.807 988.937 731.313 992.834C740.523 1006.59 727.911 1011.07 721.334 1017.19C732.117 1012.04 739.51 998.529 754.719 1000.01Z" fill="#AFD6DE"/>
<path d="M834.64 1208.87C819.934 1195.2 796.954 1183.49 822.437 1160.28C821.661 1143.4 839.714 1141.45 847.043 1131C855.553 1153.69 879.572 1166.85 886 1190.82C883.646 1194.81 879.914 1197.1 875.698 1198.81C861.788 1201.24 850.463 1213.78 834.64 1208.87Z" fill="#9BABB5"/>
<path d="M515.662 805.471C497.089 813.681 487.727 837.678 459 838C473.533 809.18 499.874 800.641 520.43 785.516C533.195 763.62 553.445 752.308 576.527 745C600.677 752.981 578.581 768.888 582.458 780.342C579.987 807.72 575.05 812.391 552.988 803.041C539.155 797.178 527.862 801.349 515.662 805.471Z" fill="#528299"/>
<path d="M516 804.661C530.205 795.12 540.562 765.725 561.728 801.337C567.592 811.205 575.014 787.444 582.328 779.722C597.312 769.88 604.682 781.661 613 790.74C587.016 796.933 573.459 826.22 545.098 828C537.007 818.171 528.665 808.667 516 804.661Z" fill="#B7D7DE"/>
<path d="M692.799 1068.91C717.341 1054.28 741.884 1039.64 766.421 1025C768.611 1025.38 770.806 1025.76 773 1026.14C772.88 1048.35 748.421 1055.13 742.635 1073.75C716.855 1059.45 700.999 1082.41 681.507 1090.6C669.879 1095.49 661.26 1108.15 644 1102.63C655.195 1082.55 679.605 1083.44 692.799 1068.91Z" fill="#5C8697"/>
<path d="M845.871 1131C847.861 1149.05 826.233 1147.85 821.681 1160.56C788.33 1176.42 762.525 1203.63 731.51 1223C729.673 1220.72 727.837 1218.44 726 1216.16C749.519 1198.49 773.248 1181.09 796.465 1163.03C807.255 1154.64 822.571 1151.48 827.93 1136.63C829.789 1134.77 831.649 1132.92 833.508 1131.06C837.629 1131.04 841.75 1131.02 845.871 1131Z" fill="#657180"/>
<path d="M667.609 995.741C676.831 984.742 691.075 983.725 703.217 978.743C715.378 973.753 726.577 969.163 723.607 953C730.172 957.361 734.358 963.314 736 970.975C735.294 984.659 726.214 991.138 715.012 997.191C705.489 1002.34 694.791 1006.41 687.923 1015.61C681.197 1019.4 678.335 1031.21 667 1025.44C668.869 1015.57 675.527 1005.8 667.609 995.741Z" fill="#AFD6DE"/>
<path d="M834.453 1210.44C848.86 1207.74 856.541 1190.99 872.752 1192.05C874.647 1207.14 865.442 1212.87 852.84 1215.74C819.809 1227.22 793.825 1251.22 763 1267C781.684 1241.3 810.27 1228.69 834.453 1210.44Z" fill="#5E6574"/>
<path d="M576 744.531C559.624 761.461 540.652 774.596 520.493 786C515.142 774.799 512.533 763.996 524.577 755.325C541.93 755.484 550.416 732.935 569.043 736.353C571.361 739.078 573.68 741.805 576 744.531Z" fill="#B9D6E0"/>
<path d="M852 1214.99C858.731 1207.35 865.462 1199.71 872.197 1192.07C876.483 1192.05 880.764 1192.02 885.062 1192C893.225 1195.19 894.677 1202.15 895.773 1209.32C897.578 1223.61 888.361 1223.94 877.645 1222.36C871.971 1210.77 856.606 1229.96 852 1214.99Z" fill="#B2C0C8"/>
<path d="M772.51 1129C756.159 1157.14 727.052 1166.89 701 1181C725.193 1164.15 741.807 1136.17 773 1129.55C773.002 1129.55 772.51 1129 772.51 1129Z" fill="#5B6D7E"/>
<path d="M878.686 1223.07C885.526 1219.74 892.98 1217.18 896.795 1210C911.436 1214.33 908.736 1221.15 898.67 1227.23C880.062 1238.45 860.911 1248.85 841.986 1259.6C838.258 1260.67 837.047 1259.62 838.77 1256.1C852.075 1245.09 865.38 1234.08 878.686 1223.07Z" fill="#627385"/>
<path d="M667.88 1024.85C674.073 1020.92 680.265 1016.98 686.457 1013.04C689.347 1010.05 691.86 1010.35 694 1013.93C683.336 1023.9 672.674 1033.88 662.009 1043.85C651.134 1051.93 642.592 1064.05 624 1067C632.779 1042.81 654.368 1038.09 667.88 1024.85Z" fill="#6091A9"/>
<path d="M693.559 1015C691.039 1014.71 688.518 1014.41 686 1014.12C700.335 997.308 722.67 989.851 735.258 971C742.929 979.931 740.488 988.212 733.661 996.21C731.345 998.532 729.024 998.656 726.7 996.222C715.652 1002.48 704.606 1008.74 693.559 1015Z" fill="#3A647A"/>
<path d="M728.161 995.138C730.511 995.134 732.861 995.13 735.211 995.125C741.43 998.332 750.995 987.889 755 1000.12C740.934 1010.04 726.871 1019.95 712.625 1030C702.731 1011.01 741.808 1015.4 728.161 995.138Z" fill="#3A5669"/>
<path d="M842 1259.64C828.12 1277.76 805.828 1283.39 788 1296C800.3 1276.65 820.192 1267.1 838.872 1256C839.897 1257.23 840.94 1258.44 842 1259.64Z" fill="#627385"/>
<path d="M570 737.132C555.009 743.701 543.345 757.809 524 754.506C530.553 743.634 548.527 744.788 552.572 731.277L552.093 731.734C558.056 733.55 568.078 723.844 570 737.132Z" fill="#3C5F7C"/>
<path d="M443 719.697C434.782 733.17 420.951 739.513 403 751C411.022 727.987 427.631 724.594 441.432 718C441.43 717.998 443 719.697 443 719.697Z" fill="#5C888C"/>
<g clip-path="url(#clip0_585_24144)">
<path d="M1409 108.764C1416.82 100.979 1426.94 102.052 1436.55 102.049C1650.15 101.992 1863.74 102.029 2077.34 102.121C2081.2 102.123 2085.06 103.011 2088.92 103.486C2102.18 109.976 2105.15 122.24 2105.43 135.125C2106.87 202.815 2106.47 270.515 2105.69 338.212C2105.56 349.15 2102.35 359.153 2095.72 367.968C2084.63 378.203 2070.69 377.877 2057.08 377.894C1888.37 378.106 1719.67 378.114 1550.96 377.922C1540.21 377.91 1529.48 377.526 1519.37 373.288C1505.59 366.837 1504.45 354.367 1504.06 341.319C1502.33 283.055 1496.67 224.977 1498.06 166.534C1499.1 122.554 1496.07 120.89 1452.14 121.52C1437.33 118.751 1420.78 121.734 1409 108.764Z" fill="#E1332E"/>
<path d="M2096.9 394.775C2097 399.653 2097.79 404.632 2097.09 409.391C2092.43 440.946 2104.2 457.417 2134.59 473.075C2192.44 502.884 2226.31 553.481 2226.33 621.663C2226.43 913.408 2226.41 1205.15 2226.22 1496.9C2226.17 1579.14 2164.73 1641.26 2082.42 1641.81C1989.72 1642.43 1897 1642.78 1804.32 1641.49C1780.56 1641.16 1774.92 1649.05 1775.03 1671.59C1775.89 1846.25 1775.61 2020.9 1775.53 2195.56C1775.52 2206.99 1777.5 2218.8 1771.9 2231.66C1758.13 2222.91 1763.41 2210.1 1763.39 2200.07C1763.02 2026.39 1762.52 1852.71 1763.86 1679.03C1764.08 1650.26 1757.92 1640.38 1727.12 1641.18C1639.35 1643.46 1551.49 1642.12 1463.67 1641.96C1374.06 1641.81 1312.49 1580.91 1312.42 1491.78C1312.22 1204.92 1312.69 918.049 1312 631.184C1311.82 558.02 1346.72 504.786 1407.44 472.161C1436.47 456.559 1445.53 441.11 1441.52 412.127C1440.73 406.393 1441.53 400.438 1441.6 394.585C1452.94 382.722 1467.8 382.841 1482.48 382.829C1673.7 382.669 1864.91 382.663 2056.13 382.835C2070.8 382.847 2085.68 382.709 2096.9 394.775Z" fill="#C0DDEB"/>
<path d="M2096.9 394.775C1878.47 394.709 1660.03 394.642 1441.6 394.579C1441.35 387.373 1441.09 380.163 1440.84 372.954C1441.97 369.571 1444.11 367.04 1447.24 365.324C1469.21 358.02 1490.67 358.321 1511.36 369.756C1704.85 369.921 1898.33 370.085 2091.82 370.25C2094.93 368.908 2096.93 369.873 2097.8 373.144C2097.5 380.354 2097.2 387.565 2096.9 394.775Z" fill="#99C3D1"/>
<path d="M2097.81 373.143C2095.81 372.178 2093.81 371.213 2091.82 370.248C2091.73 294.92 2091.64 219.592 2091.52 144.264C2091.5 131.769 2092.93 119.025 2085.76 107.648C2140.33 104.276 2149.13 112.625 2149.11 167.146C2149.08 217.898 2149.42 268.651 2149.31 319.403C2149.2 365.999 2144.66 370.559 2097.81 373.143Z" fill="#D21F1E"/>
<path d="M1405.84 112.926C1419.55 115.42 1434.72 107.886 1447.19 118.916C1453.32 126.064 1454.05 134.483 1453.73 143.494C1451.54 204.591 1453.33 265.718 1452.58 326.827C1452.39 342.26 1453.49 358.22 1441.2 370.595C1441.2 370.595 1440.86 372.949 1440.85 372.952C1389.43 370.553 1388.3 369.738 1388.1 319.303C1387.87 263.78 1388.07 208.253 1388.64 152.733C1388.79 137.464 1387.62 120.771 1405.84 112.926Z" fill="#F22522"/>
<path d="M1617.04 241.479C1617.07 273.571 1616.92 305.664 1617.12 337.755C1617.23 354.912 1614.29 367.549 1592.15 360.082C1586.84 358.293 1580.58 359.228 1574.75 359.121C1523.24 358.174 1523.24 358.188 1523.25 305.189C1523.26 253.647 1524.25 202.079 1522.88 150.574C1522.16 123.634 1534.66 113.796 1559.25 113.096C1572.07 112.731 1584.22 116.639 1596.6 117.744C1613.39 119.242 1617.56 127.08 1617.24 142.29C1616.54 175.34 1617.02 208.415 1617.04 241.479Z" fill="#EF473E"/>
<path d="M1441.2 370.593C1441.28 310.65 1441.58 250.706 1441.31 190.764C1441.2 166.593 1441.38 142.552 1447.19 118.915C1497.04 106.085 1507.26 112.83 1505.37 163.989C1502.83 232.791 1512.69 301.084 1511.36 369.755C1487.97 370.034 1464.59 370.314 1441.2 370.593Z" fill="#EF473E"/>
<path d="M2202.93 1058.85C2202.93 1205.2 2203.02 1351.55 2202.89 1497.91C2202.83 1567.77 2153.21 1618.36 2083.87 1618.46C1873.1 1618.75 1662.33 1618.79 1451.57 1618.58C1386.06 1618.52 1335.94 1567.61 1335.88 1501.18C1335.63 1211.4 1337.08 921.613 1334.62 631.858C1334.02 560.5 1399.5 471.025 1491.22 470.736C1680.52 470.139 1869.82 469.661 2059.12 470.901C2136.24 471.406 2202.72 541.799 2202.97 619.797C2203.44 766.147 2203.1 912.5 2203.1 1058.85C2203.05 1058.85 2202.99 1058.85 2202.93 1058.85Z" fill="#8FBFCD"/>
<path d="M1762.6 534.234C1791.19 525.035 1820.93 528.174 1849.47 530.631C1909.95 535.838 1970.55 536.183 2030.7 533.054C2113.63 528.741 2148.95 575.749 2149.28 652.975C2149.76 765.197 2149.45 877.422 2149.5 989.646C2149.56 1147.74 2149.69 1305.82 2149.69 1463.91C2149.7 1543.18 2121.54 1571.48 2042.32 1571.55C1854.94 1571.71 1667.56 1571.76 1480.17 1571.6C1468.83 1571.59 1456.54 1574.96 1446.48 1566.1C1456.7 1553.76 1471.12 1556.16 1484.38 1556C1527.17 1555.47 1570.22 1552.92 1612.72 1556.43C1687.96 1562.66 1763.39 1486.96 1755.6 1400.33C1753.5 1387.41 1746.73 1374.96 1751.33 1361.27C1761.2 1343.35 1753.21 1336.6 1735.5 1335.95C1708.63 1334.96 1681.65 1337.12 1654.89 1334.68C1644.58 1333.73 1627.45 1338.25 1629.65 1317.28C1644.29 1306.31 1661.41 1309.69 1677.73 1309.22C1704.03 1308.47 1730.41 1310.12 1756.57 1306.67C1768.57 1304.42 1780.35 1310.4 1789.81 1307.96C1782.99 1308.23 1773.61 1308.23 1764.72 1304.17C1762.39 1302.16 1761.23 1299.63 1761 1296.61C1766.75 1273.24 1756.27 1264.89 1733.78 1265.26C1708.62 1265.67 1683.4 1266.17 1658.27 1264.79C1646.42 1264.15 1632.21 1266.23 1627.47 1249.95C1639.23 1236.22 1655.49 1240.49 1670.29 1239.74C1690.3 1238.73 1710.39 1240.48 1731.4 1238.61C1728.42 1229.87 1712.43 1231.52 1716.2 1218.82C1725.69 1208.39 1742.03 1213.2 1755.65 1202.43C1726.45 1189.64 1699.22 1197.75 1673.1 1194.86C1658.72 1193.27 1641.17 1199.14 1633.34 1179.85C1657.43 1160.42 1685.81 1172.72 1712.07 1169.3C1724.74 1167.65 1741.09 1173.31 1743.11 1152.37C1761.22 1126.84 1761.22 1126.84 1727.21 1109.13C1728.24 1092.16 1753.17 1093.39 1752.78 1075.37C1759.8 1057.36 1747.73 1055.46 1735.07 1054.81C1713.69 1053.72 1692.23 1055.34 1670.88 1053.92C1658.95 1053.13 1644.57 1055.82 1639.13 1039.72C1663.96 1019.1 1693.33 1031.31 1720.53 1029.4C1736.99 1028.24 1745.45 1023.47 1746.13 1006.91C1762.21 997.823 1772.17 984.629 1776.21 966.262C1803.21 843.663 1831.16 721.262 1851.7 597.343C1852.97 589.66 1852.36 581.778 1852.92 574.028C1854.46 552.81 1844.94 544.922 1823.8 544.435C1803.22 543.959 1780.58 551.609 1762.6 534.234Z" fill="#E7F2FA"/>
<path d="M1640.43 1038.64C1674.85 1051 1710.48 1041.38 1745.41 1044.42C1754.48 1045.21 1766.12 1041.71 1768.47 1055.38C1770.28 1065.93 1771.28 1077.15 1756.49 1080.16C1743.77 1092.38 1727.63 1088.77 1712.51 1089.48C1690.77 1090.5 1668.79 1087.93 1641.78 1092.49C1672.78 1106.09 1703.22 1089.12 1727.33 1108.16C1732.04 1108.52 1736.78 1108.73 1741.48 1109.28C1752.58 1110.58 1767.53 1104 1769.25 1124C1770.85 1142.51 1761.78 1150.05 1744.6 1150.61C1720.61 1166.85 1693.53 1156.45 1668 1159.44C1653.79 1161.1 1637.27 1158.22 1634.58 1179.16C1664.26 1191.89 1695.39 1182.15 1725.73 1184.95C1735.32 1185.83 1745.1 1184.84 1754.65 1185.97C1765.01 1187.19 1768.8 1194.68 1769.02 1204.53C1769.27 1215.75 1763.31 1219.81 1752.81 1219.86C1740.27 1219.93 1727.73 1220.57 1715.19 1220.96C1701.64 1233.68 1684.58 1227.83 1668.98 1229.69C1653.21 1231.57 1635.82 1230.05 1628.74 1249.52C1666.05 1262.88 1704.63 1252.35 1742.49 1255.51C1753.58 1256.43 1767.29 1251.85 1772.96 1265.59C1778.46 1278.94 1776.35 1292.02 1763.65 1301.5C1731.9 1312.17 1699.17 1302.85 1667.09 1306.3C1653.6 1307.76 1637.43 1302.45 1628.95 1319.17C1650.27 1332.59 1673.82 1323.72 1696.27 1325.56C1712.53 1326.89 1729 1325.55 1745.37 1325.79C1755.64 1325.94 1767.7 1323.52 1769.05 1339.54C1770.27 1354.03 1769.99 1367.3 1750.19 1367.56C1724.63 1384.06 1695.97 1372.08 1669.21 1376.69C1660.44 1378.2 1644.98 1367.94 1643.91 1387.63C1667.15 1399.01 1691.67 1390.77 1715.39 1393C1727.86 1394.17 1740.52 1392.11 1753 1394.48C1754.46 1394.85 1755.93 1395.23 1757.39 1395.62C1769.1 1397.7 1769.9 1406.19 1768.83 1415.5C1760.85 1484.8 1726.01 1534.8 1661.52 1562.68C1653.94 1565.96 1644.45 1565.54 1635.83 1565.59C1572.72 1565.94 1509.61 1565.97 1446.49 1566.1C1407.71 1550.99 1388.76 1524.89 1388.75 1484.31C1388.66 1200.31 1388.69 916.311 1388.93 632.311C1388.98 577.858 1429.94 535.246 1484.46 534.651C1577.17 533.638 1669.89 534.29 1762.61 534.238C1786.01 534.494 1809.55 536.413 1832.79 534.564C1858.09 532.551 1864.1 542.951 1863.55 566.494C1862.35 618.452 1852.3 668.845 1839.38 718.624C1816.95 805.081 1808.63 894.475 1782.96 980.349C1776.28 1002.71 1767.3 1011.93 1745.28 1009.61C1719.86 1027.21 1691.11 1015.63 1664.03 1018.64C1650.86 1020.11 1637.88 1019.59 1640.43 1038.64Z" fill="#FEFEFD"/>
<path d="M1628.92 1395.27C1619.5 1377.1 1624.59 1367.57 1645.48 1367.55C1680.38 1367.52 1715.29 1367.55 1750.2 1367.56C1764.06 1373.97 1765.8 1383.49 1757.39 1395.62L1757.51 1395.58C1714.64 1400.64 1671.77 1401.06 1628.92 1395.27Z" fill="#2EA9C1"/>
<path d="M1640.43 1038.64C1632.83 1035.22 1622.13 1034.06 1624.32 1022.05C1626.65 1009.25 1637.55 1010.03 1647.16 1009.97C1679.86 1009.75 1712.57 1009.72 1745.28 1009.61C1751.41 1015.53 1767.59 1011.44 1763.92 1026.81C1760.82 1039.81 1748.81 1036.95 1739.69 1037.18C1706.61 1038.02 1673.52 1038.21 1640.43 1038.64Z" fill="#20ABBC"/>
<path d="M1634.58 1179.16C1628.58 1174.53 1620.74 1170.44 1624.74 1160.96C1628.22 1152.72 1636.44 1151.6 1644.12 1151.48C1677.61 1151 1711.11 1150.87 1744.6 1150.61C1752.98 1153.84 1760.47 1157.38 1758.49 1168.88C1756.2 1182.13 1745.87 1178.39 1738.15 1178.51C1703.63 1179.07 1669.11 1179 1634.58 1179.16Z" fill="#1DA4B8"/>
<path d="M1727.33 1108.16C1700.21 1107.63 1673.07 1107.47 1645.98 1106.35C1636.9 1105.97 1624.18 1107.02 1624.37 1093.09C1624.55 1079.87 1636.13 1079.57 1645.97 1079.58C1682.81 1079.62 1719.65 1079.95 1756.49 1080.16C1768.74 1112.38 1739.69 1101.58 1727.33 1108.16Z" fill="#22A6BE"/>
<path d="M1628.74 1249.52C1615.9 1231.52 1626.08 1224.38 1642.66 1223.17C1666.76 1221.42 1691.01 1221.6 1715.19 1220.96C1721.8 1221.98 1728.46 1222.74 1735.01 1224.07C1744.28 1225.95 1758.92 1219.89 1758.9 1236.94C1758.88 1256.08 1742.93 1250.08 1732.94 1250.22C1698.22 1250.69 1663.48 1249.86 1628.74 1249.52Z" fill="#199EC0"/>
<path d="M1875.16 1220.46C1891.73 1220.46 1908.3 1220.09 1924.85 1220.61C1933.95 1220.9 1939.07 1226.34 1938.62 1235.85C1938.19 1244.85 1931.32 1247.27 1924.38 1247.18C1890.3 1246.78 1856.23 1245.89 1822.16 1244.91C1814.67 1244.69 1808.94 1241.57 1809.16 1232.67C1809.38 1223.95 1815.03 1220.62 1822.54 1220.47C1840.08 1220.13 1857.62 1220.36 1875.16 1220.36C1875.16 1220.39 1875.16 1220.43 1875.16 1220.46Z" fill="#25A2C6"/>
<path d="M2050.28 821.346C2033.7 821.319 2017.12 821.454 2000.54 821.265C1991.3 821.16 1981.87 819.748 1982.13 807.709C1982.39 796.42 1992.15 797.331 1999.61 797.283C2033.75 797.064 2067.89 797.168 2102.02 797.454C2109.74 797.519 2118.92 797.452 2119.11 808.535C2119.28 818.852 2111.14 821.098 2102.95 821.264C2085.4 821.62 2067.84 821.373 2050.28 821.346Z" fill="#34A5CC"/>
<path d="M2048.61 1258.83C2030.17 1258.83 2011.73 1259.17 1993.3 1258.67C1985.74 1258.47 1980.24 1254.21 1981.24 1245.65C1982.12 1238.02 1988.6 1237.37 1994.38 1237.35C2031.26 1237.23 2068.14 1237.25 2105.02 1237.5C2111.86 1237.54 2119.85 1238.57 2120.33 1247.31C2120.95 1258.34 2111.49 1258.84 2103.93 1259.05C2085.5 1259.55 2067.05 1259.21 2048.61 1259.21C2048.61 1259.08 2048.61 1258.96 2048.61 1258.83Z" fill="#3DACCF"/>
<path d="M1628.95 1319.17C1621.64 1308.17 1620.72 1296.11 1636.39 1295.9C1678.84 1295.34 1721.7 1289.73 1763.65 1301.5L1763.56 1304.13C1765.59 1304.71 1766.38 1305.52 1765.94 1306.57C1765.45 1307.73 1764.93 1308.31 1764.35 1308.31C1759.34 1318.64 1750.53 1320.29 1740.04 1320.11C1703.01 1319.5 1665.98 1319.44 1628.95 1319.17Z" fill="#12A0C0"/>
<path d="M2049.98 1383.74C2069.5 1383.74 2089.02 1383.55 2108.54 1383.86C2114.38 1383.96 2120.97 1385.2 2119.97 1393.37C2119.26 1399.16 2113.95 1400.71 2108.95 1400.74C2070.88 1400.91 2032.82 1400.94 1994.75 1400.86C1988.75 1400.85 1982.12 1399.88 1981.86 1392.3C1981.58 1384.31 1988.55 1383.77 1994.34 1383.69C2012.89 1383.46 2031.43 1383.6 2049.98 1383.6C2049.98 1383.65 2049.98 1383.7 2049.98 1383.74Z" fill="#47AFC8"/>
<path d="M2051.65 962.636C2032.15 962.636 2012.64 962.819 1993.15 962.526C1987.23 962.437 1980.85 961.05 1981.94 952.876C1982.73 946.982 1988.01 945.601 1992.98 945.591C2030.03 945.514 2067.09 945.556 2104.15 945.773C2111.34 945.815 2118.81 947.857 2118.18 956.706C2117.6 964.801 2109.5 962.975 2104.32 963.11C2086.77 963.564 2069.21 963.283 2051.66 963.283C2051.65 963.067 2051.65 962.851 2051.65 962.636Z" fill="#36A8CD"/>
<path d="M2119.03 1107.17C2073.43 1107.17 2027.82 1107.17 1978.24 1107.17C1998.51 1092.39 2092.64 1090.86 2119.03 1107.17Z" fill="#34A1C1"/>
<path d="M1809.52 1080.5C1848.26 1080.5 1887.01 1080.5 1925.75 1080.5C1925.76 1082.09 1925.77 1083.68 1925.79 1085.27C1887.04 1085.27 1848.29 1085.27 1809.55 1085.27C1809.54 1083.68 1809.53 1082.09 1809.52 1080.5Z" fill="#34545E"/>
<path d="M1764.35 1308.32C1763.77 1306.98 1763.5 1305.59 1763.55 1304.13C1784.14 1300.24 1804.51 1301.55 1824.87 1306.53C1804.85 1315.34 1784.77 1317.4 1764.35 1308.32Z" fill="#5B7F8D"/>
<path d="M1813.95 892.716C1849.36 892.716 1884.77 892.716 1920.17 892.716C1920.18 894.293 1920.18 895.871 1920.18 897.448C1884.6 897.448 1849.01 897.448 1813.43 897.448C1813.6 895.871 1813.78 894.293 1813.95 892.716Z" fill="#364D50"/>
<path d="M1504 933.318C1521.51 933.311 1539.03 933.149 1556.54 933.387C1563.96 933.488 1573.45 931.531 1574.07 943.179C1574.58 952.744 1571.32 961.57 1560.12 961.632C1520.25 961.856 1480.37 961.554 1440.5 960.86C1430.29 960.682 1428.89 952.655 1429.03 944.088C1429.19 934.531 1435.39 933.347 1442.69 933.337C1463.13 933.306 1483.56 933.325 1504 933.318Z" fill="#1FA5C7"/>
<path d="M1503.25 1037.91C1485.71 1037.92 1468.18 1038.13 1450.65 1037.83C1442.34 1037.69 1434.78 1035.48 1435.19 1024.81C1435.54 1015.69 1440.4 1010.07 1449.76 1010.12C1485.79 1010.31 1521.82 1010.64 1557.85 1011.32C1566.69 1011.49 1572.91 1016.38 1572.58 1025.88C1572.22 1036.37 1563.93 1037.7 1555.85 1037.82C1538.32 1038.06 1520.78 1037.89 1503.25 1037.91Z" fill="#32A7C1"/>
<path d="M1502.48 1179.19C1486 1179.19 1469.51 1179.53 1453.04 1179.06C1444.16 1178.81 1434.55 1177.54 1435.29 1165.15C1435.84 1156.03 1442.18 1151.15 1450.93 1151.18C1485.81 1151.27 1520.7 1151.6 1555.58 1152.4C1563.81 1152.59 1570.94 1156.51 1570.89 1166.4C1570.83 1176.9 1563.09 1178.71 1554.84 1178.81C1537.39 1179.01 1519.94 1178.87 1502.49 1178.87C1502.48 1178.98 1502.48 1179.09 1502.48 1179.19Z" fill="#1DA0BA"/>
<path d="M1502.24 1395.94C1484.76 1395.94 1467.28 1395.95 1449.8 1395.93C1440.8 1395.92 1435.04 1392.46 1434.63 1382.49C1434.19 1371.87 1441.36 1368.71 1449.49 1368.65C1484.42 1368.42 1519.37 1368.56 1554.29 1369.3C1561.57 1369.46 1571.07 1370.5 1570.14 1381.8C1569.24 1392.64 1561.49 1396.22 1551.77 1396.32C1535.26 1396.48 1518.75 1396.36 1502.24 1396.36C1502.24 1396.22 1502.24 1396.08 1502.24 1395.94Z" fill="#25A8C7"/>
<path d="M1504.9 1108.31C1486.48 1107.43 1468.03 1106.94 1449.65 1105.48C1441.73 1104.85 1433.91 1102.03 1435.07 1091.37C1435.99 1082.84 1442.59 1080.19 1449.65 1080.14C1484.6 1079.93 1519.56 1080.03 1554.51 1080.39C1562.88 1080.47 1570.39 1083.89 1570.67 1093.57C1570.97 1104.1 1562.03 1105.92 1554.42 1106.26C1537.95 1107 1521.43 1106.49 1504.93 1106.49C1504.92 1107.09 1504.91 1107.7 1504.9 1108.31Z" fill="#24A4C3"/>
<path d="M1505.25 1249.88C1486.75 1249.86 1468.25 1250 1449.75 1249.8C1441.17 1249.7 1434.19 1247.01 1434.64 1236.49C1435.02 1227.88 1441.13 1224.92 1448.36 1224.24C1485.28 1220.77 1522.23 1220.7 1559.15 1224.47C1566.9 1225.26 1571.81 1229.41 1571.51 1237.72C1571.19 1246.3 1565.21 1249.61 1557.82 1249.78C1540.31 1250.17 1522.77 1249.9 1505.25 1249.88Z" fill="#189DBF"/>
<path d="M1683.46 792.71C1698 792.71 1712.55 792.426 1727.09 792.821C1735.33 793.045 1742.96 796.052 1744.09 805.412C1745.36 815.995 1736.77 818.876 1729.07 819.012C1698.08 819.559 1667.07 819.513 1636.08 818.904C1627.65 818.739 1621.45 813.999 1622.6 803.854C1623.58 795.156 1629.7 792.837 1636.92 792.706C1652.43 792.426 1667.95 792.62 1683.46 792.62C1683.46 792.65 1683.46 792.68 1683.46 792.71Z" fill="#2CB1CD"/>
<path d="M1495.13 792.753C1509.71 792.77 1524.28 792.613 1538.86 792.829C1547.54 792.957 1554.1 796.127 1554.05 806.292C1554 814.673 1548.72 819.19 1541.26 819.238C1510.2 819.44 1479.13 819.238 1448.08 818.54C1439.63 818.35 1433.14 814.09 1434.11 803.883C1434.94 795.111 1441.24 792.929 1448.49 792.812C1464.03 792.563 1479.58 792.736 1495.13 792.753Z" fill="#2EAFCB"/>
<path d="M1504.82 1320.92C1487.37 1320.92 1469.91 1321.26 1452.48 1320.77C1443.86 1320.53 1434.26 1320.39 1435.39 1306.97C1436.26 1296.54 1443.26 1294.47 1451.49 1294.48C1485.42 1294.55 1519.36 1294.79 1553.28 1295.24C1562.57 1295.37 1571.7 1297.7 1571.15 1309.42C1570.55 1322.47 1559.46 1319.96 1551.35 1320.21C1535.85 1320.7 1520.33 1320.35 1504.82 1320.35C1504.82 1320.54 1504.82 1320.73 1504.82 1320.92Z" fill="#129BBF"/>
<path d="M1690.87 961.704C1673.39 961.704 1655.91 961.852 1638.44 961.63C1631.59 961.543 1624.06 961.048 1623.38 951.838C1622.71 942.734 1629.44 940.146 1636.68 940.153C1672.6 940.185 1708.53 940.431 1744.44 941.051C1751.17 941.167 1758.85 942.622 1758.18 952.211C1757.54 961.322 1750.32 962.146 1743.31 962.201C1725.83 962.339 1708.35 962.247 1690.87 962.247C1690.87 962.066 1690.87 961.885 1690.87 961.704Z" fill="#32B1CA"/>
<path d="M1681.05 887.046C1666.48 887.046 1651.91 887.281 1637.36 886.907C1632.85 886.791 1626.99 886.813 1626.3 880.243C1625.72 874.783 1628.66 870.08 1634.07 870.029C1667.04 869.721 1700.02 869.8 1732.98 870.393C1735.41 870.436 1739.3 875.293 1739.78 878.342C1740.74 884.407 1735.82 886.465 1730.57 886.511C1714.07 886.653 1697.56 886.563 1681.05 886.563C1681.05 886.724 1681.05 886.885 1681.05 887.046Z" fill="#2DB4C5"/>
<path d="M1494.88 887.178C1479.4 887.178 1463.92 887.371 1448.46 887.063C1443.72 886.968 1438.28 885.876 1438.54 879.377C1438.74 874.18 1441.83 869.681 1447.29 869.644C1478.22 869.434 1509.14 869.553 1540.07 869.868C1545.62 869.924 1548.81 874.005 1548.7 879.389C1548.57 885.817 1543.3 886.623 1538.4 886.68C1523.89 886.85 1509.38 886.741 1494.88 886.741C1494.88 886.886 1494.88 887.032 1494.88 887.178Z" fill="#25AFBD"/>
<path d="M1628.92 1395.27C1671.79 1395.37 1714.65 1395.47 1757.51 1395.58C1714.62 1405.75 1671.76 1406.28 1628.92 1395.27Z" fill="#E7F2FA"/>
</g>
<defs>
<clipPath id="clip0_585_24144">
<rect width="914" height="1539" fill="white" transform="translate(1312 102)"/>
</clipPath>
</defs>
</svg>
