<svg width="44" height="44" viewBox="0 0 44 44" fill="none" xmlns="http://www.w3.org/2000/svg">
<g clip-path="url(#clip0_1167_267)">
<path fill-rule="evenodd" clip-rule="evenodd" d="M20.9586 1.43583C18.432 3.73019 14.5945 4.85039 9.81559 5.47447C7.6583 5.76004 6.07275 7.57856 6.07275 9.7563V26.1754C6.07275 35.2782 16.9937 38.9469 20.8214 43.4614C21.1282 43.8104 21.5292 44.0003 21.9946 44.0003C22.4705 44.0003 22.8724 43.8104 23.1684 43.4614C26.9953 38.9469 37.9276 35.2782 37.9276 26.1754V9.75622C37.9276 7.57847 36.3414 5.75995 34.1744 5.47438C29.4057 4.8503 25.5574 3.73019 23.0309 1.43575C22.4496 0.896403 21.5507 0.896403 20.9586 1.43583ZM19.0033 18.7534H23.4855L15.7461 26.4925L16.4965 24.1878C16.5713 23.9551 16.7828 23.8174 17.0149 23.8174V23.8071H17.914V22.6336H13.7057C13.3989 22.6336 13.1667 22.3904 13.1667 22.0939C13.1667 21.7984 13.3989 21.5553 13.7057 21.5553H17.914V20.3817H17.015C16.7829 20.3817 16.5714 20.2336 16.4966 20.0119L14.9637 15.3172H13.7058C13.399 15.3172 13.1668 15.0744 13.1668 14.7783C13.1668 14.4825 13.399 14.2393 13.7058 14.2393H15.3552C15.609 14.2393 15.8207 14.4084 15.8732 14.6407L17.3956 19.3033H18.0616C18.2412 18.9752 18.6012 18.7534 19.0033 18.7534ZM14.2765 32.5188L12.945 33.8408C12.7435 34.0518 12.3953 34.0518 12.1944 33.8408C11.9827 33.6394 11.9827 33.2907 12.1944 33.09L13.4523 31.8211C15.1755 30.0977 16.8987 28.3746 18.633 26.6513C19.2673 27.5812 20.2927 28.2369 21.4662 28.3954V25.3619C21.4662 25.0652 21.699 24.8222 21.9947 24.8222C22.291 24.8222 22.5336 25.0652 22.5336 25.3619V28.3954C24.3523 28.1523 25.801 26.7042 26.0438 24.8854H26.5939L28.1162 29.5482C28.1797 29.7809 28.391 29.9496 28.6449 29.9496H30.294C30.5906 29.9496 30.8333 29.7172 30.8333 29.4212C30.8333 29.1147 30.5906 28.882 30.294 28.882H29.0259L27.4924 24.1879C27.4187 23.9552 27.2069 23.8175 26.9851 23.8175V23.8072H26.0862V22.6337H30.294C30.5906 22.6337 30.8333 22.3905 30.8333 22.094C30.8333 21.7985 30.5906 21.5553 30.294 21.5553H26.0862V20.3818H26.9851C27.2069 20.3818 27.4187 20.2337 27.4924 20.012L28.581 16.7022L29.956 15.3173H30.294C30.5906 15.3173 30.8333 15.0745 30.8333 14.7784C30.8333 14.6833 30.8124 14.5879 30.7588 14.5138L31.3089 13.9748C33.3707 16.2161 34.6392 19.2185 34.6392 22.5173C34.6392 29.4955 28.9726 35.1513 21.9946 35.1513C19.0871 35.1513 16.4128 34.1679 14.2765 32.5188ZM31.0451 11.1941C31.2567 10.9827 31.5947 10.9827 31.806 11.1941C32.0176 11.4058 32.0176 11.7438 31.806 11.9554C25.4306 18.3201 19.0662 24.6953 12.6908 31.0702C10.6188 28.8181 9.36046 25.8157 9.36046 22.5172C9.36046 15.5394 15.0168 9.88332 21.9946 9.88332C24.902 9.88332 27.5876 10.8661 29.7232 12.5158L31.0451 11.1941ZM26.9007 18.3727L25.97 19.3034H26.5939L26.9007 18.3727ZM21.4771 15.7929C21.4874 15.8038 21.4874 15.825 21.498 15.8461C21.6567 15.8038 21.8258 15.7929 21.9946 15.7929C22.1744 15.7929 22.333 15.8143 22.5018 15.8461C22.5018 15.825 22.5129 15.8038 22.5233 15.7929L23.6441 13.5836C23.7819 13.3297 24.1093 13.2241 24.3629 13.3512C24.6267 13.4888 24.7331 13.8162 24.5956 14.0698L23.4747 16.2794C23.4645 16.3006 23.4537 16.3111 23.443 16.3323C23.824 16.6707 24.0883 17.1464 24.1619 17.6856H19.8376C19.9122 17.1465 20.1761 16.6708 20.5572 16.3323C20.5464 16.3111 20.5351 16.3006 20.525 16.2794L19.3938 14.0698C19.2671 13.8162 19.3622 13.4888 19.6264 13.3512C19.8907 13.2241 20.218 13.3297 20.3453 13.5836L21.4771 15.7929Z" fill="#373737"/>
</g>
<defs>
<clipPath id="clip0_1167_267">
<rect width="44" height="44" fill="white"/>
</clipPath>
</defs>
</svg>
