<svg width="44" height="44" viewBox="0 0 44 44" fill="none" xmlns="http://www.w3.org/2000/svg">
<path d="M22 26.2002C19.7312 26.2002 17.8818 28.0496 17.8818 30.3183C17.8818 31.0402 18.0675 31.5696 18.4593 31.9408C19.0918 32.5458 20.0612 32.5046 21.0856 32.4633C21.6631 32.4358 22.3368 32.4358 22.9143 32.4633C23.1825 32.4702 23.4437 32.4839 23.6912 32.4839C24.42 32.4839 25.0731 32.3877 25.5406 31.9408C25.9325 31.5696 26.1181 31.0402 26.1181 30.3183C26.1181 28.0496 24.2687 26.2002 22 26.2002Z" fill="#373737"/>
<path d="M21.9998 25.7054C23.0241 25.7054 23.8491 24.8736 23.8491 23.8492C23.8491 23.0036 23.196 21.3467 21.9998 21.3467C20.8035 21.3467 20.1504 23.0036 20.1504 23.8492C20.1504 24.8736 20.9754 25.7054 21.9998 25.7054Z" fill="#373737"/>
<path d="M19.1812 25.7261C19.1812 24.8736 18.528 23.2236 17.3318 23.2236C16.1355 23.2236 15.4824 24.8736 15.4824 25.7261C15.4824 26.7436 16.3074 27.5755 17.3318 27.5755C18.3562 27.5755 19.1812 26.7436 19.1812 25.7261Z" fill="#373737"/>
<path d="M26.6682 23.2236C25.472 23.2236 24.8188 24.8736 24.8188 25.7261C24.8188 26.7436 25.6438 27.5755 26.6682 27.5755C27.6926 27.5755 28.5176 26.7436 28.5176 25.7261C28.5176 24.8736 27.8645 23.2236 26.6682 23.2236Z" fill="#373737"/>
<path d="M13.9012 42.625H30.0987C31.7899 42.625 33.158 41.2569 33.158 39.5725V15.2625C33.158 13.1313 31.4943 11.3781 29.3974 11.2269V7.66562H30.2843C31.1162 7.66562 31.7899 6.99188 31.7899 6.16V2.88063C31.7899 2.04875 31.1162 1.375 30.2843 1.375H13.7155C12.8837 1.375 12.2099 2.04875 12.2099 2.88063V6.16C12.2099 6.99188 12.8837 7.66562 13.7155 7.66562H14.6024V11.2269C12.5055 11.3781 10.8418 13.1313 10.8418 15.2625V39.5725C10.8418 41.2569 12.2099 42.625 13.9012 42.625ZM15.9774 7.66562H28.0224V11.2131H15.9774V7.66562ZM12.2168 15.2625C12.2168 13.7844 13.4199 12.5881 14.898 12.5881H29.1018C30.5799 12.5881 31.783 13.7844 31.783 15.2625V18.4319H12.2168V15.2625ZM12.2168 19.8069H31.783V34.0244H12.2168V19.8069ZM12.2168 35.3994H31.783V39.5725C31.783 40.5006 31.0268 41.25 30.0987 41.25H13.9012C12.973 41.25 12.2168 40.5006 12.2168 39.5725V35.3994Z" fill="#373737"/>
</svg>
