<svg width="76" height="105" viewBox="0 0 76 105" fill="none" xmlns="http://www.w3.org/2000/svg">
<g opacity="0.5">
<path d="M71.1822 52.3968C70.7425 53.0328 70.3299 53.6269 69.9468 54.1876C69.7374 54.493 69.5363 54.788 69.3458 55.0746H69.1782C69.3793 54.7838 69.5866 54.4847 69.8001 54.175C73.624 48.6311 74.8804 42.242 73.1549 36.9156C69.7813 26.5118 72.5957 12.9762 54.8274 5.87582C41.5615 0.574565 33.5516 2.55154 29.5267 4.63522C28.8985 4.9616 28.3687 5.28793 27.9289 5.5913C27.7594 5.33399 27.6714 5.198 27.6714 5.198C27.6714 5.198 28.6787 4.00973 30.9088 2.857C34.9336 0.773317 42.9435 -1.20366 56.2096 4.0976C73.9779 11.198 71.1635 24.7336 74.537 35.1374C76.2625 40.4637 75.006 46.8529 71.1822 52.3968Z" fill="white"/>
</g>
<g opacity="0.2">
<path d="M67.4862 63.383C68.351 65.9018 67.8065 71.9332 66.4328 73.3956C65.0612 74.8579 64.5147 71.1801 64.1461 69.0985C63.4446 65.1361 61.4887 65.2638 60.716 62.565C59.7695 59.2638 62.0353 54.9688 57.7424 50.0901C54.8987 46.8579 27.6714 5.19678 27.6714 5.19678C27.6714 5.19678 28.6787 4.00851 30.9088 2.85579C40.037 1.91435 56.7186 2.69935 64.7074 21.3621C74.7086 44.7262 62.7476 52.9073 64.0789 56.5093C64.9658 58.909 67.8435 55.1836 69.9468 54.1864C67.5301 57.7093 66.2967 59.9311 67.4862 63.383Z" fill="#390075"/>
</g>
<path d="M65.8448 74.444C65.7175 74.444 65.6023 74.4233 65.5023 74.3934C64.3712 74.056 63.9621 72.1875 63.5076 69.5848L63.4444 69.224C63.0787 67.162 62.3794 66.3542 61.6393 65.4992C61.0335 64.7991 60.4069 64.0754 60.0305 62.7617C59.6916 61.5789 59.7266 60.3319 59.7635 59.0116C59.8375 56.3693 59.9141 53.637 57.2074 50.5612C54.3615 47.3272 28.1868 7.28996 27.074 5.58726C26.9016 5.32327 26.9231 4.97744 27.1273 4.73698C27.2138 4.6349 29.3019 2.22197 34.0132 0.872938C38.2783 -0.348356 45.6375 -0.895382 56.4741 3.43489C62.7024 5.92376 67.019 9.43174 69.6708 14.1592C72.0044 18.3196 72.7802 22.85 73.5305 27.2314C73.9947 29.943 74.4331 32.5041 75.2153 34.9173C76.9951 40.4079 75.7068 47.0932 71.7698 52.8006C71.5891 53.0623 71.413 53.3166 71.2411 53.5645C68.4031 57.6597 66.9785 59.7154 68.1602 63.1518C69.0773 65.8187 68.5808 72.1492 66.954 73.8828C66.547 74.3167 66.1593 74.444 65.8448 74.444ZM28.5853 5.29265C31.6414 9.96378 55.6638 46.6488 58.2786 49.6202C61.3557 53.1168 61.2636 56.4073 61.1894 59.0514C61.1556 60.2585 61.1237 61.3985 61.4019 62.3696C61.6918 63.381 62.1674 63.9306 62.7183 64.5669C63.5134 65.4856 64.4147 66.5268 64.8488 68.9753L64.9129 69.3396C65.0637 70.2039 65.4483 72.406 65.8655 72.9565C65.8798 72.9429 65.8959 72.9268 65.9135 72.9082C67.0612 71.6848 67.6151 65.9525 66.8111 63.6148C65.3951 59.4966 67.1541 56.9584 70.0683 52.7532C70.2396 52.5062 70.4152 52.2526 70.5951 51.9918C74.2824 46.6469 75.5023 40.4279 73.8583 35.3561C73.0446 32.8454 72.5976 30.2351 72.1244 27.4716C70.6562 18.8969 69.138 10.0303 55.9444 4.75797C45.5537 0.605655 38.5582 1.08109 34.5186 2.21085C31.2459 3.12656 29.3361 4.60848 28.5853 5.29265Z" fill="#390075"/>
<path d="M61.8611 46.0225C61.5277 49.5211 60.7273 52.6666 59.48 55.4114C57.8223 59.0601 55.3734 61.9989 52.1791 64.1086C50.4482 65.2541 48.4975 66.1544 46.3363 66.7949C40.9934 68.374 34.3574 68.3539 26.5383 66.449C11.7462 62.8461 2.63198 55.4444 0.981697 46.6154C0.844311 45.8944 0.758228 45.1625 0.725287 44.4232C0.648387 42.7873 0.82055 41.1112 1.25276 39.4094C1.95611 36.6445 3.42509 35.0599 4.5717 33.2538C4.75668 32.9629 4.93802 32.65 5.12117 32.3188C8.77158 25.6856 12.4348 11.486 33.9563 11.8703C36.3393 10.9645 39.6161 9.30301 41.6583 6.53994C42.2975 5.67624 43.6493 5.95805 43.8782 7.01022C44.1823 8.41004 44.4002 10.2271 43.2463 12.4174C45.8765 11.4769 48.5085 10.368 49.4042 9.72391C50.3658 9.03405 51.6864 9.82638 51.5179 10.9957C51.3549 12.1247 50.6827 14.487 49.9885 16.4522C60.143 22.6682 62.7933 36.2273 61.8611 46.0225Z" fill="#D3A17F"/>
<path d="M61.8609 46.0217C61.6645 48.0867 61.3064 50.0268 60.7885 51.8353C60.4282 53.092 59.9923 54.284 59.481 55.4114C57.8217 59.0608 55.3728 61.9988 52.1794 64.1091C50.449 65.2537 48.4984 66.1547 46.3364 66.7949C40.9941 68.375 34.3571 68.3534 26.5377 66.4501C11.7469 62.846 2.63293 55.4437 0.982334 46.6167C0.844258 45.8945 0.757944 45.1616 0.725577 44.4244C0.647874 42.7884 0.820498 41.1113 1.25202 39.4106C1.9554 36.645 3.4248 35.0606 4.57268 33.2543C4.75605 32.9633 4.93732 32.6507 5.12073 32.3187C5.77878 31.1246 6.43473 29.6868 7.19638 28.1326C10.6681 21.0494 16.3082 11.5563 33.9557 11.871C36.34 10.9657 39.6153 9.30371 41.6586 6.54029C42.2972 5.67591 43.6501 5.95829 43.8788 7.01022C44.183 8.41135 44.4009 10.2263 43.2466 12.4186C45.8768 11.4766 48.5091 10.3686 49.4045 9.72411C50.3647 9.03432 51.6873 9.82757 51.5169 10.9959C51.3551 12.1254 50.6819 14.4879 49.9893 16.4516C60.1434 22.6682 62.793 36.2268 61.8609 46.0217Z" fill="#E9C289"/>
<g opacity="0.2">
<path d="M61.8607 46.0217C61.6643 48.0867 61.3062 50.0268 60.7884 51.8353C60.6308 51.5529 60.5488 51.1822 60.5488 50.7144C60.5488 41.9391 55.8365 21.6853 35.8716 19.0232C20.7356 17.0034 11.2009 24.1729 7.19629 28.1326C10.668 21.0494 16.3081 11.5563 33.9556 11.871C36.3399 10.9657 39.6152 9.30371 41.6585 6.54029C42.2971 5.67591 43.65 5.95829 43.8787 7.01022C44.1829 8.41135 44.4008 10.2263 43.2465 12.4186C45.8767 11.4766 48.509 10.3686 49.4044 9.72411C50.3647 9.03432 51.6873 9.82757 51.5168 10.9959C51.355 12.1254 50.6818 14.4879 49.9892 16.4516C60.1432 22.6682 62.7928 36.2268 61.8607 46.0217Z" fill="#390075"/>
</g>
<path d="M61.9209 45.3058C61.9036 45.5472 61.8842 45.7865 61.8604 46.0236C61.5282 49.5242 60.7276 52.6692 59.4806 55.4132C57.8213 59.0626 55.3723 62.0007 52.179 64.111C50.4486 65.2556 48.498 66.1566 46.336 66.7968C40.9937 68.3768 34.3567 68.3553 26.5373 66.4519C11.7465 62.8478 2.63251 55.4456 0.981914 46.6185C0.843839 45.8964 0.757525 45.1635 0.725158 44.4263C0.694934 43.7883 0.703542 43.1459 0.751059 42.4971C4.41257 49.7484 13.2676 55.6654 26.246 58.8255C34.5379 60.8474 41.574 60.8668 47.24 59.1941C49.5336 58.513 51.6007 57.5602 53.4368 56.3445C56.8244 54.107 59.4222 50.99 61.1785 47.1208C61.4462 46.5323 61.6943 45.9287 61.9209 45.3058Z" fill="#AF8468"/>
<path d="M58.1585 44.7797C60.9177 51.6593 58.6621 59.6056 52.5739 63.8404C52.4434 63.9312 52.3116 64.0206 52.1785 64.1085C50.4477 65.2539 48.4969 66.1542 46.3357 66.7947C44.7568 65.2558 43.7457 63.5028 43.7457 63.5028L37.0658 49.0982C36.7874 48.811 32.778 45.9161 31.5948 41.8667C30.9464 39.6508 31.1479 37.0871 33.2725 34.4156C39.114 27.0746 53.4672 33.0826 58.1585 44.7797Z" fill="#677568"/>
<g opacity="0.2">
<path d="M52.5739 63.8406C52.4444 63.9311 52.3128 64.0195 52.179 64.1079C50.4486 65.2525 48.4981 66.1535 46.3361 66.7937C44.7567 65.2546 43.7469 63.5021 43.7469 63.5021L42.2085 60.1847C43.9907 59.9885 45.6672 59.6566 47.2402 59.191C49.5338 58.5098 51.6008 57.557 53.437 56.3413C55.7824 54.7915 57.7502 52.8213 59.3188 50.4717C59.4267 55.6667 57.023 60.7452 52.5739 63.8406Z" fill="#390075"/>
</g>
<path d="M26.4101 34.767C26.1461 36.6075 25.0822 37.9217 23.7982 38.8787C20.3969 41.4185 14.9844 41.3947 14.6108 41.3929L2.07884 45.715C2.07884 45.715 1.61361 46.1395 0.981693 46.6153C0.844306 45.8943 0.758228 45.1624 0.725287 44.4231C0.648387 42.7872 0.82055 41.1111 1.25276 39.4093C1.95611 36.6444 3.42509 35.0598 4.5717 33.2537C4.75668 32.9628 4.93802 32.6499 5.12117 32.3187C10.5512 23.1568 27.8438 24.7713 26.4101 34.767Z" fill="#677568"/>
<path d="M52.1789 64.1079C50.448 65.2534 48.4973 66.1537 46.3361 66.7941C40.9932 68.3733 34.3573 68.3532 26.5381 66.4483C11.746 62.8454 2.6318 55.4436 0.981508 46.6147C0.844121 45.8937 0.758038 45.1618 0.725098 44.4225C2.28563 41.654 5.09531 39.3575 10.1634 40.0766C18.9021 41.3173 21.274 39.4508 23.798 38.8781C24.2266 38.7811 24.6588 38.7207 25.1277 38.7207C28.4832 38.7153 30.1244 40.1187 31.5952 41.8662C32.5623 43.0154 33.4579 44.3127 34.7181 45.4582C40.0939 50.3457 44.8414 48.8599 49.241 53.0576C52.6441 56.3037 53.2797 60.1225 52.1789 64.1079Z" fill="white"/>
<g opacity="0.2">
<path d="M52.1794 64.1095C50.449 65.2541 48.4985 66.1551 46.3365 66.7953C40.9941 68.3754 34.3571 68.3538 26.5377 66.4504C11.747 62.8463 2.63294 55.4441 0.982342 46.617C0.844267 45.8949 0.757953 45.162 0.725586 44.4248C10.8548 66.5403 47.2405 59.1926 52.0564 57.1836C52.8742 59.3737 52.8418 61.7103 52.1794 64.1095Z" fill="#390075"/>
</g>
<path d="M46.1774 44.6712C45.7366 45.2199 45.1798 45.5968 44.6105 45.8853C44.0363 46.1698 43.431 46.3612 42.8107 46.4808C41.573 46.7079 40.2471 46.6584 38.9716 46.1581C38.338 45.908 37.7251 45.5298 37.2132 45.0269C36.7023 44.5244 36.3055 43.9008 36.0724 43.249C35.8345 42.5969 35.7454 41.9296 35.7512 41.2936C35.7584 40.654 35.874 40.0514 36.046 39.4765C36.1674 39.0705 36.5953 38.8397 37.0017 38.961C37.2988 39.0498 37.5022 39.3021 37.5426 39.59L37.5536 39.6707C37.5714 39.7989 37.581 39.9249 37.5948 40.0503L37.6084 40.2371L37.6359 40.4198C37.6569 40.5408 37.6658 40.6613 37.684 40.7797L37.7569 41.1248C37.8607 41.5755 37.999 41.9894 38.1891 42.3446C38.5682 43.0542 39.1379 43.5328 39.9033 43.8479C40.6654 44.1587 41.5919 44.2782 42.5178 44.2302C43.4393 44.1862 44.4003 43.9751 45.1252 43.5752L45.2133 43.5265C45.5822 43.323 46.0465 43.4567 46.2503 43.8253C46.4043 44.1039 46.3649 44.4373 46.1774 44.6712Z" fill="#390075"/>
<path d="M12.8922 34.4437C13.3525 35.0852 13.9445 35.6455 14.6035 36.0548C15.2575 36.4679 15.9661 36.7265 16.62 36.768C17.2759 36.8108 17.8765 36.6409 18.4911 36.2574C18.7949 36.0611 19.0914 35.8075 19.3864 35.5218C19.6924 35.2439 19.954 34.8974 20.2619 34.5629L20.3071 34.5138C20.5961 34.1999 21.0851 34.1794 21.3993 34.4682C21.6201 34.6711 21.6954 34.9736 21.6206 35.2439C21.3395 36.2514 20.8073 37.2524 19.9191 38.0614C19.4729 38.4603 18.9305 38.7934 18.3291 39.0065C17.7281 39.2184 17.0743 39.3031 16.4482 39.2526C15.1861 39.1554 14.0744 38.5995 13.2162 37.8518C12.7862 37.4736 12.4122 37.0414 12.1121 36.5586C11.8156 36.0754 11.5758 35.5476 11.468 34.9745C11.3894 34.5572 11.6644 34.1553 12.0821 34.0769C12.3853 34.0199 12.6804 34.149 12.8494 34.3837L12.8922 34.4437Z" fill="#390075"/>
<path d="M37.864 68.6356C34.3171 68.6356 30.4695 68.1392 26.3685 67.1405C14.9766 64.3665 6.51452 59.2052 2.54086 52.6074C0.0675087 48.5008 -0.616974 43.8765 0.561432 39.2346C1.13305 36.9833 2.20537 35.4419 3.15135 34.0821C3.4394 33.6679 3.71157 33.2767 3.96863 32.8714C4.60078 31.875 5.20661 30.6151 5.90808 29.1562C9.4115 21.87 14.7005 10.8713 33.8304 11.1547C36.1158 10.2714 39.1821 8.69053 41.0844 6.11646C41.5505 5.48649 42.3128 5.19692 43.0758 5.36032C43.8346 5.52295 44.409 6.09712 44.5746 6.85868C44.8413 8.08781 45.0143 9.52422 44.5202 11.1852C46.6528 10.3693 48.3638 9.59252 48.9885 9.14406C49.6707 8.65444 50.5401 8.62012 51.258 9.05505C51.9722 9.48775 52.3421 10.2696 52.2233 11.0957C52.0714 12.1448 51.508 14.2033 50.8465 16.1505C60.9658 22.717 63.5002 36.3175 62.5703 46.0895C61.8009 54.1748 58.5432 60.475 53.1499 64.3092C49.1055 67.1845 43.9254 68.6356 37.864 68.6356ZM33.1194 12.5744C15.4623 12.5744 10.4973 22.9029 7.19395 29.7732C6.47305 31.2725 5.85042 32.5673 5.17359 33.6343C4.90031 34.0651 4.60663 34.4872 4.32268 34.8953C3.40301 36.2172 2.45213 37.5842 1.94421 39.5849C0.845959 43.911 1.45795 48.0453 3.76299 51.8728C7.53897 58.1423 15.6871 63.0727 26.7063 65.756C37.4017 68.3603 46.2595 67.4587 52.3229 63.1481C57.3689 59.5611 60.4213 53.6156 61.1503 45.9546C62.0561 36.4366 59.5786 23.1577 49.6149 17.059C49.3282 16.8834 49.203 16.5313 49.3151 16.2143C50.0164 14.2286 50.6597 11.9407 50.8114 10.8925C50.8656 10.5158 50.6009 10.3234 50.5183 10.2734C50.4345 10.2225 50.1367 10.0743 49.8208 10.3013C48.7556 11.0663 45.8498 12.2421 43.4855 13.0873C43.2087 13.1863 42.8993 13.1055 42.7067 12.8835C42.5139 12.6616 42.4771 12.3444 42.6143 12.0844C43.6322 10.1541 43.488 8.57728 43.1807 7.16094C43.1147 6.85738 42.8762 6.77498 42.7766 6.75372C42.6755 6.7319 42.4196 6.70893 42.2317 6.96322C40.0886 9.86324 36.6868 11.594 34.2106 12.5354C34.1254 12.5677 34.0331 12.5814 33.9442 12.5819C33.6668 12.5769 33.3909 12.5744 33.1194 12.5744Z" fill="#390075"/>
<path d="M21.5157 45.8631C22.5424 47.1485 24.2502 46.5609 25.1453 45.9785C25.1453 45.9785 25.6804 48.5243 27.928 48.341C28.7193 48.2754 30.1089 47.4617 30.3199 46.923C29.8912 43.956 26.2885 41 26.2885 41C25.2943 41.6479 21.4705 41.3717 21.2373 43.4506C21.0589 43.8964 21.1412 45.3956 21.5157 45.8631Z" fill="white"/>
<g opacity="0.2">
<path d="M29.8724 47.4428C29.3426 47.8759 28.4861 48.2943 27.927 48.3403C25.6801 48.5244 25.1461 45.9784 25.1461 45.9784C24.2498 46.5621 22.5431 47.1478 21.5149 45.8633C21.2804 45.5704 21.161 44.8696 21.1484 44.2797C22.7797 45.1144 24.8277 44.3382 26.013 43.5684C26.013 43.5684 26.7774 47.2022 29.8724 47.4428Z" fill="#390075"/>
</g>
<path d="M26.0555 43.628C25.9922 43.806 25.9304 44.0137 25.8842 44.2107C25.8369 44.4104 25.8012 44.6116 25.7765 44.811C25.7502 45.0103 25.7396 45.2086 25.7403 45.4021C25.7379 45.5961 25.7603 45.7838 25.7857 45.9647L25.7863 45.9693C25.8358 46.322 25.5896 46.6481 25.2365 46.6976C24.8834 46.747 24.557 46.5011 24.5075 46.1483C24.5003 46.0967 24.4998 46.0425 24.5046 45.9928C24.5307 45.7394 24.5663 45.4915 24.6279 45.2551C24.6866 45.018 24.7583 44.7885 24.8449 44.5681C24.9302 44.3471 25.0261 44.1333 25.1328 43.9265C25.2413 43.7174 25.3523 43.5252 25.4909 43.3181C25.59 43.17 25.7905 43.1302 25.9387 43.2292C26.0642 43.313 26.112 43.4693 26.0637 43.6051L26.0555 43.628Z" fill="#390075"/>
<path d="M21.7201 43.3693C21.6649 43.8688 21.6243 44.4141 21.7027 44.8465C21.7379 45.0625 21.8117 45.2426 21.8914 45.3409C21.9114 45.3661 21.9323 45.3862 21.9534 45.4035L22.0706 45.5012C22.1545 45.5684 22.2424 45.6249 22.3311 45.6763C22.6885 45.8738 23.0815 45.9411 23.5101 45.8887C23.9364 45.8385 24.3849 45.6701 24.7951 45.4436L25.5081 45.05L25.7748 45.8633L25.822 46.007C25.8402 46.0619 25.8602 46.1175 25.8821 46.1724C25.9272 46.2818 25.9727 46.3912 26.0242 46.4963C26.1282 46.7064 26.253 46.8986 26.3913 47.0673C26.6696 47.4034 27.0154 47.6396 27.4522 47.7296C27.91 47.8202 28.3317 47.7877 28.7825 47.581C29.0042 47.4815 29.2211 47.3478 29.4312 47.1969C29.637 47.048 29.847 46.862 30.0133 46.6929L30.0339 46.672C30.1826 46.5207 30.426 46.5186 30.5774 46.6672C30.712 46.7993 30.7286 47.0063 30.626 47.1568C30.437 47.4349 30.2413 47.6549 30.0147 47.8784C29.7908 48.0984 29.5388 48.297 29.2564 48.4666C28.9743 48.635 28.6596 48.7766 28.312 48.8535C27.9526 48.9279 27.6228 48.9316 27.2728 48.8965C26.925 48.8592 26.5722 48.7539 26.2487 48.5887C25.923 48.426 25.6375 48.1925 25.4001 47.9331C25.1628 47.6716 24.976 47.3791 24.8315 47.0755C24.7583 46.9239 24.6936 46.7696 24.6431 46.61C24.6171 46.5306 24.5935 46.4501 24.5719 46.368C24.5487 46.2815 24.5348 46.2126 24.5149 46.0965L25.4946 46.5161C24.9699 46.8936 24.3586 47.156 23.6764 47.2455C23.0004 47.3373 22.2336 47.1922 21.6416 46.7963C21.4948 46.6987 21.3553 46.5926 21.2288 46.4767C21.1623 46.4156 21.1116 46.3672 21.0403 46.2894C20.9645 46.2067 20.8979 46.1175 20.8422 46.0258C20.6163 45.6544 20.5607 45.2736 20.5515 44.9371C20.5476 44.597 20.5957 44.2829 20.6722 43.9842C20.7509 43.6827 20.8482 43.4091 20.9922 43.1219C21.0881 42.9308 21.3208 42.8536 21.5121 42.9493C21.6608 43.0237 21.7407 43.1809 21.7238 43.337L21.7201 43.3693Z" fill="#390075"/>
<path d="M30.0694 42.3417C29.7646 43.6104 27.707 44.7298 25.6205 44.2296C23.5341 43.7295 22.2089 41.7992 22.5137 40.5304C22.8184 39.2616 24.6377 39.1348 26.7241 39.635C28.8106 40.1352 30.3741 41.0729 30.0694 42.3417Z" fill="#390075"/>
<g opacity="0.7">
<path d="M27.6628 41.3149C27.5661 41.7176 26.6486 42.0095 25.6603 41.7726C24.672 41.5357 23.9871 40.8596 24.0838 40.4569C24.1805 40.0542 25.0223 40.0773 26.0106 40.3142C26.9989 40.5511 27.7595 40.9121 27.6628 41.3149Z" fill="white"/>
</g>
<path d="M65.8655 45.9648C65.0025 49.3792 63.8136 51.8193 63.1404 52.9726C61.5027 55.7705 59.6774 54.9643 59.6774 54.9643C64.3595 37.7111 55.6836 15.901 34.8578 14.1787C12.5324 12.3335 6.67223 29.216 6.67223 29.216C5.89114 23.5339 8.63785 18.1579 12.8302 13.8446C17.6073 8.93208 24.2615 5.39693 29.7183 4.36227C48.4662 0.809886 60.5749 11.9068 65.1449 26.2779C67.6715 34.2256 67.0998 41.0889 65.8655 45.9648Z" fill="white"/>
<g opacity="0.2">
<path d="M65.8655 45.9656C65.0025 49.38 63.8136 51.8201 63.1404 52.9734C61.5027 55.7713 59.6774 54.9651 59.6774 54.9651C64.3595 37.7119 55.6836 15.9018 34.8578 14.1795C12.5324 12.3343 6.67223 29.2168 6.67223 29.2168C5.89114 23.5347 8.63785 18.1587 12.8302 13.8454C12.116 15.794 12.1203 17.4538 15.2101 15.9794C19.4305 13.9661 28.9544 6.02929 44.2609 10.7673C57.7808 14.9534 63.2483 29.385 63.5029 40.6284C63.587 44.3597 64.6767 45.8039 65.8655 45.9656Z" fill="#390075"/>
</g>
<path d="M60.3263 55.7875C59.7866 55.7875 59.4257 55.6351 59.3883 55.6185C59.066 55.4763 58.896 55.1202 58.9881 54.7804C61.6578 44.9424 59.8665 33.9182 54.3134 26.0099C49.6781 19.4085 42.9299 15.5639 34.7987 14.8915C25.778 14.1452 18.4212 16.362 12.9309 21.4795C8.82838 25.303 7.35875 29.4108 7.34452 29.4519C7.23579 29.7625 6.92887 29.9593 6.59989 29.9261C6.27186 29.8932 6.00902 29.6406 5.96437 29.3144C5.18352 23.6284 7.76559 17.6377 13.235 12.4459C17.849 8.06617 24.1141 4.70141 29.5854 3.66481C38.4792 1.97981 46.6293 3.48425 53.1551 8.01587C58.9741 12.0567 63.355 18.2977 65.8242 26.0642C70.5763 41.0113 64.4678 52.1166 63.7557 53.3337C62.5561 55.3838 61.2046 55.7875 60.3263 55.7875ZM31.559 13.3299C32.6347 13.3299 33.7531 13.3751 34.9164 13.4714C43.4835 14.1798 50.5946 18.2325 55.4812 25.1915C61.1178 33.2186 63.0408 44.3111 60.5761 54.3367C61.0672 54.2426 61.7931 53.8638 62.5243 52.6145C63.2037 51.4534 69.0303 40.8559 64.4647 26.4957C60.4074 13.7337 49.1861 1.40209 29.8511 5.06494C20.6692 6.80471 8.06305 15.8471 7.29057 26.2925C8.21436 24.6863 9.69127 22.5621 11.9042 20.4875C15.4992 17.1173 21.7284 13.3299 31.559 13.3299Z" fill="#390075"/>
<path d="M32.3589 15.1162L23.985 17.6856C23.6937 16.8536 23.5535 15.8297 23.506 14.7605C23.4542 13.6095 23.5104 12.4045 23.6075 11.3224C23.7239 9.99241 25.3832 9.4643 26.2614 10.471C27.5926 11.9971 29.39 13.7625 31.2283 14.6722C31.6037 14.8597 31.9835 15.0106 32.3589 15.1162Z" fill="#E9C289"/>
<g opacity="0.2">
<path d="M32.3587 15.1169L23.9849 17.6863C23.6936 16.8543 23.5533 15.8304 23.5059 14.7612C24.3128 15.367 26.6388 16.5288 31.2281 14.6729C31.6035 14.8603 31.9833 15.0112 32.3587 15.1169Z" fill="#390075"/>
</g>
<path d="M23.6475 17.8049C23.3133 17.0895 23.1307 16.3279 23.0062 15.5712C22.8888 14.8123 22.8347 14.051 22.8204 13.2932C22.816 12.9143 22.8188 12.5361 22.8287 12.1585L22.8546 11.5933L22.871 11.3111C22.8714 11.2724 22.8814 11.1987 22.8908 11.1324L22.9218 10.9323C22.9553 10.8003 22.9942 10.6663 23.0466 10.5384C23.1081 10.4134 23.1617 10.2826 23.2466 10.1704C23.2869 10.113 23.3279 10.0559 23.3704 10.0003L23.5144 9.84805C23.6081 9.74302 23.7248 9.66681 23.834 9.58089C24.2934 9.27668 24.8556 9.1254 25.4104 9.20253C25.9631 9.27492 26.494 9.57653 26.8351 9.98225C27.0683 10.2568 27.3001 10.5327 27.5409 10.7995C28.0223 11.3334 28.5136 11.8566 29.0306 12.3483C29.5455 12.8416 30.081 13.3112 30.6488 13.7264C31.2162 14.1418 31.8131 14.5096 32.4558 14.7739L32.4667 14.7783C32.6495 14.8534 32.7367 15.0624 32.6614 15.2449C32.5956 15.4047 32.427 15.4913 32.2634 15.46C31.4855 15.3114 30.7509 15.0064 30.0711 14.6342C29.3896 14.2602 28.7611 13.813 28.1652 13.334C27.5723 12.8515 27.0093 12.3382 26.4783 11.7973C26.2116 11.5278 25.9511 11.2533 25.6964 10.9737C25.5542 10.8191 25.3962 10.747 25.2164 10.7213C25.0378 10.7017 24.8395 10.7437 24.6821 10.8418C24.6498 10.8739 24.6032 10.891 24.5766 10.9278C24.5611 10.9439 24.5447 10.9592 24.5274 10.9739C24.5151 10.9924 24.5028 11.0108 24.489 11.0281C24.4548 11.0587 24.4436 11.104 24.4161 11.1402C24.3969 11.1815 24.3827 11.2258 24.3649 11.27C24.3612 11.2945 24.3565 11.3188 24.3509 11.343C24.3454 11.3678 24.3378 11.3848 24.3337 11.4384L24.3043 11.7078L24.2522 12.2468C24.2163 12.6059 24.1871 12.9651 24.1648 13.324C24.1176 14.0415 24.0917 14.7585 24.1073 15.4698C24.1205 16.1814 24.1791 16.8862 24.3211 17.5705L24.3233 17.5807C24.3635 17.7744 24.239 17.9639 24.0451 18.004C23.8791 18.0384 23.7162 17.9519 23.6475 17.8049Z" fill="#390075"/>
<path d="M43.9241 17.2723L32.0872 16.1062C31.4679 15.2569 31.196 14.3171 31.1486 13.3686C31.0688 11.808 31.5995 10.2128 32.2188 8.91734C32.7431 7.81797 34.3031 7.85681 34.7821 8.97555C36.2321 12.3555 38.8623 14.5304 40.9315 15.8022C42.6122 16.8369 43.9241 17.2723 43.9241 17.2723Z" fill="#E9C289"/>
<g opacity="0.2">
<path d="M43.924 17.2729L32.087 16.1067C31.4677 15.2574 31.1959 14.3176 31.1484 13.3691C31.1484 13.3691 33.7441 16.7642 40.9313 15.8028C42.6121 16.8375 43.924 17.2729 43.924 17.2729Z" fill="#390075"/>
</g>
<path d="M31.7995 16.3157C31.413 15.9483 31.0943 15.4957 30.8639 14.9954C30.6447 14.492 30.5088 13.9513 30.455 13.4073C30.3697 12.3168 30.554 11.25 30.8509 10.2508C30.9964 9.74785 31.184 9.26385 31.3909 8.79102L31.4688 8.61382L31.4883 8.56952L31.5211 8.50737L31.5893 8.3835C31.6325 8.30014 31.6869 8.22163 31.7479 8.14584C31.8066 8.06905 31.8655 7.99284 31.9391 7.92732C32.2147 7.65075 32.5707 7.45082 32.9466 7.35622C33.6959 7.15938 34.5416 7.38974 35.0898 7.96176L35.1913 8.06802L35.2789 8.18409C35.3355 8.26272 35.3955 8.34061 35.4365 8.42566L35.502 8.55228L35.5584 8.66725L35.633 8.82178L35.93 9.44074C36.0214 9.65108 36.1412 9.84685 36.2577 10.0445L36.6045 10.6396L37.0025 11.2041L37.2013 11.487C37.2691 11.5803 37.3474 11.6659 37.4199 11.7559C37.5671 11.9342 37.7166 12.1106 37.8613 12.2918C38.0143 12.4658 38.1775 12.6315 38.3351 12.8024L38.5736 13.0573L38.8283 13.2971C39.0007 13.4542 39.1644 13.6216 39.338 13.7786C40.0404 14.3985 40.7898 14.9735 41.5764 15.5041C42.3615 16.0278 43.1972 16.5248 44.0358 16.936L44.0555 16.9456C44.2326 17.0324 44.3057 17.2463 44.2188 17.4232C44.1431 17.5774 43.9707 17.6525 43.8104 17.6119C43.3023 17.4835 42.8323 17.3278 42.3623 17.1384C41.8921 16.9557 41.4338 16.7447 40.9841 16.5145C40.0856 16.0528 39.2247 15.5092 38.4158 14.8872C38.2151 14.7301 38.0201 14.5646 37.8253 14.3992L37.5339 14.1496L37.2575 13.8824C37.0744 13.7029 36.8861 13.5281 36.7074 13.3435L36.1967 12.7641C36.1132 12.666 36.0242 12.5725 35.9453 12.4704L35.7132 12.1601L35.2503 11.5377L34.8394 10.8776L34.6346 10.5467C34.5635 10.4379 34.5158 10.3159 34.4553 10.2011L34.112 9.50121L34.0264 9.32604L34.0158 9.30414L34.0102 9.29531L33.9996 9.27777C33.9929 9.26596 33.9864 9.25403 33.9808 9.24165C33.9723 9.21401 33.9525 9.19804 33.9389 9.17671L33.9186 9.1446C33.9092 9.13677 33.9003 9.12863 33.8918 9.12003C33.7654 8.98048 33.5424 8.91283 33.3404 8.9577C33.2412 8.98044 33.1549 9.02654 33.0838 9.09388C33.0626 9.10673 33.0489 9.12931 33.0322 9.14877C33.0139 9.1665 32.9965 9.18653 32.9846 9.21298L32.9619 9.2483L32.9495 9.26576L32.9307 9.30475L32.8557 9.46066C32.6584 9.87719 32.474 10.2992 32.3242 10.7281C32.1756 11.157 32.0466 11.5914 31.966 12.0286C31.8858 12.4656 31.8455 12.9034 31.8428 13.3365C31.8482 13.7684 31.887 14.1949 31.969 14.622C32.0583 15.0473 32.206 15.4606 32.3765 15.8968L32.3864 15.9221C32.4591 16.1082 32.367 16.318 32.1807 16.3906C32.0458 16.4432 31.8982 16.4091 31.7995 16.3157Z" fill="#390075"/>
<path d="M71.9992 72.0633C72.2756 72.5591 72.2903 73.1805 71.9867 73.7056C71.6831 74.2328 71.1365 74.5299 70.569 74.5382C70.5606 75.1052 70.2632 75.6512 69.7355 75.9545C69.2099 76.2579 68.588 76.2432 68.0916 75.9671C67.8006 76.4524 67.2687 76.7767 66.6614 76.7767C66.0541 76.7767 65.5222 76.4524 65.2312 75.9671C64.7369 76.2432 64.1129 76.2579 63.5873 75.9545C63.0617 75.6512 62.7623 75.1052 62.7539 74.5382C62.1885 74.5299 61.6398 74.2328 61.3362 73.7056C61.0325 73.1805 61.0493 72.5592 61.3236 72.0633C61.1267 71.9462 60.9571 71.7893 60.8273 71.603C60.6284 71.3311 60.5132 70.9964 60.5132 70.6344C60.5132 70.0277 60.8378 69.4963 61.3236 69.2056C61.0493 68.7118 61.0325 68.0884 61.3362 67.5633C61.6398 67.0382 62.1885 66.739 62.7539 66.7307C62.7623 66.1637 63.0617 65.6177 63.5873 65.3143C64.1129 65.011 64.7369 65.0277 65.2312 65.3018C65.5222 64.8165 66.0541 64.4922 66.6614 64.4922C67.2687 64.4922 67.8006 64.8165 68.0916 65.3018C68.588 65.0277 69.2099 65.011 69.7355 65.3143C70.2632 65.6177 70.5606 66.1637 70.569 66.7307C71.1365 66.739 71.683 67.0382 71.9867 67.5633C72.0076 67.6009 72.0265 67.6365 72.0453 67.6742C72.2861 68.1742 72.2568 68.7474 71.9992 69.2056C72.4851 69.4963 72.8118 70.0277 72.8118 70.6344C72.8117 71.2412 72.485 71.7725 71.9992 72.0633Z" fill="white"/>
<g opacity="0.2">
<path d="M71.9991 72.062C72.2755 72.5578 72.2902 73.1792 71.9866 73.7043C71.6829 74.2314 71.1363 74.5285 70.5688 74.5369C70.5605 75.1038 70.2631 75.6499 69.7354 75.9532C69.2098 76.2566 68.5878 76.2419 68.0915 75.9657C67.8005 76.4511 67.2686 76.7754 66.6613 76.7754C66.054 76.7754 65.5221 76.4511 65.231 75.9657C64.7368 76.2419 64.1128 76.2565 63.5872 75.9532C63.0615 75.6499 62.7621 75.1038 62.7537 74.5369C62.1884 74.5285 61.6397 74.2315 61.336 73.7043C61.0324 73.1792 61.0492 72.5578 61.3234 72.062C61.1266 71.9448 60.957 71.7879 60.8271 71.6017C63.6897 72.4009 69.0339 72.9386 72.0452 67.6729C72.286 68.1728 72.2566 68.7461 71.9991 69.2042C72.4849 69.495 72.8116 70.0264 72.8116 70.6331C72.8116 71.2398 72.4849 71.7712 71.9991 72.062Z" fill="#390075"/>
</g>
<path d="M66.6613 77.4907C66.0383 77.4907 65.4427 77.2419 65.0032 76.8171C64.4097 76.9651 63.7693 76.8834 63.2302 76.5721C62.6905 76.261 62.2993 75.7481 62.1312 75.1606C61.5433 74.9926 61.0299 74.6019 60.7183 74.063C60.4069 73.5239 60.3247 72.8843 60.473 72.2914C60.0479 71.8524 59.7988 71.2572 59.7988 70.6348C59.7988 70.0124 60.0479 69.4176 60.473 68.9783C60.3247 68.3858 60.4067 67.7462 60.7181 67.207C61.0299 66.668 61.5432 66.2772 62.1312 66.1092C62.2993 65.5218 62.6906 65.009 63.2302 64.6977C63.7697 64.3865 64.4097 64.3043 65.0032 64.4526C65.4426 64.028 66.0381 63.7793 66.6613 63.7793C67.2843 63.7793 67.8799 64.028 68.3195 64.4526C68.9126 64.3044 69.5524 64.3863 70.0925 64.6977C70.632 65.009 71.0232 65.5219 71.1913 66.1092C71.7794 66.2772 72.2927 66.668 72.6042 67.207C72.9158 67.746 72.9978 68.3856 72.8494 68.9783C73.2746 69.4174 73.5236 70.0124 73.5236 70.6348C73.5236 71.2574 73.2746 71.8524 72.8494 72.2915C72.9978 72.8841 72.9156 73.5238 72.6043 74.0628C72.2927 74.6018 71.7794 74.9926 71.1913 75.1606C71.0232 75.7481 70.632 76.261 70.0925 76.5721C69.5528 76.8834 68.9126 76.9651 68.3195 76.8171C67.8797 77.2419 67.2843 77.4907 66.6613 77.4907ZM65.2304 75.2556C65.473 75.2556 65.7092 75.3795 65.8425 75.6016C66.017 75.8922 66.323 76.0656 66.6613 76.0656C66.9995 76.0656 67.3056 75.892 67.4803 75.6014C67.6783 75.272 68.1022 75.1587 68.4379 75.3452C68.7345 75.5098 69.0867 75.507 69.3792 75.3379C69.6721 75.169 69.8503 74.8659 69.8561 74.5272C69.8625 74.1429 70.1726 73.8331 70.5572 73.8268C70.8963 73.821 71.1996 73.6429 71.3689 73.3503C71.538 73.0577 71.5406 72.7061 71.376 72.4095C71.1894 72.0736 71.303 71.6503 71.6329 71.4529C71.9236 71.2786 72.0971 70.9729 72.0971 70.6349C72.0971 70.2971 71.9236 69.9912 71.6327 69.8169C71.303 69.6193 71.1894 69.196 71.376 68.8601C71.5406 68.5639 71.538 68.2123 71.3687 67.9197C71.1997 67.6271 70.8963 67.449 70.5572 67.4432C70.1726 67.4369 69.8625 67.1271 69.8562 66.7428C69.8504 66.4041 69.6721 66.101 69.379 65.9319C69.0863 65.763 68.7343 65.76 68.4379 65.9248C68.1022 66.1112 67.6783 65.9981 67.4801 65.6684C67.3056 65.378 66.9995 65.2045 66.6613 65.2045C66.323 65.2045 66.0168 65.3778 65.8425 65.6682C65.6447 65.9979 65.221 66.1118 64.8848 65.9248C64.5883 65.7603 64.2362 65.7628 63.9435 65.9319C63.6506 66.101 63.4722 66.4041 63.4663 66.7428C63.46 67.1271 63.1499 67.4369 62.7653 67.4432C62.4262 67.449 62.1228 67.6272 61.9536 67.9199C61.7845 68.2123 61.7819 68.564 61.9464 68.8601C62.1331 69.1961 62.0197 69.6191 61.69 69.8168C61.3991 69.9913 61.2253 70.2971 61.2253 70.6349C61.2253 70.9729 61.3989 71.2786 61.6898 71.4529C62.0195 71.6506 62.1331 72.0736 61.9464 72.4096C61.7819 72.7061 61.7845 73.0577 61.9537 73.3504C62.1228 73.6428 62.4262 73.821 62.7652 73.8268C63.1499 73.8332 63.46 74.143 63.4663 74.5272C63.4721 74.866 63.6503 75.1691 63.9434 75.338C64.2361 75.5071 64.5881 75.5095 64.8849 75.3452C64.9944 75.2843 65.1131 75.2556 65.2304 75.2556Z" fill="#390075"/>
<path d="M6.47661 71.1201C5.57979 75.6903 5.4056 89.589 18.1182 83.2156L6.47661 71.1201Z" fill="#E9C289"/>
<g opacity="0.2">
<path d="M6.47661 71.1201C5.57979 75.6903 5.4056 89.589 18.1182 83.2156L6.47661 71.1201Z" fill="#390075"/>
</g>
<path d="M12.3959 85.573C10.9576 85.573 9.71497 85.1788 8.67518 84.3897C4.72696 81.3934 5.24403 73.6957 5.77644 70.9825C5.82763 70.7218 6.01984 70.5111 6.27521 70.4361C6.53021 70.3614 6.80594 70.434 6.9905 70.6259L18.6321 82.7213C18.7892 82.8844 18.8593 83.1125 18.821 83.3357C18.7827 83.5587 18.6405 83.7504 18.4378 83.8519C16.1502 84.9989 14.1309 85.573 12.3959 85.573ZM6.96307 72.6532C6.55883 76.1904 6.91842 81.2669 9.53807 83.2551C11.2132 84.526 13.6931 84.4379 16.918 82.9962L6.96307 72.6532Z" fill="#390075"/>
<path d="M56.5817 69.3398C56.5817 69.3398 59.4884 80.5999 52.1114 83.8661C45.9646 86.5875 41.2148 77.4786 41.2148 77.4786L56.5817 69.3398Z" fill="#E9C289"/>
<g opacity="0.2">
<path d="M56.5817 69.3398C56.5817 69.3398 59.4884 80.5999 52.1114 83.8661C45.9646 86.5875 41.2148 77.4786 41.2148 77.4786L56.5817 69.3398Z" fill="#390075"/>
</g>
<path d="M49.7944 85.0864C47.8043 85.0864 45.7896 84.1146 43.8559 82.1994C41.8442 80.2072 40.6329 77.9055 40.5823 77.8084C40.4013 77.4611 40.5344 77.033 40.8808 76.8497L56.2478 68.7108C56.4408 68.6088 56.67 68.6005 56.8697 68.6884C57.0696 68.7765 57.2179 68.9512 57.2724 69.1625C57.3033 69.2817 58.0249 72.1241 57.825 75.4216C57.5521 79.9222 55.6763 83.0676 52.4004 84.5179C51.5428 84.8977 50.6709 85.0864 49.7944 85.0864ZM42.2019 77.7628C43.3642 79.6691 47.246 85.2409 51.8224 83.2152C57.4077 80.7422 56.5527 73.0495 56.0772 70.414L42.2019 77.7628Z" fill="#390075"/>
<path d="M47.7449 82.761C46.8578 83.6258 46.4528 84.8724 46.6617 86.0932L48.8682 98.9432C49.4162 102.134 46.0636 104.567 43.1961 103.06L31.6443 96.9934C30.5468 96.4173 29.2346 96.4173 28.1371 96.9934L16.5853 103.06C13.7178 104.567 10.3666 102.134 10.9132 98.9432L11.2294 97.1049L13.1197 86.0932C13.33 84.8724 12.925 83.6258 12.0364 82.761L2.69112 73.6606C0.370156 71.4005 1.65083 67.465 4.85751 66.999L17.773 65.1249C18.9993 64.9462 20.061 64.1757 20.609 63.0649L26.3856 51.3728C27.8194 48.4708 31.9619 48.4708 33.3971 51.3728L39.1723 63.0649C39.7218 64.1757 40.7821 64.9462 42.0098 65.1249L53.377 66.7745L54.9239 66.999C58.1306 67.465 59.4112 71.4005 57.0903 73.6606L47.7449 82.761Z" fill="#FFD243"/>
<g opacity="0.7">
<path d="M28.1416 54.2803C27.3017 57.1608 24.9951 64.7701 23.411 67.166C21.817 69.5734 12.1097 69.5219 8.43506 69.3689L18.1839 67.9537C20.3446 67.6392 22.2105 66.2854 23.1763 64.3298L28.1416 54.2803Z" fill="white"/>
</g>
<path d="M47.7454 82.7599C46.8582 83.6247 46.4532 84.8713 46.6621 86.0921L48.8686 98.9422C49.4167 102.133 46.064 104.566 43.1965 103.059L31.6447 96.9923C30.5472 96.4162 29.2351 96.4162 28.1375 96.9923L16.5857 103.059C13.7182 104.566 10.367 102.133 10.9136 98.9422L11.2298 97.1038C18.8795 95.0853 44.9151 86.874 53.3775 66.7734L54.9243 66.9979C58.131 67.4639 59.4117 71.3994 57.0907 73.6595L47.7454 82.7599Z" fill="#FFA92C"/>
<path d="M14.7628 104.226C13.8082 104.226 12.8604 103.928 12.05 103.339C10.616 102.299 9.91157 100.568 10.2112 98.8227L12.4172 85.9724C12.5872 84.9822 12.2588 83.9725 11.5388 83.2713L2.19327 74.1706C0.924081 72.9345 0.475917 71.1207 1.02367 69.4366C1.57122 67.7526 3.00106 66.5483 4.75518 66.2936L17.6703 64.4188C18.6654 64.2744 19.5251 63.6503 19.9701 62.7494L25.7459 51.0577C26.5303 49.4698 28.1187 48.4834 29.8912 48.4834C31.6635 48.4834 33.2519 49.4698 34.0363 51.0577L39.8121 62.7495C40.2571 63.6503 41.1168 64.2743 42.1119 64.4188L55.027 66.2935C56.7812 66.5483 58.211 67.7526 58.7585 69.4365C59.3063 71.1207 58.8581 72.9345 57.5889 74.1705L48.2434 83.2713C47.5235 83.9725 47.1951 84.9821 47.365 85.9724L49.5713 98.8229C49.8709 100.568 49.1663 102.298 47.7323 103.339C46.2985 104.38 44.4331 104.515 42.8641 103.691L31.3125 97.6236C30.4222 97.1561 29.3594 97.1563 28.4698 97.6236L16.9182 103.691C16.2358 104.049 15.4973 104.226 14.7628 104.226ZM29.8912 49.9085C28.647 49.9085 27.5757 50.5738 27.0252 51.6882L21.2494 63.3801C20.5965 64.7016 19.3351 65.6171 17.8754 65.8289L4.96033 67.7037C3.72924 67.8825 2.76455 68.6949 2.38028 69.877C1.99582 71.0589 2.2981 72.2826 3.18899 73.1501L12.5345 82.2508C13.5908 83.2793 14.0725 84.7606 13.8231 86.2131L11.6171 99.0636C11.4068 100.288 11.882 101.456 12.8883 102.186C13.8949 102.917 15.1528 103.008 16.2543 102.43L27.8059 96.3624C29.1117 95.6769 30.6706 95.6763 31.9764 96.3624L43.528 102.43C44.6289 103.008 45.8876 102.917 46.894 102.186C47.9003 101.456 48.3757 100.288 48.1654 99.0636L45.9592 86.2131C45.7097 84.7606 46.1915 83.2793 47.2478 82.2508L56.5933 73.1501C57.4842 72.2826 57.7865 71.0589 57.402 69.877C57.0177 68.6948 56.0531 67.8824 54.822 67.7037L41.9069 65.8289C40.4472 65.6171 39.1858 64.7016 38.5329 63.3802L32.7571 51.6883C32.2065 50.5738 31.1352 49.9085 29.8912 49.9085Z" fill="#390075"/>
<path d="M56.5824 66.9607L53.7743 66.5549C49.9714 66.5193 52.4801 73.1846 44.8828 71.9691C41.5008 71.4273 39.7356 69.7201 39.6288 67.331C39.5827 66.2557 39.8717 65.0423 40.4999 63.7348C43.5426 57.4021 52.1723 59.0758 54.9449 62.8896C55.0098 62.9796 55.0726 63.0737 55.1334 63.1699V63.172C56.0547 64.6385 56.5824 66.9607 56.5824 66.9607Z" fill="#E9C289"/>
<g opacity="0.7">
<path d="M56.5824 66.9607L56.0652 66.8854C55.8286 66.2118 55.5145 65.4587 55.1334 64.8499V64.8478C55.0726 64.7515 55.0098 64.6574 54.9449 64.5674C52.1723 60.7536 43.5426 59.08 40.4999 65.4126C40.0769 66.2955 39.8067 67.1344 39.6916 67.9189C39.658 67.7285 39.6372 67.5318 39.6288 67.331C39.5827 66.2557 39.8717 65.0423 40.4999 63.7348C43.5426 57.4021 52.1723 59.0758 54.9449 62.8896C55.0098 62.9796 55.0726 63.0737 55.1334 63.1699V63.172C56.0547 64.6385 56.5824 66.9607 56.5824 66.9607Z" fill="white"/>
</g>
<g opacity="0.2">
<path d="M56.5826 66.9596L53.7744 66.5537C49.9716 66.5182 52.4803 73.1835 44.883 71.968C41.501 71.4261 39.7357 69.719 39.6289 67.3299C40.5021 68.3383 42.2402 69.5328 45.2955 68.765C50.1956 67.5349 50.7883 64.4491 53.5713 64.491C54.7859 64.5098 55.1523 63.901 55.1335 63.1709C56.0549 64.6374 56.5826 66.9596 56.5826 66.9596Z" fill="#390075"/>
</g>
<path d="M46.5785 72.8283C46.0382 72.8283 45.438 72.7795 44.7692 72.6725C42.1782 72.258 40.3484 71.1603 39.4773 69.4978C38.6109 67.8439 38.7418 65.7445 39.8559 63.4263C41.149 60.7356 43.5342 59.1028 46.5721 58.8285C50.0001 58.5199 53.763 60.051 55.5214 62.4709C56.6315 63.9985 57.2515 66.6894 57.2773 66.8032C57.3294 67.0322 57.2652 67.272 57.1056 67.4445C56.9463 67.6169 56.7116 67.7005 56.4792 67.666L53.7225 67.2658C52.721 67.2746 52.3928 67.8892 51.8122 69.1486C51.0811 70.7344 50.1157 72.8283 46.5785 72.8283ZM47.4529 60.2144C47.2002 60.2144 46.9491 60.2254 46.7004 60.2478C44.9196 60.4086 42.5094 61.1976 41.1419 64.0431C40.2303 65.9397 40.0917 67.5973 40.741 68.8369C41.395 70.0851 42.866 70.9247 44.9949 71.2653C48.9719 71.9017 49.7225 70.2747 50.5166 68.5525C51.1028 67.2809 51.7669 65.8406 53.7434 65.8406C53.7559 65.8406 53.7682 65.8406 53.7809 65.8408C53.813 65.8411 53.8452 65.8435 53.8769 65.8482L55.6072 66.0994C55.3486 65.2536 54.9209 64.0703 54.3669 63.3081C53.0328 61.4718 50.1615 60.2144 47.4529 60.2144Z" fill="#390075"/>
<path d="M20.8532 70.0867C17.9486 72.7185 12.7532 72.0825 10.9775 70.0239C9.29381 68.0741 9.85507 67.526 8.78497 66.4444C8.29912 66.5156 7.14111 66.662 7.14111 66.662C7.14111 66.662 7.14111 64.4151 8.3285 62.5699C8.82476 61.8 9.53052 61.185 10.3618 60.7185C13.9909 58.6787 20.0134 59.4256 21.517 62.1201C21.7725 62.5741 22.1892 63.6348 22.3714 64.8984C22.6185 66.593 22.4362 68.6515 20.8532 70.0867Z" fill="#E9C289"/>
<g opacity="0.7">
<path d="M21.7724 68.9423C21.9316 68.1159 21.9085 67.2686 21.7955 66.4988C21.6133 65.2352 21.1966 64.1745 20.9411 63.7205C19.4375 61.0259 13.415 60.2791 9.78593 62.3189C8.95457 62.7854 8.24884 63.4005 7.75259 64.1704C7.62274 64.3733 7.50544 64.5804 7.40283 64.7896C7.57458 64.0971 7.85937 63.3022 8.32846 62.5699C8.82471 61.8001 9.53048 61.185 10.3618 60.7185C13.9909 58.6787 20.0134 59.4256 21.517 62.1201C21.7724 62.5741 22.1892 63.6348 22.3714 64.8984C22.5577 66.1808 22.4991 67.6703 21.7724 68.9423Z" fill="white"/>
</g>
<g opacity="0.2">
<path d="M20.8532 70.087C17.9486 72.7188 12.7532 72.0828 10.9775 70.0242C9.29381 68.0744 9.85507 67.5263 8.78497 66.4447C8.29912 66.5158 7.14111 66.6623 7.14111 66.6623C7.14111 66.6623 7.14111 64.4154 8.3285 62.5702C8.82476 61.8003 9.53052 61.1853 10.3618 60.7188C10.1085 61.4886 9.80059 63.0367 10.5692 64.7794C12.0497 68.1371 21.2197 69.6539 22.3714 64.8987C22.6185 66.5932 22.4362 68.6518 20.8532 70.087Z" fill="#390075"/>
</g>
<path d="M15.9133 72.537C15.7149 72.537 15.5154 72.5308 15.3145 72.5185C13.2477 72.3919 11.4246 71.6335 10.4377 70.49C9.44142 69.3359 9.1601 68.6135 8.93384 68.0329C8.80812 67.7102 8.71508 67.4713 8.50569 67.2029C7.97049 67.2752 7.26787 67.3646 7.23053 67.3693C7.02707 67.3961 6.82292 67.3325 6.66896 67.1972C6.51539 67.0619 6.42725 66.867 6.42725 66.6625C6.42725 66.5621 6.44202 64.1823 7.7295 62.185C9.40071 59.5925 12.9288 58.7616 15.6752 58.8478C18.7089 58.9434 21.1861 60.0638 22.1403 61.7718C22.7757 62.9091 24.5005 67.7429 21.3331 70.6136C19.9683 71.8503 18.0186 72.537 15.9133 72.537ZM8.7846 65.7321C8.97363 65.7321 9.15674 65.8073 9.29179 65.9435C9.88361 66.5415 10.0766 67.037 10.2632 67.5161C10.4594 68.0198 10.6818 68.5907 11.5178 69.5595C12.2479 70.4053 13.7362 70.9941 15.4018 71.0962C17.3523 71.2143 19.1646 70.655 20.3749 69.558C22.8325 67.3304 21.2988 63.1896 20.8948 62.4662C20.2049 61.2314 18.0893 60.3497 15.6303 60.2721C12.6697 60.1768 10.0402 61.2324 8.92887 62.9565C8.2898 63.9479 8.03051 65.0907 7.92534 65.8425C8.20815 65.8053 8.49643 65.7666 8.68191 65.7396C8.71603 65.7346 8.75043 65.7321 8.7846 65.7321Z" fill="#390075"/>
<path d="M43.7003 69.2559C43.7271 69.2109 42.9383 66.6163 40.2393 67.7916C38.4338 68.5778 39.0988 74.3346 40.7886 74.3996C41.7893 74.4382 42.7328 70.8771 43.7003 69.2559Z" fill="white"/>
<path d="M40.8095 75.1123C40.7934 75.1123 40.7773 75.1119 40.7611 75.1113C39.731 75.0718 38.9438 74.008 38.6014 72.1929C38.2264 70.2055 38.4898 67.7759 39.9542 67.1382C41.9554 66.2665 43.1429 67.1451 43.6723 67.7464C43.6828 67.7582 44.7097 68.9552 44.3127 69.6205C44.0018 70.1416 43.6718 70.932 43.3527 71.6962C42.5571 73.6015 41.9262 75.1123 40.8095 75.1123ZM41.5425 68.1993C41.2399 68.1993 40.8997 68.2811 40.5244 68.4445C40.0206 68.6638 39.6833 70.2336 40.0031 71.9287C40.222 73.0888 40.5997 73.5634 40.7615 73.6655C41.114 73.356 41.6866 71.9849 42.0361 71.1477C42.323 70.4609 42.618 69.7543 42.9223 69.1843C42.8097 68.941 42.5681 68.5365 42.1429 68.3299C41.9638 68.2428 41.7631 68.1993 41.5425 68.1993Z" fill="#390075"/>
<path d="M46.8189 69.5947C46.8458 69.5497 46.0569 66.9551 43.358 68.1304C41.5525 68.9167 42.2174 74.6735 43.9072 74.7385C44.908 74.777 45.8514 71.2159 46.8189 69.5947Z" fill="white"/>
<path d="M43.928 75.4514C43.9121 75.4514 43.896 75.4511 43.8798 75.4505C42.8495 75.4108 42.0623 74.3468 41.7199 72.5315C41.3451 70.5442 41.6087 68.1149 43.0729 67.4772C45.075 66.6051 46.2614 67.4843 46.7912 68.0856C46.8017 68.0974 47.8284 69.2942 47.4314 69.9595C47.1206 70.4806 46.7905 71.271 46.4714 72.0352C45.6758 73.9407 45.0448 75.4514 43.928 75.4514ZM44.6612 68.5383C44.3586 68.5383 44.0182 68.6201 43.6429 68.7836C43.1395 69.0028 42.8021 70.5724 43.1217 72.2675C43.3407 73.4276 43.7184 73.9024 43.8802 74.0045C44.2327 73.6952 44.8053 72.3239 45.1549 71.4865C45.4417 70.7999 45.7367 70.0933 46.041 69.5233C45.9283 69.28 45.6868 68.8756 45.2616 68.6689C45.0825 68.5818 44.8818 68.5383 44.6612 68.5383Z" fill="#390075"/>
<path d="M50.5206 70.0195C50.5474 69.9746 49.7586 67.3799 47.0596 68.5552C45.2541 69.3415 45.9191 75.0983 47.6089 75.1633C48.6096 75.2019 49.5531 71.6407 50.5206 70.0195Z" fill="white"/>
<path d="M47.6298 75.876C47.6139 75.876 47.5978 75.8756 47.5816 75.8751C46.5515 75.8355 45.7643 74.7715 45.4217 72.9562C45.0467 70.969 45.3102 68.5394 46.7745 67.9018C48.7762 67.0302 49.9632 67.9089 50.493 68.5102C50.5034 68.5221 51.5307 69.7195 51.1328 70.3847C50.822 70.9057 50.4923 71.6957 50.1732 72.4598C49.3776 74.3652 48.7467 75.876 47.6298 75.876ZM48.3628 68.9629C48.0602 68.9629 47.7198 69.0447 47.3445 69.2081C46.8411 69.4274 46.5037 70.9972 46.8235 72.6923C47.0425 73.8524 47.4202 74.327 47.582 74.4292C47.9345 74.1198 48.507 72.7484 48.8567 71.911C49.1435 71.2244 49.4385 70.5179 49.7428 69.9479C49.6301 69.7046 49.3886 69.3003 48.9634 69.0935C48.7841 69.0064 48.5836 68.9629 48.3628 68.9629ZM49.9081 69.6542C49.9079 69.6546 49.9077 69.6549 49.9075 69.6553C49.9077 69.6549 49.9079 69.6547 49.9081 69.6544V69.6542Z" fill="#390075"/>
<path d="M17.8546 67.7755C17.8401 67.7252 19.2656 65.4175 21.575 67.242C23.1199 68.4625 21.0066 73.8592 19.3561 73.4913C18.3787 73.2734 18.376 69.5897 17.8546 67.7755Z" fill="white"/>
<path d="M19.5269 74.2221C19.4182 74.2221 19.3095 74.2102 19.2009 74.1859C18.0805 73.9364 17.854 72.2977 17.5675 70.2231C17.4541 69.4028 17.3368 68.5546 17.1692 67.9716C17.1692 67.9714 17.1692 67.9712 17.1692 67.971C16.9555 67.2254 18.2565 66.33 18.2697 66.321C18.935 65.8757 20.3065 65.3309 22.0175 66.6823C23.2708 67.6724 22.9048 70.0889 22.0347 71.9148C21.3256 73.4028 20.4268 74.2221 19.5269 74.2221ZM18.6252 67.9044C18.7739 68.5329 18.8785 69.2912 18.9805 70.0282C19.1048 70.927 19.308 72.3989 19.5699 72.7879C19.7526 72.7304 20.2389 72.368 20.7466 71.3023C21.489 69.7447 21.5637 68.1406 21.1328 67.8002C20.5774 67.3615 20.0601 67.1857 19.5972 67.2768C19.1333 67.3682 18.7963 67.6978 18.6252 67.9044Z" fill="#390075"/>
<path d="M14.5436 67.9533C14.5291 67.9029 15.9545 65.5953 18.264 67.4197C19.8089 68.6402 17.6955 74.0369 16.0451 73.669C15.0677 73.4511 15.065 69.7674 14.5436 67.9533Z" fill="white"/>
<path d="M16.2152 74.3999C16.1067 74.3999 15.998 74.388 15.8896 74.3637C14.7691 74.1138 14.5427 72.4756 14.2562 70.4014C14.1428 69.5808 14.0255 68.7324 13.8577 68.1492C13.8577 68.149 13.8577 68.1488 13.8577 68.1486C13.644 67.403 14.9447 66.5075 14.958 66.4988C15.6233 66.0535 16.9952 65.5085 18.7062 66.8601C19.9591 67.85 19.5935 70.2659 18.7235 72.0917C18.0144 73.5803 17.1155 74.3999 16.2152 74.3999ZM15.3137 68.082C15.4624 68.7107 15.5672 69.4692 15.6692 70.2064C15.7934 71.105 15.9966 72.5767 16.2585 72.9656C16.4411 72.908 16.9275 72.5454 17.4355 71.4791C18.1776 69.9219 18.2522 68.3182 17.8214 67.978C17.2662 67.5392 16.7502 67.3632 16.2855 67.4545C15.8218 67.5458 15.4848 67.8754 15.3137 68.082ZM15.2289 67.7563H15.229C15.2289 67.7563 15.229 67.7563 15.2289 67.7563Z" fill="#390075"/>
<path d="M10.9781 68.0841C10.9637 68.0338 12.3891 65.7261 14.6985 67.5506C16.2434 68.7711 14.1301 74.1678 12.4796 73.7999C11.5022 73.582 11.4996 69.8983 10.9781 68.0841Z" fill="white"/>
<path d="M12.6498 74.5307C12.5413 74.5307 12.4325 74.5188 12.3242 74.4945C11.2037 74.2447 10.9773 72.6064 10.6907 70.5322C10.5773 69.7116 10.46 68.8632 10.2923 68.28C10.2923 68.2798 10.2923 68.2796 10.2923 68.2794C10.0786 67.5338 11.3793 66.6384 11.3926 66.6296C12.0578 66.1843 13.4299 65.6395 15.1408 66.9909C16.3937 67.9808 16.0281 70.3967 15.1581 72.2225C14.449 73.7111 13.5501 74.5307 12.6498 74.5307ZM11.7483 68.2128C11.897 68.8416 12.0018 69.6001 12.1038 70.3372C12.228 71.2359 12.4313 72.7076 12.6932 73.0965C12.8757 73.0388 13.3621 72.6762 13.8701 71.61C14.6122 70.0528 14.6868 68.4491 14.256 68.1088C13.7006 67.6701 13.1843 67.4943 12.7201 67.5854C12.2564 67.6766 11.9194 68.0062 11.7483 68.2128ZM11.6635 67.8872H11.6636C11.6635 67.8872 11.6636 67.8872 11.6635 67.8872Z" fill="#390075"/>
</svg>
