<svg width="44" height="44" viewBox="0 0 44 44" fill="none" xmlns="http://www.w3.org/2000/svg">
<path d="M32.4046 37.0838C33.1205 36.3679 33.1205 35.207 32.4046 34.491C31.6887 33.7751 30.5278 33.7751 29.8118 34.491C29.0959 35.207 29.0959 36.3679 29.8118 37.0838C30.5282 37.7988 31.6883 37.7988 32.4046 37.0838Z" fill="#373737"/>
<path d="M11.5955 34.4913C10.8796 35.2072 10.8796 36.3682 11.5955 37.0841C12.3114 37.8 13.4724 37.8 14.1883 37.0841C14.9042 36.3682 14.9042 35.2072 14.1883 34.4913C13.4719 33.7763 12.3119 33.7763 11.5955 34.4913Z" fill="#373737"/>
<path d="M38.1702 16.9913C36.6751 15.4962 33.7404 14.9394 30.3923 18.288L21.9998 26.68L13.6072 18.288C10.2582 14.9389 7.32439 15.4967 5.8293 16.9918C5.47134 17.3493 5.47089 17.9291 5.82839 18.287L5.8293 18.288L18.1103 30.569L16.7816 31.8977L16.7798 31.8959C16.3444 31.4618 15.8402 31.1025 15.2879 30.8316C13.6723 30.0369 11.7679 30.0932 10.2018 30.9815C7.54943 32.4743 6.60939 35.8348 8.10218 38.4876C8.48855 39.1737 9.01701 39.7691 9.65272 40.2339C11.9288 41.8115 15.0125 41.5085 16.9384 39.5184L21.9998 34.458L27.0611 39.5198C28.9875 41.5085 32.0703 41.811 34.3468 40.2352C36.8007 38.4464 37.3402 35.007 35.5513 32.5531C35.3803 32.3185 35.1906 32.0975 34.9848 31.8927C34.631 31.5393 34.2322 31.2336 33.7991 30.9829C32.2325 30.0937 30.3272 30.0373 28.7107 30.8316C28.1588 31.1043 27.6547 31.4646 27.2179 31.8986L25.8883 30.569L38.1698 18.2875C38.5277 17.93 38.5282 17.3497 38.1707 16.9918L38.1702 16.9913ZM15.6422 38.2227C14.3584 39.5757 12.2845 39.8021 10.739 38.758C9.09722 37.5613 8.73605 35.2605 9.93276 33.6187C10.2467 33.1879 10.651 32.83 11.1171 32.571C12.1506 31.9843 13.4074 31.9481 14.473 32.4734C15.0725 32.764 15.5831 33.2108 15.9511 33.7663C16.2321 34.1884 16.8023 34.303 17.2244 34.0221C17.2743 33.9886 17.3211 33.9506 17.3642 33.908L19.407 31.8652L20.7031 33.1613L15.6422 38.2227ZM27.3765 34.1738C27.6506 34.1463 27.8971 33.9973 28.0488 33.7672C28.4183 33.2122 28.9284 32.7658 29.5274 32.4734C30.5926 31.9486 31.8489 31.9857 32.8815 32.5715C34.6571 33.5582 35.2965 35.7972 34.3101 37.5728C34.0507 38.0398 33.6928 38.4445 33.261 38.759C31.7155 39.8026 29.642 39.5762 28.3578 38.2236L7.91197 17.7774C9.10134 17.3387 10.7023 17.9749 12.3111 19.5837L26.6367 33.9093C26.8311 34.1046 27.1028 34.2013 27.3765 34.1738ZM24.5921 29.2728L23.2959 27.9762L31.6885 19.5837C33.2972 17.9745 34.8982 17.3397 36.0876 17.7769L24.5921 29.2728Z" fill="#373737"/>
<path d="M27.801 14.9332C27.801 12.5522 25.2445 9.78613 21.9481 9.78613C18.6518 9.78613 16.0952 12.5522 16.0952 14.9332C16.0952 17.2373 18.3378 18.6696 21.9481 18.6696C25.5584 18.6696 27.801 17.2373 27.801 14.9332ZM21.9481 16.8362C20.0048 16.8362 17.9285 16.3366 17.9285 14.9332C17.9285 13.4418 19.7834 11.6195 21.9481 11.6195C24.1128 11.6195 25.9677 13.4423 25.9677 14.9332C25.9677 16.3366 23.8915 16.8362 21.9481 16.8362Z" fill="#373737"/>
<path d="M24.7872 8.89686C24.6781 8.89686 24.5676 8.88816 24.4567 8.87074C23.7426 8.75845 23.1243 8.27674 22.7595 7.54937C22.441 6.9132 22.3328 6.13312 22.4556 5.35303C22.7315 3.60037 24.0387 2.40045 25.4398 2.61953C26.8373 2.83907 27.7168 4.38457 27.4414 6.13724C27.1875 7.75103 26.0563 8.89686 24.7872 8.89686ZM25.1195 4.42766C24.8426 4.42766 24.3857 4.88141 24.267 5.63812C24.2042 6.03778 24.2523 6.43516 24.399 6.72803C24.4448 6.81878 24.569 7.03282 24.7418 7.06032C25.0099 7.10249 25.5063 6.6437 25.6305 5.85262C25.7547 5.06199 25.4265 4.47303 25.1552 4.43041C25.1433 4.42857 25.1314 4.42766 25.1195 4.42766Z" fill="#373737"/>
<path d="M19.1089 8.89644C17.8403 8.89644 16.7086 7.75061 16.4547 6.13681C16.1793 4.38369 17.0583 2.83865 18.4563 2.61865C19.8519 2.39911 21.1646 3.59948 21.4405 5.35215C21.7159 7.10527 20.8368 8.65031 19.4394 8.87031C19.3285 8.88819 19.218 8.89644 19.1089 8.89644ZM18.7771 4.42723C18.7647 4.42723 18.7528 4.42815 18.7409 4.42998C18.4696 4.47261 18.1414 5.06156 18.2656 5.85219C18.3898 6.64236 18.8779 7.10069 19.1543 7.0599C19.4256 7.01727 19.7533 6.42831 19.6291 5.63769C19.5104 4.88098 19.0539 4.42723 18.7771 4.42723Z" fill="#373737"/>
<path d="M14.6596 13.0074C14.204 13.0074 13.7365 12.8616 13.3093 12.5775C12.7332 12.1943 12.2657 11.5884 11.993 10.8711C11.7203 10.1538 11.6671 9.39069 11.8431 8.72152C12.0453 7.9529 12.5403 7.36852 13.2007 7.11735C13.8607 6.86619 14.6193 6.9739 15.2811 7.41435C15.8572 7.79706 16.3247 8.40344 16.5974 9.12027C17.2111 10.7341 16.6808 12.3827 15.3902 12.8736C15.156 12.9634 14.9094 13.0074 14.6596 13.0074ZM13.9336 8.81823C13.9038 8.81823 13.8763 8.82281 13.852 8.83198C13.753 8.86956 13.665 9.00294 13.616 9.18856C13.5376 9.48648 13.5706 9.86231 13.7067 10.2198C13.8424 10.5773 14.0679 10.8803 14.3246 11.0508C14.4845 11.1571 14.6399 11.1979 14.738 11.1608C14.9722 11.0714 15.1496 10.4724 14.8837 9.77248C14.7476 9.41498 14.5226 9.11202 14.2659 8.94152C14.1444 8.86131 14.0266 8.81823 13.9336 8.81823Z" fill="#373737"/>
<path d="M29.2469 12.9981C28.9994 12.9981 28.7514 12.9546 28.5108 12.8629C27.8522 12.6126 27.359 12.0296 27.1578 11.2633C26.9822 10.5969 27.0354 9.83651 27.3072 9.12243C27.5785 8.40835 28.0437 7.80472 28.6176 7.42339C29.2776 6.98476 30.0329 6.87751 30.6915 7.12731C31.3502 7.37756 31.8433 7.96056 32.0445 8.72643C32.2201 9.39285 32.1669 10.1532 31.8951 10.8673C31.3978 12.174 30.3226 12.9981 29.2469 12.9981ZM29.96 8.82772C29.8688 8.82772 29.7524 8.87035 29.6323 8.9501C29.3779 9.11922 29.1552 9.41943 29.02 9.77418C28.8852 10.1289 28.8522 10.502 28.9302 10.7972C28.9783 10.9805 29.0649 11.1125 29.1621 11.1492C29.394 11.2386 29.9174 10.909 30.1819 10.2156C30.3166 9.86126 30.3496 9.48818 30.2717 9.19301C30.2236 9.00968 30.1369 8.87768 30.0402 8.84101C30.0164 8.83185 29.9898 8.82772 29.96 8.82772Z" fill="#373737"/>
</svg>
